<svg xmlns="http://www.w3.org/2000/svg" width="167.181" height="144.578" viewBox="0 0 167.181 144.578">
  <g id="Grupo_1173670" data-name="Grupo 1173670" transform="translate(0)">
    <g id="Grupo_1173546" data-name="Grupo 1173546" transform="translate(42.032 65.921)">
      <g id="Grupo_1173540" data-name="Grupo 1173540">
        <g id="Grupo_1173539" data-name="Grupo 1173539">
          <path id="Trazado_1027136" data-name="Trazado 1027136" d="M349.477,369.588s-19.1-6.761-6.288-21.943,42.344-8.147,46.94-4.191c10.118,8.71,4.69,15.389,4.69,15.389S379.35,374.719,349.477,369.588Z" transform="translate(-338.766 -338.334)" fill="#ffae0b"/>
        </g>
      </g>
      <g id="Grupo_1173545" data-name="Grupo 1173545" transform="translate(9.645 6.227)">
        <g id="Grupo_1173542" data-name="Grupo 1173542" transform="translate(0 3.71)">
          <g id="Grupo_1173541" data-name="Grupo 1173541">
            <path id="Trazado_1027137" data-name="Trazado 1027137" d="M359.225,354.357a.64.64,0,0,1-.291-1.208c.519-.27,12.858-6.6,25.756-5.355a.639.639,0,1,1-.123,1.273c-12.519-1.2-24.919,5.152-25.043,5.217A.631.631,0,0,1,359.225,354.357Z" transform="translate(-358.589 -347.633)" fill="#f28900"/>
          </g>
        </g>
        <g id="Grupo_1173544" data-name="Grupo 1173544" transform="translate(8.962)">
          <g id="Grupo_1173543" data-name="Grupo 1173543">
            <path id="Trazado_1027138" data-name="Trazado 1027138" d="M375.175,349.389a.637.637,0,0,1-.5-.243c-2.023-2.555-8.393-3.7-8.457-3.716a.64.64,0,0,1,.221-1.26c.281.049,6.913,1.245,9.238,4.18a.639.639,0,0,1-.1.9A.631.631,0,0,1,375.175,349.389Z" transform="translate(-365.692 -344.161)" fill="#f28900"/>
          </g>
        </g>
      </g>
    </g>
    <g id="Grupo_1173548" data-name="Grupo 1173548" transform="translate(46.531 76.746)">
      <g id="Grupo_1173547" data-name="Grupo 1173547">
        <path id="Trazado_1027139" data-name="Trazado 1027139" d="M385.567,364.066c-3.663-10.264-30.329-15.6-30.329-15.6l-17.621.37a169.864,169.864,0,0,0-22.291,16.137,29.581,29.581,0,0,0-2.207,17.489c1.718,9.575,4.932,18.382,7.014,25.6h73.432Z" transform="translate(-312.663 -348.464)" fill="#ffae0b"/>
      </g>
    </g>
    <g id="Grupo_1173552" data-name="Grupo 1173552" transform="translate(55.177 120.165)">
      <g id="Grupo_1173550" data-name="Grupo 1173550" transform="translate(0)">
        <g id="Grupo_1173549" data-name="Grupo 1173549">
          <path id="Trazado_1027140" data-name="Trazado 1027140" d="M373.891,405.268h1.319l5.472-15.342a.621.621,0,0,0-1.17-.419Z" transform="translate(-373.891 -389.096)" fill="#f28900"/>
        </g>
      </g>
      <g id="Grupo_1173551" data-name="Grupo 1173551" transform="translate(2.948 4.482)">
        <path id="Trazado_1027141" data-name="Trazado 1027141" d="M372.137,397.447a.621.621,0,0,0,.3-.08l5.175-2.915a.621.621,0,1,0-.609-1.081l-5.176,2.915a.621.621,0,0,0,.306,1.162Z" transform="translate(-371.515 -393.29)" fill="#f28900"/>
      </g>
    </g>
    <g id="Grupo_1173558" data-name="Grupo 1173558" transform="translate(72.409 91.297)">
      <g id="Grupo_1173557" data-name="Grupo 1173557" transform="translate(0)">
        <g id="Grupo_1173556" data-name="Grupo 1173556">
          <g id="Grupo_1173555" data-name="Grupo 1173555">
            <g id="Grupo_1173554" data-name="Grupo 1173554">
              <g id="Grupo_1173553" data-name="Grupo 1173553">
                <path id="Trazado_1027142" data-name="Trazado 1027142" d="M345.567,370.668c10.33-.491,19.578-7.17,20.034-7.5a.6.6,0,1,0-.708-.967c-.127.093-12.879,9.3-24.7,6.893a.6.6,0,1,0-.238,1.174A22.748,22.748,0,0,0,345.567,370.668Z" transform="translate(-339.478 -362.081)" fill="#f28900"/>
              </g>
            </g>
          </g>
        </g>
      </g>
    </g>
    <g id="Grupo_1173560" data-name="Grupo 1173560" transform="translate(73.699 94.723)">
      <g id="Grupo_1173559" data-name="Grupo 1173559" transform="translate(0)">
        <path id="Trazado_1027143" data-name="Trazado 1027143" d="M362.261,406.9c-3.505-22.475-8.067-40.518-8.143-40.816a.64.64,0,0,1,1.24-.316c.077.3,4.676,18.493,8.2,41.132Z" transform="translate(-354.098 -365.287)" fill="#fff"/>
      </g>
    </g>
    <g id="Grupo_1173562" data-name="Grupo 1173562" transform="translate(95.695 92.86)">
      <g id="Grupo_1173561" data-name="Grupo 1173561" transform="translate(0)">
        <path id="Trazado_1027144" data-name="Trazado 1027144" d="M341.7,407.021c-3.538-23.333-8.352-42.373-8.43-42.679a.64.64,0,0,1,1.24-.316c.079.309,4.931,19.5,8.483,43Z" transform="translate(-333.246 -363.544)" fill="#fff"/>
      </g>
    </g>
    <g id="Grupo_1173564" data-name="Grupo 1173564" transform="translate(66.02 85.058)">
      <g id="Grupo_1173563" data-name="Grupo 1173563">
        <path id="Trazado_1027145" data-name="Trazado 1027145" d="M357.2,364.572a28.988,28.988,0,0,1-4.386-.384,42.443,42.443,0,0,1-11.848-3.874.64.64,0,1,1,.6-1.131,41.891,41.891,0,0,0,11.482,3.745c8.213,1.313,14.248-.84,17.933-6.4a.64.64,0,1,1,1.066.707C368.809,362.128,363.725,364.621,357.2,364.572Z" transform="translate(-340.629 -356.243)" fill="#f28900"/>
      </g>
    </g>
    <g id="Grupo_1173655" data-name="Grupo 1173655" transform="translate(51.646 0)">
      <g id="Grupo_1173575" data-name="Grupo 1173575" transform="translate(18.73 66.645)">
        <g id="Grupo_1173569" data-name="Grupo 1173569">
          <g id="Grupo_1173568" data-name="Grupo 1173568">
            <g id="Grupo_1173567" data-name="Grupo 1173567">
              <g id="Grupo_1173566" data-name="Grupo 1173566">
                <g id="Grupo_1173565" data-name="Grupo 1173565">
                  <path id="Trazado_1027146" data-name="Trazado 1027146" d="M360.862,362.731c-8.019,1.317-15.93-5-15.93-5a49.416,49.416,0,0,0,.825-15.112c-.208-2.181-.452-3.611-.452-3.611l21.288,8,.734,7.969.178,1.948S367.567,361.63,360.862,362.731Z" transform="translate(-344.932 -339.012)" fill="#fda66f"/>
                </g>
              </g>
            </g>
          </g>
        </g>
        <g id="Grupo_1173574" data-name="Grupo 1173574" transform="translate(0.374 0.001)">
          <g id="Grupo_1173573" data-name="Grupo 1173573">
            <g id="Grupo_1173572" data-name="Grupo 1173572">
              <g id="Grupo_1173571" data-name="Grupo 1173571">
                <g id="Grupo_1173570" data-name="Grupo 1173570">
                  <path id="Trazado_1027147" data-name="Trazado 1027147" d="M367.12,354.976c-10.8-.778-18.674-8.907-21.689-13.5a13.755,13.755,0,0,0-.332-2.465l21.288,8Z" transform="translate(-345.099 -339.013)" fill="#291c2a"/>
                </g>
              </g>
            </g>
          </g>
        </g>
      </g>
      <g id="Grupo_1173580" data-name="Grupo 1173580" transform="translate(49.125 38.24)">
        <g id="Grupo_1173579" data-name="Grupo 1173579" transform="translate(0)">
          <g id="Grupo_1173578" data-name="Grupo 1173578">
            <g id="Grupo_1173577" data-name="Grupo 1173577">
              <g id="Grupo_1173576" data-name="Grupo 1173576">
                <path id="Trazado_1027148" data-name="Trazado 1027148" d="M327.969,317.118s1.369-5.375,6.621-4.613,6.33,22.236-6.546,21.343Z" transform="translate(-327.969 -312.431)" fill="#fc804d"/>
              </g>
            </g>
          </g>
        </g>
      </g>
      <g id="Grupo_1173585" data-name="Grupo 1173585" transform="translate(8.053 17.444)">
        <g id="Grupo_1173584" data-name="Grupo 1173584">
          <g id="Grupo_1173583" data-name="Grupo 1173583">
            <g id="Grupo_1173582" data-name="Grupo 1173582">
              <g id="Grupo_1173581" data-name="Grupo 1173581">
                <path id="Trazado_1027149" data-name="Trazado 1027149" d="M378.043,336.4c-1.864,10.314-8.362,17.787-19.349,16.546-24-2.715-27.506-36.406-27.506-36.406-1.684-17.376,12.07-26.015,28.518-22.97s18.034,13.481,19.019,21.578a79.08,79.08,0,0,1,.292,12.609c-.047.848-.1,1.711-.18,2.586-.093,1.071-.207,2.154-.352,3.242C378.36,334.523,378.216,335.465,378.043,336.4Z" transform="translate(-331.048 -292.97)" fill="#fda66f"/>
              </g>
            </g>
          </g>
        </g>
      </g>
      <ellipse id="Elipse_12047" data-name="Elipse 12047" cx="3.484" cy="3.484" rx="3.484" ry="3.484" transform="translate(38.291 60.547)" fill="#fff"/>
      <g id="Grupo_1173586" data-name="Grupo 1173586" transform="translate(39.381 69.044)">
        <path id="Trazado_1027150" data-name="Trazado 1027150" d="M342.672,341.562a.59.59,0,0,0,.123,1.153,9.549,9.549,0,0,0,3.864-.316.59.59,0,0,0-.418-1.1,8.743,8.743,0,0,1-3.352.245A.566.566,0,0,0,342.672,341.562Z" transform="translate(-342.252 -341.257)" fill="#fc804d"/>
      </g>
      <g id="Grupo_1173591" data-name="Grupo 1173591" transform="translate(45.151 39.835)">
        <g id="Grupo_1173590" data-name="Grupo 1173590">
          <g id="Grupo_1173589" data-name="Grupo 1173589">
            <g id="Grupo_1173588" data-name="Grupo 1173588">
              <g id="Grupo_1173587" data-name="Grupo 1173587">
                <path id="Trazado_1027151" data-name="Trazado 1027151" d="M333.845,316.35a1.213,1.213,0,0,1,.348-2.106,6.694,6.694,0,0,1,4.165.033,7.949,7.949,0,0,1,3.233,2.065,1.213,1.213,0,0,1-1.846,1.575,5.873,5.873,0,0,0-2.224-1.362,4.332,4.332,0,0,0-2.539-.017A1.205,1.205,0,0,1,333.845,316.35Z" transform="translate(-333.375 -313.923)" fill="#291c2a"/>
              </g>
            </g>
          </g>
        </g>
      </g>
      <g id="Grupo_1173596" data-name="Grupo 1173596" transform="translate(26.222 37.518)">
        <g id="Grupo_1173595" data-name="Grupo 1173595">
          <g id="Grupo_1173594" data-name="Grupo 1173594">
            <g id="Grupo_1173593" data-name="Grupo 1173593">
              <g id="Grupo_1173592" data-name="Grupo 1173592">
                <path id="Trazado_1027152" data-name="Trazado 1027152" d="M359.162,314.067a1.214,1.214,0,0,0-.452-2.086,6.681,6.681,0,0,0-4.159.238,7.954,7.954,0,0,0-3.127,2.221,1.213,1.213,0,0,0,1.92,1.482,5.877,5.877,0,0,1,2.154-1.47,4.337,4.337,0,0,1,2.535-.141A1.214,1.214,0,0,0,359.162,314.067Z" transform="translate(-351.175 -311.755)" fill="#291c2a"/>
              </g>
            </g>
          </g>
        </g>
      </g>
      <g id="Grupo_1173601" data-name="Grupo 1173601" transform="translate(8.522 35.545)">
        <g id="Grupo_1173600" data-name="Grupo 1173600">
          <g id="Grupo_1173599" data-name="Grupo 1173599">
            <g id="Grupo_1173598" data-name="Grupo 1173598">
              <g id="Grupo_1173597" data-name="Grupo 1173597">
                <path id="Trazado_1027153" data-name="Trazado 1027153" d="M360.639,317.645a9.538,9.538,0,0,1,4.855,3.321s1.244,8.739,5.008,8.02,1.016-6.986,2.607-9.568c1-1.62,3.679-4.6,3.521-9.509C376.63,309.909,364.83,311.819,360.639,317.645Z" transform="translate(-360.639 -309.909)" fill="#291c2a"/>
              </g>
            </g>
          </g>
        </g>
      </g>
      <g id="Grupo_1173602" data-name="Grupo 1173602" transform="translate(5.596 27.126)">
        <path id="Trazado_1027154" data-name="Trazado 1027154" d="M378.779,310.45s1.876-5.785.006-8.062-18.481,7.068-18.481,7.068-2,5.954,2.482,8.73Z" transform="translate(-359.862 -302.03)" fill="#291c2a"/>
      </g>
      <g id="Grupo_1173607" data-name="Grupo 1173607" transform="translate(52.153 36.553)">
        <g id="Grupo_1173606" data-name="Grupo 1173606" transform="translate(0)">
          <g id="Grupo_1173605" data-name="Grupo 1173605">
            <g id="Grupo_1173604" data-name="Grupo 1173604">
              <g id="Grupo_1173603" data-name="Grupo 1173603">
                <path id="Trazado_1027155" data-name="Trazado 1027155" d="M330.8,310.852a10.142,10.142,0,0,0,1.987,4.871,8.379,8.379,0,0,1,1.749,4l.249,1.79s.94-7.394-.738-10.08Z" transform="translate(-330.804 -310.852)" fill="#291c2a"/>
              </g>
            </g>
          </g>
        </g>
      </g>
      <g id="Grupo_1173608" data-name="Grupo 1173608" transform="translate(50.303 28.125)">
        <path id="Trazado_1027156" data-name="Trazado 1027156" d="M331.048,303.716l1.851,7.676,3.987,2.865s-.691-8.914-2.628-11.292Z" transform="translate(-331.048 -302.965)" fill="#291c2a"/>
      </g>
      <g id="Grupo_1173613" data-name="Grupo 1173613" transform="translate(22.653 52.19)">
        <g id="Grupo_1173612" data-name="Grupo 1173612" transform="translate(0)">
          <g id="Grupo_1173611" data-name="Grupo 1173611">
            <g id="Grupo_1173610" data-name="Grupo 1173610">
              <g id="Grupo_1173609" data-name="Grupo 1173609">
                <path id="Trazado_1027157" data-name="Trazado 1027157" d="M362.986,326.757c.022.775-2.055,1.464-4.641,1.539s-4.7-.491-4.723-1.265,2.055-1.463,4.641-1.539S362.964,325.982,362.986,326.757Z" transform="translate(-353.622 -325.485)" fill="#fc804d"/>
              </g>
            </g>
          </g>
        </g>
      </g>
      <g id="Grupo_1173618" data-name="Grupo 1173618" transform="translate(49.407 52.152)">
        <g id="Grupo_1173617" data-name="Grupo 1173617" transform="translate(0)">
          <g id="Grupo_1173616" data-name="Grupo 1173616">
            <g id="Grupo_1173615" data-name="Grupo 1173615">
              <g id="Grupo_1173614" data-name="Grupo 1173614">
                <path id="Trazado_1027158" data-name="Trazado 1027158" d="M337.593,328.116a15.824,15.824,0,0,1-1.71.145c-2.586.074-4.7-.492-4.724-1.266s2.054-1.462,4.641-1.539a14.056,14.056,0,0,1,1.974.074C337.727,326.379,337.671,327.241,337.593,328.116Z" transform="translate(-331.159 -325.449)" fill="#fc804d"/>
              </g>
            </g>
          </g>
        </g>
      </g>
      <g id="Grupo_1173623" data-name="Grupo 1173623" transform="translate(29.564 45.561)">
        <g id="Grupo_1173622" data-name="Grupo 1173622" transform="translate(0)">
          <g id="Grupo_1173621" data-name="Grupo 1173621">
            <g id="Grupo_1173620" data-name="Grupo 1173620">
              <g id="Grupo_1173619" data-name="Grupo 1173619">
                <path id="Trazado_1027159" data-name="Trazado 1027159" d="M356.092,321.754c.041,1.387-.54,2.53-1.3,2.552s-1.4-1.085-1.444-2.472.54-2.531,1.3-2.552S356.051,320.366,356.092,321.754Z" transform="translate(-353.35 -319.282)" fill="#291c2a"/>
              </g>
            </g>
          </g>
        </g>
      </g>
      <g id="Grupo_1173628" data-name="Grupo 1173628" transform="translate(46.52 45.704)">
        <g id="Grupo_1173627" data-name="Grupo 1173627" transform="translate(0)">
          <g id="Grupo_1173626" data-name="Grupo 1173626">
            <g id="Grupo_1173625" data-name="Grupo 1173625">
              <g id="Grupo_1173624" data-name="Grupo 1173624">
                <path id="Trazado_1027160" data-name="Trazado 1027160" d="M340.225,321.887c.041,1.387-.54,2.53-1.3,2.553s-1.4-1.085-1.444-2.472.54-2.531,1.3-2.552S340.184,320.5,340.225,321.887Z" transform="translate(-337.483 -319.416)" fill="#291c2a"/>
              </g>
            </g>
          </g>
        </g>
      </g>
      <g id="Grupo_1173633" data-name="Grupo 1173633" transform="translate(39.414 49.526)">
        <g id="Grupo_1173632" data-name="Grupo 1173632" transform="translate(0)">
          <g id="Grupo_1173631" data-name="Grupo 1173631">
            <g id="Grupo_1173630" data-name="Grupo 1173630">
              <g id="Grupo_1173629" data-name="Grupo 1173629">
                <path id="Trazado_1027161" data-name="Trazado 1027161" d="M343.471,332.1a.8.8,0,0,1,.091-1.586,17.346,17.346,0,0,0,1.729-.192,52.027,52.027,0,0,0-1.436-6.307.8.8,0,0,1,1.533-.455,47.387,47.387,0,0,1,1.576,7.333.8.8,0,0,1-.594.843,15.517,15.517,0,0,1-2.708.374A.763.763,0,0,1,343.471,332.1Z" transform="translate(-342.812 -322.992)" fill="#fc804d"/>
              </g>
            </g>
          </g>
        </g>
      </g>
      <g id="Grupo_1173649" data-name="Grupo 1173649" transform="translate(3.886 43.405)">
        <g id="Grupo_1173638" data-name="Grupo 1173638">
          <g id="Grupo_1173637" data-name="Grupo 1173637">
            <g id="Grupo_1173636" data-name="Grupo 1173636">
              <g id="Grupo_1173635" data-name="Grupo 1173635">
                <g id="Grupo_1173634" data-name="Grupo 1173634">
                  <path id="Trazado_1027162" data-name="Trazado 1027162" d="M376.371,320.462s-2.777-4.8-7.626-2.64-.05,23.118,12.1,18.762Z" transform="translate(-366.88 -317.264)" fill="#fda66f"/>
                </g>
              </g>
            </g>
          </g>
        </g>
        <g id="Grupo_1173643" data-name="Grupo 1173643" transform="translate(2.633 3.302)">
          <g id="Grupo_1173642" data-name="Grupo 1173642">
            <g id="Grupo_1173641" data-name="Grupo 1173641">
              <g id="Grupo_1173640" data-name="Grupo 1173640">
                <g id="Grupo_1173639" data-name="Grupo 1173639">
                  <path id="Trazado_1027163" data-name="Trazado 1027163" d="M376.971,330.854a.8.8,0,0,1-.658-.778,9.623,9.623,0,0,0-4.642-8.213.8.8,0,0,1,.741-1.418,11.12,11.12,0,0,1,5.5,9.612.8.8,0,0,1-.79.809A.79.79,0,0,1,376.971,330.854Z" transform="translate(-371.241 -320.354)" fill="#fc804d"/>
                </g>
              </g>
            </g>
          </g>
        </g>
        <g id="Grupo_1173648" data-name="Grupo 1173648" transform="translate(3.156 7.999)">
          <g id="Grupo_1173647" data-name="Grupo 1173647">
            <g id="Grupo_1173646" data-name="Grupo 1173646">
              <g id="Grupo_1173645" data-name="Grupo 1173645">
                <g id="Grupo_1173644" data-name="Grupo 1173644">
                  <path id="Trazado_1027164" data-name="Trazado 1027164" d="M372.61,326.784a.8.8,0,0,1-.156-1.53c.274-.109,2.722-1.035,4.473-.067a.8.8,0,1,1-.774,1.4c-.928-.514-2.6-.049-3.108.154A.822.822,0,0,1,372.61,326.784Z" transform="translate(-371.949 -324.749)" fill="#fc804d"/>
                </g>
              </g>
            </g>
          </g>
        </g>
      </g>
      <path id="Trazado_1027165" data-name="Trazado 1027165" d="M376.619,304.771s7.941-3.357,10.314-9.538c3.377-8.795-5.036-15.415-5.036-15.415s0,8.413-5.569,9.517c0,0,6.209-5.793-1.069-12.689,0,0-3.332,8-8.1,10.482,0,0,3.248-7.586-3.879-10.482,0,0,.379,8.689-6.224,10.482s-22.456,1.38-25.426,7.586c0,0-2.9-2.758-4.637-1.471s1.711,4.046,1.711,4.046-4.457-.767-5.469,1.547,4.413,2.59,4.413,2.59-.063,9.047,1.256,14.638c0,0,23.931-10.408,33.584-8.11S376.619,304.771,376.619,304.771Z" transform="translate(-323.107 -276.646)" fill="#291c2a"/>
      <g id="Grupo_1173654" data-name="Grupo 1173654" transform="translate(10.098 41.037)">
        <g id="Grupo_1173650" data-name="Grupo 1173650" transform="translate(32.651 0.362)">
          <path id="Trazado_1027166" data-name="Trazado 1027166" d="M340.446,330.285a7.928,7.928,0,1,0-10.747-3.2A7.937,7.937,0,0,0,340.446,330.285Zm-7.158-13.215a7.1,7.1,0,1,1-2.863,9.626A7.108,7.108,0,0,1,333.289,317.07Z" transform="translate(-328.744 -315.387)" fill="#fff"/>
        </g>
        <g id="Grupo_1173651" data-name="Grupo 1173651" transform="translate(14.481)">
          <path id="Trazado_1027167" data-name="Trazado 1027167" d="M357.45,329.946a7.928,7.928,0,1,0-10.747-3.194A7.938,7.938,0,0,0,357.45,329.946Zm-7.159-13.215a7.1,7.1,0,1,1-2.862,9.626A7.109,7.109,0,0,1,350.292,316.731Z" transform="translate(-345.748 -315.048)" fill="#fff"/>
        </g>
        <g id="Grupo_1173652" data-name="Grupo 1173652" transform="translate(0 1.502)">
          <path id="Trazado_1027168" data-name="Trazado 1027168" d="M375.153,319.02l-.468.932c-.054-.036-8.184-4.638-14.226-1.635,0,0-.816-.485-1.181-.634a13.807,13.807,0,0,1,7.133-1.18A24.068,24.068,0,0,1,375.153,319.02Z" transform="translate(-359.278 -316.453)" fill="#fff"/>
        </g>
        <g id="Grupo_1173653" data-name="Grupo 1173653" transform="translate(29.639 6.309)">
          <path id="Trazado_1027169" data-name="Trazado 1027169" d="M346.081,322.426l.558-.611a2.975,2.975,0,0,0-3.748-.326l.492.666A2.2,2.2,0,0,1,346.081,322.426Z" transform="translate(-342.891 -320.952)" fill="#fff"/>
        </g>
      </g>
    </g>
    <g id="Grupo_1173656" data-name="Grupo 1173656" transform="translate(29.865 92.347)">
      <path id="Trazado_1027170" data-name="Trazado 1027170" d="M399.3,407.054H373.7c8.235-33.921,19.328-43.084,19.328-43.084,8.878-4.532,16.394,8.594,11.446,24.812C403.039,393.467,401.2,400.056,399.3,407.054Z" transform="translate(-373.695 -363.063)" fill="#ffae0b"/>
    </g>
    <g id="Grupo_1173662" data-name="Grupo 1173662" transform="translate(81.76 23.114)">
      <path id="Trazado_1027171" data-name="Trazado 1027171" d="M284.987,389s.016-.014.047-.044c.119-.119.48-.477,1.045-1.043,4.938-4.94,25.494-25.783,37.914-42.69,14.192-19.317-6.35-31.451-17.877-13.7-1.078,1.661-2.221,3.264-3.409,4.806-.256.331-.513.663-.773.987a109.347,109.347,0,0,1-26.464,23.267C275.217,369.486,284.987,389,284.987,389Z" transform="translate(-243.394 -296.587)" fill="#ffae0b"/>
      <g id="Grupo_1173657" data-name="Grupo 1173657" transform="translate(38.675 77.775)">
        <path id="Trazado_1027172" data-name="Trazado 1027172" d="M315.472,371.808l2.952,13.847c.119-.119.48-.477,1.045-1.043l-2.783-13.064a.621.621,0,1,0-1.214.26Z" transform="translate(-315.458 -371.057)" fill="#f28900"/>
      </g>
      <path id="Trazado_1027173" data-name="Trazado 1027173" d="M335.78,336.866c1.593-4.708-.931-9.242-4.78-12.386-9.377-7.659-39.45-22.276-51.49-22.957-6.544-.37-5.993,6.485,9.332,17.819,12.5,9.244,19.61,20.7,31.563,23.473C330.273,345.1,334.1,341.817,335.78,336.866Z" transform="translate(-250.927 -298.054)" fill="#ffae0b"/>
      <g id="Grupo_1173658" data-name="Grupo 1173658" transform="translate(0)">
        <path id="Trazado_1027174" data-name="Trazado 1027174" d="M348.972,307.517a13.73,13.73,0,0,1-7.8-1.38c-3.525-2-9.031-.414-8.876-2.414.075-.961,2.512-1.39,5.026-1.578a12.794,12.794,0,0,1,9.788,3.4C347.743,306.155,348.38,306.817,348.972,307.517Z" transform="translate(-324.279 -298.013)" fill="#fc804d"/>
        <path id="Trazado_1027175" data-name="Trazado 1027175" d="M356.77,299.367s-1.958-1.586-6.538-.934c-3.292.469-11.086,1.14-13.645,1.623s-.621,2.18,4.655,2.69S356.77,299.367,356.77,299.367Z" transform="translate(-335.467 -298.276)" fill="#fc804d"/>
        <path id="Trazado_1027176" data-name="Trazado 1027176" d="M354.823,303.609s-2.082-4.426-12.456-5.053-7.531.567-16.572,1.7-5.653,2.856.208,2.978,3.93-.461,8.156.826,5.8,8.95,14.533,6.639C352.242,309.761,355.4,306.79,354.823,303.609Z" transform="translate(-317.308 -298.269)" fill="#fda66f"/>
      </g>
      <g id="Grupo_1173661" data-name="Grupo 1173661" transform="translate(58.541 39.75)">
        <g id="Grupo_1173659" data-name="Grupo 1173659" transform="translate(0)">
          <path id="Trazado_1027177" data-name="Trazado 1027177" d="M290.834,336.461c.279.171.593.353.935.543.513.293,1.092.607,1.735.932a44.882,44.882,0,0,0,6.984,2.828.67.67,0,0,0,.182.028.62.62,0,0,0,.182-1.213,43.622,43.622,0,0,1-9.247-4.1C291.349,335.805,291.092,336.137,290.834,336.461Z" transform="translate(-290.834 -335.474)" fill="#f28900"/>
        </g>
        <g id="Grupo_1173660" data-name="Grupo 1173660" transform="translate(0.813 0.478)">
          <path id="Trazado_1027178" data-name="Trazado 1027178" d="M299.5,342.712a.621.621,0,0,0,.514-.967,30.012,30.012,0,0,1-2.716-5.418.621.621,0,0,0-1.165.43,30.7,30.7,0,0,0,2.851,5.681A.62.62,0,0,0,299.5,342.712Z" transform="translate(-296.092 -335.921)" fill="#f28900"/>
        </g>
      </g>
    </g>
    <g id="Grupo_1173669" data-name="Grupo 1173669" transform="translate(0 127.406)">
      <g id="Grupo_1173668" data-name="Grupo 1173668">
        <g id="Grupo_1173667" data-name="Grupo 1173667">
          <g id="Grupo_1173666" data-name="Grupo 1173666">
            <g id="Grupo_1173665" data-name="Grupo 1173665">
              <g id="Grupo_1173664" data-name="Grupo 1173664">
                <g id="Grupo_1173663" data-name="Grupo 1173663">
                  <path id="Trazado_1027179" data-name="Trazado 1027179" d="M406.078,407.53c.6,4.612,3.217,3.923,4.518-1.678.009.213.276,4.9,1.148,5.506,2.116,1.479,3.663-4.286,4.43-7.525-.436,2.563-.427,10.554,1.983,9.017,1.708-1.084,2.8-7.817,3.236-9.622-.419,1.881-1.263,9.207,1.448,9.043,1.774-.11,3.1-6.474,3.1-6.474l.033-.132.215-.863H433.7a4.885,4.885,0,0,0-.879-1.815,4.738,4.738,0,0,0-4.593-1.219c-.229.042-.436.082-.607.119-.27.056-.427.1-.427.1s-.019-.16-.063-.431c-.033-.2-.077-.45-.135-.739-.35-1.748-1.219-4.846-2.957-4.938-2.392-.124-3.04,2.416-3.059,2.486-.042-.124-1.021-2.938-3.109-2.315s-1.856,3.506-1.845,3.635c-.077-.1-2.409-3.368-3.942-2.447a4.277,4.277,0,0,0-1.8,2.9s-2.268-2.885-3.52-.45C405.783,401.59,405.792,405.334,406.078,407.53Z" transform="translate(-405.91 -395.872)" fill="#fda66f"/>
                </g>
              </g>
            </g>
          </g>
        </g>
      </g>
      <path id="Trazado_1027180" data-name="Trazado 1027180" d="M411.031,404.436h.926l1.081-3.034c-.229.042-.436.082-.607.119-.27.056-.427.1-.427.1s-.019-.16-.063-.431Z" transform="translate(-390.724 -395.507)" fill="#fc804d"/>
    </g>
  </g>
</svg>
