<svg xmlns="http://www.w3.org/2000/svg" xmlns:xlink="http://www.w3.org/1999/xlink" width="113" height="113" viewBox="0 0 113 113">
  <defs>
    <filter id="Trazado_982547" x="0" y="0" width="113" height="113" filterUnits="userSpaceOnUse">
      <feOffset dy="3" input="SourceAlpha"/>
      <feGaussianBlur stdDeviation="3" result="blur"/>
      <feFlood flood-opacity="0.161"/>
      <feComposite operator="in" in2="blur"/>
      <feComposite in="SourceGraphic"/>
    </filter>
  </defs>
  <g id="Grupo_1199622" data-name="Grupo 1199622" transform="translate(-194.31 -3708.139)">
    <g id="Grupo_1173102" data-name="Grupo 1173102" transform="translate(23.31 -156.861)">
      <g id="Grupo_1171485" data-name="Grupo 1171485" transform="translate(0 584)">
        <g id="Grupo_1167519" data-name="Grupo 1167519" transform="translate(180 3287)">
          <g id="Grupo_1166845" data-name="Grupo 1166845" transform="translate(0)">
            <g id="Grupo_1166720" data-name="Grupo 1166720">
              <g id="Grupo_1164305" data-name="Grupo 1164305">
                <g id="Grupo_1163948" data-name="Grupo 1163948">
                  <g id="Grupo_1158168" data-name="Grupo 1158168">
                    <g id="Grupo_1152576" data-name="Grupo 1152576">
                      <g id="Grupo_1148633" data-name="Grupo 1148633">
                        <g id="Grupo_1148525" data-name="Grupo 1148525">
                          <g transform="matrix(1, 0, 0, 1, -9, -6)" filter="url(#Trazado_982547)">
                            <g id="Trazado_982547-2" data-name="Trazado 982547" transform="translate(9 6)" fill="#fcf3f0">
                              <path d="M 47.5 93.5 C 41.28937149047852 93.5 35.26533508300781 92.28397369384766 29.59518623352051 89.88570404052734 C 24.11771965026855 87.56893157958984 19.19813346862793 84.25196075439453 14.97309303283691 80.02691650390625 C 10.74804019927979 75.80186462402344 7.431066513061523 70.88229370117188 5.114293098449707 65.40481567382812 C 2.716026782989502 59.73468017578125 1.5 53.71062850952148 1.5 47.5 C 1.5 41.28937149047852 2.716026782989502 35.26533508300781 5.114293098449707 29.59518623352051 C 7.431066513061523 24.11771965026855 10.74804019927979 19.19813346862793 14.97309303283691 14.97309303283691 C 19.19813346862793 10.74804019927979 24.11771965026855 7.431066513061523 29.59518623352051 5.114293098449707 C 35.26533508300781 2.716026782989502 41.28937149047852 1.5 47.5 1.5 C 53.71062850952148 1.5 59.73468017578125 2.716026782989502 65.40481567382812 5.114293098449707 C 70.88229370117188 7.431066513061523 75.80186462402344 10.74804019927979 80.02691650390625 14.97309303283691 C 84.25196075439453 19.19813346862793 87.56893157958984 24.11771965026855 89.88570404052734 29.59518623352051 C 92.28397369384766 35.26533508300781 93.5 41.28937149047852 93.5 47.5 C 93.5 53.71062850952148 92.28397369384766 59.73468017578125 89.88570404052734 65.40481567382812 C 87.56893157958984 70.88229370117188 84.25196075439453 75.80186462402344 80.02691650390625 80.02691650390625 C 75.80186462402344 84.25196075439453 70.88229370117188 87.56893157958984 65.40481567382812 89.88570404052734 C 59.73468017578125 92.28397369384766 53.71062850952148 93.5 47.5 93.5 Z" stroke="none"/>
                              <path d="M 47.5 3 C 41.49121475219727 3 35.66376876831055 4.176155090332031 30.17950439453125 6.495796203613281 C 24.88084411621094 8.736953735351562 20.12152099609375 11.94598388671875 16.03375244140625 16.03375244140625 C 11.94598388671875 20.12152099609375 8.736953735351562 24.88084411621094 6.495796203613281 30.17950439453125 C 4.176155090332031 35.66376876831055 3 41.49121475219727 3 47.5 C 3 53.50878524780273 4.176155090332031 59.33623123168945 6.495796203613281 64.82049560546875 C 8.736953735351562 70.11915588378906 11.94598388671875 74.87847900390625 16.03375244140625 78.96624755859375 C 20.12152099609375 83.05401611328125 24.88084411621094 86.26304626464844 30.17950439453125 88.50419616699219 C 35.66376876831055 90.82384490966797 41.49121475219727 92 47.5 92 C 53.50878524780273 92 59.33623123168945 90.82384490966797 64.82049560546875 88.50419616699219 C 70.11915588378906 86.26304626464844 74.87847900390625 83.05401611328125 78.96624755859375 78.96624755859375 C 83.05401611328125 74.87847900390625 86.26304626464844 70.11915588378906 88.50419616699219 64.82049560546875 C 90.82384490966797 59.33623123168945 92 53.50878524780273 92 47.5 C 92 41.49121475219727 90.82384490966797 35.66376876831055 88.50419616699219 30.17950439453125 C 86.26304626464844 24.88084411621094 83.05401611328125 20.12152099609375 78.96624755859375 16.03375244140625 C 74.87847900390625 11.94598388671875 70.11915588378906 8.736953735351562 64.82049560546875 6.495796203613281 C 59.33623123168945 4.176155090332031 53.50878524780273 3 47.5 3 M 47.5 0 C 73.7335205078125 0 95 21.2664794921875 95 47.5 C 95 73.7335205078125 73.7335205078125 95 47.5 95 C 21.2664794921875 95 0 73.7335205078125 0 47.5 C 0 21.2664794921875 21.2664794921875 0 47.5 0 Z" stroke="none" fill="#e89076"/>
                            </g>
                          </g>
                        </g>
                      </g>
                    </g>
                  </g>
                </g>
              </g>
            </g>
          </g>
        </g>
      </g>
    </g>
    <g id="iso-9001" transform="translate(215.806 3726.635)">
      <g id="Grupo_1199620" data-name="Grupo 1199620" transform="translate(1.025 1.026)">
        <circle id="Elipse_12092" data-name="Elipse 12092" cx="33.978" cy="33.978" r="33.978" fill="#62dbfb"/>
        <path id="Trazado_1039001" data-name="Trazado 1039001" d="M13.79,41.478A33.98,33.98,0,0,1,44.623,7.646c-1.036-.1-2.084-.146-3.145-.146a33.978,33.978,0,0,0,0,67.957c1.061,0,2.109-.051,3.145-.146A33.98,33.98,0,0,1,13.79,41.478Z" transform="translate(-7.5 -7.5)" fill="#01d0fb"/>
        <circle id="Elipse_12093" data-name="Elipse 12093" cx="23.446" cy="23.446" r="23.446" transform="translate(10.533 10.533)" fill="#f07281"/>
        <path id="Trazado_1039002" data-name="Trazado 1039002" d="M89.728,107.978a23.448,23.448,0,0,1,20.848-23.3,23.694,23.694,0,0,0-2.6-.144,23.445,23.445,0,1,0,0,46.891,23.69,23.69,0,0,0,2.6-.144A23.448,23.448,0,0,1,89.728,107.978Z" transform="translate(-73.999 -73.999)" fill="#eb5569"/>
      </g>
      <g id="Grupo_1199621" data-name="Grupo 1199621" transform="translate(0 0)">
        <path id="Trazado_1039003" data-name="Trazado 1039003" d="M67.956,23.173a1.026,1.026,0,1,0-1.93.694,32.77,32.77,0,0,1,1.913,10.112H59.452A24.416,24.416,0,0,0,51.5,16.944a42.334,42.334,0,0,0,8.6-3.3,33.171,33.171,0,0,1,4.05,5.98,1.025,1.025,0,1,0,1.813-.959,34.832,34.832,0,1,0,1.992,4.512ZM60.08,56.357A42.361,42.361,0,0,0,51.5,53.064a24.416,24.416,0,0,0,7.953-17.035h8.487A32.8,32.8,0,0,1,60.08,56.357ZM27.575,64.094a27.176,27.176,0,0,1-4.727-7.86,24.46,24.46,0,0,0,11.13,3.217v8.434a10.874,10.874,0,0,1-6.4-3.791Zm8.454,3.791V59.452a24.305,24.305,0,0,0,11.129-3.214,27.173,27.173,0,0,1-4.726,7.856A10.875,10.875,0,0,1,36.029,67.885ZM57.424,35a22.424,22.424,0,0,1-42,10.93,1.026,1.026,0,0,0-1.79,1,24.465,24.465,0,0,0,4.868,6.13,42.324,42.324,0,0,0-8.574,3.291A32.805,32.805,0,0,1,2.068,36.029h8.486a24.38,24.38,0,0,0,1.1,6.317,1.025,1.025,0,1,0,1.956-.616A22.423,22.423,0,1,1,57.424,35ZM9.926,13.652a42.375,42.375,0,0,0,8.582,3.292,24.416,24.416,0,0,0-7.953,17.034H2.068A32.8,32.8,0,0,1,9.926,13.652ZM42.432,5.914a27.178,27.178,0,0,1,4.726,7.856,24.306,24.306,0,0,0-11.129-3.214V2.123a10.875,10.875,0,0,1,6.4,3.791ZM33.978,2.123v8.433A24.305,24.305,0,0,0,22.85,13.77a27.173,27.173,0,0,1,4.726-7.856A10.875,10.875,0,0,1,33.978,2.123Zm24.7,9.946a42,42,0,0,1-8.764,3.171c-1.943-5.571-4.634-9.824-7.736-12.4a32.858,32.858,0,0,1,16.5,9.232ZM27.826,2.841c-3.1,2.58-5.788,6.831-7.73,12.4a42.035,42.035,0,0,1-8.742-3.158A32.943,32.943,0,0,1,27.826,2.841ZM11.355,57.928a42,42,0,0,1,8.74-3.159c1.942,5.567,4.631,9.819,7.73,12.4A32.945,32.945,0,0,1,11.355,57.928Zm30.826,9.24c3.1-2.58,5.788-6.831,7.73-12.4a42.03,42.03,0,0,1,8.74,3.159A32.943,32.943,0,0,1,42.182,67.167Z" transform="translate(0 0)"/>
        <path id="Trazado_1039004" data-name="Trazado 1039004" d="M343.149,272.028h-1.966a1.025,1.025,0,1,0,0,2.051h.94v8.171a1.025,1.025,0,0,0,2.051,0v-9.2A1.025,1.025,0,0,0,343.149,272.028Z" transform="translate(-293.647 -234.833)"/>
        <path id="Trazado_1039005" data-name="Trazado 1039005" d="M146.152,272.389a3.685,3.685,0,1,0,.421,7.345,7.882,7.882,0,0,1-1.677,1.958,1.026,1.026,0,0,0,1.227,1.643,10.306,10.306,0,0,0,3.668-6.682,3.684,3.684,0,0,0-3.639-4.264Zm-1.634,3.685a1.634,1.634,0,1,1,1.634,1.634A1.636,1.636,0,0,1,144.518,276.074Z" transform="translate(-122.987 -235.144)"/>
        <path id="Trazado_1039006" data-name="Trazado 1039006" d="M277.946,270.656a3.689,3.689,0,0,0-3.685,3.685v4.253a3.685,3.685,0,0,0,7.37,0v-4.253A3.689,3.689,0,0,0,277.946,270.656Zm1.634,7.938a1.634,1.634,0,0,1-3.268,0v-4.253a1.634,1.634,0,1,1,3.268,0Z" transform="translate(-236.76 -233.648)"/>
        <path id="Trazado_1039007" data-name="Trazado 1039007" d="M212.049,270.656a3.689,3.689,0,0,0-3.685,3.685v4.253a3.685,3.685,0,0,0,7.369,0v-4.253A3.689,3.689,0,0,0,212.049,270.656Zm1.634,7.938a1.634,1.634,0,1,1-3.267,0v-4.253a1.634,1.634,0,1,1,3.267,0Z" transform="translate(-179.874 -233.648)"/>
        <path id="Trazado_1039008" data-name="Trazado 1039008" d="M164.8,167.966a1.025,1.025,0,0,0,1.025-1.025V157.37a1.025,1.025,0,1,0-2.051,0v9.571A1.026,1.026,0,0,0,164.8,167.966Z" transform="translate(-141.378 -134.966)"/>
        <path id="Trazado_1039009" data-name="Trazado 1039009" d="M195.131,167.965a3.778,3.778,0,0,0,3.859-2.92c.226-1.266-.357-2.924-2.673-3.778-1.2-.444-2.321-.928-2.635-1.065a.83.83,0,0,1-.316-.8,1.125,1.125,0,0,1,.881-.906,3.361,3.361,0,0,1,2.792.64,1.025,1.025,0,0,0,1.315-1.574,5.4,5.4,0,0,0-4.7-1.03,3.2,3.2,0,0,0-2.32,2.579,2.873,2.873,0,0,0,1.281,2.844,1.02,1.02,0,0,0,.142.077c.055.025,1.368.609,2.847,1.155.972.359,1.469.9,1.364,1.493a1.786,1.786,0,0,1-1.84,1.229,3.506,3.506,0,0,1-2.576-1.082,1.026,1.026,0,1,0-1.52,1.377A5.587,5.587,0,0,0,195.131,167.965Z" transform="translate(-164.685 -134.966)"/>
        <path id="Trazado_1039010" data-name="Trazado 1039010" d="M269.04,156.344a5.811,5.811,0,1,0,5.811,5.811A5.818,5.818,0,0,0,269.04,156.344Zm0,9.571a3.76,3.76,0,1,1,3.76-3.76A3.764,3.764,0,0,1,269.04,165.915Z" transform="translate(-227.237 -134.966)"/>
      </g>
    </g>
  </g>
</svg>
