<svg xmlns="http://www.w3.org/2000/svg" xmlns:xlink="http://www.w3.org/1999/xlink" width="110" height="110" viewBox="0 0 110 110">
  <defs>
    <filter id="Trazado_982547" x="0" y="0" width="110" height="110" filterUnits="userSpaceOnUse">
      <feOffset dy="3" input="SourceAlpha"/>
      <feGaussianBlur stdDeviation="3" result="blur"/>
      <feFlood flood-opacity="0.161"/>
      <feComposite operator="in" in2="blur"/>
      <feComposite in="SourceGraphic"/>
    </filter>
  </defs>
  <g id="Grupo_1199838" data-name="Grupo 1199838" transform="translate(-4735 -7679)">
    <g id="Grupo_1173121" data-name="Grupo 1173121" transform="translate(4744 7685)">
      <g id="Grupo_1172182" data-name="Grupo 1172182" transform="translate(0)">
        <g id="Grupo_1171416" data-name="Grupo 1171416">
          <g id="Grupo_1163803" data-name="Grupo 1163803">
            <g id="Grupo_1163015" data-name="Grupo 1163015">
              <g id="Grupo_1157017" data-name="Grupo 1157017" transform="translate(0 0)">
                <g id="Grupo_1155793" data-name="Grupo 1155793">
                  <g id="Grupo_1154704" data-name="Grupo 1154704">
                    <g id="Grupo_1150790" data-name="Grupo 1150790">
                      <g id="Grupo_1154214" data-name="Grupo 1154214">
                        <g id="Grupo_1152583" data-name="Grupo 1152583">
                          <g id="Grupo_1146973" data-name="Grupo 1146973" transform="translate(0 0)">
                            <g id="Grupo_1146954" data-name="Grupo 1146954">
                              <g transform="matrix(1, 0, 0, 1, -9, -6)" filter="url(#Trazado_982547)">
                                <g id="Trazado_982547-2" data-name="Trazado 982547" transform="translate(9 6)" fill="#f2f7f5">
                                  <path d="M 46 90.49987030029297 C 39.99187850952148 90.49987030029297 34.16426849365234 89.32350921630859 28.67905426025391 87.00345611572266 C 23.38019943237305 84.76224517822266 18.62104034423828 81.55341339111328 14.53374671936035 77.46613311767578 C 10.44646644592285 73.37885284423828 7.237639904022217 68.61969757080078 4.996413230895996 63.32085418701172 C 2.676359891891479 57.83565521240234 1.5 52.008056640625 1.5 45.99993515014648 C 1.5 39.99181365966797 2.676359891891479 34.16421508789062 4.996413230895996 28.67901420593262 C 7.237639904022217 23.38017463684082 10.44646644592285 18.62101554870605 14.53374671936035 14.53373527526855 C 18.62104034423828 10.44645500183105 23.38019943237305 7.23762845993042 28.67905426025391 4.996415138244629 C 34.16426849365234 2.676361799240112 39.99187850952148 1.500001788139343 46 1.500001788139343 C 52.00812149047852 1.500001788139343 57.83573150634766 2.676361799240112 63.32094573974609 4.996415138244629 C 68.61979675292969 7.23762845993042 73.37895965576172 10.44645500183105 77.46625518798828 14.53373527526855 C 81.55353546142578 18.62101554870605 84.76235961914062 23.38017463684082 87.00358581542969 28.67901420593262 C 89.32363891601562 34.16421508789062 90.5 39.99181365966797 90.5 45.99993515014648 C 90.5 52.008056640625 89.32363891601562 57.83565521240234 87.00358581542969 63.32085418701172 C 84.76235961914062 68.61969757080078 81.55353546142578 73.37885284423828 77.46625518798828 77.46613311767578 C 73.37895965576172 81.55341339111328 68.61979675292969 84.76224517822266 63.32094573974609 87.00345611572266 C 57.83573150634766 89.32350921630859 52.00812149047852 90.49987030029297 46 90.49987030029297 Z" stroke="none"/>
                                  <path d="M 46 2.999992370605469 C 40.1937141418457 2.999992370605469 34.56269836425781 4.136489868164062 29.26337051391602 6.377906799316406 C 24.14332580566406 8.543502807617188 19.54441070556641 11.64437866210938 15.59439849853516 15.59437561035156 C 11.64440155029297 19.54439544677734 8.54351806640625 24.14329528808594 6.377914428710938 29.26333618164062 C 4.136497497558594 34.56264877319336 3 40.19366455078125 3 45.99993515014648 C 3 51.80620574951172 4.136497497558594 57.43720626831055 6.377914428710938 62.73651885986328 C 8.54351806640625 67.8565673828125 11.64440155029297 72.45545959472656 15.59439849853516 76.40547943115234 C 19.54441070556641 80.35547637939453 24.14332580566406 83.45635223388672 29.26337051391602 85.6219482421875 C 34.56269836425781 87.86336517333984 40.1937141418457 88.99986267089844 46 88.99986267089844 C 51.8062858581543 88.99986267089844 57.43730163574219 87.86336517333984 62.73661422729492 85.6219482421875 C 67.85667419433594 83.45635223388672 72.45557403564453 80.35547637939453 76.40558624267578 76.40547943115234 C 80.35559844970703 72.45545959472656 83.45647430419922 67.8565673828125 85.6220703125 62.73651885986328 C 87.86350250244141 57.43720626831055 89 51.80620574951172 89 45.99993515014648 C 89 40.19366455078125 87.86350250244141 34.56264877319336 85.6220703125 29.26333618164062 C 83.45647430419922 24.14329528808594 80.35559844970703 19.54439544677734 76.40558624267578 15.59437561035156 C 72.45557403564453 11.64437866210938 67.85667419433594 8.543502807617188 62.73661422729492 6.377906799316406 C 57.43730163574219 4.136489868164062 51.8062858581543 2.999992370605469 46 2.999992370605469 M 46 -7.62939453125e-06 C 71.40509033203125 -7.62939453125e-06 92 20.59486389160156 92 45.99993515014648 C 92 71.40499114990234 71.40509033203125 91.99986267089844 46 91.99986267089844 C 20.59490203857422 91.99986267089844 0 71.40499114990234 0 45.99993515014648 C 0 20.59486389160156 20.59490203857422 -7.62939453125e-06 46 -7.62939453125e-06 Z" stroke="none" fill="#88bba9"/>
                                </g>
                              </g>
                            </g>
                          </g>
                        </g>
                      </g>
                    </g>
                  </g>
                </g>
              </g>
            </g>
          </g>
        </g>
      </g>
    </g>
    <g id="salary" transform="translate(4755.203 7703.001)">
      <g id="Grupo_1199836" data-name="Grupo 1199836" transform="translate(8.625 0.834)">
        <g id="Grupo_1199820" data-name="Grupo 1199820" transform="translate(10.952)">
          <g id="Grupo_1199819" data-name="Grupo 1199819" transform="translate(0)">
            <g id="Grupo_1199818" data-name="Grupo 1199818">
              <g id="Grupo_1199815" data-name="Grupo 1199815">
                <g id="Grupo_1199814" data-name="Grupo 1199814">
                  <path id="Trazado_1039107" data-name="Trazado 1039107" d="M136.485,17.206s5.418-7.032,3.86-9.049c-.531-.687-.984.246-2.082.246-1.29,0-1.29-.844-2.58-.844s-1.29.844-2.58.844-1.29-.844-2.58-.844-1.29.844-2.58.844c-1.1,0-1.55-.946-2.085-.258-1.559,2.006,3.78,9.06,3.78,9.06-23.577,15.5-15.975,36.579-2.055,36.579h11.04C152.586,53.784,160.141,32.757,136.485,17.206Z" transform="translate(-114.473 -7.559)" fill="#eabc6b"/>
                </g>
              </g>
              <g id="Grupo_1199816" data-name="Grupo 1199816" transform="translate(14.239)">
                <path id="Trazado_1039108" data-name="Trazado 1039108" d="M251.188,17.206s5.418-7.032,3.86-9.049c-.531-.687-.984.246-2.082.246-1.29,0-1.29-.844-2.58-.844s-1.29.844-2.58.844c-.063,0-.122,0-.179-.008-.518,2.222-2.854,5.683-4.191,7.537.526.772.905,1.273.905,1.273q-.472.31-.926.623c22.527,15.484,14.989,35.955,1.212,35.955h8.7c13.962,0,21.518-21.027-2.138-36.579Z" transform="translate(-243.415 -7.559)" fill="#e8ae4d"/>
              </g>
              <g id="Grupo_1199817" data-name="Grupo 1199817" transform="translate(12.171 8.192)">
                <path id="Trazado_1039109" data-name="Trazado 1039109" d="M235.532,85.694a18.848,18.848,0,0,1-9.407,0,2.008,2.008,0,0,1-1.323-2.629l.013-.038A1.853,1.853,0,0,1,227,81.792a15.314,15.314,0,0,0,7.651,0,1.853,1.853,0,0,1,2.188,1.235l.013.038A2.008,2.008,0,0,1,235.532,85.694Z" transform="translate(-224.683 -81.738)" fill="#ffe07d"/>
              </g>
            </g>
          </g>
        </g>
        <g id="Grupo_1199835" data-name="Grupo 1199835" transform="translate(0 31.369)">
          <g id="Grupo_1199834" data-name="Grupo 1199834">
            <g id="Grupo_1199833" data-name="Grupo 1199833">
              <g id="Grupo_1199832" data-name="Grupo 1199832">
                <g id="Grupo_1199831" data-name="Grupo 1199831">
                  <g id="Grupo_1199830" data-name="Grupo 1199830">
                    <g id="Grupo_1199829" data-name="Grupo 1199829">
                      <g id="Grupo_1199828" data-name="Grupo 1199828">
                        <g id="Grupo_1199827" data-name="Grupo 1199827">
                          <g id="Grupo_1199826" data-name="Grupo 1199826">
                            <g id="Grupo_1199825" data-name="Grupo 1199825" transform="translate(4.372 2.902)">
                              <g id="Grupo_1199824" data-name="Grupo 1199824">
                                <g id="Grupo_1199821" data-name="Grupo 1199821">
                                  <path id="Trazado_1039110" data-name="Trazado 1039110" d="M54.883,333.467l11.989,4.462a9.123,9.123,0,0,0,3.182.573H82.41a9.124,9.124,0,0,0,4.883-1.417l15.47-9.8a2.715,2.715,0,0,0,.442-3.558c-.84-1.235-2.23-1.449-3.759-.726l-15.062,6.632.018-2.444a4.374,4.374,0,0,0-3.74-3.9l-9.172-1.056a12.1,12.1,0,0,1-5.018-2.087,16.439,16.439,0,0,0-8.3-2.25H54.883v15.571Z" transform="translate(-54.883 -317.896)" fill="#ffddce"/>
                                </g>
                                <g id="Grupo_1199822" data-name="Grupo 1199822">
                                  <path id="Trazado_1039111" data-name="Trazado 1039111" d="M54.883,333.467l11.989,4.462a9.123,9.123,0,0,0,3.182.573H82.41a9.124,9.124,0,0,0,4.883-1.417l15.47-9.8a2.715,2.715,0,0,0,.442-3.558c-.84-1.235-2.23-1.449-3.759-.726l-15.062,6.632.018-2.444a4.374,4.374,0,0,0-3.74-3.9l-9.172-1.056a12.1,12.1,0,0,1-5.018-2.087,16.439,16.439,0,0,0-8.3-2.25H54.883v15.571Z" transform="translate(-54.883 -317.896)" fill="#ffddce"/>
                                </g>
                                <path id="Trazado_1039112" data-name="Trazado 1039112" d="M103.206,361.5c-.84-1.235-2.23-1.449-3.759-.726L95.3,362.6l.36.571a2.715,2.715,0,0,1-.442,3.558l-9.014,5.712a9.121,9.121,0,0,1-3.8.829H70.055a9.124,9.124,0,0,1-3.182-.573l-11.989-4.463v3.01L66.873,375.7a9.124,9.124,0,0,0,3.182.573H82.411a9.124,9.124,0,0,0,4.883-1.417l15.47-9.8A2.715,2.715,0,0,0,103.206,361.5Z" transform="translate(-54.884 -355.671)" fill="#ffcbbe"/>
                                <g id="Grupo_1199823" data-name="Grupo 1199823" transform="translate(28.394 6.774)">
                                  <path id="Trazado_1039113" data-name="Trazado 1039113" d="M312,379.236v.059l.039-.017Z" transform="translate(-312.004 -379.236)" fill="#f5dbcc"/>
                                </g>
                              </g>
                            </g>
                            <path id="Trazado_1039114" data-name="Trazado 1039114" d="M22.246,312.481a1.575,1.575,0,0,1-1.575,1.575h-3.8a1.575,1.575,0,0,1-1.575-1.575V293.2a1.575,1.575,0,0,1,1.575-1.575h3.8a1.575,1.575,0,0,1,1.575,1.575Z" transform="translate(-15.295 -291.62)" fill="#407093"/>
                          </g>
                        </g>
                      </g>
                    </g>
                  </g>
                </g>
              </g>
            </g>
          </g>
        </g>
      </g>
      <g id="Grupo_1199837" data-name="Grupo 1199837" transform="translate(7.797 -0.001)">
        <path id="Trazado_1039115" data-name="Trazado 1039115" d="M62,40.468c-1.055-1.55-2.844-1.928-4.787-1.014l-1.03.454A17.033,17.033,0,0,0,57.2,28.941a26.456,26.456,0,0,0-6.666-12.055.828.828,0,0,0-1.221,1.119A24.833,24.833,0,0,1,55.587,29.3a14.849,14.849,0,0,1-1.944,11.728L43.335,45.566l.008-1.164a.807.807,0,0,0,0-.088,5.19,5.19,0,0,0-4.448-4.636l-.021,0L29.709,38.62c-3.523-.5-4.43-2.613-9.2-3.816a17.827,17.827,0,0,1,1.314-8.761c1.814-4.5,5.362-8.865,10.281-12.668,1.833,1.3,10.013,1.462,11.844-.215.938.712,1.833,1.446,2.667,2.189a.828.828,0,1,0,1.1-1.236c-.914-.814-1.9-1.618-2.928-2.394A2.948,2.948,0,0,0,43.8,8.781C46.392,4.848,47.146,2.274,46.1.926A1.448,1.448,0,0,0,44.119.62,1.328,1.328,0,0,1,42.53.563a2.977,2.977,0,0,0-3.487,0,1.335,1.335,0,0,1-1.673,0,2.977,2.977,0,0,0-3.487,0A1.318,1.318,0,0,1,32.3.616a1.445,1.445,0,0,0-1.989.3c-1.018,1.311-.337,3.8,2.081,7.6a2.7,2.7,0,0,0-.421.281,5.591,5.591,0,0,0-4.816-1.82A6.068,6.068,0,0,1,23.033,6a.828.828,0,1,0-.922,1.376,7.711,7.711,0,0,0,5.226,1.244,4.046,4.046,0,0,1,3.7,1.618q-.015.053-.028.106a14.211,14.211,0,0,0-2.626.286,7.776,7.776,0,0,0-5.389,3.45.828.828,0,1,0,1.429.836c1.51-2.581,5.2-2.9,6.66-2.916.006.018.014.036.02.054-5.224,4.03-8.861,8.524-10.815,13.366a19.654,19.654,0,0,0-1.477,9.041,17.231,17.231,0,0,0-2.4-.186v-.5a2.406,2.406,0,0,0-2.4-2.4H10.2a2.406,2.406,0,0,0-2.4,2.4V53.063a2.406,2.406,0,0,0,2.4,2.4H14a2.406,2.406,0,0,0,2.4-2.4v-.236L24.7,55.914a9.921,9.921,0,0,0,3.471.625H40.524a9.937,9.937,0,0,0,5.326-1.545c16.483-10.449,15.482-9.8,15.577-9.883A3.551,3.551,0,0,0,62,40.468ZM42.394,12.179a17.948,17.948,0,0,1-9,0c-1.3-.329-.923-2.646.474-2.3a16.148,16.148,0,0,0,8.054,0C43.293,9.538,43.714,11.845,42.394,12.179ZM31.541,2.09l.019.01a2.938,2.938,0,0,0,3.23-.15c1.411-.924,1.564.557,3.416.557a2.876,2.876,0,0,0,1.743-.557,1.336,1.336,0,0,1,1.674,0,2.954,2.954,0,0,0,3.244.148c.17.614-.215,2.445-2.671,6.1-1.219-.021-2.989,1.177-8,.062-2.45-3.7-2.829-5.552-2.658-6.171ZM60.372,43.831,44.964,53.595a8.283,8.283,0,0,1-4.44,1.288H28.168a8.268,8.268,0,0,1-2.894-.521l-8.87-3.3V42.143a.828.828,0,1,0-1.656,0V53.064a.748.748,0,0,1-.747.747H10.2a.748.748,0,0,1-.747-.747V33.778a.748.748,0,0,1,.747-.747H14a.748.748,0,0,1,.747.747v4.494a.828.828,0,1,0,1.656,0V35.935c6.85.052,8.39,3.663,13.083,4.327l.021,0,9.161,1.055a3.537,3.537,0,0,1,3.017,3.117l-.011,1.575H33.132a.828.828,0,0,0,0,1.656H42.5a.857.857,0,0,0,.331-.069l15.065-6.633c1.083-.481,2.071-.55,2.741.434A1.892,1.892,0,0,1,60.372,43.831Z" transform="translate(-7.797 0.001)"/>
        <path id="Trazado_1039116" data-name="Trazado 1039116" d="M244.567,175.749a.828.828,0,0,0,.828-.828v-1.373a4.852,4.852,0,0,0,3.976-4.014,4.247,4.247,0,0,0-2.926-4.858c-.379-.134-.728-.262-1.05-.386v-5.28a3.406,3.406,0,0,1,1.611.707.828.828,0,0,0,1.118-1.221,5.133,5.133,0,0,0-2.729-1.158V156.16a.828.828,0,1,0-1.656,0V157.4a6.1,6.1,0,0,0-.614.15,4,4,0,0,0-2.74,3.143,3.5,3.5,0,0,0,1.138,3.452,10.033,10.033,0,0,0,2.217,1.253v6.549a4.4,4.4,0,0,1-2.575-.893.828.828,0,0,0-.907,1.386,6.065,6.065,0,0,0,3.482,1.163v1.314A.828.828,0,0,0,244.567,175.749Zm-2.023-12.9a1.867,1.867,0,0,1-.533-1.842,2.369,2.369,0,0,1,1.591-1.864c.046-.014.091-.026.137-.038v4.473A6.985,6.985,0,0,1,242.544,162.847Zm3.349,3.391a2.606,2.606,0,0,1,1.845,3.022,3.225,3.225,0,0,1-2.343,2.6v-5.8C245.556,166.117,245.721,166.176,245.893,166.237Z" transform="translate(-214.253 -138.179)"/>
      </g>
    </g>
  </g>
</svg>
