<svg xmlns="http://www.w3.org/2000/svg" xmlns:xlink="http://www.w3.org/1999/xlink" width="295" height="236.641" viewBox="0 0 295 236.641">
  <defs>
    <clipPath id="clip-path">
      <rect id="Rectángulo_414513" data-name="Rectángulo 414513" width="295" height="225" transform="translate(180 264)" fill="#fff" stroke="#707070" stroke-width="1" opacity="0.61"/>
    </clipPath>
  </defs>
  <g id="Grupo_1174454" data-name="Grupo 1174454" transform="translate(-180 -264)">
    <g id="Enmascarar_grupo_1098808" data-name="Enmascarar grupo 1098808" clip-path="url(#clip-path)">
      <g id="Grupo_1174452" data-name="Grupo 1174452" transform="translate(6253.442 -10910.733)">
        <g id="Grupo_1174451" data-name="Grupo 1174451" transform="translate(-6056.632 11181.109)">
          <path id="Trazado_1027533" data-name="Trazado 1027533" d="M231.638-959.354c-3.6,3.38-7.712,17.091-4.626,22.891,2.325,4.356,9.021,3.674,13.259,6.2s6.9,6.768,8.339,11.489c2.587,8.5-5.332,16.369-6.475,25.176-1.491,11.465,7.847,21.391,10.307,32.69,2.8,12.846-4.737,27.168-16.909,32.143-9.411,3.848-20.043,2.365-30.1.817q-30.862-4.737-61.715-9.482c-5.975-.92-12.306-2-16.821-6.014-7.046-6.268-7.03-17.678-2.967-26.184s11.243-15.028,17.519-22.074S162.7-916.809,162.7-926.235c0-8.569-7.014-10.862-6.443-19.289.476-6.974,6.435-9.307,10.41-10.077,17.25-3.348,11.291-14.385,16.067-17.726,7.832-5.475,6.9,1.817,16.409,2.73,12.9,1.238,30.143,2.872,32.484,11.243Z" transform="translate(-73.348 1004.057)" fill="#262827"/>
          <path id="Trazado_1027534" data-name="Trazado 1027534" d="M1211.621-190.793c9.292.309,16.663,8.768,18.956,17.773s.7,18.487-.738,27.676q-4.427,28.3-6.673,56.883c-.476,6.046-.913,12.243-3.4,17.765s-7.546,10.323-13.6,10.688c-6.363.381-12.124-4.205-15.345-9.7-4.784-8.149-5.252-18.035-5.482-27.477-.675-27.414-.151-56.034,12.37-80.432,3.182-6.2,8.252-13.346,13.917-13.155v-.016Z" transform="translate(-1042.953 289.087)" fill="#dc8068"/>
          <path id="Trazado_1027535" data-name="Trazado 1027535" d="M1315.459,361.626c-.667,3.888-1.341,7.871-.651,11.751s3.007,7.72,6.7,9.1c3.451,1.293,7.387.23,10.585-1.611,6.014-3.451,10.188-9.323,14-15.115a425.052,425.052,0,0,0,29.239-52.741c10.362,3.46,35.594,11.957,36.261,8.895,1.008-4.6-13.5-6.4-13.069-6.284,9.212,2.325,20.329,6.609,21.122,3.753.9-3.221-12.243-5.6-15.583-6.538,4.15,1.428,19.154,5.935,19.772,3.745.786-2.793-6.133-4.078-16.289-6.371,4.245,1.119,13.854,4.523,14.853.373.865-2.325-12.8-4.015-21.114-5.53,4.039-1,5.7-1.15,8.291-1.682,1.127-.238,2.475-1.087,2.238-2.206-.254-1.2-1.745-1.7-2.959-1.555s-5.522-.19-13.576-.611c-11.085-1.817-24.5-10.593-37.086,2.967-15.4,16.6-38.363,34.341-42.735,59.675v-.016Z" transform="translate(-1160.851 -153.193)" fill="#dc8068"/>
          <path id="Trazado_1027536" data-name="Trazado 1027536" d="M70.672-486.917c-9.5,48.535-31.778,111.742-36.6,117.923-2.3,2.952-5.689,3.253-9.363,3.991-6.816,1.357-13.489-4.237-15.718-10.815s-1.127-13.782.222-20.6c4.705-23.78,12.037-46.956,19.352-70.07,2.42-7.657,4.951-15.52,10.005-21.772s12.87-8.633,20.7-6.816c5.832,1.357,12.187,4.181,11.41,8.157Z" transform="translate(30.053 566.921)" fill="#dc8068"/>
          <path id="Trazado_1027537" data-name="Trazado 1027537" d="M870.736-586.252c-.31,9.609,1.143,25.446,1.841,39.649-10.013-2.023-20.281,1.023-30.04,4.039a396.358,396.358,0,0,0-4.721-42.545c10.354-2.079,21.137-1.984,32.92-1.143Z" transform="translate(-726.426 649.983)" fill="#dc8068"/>
          <path id="Trazado_1027538" data-name="Trazado 1027538" d="M850.965-543.543l.548,3.88a37.564,37.564,0,0,0,4.562,2.087,60.962,60.962,0,0,0,27.1,2.047c-.436-7.8-.5-13.925-.5-13.925l-31.714,5.9v.008Z" transform="translate(-738.409 615.938)" fill="#ad604c"/>
          <path id="Trazado_1027539" data-name="Trazado 1027539" d="M645.962-979.643a8.453,8.453,0,0,0-2.007-3.936,6.158,6.158,0,0,0-5.054-1.69,5,5,0,0,0-3.832,3.7,12.782,12.782,0,0,0-.381,7.927,11.957,11.957,0,0,0,5.848,6.871,3.926,3.926,0,0,0,2,.595,2.546,2.546,0,0,0,2.229-2.111c1.135-3.84,2.19-7.847,1.2-11.354Z" transform="translate(-540.889 1013.159)" fill="#dc8068"/>
          <path id="Trazado_1027540" data-name="Trazado 1027540" d="M669.762-928.932a.4.4,0,0,1-.028.558.4.4,0,0,1-.558-.028,7.8,7.8,0,0,1-1.668-2.962,7.764,7.764,0,0,1-.264-3.383,5.514,5.514,0,0,1,.331-1.257,3.364,3.364,0,0,1,.725-1.125,2.55,2.55,0,0,1,1.292-.689,2.006,2.006,0,0,1,1.371.2.4.4,0,0,1,.154.538.4.4,0,0,1-.538.153,1.223,1.223,0,0,0-.834-.108,1.745,1.745,0,0,0-.883.472,2.58,2.58,0,0,0-.552.861,4.688,4.688,0,0,0-.281,1.074,6.971,6.971,0,0,0,.236,3.039,7.005,7.005,0,0,0,1.5,2.661Z" transform="translate(-570.91 969.895)" fill="#995746"/>
          <path id="Trazado_1027541" data-name="Trazado 1027541" d="M160.667-462.482c.865-9.109,7.514-11.259,16.663-11.148s20.987.754,29.278,4.634c14.647,6.855,38.6,13.37,54.328,20.043,14.5,6.157,7.077,33.888,2.6,49.8-8.99,31.936-22.145,90.469-22.145,90.469s5.681-2.975,3.1,70.585c-31.214,3.142-104.14,6.816-104.14-5.158,0-65.436,6.863-77.663,6.863-77.663s9.172-96.658,13.449-141.552v-.008Z" transform="translate(-90.823 546.843)" fill="#dc8068"/>
          <path id="Trazado_1027542" data-name="Trazado 1027542" d="M656.572-811.524a2.767,2.767,0,0,1,2.5,1.531,7.559,7.559,0,0,1,.928,3.412,9.213,9.213,0,0,1-1.246,5.634c-1.031,1.531-2.849,2.317-4.276,1.516-1.389-.77-2.158-2.841-1.992-4.761.3-3.515,1.642-7.062,4.094-7.339l-.008.008Z" transform="translate(-557.513 854.776)" fill="#fac963"/>
          <path id="Trazado_1027543" data-name="Trazado 1027543" d="M688.514-798.533a1.16,1.16,0,0,1,.865.349,1.233,1.233,0,0,1-.016,1.754,1.263,1.263,0,0,1-2.079-.928,1.123,1.123,0,0,1,1.229-1.174Z" transform="translate(-589.241 842.927)" fill="#fa4203"/>
          <path id="Trazado_1027544" data-name="Trazado 1027544" d="M702.278-1234.623c-3.047,8.5-6.094,17.091-6.975,26.017s.563,20.217,5.887,27.652,15,10.561,24.383,9.109c7.538-1.167,13.917-6.229,17.948-12.346s6-13.211,7.474-20.273c1.436-6.839,2.46-13.989.54-20.717-2.777-9.767-12.116-17.575-22.74-19.019s-23.994,2.555-26.517,9.585v-.008Z" transform="translate(-596.332 1249.334)" fill="#dc8068"/>
          <path id="Trazado_1027545" data-name="Trazado 1027545" d="M216.551-496.5c4.348-8.054,8.228-13.481,21.193-13.957,6.625-.246,23.414,4.364,23.2,5.03-4.174,13.33,38.5,27.684,45.433,15.56.024-.048,14.568,4.769,20.082,7.347,12.14,5.681,19.051,15.314,16.821,43.013-.175,2.134-.7,12.917-1.666,13.306a27.139,27.139,0,0,1-17.353.754c-7.879,29.35-20.915,83.185-20.915,83.185L209.172-354.5s.032-22.3,2.158-22.716c11.6-2.253,29.54-74.537,29.54-74.537s-31.246.373-32.516-18.614c-.365-5.443,5.261-20.709,8.188-26.136l.008.008Z" transform="translate(-152.777 580.407)" fill="#fac963"/>
          <path id="Trazado_1027546" data-name="Trazado 1027546" d="M1006.774,1221.12q-.7,2.892-1.3,5.3a16.762,16.762,0,0,1-6.4,2.761,29.274,29.274,0,0,1-6.363.325,33.526,33.526,0,0,0-4.578.087,15.651,15.651,0,0,0-7.712,3.2l-4.118-.539a19.116,19.116,0,0,1,11.473-5.808,36.629,36.629,0,0,1,5.007-.111,26.194,26.194,0,0,0,5.681-.262,15.829,15.829,0,0,0,8.307-4.951Z" transform="translate(-852.633 -997.604)" fill="#e89b58"/>
          <path id="Trazado_1027547" data-name="Trazado 1027547" d="M572.27,743.206c-.3,1.166-.6,2.341-.9,3.515a18.062,18.062,0,0,0-9.744,7.419,37.185,37.185,0,0,0-2.2,4.308,44.107,44.107,0,0,1-2.079,4.158c-2.2,3.721-5.181,6.014-8.4,6.443-2.555.349-4.9-.476-7.173-1.27-2.071-.722-4.023-1.4-5.864-1.079-4.023.69-5.991,5.7-6.927,9.783l-.111.468c-1.127,4.911-2.4,10.489-7.133,13.108-4.531,2.515-9.315.841-13.941-.77-3.047-1.063-6.189-2.158-9.109-1.968a9.98,9.98,0,0,0-7.331,4.221l-3.435-.444a13.012,13.012,0,0,1,10.553-6.943c3.571-.246,7.022.968,10.37,2.134,4.15,1.452,8.069,2.817,11.354.992,3.491-1.936,4.554-6.562,5.578-11.045l.111-.468c1.658-7.2,4.935-11.418,9.482-12.2,2.658-.46,5.094.389,7.45,1.214,2,.7,3.9,1.357,5.705,1.119,3.015-.4,5.11-3.253,6.086-4.911a41.681,41.681,0,0,0,1.928-3.864,40.008,40.008,0,0,1,2.4-4.673,21.461,21.461,0,0,1,13.33-9.252Z" transform="translate(-407.568 -562.076)" fill="#e89b58"/>
          <path id="Trazado_1027548" data-name="Trazado 1027548" d="M567.554,44.287a1.587,1.587,0,1,1-1.7,2.682c-4.459-2.817-10.6-.881-14.711,2.3a51.872,51.872,0,0,0-7.125,7.149c-1.627,1.849-3.3,3.769-5.149,5.506a28.462,28.462,0,0,1-6.125,4.388c.436-1.587.849-3.086,1.222-4.467a26.284,26.284,0,0,0,2.73-2.238c1.738-1.627,3.364-3.491,4.943-5.284a55.86,55.86,0,0,1,7.562-7.57c4.983-3.848,12.592-6.11,18.352-2.468Z" transform="translate(-448.413 76.533)" fill="#e89b58"/>
          <path id="Trazado_1027549" data-name="Trazado 1027549" d="M272.377-486.2a15.347,15.347,0,0,0-3.5,5.15c-.349.786-.674,1.595-1.008,2.4-1.182,2.944-2.4,5.99-4.8,8.331-4.325,4.229-10.339,4.451-16.155,4.665a54.127,54.127,0,0,0-7.363.6,22.391,22.391,0,0,0-12.148,6.713c.547-1.865,1.182-3.824,1.857-5.729a24.479,24.479,0,0,1,9.736-4.11,56.852,56.852,0,0,1,7.8-.651c5.459-.2,10.608-.389,14.052-3.761,1.92-1.88,2.967-4.483,4.078-7.244.341-.849.682-1.69,1.047-2.507a20.815,20.815,0,0,1,2.856-4.761c1.246.294,2.444.6,3.547.9Z" transform="translate(-170.152 559.112)" fill="#e89b58"/>
          <path id="Trazado_1027550" data-name="Trazado 1027550" d="M399.072-261.855a19.707,19.707,0,0,1-12.148,6.847,29.621,29.621,0,0,1-7.133-.286,23.916,23.916,0,0,0-7.03-.175c-3.269.587-6.086,2.571-9.069,4.666a31.346,31.346,0,0,1-8.72,4.848c-5.022,1.531-10.132.524-15.076-.452a63.7,63.7,0,0,0-7.03-1.111,28.816,28.816,0,0,0-21.035,7.094,28.423,28.423,0,0,0-7.1,9.926,28.551,28.551,0,0,1-2.8-1.5,31.5,31.5,0,0,1,7.792-10.8,32.05,32.05,0,0,1,23.391-7.887,65.343,65.343,0,0,1,7.4,1.166c4.769.936,9.268,1.825,13.528.524,2.777-.841,5.229-2.571,7.823-4.4,3.134-2.214,6.371-4.491,10.331-5.205a26.8,26.8,0,0,1,7.974.151,26.867,26.867,0,0,0,6.379.286,16.2,16.2,0,0,0,9.236-4.832c.992.333,2.1.722,3.285,1.135Z" transform="translate(-238.068 354.879)" fill="#e89b58"/>
          <path id="Trazado_1027551" data-name="Trazado 1027551" d="M390.184-194.613c-.206.635-.4,1.285-.6,1.944-1.27,4.253-2.579,8.649-5.991,11.7-3.61,3.245-8.363,3.928-12.965,4.586-3.943.571-7.665,1.1-10.585,3.142-3.269,2.285-5.046,6.11-6.927,10.164-2.063,4.427-4.19,9.006-8.49,11.7-4.689,2.944-10.164,2.547-15.464,2.158-4.309-.309-8.379-.6-12.013.762-6.2,2.333-10.363,9.283-12.346,20.654-.143.794-.278,1.6-.413,2.412-1.428,8.49-2.912,17.266-9.291,23.153-3.737,3.444-8.656,5.253-13,6.847a63.569,63.569,0,0,0-6.84,2.825,26.117,26.117,0,0,0,3.6-5c.722-.278,1.444-.54,2.142-.8,4.261-1.571,8.665-3.19,11.942-6.2,5.586-5.15,6.966-13.386,8.307-21.344.143-.817.278-1.634.421-2.436,2.19-12.552,7.022-20.32,14.361-23.082,4.277-1.611,8.895-1.277,13.354-.952,5.007.365,9.736.706,13.552-1.682,3.5-2.19,5.34-6.149,7.292-10.347,1.975-4.253,4.015-8.649,7.99-11.426,3.531-2.468,7.815-3.087,11.957-3.682,4.316-.619,8.395-1.206,11.291-3.809,2.745-2.46,3.872-6.244,5.07-10.251.246-.825.5-1.658.762-2.491a1.115,1.115,0,0,1,.143.064c.944.444,1.857.9,2.73,1.4Z" transform="translate(-213.771 293.898)" fill="#e89b58"/>
          <path id="Trazado_1027552" data-name="Trazado 1027552" d="M1063.973-111.207a30.054,30.054,0,0,1,8.791-9.894,22.638,22.638,0,0,1,2,2.468,26.965,26.965,0,0,0-8.006,8.942,56.524,56.524,0,0,0-2.38,5.181,56.1,56.1,0,0,1-2.65,5.721c-2.555,4.57-6.094,7.506-9.974,8.26a19.945,19.945,0,0,1-5.086.127,16.41,16.41,0,0,0-4.435.111c-4.38.952-7.038,5.506-9.6,9.918l-.341.587c-2.658,4.547-6.942,9.744-12.632,9.744a10.029,10.029,0,0,1-1.365-.1,1.6,1.6,0,0,1-1.349-1.8,1.591,1.591,0,0,1,1.8-1.341c4.872.7,8.855-4.784,10.8-8.109l.341-.579c2.777-4.777,5.927-10.18,11.672-11.426a18.734,18.734,0,0,1,5.308-.174,17.047,17.047,0,0,0,4.285-.079c3.967-.77,6.594-4.523,7.807-6.689a52.535,52.535,0,0,0,2.491-5.4,58.343,58.343,0,0,1,2.523-5.475Z" transform="translate(-889.655 225.576)" fill="#e89b58"/>
          <path id="Trazado_1027553" data-name="Trazado 1027553" d="M437.615,100.021a13.026,13.026,0,0,0-4.229,2.912,35.315,35.315,0,0,0-5.443,8.371c-.46.857-.913,1.722-1.381,2.571-1.881,3.38-4.935,8.117-9.8,10.18-3.008,1.27-6.332,1.428-9.553,1.571-4.166.19-8.1.373-10.521,3.031-1.8,1.984-2.3,4.9-2.824,7.99-.627,3.674-1.27,7.474-4.221,10.093-3.1,2.745-7.982,3.253-13.378,1.381-1.444-.5-2.856-1.111-4.213-1.706a29.373,29.373,0,0,0-7.173-2.436,13.957,13.957,0,0,0-15.829,16.456,31.693,31.693,0,0,0,1.476,4.769c1.2,3.3,2.444,6.713,1.524,10.347-1.484,5.848-7.8,8.712-13.211,9.442-1.793.238-3.61.333-5.372.428-3.364.182-6.538.349-9.474,1.452a14.872,14.872,0,0,0-8.482,9.283,16.627,16.627,0,0,0-.841,4.2l-3.166-.413a19.984,19.984,0,0,1,1-4.808,17.825,17.825,0,0,1,10.37-11.227c3.4-1.277,6.966-1.468,10.426-1.65,1.7-.1,3.451-.182,5.118-.413,4.388-.587,9.458-2.753,10.553-7.07.682-2.69-.341-5.5-1.428-8.482a35.353,35.353,0,0,1-1.611-5.253,17.137,17.137,0,0,1,19.432-20.2,32.621,32.621,0,0,1,7.958,2.666c1.365.6,2.65,1.158,3.983,1.619,4.221,1.46,8.046,1.182,10.227-.762,2.119-1.873,2.65-4.967,3.206-8.244.571-3.4,1.174-6.927,3.61-9.6,3.308-3.626,8.093-3.84,12.719-4.054,2.936-.135,5.975-.278,8.458-1.325,3.92-1.658,6.475-5.578,8.26-8.8.46-.833.9-1.674,1.349-2.515a38.32,38.32,0,0,1,5.975-9.093,15.906,15.906,0,0,1,6.26-3.983c.111,1.047.19,2.142.246,3.277Z" transform="translate(-246.793 27.051)" fill="#e89b58"/>
          <path id="Trazado_1027554" data-name="Trazado 1027554" d="M572.27,743.206c-.3,1.166-.6,2.341-.9,3.515a18.062,18.062,0,0,0-9.744,7.419,37.185,37.185,0,0,0-2.2,4.308,44.107,44.107,0,0,1-2.079,4.158c-2.2,3.721-5.181,6.014-8.4,6.443-2.555.349-4.9-.476-7.173-1.27-2.071-.722-4.023-1.4-5.864-1.079-4.023.69-5.991,5.7-6.927,9.783l-.111.468c-1.127,4.911-2.4,10.489-7.133,13.108-4.531,2.515-9.315.841-13.941-.77-3.047-1.063-6.189-2.158-9.109-1.968a9.98,9.98,0,0,0-7.331,4.221l-3.435-.444a13.012,13.012,0,0,1,10.553-6.943c3.571-.246,7.022.968,10.37,2.134,4.15,1.452,8.069,2.817,11.354.992,3.491-1.936,4.554-6.562,5.578-11.045l.111-.468c1.658-7.2,4.935-11.418,9.482-12.2,2.658-.46,5.094.389,7.45,1.214,2,.7,3.9,1.357,5.705,1.119,3.015-.4,5.11-3.253,6.086-4.911a41.681,41.681,0,0,0,1.928-3.864,40.008,40.008,0,0,1,2.4-4.673,21.461,21.461,0,0,1,13.33-9.252Z" transform="translate(-407.568 -562.076)" fill="#e89b58"/>
          <path id="Trazado_1027555" data-name="Trazado 1027555" d="M437.615,100.021a13.026,13.026,0,0,0-4.229,2.912,35.315,35.315,0,0,0-5.443,8.371c-.46.857-.913,1.722-1.381,2.571-1.881,3.38-4.935,8.117-9.8,10.18-3.008,1.27-6.332,1.428-9.553,1.571-4.166.19-8.1.373-10.521,3.031-1.8,1.984-2.3,4.9-2.824,7.99-.627,3.674-1.27,7.474-4.221,10.093-3.1,2.745-7.982,3.253-13.378,1.381-1.444-.5-2.856-1.111-4.213-1.706a29.373,29.373,0,0,0-7.173-2.436,13.957,13.957,0,0,0-15.829,16.456,31.693,31.693,0,0,0,1.476,4.769c1.2,3.3,2.444,6.713,1.524,10.347-1.484,5.848-7.8,8.712-13.211,9.442-1.793.238-3.61.333-5.372.428-3.364.182-6.538.349-9.474,1.452a14.872,14.872,0,0,0-8.482,9.283,16.627,16.627,0,0,0-.841,4.2l-3.166-.413a19.984,19.984,0,0,1,1-4.808,17.825,17.825,0,0,1,10.37-11.227c3.4-1.277,6.966-1.468,10.426-1.65,1.7-.1,3.451-.182,5.118-.413,4.388-.587,9.458-2.753,10.553-7.07.682-2.69-.341-5.5-1.428-8.482a35.353,35.353,0,0,1-1.611-5.253,17.137,17.137,0,0,1,19.432-20.2,32.621,32.621,0,0,1,7.958,2.666c1.365.6,2.65,1.158,3.983,1.619,4.221,1.46,8.046,1.182,10.227-.762,2.119-1.873,2.65-4.967,3.206-8.244.571-3.4,1.174-6.927,3.61-9.6,3.308-3.626,8.093-3.84,12.719-4.054,2.936-.135,5.975-.278,8.458-1.325,3.92-1.658,6.475-5.578,8.26-8.8.46-.833.9-1.674,1.349-2.515a38.32,38.32,0,0,1,5.975-9.093,15.906,15.906,0,0,1,6.26-3.983c.111,1.047.19,2.142.246,3.277Z" transform="translate(-246.793 27.051)" fill="#e89b58"/>
          <path id="Trazado_1027556" data-name="Trazado 1027556" d="M1006.774,1221.12q-.7,2.892-1.3,5.3a16.762,16.762,0,0,1-6.4,2.761,29.274,29.274,0,0,1-6.363.325,33.526,33.526,0,0,0-4.578.087,15.651,15.651,0,0,0-7.712,3.2l-4.118-.539a19.116,19.116,0,0,1,11.473-5.808,36.629,36.629,0,0,1,5.007-.111,26.194,26.194,0,0,0,5.681-.262,15.829,15.829,0,0,0,8.307-4.951Z" transform="translate(-852.633 -997.604)" fill="#e89b58"/>
          <path id="Trazado_1027557" data-name="Trazado 1027557" d="M390.184-194.613c-.206.635-.4,1.285-.6,1.944-1.27,4.253-2.579,8.649-5.991,11.7-3.61,3.245-8.363,3.928-12.965,4.586-3.943.571-7.665,1.1-10.585,3.142-3.269,2.285-5.046,6.11-6.927,10.164-2.063,4.427-4.19,9.006-8.49,11.7-4.689,2.944-10.164,2.547-15.464,2.158-4.309-.309-8.379-.6-12.013.762-6.2,2.333-10.363,9.283-12.346,20.654-.143.794-.278,1.6-.413,2.412-1.428,8.49-2.912,17.266-9.291,23.153-3.737,3.444-8.656,5.253-13,6.847a63.569,63.569,0,0,0-6.84,2.825,26.117,26.117,0,0,0,3.6-5c.722-.278,1.444-.54,2.142-.8,4.261-1.571,8.665-3.19,11.942-6.2,5.586-5.15,6.966-13.386,8.307-21.344.143-.817.278-1.634.421-2.436,2.19-12.552,7.022-20.32,14.361-23.082,4.277-1.611,8.895-1.277,13.354-.952,5.007.365,9.736.706,13.552-1.682,3.5-2.19,5.34-6.149,7.292-10.347,1.975-4.253,4.015-8.649,7.99-11.426,3.531-2.468,7.815-3.087,11.957-3.682,4.316-.619,8.395-1.206,11.291-3.809,2.745-2.46,3.872-6.244,5.07-10.251.246-.825.5-1.658.762-2.491a1.115,1.115,0,0,1,.143.064c.944.444,1.857.9,2.73,1.4Z" transform="translate(-213.771 293.898)" fill="#e89b58"/>
          <path id="Trazado_1027558" data-name="Trazado 1027558" d="M1074.764-118.634a26.965,26.965,0,0,0-8.006,8.942,56.526,56.526,0,0,0-2.38,5.181,56.1,56.1,0,0,1-2.65,5.721c-2.555,4.57-6.094,7.506-9.974,8.26a19.945,19.945,0,0,1-5.086.127,16.41,16.41,0,0,0-4.435.111c-4.38.952-7.038,5.506-9.6,9.918l-.341.587c-2.658,4.547-6.942,9.744-12.632,9.744a10.027,10.027,0,0,1-1.365-.1,1.6,1.6,0,0,1-1.349-1.8,1.591,1.591,0,0,1,1.8-1.341c4.872.7,8.855-4.784,10.8-8.109l.341-.579c2.777-4.777,5.927-10.18,11.672-11.426a18.734,18.734,0,0,1,5.308-.174,17.046,17.046,0,0,0,4.285-.079c3.967-.77,6.594-4.523,7.807-6.689a52.535,52.535,0,0,0,2.491-5.4,58.344,58.344,0,0,1,2.523-5.475,30.057,30.057,0,0,1,8.792-9.894,22.629,22.629,0,0,1,2,2.468Z" transform="translate(-889.655 225.576)" fill="#e89b58"/>
          <path id="Trazado_1027559" data-name="Trazado 1027559" d="M568.047,46.478a1.589,1.589,0,0,1-2.19.492c-4.459-2.817-10.6-.881-14.711,2.3a51.872,51.872,0,0,0-7.125,7.149c-1.627,1.849-3.3,3.769-5.149,5.506a28.463,28.463,0,0,1-6.125,4.388c.436-1.587.849-3.087,1.222-4.467a26.272,26.272,0,0,0,2.73-2.238c1.738-1.627,3.364-3.491,4.943-5.284a55.865,55.865,0,0,1,7.562-7.57c4.983-3.848,12.592-6.11,18.352-2.468a1.589,1.589,0,0,1,.492,2.19Z" transform="translate(-448.413 76.532)" fill="#e89b58"/>
          <path id="Trazado_1027560" data-name="Trazado 1027560" d="M399.072-261.855a19.707,19.707,0,0,1-12.148,6.847,29.621,29.621,0,0,1-7.133-.286,23.916,23.916,0,0,0-7.03-.175c-3.269.587-6.086,2.571-9.069,4.666a31.346,31.346,0,0,1-8.72,4.848c-5.022,1.531-10.132.524-15.076-.452a63.7,63.7,0,0,0-7.03-1.111,28.816,28.816,0,0,0-21.035,7.094,28.423,28.423,0,0,0-7.1,9.926,28.551,28.551,0,0,1-2.8-1.5,31.5,31.5,0,0,1,7.792-10.8,32.05,32.05,0,0,1,23.391-7.887,65.343,65.343,0,0,1,7.4,1.166c4.769.936,9.268,1.825,13.528.524,2.777-.841,5.229-2.571,7.823-4.4,3.134-2.214,6.371-4.491,10.331-5.205a26.8,26.8,0,0,1,7.974.151,26.867,26.867,0,0,0,6.379.286,16.2,16.2,0,0,0,9.236-4.832c.992.333,2.1.722,3.285,1.135Z" transform="translate(-238.068 354.879)" fill="#e89b58"/>
          <path id="Trazado_1027561" data-name="Trazado 1027561" d="M272.377-486.2a15.347,15.347,0,0,0-3.5,5.15c-.349.786-.674,1.595-1.008,2.4-1.182,2.944-2.4,5.99-4.8,8.331-4.325,4.229-10.339,4.451-16.155,4.665a54.127,54.127,0,0,0-7.363.6,22.391,22.391,0,0,0-12.148,6.713c.547-1.865,1.182-3.824,1.857-5.729a24.479,24.479,0,0,1,9.736-4.11,56.852,56.852,0,0,1,7.8-.651c5.459-.2,10.608-.389,14.052-3.761,1.92-1.88,2.967-4.483,4.078-7.244.341-.849.682-1.69,1.047-2.507a20.815,20.815,0,0,1,2.856-4.761c1.246.294,2.444.6,3.547.9Z" transform="translate(-170.152 559.112)" fill="#e89b58"/>
          <path id="Trazado_1027562" data-name="Trazado 1027562" d="M21.184,1236.488s20.273,23.208,17.694,96.769c-12.132,1.222-35.991,2.1-60.636,2.023-1.738,0-6.252-18.678-6.252-18.678s-2.357,18.614-4.047,18.591c-35.372-.516-69.229-3.19-69.229-9.871,0-65.436,28.286-101.07,28.286-101.07l.222-2.325,94.667,11.608-.722,2.959.016-.008Z" transform="translate(129.386 -998.341)" fill="#0c476b"/>
          <path id="Trazado_1027563" data-name="Trazado 1027563" d="M228.3,154.713c-4.9,22.383-6.713,34.055-15.29,60.159-2.055,6.252-8.157,13.068-14.536,14.679-1.611.4-3.809.135-4.237-1.468-.182-.682-.286-2.539.262-2.079,11.894,10.077,21.281-33.2,33.8-71.292Z" transform="translate(-139.79 -25.777)" fill="#262827"/>
          <path id="Trazado_1027564" data-name="Trazado 1027564" d="M-351.462-510.365c.881,14.179,2.9,27.969,1.714,42.124-.413,4.911-1.357,10.2-4.951,13.56-5.038,4.713-13.671,3.523-18.821-1.063s-7.427-11.6-8.474-18.416c-3.674-23.915,5.165-47.829,7.324-72.323-7.863-8.482-20.233-11.164-29.207-18.456a35.337,35.337,0,0,1-12.4-21.13c-.27-1.547-.262-3.5,1.111-4.269a2.828,2.828,0,0,1,3.356.865,9.222,9.222,0,0,1,1.563,3.38,49.765,49.765,0,0,0,12.584,20.614,32.957,32.957,0,0,1-10.767-23.55,5.6,5.6,0,0,1,.381-2.539,2.154,2.154,0,0,1,2.055-1.3c1.047.135,1.666,1.206,2.118,2.158,4.34,9.1,1.222,10.68,13.822,25.351-7.728-7.728-9.061-13.877-8.879-18.194.072-1.627.77-3.626,2.4-3.761A2.621,2.621,0,0,1-394.269-586a8.36,8.36,0,0,1,.928,2.579c1.88,7.435,6.879,12.648,11.87,18.281-2.975-5.935-2.436-7.038-3.094-10.815-.849-4.84,2.341-6.752,4.174-4.459a4.679,4.679,0,0,1,.873,1.849c1.15,4.6,2.944,10.228,6.03,12.846.7.6,4.348,1.682,7.7,2.6a19.054,19.054,0,0,1,9,5.062c2.38,2.547,3.793,6.126,4.078,10.751.516,12.87.1,18.646,1.246,36.943Z" transform="translate(416.569 655.511)" fill="#dc8068"/>
          <path id="Trazado_1027565" data-name="Trazado 1027565" d="M540.283,52.545a.4.4,0,1,1,.744.273q-1.7,4.588-3.4,9.172t-3.4,9.172a.4.4,0,0,1-.744-.273q1.7-4.588,3.4-9.172t3.4-9.172Z" transform="translate(-449.07 67.567)" fill="#381c15"/>
          <path id="Trazado_1027566" data-name="Trazado 1027566" d="M747.385-436.667a.4.4,0,0,1,.384-.406.4.4,0,0,1,.406.384,15.5,15.5,0,0,0,2.7,8.164,15.481,15.481,0,0,0,6.564,5.544.4.4,0,0,1,.2.521.4.4,0,0,1-.521.2,16.273,16.273,0,0,1-6.905-5.826,16.3,16.3,0,0,1-2.829-8.585Z" transform="translate(-644.016 513.524)" fill="#381c15"/>
          <path id="Trazado_1027567" data-name="Trazado 1027567" d="M900.764-253.641a.4.4,0,0,1-.184-.529.4.4,0,0,1,.529-.184c1.175.569,2.028.978,2.882,1.388l1.5.722a.4.4,0,0,1,.186.527.4.4,0,0,1-.527.186l-1.5-.723c-1.072-.514-2.14-1.028-2.886-1.388Z" transform="translate(-783.588 347.046)" fill="#381c15"/>
          <path id="Trazado_1027568" data-name="Trazado 1027568" d="M1487.72,343.874a.4.4,0,1,1,.769.2q-1.176,4.621-2.553,9.2-1.364,4.533-2.933,9.033a.4.4,0,0,1-.747-.26q1.553-4.451,2.92-9t2.544-9.17Z" transform="translate(-1313.691 -197.888)" fill="#381c15"/>
          <path id="Trazado_1027569" data-name="Trazado 1027569" d="M1467.044,311.864a.4.4,0,1,1,.294-.735q4.406,1.764,8.937,3.14t9.176,2.362a.42.42,0,0,1,.051.014c2.3.821,4.6,1.566,6.906,2.208s4.632,1.184,6.986,1.6l.013,0a3.944,3.944,0,0,0,1.594.006.99.99,0,0,0,.687-.515l.012-.024a.942.942,0,0,0,.048-.534,1.439,1.439,0,0,0-.295-.637,2.685,2.685,0,0,0-.552-.5,6.847,6.847,0,0,0-.7-.422q-.345-.185-.694-.361c-1.906-.591-3.805-1.251-5.72-1.917-.525-.183-1.064-.37-1.938-.671a.4.4,0,0,1,.2-.764,29.68,29.68,0,0,1,7.755,2.616,50.139,50.139,0,0,0,7.527,1.785,4.065,4.065,0,0,0,1.8-.081,1.062,1.062,0,0,0,.729-.656,1.034,1.034,0,0,0-.015-.625,1.648,1.648,0,0,0-.417-.67,2.746,2.746,0,0,0-.665-.465,8.633,8.633,0,0,0-.828-.36l-.025-.011q-1.775-.707-3.589-1.336l-1.15-.316c-2.542-.7-5.1-1.442-7.7-2.233a.4.4,0,0,1,.181-.771q3.215.742,6.363,1.726,1.277.4,2.545.84c2.17.593,4.319,1.16,6.462,1.714h0c.329.085.663.17.987.22a3.194,3.194,0,0,0,.924.024,1.8,1.8,0,0,0,.829-.335,1.144,1.144,0,0,0,.423-.576l.006-.019a1.117,1.117,0,0,0-.044-.663,1.764,1.764,0,0,0-.489-.71,3.1,3.1,0,0,0-.75-.477,8.677,8.677,0,0,0-.905-.349h0q-2.519-.864-5.093-1.526-1.216-.139-2.436-.339c-1.918-.312-3.847-.727-5.808-1.223a.4.4,0,0,1,.127-.782,65.962,65.962,0,0,1,6.791,1.206q.739.171,1.474.359,1.6.182,3.192.251h0a4.687,4.687,0,0,0,1.987-.291,1.267,1.267,0,0,0,.776-.83,1.215,1.215,0,0,0-.083-.775,1.894,1.894,0,0,0-.6-.755,3.293,3.293,0,0,0-.883-.45,10.362,10.362,0,0,0-1.048-.292h0a180.156,180.156,0,0,0-19.268-3.037l-.081-.01a.4.4,0,0,1-.02-.784c1.592-.341,3.2-.682,4.839-1.025q2.288-.48,4.74-.987a5.3,5.3,0,0,0,1.37-.447,1.345,1.345,0,0,0,.731-.811,1.116,1.116,0,0,0-.127-.8,1.792,1.792,0,0,0-.735-.718,5.3,5.3,0,0,0-2.173-.407h-.018q-7.564-.309-15.129-.626l-.039,0a72,72,0,0,1-8.2-1.819c-1.767-.464-3.536-.93-5.314-1.3a33.339,33.339,0,0,0-6.838-.8,17.926,17.926,0,0,0-6.607,1.158l-.019.007a19.263,19.263,0,0,0-4.733,2.8,52.682,52.682,0,0,0-4.21,3.776c-4.245,4.131-10.854,11.538-17.166,18.956-7.24,8.51-14.091,17.038-16.535,20.655a.4.4,0,0,1-.657-.443c2.449-3.624,9.324-12.181,16.591-20.723,6.333-7.444,12.962-14.873,17.215-19.012a53.25,53.25,0,0,1,4.276-3.831,20.056,20.056,0,0,1,4.927-2.918l.021-.009a18.712,18.712,0,0,1,6.9-1.211,34.086,34.086,0,0,1,7,.811c1.8.379,3.579.847,5.354,1.313a71.63,71.63,0,0,0,8.094,1.8q7.553.32,15.105.625h.023a5.88,5.88,0,0,1,2.5.5,2.6,2.6,0,0,1,1.067,1.044,1.887,1.887,0,0,1,.2,1.372v0a2.093,2.093,0,0,1-1.125,1.312,6.009,6.009,0,0,1-1.581.524h0c-1.513.312-3.08.639-4.738.987l-2.529.534a161.767,161.767,0,0,1,17.077,2.776l0,0a11.318,11.318,0,0,1,1.13.314,4.068,4.068,0,0,1,1.094.562,2.7,2.7,0,0,1,.858,1.08,1.993,1.993,0,0,1,.123,1.278,2.023,2.023,0,0,1-1.222,1.36,4.947,4.947,0,0,1-1.854.363q.779.247,1.55.512a9.575,9.575,0,0,1,.986.383,3.878,3.878,0,0,1,.942.6,2.567,2.567,0,0,1,.709,1.036,1.893,1.893,0,0,1,.058,1.144l-.008.031a1.924,1.924,0,0,1-.705.982,2.614,2.614,0,0,1-1.2.487,3.96,3.96,0,0,1-1.151-.027c-.366-.057-.719-.147-1.064-.236l-1-.26q.08.068.157.143a2.456,2.456,0,0,1,.619,1,1.755,1.755,0,0,1-1.217,2.267,4.843,4.843,0,0,1-2.165.115,45,45,0,0,1-5.2-1.1l.047.056a2.246,2.246,0,0,1,.459,1,1.71,1.71,0,0,1-.108,1l-.014.034a1.746,1.746,0,0,1-1.2.946,4.7,4.7,0,0,1-1.933.009l-.015,0c-2.367-.418-4.719-.967-7.06-1.618s-4.647-1.4-6.94-2.216q-4.645-.987-9.211-2.375t-9-3.162Z" transform="translate(-1251.638 -151.41)" fill="#995746"/>
          <path id="Trazado_1027570" data-name="Trazado 1027570" d="M-406.808-572.76a.4.4,0,0,1,.064.556.4.4,0,0,1-.556.063,29.013,29.013,0,0,1-7.385-8.838,28.953,28.953,0,0,1-3.4-10.994A6.66,6.66,0,0,1-417.75-595a2.566,2.566,0,0,1,1.679-1.609,2.53,2.53,0,0,1,1.613.105,3.565,3.565,0,0,1,1.425,1.048,8.123,8.123,0,0,1,1.294,2.7l.037.11a65.294,65.294,0,0,0,3.2,7.708,27.819,27.819,0,0,1-2.216-10.125v0h0a10.105,10.105,0,0,1,.074-1.351,4.593,4.593,0,0,1,.377-1.348,3.211,3.211,0,0,1,.971-1.2,2.411,2.411,0,0,1,1.349-.5,2.624,2.624,0,0,1,2.115,1.045,7.358,7.358,0,0,1,1.172,2.087c.67,1.727,1.262,3.479,1.854,5.232.7,2.08,1.405,4.162,2.237,6.189a19.744,19.744,0,0,1-.474-4.2,6.429,6.429,0,0,1,.641-2.963,2.633,2.633,0,0,1,1.849-1.45,2.591,2.591,0,0,1,1.6.24,3.675,3.675,0,0,1,1.354,1.146,8.6,8.6,0,0,1,1.13,2.593l.091.292a36.97,36.97,0,0,0,4.22,9.079,32.777,32.777,0,0,0,5.758,6.74,34.3,34.3,0,0,1-1.135-3.769,34.073,34.073,0,0,1-.91-6.507,10.43,10.43,0,0,1,0-1.33,4.573,4.573,0,0,1,.3-1.35,3.171,3.171,0,0,1,.9-1.244,2.288,2.288,0,0,1,1.3-.543,2.511,2.511,0,0,1,2.173,1.091,7.661,7.661,0,0,1,1.14,2.213c.407,1.164.66,2.118.914,3.072s.5,1.885.9,3.014l.077.219c.707,2.027,1.675,4.8,3.249,6.069a12,12,0,0,0,4.47,1.769l.016,0c.441.112.871.221,1.27.336l.033.011a35.706,35.706,0,0,1,7.76,2.987,14.668,14.668,0,0,1,5.969,6.006c2.426,4.591,2.442,13.316,2.455,20.552,0,1.716.006,3.348.041,4.823.186,7.715.5,15.25.817,22.786s.631,15.068.817,22.822a.4.4,0,0,1-.386.4.4.4,0,0,1-.4-.386c-.186-7.725-.5-15.268-.817-22.81s-.63-15.055-.817-22.8c-.035-1.473-.038-3.115-.042-4.842-.013-7.145-.029-15.761-2.365-20.183a13.9,13.9,0,0,0-5.659-5.687,35.008,35.008,0,0,0-7.588-2.916l-.031-.008c-.4-.116-.821-.222-1.248-.33l-.016,0a12.531,12.531,0,0,1-4.771-1.921c-1.75-1.412-2.762-4.308-3.5-6.426l-.077-.219c-.407-1.164-.661-2.119-.914-3.073s-.5-1.885-.9-3.013a6.917,6.917,0,0,0-1.01-1.98,1.771,1.771,0,0,0-1.5-.794h0a1.506,1.506,0,0,0-.855.363,2.365,2.365,0,0,0-.667.928,3.81,3.81,0,0,0-.245,1.118,9.7,9.7,0,0,0,0,1.233v0a33.289,33.289,0,0,0,.888,6.356,33.458,33.458,0,0,0,2.081,6.057.4.4,0,0,1-.122.51.4.4,0,0,1-.552-.1l-1.027-1.459a33.462,33.462,0,0,1-6.44-7.373,37.761,37.761,0,0,1-4.308-9.271c-.013-.04-.092-.279-.092-.3a8,8,0,0,0-1.016-2.363,2.871,2.871,0,0,0-1.054-.9,1.816,1.816,0,0,0-1.117-.175,1.877,1.877,0,0,0-1.294,1.047,5.627,5.627,0,0,0-.548,2.585,19.5,19.5,0,0,0,1.914,8.259,19.56,19.56,0,0,0,5.166,6.674l.027.022a.4.4,0,0,1,.07.556.4.4,0,0,1-.556.07A20.672,20.672,0,0,1-398-578.3a33.569,33.569,0,0,1-3.05-5.716c-.95-2.234-1.727-4.535-2.5-6.836-.589-1.745-1.179-3.49-1.841-5.2a6.588,6.588,0,0,0-1.036-1.858,1.88,1.88,0,0,0-1.485-.77,1.627,1.627,0,0,0-.906.34,2.4,2.4,0,0,0-.726.9,3.814,3.814,0,0,0-.309,1.118,9.465,9.465,0,0,0-.065,1.246h0a27.273,27.273,0,0,0,2.246,10.044,84.375,84.375,0,0,0,4.795,9.447.4.4,0,0,1-.1.531.4.4,0,0,1-.552-.09,66.607,66.607,0,0,1-5.095-8.313,66.04,66.04,0,0,1-3.814-8.945l-.037-.113a7.548,7.548,0,0,0-1.155-2.445,2.759,2.759,0,0,0-1.1-.813,1.753,1.753,0,0,0-1.114-.081,1.812,1.812,0,0,0-1.161,1.147,5.872,5.872,0,0,0-.282,2.656,28.147,28.147,0,0,0,3.31,10.69,28.225,28.225,0,0,0,7.183,8.6Z" transform="translate(418.128 661.516)" fill="#995746"/>
          <path id="Trazado_1027571" data-name="Trazado 1027571" d="M946.577-956.513a.4.4,0,0,1,.353-.434.4.4,0,0,1,.434.353,15.876,15.876,0,0,1-.637,5.793,20.078,20.078,0,0,1-2.619,5.737,23.63,23.63,0,0,1-1.606,2c-1.076,1.246-2.136,2.473-2.094,3.273a1.957,1.957,0,0,0,.026.221,2.512,2.512,0,0,0,1.407,1.7,4.369,4.369,0,0,0,2.171.526,2.007,2.007,0,0,0,.219-.025.4.4,0,0,1,.457.324.4.4,0,0,1-.324.457,2.814,2.814,0,0,1-.306.034,5.2,5.2,0,0,1-2.59-.619,3.277,3.277,0,0,1-1.816-2.268,2.806,2.806,0,0,1-.035-.308h0c-.061-1.118,1.1-2.467,2.286-3.836a23.129,23.129,0,0,0,1.551-1.924,19.275,19.275,0,0,0,2.511-5.5,15.106,15.106,0,0,0,.612-5.5Z" transform="translate(-819.197 987.292)" fill="#995746"/>
          <path id="Trazado_1027572" data-name="Trazado 1027572" d="M849.628-963.946c-1.247-.269-2.61,1.148-3.046,3.165s.221,3.871,1.468,4.14,2.61-1.148,3.046-3.165-.221-3.871-1.468-4.14Z" transform="translate(-734.292 993.699)" fill="#4f191d"/>
          <path id="Trazado_1027573" data-name="Trazado 1027573" d="M1108.406-908.015c-1.246-.269-2.61,1.148-3.046,3.165s.221,3.871,1.468,4.14,2.61-1.148,3.046-3.165-.221-3.871-1.468-4.14Z" transform="translate(-970.12 942.728)" fill="#4f191d"/>
          <path id="Trazado_1027574" data-name="Trazado 1027574" d="M928.9-674.753a4.448,4.448,0,0,0-5.078-.6c-1.46.682-2.174,1.516-4.673,1.293-1.674-.151-4.34,1.262-4.142,2.936,4.428,3.2,11.505,2.182,13.9-3.626Z" transform="translate(-796.757 731.152)" fill="#8f2e1d"/>
          <path id="Trazado_1027575" data-name="Trazado 1027575" d="M759.082-845.286c-3.071-.664-5.979.735-6.5,3.125s1.554,4.866,4.625,5.53,5.98-.735,6.5-3.125-1.554-4.866-4.625-5.53Z" transform="translate(-648.684 885.683)" fill="#b83d32"/>
          <path id="Trazado_1027576" data-name="Trazado 1027576" d="M1102.288-781.366c-3.362-.726-6.546.8-7.11,3.416s1.7,5.32,5.066,6.046,6.545-.8,7.11-3.416-1.7-5.32-5.066-6.046Z" transform="translate(-960.884 827.447)" fill="#b83d32"/>
          <path id="Trazado_1027577" data-name="Trazado 1027577" d="M806.187-1030.854a12.952,12.952,0,0,1,10.116,1.706,3,3,0,0,1,1.286,1.381,1.211,1.211,0,0,1-.675,1.571,1.975,1.975,0,0,1-1.523-.579,11.783,11.783,0,0,0-7.45-2.206,4.6,4.6,0,0,1-1.476-.055,1.232,1.232,0,0,1-.952-1.016c-.024-.492.555-.968.674-.809v.008Z" transform="translate(-696.988 1054.983)" fill="#380e11"/>
          <path id="Trazado_1027578" data-name="Trazado 1027578" d="M1116.014-971.866a12.919,12.919,0,0,0-10.085-1.872,2.96,2.96,0,0,0-1.682.857,1.208,1.208,0,0,0,.1,1.706,1.972,1.972,0,0,0,1.626-.016,11.727,11.727,0,0,1,7.752.492,4.564,4.564,0,0,0,1.4.46,1.241,1.241,0,0,0,1.245-.627c.2-.452-.19-1.095-.357-.992v-.008Z" transform="translate(-968.951 1002.89)" fill="#380e11"/>
          <path id="Trazado_1027579" data-name="Trazado 1027579" d="M979.929-558.363a.4.4,0,0,1-.535.163.4.4,0,0,1-.163-.535,3.32,3.32,0,0,1,.194-.317,3.8,3.8,0,0,1,2.248-1.488,3.819,3.819,0,0,1,2.677.3,3.277,3.277,0,0,1,.319.194.4.4,0,0,1,.1.55.4.4,0,0,1-.55.1,2.572,2.572,0,0,0-.241-.148,3.029,3.029,0,0,0-2.122-.233,3.006,3.006,0,0,0-1.78,1.168,2.489,2.489,0,0,0-.147.24Z" transform="translate(-855.257 626.144)" fill="#995746"/>
          <path id="Trazado_1027580" data-name="Trazado 1027580" d="M217.338,1267.267a.4.4,0,1,1,.18-.772q22.65,5.322,45.737,8.368,23.069,3.044,46.36,3.786a.4.4,0,1,1-.025.79q-23.294-.739-46.438-3.792-23.1-3.049-45.815-8.381Z" transform="translate(-160.699 -1038.946)" fill="#1c2529"/>
          <path id="Trazado_1027581" data-name="Trazado 1027581" d="M732.128,1370.429q-.928,14.21-1.864,28.421a35.878,35.878,0,0,1-.459,4.282,12.087,12.087,0,0,1-1.454,4.062,7.517,7.517,0,0,1-3.532,3.044,4.891,4.891,0,0,1-4.06-.052.4.4,0,0,1-.22-.385l.012-.16c1.028-13.362,2.056-26.716,2.931-40.032a.4.4,0,0,1,.389-.371,26.88,26.88,0,0,1,4,.082q1.224.117,2.429.346a4.4,4.4,0,0,1,1.427.313l.065.016a.388.388,0,0,1,.075.027.4.4,0,0,1,.264.4v.006Zm-2.655,28.372q.928-14.033,1.841-28.065a3,3,0,0,1-.651-.188,25.481,25.481,0,0,0-2.87-.44,26.056,26.056,0,0,0-3.544-.095c-.871,13.222-1.885,26.394-2.9,39.572a4.187,4.187,0,0,0,3.174-.081,6.707,6.707,0,0,0,3.148-2.718,11.33,11.33,0,0,0,1.355-3.8,35.345,35.345,0,0,0,.446-4.186Z" transform="translate(-619.55 -1132.551)" fill="#1c2529"/>
          <path id="Trazado_1027582" data-name="Trazado 1027582" d="M51.443,1334.4a.4.4,0,0,1,.756.233c-1.229,3.972-2.487,7.977-4.04,11.841a53.562,53.562,0,0,1-5.822,11.027,33,33,0,0,1-9.6,9.125,23.185,23.185,0,0,1-11.217,3.539.4.4,0,1,1-.028-.79,22.4,22.4,0,0,0,10.833-3.424,32.2,32.2,0,0,0,9.36-8.905,52.79,52.79,0,0,0,5.735-10.866c1.542-3.839,2.795-7.824,4.018-11.779Z" transform="translate(17.84 -1100.587)" fill="#1c2529"/>
          <path id="Trazado_1027583" data-name="Trazado 1027583" d="M1247.3,1448.432a.4.4,0,0,1,.791-.062,58.135,58.135,0,0,0,12.593,31.656.4.4,0,0,1-.617.5,58.968,58.968,0,0,1-12.766-32.09Z" transform="translate(-1099.589 -1204.366)" fill="#1c2529"/>
          <path id="Trazado_1027584" data-name="Trazado 1027584" d="M675.691,2072.262a.395.395,0,1,1-.75-.248,87.525,87.525,0,0,0,3.82-18.9,130.7,130.7,0,0,0,.206-22.1.4.4,0,0,1,.79-.056,131.488,131.488,0,0,1-.21,22.232,88.308,88.308,0,0,1-3.857,19.069Z" transform="translate(-577.979 -1735.286)" fill="#1c2529"/>
          <path id="Trazado_1027585" data-name="Trazado 1027585" d="M145.262,1498.21a.4.4,0,1,1-.753-.239c1.12-3.508,2.025-6.748,2.932-9.99.821-2.937,1.642-5.876,2.621-9.011a.4.4,0,0,1,.5-.26l8.63,2.241a.4.4,0,1,1-.2.766l-8.283-2.151c-.936,3.021-1.72,5.826-2.5,8.627-.9,3.237-1.808,6.47-2.941,10.018Z" transform="translate(-94.592 -1232.332)" fill="#1c2529"/>
          <path id="Trazado_1027586" data-name="Trazado 1027586" d="M-37.693,1757.136a.4.4,0,0,1,.477-.294.4.4,0,0,1,.294.477,257.351,257.351,0,0,0-6.925,56.358.4.4,0,0,1-.4.392.4.4,0,0,1-.392-.4,257.918,257.918,0,0,1,6.944-56.535Z" transform="translate(77.762 -1485.803)" fill="#1c2529"/>
          <path id="Trazado_1027587" data-name="Trazado 1027587" d="M736.755-1289.706s1.643,8.911,11.632,13.5c6.562,3.015,20.924,4.626,20.392,16.623a30.209,30.209,0,0,0,1.69,11.339c7.7-10.244,12.624-26.771,3.793-38.7-15.591-21.058-35.317-8.307-35.317-8.307a12.28,12.28,0,0,0-11.656,2.079c-10,7.617-9.339,18.781-9.284,24.819,5.657-13.314,18.749-21.352,18.749-21.352Z" transform="translate(-617.216 1299.077)" fill="#262827"/>
          <path id="Trazado_1027588" data-name="Trazado 1027588" d="M1270.934-862.573a8.445,8.445,0,0,1,3.134-3.118,6.15,6.15,0,0,1,5.332-.032,5,5,0,0,1,2.492,4.705,12.829,12.829,0,0,1-2.095,7.657,12,12,0,0,1-7.7,4.721,3.89,3.89,0,0,1-2.087-.056,2.535,2.535,0,0,1-1.46-2.7c.119-4.007.349-8.141,2.388-11.164l-.008-.016Z" transform="translate(-1118.96 904.698)" fill="#dc8068"/>
          <path id="Trazado_1027589" data-name="Trazado 1027589" d="M1334.488-810.833a.4.4,0,0,1-.541-.147.4.4,0,0,1,.147-.541,7.036,7.036,0,0,0,2.248-2.068,6.984,6.984,0,0,0,1.169-2.812,4.634,4.634,0,0,0,.068-1.106,2.535,2.535,0,0,0-.259-.987,1.774,1.774,0,0,0-.7-.724,1.228,1.228,0,0,0-.826-.156.4.4,0,0,1-.464-.315.4.4,0,0,1,.315-.463,2.011,2.011,0,0,1,1.36.242,2.58,2.58,0,0,1,1.018,1.052,3.312,3.312,0,0,1,.346,1.294,5.415,5.415,0,0,1-.077,1.295,7.778,7.778,0,0,1-1.3,3.132,7.834,7.834,0,0,1-2.5,2.3Z" transform="translate(-1178.508 862.657)" fill="#995746"/>
          <path id="Trazado_1027590" data-name="Trazado 1027590" d="M1262.955-688.423a2.767,2.767,0,0,1,2.5,1.531,7.556,7.556,0,0,1,.928,3.412,9.212,9.212,0,0,1-1.246,5.634c-1.031,1.531-2.848,2.317-4.277,1.515-1.389-.77-2.158-2.841-1.992-4.761.3-3.515,1.643-7.062,4.094-7.339l-.008.008Z" transform="translate(-1110.116 742.592)" fill="#fac963"/>
          <path id="Trazado_1027591" data-name="Trazado 1027591" d="M1294.9-675.431a1.159,1.159,0,0,1,.865.349,1.233,1.233,0,0,1-.016,1.754,1.263,1.263,0,0,1-2.079-.928,1.123,1.123,0,0,1,1.23-1.174Z" transform="translate(-1141.843 730.743)" fill="#fa4203"/>
        </g>
      </g>
    </g>
    <g id="Grupo_1174453" data-name="Grupo 1174453" transform="translate(540.438 669)">
      <path id="Trazado_1027535-2" data-name="Trazado 1027535" d="M1315.459,361.626c-.667,3.888-1.341,7.871-.651,11.751s3.007,7.72,6.7,9.1c3.451,1.293,7.387.23,10.585-1.611,6.014-3.451,10.188-9.323,14-15.115a425.052,425.052,0,0,0,29.239-52.741c10.362,3.46,35.594,11.957,36.261,8.895,1.008-4.6-13.5-6.4-13.069-6.284,9.212,2.325,20.329,6.609,21.122,3.753.9-3.221-12.243-5.6-15.583-6.538,4.15,1.428,19.154,5.935,19.772,3.745.786-2.793-6.133-4.078-16.289-6.371,4.245,1.119,13.854,4.523,14.853.373.865-2.325-12.8-4.015-21.114-5.53,4.039-1,5.7-1.15,8.291-1.682,1.127-.238,2.475-1.087,2.238-2.206-.254-1.2-1.745-1.7-2.959-1.555s-5.522-.19-13.576-.611c-11.085-1.817-24.5-10.593-37.086,2.967-15.4,16.6-38.363,34.341-42.735,59.675v-.016Z" transform="translate(-1503.851 -551.407)" fill="#dc8068"/>
      <path id="Trazado_1027569-2" data-name="Trazado 1027569" d="M1467.044,311.864a.4.4,0,1,1,.294-.735q4.406,1.764,8.937,3.14t9.176,2.362a.42.42,0,0,1,.051.014c2.3.821,4.6,1.566,6.906,2.208s4.632,1.184,6.986,1.6l.013,0a3.944,3.944,0,0,0,1.594.006.99.99,0,0,0,.687-.515l.012-.024a.942.942,0,0,0,.048-.534,1.439,1.439,0,0,0-.295-.637,2.685,2.685,0,0,0-.552-.5,6.847,6.847,0,0,0-.7-.422q-.345-.185-.694-.361c-1.906-.591-3.805-1.251-5.72-1.917-.525-.183-1.064-.37-1.938-.671a.4.4,0,0,1,.2-.764,29.68,29.68,0,0,1,7.755,2.616,50.139,50.139,0,0,0,7.527,1.785,4.065,4.065,0,0,0,1.8-.081,1.062,1.062,0,0,0,.729-.656,1.034,1.034,0,0,0-.015-.625,1.648,1.648,0,0,0-.417-.67,2.746,2.746,0,0,0-.665-.465,8.633,8.633,0,0,0-.828-.36l-.025-.011q-1.775-.707-3.589-1.336l-1.15-.316c-2.542-.7-5.1-1.442-7.7-2.233a.4.4,0,0,1,.181-.771q3.215.742,6.363,1.726,1.277.4,2.545.84c2.17.593,4.319,1.16,6.462,1.714h0c.329.085.663.17.987.22a3.194,3.194,0,0,0,.924.024,1.8,1.8,0,0,0,.829-.335,1.144,1.144,0,0,0,.423-.576l.006-.019a1.117,1.117,0,0,0-.044-.663,1.764,1.764,0,0,0-.489-.71,3.1,3.1,0,0,0-.75-.477,8.677,8.677,0,0,0-.905-.349h0q-2.519-.864-5.093-1.526-1.216-.139-2.436-.339c-1.918-.312-3.847-.727-5.808-1.223a.4.4,0,0,1,.127-.782,65.962,65.962,0,0,1,6.791,1.206q.739.171,1.474.359,1.6.182,3.192.251h0a4.687,4.687,0,0,0,1.987-.291,1.267,1.267,0,0,0,.776-.83,1.215,1.215,0,0,0-.083-.775,1.894,1.894,0,0,0-.6-.755,3.293,3.293,0,0,0-.883-.45,10.362,10.362,0,0,0-1.048-.292h0a180.156,180.156,0,0,0-19.268-3.037l-.081-.01a.4.4,0,0,1-.02-.784c1.592-.341,3.2-.682,4.839-1.025q2.288-.48,4.74-.987a5.3,5.3,0,0,0,1.37-.447,1.345,1.345,0,0,0,.731-.811,1.116,1.116,0,0,0-.127-.8,1.792,1.792,0,0,0-.735-.718,5.3,5.3,0,0,0-2.173-.407h-.018q-7.564-.309-15.129-.626l-.039,0a72,72,0,0,1-8.2-1.819c-1.767-.464-3.536-.93-5.314-1.3a33.339,33.339,0,0,0-6.838-.8,17.926,17.926,0,0,0-6.607,1.158l-.019.007a19.263,19.263,0,0,0-4.733,2.8,52.682,52.682,0,0,0-4.21,3.776c-4.245,4.131-10.854,11.538-17.166,18.956-7.24,8.51-14.091,17.038-16.535,20.655a.4.4,0,0,1-.657-.443c2.449-3.624,9.324-12.181,16.591-20.723,6.333-7.444,12.962-14.873,17.215-19.012a53.25,53.25,0,0,1,4.276-3.831,20.056,20.056,0,0,1,4.927-2.918l.021-.009a18.712,18.712,0,0,1,6.9-1.211,34.086,34.086,0,0,1,7,.811c1.8.379,3.579.847,5.354,1.313a71.63,71.63,0,0,0,8.094,1.8q7.553.32,15.105.625h.023a5.88,5.88,0,0,1,2.5.5,2.6,2.6,0,0,1,1.067,1.044,1.887,1.887,0,0,1,.2,1.372v0a2.093,2.093,0,0,1-1.125,1.312,6.009,6.009,0,0,1-1.581.524h0c-1.513.312-3.08.639-4.738.987l-2.529.534a161.767,161.767,0,0,1,17.077,2.776l0,0a11.318,11.318,0,0,1,1.13.314,4.068,4.068,0,0,1,1.094.562,2.7,2.7,0,0,1,.858,1.08,1.993,1.993,0,0,1,.123,1.278,2.023,2.023,0,0,1-1.222,1.36,4.947,4.947,0,0,1-1.854.363q.779.247,1.55.512a9.575,9.575,0,0,1,.986.383,3.878,3.878,0,0,1,.942.6,2.567,2.567,0,0,1,.709,1.036,1.893,1.893,0,0,1,.058,1.144l-.008.031a1.924,1.924,0,0,1-.705.982,2.614,2.614,0,0,1-1.2.487,3.96,3.96,0,0,1-1.151-.027c-.366-.057-.719-.147-1.064-.236l-1-.26q.08.068.157.143a2.456,2.456,0,0,1,.619,1,1.755,1.755,0,0,1-1.217,2.267,4.843,4.843,0,0,1-2.165.115,45,45,0,0,1-5.2-1.1l.047.056a2.246,2.246,0,0,1,.459,1,1.71,1.71,0,0,1-.108,1l-.014.034a1.746,1.746,0,0,1-1.2.946,4.7,4.7,0,0,1-1.933.009l-.015,0c-2.367-.418-4.719-.967-7.06-1.618s-4.647-1.4-6.94-2.216q-4.645-.987-9.211-2.375t-9-3.162Z" transform="translate(-1594.638 -549.624)" fill="#995746"/>
    </g>
  </g>
</svg>
