<svg xmlns="http://www.w3.org/2000/svg" xmlns:xlink="http://www.w3.org/1999/xlink" width="113" height="113" viewBox="0 0 113 113">
  <defs>
    <filter id="Trazado_982547" x="0" y="0" width="113" height="113" filterUnits="userSpaceOnUse">
      <feOffset dy="3" input="SourceAlpha"/>
      <feGaussianBlur stdDeviation="3" result="blur"/>
      <feFlood flood-opacity="0.161"/>
      <feComposite operator="in" in2="blur"/>
      <feComposite in="SourceGraphic"/>
    </filter>
  </defs>
  <g id="Grupo_1174528" data-name="Grupo 1174528" transform="translate(-199 -4750)">
    <g id="Grupo_1172115" data-name="Grupo 1172115" transform="translate(27.864 -2132)">
      <g id="Grupo_1171577" data-name="Grupo 1171577" transform="translate(0.136 3601)">
        <g id="Grupo_1167519" data-name="Grupo 1167519" transform="translate(180 3287)">
          <g id="Grupo_1166845" data-name="Grupo 1166845" transform="translate(0)">
            <g id="Grupo_1166720" data-name="Grupo 1166720">
              <g id="Grupo_1164305" data-name="Grupo 1164305">
                <g id="Grupo_1163948" data-name="Grupo 1163948">
                  <g id="Grupo_1158168" data-name="Grupo 1158168">
                    <g id="Grupo_1152576" data-name="Grupo 1152576">
                      <g id="Grupo_1148633" data-name="Grupo 1148633">
                        <g id="Grupo_1148525" data-name="Grupo 1148525">
                          <g transform="matrix(1, 0, 0, 1, -9, -6)" filter="url(#Trazado_982547)">
                            <g id="Trazado_982547-2" data-name="Trazado 982547" transform="translate(9 6)" fill="#fcf3f0">
                              <path d="M 47.5 93.5 C 41.28937149047852 93.5 35.26533508300781 92.28397369384766 29.59518623352051 89.88570404052734 C 24.11771965026855 87.56893157958984 19.19813346862793 84.25196075439453 14.97309303283691 80.02691650390625 C 10.74804019927979 75.80186462402344 7.431066513061523 70.88229370117188 5.114293098449707 65.40481567382812 C 2.716026782989502 59.73468017578125 1.5 53.71062850952148 1.5 47.5 C 1.5 41.28937149047852 2.716026782989502 35.26533508300781 5.114293098449707 29.59518623352051 C 7.431066513061523 24.11771965026855 10.74804019927979 19.19813346862793 14.97309303283691 14.97309303283691 C 19.19813346862793 10.74804019927979 24.11771965026855 7.431066513061523 29.59518623352051 5.114293098449707 C 35.26533508300781 2.716026782989502 41.28937149047852 1.5 47.5 1.5 C 53.71062850952148 1.5 59.73468017578125 2.716026782989502 65.40481567382812 5.114293098449707 C 70.88229370117188 7.431066513061523 75.80186462402344 10.74804019927979 80.02691650390625 14.97309303283691 C 84.25196075439453 19.19813346862793 87.56893157958984 24.11771965026855 89.88570404052734 29.59518623352051 C 92.28397369384766 35.26533508300781 93.5 41.28937149047852 93.5 47.5 C 93.5 53.71062850952148 92.28397369384766 59.73468017578125 89.88570404052734 65.40481567382812 C 87.56893157958984 70.88229370117188 84.25196075439453 75.80186462402344 80.02691650390625 80.02691650390625 C 75.80186462402344 84.25196075439453 70.88229370117188 87.56893157958984 65.40481567382812 89.88570404052734 C 59.73468017578125 92.28397369384766 53.71062850952148 93.5 47.5 93.5 Z" stroke="none"/>
                              <path d="M 47.5 3 C 41.49121475219727 3 35.66376876831055 4.176155090332031 30.17950439453125 6.495796203613281 C 24.88084411621094 8.736953735351562 20.12152099609375 11.94598388671875 16.03375244140625 16.03375244140625 C 11.94598388671875 20.12152099609375 8.736953735351562 24.88084411621094 6.495796203613281 30.17950439453125 C 4.176155090332031 35.66376876831055 3 41.49121475219727 3 47.5 C 3 53.50878524780273 4.176155090332031 59.33623123168945 6.495796203613281 64.82049560546875 C 8.736953735351562 70.11915588378906 11.94598388671875 74.87847900390625 16.03375244140625 78.96624755859375 C 20.12152099609375 83.05401611328125 24.88084411621094 86.26304626464844 30.17950439453125 88.50419616699219 C 35.66376876831055 90.82384490966797 41.49121475219727 92 47.5 92 C 53.50878524780273 92 59.33623123168945 90.82384490966797 64.82049560546875 88.50419616699219 C 70.11915588378906 86.26304626464844 74.87847900390625 83.05401611328125 78.96624755859375 78.96624755859375 C 83.05401611328125 74.87847900390625 86.26304626464844 70.11915588378906 88.50419616699219 64.82049560546875 C 90.82384490966797 59.33623123168945 92 53.50878524780273 92 47.5 C 92 41.49121475219727 90.82384490966797 35.66376876831055 88.50419616699219 30.17950439453125 C 86.26304626464844 24.88084411621094 83.05401611328125 20.12152099609375 78.96624755859375 16.03375244140625 C 74.87847900390625 11.94598388671875 70.11915588378906 8.736953735351562 64.82049560546875 6.495796203613281 C 59.33623123168945 4.176155090332031 53.50878524780273 3 47.5 3 M 47.5 0 C 73.7335205078125 0 95 21.2664794921875 95 47.5 C 95 73.7335205078125 73.7335205078125 95 47.5 95 C 21.2664794921875 95 0 73.7335205078125 0 47.5 C 0 21.2664794921875 21.2664794921875 0 47.5 0 Z" stroke="none" fill="#e89076"/>
                            </g>
                          </g>
                        </g>
                      </g>
                    </g>
                  </g>
                </g>
              </g>
            </g>
          </g>
        </g>
      </g>
    </g>
    <g id="data-processing" transform="translate(226 4774)">
      <g id="Grupo_1174526" data-name="Grupo 1174526" transform="translate(1.925 5.624)">
        <g id="Grupo_1174516" data-name="Grupo 1174516" transform="translate(7.398)">
          <path id="Trazado_1027699" data-name="Trazado 1027699" d="M40.554,33.928a8.724,8.724,0,0,1-.592-1.424l-2.219-.61v-3.7l2.219-.61a8.724,8.724,0,0,1,.592-1.424l-1.137-2,2.034-2.025-.009-.009V6H19.248v9.248H10v18.5H21.1a1.855,1.855,0,0,1,1.85,1.85v1.85a1.855,1.855,0,0,1-1.85,1.85v3.7a1.855,1.855,0,0,1,1.85,1.85v1.85a1.855,1.855,0,0,1-1.85,1.85v3.7a1.855,1.855,0,0,1,1.85,1.85v1.85h18.5V37.96l-2.025-2.034Z" transform="translate(-10 -6)" fill="#e6e9ed"/>
        </g>
        <g id="Grupo_1174517" data-name="Grupo 1174517" transform="translate(20.345 3.699)">
          <path id="Trazado_1027700" data-name="Trazado 1027700" d="M24,10H38.8v5.549H24Z" transform="translate(-24 -10)" fill="#ff826e"/>
        </g>
        <g id="Grupo_1174518" data-name="Grupo 1174518" transform="translate(7.398 0)">
          <path id="Trazado_1027701" data-name="Trazado 1027701" d="M19.248,6v9.248H10Z" transform="translate(-10 -6)" fill="#b4dd7f"/>
        </g>
        <g id="Grupo_1174519" data-name="Grupo 1174519" transform="translate(24.044 35.141)">
          <path id="Trazado_1027702" data-name="Trazado 1027702" d="M28,44H39.1V55.1H28Z" transform="translate(-28 -44)" fill="#4fc1e9"/>
        </g>
        <g id="Grupo_1174520" data-name="Grupo 1174520" transform="translate(35.141 13.871)">
          <path id="Trazado_1027703" data-name="Trazado 1027703" d="M46.288,23.811a8.725,8.725,0,0,1,1.424-.592L48.323,21h3.7l.61,2.219a8.725,8.725,0,0,1,1.424.592l2-1.137,2.617,2.617-1.137,2a8.724,8.724,0,0,1,.592,1.424l2.219.61v3.7l-2.219.61a8.725,8.725,0,0,1-.592,1.424l1.137,2-2.617,2.617-2-1.137a8.724,8.724,0,0,1-1.424.592l-.61,2.219h-3.7l-.61-2.219a8.724,8.724,0,0,1-1.424-.592l-2,1.137-.592-.583-2.025-2.034,1.137-2a8.724,8.724,0,0,1-.592-1.424L40,33.022v-3.7l2.219-.61a8.724,8.724,0,0,1,.592-1.424l-1.137-2,2.034-2.025.583-.592ZM54.8,31.172A4.624,4.624,0,1,0,50.172,35.8,4.625,4.625,0,0,0,54.8,31.172Z" transform="translate(-40 -21)" fill="#fcd770"/>
        </g>
        <g id="Grupo_1174521" data-name="Grupo 1174521" transform="translate(0 46.238)">
          <path id="Trazado_1027704" data-name="Trazado 1027704" d="M22.345,57.85V59.7a1.855,1.855,0,0,1-1.85,1.85H3.85A1.855,1.855,0,0,1,2,59.7V57.85A1.855,1.855,0,0,1,3.85,56H20.5A1.855,1.855,0,0,1,22.345,57.85Z" transform="translate(-2 -56)" fill="#ff826e"/>
        </g>
        <g id="Grupo_1174522" data-name="Grupo 1174522" transform="translate(0 36.99)">
          <path id="Trazado_1027705" data-name="Trazado 1027705" d="M22.345,47.85V49.7a1.855,1.855,0,0,1-1.85,1.85H3.85A1.855,1.855,0,0,1,2,49.7V47.85A1.855,1.855,0,0,1,3.85,46H20.5A1.855,1.855,0,0,1,22.345,47.85Z" transform="translate(-2 -46)" fill="#ff826e"/>
        </g>
        <g id="Grupo_1174523" data-name="Grupo 1174523" transform="translate(0 27.743)">
          <path id="Trazado_1027706" data-name="Trazado 1027706" d="M22.345,37.85V39.7a1.855,1.855,0,0,1-1.85,1.85H3.85A1.855,1.855,0,0,1,2,39.7V37.85A1.855,1.855,0,0,1,3.85,36H20.5A1.855,1.855,0,0,1,22.345,37.85Z" transform="translate(-2 -36)" fill="#ff826e"/>
        </g>
        <g id="Grupo_1174524" data-name="Grupo 1174524" transform="translate(1.85 33.291)">
          <path id="Trazado_1027707" data-name="Trazado 1027707" d="M4,42H20.646v3.7H4Z" transform="translate(-4 -42)" fill="#b4dd7f"/>
        </g>
        <g id="Grupo_1174525" data-name="Grupo 1174525" transform="translate(1.85 42.539)">
          <path id="Trazado_1027708" data-name="Trazado 1027708" d="M4,52H20.646v3.7H4Z" transform="translate(-4 -52)" fill="#b4dd7f"/>
        </g>
      </g>
      <g id="Grupo_1174527" data-name="Grupo 1174527" transform="translate(1 1)">
        <path id="Trazado_1027709" data-name="Trazado 1027709" d="M50.549,26A5.549,5.549,0,1,0,56.1,31.549,5.554,5.554,0,0,0,50.549,26Zm0,9.248a3.7,3.7,0,1,1,3.7-3.7A3.7,3.7,0,0,1,50.549,35.248Z" transform="translate(-4.311 -2.881)"/>
        <path id="Trazado_1027710" data-name="Trazado 1027710" d="M6.85,5.624A2.778,2.778,0,0,1,9.624,2.85H43.84a2.778,2.778,0,0,1,2.774,2.774v7.118l-2-3.007L43.071,10.76l4.468,6.7,4.468-6.7L50.469,9.735l-2,3.006V5.624A4.629,4.629,0,0,0,43.84,1H9.624A4.629,4.629,0,0,0,5,5.624v4.624H6.85Z" transform="translate(-1.301 -1)"/>
        <path id="Trazado_1027711" data-name="Trazado 1027711" d="M5,13H6.85v1.85H5Z" transform="translate(-1.301 -1.903)"/>
        <path id="Trazado_1027712" data-name="Trazado 1027712" d="M5,17H6.85v1.85H5Z" transform="translate(-1.301 -2.204)"/>
        <path id="Trazado_1027713" data-name="Trazado 1027713" d="M39.646,9H23v7.4H39.646ZM37.8,14.549H24.85v-3.7H37.8Z" transform="translate(-2.655 -1.602)"/>
        <path id="Trazado_1027714" data-name="Trazado 1027714" d="M58.335,32.525V27.413l-2.427-.664c-.08-.212-.167-.424-.264-.633l1.248-2.188-3.614-3.614L51.09,21.562c-.21-.1-.421-.185-.633-.264l-.663-2.427h-5.11L44.019,21.3c-.212.08-.424.167-.633.264l-1.7-.968V5h-23.5L8.4,14.79V32.743H3.774A2.778,2.778,0,0,0,1,35.517v1.85a2.771,2.771,0,0,0,1.85,2.6v2.191A2.768,2.768,0,0,0,1,44.765v1.85a2.771,2.771,0,0,0,1.85,2.6v2.191A2.768,2.768,0,0,0,1,54.012v1.85a2.778,2.778,0,0,0,2.774,2.774H20.42a2.771,2.771,0,0,0,2.6-1.85H41.689V39.342l1.7-.968c.209.1.421.185.633.264l.664,2.427h5.11l.664-2.427c.213-.08.424-.168.633-.264l2.187,1.249,3.614-3.613-1.248-2.189c.1-.21.185-.421.264-.633ZM17.646,8.157v6.09h-6.09ZM2.85,35.517a.926.926,0,0,1,.925-.925H20.42a.926.926,0,0,1,.925.925v1.85a.926.926,0,0,1-.925.925H3.774a.926.926,0,0,1-.925-.925ZM19.5,40.141v1.85H4.7v-1.85ZM2.85,44.765a.926.926,0,0,1,.925-.925H20.42a.926.926,0,0,1,.925.925v1.85a.926.926,0,0,1-.925.925H3.774a.926.926,0,0,1-.925-.925ZM19.5,49.388v1.85H4.7v-1.85Zm1.85,6.473a.926.926,0,0,1-.925.925H3.774a.926.926,0,0,1-.925-.925v-1.85a.926.926,0,0,1,.925-.925H20.42a.926.926,0,0,1,.925.925Zm1.85-.925v-.925a2.771,2.771,0,0,0-1.85-2.6V49.217a2.771,2.771,0,0,0,1.85-2.6v-1.85a2.771,2.771,0,0,0-1.85-2.6V39.969a2.771,2.771,0,0,0,1.85-2.6v-1.85a2.778,2.778,0,0,0-2.774-2.774H10.248V16.1H19.5V6.85H39.84V21.673l-2.255,2.255,1.248,2.188c-.1.21-.185.421-.264.633l-2.427.663v5.111l2.427.664q.119.318.264.633L37.584,36.01l2.255,2.255V54.937ZM54.586,35.7l-1.618,1.617-1.83-1.045-.449.239a7.331,7.331,0,0,1-1.266.529l-.486.149-.555,2.029H46.094l-.555-2.028-.486-.149a7.4,7.4,0,0,1-1.266-.529l-.449-.239-1.83,1.045L39.89,35.7l1.044-1.83-.237-.449a7.4,7.4,0,0,1-.529-1.268l-.15-.485-2.028-.557V28.825l2.028-.555.15-.485a7.342,7.342,0,0,1,.529-1.268l.237-.449-1.044-1.83,1.618-1.618,1.83,1.044.449-.237a7.385,7.385,0,0,1,1.268-.529l.485-.15.555-2.028h2.288l.555,2.028.486.15a7.343,7.343,0,0,1,1.268.529l.449.237,1.83-1.044,1.618,1.618-1.044,1.83.237.449a7.385,7.385,0,0,1,.529,1.268l.15.485,2.028.555v2.287l-2.028.556-.15.485a7.4,7.4,0,0,1-.529,1.268l-.237.449Z" transform="translate(-1 -1.301)"/>
        <path id="Trazado_1027715" data-name="Trazado 1027715" d="M13,19h1.85v1.85H13Z" transform="translate(-1.903 -2.354)"/>
        <path id="Trazado_1027716" data-name="Trazado 1027716" d="M17,19H39.194v1.85H17Z" transform="translate(-2.204 -2.354)"/>
        <path id="Trazado_1027717" data-name="Trazado 1027717" d="M13,23H37.044v1.85H13Z" transform="translate(-1.903 -2.655)"/>
        <path id="Trazado_1027718" data-name="Trazado 1027718" d="M13,27H37.044v1.85H13Z" transform="translate(-1.903 -2.956)"/>
        <path id="Trazado_1027719" data-name="Trazado 1027719" d="M13,31H27.8v1.85H13Z" transform="translate(-1.903 -3.257)"/>
        <path id="Trazado_1027720" data-name="Trazado 1027720" d="M31,31h1.85v1.85H31Z" transform="translate(-3.257 -3.257)"/>
        <path id="Trazado_1027721" data-name="Trazado 1027721" d="M35,31h1.85v1.85H35Z" transform="translate(-3.558 -3.257)"/>
        <path id="Trazado_1027722" data-name="Trazado 1027722" d="M27,55.947H39.947V43H27Zm1.85-11.1H38.1V54.1H28.85Z" transform="translate(-2.956 -4.16)"/>
        <path id="Trazado_1027723" data-name="Trazado 1027723" d="M27,39H38.1v1.85H27Z" transform="translate(-2.956 -3.859)"/>
      </g>
    </g>
  </g>
</svg>
