<svg xmlns="http://www.w3.org/2000/svg" xmlns:xlink="http://www.w3.org/1999/xlink" width="113" height="113" viewBox="0 0 113 113">
  <defs>
    <filter id="Trazado_982547" x="0" y="0" width="113" height="113" filterUnits="userSpaceOnUse">
      <feOffset dy="3" input="SourceAlpha"/>
      <feGaussianBlur stdDeviation="3" result="blur"/>
      <feFlood flood-opacity="0.161"/>
      <feComposite operator="in" in2="blur"/>
      <feComposite in="SourceGraphic"/>
    </filter>
  </defs>
  <g id="Grupo_1174459" data-name="Grupo 1174459" transform="translate(-193 -606)">
    <g id="Grupo_1171787" data-name="Grupo 1171787" transform="translate(2.486 -3418)">
      <g id="Grupo_1167986" data-name="Grupo 1167986" transform="translate(199.514 4030)">
        <g id="Grupo_1167464" data-name="Grupo 1167464">
          <g id="Grupo_1164308" data-name="Grupo 1164308" transform="translate(0)">
            <g id="Grupo_1163948" data-name="Grupo 1163948">
              <g id="Grupo_1158168" data-name="Grupo 1158168">
                <g id="Grupo_1152576" data-name="Grupo 1152576">
                  <g id="Grupo_1148633" data-name="Grupo 1148633">
                    <g id="Grupo_1148525" data-name="Grupo 1148525">
                      <g transform="matrix(1, 0, 0, 1, -9, -6)" filter="url(#Trazado_982547)">
                        <g id="Trazado_982547-2" data-name="Trazado 982547" transform="translate(9 6)" fill="#f2f7f5">
                          <path d="M 47.5 93.5 C 41.28937149047852 93.5 35.26533508300781 92.28397369384766 29.59518623352051 89.88570404052734 C 24.11771965026855 87.56893157958984 19.19813346862793 84.25196075439453 14.97309303283691 80.02691650390625 C 10.74804019927979 75.80186462402344 7.431066513061523 70.88229370117188 5.114293098449707 65.40481567382812 C 2.716026782989502 59.73468017578125 1.5 53.71062850952148 1.5 47.5 C 1.5 41.28937149047852 2.716026782989502 35.26533508300781 5.114293098449707 29.59518623352051 C 7.431066513061523 24.11771965026855 10.74804019927979 19.19813346862793 14.97309303283691 14.97309303283691 C 19.19813346862793 10.74804019927979 24.11771965026855 7.431066513061523 29.59518623352051 5.114293098449707 C 35.26533508300781 2.716026782989502 41.28937149047852 1.5 47.5 1.5 C 53.71062850952148 1.5 59.73468017578125 2.716026782989502 65.40481567382812 5.114293098449707 C 70.88229370117188 7.431066513061523 75.80186462402344 10.74804019927979 80.02691650390625 14.97309303283691 C 84.25196075439453 19.19813346862793 87.56893157958984 24.11771965026855 89.88570404052734 29.59518623352051 C 92.28397369384766 35.26533508300781 93.5 41.28937149047852 93.5 47.5 C 93.5 53.71062850952148 92.28397369384766 59.73468017578125 89.88570404052734 65.40481567382812 C 87.56893157958984 70.88229370117188 84.25196075439453 75.80186462402344 80.02691650390625 80.02691650390625 C 75.80186462402344 84.25196075439453 70.88229370117188 87.56893157958984 65.40481567382812 89.88570404052734 C 59.73468017578125 92.28397369384766 53.71062850952148 93.5 47.5 93.5 Z" stroke="none"/>
                          <path d="M 47.5 3 C 41.49121475219727 3 35.66376876831055 4.176155090332031 30.17950439453125 6.495796203613281 C 24.88084411621094 8.736953735351562 20.12152099609375 11.94598388671875 16.03375244140625 16.03375244140625 C 11.94598388671875 20.12152099609375 8.736953735351562 24.88084411621094 6.495796203613281 30.17950439453125 C 4.176155090332031 35.66376876831055 3 41.49121475219727 3 47.5 C 3 53.50878524780273 4.176155090332031 59.33623123168945 6.495796203613281 64.82049560546875 C 8.736953735351562 70.11915588378906 11.94598388671875 74.87847900390625 16.03375244140625 78.96624755859375 C 20.12152099609375 83.05401611328125 24.88084411621094 86.26304626464844 30.17950439453125 88.50419616699219 C 35.66376876831055 90.82384490966797 41.49121475219727 92 47.5 92 C 53.50878524780273 92 59.33623123168945 90.82384490966797 64.82049560546875 88.50419616699219 C 70.11915588378906 86.26304626464844 74.87847900390625 83.05401611328125 78.96624755859375 78.96624755859375 C 83.05401611328125 74.87847900390625 86.26304626464844 70.11915588378906 88.50419616699219 64.82049560546875 C 90.82384490966797 59.33623123168945 92 53.50878524780273 92 47.5 C 92 41.49121475219727 90.82384490966797 35.66376876831055 88.50419616699219 30.17950439453125 C 86.26304626464844 24.88084411621094 83.05401611328125 20.12152099609375 78.96624755859375 16.03375244140625 C 74.87847900390625 11.94598388671875 70.11915588378906 8.736953735351562 64.82049560546875 6.495796203613281 C 59.33623123168945 4.176155090332031 53.50878524780273 3 47.5 3 M 47.5 0 C 73.7335205078125 0 95 21.2664794921875 95 47.5 C 95 73.7335205078125 73.7335205078125 95 47.5 95 C 21.2664794921875 95 0 73.7335205078125 0 47.5 C 0 21.2664794921875 21.2664794921875 0 47.5 0 Z" stroke="none" fill="#4a665c"/>
                        </g>
                      </g>
                    </g>
                  </g>
                </g>
              </g>
            </g>
          </g>
        </g>
      </g>
    </g>
    <g id="target" transform="translate(216 626.001)">
      <g id="Grupo_1174458" data-name="Grupo 1174458" transform="translate(0.987 1.274)">
        <circle id="Elipse_12063" data-name="Elipse 12063" cx="28.428" cy="28.428" r="28.428" transform="translate(0 8.267)" fill="#fd646f"/>
        <path id="Trazado_1027592" data-name="Trazado 1027592" d="M110.9,147.473a28.426,28.426,0,0,1-49.8,18.741A28.426,28.426,0,0,0,101.214,126.1,28.354,28.354,0,0,1,110.9,147.473Z" transform="translate(-54.046 -110.779)" fill="#fc4755"/>
        <circle id="Elipse_12064" data-name="Elipse 12064" cx="21.452" cy="21.452" r="21.452" transform="translate(6.975 15.242)" fill="#f5f5f5"/>
        <path id="Trazado_1027593" data-name="Trazado 1027593" d="M136.551,180.1A21.453,21.453,0,0,1,98.67,193.9,21.454,21.454,0,0,0,128.9,163.67,21.413,21.413,0,0,1,136.551,180.1Z" transform="translate(-86.671 -143.404)" fill="#e6e6e6"/>
        <circle id="Elipse_12065" data-name="Elipse 12065" cx="14.477" cy="14.477" r="14.477" transform="translate(13.951 22.217)" fill="#fd646f"/>
        <path id="Trazado_1027594" data-name="Trazado 1027594" d="M162.305,212.828a14.478,14.478,0,0,1-25.945,8.836,14.478,14.478,0,0,0,20.3-20.3A14.452,14.452,0,0,1,162.305,212.828Z" transform="translate(-119.401 -176.134)" fill="#fc4755"/>
        <circle id="Elipse_12066" data-name="Elipse 12066" cx="7.37" cy="7.37" r="7.37" transform="translate(21.057 29.324)" fill="#f5f5f5"/>
        <path id="Trazado_1027595" data-name="Trazado 1027595" d="M372.145,338.99a28.228,28.228,0,0,1-2.1,4.684l-6.346-2.96a21.232,21.232,0,0,0,2.074-4.694Z" transform="translate(-316.821 -293.072)" fill="#fc4755"/>
        <path id="Trazado_1027596" data-name="Trazado 1027596" d="M323.735,316.273a21.231,21.231,0,0,1-2.074,4.695L315.29,318a14.336,14.336,0,0,0,2.027-4.717Z" transform="translate(-274.782 -273.324)" fill="#e6e6e6"/>
        <path id="Trazado_1027597" data-name="Trazado 1027597" d="M273.88,292.543a14.335,14.335,0,0,1-2.027,4.717l-6.583-3.069a7.346,7.346,0,0,0,1.871-4.791Z" transform="translate(-231.345 -252.587)" fill="#fc4755"/>
        <path id="Trazado_1027598" data-name="Trazado 1027598" d="M216.678,269.757a7.347,7.347,0,0,1-1.872,4.791l-6.166-2.876A2.564,2.564,0,0,1,207.3,268.5c.029-.08.061-.161.1-.241a2.567,2.567,0,0,1,3.41-1.241Z" transform="translate(-180.882 -232.944)" fill="#e6e6e6"/>
        <g id="Grupo_1174457" data-name="Grupo 1174457" transform="translate(26.277)">
          <g id="Grupo_1174455" data-name="Grupo 1174455" transform="translate(21.503 10.699)">
            <path id="Trazado_1027599" data-name="Trazado 1027599" d="M387.675,92.149a.263.263,0,0,1,.143.445l-2.784,2.8-1.708,1.716-4.668,4.688a1.316,1.316,0,0,1-1.147.37l-6.962-1.147,5.214-5.172,1.728-1.714,3.178-3.153Z" transform="translate(-370.549 -90.98)" fill="#50758d"/>
            <path id="Trazado_1027600" data-name="Trazado 1027600" d="M419.44,116.2l-1.708,1.716-7.562-1.261,1.728-1.714Z" transform="translate(-404.955 -111.787)" fill="#2b597f"/>
          </g>
          <g id="Grupo_1174456" data-name="Grupo 1174456" transform="translate(17.035)">
            <path id="Trazado_1027601" data-name="Trazado 1027601" d="M347.857,17.347l-3.163,3.094-1.72,1.683-5.2,5.084-1.16-7.051a1.316,1.316,0,0,1,.368-1.144l4.687-4.692,1.715-1.717,2.837-2.839a.263.263,0,0,1,.446.145Z" transform="translate(-336.6 -9.687)" fill="#50758d"/>
            <path id="Trazado_1027602" data-name="Trazado 1027602" d="M378.162,39.687l-1.72,1.683-1.3-7.8,1.715-1.718Z" transform="translate(-370.068 -28.933)" fill="#2b597f"/>
          </g>
          <path id="Trazado_1027603" data-name="Trazado 1027603" d="M241.468,47.722a2.555,2.555,0,0,1-.751,1.814L211.54,78.712a2.564,2.564,0,0,1-3.436.174c-.066-.054-.13-.112-.192-.174a2.566,2.566,0,0,1,0-3.628l29.176-29.176a2.564,2.564,0,0,1,3.628,0c.062.062.12.126.174.192A2.556,2.556,0,0,1,241.468,47.722Z" transform="translate(-207.16 -40.487)" fill="#918291"/>
          <path id="Trazado_1027604" data-name="Trazado 1027604" d="M247.694,53.953a2.555,2.555,0,0,1-.751,1.814L217.766,84.943a2.564,2.564,0,0,1-3.436.174L247.116,52.33A2.556,2.556,0,0,1,247.694,53.953Z" transform="translate(-213.386 -46.718)" fill="#7a6e79"/>
        </g>
      </g>
      <path id="Trazado_1027605" data-name="Trazado 1027605" d="M56.4,24.256a.987.987,0,0,0,.7-.291l10-10.043a.987.987,0,0,0-.537-1.67l-5.375-.9.334-.334A3.554,3.554,0,1,0,56.493,6l-.35.35L55.263.831A.987.987,0,0,0,53.59.289L43.509,10.38a.987.987,0,0,0-.276.858l.137.832a29.444,29.444,0,0,0-29.961,1.216.987.987,0,1,0,1.076,1.655,27.462,27.462,0,0,1,29.3-.354l.582,3.535-1.721,1.721a22.188,22.188,0,0,0-13.231-4.314A22.439,22.439,0,1,0,51.854,37.969q0-.318-.009-.633a.987.987,0,1,0-1.973.054q.008.289.008.579A20.465,20.465,0,1,1,29.415,17.5a20.232,20.232,0,0,1,11.817,3.755l-3.607,3.607a15.463,15.463,0,0,0-23.674,13.1,15.592,15.592,0,0,0,.3,3.04.987.987,0,0,0,1.936-.386A13.5,13.5,0,0,1,29.415,24.479,13.4,13.4,0,0,1,36.188,26.3l-3.842,3.842A8.358,8.358,0,1,0,37.31,35.23l3.868-3.868A13.5,13.5,0,0,1,17.642,44.594a.987.987,0,0,0-1.723.963A15.474,15.474,0,1,0,42.62,29.92l3.614-3.614a20.22,20.22,0,0,1,3.074,6.837.987.987,0,1,0,1.919-.464,22.189,22.189,0,0,0-3.578-7.788l1.77-1.77,3.429.564a27.443,27.443,0,1,1-41.791-6.112.987.987,0,1,0-1.321-1.467A29.41,29.41,0,1,0,55.359,24.1l.879.145a.986.986,0,0,0,.16.013Zm7.949-10.371-2.29,2.3L57.17,15.37l2.3-2.3ZM57.889,7.392a1.579,1.579,0,1,1,2.233,2.234L30.947,38.8a1.579,1.579,0,0,1-2.233-2.234ZM53.619,3.054l.8,5.017-2.3,2.3-.831-4.984Zm-8.355,8.363,4.307-4.312.831,4.982-4.317,4.317ZM35.8,37.969a6.378,6.378,0,1,1-5.036-6.24l-3.444,3.444A3.554,3.554,0,0,0,32.343,40.2L35.7,36.843A6.434,6.434,0,0,1,35.8,37.969ZM51.137,21.4l4.317-4.317,4.894.816-4.292,4.311Z" transform="translate(0 0)"/>
    </g>
  </g>
</svg>
