<svg xmlns="http://www.w3.org/2000/svg" xmlns:xlink="http://www.w3.org/1999/xlink" width="113" height="113" viewBox="0 0 113 113">
  <defs>
    <filter id="Trazado_982547" x="0" y="0" width="113" height="113" filterUnits="userSpaceOnUse">
      <feOffset dy="3" input="SourceAlpha"/>
      <feGaussianBlur stdDeviation="3" result="blur"/>
      <feFlood flood-opacity="0.161"/>
      <feComposite operator="in" in2="blur"/>
      <feComposite in="SourceGraphic"/>
    </filter>
  </defs>
  <g id="Grupo_1174478" data-name="Grupo 1174478" transform="translate(-613 -606)">
    <g id="Grupo_1172086" data-name="Grupo 1172086" transform="translate(422.486 -3418)">
      <g id="Grupo_1167986" data-name="Grupo 1167986" transform="translate(199.514 4030)">
        <g id="Grupo_1167464" data-name="Grupo 1167464">
          <g id="Grupo_1164308" data-name="Grupo 1164308" transform="translate(0)">
            <g id="Grupo_1163948" data-name="Grupo 1163948">
              <g id="Grupo_1158168" data-name="Grupo 1158168">
                <g id="Grupo_1152576" data-name="Grupo 1152576">
                  <g id="Grupo_1148633" data-name="Grupo 1148633">
                    <g id="Grupo_1148525" data-name="Grupo 1148525">
                      <g transform="matrix(1, 0, 0, 1, -9, -6)" filter="url(#Trazado_982547)">
                        <g id="Trazado_982547-2" data-name="Trazado 982547" transform="translate(9 6)" fill="#f2f7f5">
                          <path d="M 47.5 93.5 C 41.28937149047852 93.5 35.26533508300781 92.28397369384766 29.59518623352051 89.88570404052734 C 24.11771965026855 87.56893157958984 19.19813346862793 84.25196075439453 14.97309303283691 80.02691650390625 C 10.74804019927979 75.80186462402344 7.431066513061523 70.88229370117188 5.114293098449707 65.40481567382812 C 2.716026782989502 59.73468017578125 1.5 53.71062850952148 1.5 47.5 C 1.5 41.28937149047852 2.716026782989502 35.26533508300781 5.114293098449707 29.59518623352051 C 7.431066513061523 24.11771965026855 10.74804019927979 19.19813346862793 14.97309303283691 14.97309303283691 C 19.19813346862793 10.74804019927979 24.11771965026855 7.431066513061523 29.59518623352051 5.114293098449707 C 35.26533508300781 2.716026782989502 41.28937149047852 1.5 47.5 1.5 C 53.71062850952148 1.5 59.73468017578125 2.716026782989502 65.40481567382812 5.114293098449707 C 70.88229370117188 7.431066513061523 75.80186462402344 10.74804019927979 80.02691650390625 14.97309303283691 C 84.25196075439453 19.19813346862793 87.56893157958984 24.11771965026855 89.88570404052734 29.59518623352051 C 92.28397369384766 35.26533508300781 93.5 41.28937149047852 93.5 47.5 C 93.5 53.71062850952148 92.28397369384766 59.73468017578125 89.88570404052734 65.40481567382812 C 87.56893157958984 70.88229370117188 84.25196075439453 75.80186462402344 80.02691650390625 80.02691650390625 C 75.80186462402344 84.25196075439453 70.88229370117188 87.56893157958984 65.40481567382812 89.88570404052734 C 59.73468017578125 92.28397369384766 53.71062850952148 93.5 47.5 93.5 Z" stroke="none"/>
                          <path d="M 47.5 3 C 41.49121475219727 3 35.66376876831055 4.176155090332031 30.17950439453125 6.495796203613281 C 24.88084411621094 8.736953735351562 20.12152099609375 11.94598388671875 16.03375244140625 16.03375244140625 C 11.94598388671875 20.12152099609375 8.736953735351562 24.88084411621094 6.495796203613281 30.17950439453125 C 4.176155090332031 35.66376876831055 3 41.49121475219727 3 47.5 C 3 53.50878524780273 4.176155090332031 59.33623123168945 6.495796203613281 64.82049560546875 C 8.736953735351562 70.11915588378906 11.94598388671875 74.87847900390625 16.03375244140625 78.96624755859375 C 20.12152099609375 83.05401611328125 24.88084411621094 86.26304626464844 30.17950439453125 88.50419616699219 C 35.66376876831055 90.82384490966797 41.49121475219727 92 47.5 92 C 53.50878524780273 92 59.33623123168945 90.82384490966797 64.82049560546875 88.50419616699219 C 70.11915588378906 86.26304626464844 74.87847900390625 83.05401611328125 78.96624755859375 78.96624755859375 C 83.05401611328125 74.87847900390625 86.26304626464844 70.11915588378906 88.50419616699219 64.82049560546875 C 90.82384490966797 59.33623123168945 92 53.50878524780273 92 47.5 C 92 41.49121475219727 90.82384490966797 35.66376876831055 88.50419616699219 30.17950439453125 C 86.26304626464844 24.88084411621094 83.05401611328125 20.12152099609375 78.96624755859375 16.03375244140625 C 74.87847900390625 11.94598388671875 70.11915588378906 8.736953735351562 64.82049560546875 6.495796203613281 C 59.33623123168945 4.176155090332031 53.50878524780273 3 47.5 3 M 47.5 0 C 73.7335205078125 0 95 21.2664794921875 95 47.5 C 95 73.7335205078125 73.7335205078125 95 47.5 95 C 21.2664794921875 95 0 73.7335205078125 0 47.5 C 0 21.2664794921875 21.2664794921875 0 47.5 0 Z" stroke="none" fill="#4a665c"/>
                        </g>
                      </g>
                    </g>
                  </g>
                </g>
              </g>
            </g>
          </g>
        </g>
      </g>
    </g>
    <g id="process" transform="translate(639 625.745)">
      <g id="Grupo_1174461" data-name="Grupo 1174461" transform="translate(0.892 14.132)">
        <path id="Trazado_1027606" data-name="Trazado 1027606" d="M26.579,140.995a6.982,6.982,0,0,1,6.982-6.982h.023V117.68l-1.406,1.406a.683.683,0,0,1-.9.059,12.123,12.123,0,0,1-2.074-2.074.683.683,0,0,1,.059-.9l1.733-1.733a.687.687,0,0,0,.118-.807,8.5,8.5,0,0,1-.592-1.431.687.687,0,0,0-.654-.487H27.413a.683.683,0,0,1-.679-.6,12.144,12.144,0,0,1-.089-1.467c0-.023,0-.045,0-.068H13.287a1.189,1.189,0,0,0-.841.348l-4.6,4.6a1.189,1.189,0,0,0-.348.841v25.694a1.189,1.189,0,0,0,1.189,1.189h18A7.013,7.013,0,0,1,26.579,140.995Z" transform="translate(-7.5 -109.581)" fill="#fef1da"/>
        <g id="Grupo_1174460" data-name="Grupo 1174460" transform="translate(0)">
          <path id="Trazado_1027607" data-name="Trazado 1027607" d="M12.433,141.061V115.368a1.189,1.189,0,0,1,.348-.841l4.6-4.6a1.189,1.189,0,0,1,.841-.348H13.287a1.189,1.189,0,0,0-.841.348l-4.6,4.6a1.189,1.189,0,0,0-.348.841v25.694a1.189,1.189,0,0,0,1.189,1.189h4.933A1.189,1.189,0,0,1,12.433,141.061Z" transform="translate(-7.5 -109.581)" fill="#fae2c0"/>
        </g>
      </g>
      <g id="Grupo_1174464" data-name="Grupo 1174464" transform="translate(19.971 38.564)">
        <g id="Grupo_1174462" data-name="Grupo 1174462">
          <circle id="Elipse_12067" data-name="Elipse 12067" cx="6.982" cy="6.982" r="6.982" fill="#05e39c"/>
        </g>
        <g id="Grupo_1174463" data-name="Grupo 1174463" transform="translate(0 0)">
          <path id="Trazado_1027608" data-name="Trazado 1027608" d="M171.981,322.085a6.984,6.984,0,0,1,4.988-6.691,6.982,6.982,0,1,0,0,13.382A6.984,6.984,0,0,1,171.981,322.085Z" transform="translate(-167.993 -315.103)" fill="#0ed290"/>
        </g>
      </g>
      <g id="Grupo_1174470" data-name="Grupo 1174470" transform="translate(20.036 2.146)">
        <g id="Grupo_1174465" data-name="Grupo 1174465" transform="translate(0 0)">
          <path id="Trazado_1027609" data-name="Trazado 1027609" d="M188.3,16.017l1.733-1.733a.683.683,0,0,0,.059-.9,12.123,12.123,0,0,0-2.074-2.074.683.683,0,0,0-.9.059L185.386,13.1a.687.687,0,0,1-.807.118,8.5,8.5,0,0,0-1.431-.592.687.687,0,0,1-.487-.654V9.519a.683.683,0,0,0-.6-.679,12.144,12.144,0,0,0-2.934,0,.682.682,0,0,0-.6.679v2.452a.686.686,0,0,1-.487.654,8.521,8.521,0,0,0-1.431.592.687.687,0,0,1-.807-.118l-1.733-1.733a.683.683,0,0,0-.9-.059,12.124,12.124,0,0,0-2.074,2.074.683.683,0,0,0,.059.9l1.733,1.733a.687.687,0,0,1,.118.807,8.5,8.5,0,0,0-.592,1.431.687.687,0,0,1-.654.487h-2.452a.683.683,0,0,0-.679.6,12.146,12.146,0,0,0,0,2.934.682.682,0,0,0,.679.6h2.452a.686.686,0,0,1,.654.487,8.519,8.519,0,0,0,.592,1.431.687.687,0,0,1-.118.807l-1.733,1.733a.683.683,0,0,0-.059.9,12.124,12.124,0,0,0,2.074,2.074.683.683,0,0,0,.9-.059l1.733-1.733a.687.687,0,0,1,.807-.118,8.5,8.5,0,0,0,1.431.592.687.687,0,0,1,.487.654V32.09a.683.683,0,0,0,.6.679,12.144,12.144,0,0,0,2.934,0,.682.682,0,0,0,.6-.679V29.638a.686.686,0,0,1,.487-.654,8.519,8.519,0,0,0,1.431-.592.687.687,0,0,1,.807.118l1.733,1.733a.683.683,0,0,0,.9.059,12.124,12.124,0,0,0,2.074-2.074.683.683,0,0,0-.059-.9L188.3,25.593a.687.687,0,0,1-.118-.807,8.5,8.5,0,0,0,.592-1.431.686.686,0,0,1,.654-.487h2.452a.683.683,0,0,0,.679-.6,12.146,12.146,0,0,0,0-2.934.682.682,0,0,0-.679-.6h-2.452a.686.686,0,0,1-.654-.487,8.519,8.519,0,0,0-.592-1.431A.687.687,0,0,1,188.3,16.017Z" transform="translate(-168.544 -8.751)" fill="#7ca1b1"/>
        </g>
        <g id="Grupo_1174466" data-name="Grupo 1174466" transform="translate(0 0)">
          <path id="Trazado_1027610" data-name="Trazado 1027610" d="M178.679,26.8a6.3,6.3,0,0,1,0-11.992,9.188,9.188,0,0,1,4-2.692.673.673,0,0,1-.018-.146V9.519a.683.683,0,0,0-.6-.679,12.145,12.145,0,0,0-2.934,0,.682.682,0,0,0-.6.679v2.452a.686.686,0,0,1-.487.654,8.52,8.52,0,0,0-1.431.592.687.687,0,0,1-.807-.118l-1.733-1.733a.683.683,0,0,0-.9-.059,12.124,12.124,0,0,0-2.074,2.074.683.683,0,0,0,.059.9l1.733,1.733a.687.687,0,0,1,.118.807,8.5,8.5,0,0,0-.592,1.431.687.687,0,0,1-.654.487h-2.452a.683.683,0,0,0-.679.6,12.146,12.146,0,0,0,0,2.934.682.682,0,0,0,.679.6h2.452a.686.686,0,0,1,.654.487,8.519,8.519,0,0,0,.592,1.431.687.687,0,0,1-.118.807l-1.733,1.733a.683.683,0,0,0-.059.9,12.124,12.124,0,0,0,2.074,2.074.683.683,0,0,0,.9-.059l1.733-1.733a.687.687,0,0,1,.807-.118,8.5,8.5,0,0,0,1.431.592.687.687,0,0,1,.487.654V32.09a.683.683,0,0,0,.6.679,12.144,12.144,0,0,0,2.934,0,.682.682,0,0,0,.6-.679V29.638a.673.673,0,0,1,.018-.146A9.184,9.184,0,0,1,178.679,26.8Z" transform="translate(-168.544 -8.751)" fill="#678d98"/>
        </g>
        <g id="Grupo_1174467" data-name="Grupo 1174467" transform="translate(6.649 6.649)">
          <circle id="Elipse_12068" data-name="Elipse 12068" cx="5.404" cy="5.404" r="5.404" transform="translate(0 0)" fill="#3e5959"/>
        </g>
        <g id="Grupo_1174468" data-name="Grupo 1174468" transform="translate(6.649 6.649)">
          <path id="Trazado_1027611" data-name="Trazado 1027611" d="M227.51,70.09A5.406,5.406,0,0,1,231.4,64.9a5.4,5.4,0,1,0,0,10.374A5.406,5.406,0,0,1,227.51,70.09Z" transform="translate(-224.476 -64.685)" fill="#384949"/>
        </g>
        <g id="Grupo_1174469" data-name="Grupo 1174469" transform="translate(10.177 10.177)">
          <circle id="Elipse_12069" data-name="Elipse 12069" cx="1.876" cy="1.876" r="1.876" transform="translate(0 0)" fill="#fff"/>
        </g>
      </g>
      <g id="Grupo_1174471" data-name="Grupo 1174471" transform="translate(38.438 30.714)">
        <path id="Trazado_1027612" data-name="Trazado 1027612" d="M344.281,256.757H323.934a.594.594,0,0,1-.594-.594v-6.5a.594.594,0,0,1,.594-.594h20.347a.594.594,0,0,1,.594.594v6.5A.594.594,0,0,1,344.281,256.757Z" transform="translate(-323.34 -249.066)" fill="#01d0fb"/>
      </g>
      <g id="Grupo_1174472" data-name="Grupo 1174472" transform="translate(38.438 30.714)">
        <path id="Trazado_1027613" data-name="Trazado 1027613" d="M327.341,256.163v-6.5a.594.594,0,0,1,.594-.594h-4a.594.594,0,0,0-.594.594v6.5a.594.594,0,0,0,.594.594h4A.594.594,0,0,1,327.341,256.163Z" transform="translate(-323.34 -249.066)" fill="#01c0fa"/>
      </g>
      <g id="Grupo_1174473" data-name="Grupo 1174473" transform="translate(38.438 41.976)">
        <path id="Trazado_1027614" data-name="Trazado 1027614" d="M344.281,351.5H323.934a.594.594,0,0,1-.594-.594v-6.5a.594.594,0,0,1,.594-.594h20.347a.594.594,0,0,1,.594.594v6.5A.594.594,0,0,1,344.281,351.5Z" transform="translate(-323.34 -343.806)" fill="#fed402"/>
      </g>
      <g id="Grupo_1174474" data-name="Grupo 1174474" transform="translate(38.438 41.976)">
        <path id="Trazado_1027615" data-name="Trazado 1027615" d="M327.341,350.9v-6.5a.6.6,0,0,1,.594-.594h-4a.594.594,0,0,0-.594.594v6.5a.594.594,0,0,0,.594.594h4A.6.6,0,0,1,327.341,350.9Z" transform="translate(-323.34 -343.806)" fill="#fac600"/>
      </g>
      <g id="Grupo_1174475" data-name="Grupo 1174475" transform="translate(38.438 53.238)">
        <path id="Trazado_1027616" data-name="Trazado 1027616" d="M344.281,446.236H323.934a.6.6,0,0,1-.594-.594v-6.5a.6.6,0,0,1,.594-.594h20.347a.594.594,0,0,1,.594.594v6.5A.594.594,0,0,1,344.281,446.236Z" transform="translate(-323.34 -438.545)" fill="#fd5426"/>
      </g>
      <g id="Grupo_1174476" data-name="Grupo 1174476" transform="translate(38.438 53.238)">
        <path id="Trazado_1027617" data-name="Trazado 1027617" d="M327.341,445.642v-6.5a.6.6,0,0,1,.594-.594h-4a.6.6,0,0,0-.594.594v6.5a.6.6,0,0,0,.594.594h4A.594.594,0,0,1,327.341,445.642Z" transform="translate(-323.34 -438.545)" fill="#ef4424"/>
      </g>
      <g id="Grupo_1174477" data-name="Grupo 1174477" transform="translate(0 1.255)">
        <path id="Trazado_1027618" data-name="Trazado 1027618" d="M403.32,109.466v.179a.892.892,0,0,0,1.783,0v-.179a2.678,2.678,0,0,0-.628-1.722.892.892,0,1,0-1.364,1.148A.882.882,0,0,1,403.32,109.466Z" transform="translate(-355.007 -94.806)"/>
        <path id="Trazado_1027619" data-name="Trazado 1027619" d="M407.312,180.589a.892.892,0,0,0-.892.892v1.426a.892.892,0,1,0,1.783,0v-1.426A.891.891,0,0,0,407.312,180.589Z" transform="translate(-358.106 -159.27)"/>
        <path id="Trazado_1027620" data-name="Trazado 1027620" d="M408.2,144.481a.892.892,0,1,0-1.783,0v1.427a.892.892,0,0,0,1.783,0Z" transform="translate(-358.106 -126.669)"/>
        <path id="Trazado_1027621" data-name="Trazado 1027621" d="M274.818,463.4h-1.426a.892.892,0,1,0,0,1.783h1.426a.892.892,0,1,0,0-1.783Z" transform="translate(-240.106 -408.457)"/>
        <path id="Trazado_1027622" data-name="Trazado 1027622" d="M237.818,463.4h-1.426a.892.892,0,1,0,0,1.783h1.426a.892.892,0,1,0,0-1.783Z" transform="translate(-207.505 -408.457)"/>
        <path id="Trazado_1027623" data-name="Trazado 1027623" d="M200.818,463.4h-1.427a.892.892,0,1,0,0,1.783h1.427a.892.892,0,1,0,0-1.783Z" transform="translate(-174.903 -408.457)"/>
        <path id="Trazado_1027624" data-name="Trazado 1027624" d="M163.818,463.4h-1.427a.892.892,0,1,0,0,1.783h1.427a.892.892,0,1,0,0-1.783Z" transform="translate(-142.301 -408.457)"/>
        <path id="Trazado_1027625" data-name="Trazado 1027625" d="M130.749,454.87a.9.9,0,0,1-.483-.5.892.892,0,1,0-1.663.643,2.691,2.691,0,0,0,1.447,1.5.892.892,0,1,0,.7-1.64Z" transform="translate(-113.262 -400.003)"/>
        <path id="Trazado_1027626" data-name="Trazado 1027626" d="M128.432,420.137a.892.892,0,0,0,.892-.892v-1.426a.892.892,0,1,0-1.783,0v1.426A.892.892,0,0,0,128.432,420.137Z" transform="translate(-112.378 -367.513)"/>
        <path id="Trazado_1027627" data-name="Trazado 1027627" d="M70.956,172.244H58.591a.892.892,0,1,0,0,1.783H70.956a.892.892,0,1,0,0-1.783Z" transform="translate(-50.84 -151.917)"/>
        <path id="Trazado_1027628" data-name="Trazado 1027628" d="M70.956,208.582H58.591a.892.892,0,0,0,0,1.783H70.956a.892.892,0,0,0,0-1.783Z" transform="translate(-50.84 -183.936)"/>
        <path id="Trazado_1027629" data-name="Trazado 1027629" d="M70.956,244.756H58.591a.892.892,0,1,0,0,1.783H70.956a.892.892,0,0,0,0-1.783Z" transform="translate(-50.84 -215.809)"/>
        <path id="Trazado_1027630" data-name="Trazado 1027630" d="M71.847,282.148a.892.892,0,0,0-.892-.892H58.591a.892.892,0,1,0,0,1.783H70.956A.892.892,0,0,0,71.847,282.148Z" transform="translate(-50.84 -247.97)"/>
        <path id="Trazado_1027631" data-name="Trazado 1027631" d="M58.591,317.593a.892.892,0,1,0,0,1.783h5.543a.892.892,0,1,0,0-1.783Z" transform="translate(-50.84 -279.988)"/>
        <path id="Trazado_1027632" data-name="Trazado 1027632" d="M195.652,357.787a.891.891,0,0,0,1.261,0l3.6-3.6a.892.892,0,1,0-1.261-1.261l-2.969,2.969-2.082-2.082a.892.892,0,0,0-1.261,1.261Z" transform="translate(-169.774 -310.892)"/>
        <path id="Trazado_1027633" data-name="Trazado 1027633" d="M40.062,24.4a13.028,13.028,0,0,0,2.226-2.227,1.575,1.575,0,0,0-.13-2.082l-1.625-1.625a9.452,9.452,0,0,0,.543-1.311h2.3a1.575,1.575,0,0,0,1.564-1.38c.03-.249.053-.5.069-.751h1a.892.892,0,1,0,0-1.783H45c-.015-.206-.034-.412-.058-.616a1.575,1.575,0,0,0-1.564-1.38h-2.3a9.447,9.447,0,0,0-.543-1.311l1.625-1.625a1.575,1.575,0,0,0,.13-2.082A13.035,13.035,0,0,0,40.062,4a1.574,1.574,0,0,0-2.082.13L36.355,5.756a9.432,9.432,0,0,0-1.311-.543v-2.3a1.575,1.575,0,0,0-1.38-1.564,13.093,13.093,0,0,0-3.149,0,1.575,1.575,0,0,0-1.38,1.564v2.3a9.432,9.432,0,0,0-1.311.543L26.2,4.131A1.575,1.575,0,0,0,24.117,4a13.023,13.023,0,0,0-2.226,2.226,1.575,1.575,0,0,0,.13,2.082l1.625,1.625a9.453,9.453,0,0,0-.543,1.311H20.8a1.575,1.575,0,0,0-1.564,1.38c-.025.2-.044.41-.059.616H6.678a2.067,2.067,0,0,0-1.471.609l-4.6,4.6A2.067,2.067,0,0,0,0,19.919V45.612a2.083,2.083,0,0,0,2.08,2.08H15.162v.9a.892.892,0,0,0,1.783,0v-.9h2.434a7.872,7.872,0,1,0,8.488-9.965v-4.05a.892.892,0,0,0-1.783,0v4.044a7.884,7.884,0,0,0-7,7.824c0,.122,0,.243.009.364H2.08a.3.3,0,0,1-.3-.3V19.919a.3.3,0,0,1,.087-.21l4.6-4.6a.3.3,0,0,1,.21-.087H19.171c.016.251.039.5.069.751a1.575,1.575,0,0,0,1.564,1.38h2.3a9.432,9.432,0,0,0,.543,1.311L22.021,20.09a1.575,1.575,0,0,0-.13,2.082A13.031,13.031,0,0,0,24.117,24.4a1.574,1.574,0,0,0,1.966-.026v5.144a.892.892,0,0,0,1.783,0V22.664a9.431,9.431,0,0,0,1.268.522v2.3a1.575,1.575,0,0,0,1.38,1.564,13.043,13.043,0,0,0,3.149,0,1.575,1.575,0,0,0,1.38-1.564v-2.3a9.446,9.446,0,0,0,1.311-.543l1.625,1.625a1.576,1.576,0,0,0,2.082.13ZM26.952,39.455a6.09,6.09,0,1,1-6.09,6.09A6.1,6.1,0,0,1,26.952,39.455ZM35.656,21a7.643,7.643,0,0,1-1.281.53,1.572,1.572,0,0,0-1.114,1.505V25.3a11.3,11.3,0,0,1-2.343,0V23.033A1.572,1.572,0,0,0,29.8,21.528,7.632,7.632,0,0,1,28.523,21a1.573,1.573,0,0,0-1.852.277l-1.6,1.6a11.251,11.251,0,0,1-1.657-1.657l1.6-1.6a1.573,1.573,0,0,0,.277-1.852,7.645,7.645,0,0,1-.53-1.281,1.572,1.572,0,0,0-1.505-1.114H20.988a11.259,11.259,0,0,1,0-2.343h2.267a1.572,1.572,0,0,0,1.505-1.114,7.653,7.653,0,0,1,.53-1.281,1.573,1.573,0,0,0-.277-1.852l-1.6-1.6a11.245,11.245,0,0,1,1.657-1.657l1.6,1.6a1.573,1.573,0,0,0,1.852.277,7.652,7.652,0,0,1,1.281-.53,1.572,1.572,0,0,0,1.114-1.505V3.1a11.3,11.3,0,0,1,2.343,0V5.366a1.572,1.572,0,0,0,1.114,1.505,7.64,7.64,0,0,1,1.281.53,1.573,1.573,0,0,0,1.852-.277l1.6-1.6a11.245,11.245,0,0,1,1.657,1.657l-1.6,1.6h0a1.572,1.572,0,0,0-.277,1.852,7.636,7.636,0,0,1,.53,1.281,1.572,1.572,0,0,0,1.505,1.114h2.267a11.237,11.237,0,0,1,0,2.343H40.923a1.572,1.572,0,0,0-1.505,1.114,7.661,7.661,0,0,1-.53,1.281,1.573,1.573,0,0,0,.277,1.852l1.6,1.6a11.25,11.25,0,0,1-1.657,1.657l-1.6-1.6A1.572,1.572,0,0,0,35.656,21Z" transform="translate(0 -1.255)"/>
        <path id="Trazado_1027634" data-name="Trazado 1027634" d="M227.853,60.478a.892.892,0,0,0-.453,1.177,4.511,4.511,0,1,1-2.523-2.392.892.892,0,0,0,.634-1.667,6.3,6.3,0,1,0,3.519,3.335A.892.892,0,0,0,227.853,60.478Z" transform="translate(-191.184 -50.536)"/>
        <path id="Trazado_1027635" data-name="Trazado 1027635" d="M249.423,86.864a2.768,2.768,0,1,0,2.768,2.768A2.771,2.771,0,0,0,249.423,86.864Zm0,3.753a.985.985,0,1,1,.985-.985A.986.986,0,0,1,249.423,90.617Z" transform="translate(-217.333 -76.687)"/>
        <path id="Trazado_1027636" data-name="Trazado 1027636" d="M332.087,229.914a1.488,1.488,0,0,0,1.486-1.486v-6.5a1.488,1.488,0,0,0-1.486-1.486h-9.459a.886.886,0,0,0,.177-.532v-1.427a.892.892,0,1,0-1.783,0v1.427a.886.886,0,0,0,.178.532H311.74a1.488,1.488,0,0,0-1.486,1.486v6.5a1.488,1.488,0,0,0,1.486,1.486h9.282V231.7H311.74a1.488,1.488,0,0,0-1.486,1.486v6.5a1.488,1.488,0,0,0,1.486,1.486h9.282v1.788H311.74a1.488,1.488,0,0,0-1.486,1.486v2.371a.89.89,0,0,0,0,1.76v2.371a1.488,1.488,0,0,0,1.486,1.486h20.347a1.488,1.488,0,0,0,1.486-1.486v-6.5a1.488,1.488,0,0,0-1.486-1.486H322.8v-1.788h2.328a.892.892,0,0,0,0-1.783h-13.1v-5.908h19.753v5.908h-2.5a.892.892,0,1,0,0,1.783h2.794a1.488,1.488,0,0,0,1.486-1.486v-6.5a1.488,1.488,0,0,0-1.486-1.486H322.8v-1.788Zm-.3,14.833v5.908H312.037v-5.908Zm-19.753-16.616v-5.908h19.753v5.908Z" transform="translate(-272.708 -191.872)"/>
        <path id="Trazado_1027637" data-name="Trazado 1027637" d="M365.392,273.916H352.317a.892.892,0,1,0,0,1.783h13.075a.892.892,0,1,0,0-1.783Z" transform="translate(-309.649 -241.503)"/>
        <path id="Trazado_1027638" data-name="Trazado 1027638" d="M366.283,369.548a.892.892,0,0,0-.892-.892H352.317a.892.892,0,1,0,0,1.783h13.075A.892.892,0,0,0,366.283,369.548Z" transform="translate(-309.649 -324.98)"/>
        <path id="Trazado_1027639" data-name="Trazado 1027639" d="M352.317,465.178h13.075a.892.892,0,1,0,0-1.783H352.317a.892.892,0,1,0,0,1.783Z" transform="translate(-309.649 -408.457)"/>
      </g>
    </g>
  </g>
</svg>
