<svg xmlns="http://www.w3.org/2000/svg" xmlns:xlink="http://www.w3.org/1999/xlink" width="113" height="113" viewBox="0 0 113 113">
  <defs>
    <filter id="Trazado_982547" x="0" y="0" width="113" height="113" filterUnits="userSpaceOnUse">
      <feOffset dy="3" input="SourceAlpha"/>
      <feGaussianBlur stdDeviation="3" result="blur"/>
      <feFlood flood-opacity="0.161"/>
      <feComposite operator="in" in2="blur"/>
      <feComposite in="SourceGraphic"/>
    </filter>
  </defs>
  <g id="Grupo_1174479" data-name="Grupo 1174479" transform="translate(-1033 -606)">
    <g id="Grupo_1172087" data-name="Grupo 1172087" transform="translate(842.486 -3418)">
      <g id="Grupo_1167986" data-name="Grupo 1167986" transform="translate(199.514 4030)">
        <g id="Grupo_1167464" data-name="Grupo 1167464">
          <g id="Grupo_1164308" data-name="Grupo 1164308" transform="translate(0)">
            <g id="Grupo_1163948" data-name="Grupo 1163948">
              <g id="Grupo_1158168" data-name="Grupo 1158168">
                <g id="Grupo_1152576" data-name="Grupo 1152576">
                  <g id="Grupo_1148633" data-name="Grupo 1148633">
                    <g id="Grupo_1148525" data-name="Grupo 1148525">
                      <g transform="matrix(1, 0, 0, 1, -9, -6)" filter="url(#Trazado_982547)">
                        <g id="Trazado_982547-2" data-name="Trazado 982547" transform="translate(9 6)" fill="#f2f7f5">
                          <path d="M 47.5 93.5 C 41.28937149047852 93.5 35.26533508300781 92.28397369384766 29.59518623352051 89.88570404052734 C 24.11771965026855 87.56893157958984 19.19813346862793 84.25196075439453 14.97309303283691 80.02691650390625 C 10.74804019927979 75.80186462402344 7.431066513061523 70.88229370117188 5.114293098449707 65.40481567382812 C 2.716026782989502 59.73468017578125 1.5 53.71062850952148 1.5 47.5 C 1.5 41.28937149047852 2.716026782989502 35.26533508300781 5.114293098449707 29.59518623352051 C 7.431066513061523 24.11771965026855 10.74804019927979 19.19813346862793 14.97309303283691 14.97309303283691 C 19.19813346862793 10.74804019927979 24.11771965026855 7.431066513061523 29.59518623352051 5.114293098449707 C 35.26533508300781 2.716026782989502 41.28937149047852 1.5 47.5 1.5 C 53.71062850952148 1.5 59.73468017578125 2.716026782989502 65.40481567382812 5.114293098449707 C 70.88229370117188 7.431066513061523 75.80186462402344 10.74804019927979 80.02691650390625 14.97309303283691 C 84.25196075439453 19.19813346862793 87.56893157958984 24.11771965026855 89.88570404052734 29.59518623352051 C 92.28397369384766 35.26533508300781 93.5 41.28937149047852 93.5 47.5 C 93.5 53.71062850952148 92.28397369384766 59.73468017578125 89.88570404052734 65.40481567382812 C 87.56893157958984 70.88229370117188 84.25196075439453 75.80186462402344 80.02691650390625 80.02691650390625 C 75.80186462402344 84.25196075439453 70.88229370117188 87.56893157958984 65.40481567382812 89.88570404052734 C 59.73468017578125 92.28397369384766 53.71062850952148 93.5 47.5 93.5 Z" stroke="none"/>
                          <path d="M 47.5 3 C 41.49121475219727 3 35.66376876831055 4.176155090332031 30.17950439453125 6.495796203613281 C 24.88084411621094 8.736953735351562 20.12152099609375 11.94598388671875 16.03375244140625 16.03375244140625 C 11.94598388671875 20.12152099609375 8.736953735351562 24.88084411621094 6.495796203613281 30.17950439453125 C 4.176155090332031 35.66376876831055 3 41.49121475219727 3 47.5 C 3 53.50878524780273 4.176155090332031 59.33623123168945 6.495796203613281 64.82049560546875 C 8.736953735351562 70.11915588378906 11.94598388671875 74.87847900390625 16.03375244140625 78.96624755859375 C 20.12152099609375 83.05401611328125 24.88084411621094 86.26304626464844 30.17950439453125 88.50419616699219 C 35.66376876831055 90.82384490966797 41.49121475219727 92 47.5 92 C 53.50878524780273 92 59.33623123168945 90.82384490966797 64.82049560546875 88.50419616699219 C 70.11915588378906 86.26304626464844 74.87847900390625 83.05401611328125 78.96624755859375 78.96624755859375 C 83.05401611328125 74.87847900390625 86.26304626464844 70.11915588378906 88.50419616699219 64.82049560546875 C 90.82384490966797 59.33623123168945 92 53.50878524780273 92 47.5 C 92 41.49121475219727 90.82384490966797 35.66376876831055 88.50419616699219 30.17950439453125 C 86.26304626464844 24.88084411621094 83.05401611328125 20.12152099609375 78.96624755859375 16.03375244140625 C 74.87847900390625 11.94598388671875 70.11915588378906 8.736953735351562 64.82049560546875 6.495796203613281 C 59.33623123168945 4.176155090332031 53.50878524780273 3 47.5 3 M 47.5 0 C 73.7335205078125 0 95 21.2664794921875 95 47.5 C 95 73.7335205078125 73.7335205078125 95 47.5 95 C 21.2664794921875 95 0 73.7335205078125 0 47.5 C 0 21.2664794921875 21.2664794921875 0 47.5 0 Z" stroke="none" fill="#4a665c"/>
                        </g>
                      </g>
                    </g>
                  </g>
                </g>
              </g>
            </g>
          </g>
        </g>
      </g>
    </g>
    <g id="data-analysis" transform="translate(1058 626.98)">
      <path id="Trazado_1027640" data-name="Trazado 1027640" d="M25,62A22.99,22.99,0,0,1,2,39H25Z" fill="#59d9ff"/>
      <path id="Trazado_1027641" data-name="Trazado 1027641" d="M32,3A29,29,0,0,0,3,32H32Z" fill="#3dcc97"/>
      <path id="Trazado_1027642" data-name="Trazado 1027642" d="M61,32A29,29,0,0,1,32,61V32Z" fill="#ffe18f"/>
      <path id="Trazado_1027643" data-name="Trazado 1027643" d="M32,32H61A29,29,0,0,0,32,3Z" fill="#7390bf"/>
      <path id="Trazado_1027644" data-name="Trazado 1027644" d="M32,3V7A25,25,0,0,0,7,32H3A29,29,0,0,1,32,3Z" fill="#36b385"/>
      <path id="Trazado_1027645" data-name="Trazado 1027645" d="M61,32A29,29,0,0,1,32,61V57A25,25,0,0,0,57,32Z" fill="#ffda73"/>
      <path id="Trazado_1027646" data-name="Trazado 1027646" d="M61,32H57A25,25,0,0,0,32,7V3A29,29,0,0,1,61,32Z" fill="#647da6"/>
      <circle id="Elipse_12070" data-name="Elipse 12070" cx="11" cy="11" r="11" transform="translate(38 4)" fill="#ffda73"/>
      <path id="Trazado_1027647" data-name="Trazado 1027647" d="M25,59v3A22.99,22.99,0,0,1,2,39H5A19.994,19.994,0,0,0,25,59Z" fill="#30c6f2"/>
      <rect id="Rectángulo_414514" data-name="Rectángulo 414514" width="4" height="21" rx="1" transform="translate(11 27) rotate(180)" fill="#24c3f2"/>
      <rect id="Rectángulo_414515" data-name="Rectángulo 414515" width="4" height="14" rx="1" transform="translate(19 27) rotate(180)" fill="#ffda73"/>
      <rect id="Rectángulo_414516" data-name="Rectángulo 414516" width="4" height="9" rx="1" transform="translate(27 27) rotate(180)" fill="#e66d67"/>
      <path id="Trazado_1027648" data-name="Trazado 1027648" d="M40,42h4v7H40Z" fill="#e66d67"/>
      <path id="Trazado_1027649" data-name="Trazado 1027649" d="M49,46h4v7H49Z" fill="#36b385"/>
      <path id="Trazado_1027650" data-name="Trazado 1027650" d="M58,42h4v7H58Z" fill="#e66d67"/>
      <path id="Trazado_1027651" data-name="Trazado 1027651" d="M25,63a1,1,0,0,0,1-1V39a1,1,0,0,0-1-1H2a1,1,0,0,0-1,1A24.032,24.032,0,0,0,25,63Zm-9.44-4.15L24,50.41V60.97a21.77,21.77,0,0,1-8.44-2.13ZM13.58,40l-1.29,1.29L13.7,42.7l2.71-2.71h6.17l-9.33,9.33,1.41,1.41,9.33-9.33v6.17L13.71,57.85a21.792,21.792,0,0,1-3.53-2.64l2.64-2.64-1.41-1.41L8.77,53.8a22.7,22.7,0,0,1-2.64-3.53L11.7,44.7l-1.41-1.41L5.15,48.43a21.948,21.948,0,0,1-2.13-8.44H13.59Z"/>
      <path id="Trazado_1027652" data-name="Trazado 1027652" d="M3,33H31V61a1,1,0,0,0,1,1,29.886,29.886,0,0,0,16.55-4.97l-1.11-1.67a27.846,27.846,0,0,1-14.45,4.62V33H59.95a29.034,29.034,0,0,1-.37,3.83l1.97.34A31.02,31.02,0,0,0,61.99,32a29.706,29.706,0,0,0-2.32-11.55A11.98,11.98,0,0,0,54.45,4.31l-.91,1.78a10,10,0,1,1-9.08,17.82l-.91,1.78a11.984,11.984,0,0,0,14.8-3.18A27.733,27.733,0,0,1,59.98,31H33.01V4.03A27.733,27.733,0,0,1,41.5,5.66,11.984,11.984,0,0,0,37.01,15a11.72,11.72,0,0,0,4.36,9.26l1.27-1.54A10,10,0,0,1,51.73,5.39l.54-1.92a11.982,11.982,0,0,0-8.72.87A29.706,29.706,0,0,0,32,2.02,30.03,30.03,0,0,0,13.38,8.5l1.24,1.57A27.629,27.629,0,0,1,31,4.07V31H4.02a28.073,28.073,0,0,1,.95-6.32l-1.93-.52A29.916,29.916,0,0,0,2.01,32a1,1,0,0,0,1,1Z"/>
      <path id="Trazado_1027653" data-name="Trazado 1027653" d="M8,5A2.006,2.006,0,0,0,6,7V26a2.006,2.006,0,0,0,2,2h2a2.006,2.006,0,0,0,2-2V7a2.006,2.006,0,0,0-2-2Zm2,21H8V7h2Z"/>
      <path id="Trazado_1027654" data-name="Trazado 1027654" d="M18,28a2.006,2.006,0,0,0,2-2V14a2.006,2.006,0,0,0-2-2H16a2.006,2.006,0,0,0-2,2V26a2.006,2.006,0,0,0,2,2ZM16,14h2V26H16Z"/>
      <path id="Trazado_1027655" data-name="Trazado 1027655" d="M26,28a2.006,2.006,0,0,0,2-2V19a2.006,2.006,0,0,0-2-2H24a2.006,2.006,0,0,0-2,2v7a2.006,2.006,0,0,0,2,2Zm-2-9h2v7H24Z"/>
      <path id="Trazado_1027656" data-name="Trazado 1027656" d="M43,52V50h1a1,1,0,0,0,1-1V42a1,1,0,0,0-1-1H43V39H41v2H40a1,1,0,0,0-1,1v7a1,1,0,0,0,1,1h1v2Zm-2-9h2v5H41Z"/>
      <path id="Trazado_1027657" data-name="Trazado 1027657" d="M52,56V54h1a1,1,0,0,0,1-1V46a1,1,0,0,0-1-1H52V43H50v2H49a1,1,0,0,0-1,1v7a1,1,0,0,0,1,1h1v2Zm-2-9h2v5H50Z"/>
      <path id="Trazado_1027658" data-name="Trazado 1027658" d="M62,41H61V39H59v2H58a1,1,0,0,0-1,1v7a1,1,0,0,0,1,1h1v2h2V50h1a1,1,0,0,0,1-1V42A1,1,0,0,0,62,41Zm-1,7H59V43h2Z"/>
      <path id="Trazado_1027659" data-name="Trazado 1027659" d="M48.38,11.5h1.25c.47,0,.88.57.88,1.25h2a3.132,3.132,0,0,0-2.5-3.21V8h-2V9.54a3.132,3.132,0,0,0-2.5,3.21A3.085,3.085,0,0,0,48.39,16h1.25c.47,0,.88.57.88,1.25s-.4,1.25-.88,1.25H48.39c-.47,0-.88-.57-.88-1.25h-2a3.132,3.132,0,0,0,2.5,3.21V22h2V20.46a3.132,3.132,0,0,0,2.5-3.21A3.085,3.085,0,0,0,49.63,14H48.38c-.47,0-.88-.57-.88-1.25S47.9,11.5,48.38,11.5Z"/>
    </g>
  </g>
</svg>
