<svg xmlns="http://www.w3.org/2000/svg" xmlns:xlink="http://www.w3.org/1999/xlink" width="113" height="113" viewBox="0 0 113 113">
  <defs>
    <filter id="Trazado_982547" x="0" y="0" width="113" height="113" filterUnits="userSpaceOnUse">
      <feOffset dy="3" input="SourceAlpha"/>
      <feGaussianBlur stdDeviation="3" result="blur"/>
      <feFlood flood-opacity="0.161"/>
      <feComposite operator="in" in2="blur"/>
      <feComposite in="SourceGraphic"/>
    </filter>
  </defs>
  <g id="Grupo_1174531" data-name="Grupo 1174531" transform="translate(-194 -407)">
    <g id="Grupo_1172123" data-name="Grupo 1172123" transform="translate(22.864 -6475)">
      <g id="Grupo_1171577" data-name="Grupo 1171577" transform="translate(0.136 3601)">
        <g id="Grupo_1167519" data-name="Grupo 1167519" transform="translate(180 3287)">
          <g id="Grupo_1166845" data-name="Grupo 1166845" transform="translate(0)">
            <g id="Grupo_1166720" data-name="Grupo 1166720">
              <g id="Grupo_1164305" data-name="Grupo 1164305">
                <g id="Grupo_1163948" data-name="Grupo 1163948">
                  <g id="Grupo_1158168" data-name="Grupo 1158168">
                    <g id="Grupo_1152576" data-name="Grupo 1152576">
                      <g id="Grupo_1148633" data-name="Grupo 1148633">
                        <g id="Grupo_1148525" data-name="Grupo 1148525">
                          <g transform="matrix(1, 0, 0, 1, -9, -6)" filter="url(#Trazado_982547)">
                            <g id="Trazado_982547-2" data-name="Trazado 982547" transform="translate(9 6)" fill="#f1f0f2">
                              <path d="M 47.5 93.5 C 41.28937149047852 93.5 35.26533508300781 92.28397369384766 29.59518623352051 89.88570404052734 C 24.11771965026855 87.56893157958984 19.19813346862793 84.25196075439453 14.97309303283691 80.02691650390625 C 10.74804019927979 75.80186462402344 7.431066513061523 70.88229370117188 5.114293098449707 65.40481567382812 C 2.716026782989502 59.73468017578125 1.5 53.71062850952148 1.5 47.5 C 1.5 41.28937149047852 2.716026782989502 35.26533508300781 5.114293098449707 29.59518623352051 C 7.431066513061523 24.11771965026855 10.74804019927979 19.19813346862793 14.97309303283691 14.97309303283691 C 19.19813346862793 10.74804019927979 24.11771965026855 7.431066513061523 29.59518623352051 5.114293098449707 C 35.26533508300781 2.716026782989502 41.28937149047852 1.5 47.5 1.5 C 53.71062850952148 1.5 59.73468017578125 2.716026782989502 65.40481567382812 5.114293098449707 C 70.88229370117188 7.431066513061523 75.80186462402344 10.74804019927979 80.02691650390625 14.97309303283691 C 84.25196075439453 19.19813346862793 87.56893157958984 24.11771965026855 89.88570404052734 29.59518623352051 C 92.28397369384766 35.26533508300781 93.5 41.28937149047852 93.5 47.5 C 93.5 53.71062850952148 92.28397369384766 59.73468017578125 89.88570404052734 65.40481567382812 C 87.56893157958984 70.88229370117188 84.25196075439453 75.80186462402344 80.02691650390625 80.02691650390625 C 75.80186462402344 84.25196075439453 70.88229370117188 87.56893157958984 65.40481567382812 89.88570404052734 C 59.73468017578125 92.28397369384766 53.71062850952148 93.5 47.5 93.5 Z" stroke="none"/>
                              <path d="M 47.5 3 C 41.49121475219727 3 35.66376876831055 4.176155090332031 30.17950439453125 6.495796203613281 C 24.88084411621094 8.736953735351562 20.12152099609375 11.94598388671875 16.03375244140625 16.03375244140625 C 11.94598388671875 20.12152099609375 8.736953735351562 24.88084411621094 6.495796203613281 30.17950439453125 C 4.176155090332031 35.66376876831055 3 41.49121475219727 3 47.5 C 3 53.50878524780273 4.176155090332031 59.33623123168945 6.495796203613281 64.82049560546875 C 8.736953735351562 70.11915588378906 11.94598388671875 74.87847900390625 16.03375244140625 78.96624755859375 C 20.12152099609375 83.05401611328125 24.88084411621094 86.26304626464844 30.17950439453125 88.50419616699219 C 35.66376876831055 90.82384490966797 41.49121475219727 92 47.5 92 C 53.50878524780273 92 59.33623123168945 90.82384490966797 64.82049560546875 88.50419616699219 C 70.11915588378906 86.26304626464844 74.87847900390625 83.05401611328125 78.96624755859375 78.96624755859375 C 83.05401611328125 74.87847900390625 86.26304626464844 70.11915588378906 88.50419616699219 64.82049560546875 C 90.82384490966797 59.33623123168945 92 53.50878524780273 92 47.5 C 92 41.49121475219727 90.82384490966797 35.66376876831055 88.50419616699219 30.17950439453125 C 86.26304626464844 24.88084411621094 83.05401611328125 20.12152099609375 78.96624755859375 16.03375244140625 C 74.87847900390625 11.94598388671875 70.11915588378906 8.736953735351562 64.82049560546875 6.495796203613281 C 59.33623123168945 4.176155090332031 53.50878524780273 3 47.5 3 M 47.5 0 C 73.7335205078125 0 95 21.2664794921875 95 47.5 C 95 73.7335205078125 73.7335205078125 95 47.5 95 C 21.2664794921875 95 0 73.7335205078125 0 47.5 C 0 21.2664794921875 21.2664794921875 0 47.5 0 Z" stroke="none" fill="#817489"/>
                            </g>
                          </g>
                        </g>
                      </g>
                    </g>
                  </g>
                </g>
              </g>
            </g>
          </g>
        </g>
      </g>
    </g>
    <g id="pie-chart" transform="translate(221 430.551)">
      <g id="Grupo_1174529" data-name="Grupo 1174529" transform="translate(0.859 1.307)">
        <path id="Trazado_1027724" data-name="Trazado 1027724" d="M58.9,47.259A19.655,19.655,0,1,0,39.247,27.6H58.9Z" transform="translate(-35.613 -7.948)" fill="#9dc6fb"/>
        <path id="Trazado_1027725" data-name="Trazado 1027725" d="M218.5,411.066h-5.686a1.743,1.743,0,0,0-1.743,1.743v8.9h9.171v-8.9A1.743,1.743,0,0,0,218.5,411.066Z" transform="translate(-187.769 -364.92)" fill="#9dc6fb"/>
        <path id="Trazado_1027726" data-name="Trazado 1027726" d="M215.719,411.071a1.742,1.742,0,0,0-1.742,1.742v8.9h-2.905v-8.9a1.742,1.742,0,0,1,1.742-1.742Z" transform="translate(-187.768 -364.925)" fill="#80b4fb"/>
        <path id="Trazado_1027727" data-name="Trazado 1027727" d="M325.155,215.1H319.47a1.743,1.743,0,0,0-1.743,1.743v31.334H326.9V216.84A1.743,1.743,0,0,0,325.155,215.1Z" transform="translate(-282.215 -191.384)" fill="#f6e266"/>
        <path id="Trazado_1027728" data-name="Trazado 1027728" d="M322.377,215.1a1.742,1.742,0,0,0-1.742,1.742v31.334h-2.9V216.842a1.742,1.742,0,0,1,1.742-1.742Z" transform="translate(-282.218 -191.387)" fill="#ffc250"/>
        <path id="Trazado_1027729" data-name="Trazado 1027729" d="M431.811,328.609h-5.686a1.743,1.743,0,0,0-1.743,1.743v18.34h9.171v-18.34A1.743,1.743,0,0,0,431.811,328.609Z" transform="translate(-376.662 -291.902)" fill="#dd636e"/>
        <path id="Trazado_1027730" data-name="Trazado 1027730" d="M429.03,328.61a1.742,1.742,0,0,0-1.742,1.742v18.341h-2.905V330.352a1.743,1.743,0,0,1,1.743-1.742h2.9Z" transform="translate(-376.661 -291.903)" fill="#cb5769"/>
        <path id="Trazado_1027731" data-name="Trazado 1027731" d="M27.155,231.051V211.4H7.5A19.655,19.655,0,0,0,27.155,231.051Z" transform="translate(-7.5 -188.106)" fill="#dd636e"/>
      </g>
      <g id="Grupo_1174530" data-name="Grupo 1174530" transform="translate(0 0.449)">
        <path id="Trazado_1027732" data-name="Trazado 1027732" d="M211.858,403.566h-5.686a2.6,2.6,0,0,0-2.6,2.6v8.9a.858.858,0,0,0,.859.859H213.6a.858.858,0,0,0,.859-.859v-8.9A2.6,2.6,0,0,0,211.858,403.566Zm.884,10.644h-7.454v-8.043a.885.885,0,0,1,.884-.884h5.686a.885.885,0,0,1,.884.884v8.043Z" transform="translate(-180.268 -357.421)"/>
        <path id="Trazado_1027733" data-name="Trazado 1027733" d="M72.516,24.233a20.671,20.671,0,0,0,.261-3.27,20.4,20.4,0,0,0-3.7-11.735l1.4-2.5H82.093a.859.859,0,0,0,0-1.717H69.978a.858.858,0,0,0-.749.438l-1.289,2.3a20.5,20.5,0,0,0-29.322-2.1.859.859,0,1,0,1.143,1.281A18.784,18.784,0,0,1,67.038,9.355L63.532,15.6a.858.858,0,1,0,1.5.84l3.107-5.537A18.684,18.684,0,0,1,71.06,20.962a18.94,18.94,0,0,1-.273,3.2H66.229a2.6,2.6,0,0,0-2.6,2.6v9.173a18.557,18.557,0,0,1-10.506,3.806V20.962a.858.858,0,0,0-.859-.859H33.486A18.57,18.57,0,0,1,37.529,9.292a.859.859,0,0,0-1.345-1.067A20.294,20.294,0,0,0,31.75,20.962a.858.858,0,0,0,.859.859H51.4v18.8a.858.858,0,0,0,.859.859,20.273,20.273,0,0,0,11.365-3.432V58.1a.858.858,0,0,0,.859.859h9.17a.858.858,0,0,0,.859-.859V51.651a.859.859,0,1,0-1.717,0v5.587H65.345V26.763a.885.885,0,0,1,.884-.884h5.686a.885.885,0,0,1,.884.884V48.217a.859.859,0,1,0,1.717,0V26.763a2.6,2.6,0,0,0-2-2.53Z" transform="translate(-28.116 -0.449)"/>
        <path id="Trazado_1027734" data-name="Trazado 1027734" d="M425.169,321.109h-5.686a2.6,2.6,0,0,0-2.6,2.6v18.34a.858.858,0,0,0,.859.859h9.171a.858.858,0,0,0,.859-.859V323.71A2.6,2.6,0,0,0,425.169,321.109Zm.884,20.083H418.6V323.71a.885.885,0,0,1,.884-.884h5.686a.885.885,0,0,1,.884.884v17.482Z" transform="translate(-369.161 -284.403)"/>
        <path id="Trazado_1027735" data-name="Trazado 1027735" d="M20.513,203.894H.859a.858.858,0,0,0-.859.859,20.549,20.549,0,0,0,13.638,19.328l-2.376,5.152H2.026a.859.859,0,1,0,0,1.717h9.786a.859.859,0,0,0,.78-.5l2.7-5.857a20.471,20.471,0,0,0,5.221.674.858.858,0,0,0,.859-.859V204.753a.859.859,0,0,0-.859-.859Zm-.859,19.637a18.724,18.724,0,0,1-3.631-.523l1.046-2.269a.859.859,0,0,0-1.559-.719l-1.151,2.5a18.837,18.837,0,0,1-12.624-16.9H19.655Z" transform="translate(0 -180.605)"/>
        <path id="Trazado_1027736" data-name="Trazado 1027736" d="M11.054,394.671h7.133a.859.859,0,1,0,0-1.717H11.054a.859.859,0,1,0,0,1.717Z" transform="translate(-9.028 -348.023)"/>
        <path id="Trazado_1027737" data-name="Trazado 1027737" d="M391,12.165h8.458a.859.859,0,0,0,0-1.717H391a.859.859,0,0,0,0,1.717Z" transform="translate(-345.485 -9.303)"/>
        <path id="Trazado_1027738" data-name="Trazado 1027738" d="M427.51,169.807a.858.858,0,0,0,.859.859h6.238a.859.859,0,0,0,0-1.717h-6.238A.858.858,0,0,0,427.51,169.807Z" transform="translate(-378.572 -149.66)"/>
        <path id="Trazado_1027739" data-name="Trazado 1027739" d="M434.606,201.271h-6.238a.859.859,0,1,0,0,1.717h6.238a.859.859,0,0,0,0-1.717Z" transform="translate(-378.572 -178.283)"/>
        <path id="Trazado_1027740" data-name="Trazado 1027740" d="M434.606,233.594h-6.238a.859.859,0,1,0,0,1.717h6.238a.859.859,0,0,0,0-1.717Z" transform="translate(-378.572 -206.905)"/>
      </g>
    </g>
  </g>
</svg>
