<svg xmlns="http://www.w3.org/2000/svg" xmlns:xlink="http://www.w3.org/1999/xlink" width="113" height="113" viewBox="0 0 113 113">
  <defs>
    <filter id="Trazado_982547" x="0" y="0" width="113" height="113" filterUnits="userSpaceOnUse">
      <feOffset dy="3" input="SourceAlpha"/>
      <feGaussianBlur stdDeviation="3" result="blur"/>
      <feFlood flood-opacity="0.161"/>
      <feComposite operator="in" in2="blur"/>
      <feComposite in="SourceGraphic"/>
    </filter>
  </defs>
  <g id="Grupo_1174515" data-name="Grupo 1174515" transform="translate(-192 -3221)">
    <g id="Grupo_1172111" data-name="Grupo 1172111" transform="translate(21 -644)">
      <g id="Grupo_1171485" data-name="Grupo 1171485" transform="translate(0 584)">
        <g id="Grupo_1167519" data-name="Grupo 1167519" transform="translate(180 3287)">
          <g id="Grupo_1166845" data-name="Grupo 1166845" transform="translate(0)">
            <g id="Grupo_1166720" data-name="Grupo 1166720">
              <g id="Grupo_1164305" data-name="Grupo 1164305">
                <g id="Grupo_1163948" data-name="Grupo 1163948">
                  <g id="Grupo_1158168" data-name="Grupo 1158168">
                    <g id="Grupo_1152576" data-name="Grupo 1152576">
                      <g id="Grupo_1148633" data-name="Grupo 1148633">
                        <g id="Grupo_1148525" data-name="Grupo 1148525">
                          <g transform="matrix(1, 0, 0, 1, -9, -6)" filter="url(#Trazado_982547)">
                            <g id="Trazado_982547-2" data-name="Trazado 982547" transform="translate(9 6)" fill="#f2f7f5">
                              <path d="M 47.5 93.5 C 41.28937149047852 93.5 35.26533508300781 92.28397369384766 29.59518623352051 89.88570404052734 C 24.11771965026855 87.56893157958984 19.19813346862793 84.25196075439453 14.97309303283691 80.02691650390625 C 10.74804019927979 75.80186462402344 7.431066513061523 70.88229370117188 5.114293098449707 65.40481567382812 C 2.716026782989502 59.73468017578125 1.5 53.71062850952148 1.5 47.5 C 1.5 41.28937149047852 2.716026782989502 35.26533508300781 5.114293098449707 29.59518623352051 C 7.431066513061523 24.11771965026855 10.74804019927979 19.19813346862793 14.97309303283691 14.97309303283691 C 19.19813346862793 10.74804019927979 24.11771965026855 7.431066513061523 29.59518623352051 5.114293098449707 C 35.26533508300781 2.716026782989502 41.28937149047852 1.5 47.5 1.5 C 53.71062850952148 1.5 59.73468017578125 2.716026782989502 65.40481567382812 5.114293098449707 C 70.88229370117188 7.431066513061523 75.80186462402344 10.74804019927979 80.02691650390625 14.97309303283691 C 84.25196075439453 19.19813346862793 87.56893157958984 24.11771965026855 89.88570404052734 29.59518623352051 C 92.28397369384766 35.26533508300781 93.5 41.28937149047852 93.5 47.5 C 93.5 53.71062850952148 92.28397369384766 59.73468017578125 89.88570404052734 65.40481567382812 C 87.56893157958984 70.88229370117188 84.25196075439453 75.80186462402344 80.02691650390625 80.02691650390625 C 75.80186462402344 84.25196075439453 70.88229370117188 87.56893157958984 65.40481567382812 89.88570404052734 C 59.73468017578125 92.28397369384766 53.71062850952148 93.5 47.5 93.5 Z" stroke="none"/>
                              <path d="M 47.5 3 C 41.49121475219727 3 35.66376876831055 4.176155090332031 30.17950439453125 6.495796203613281 C 24.88084411621094 8.736953735351562 20.12152099609375 11.94598388671875 16.03375244140625 16.03375244140625 C 11.94598388671875 20.12152099609375 8.736953735351562 24.88084411621094 6.495796203613281 30.17950439453125 C 4.176155090332031 35.66376876831055 3 41.49121475219727 3 47.5 C 3 53.50878524780273 4.176155090332031 59.33623123168945 6.495796203613281 64.82049560546875 C 8.736953735351562 70.11915588378906 11.94598388671875 74.87847900390625 16.03375244140625 78.96624755859375 C 20.12152099609375 83.05401611328125 24.88084411621094 86.26304626464844 30.17950439453125 88.50419616699219 C 35.66376876831055 90.82384490966797 41.49121475219727 92 47.5 92 C 53.50878524780273 92 59.33623123168945 90.82384490966797 64.82049560546875 88.50419616699219 C 70.11915588378906 86.26304626464844 74.87847900390625 83.05401611328125 78.96624755859375 78.96624755859375 C 83.05401611328125 74.87847900390625 86.26304626464844 70.11915588378906 88.50419616699219 64.82049560546875 C 90.82384490966797 59.33623123168945 92 53.50878524780273 92 47.5 C 92 41.49121475219727 90.82384490966797 35.66376876831055 88.50419616699219 30.17950439453125 C 86.26304626464844 24.88084411621094 83.05401611328125 20.12152099609375 78.96624755859375 16.03375244140625 C 74.87847900390625 11.94598388671875 70.11915588378906 8.736953735351562 64.82049560546875 6.495796203613281 C 59.33623123168945 4.176155090332031 53.50878524780273 3 47.5 3 M 47.5 0 C 73.7335205078125 0 95 21.2664794921875 95 47.5 C 95 73.7335205078125 73.7335205078125 95 47.5 95 C 21.2664794921875 95 0 73.7335205078125 0 47.5 C 0 21.2664794921875 21.2664794921875 0 47.5 0 Z" stroke="none" fill="#4a665c"/>
                            </g>
                          </g>
                        </g>
                      </g>
                    </g>
                  </g>
                </g>
              </g>
            </g>
          </g>
        </g>
      </g>
    </g>
    <g id="work-process" transform="translate(213 3239)">
      <g id="Grupo_1174513" data-name="Grupo 1174513" transform="translate(1.101 1.101)">
        <path id="Trazado_1027686" data-name="Trazado 1027686" d="M61.3,10.821h0A31.309,31.309,0,0,0,30.148,38.968l8.265-.387A23.2,23.2,0,0,1,61.3,18.974l-.037.013v3.164l7.99-6.456L61.258,8v2.834" transform="translate(-27.1 -8)" fill="#ffe27a"/>
        <path id="Trazado_1027687" data-name="Trazado 1027687" d="M111.288,75.4l6.018-4.863A23.166,23.166,0,0,0,88.161,91.845l.282-.013a23.2,23.2,0,0,1,22.882-19.607l-.037.013Z" transform="translate(-77.13 -61.251)" fill="#f9cf58"/>
        <path id="Trazado_1027688" data-name="Trazado 1027688" d="M173.867,157.058l-2.618-.394a12.216,12.216,0,0,0-1.925-4.646l1.573-2.13a.937.937,0,0,0-.091-1.219l-1.355-1.355a.937.937,0,0,0-1.219-.091L166.1,148.8a12.214,12.214,0,0,0-4.646-1.925l-.394-2.618a.937.937,0,0,0-.926-.8H158.22a.937.937,0,0,0-.926.8l-.394,2.618a12.213,12.213,0,0,0-4.646,1.925l-2.13-1.573a.937.937,0,0,0-1.219.091l-1.355,1.355a.937.937,0,0,0-.091,1.219l1.574,2.13a12.214,12.214,0,0,0-1.925,4.646l-2.618.394a.937.937,0,0,0-.8.926V159.9a.937.937,0,0,0,.8.926l2.618.394a12.215,12.215,0,0,0,1.925,4.646L147.459,168a.937.937,0,0,0,.091,1.219l1.355,1.355a.936.936,0,0,0,1.219.091l2.13-1.573a12.215,12.215,0,0,0,4.646,1.925l.394,2.618a.937.937,0,0,0,.926.8h1.916a.937.937,0,0,0,.926-.8l.394-2.618a12.214,12.214,0,0,0,4.646-1.925l2.13,1.573a.937.937,0,0,0,1.219-.091l1.355-1.355A.937.937,0,0,0,170.9,168l-1.573-2.13a12.215,12.215,0,0,0,1.925-4.646l2.618-.394a.937.937,0,0,0,.8-.926v-1.916A.937.937,0,0,0,173.867,157.058Zm-14.689,8.083a6.2,6.2,0,1,1,6.2-6.2A6.2,6.2,0,0,1,159.178,165.141Z" transform="translate(-125.02 -124.817)" fill="#ff4755"/>
        <path id="Trazado_1027689" data-name="Trazado 1027689" d="M10.853,205.69c0,.011,0,.021,0,.032A31.309,31.309,0,0,0,39,236.87l-.485-8.281a23.157,23.157,0,0,1-19.51-22.866c0-.011,0-.021,0-.032h3.145l-6.456-7.99L8,205.69h2.834" transform="translate(-8 -171.596)" fill="#8bcaff"/>
        <path id="Trazado_1027690" data-name="Trazado 1027690" d="M205.69,298.487h.064a23.157,23.157,0,0,0,22.865-19.5l8.288-.563a31.308,31.308,0,0,1-31.154,28.22h-.064v2.822l-7.99-7.695,7.99-6.456v3.164Z" transform="translate(-171.596 -241.21)" fill="#98db7c"/>
        <path id="Trazado_1027691" data-name="Trazado 1027691" d="M223.582,266.238a6.223,6.223,0,0,0-.124-1.238,6.2,6.2,0,0,1-12.149,0,6.2,6.2,0,1,0,12.273,1.238Z" transform="translate(-183.226 -229.636)" fill="#fc2b3a"/>
        <path id="Trazado_1027692" data-name="Trazado 1027692" d="M217.345,304.165a31.448,31.448,0,0,1-6.2-.616l6.141,5.914v-2.822h.064a31.308,31.308,0,0,0,31.154-28.22l-.426.443a31.314,31.314,0,0,1-30.727,25.3Z" transform="translate(-183.187 -241.211)" fill="#82d361"/>
        <path id="Trazado_1027693" data-name="Trazado 1027693" d="M53.833,284.012a31.321,31.321,0,0,1-25-28.244h-.1c0,.011,0,.021,0,.032a31.309,31.309,0,0,0,28.148,31.147Z" transform="translate(-25.88 -221.674)" fill="#6cc4ff"/>
        <path id="Trazado_1027694" data-name="Trazado 1027694" d="M306.882,60.787c0-.011,0-.021,0-.032A31.308,31.308,0,0,0,278.664,29.6l4.9,4.722-4.4,3.556a23.158,23.158,0,0,1,19.563,22.875c0,.011,0,.021,0,.032H295.52l6.456,7.99,7.695-7.99Z" transform="translate(-241.419 -26.629)" fill="#ffba57"/>
        <g id="Grupo_1174512" data-name="Grupo 1174512" transform="translate(37.747 9.288)">
          <path id="Trazado_1027695" data-name="Trazado 1027695" d="M284.745,75.5l-2.429,1.963a23.159,23.159,0,0,1,19.53,21.643q.033-.618.033-1.244A23.161,23.161,0,0,0,284.745,75.5Z" transform="translate(-282.316 -75.501)" fill="#ffac3e"/>
        </g>
      </g>
      <g id="Grupo_1174514" data-name="Grupo 1174514" transform="translate(0 0)">
        <path id="Trazado_1027696" data-name="Trazado 1027696" d="M210.816,203.347a7.249,7.249,0,0,0-6.806,9.734,1.034,1.034,0,1,0,1.942-.71,5.177,5.177,0,1,1,2.2,2.66,1.034,1.034,0,0,0-1.067,1.772,7.246,7.246,0,1,0,3.735-13.455Z" transform="translate(-175.559 -175.366)"/>
        <path id="Trazado_1027697" data-name="Trazado 1027697" d="M167.366,149.354l-1.918-.288a13.173,13.173,0,0,0-1.533-3.7l1.153-1.56a1.961,1.961,0,0,0-.192-2.567l-1.358-1.358a1.961,1.961,0,0,0-2.567-.192l-1.56,1.153a13.167,13.167,0,0,0-3.7-1.533l-.288-1.918a1.961,1.961,0,0,0-1.951-1.679h-1.92a1.961,1.961,0,0,0-1.951,1.679l-.288,1.918a13.168,13.168,0,0,0-3.7,1.533l-1.56-1.153a1.961,1.961,0,0,0-2.567.192l-1.357,1.358a1.961,1.961,0,0,0-.192,2.567l1.152,1.56a13.159,13.159,0,0,0-1.533,3.7l-1.917.288a1.961,1.961,0,0,0-1.68,1.951v1.92a1.961,1.961,0,0,0,1.679,1.951l1.918.288a13.168,13.168,0,0,0,1.533,3.7l-1.152,1.56a1.961,1.961,0,0,0,.192,2.567l1.358,1.358a1.961,1.961,0,0,0,2.567.192l1.56-1.153a13.167,13.167,0,0,0,3.7,1.533l.288,1.918a1.961,1.961,0,0,0,1.951,1.679h1.92a1.961,1.961,0,0,0,1.951-1.679l.288-1.917a13.167,13.167,0,0,0,3.7-1.533l1.561,1.153a1.961,1.961,0,0,0,2.567-.192l1.358-1.358a1.961,1.961,0,0,0,.192-2.567l-1.153-1.56a13.164,13.164,0,0,0,1.533-3.7l1.917-.288a1.961,1.961,0,0,0,1.68-1.951V151.3a1.96,1.96,0,0,0-1.679-1.951Zm-.389,3.789-2.542.382a1.034,1.034,0,0,0-.863.832,11.15,11.15,0,0,1-1.766,4.262,1.034,1.034,0,0,0,.022,1.2l1.528,2.068-1.242,1.241-2.068-1.528a1.035,1.035,0,0,0-1.2-.022,11.148,11.148,0,0,1-4.262,1.766,1.034,1.034,0,0,0-.832.863l-.382,2.542h-1.756l-.382-2.542a1.034,1.034,0,0,0-.832-.863,11.149,11.149,0,0,1-4.262-1.766,1.033,1.033,0,0,0-1.2.022l-2.068,1.528-1.242-1.241,1.528-2.068a1.034,1.034,0,0,0,.022-1.2,11.147,11.147,0,0,1-1.766-4.262,1.034,1.034,0,0,0-.863-.832l-2.542-.382v-1.756l2.542-.382a1.034,1.034,0,0,0,.863-.832,11.148,11.148,0,0,1,1.766-4.262,1.034,1.034,0,0,0-.022-1.2l-1.528-2.068,1.242-1.241,2.068,1.528a1.034,1.034,0,0,0,1.2.022,11.151,11.151,0,0,1,4.262-1.767,1.034,1.034,0,0,0,.832-.863l.382-2.542h1.756l.382,2.542a1.035,1.035,0,0,0,.832.863,11.146,11.146,0,0,1,4.262,1.767,1.034,1.034,0,0,0,1.2-.022l2.068-1.528,1.242,1.241-1.528,2.068a1.034,1.034,0,0,0-.022,1.2,11.149,11.149,0,0,1,1.766,4.262,1.034,1.034,0,0,0,.863.832l2.542.382Z" transform="translate(-117.237 -117.038)"/>
        <path id="Trazado_1027698" data-name="Trazado 1027698" d="M70.371,34.854a1.034,1.034,0,0,0-.952-.629H67.643a32.4,32.4,0,0,0-28.83-31.2L35.974.287a1.041,1.041,0,0,0-1.751.745V2.84A32.171,32.171,0,0,0,16.607,8.727a1.034,1.034,0,1,0,1.192,1.69A30.136,30.136,0,0,1,35.257,4.892a1.034,1.034,0,0,0,1.034-1.034v-.4L41.7,8.674l-5.411,4.372V12.028a1.034,1.034,0,0,0-1.034-1.034,24.24,24.24,0,0,0-23.5,18.288L9.546,26.538A1.041,1.041,0,0,0,8,26.471L5.568,28.993a30.3,30.3,0,0,1,9.12-16.06,1.034,1.034,0,1,0-1.4-1.52A32.336,32.336,0,0,0,3.059,31.6L.286,34.477a1.041,1.041,0,0,0,.745,1.751h1.84a32.4,32.4,0,0,0,28.759,31.2l2.846,2.741a1.041,1.041,0,0,0,1.751-.745V67.615a32.152,32.152,0,0,0,17.9-6.045,1.034,1.034,0,1,0-1.206-1.68,30.123,30.123,0,0,1-17.677,5.671h-.052a1.034,1.034,0,0,0-1.034,1.034v.4l-5.411-5.211,5.411-4.372v1.018a1.034,1.034,0,0,0,1.027,1.034h.07A24.24,24.24,0,0,0,58.736,41.232L60.9,43.915a1.041,1.041,0,0,0,1.549.067l2.509-2.605a30.313,30.313,0,0,1-8.948,15.968,1.034,1.034,0,1,0,1.416,1.508A32.356,32.356,0,0,0,67.462,38.781l2.7-2.805a1.033,1.033,0,0,0,.207-1.122ZM26.537,60.907a1.041,1.041,0,0,0-.067,1.549l2.556,2.461A30.342,30.342,0,0,1,4.924,35.23v-.035A1.034,1.034,0,0,0,3.89,34.161H3.463L8.674,28.75l4.372,5.411h-.986a1.031,1.031,0,0,0-1.034,1.031v.035A24.24,24.24,0,0,0,29.258,58.708Zm23.181-8.883A22.153,22.153,0,0,1,36.227,57.37V55.242a1.041,1.041,0,0,0-1.684-.8l-3.223,2.6A22.171,22.171,0,0,1,13.115,36.229h2.1a1.041,1.041,0,0,0,.8-1.684l-2.583-3.2A22.17,22.17,0,0,1,34.223,13.086v2.125a1.041,1.041,0,0,0,1.684.8L39.142,13.4A22.171,22.171,0,0,1,57.4,34.224H55.24a1.041,1.041,0,0,0-.8,1.684L57.07,39.17a22.176,22.176,0,0,1-7.352,12.855ZM61.777,41.7l-4.372-5.411h1.05a1.031,1.031,0,0,0,1.034-1.031v-.035A24.241,24.241,0,0,0,41.209,11.732l2.705-2.186A1.041,1.041,0,0,0,43.981,8L41.409,5.52a30.341,30.341,0,0,1,24.182,29.7v.035a1.034,1.034,0,0,0,1.034,1.034h.364Z" transform="translate(0 0)"/>
      </g>
    </g>
  </g>
</svg>
