<svg xmlns="http://www.w3.org/2000/svg" xmlns:xlink="http://www.w3.org/1999/xlink" width="400" height="328" viewBox="0 0 400 328">
  <defs>
    <clipPath id="clip-path">
      <rect id="Rectángulo_414520" data-name="Rectángulo 414520" width="400" height="328" transform="translate(180 3555)" fill="#fff" stroke="#707070" stroke-width="1" opacity="0.49"/>
    </clipPath>
  </defs>
  <g id="Enmascarar_grupo_1098809" data-name="Enmascarar grupo 1098809" transform="translate(-180 -3555)" clip-path="url(#clip-path)">
    <g id="Grupo_1174450" data-name="Grupo 1174450" transform="translate(-1484.033 3195.919)">
      <g id="Grupo_1174249" data-name="Grupo 1174249" transform="translate(1742.637 363.775)">
        <path id="Trazado_1027422" data-name="Trazado 1027422" d="M2022.91,637.445c-48.307-28.266-64.282-91.1-34.395-138.419,5.645-8.938,9.105-20.055,6.071-32.939-8.369-35.543-9.691-59.275,26.1-74.043s113.4-42.637,147.837-19.289,5.455,72.554,24.356,84.459,62.689-13.486,69.22,24.164,57.5,64.456,17.551,118.4-151.389,81.282-221.475,54.449A239.3,239.3,0,0,1,2022.91,637.445Z" transform="translate(-1973.402 -363.775)" fill="#fffaf2"/>
      </g>
      <g id="Grupo_1174256" data-name="Grupo 1174256" transform="translate(1741.687 431.811)">
        <g id="Grupo_1174251" data-name="Grupo 1174251" transform="translate(49.877)">
          <g id="Grupo_1174250" data-name="Grupo 1174250">
            <path id="Trazado_1027423" data-name="Trazado 1027423" d="M2168,632.568h-1.524a.508.508,0,1,1,0-1.016H2168a.508.508,0,1,1,0,1.016Z" transform="translate(-2165.966 -631.552)" fill="#3b2a3a"/>
          </g>
        </g>
        <g id="Grupo_1174253" data-name="Grupo 1174253" transform="translate(0)">
          <g id="Grupo_1174252" data-name="Grupo 1174252">
            <path id="Trazado_1027424" data-name="Trazado 1027424" d="M2025.343,687.316h-3a.508.508,0,1,1,0-1.016h3a.508.508,0,1,1,0,1.016Zm-6,0h-3a.508.508,0,1,1,0-1.016h3a.508.508,0,0,1,0,1.016Zm-6,0h-3a.508.508,0,1,1,0-1.016h3a.508.508,0,1,1,0,1.016Zm-6,0h-3a.508.508,0,0,1,0-1.016h3a.508.508,0,0,1,0,1.016Zm-6,0h-3a.508.508,0,1,1,0-1.016h3a.508.508,0,0,1,0,1.016Zm-6,0h0a26.362,26.362,0,0,1-3.049-.208.508.508,0,1,1,.129-1.008,25.279,25.279,0,0,0,2.931.2.508.508,0,0,1-.005,1.016Zm-5.935-.757a.509.509,0,0,1-.124-.015,25.852,25.852,0,0,1-2.917-.917.508.508,0,1,1,.362-.95,24.841,24.841,0,0,0,2.8.881.508.508,0,0,1-.122,1Zm-5.594-2.13a.508.508,0,0,1-.236-.058,26.07,26.07,0,0,1-2.618-1.576.508.508,0,1,1,.574-.839,24.978,24.978,0,0,0,2.516,1.514.508.508,0,0,1-.236.958Zm-4.936-3.38a.506.506,0,0,1-.334-.125,26.191,26.191,0,0,1-2.181-2.142.508.508,0,1,1,.753-.682,25.161,25.161,0,0,0,2.1,2.059.508.508,0,0,1-.335.891Zm-4.015-4.438a.507.507,0,0,1-.415-.214,26,26,0,0,1-1.623-2.592.508.508,0,0,1,.892-.487,24.952,24.952,0,0,0,1.559,2.491.508.508,0,0,1-.413.8Zm-2.872-5.253a.509.509,0,0,1-.472-.319,25.879,25.879,0,0,1-.969-2.9.508.508,0,0,1,.982-.264,24.844,24.844,0,0,0,.931,2.787.508.508,0,0,1-.471.7Zm-1.556-5.78a.509.509,0,0,1-.5-.435,26.258,26.258,0,0,1-.261-3.046.508.508,0,0,1,1.016-.027,25.18,25.18,0,0,0,.251,2.927.509.509,0,0,1-.5.581Zm-.265-5.986a.508.508,0,0,1-.508-.508v-1.6c0-.473.013-.955.039-1.431a.508.508,0,0,1,1.015.056c-.025.458-.037.92-.037,1.375v1.6A.508.508,0,0,1,1970.17,659.59Zm.376-5.977a.507.507,0,0,1-.5-.595,25.855,25.855,0,0,1,.7-2.977.508.508,0,1,1,.974.291,24.892,24.892,0,0,0-.673,2.859A.508.508,0,0,1,1970.547,653.613Zm1.714-5.733a.509.509,0,0,1-.466-.711,25.979,25.979,0,0,1,1.381-2.726.508.508,0,1,1,.878.512,24.956,24.956,0,0,0-1.326,2.619A.508.508,0,0,1,1972.261,647.88Zm3.013-5.168a.508.508,0,0,1-.406-.814,26.143,26.143,0,0,1,1.979-2.33.508.508,0,1,1,.734.7,25.115,25.115,0,0,0-1.9,2.239A.509.509,0,0,1,1975.274,642.712Zm4.136-4.326a.508.508,0,0,1-.324-.9,26.152,26.152,0,0,1,2.468-1.807.508.508,0,0,1,.551.854,25.058,25.058,0,0,0-2.371,1.736A.508.508,0,0,1,1979.41,638.386Zm5.031-3.245a.508.508,0,0,1-.224-.965A25.857,25.857,0,0,1,1987.04,633a.508.508,0,0,1,.335.959,24.823,24.823,0,0,0-2.712,1.132A.509.509,0,0,1,1984.44,635.141Zm5.652-1.975a.508.508,0,0,1-.109-1,26.027,26.027,0,0,1,3.019-.481.508.508,0,1,1,.1,1.011,25.1,25.1,0,0,0-2.9.462A.512.512,0,0,1,1990.092,633.166Zm26.955-.6h-3a.508.508,0,0,1,0-1.016h3a.508.508,0,0,1,0,1.016Zm-6,0h-3a.508.508,0,1,1,0-1.016h3a.508.508,0,0,1,0,1.016Zm-6,0h-3a.508.508,0,0,1,0-1.016h3a.508.508,0,0,1,0,1.016Zm-6,0h-3a.508.508,0,1,1,0-1.016h3a.508.508,0,0,1,0,1.016Z" transform="translate(-1969.662 -631.552)" fill="#3b2a3a"/>
          </g>
        </g>
        <g id="Grupo_1174255" data-name="Grupo 1174255" transform="translate(58.199 54.747)">
          <g id="Grupo_1174254" data-name="Grupo 1174254">
            <path id="Trazado_1027425" data-name="Trazado 1027425" d="M2200.755,848.042h-1.525a.508.508,0,1,1,0-1.016h1.525a.508.508,0,0,1,0,1.016Z" transform="translate(-2198.722 -847.026)" fill="#3b2a3a"/>
          </g>
        </g>
      </g>
      <g id="Grupo_1174258" data-name="Grupo 1174258" transform="translate(1824.658 431.398)">
        <g id="Grupo_1174257" data-name="Grupo 1174257">
          <path id="Trazado_1027426" data-name="Trazado 1027426" d="M2316.043,641.766h-1.016v-2.032a8.8,8.8,0,0,0-8.794-8.794h-10.016v-1.016h10.016a9.821,9.821,0,0,1,9.81,9.81Z" transform="translate(-2296.217 -629.924)" fill="#3b2a3a"/>
        </g>
      </g>
      <g id="Grupo_1174259" data-name="Grupo 1174259" transform="translate(1951.796 620.63)">
        <path id="Trazado_1027427" data-name="Trazado 1027427" d="M2796.607,1395.64s-.387-13.333,19.2-16.285c19.211-2.9,21.938-10.307,37.857,3.163s28.369,24.083,25.307,33.063-30.205,10-38.981-1.022-12.042-5.3-23.062-5.1S2797.107,1408.966,2796.607,1395.64Z" transform="translate(-2796.606 -1374.702)" fill="#abae5a"/>
      </g>
      <g id="Grupo_1174260" data-name="Grupo 1174260" transform="translate(1940.274 558.962)">
        <path id="Trazado_1027428" data-name="Trazado 1027428" d="M2759.853,1193.676a17.029,17.029,0,0,1-7.447-9.559c-1.914-5.94-2.812-15.863,8.853-22.237,17.552-9.593,16.327-18.573,34.288-20.409S2828.2,1128,2838,1133.41s.2,21.939-15.306,28.061-13.062,18.776-27.757,23.47C2782.28,1188.984,2770.8,1200.1,2759.853,1193.676Z" transform="translate(-2751.258 -1131.989)" fill="#abae5a"/>
      </g>
      <g id="Grupo_1174262" data-name="Grupo 1174262" transform="translate(1904.101 570.145)">
        <g id="Grupo_1174261" data-name="Grupo 1174261" transform="translate(0)">
          <path id="Trazado_1027429" data-name="Trazado 1027429" d="M2609.4,1270.308a.508.508,0,0,1-.428-.781,320.271,320.271,0,0,1,32.891-41.547,236.465,236.465,0,0,1,35.437-31.489c14.719-10.426,29.225-17.315,43.117-20.476a.508.508,0,1,1,.225.991c-31.186,7.1-59.65,32.014-78.037,51.668a319.193,319.193,0,0,0-32.776,41.4A.507.507,0,0,1,2609.4,1270.308Z" transform="translate(-2608.889 -1176.004)" fill="#3b2a3a"/>
        </g>
      </g>
      <g id="Grupo_1174264" data-name="Grupo 1174264" transform="translate(1907.315 639.047)">
        <g id="Grupo_1174263" data-name="Grupo 1174263">
          <path id="Trazado_1027430" data-name="Trazado 1027430" d="M2622.047,1475.26a.508.508,0,0,1-.384-.841,75.507,75.507,0,0,1,32.994-22.168,100.81,100.81,0,0,1,34.673-5.043,135.742,135.742,0,0,1,38.505,6.4.508.508,0,1,1-.341.957,134.668,134.668,0,0,0-38.212-6.343c-19.573-.358-47.061,4.008-66.851,26.861A.507.507,0,0,1,2622.047,1475.26Z" transform="translate(-2621.54 -1447.187)" fill="#3b2a3a"/>
        </g>
      </g>
      <g id="Grupo_1174265" data-name="Grupo 1174265" transform="translate(1801.919 454.152)">
        <rect id="Rectángulo_414501" data-name="Rectángulo 414501" width="133.476" height="232.929" rx="25.826" transform="translate(0 0)" fill="#3b2a3a"/>
      </g>
      <g id="Grupo_1174266" data-name="Grupo 1174266" transform="translate(1807.258 460.279)">
        <path id="Trazado_1027431" data-name="Trazado 1027431" d="M2350.531,747.523V939.88a3.934,3.934,0,0,1-3.927,3.923H2231.665a3.937,3.937,0,0,1-3.927-3.923V747.523a3.94,3.94,0,0,1,3.927-3.928H2346.6A3.937,3.937,0,0,1,2350.531,747.523Z" transform="translate(-2227.737 -743.595)" fill="#ccd3ed"/>
      </g>
      <g id="Grupo_1174267" data-name="Grupo 1174267" transform="translate(1806.391 443.239)" opacity="0.42" style="mix-blend-mode: multiply;isolation: isolate">
        <path id="Trazado_1027432" data-name="Trazado 1027432" d="M2347.985,724.329V889.855a3.934,3.934,0,0,1-3.927,3.923h-33.915l-84.952-35.2-.867-15.613L2293.115,693.9l.125-.329,6.427-17.039,17.224,17.039.332.329Z" transform="translate(-2224.324 -676.531)" fill="#ccd3ed"/>
      </g>
      <g id="Grupo_1174270" data-name="Grupo 1174270" transform="translate(1782.707 436.832)">
        <g id="Grupo_1174268" data-name="Grupo 1174268" transform="translate(0.635 0.635)">
          <rect id="Rectángulo_414502" data-name="Rectángulo 414502" width="121.267" height="187.816" rx="31.651" fill="#fff"/>
        </g>
        <g id="Grupo_1174269" data-name="Grupo 1174269" transform="translate(0 0)">
          <path id="Trazado_1027433" data-name="Trazado 1027433" d="M2244.968,840.4H2139.785a8.687,8.687,0,0,1-8.678-8.677V659.99a8.687,8.687,0,0,1,8.678-8.677h105.183a8.687,8.687,0,0,1,8.677,8.677V831.722A8.687,8.687,0,0,1,2244.968,840.4ZM2139.785,652.583a7.415,7.415,0,0,0-7.407,7.407V831.722a7.415,7.415,0,0,0,7.407,7.407h105.183a7.415,7.415,0,0,0,7.406-7.407V659.99a7.415,7.415,0,0,0-7.406-7.407Z" transform="translate(-2131.107 -651.313)" fill="#3b2a3a"/>
        </g>
      </g>
      <g id="Grupo_1174271" data-name="Grupo 1174271" transform="translate(1788.318 565.849)">
        <circle id="Elipse_12055" data-name="Elipse 12055" cx="13.394" cy="13.394" r="13.394" transform="translate(0 18.942) rotate(-45)" fill="#ccd3ed"/>
      </g>
      <g id="Grupo_1174272" data-name="Grupo 1174272" transform="translate(1793.866 516.651)">
        <circle id="Elipse_12056" data-name="Elipse 12056" cx="13.394" cy="13.394" r="13.394" fill="#ccd3ed"/>
      </g>
      <g id="Grupo_1174273" data-name="Grupo 1174273" transform="translate(1793.866 462.956)">
        <circle id="Elipse_12057" data-name="Elipse 12057" cx="13.394" cy="13.394" r="13.394" transform="translate(0 0)" fill="#abae5a"/>
      </g>
      <g id="Grupo_1174274" data-name="Grupo 1174274" transform="translate(1827.106 469.296)">
        <path id="Trazado_1027434" data-name="Trazado 1027434" d="M2305.855,779.083" transform="translate(-2305.855 -779.083)" fill="#aca8be"/>
      </g>
      <g id="Grupo_1174275" data-name="Grupo 1174275" transform="translate(1828.603 473.015)">
        <path id="Trazado_1027435" data-name="Trazado 1027435" d="M2372.124,793.785a38.463,38.463,0,0,1-6.188.33c-3.386,0-3.386-.108-6.772-.108s-3.386.071-6.772.071-3.385-.359-6.771-.359-3.385.128-6.769.128-3.385.291-6.77.291-3.385-.156-6.77-.156-3.385-.157-6.77-.157-3.4.128-6.769.325l-.028,0v1.775l.028,0a40.861,40.861,0,0,1,6.772-.291h6.772c3.386,0,3.386.374,6.772.374s3.385-.2,6.771-.2,3.385-.04,6.769-.04,3.385-.1,6.771-.1,3.385-.047,6.77-.047,3.385-.006,6.77-.006c3.177,0,3.373.083,6.184.126Z" transform="translate(-2311.746 -793.72)" fill="#ccd3ed"/>
      </g>
      <g id="Grupo_1174276" data-name="Grupo 1174276" transform="translate(1828.603 477.885)">
        <path id="Trazado_1027436" data-name="Trazado 1027436" d="M2311.746,814.922a33.469,33.469,0,0,0,4.154.256c3.384,0,3.384-.128,6.769-.128s3.385-.291,6.771-.291,3.385.156,6.77.156,3.385.157,6.77.157,3.4-.128,6.768-.325l.028,0v-1.775l-.028,0a40.858,40.858,0,0,1-6.772.291H2336.2c-3.386,0-3.386-.375-6.772-.375s-3.385.2-6.771.2-3.384.04-6.769.04c-2.184,0-2.961.043-4.146.074Z" transform="translate(-2311.746 -812.887)" fill="#ccd3ed"/>
      </g>
      <g id="Grupo_1174277" data-name="Grupo 1174277" transform="translate(1828.603 526.465)">
        <path id="Trazado_1027437" data-name="Trazado 1027437" d="M2372.124,1004.152a38.439,38.439,0,0,1-6.188.331c-3.386,0-3.386-.108-6.772-.108s-3.386.072-6.772.072-3.385-.359-6.771-.359-3.385.127-6.769.127-3.385.291-6.77.291-3.385-.156-6.77-.156-3.385-.157-6.77-.157-3.4.128-6.769.326l-.028,0v1.775l.028,0a40.867,40.867,0,0,1,6.772-.291h6.772c3.386,0,3.386.375,6.772.375s3.385-.2,6.771-.2,3.385-.04,6.769-.04,3.385-.1,6.771-.1,3.385-.047,6.77-.047,3.385-.006,6.77-.006c3.177,0,3.373.083,6.184.125Z" transform="translate(-2311.746 -1004.087)" fill="#ccd3ed"/>
      </g>
      <g id="Grupo_1174278" data-name="Grupo 1174278" transform="translate(1828.603 531.335)">
        <path id="Trazado_1027438" data-name="Trazado 1027438" d="M2349.775,1023.511a33.423,33.423,0,0,0-4.154-.256c-3.385,0-3.385.128-6.769.128s-3.385.291-6.77.291-3.385-.157-6.77-.157-3.385-.156-6.77-.156-3.4.128-6.769.325l-.028,0v1.775l.028,0a40.827,40.827,0,0,1,6.772-.291h6.772c3.386,0,3.386.375,6.772.375s3.385-.2,6.771-.2,3.385-.04,6.769-.04c2.184,0,2.961-.043,4.146-.074Z" transform="translate(-2311.746 -1023.255)" fill="#ccd3ed"/>
      </g>
      <g id="Grupo_1174279" data-name="Grupo 1174279" transform="translate(1828.603 581.21)">
        <path id="Trazado_1027439" data-name="Trazado 1027439" d="M2311.746,1221.78a38.437,38.437,0,0,1,6.188-.331c3.386,0,3.386.108,6.772.108s3.386-.072,6.771-.072,3.386.359,6.771.359,3.385-.127,6.769-.127,3.385-.291,6.771-.291,3.385.156,6.77.156,3.385.157,6.77.157,3.4-.128,6.769-.325l.028,0v-1.775l-.028,0a40.878,40.878,0,0,1-6.773.291h-6.772c-3.386,0-3.386-.375-6.771-.375s-3.386.2-6.771.2-3.384.04-6.768.04-3.385.1-6.771.1-3.385.047-6.77.047-3.385.006-6.77.006c-3.177,0-3.373-.082-6.184-.125Z" transform="translate(-2311.746 -1219.554)" fill="#ccd3ed"/>
      </g>
      <g id="Grupo_1174280" data-name="Grupo 1174280" transform="translate(1828.603 586.08)">
        <path id="Trazado_1027440" data-name="Trazado 1027440" d="M2349.775,1238.977a33.358,33.358,0,0,0-4.154-.256c-3.385,0-3.385.128-6.769.128s-3.385.291-6.77.291-3.385-.156-6.77-.156-3.385-.157-6.77-.157-3.4.128-6.769.325l-.028,0v1.775l.028,0a40.854,40.854,0,0,1,6.772-.291h6.772c3.386,0,3.386.375,6.772.375s3.385-.2,6.771-.2,3.385-.04,6.769-.04c2.184,0,2.961-.044,4.146-.074Z" transform="translate(-2311.746 -1238.721)" fill="#ccd3ed"/>
      </g>
      <g id="Grupo_1174282" data-name="Grupo 1174282" transform="translate(1927.214 505.279)">
        <g id="Grupo_1174281" data-name="Grupo 1174281" transform="translate(0 0)">
          <path id="Trazado_1027441" data-name="Trazado 1027441" d="M2723.861,967.8h-24.005v-1.016h24.005a10.4,10.4,0,0,0,10.386-10.386V932.11a10.4,10.4,0,0,0-10.386-10.387h-5.024v-1.016h5.024a11.416,11.416,0,0,1,11.4,11.4V956.4A11.416,11.416,0,0,1,2723.861,967.8Z" transform="translate(-2699.855 -920.707)" fill="#3b2a3a"/>
        </g>
      </g>
      <g id="Grupo_1174283" data-name="Grupo 1174283" transform="translate(1853.74 663.941)">
        <path id="Trazado_1027442" data-name="Trazado 1027442" d="M2415.525,1545.166h20.934a4.858,4.858,0,0,1,4.844,4.844v10.348a4.859,4.859,0,0,1-4.844,4.844h-20.934a4.859,4.859,0,0,1-4.844-4.844V1550.01a4.858,4.858,0,0,1,2.627-4.3A4.8,4.8,0,0,1,2415.525,1545.166Z" transform="translate(-2410.681 -1545.166)" fill="#654a66"/>
      </g>
      <g id="Grupo_1174284" data-name="Grupo 1174284" transform="translate(1792.513 418.991)">
        <rect id="Rectángulo_414503" data-name="Rectángulo 414503" width="36.09" height="25.83" rx="12.915" fill="#b35086"/>
      </g>
      <g id="Grupo_1174285" data-name="Grupo 1174285" transform="translate(1799.35 427.109)">
        <rect id="Rectángulo_414504" data-name="Rectángulo 414504" width="3.061" height="3.061" fill="#fff"/>
      </g>
      <g id="Grupo_1174286" data-name="Grupo 1174286" transform="translate(1799.35 433.641)">
        <rect id="Rectángulo_414505" data-name="Rectángulo 414505" width="3.061" height="3.061" fill="#fff"/>
      </g>
      <g id="Grupo_1174288" data-name="Grupo 1174288" transform="translate(1861.196 666.104)">
        <g id="Grupo_1174287" data-name="Grupo 1174287" transform="translate(0)">
          <path id="Trazado_1027443" data-name="Trazado 1027443" d="M2447.88,1569.388a7.856,7.856,0,1,1,7.856-7.856A7.865,7.865,0,0,1,2447.88,1569.388Zm0-14.7a6.839,6.839,0,1,0,6.839,6.839A6.847,6.847,0,0,0,2447.88,1554.692Z" transform="translate(-2440.024 -1553.676)" fill="#3b2a3a"/>
        </g>
      </g>
      <g id="Grupo_1174289" data-name="Grupo 1174289" transform="translate(2025.555 518.354)">
        <circle id="Elipse_12058" data-name="Elipse 12058" cx="6.939" cy="6.939" r="6.939" transform="translate(0 5.311) rotate(-22.5)" fill="#b35086"/>
      </g>
      <g id="Grupo_1174291" data-name="Grupo 1174291" transform="translate(2035.282 510.585)">
        <g id="Grupo_1174290" data-name="Grupo 1174290" transform="translate(0 0)">
          <path id="Trazado_1027444" data-name="Trazado 1027444" d="M3128.148,947.5a2.957,2.957,0,1,1,2.958-2.957A2.96,2.96,0,0,1,3128.148,947.5Zm0-4.9a1.941,1.941,0,1,0,1.942,1.941A1.943,1.943,0,0,0,3128.148,942.607Z" transform="translate(-3125.191 -941.59)" fill="#3b2a3a"/>
        </g>
      </g>
      <g id="Grupo_1174293" data-name="Grupo 1174293" transform="translate(2012.576 532.832)">
        <g id="Grupo_1174292" data-name="Grupo 1174292" transform="translate(0 0)">
          <path id="Trazado_1027445" data-name="Trazado 1027445" d="M3038.985,1035.469a3.161,3.161,0,1,1,3.161-3.161A3.165,3.165,0,0,1,3038.985,1035.469Zm0-5.306a2.145,2.145,0,1,0,2.145,2.145A2.147,2.147,0,0,0,3038.985,1030.162Z" transform="translate(-3035.823 -1029.146)" fill="#3b2a3a"/>
        </g>
      </g>
      <g id="Grupo_1174294" data-name="Grupo 1174294" transform="translate(1964.336 443.09)">
        <circle id="Elipse_12059" data-name="Elipse 12059" cx="5.306" cy="5.306" r="5.306" transform="translate(0)" fill="#d86f54"/>
      </g>
      <g id="Grupo_1174296" data-name="Grupo 1174296" transform="translate(1959.665 427.561)">
        <g id="Grupo_1174295" data-name="Grupo 1174295" transform="translate(0)">
          <path id="Trazado_1027446" data-name="Trazado 1027446" d="M2829.841,619.35a2.264,2.264,0,1,1,2.264-2.264A2.266,2.266,0,0,1,2829.841,619.35Zm0-3.511a1.248,1.248,0,1,0,1.248,1.247A1.249,1.249,0,0,0,2829.841,615.838Z" transform="translate(-2827.577 -614.822)" fill="#3b2a3a"/>
        </g>
      </g>
      <g id="Grupo_1174298" data-name="Grupo 1174298" transform="translate(1978.773 486.452)">
        <g id="Grupo_1174297" data-name="Grupo 1174297" transform="translate(0 0)">
          <path id="Trazado_1027447" data-name="Trazado 1027447" d="M2905.044,851.132a2.264,2.264,0,1,1,2.264-2.264A2.266,2.266,0,0,1,2905.044,851.132Zm0-3.511a1.248,1.248,0,1,0,1.248,1.247A1.249,1.249,0,0,0,2905.044,847.62Z" transform="translate(-2902.781 -846.604)" fill="#3b2a3a"/>
        </g>
      </g>
      <g id="Grupo_1174300" data-name="Grupo 1174300" transform="translate(1768.464 565.889)">
        <g id="Grupo_1174299" data-name="Grupo 1174299" transform="translate(0 0)">
          <path id="Trazado_1027448" data-name="Trazado 1027448" d="M2077.315,1163.781a2.264,2.264,0,1,1,2.264-2.264A2.266,2.266,0,0,1,2077.315,1163.781Zm0-3.511a1.247,1.247,0,1,0,1.248,1.248A1.249,1.249,0,0,0,2077.315,1160.27Z" transform="translate(-2075.051 -1159.253)" fill="#3b2a3a"/>
        </g>
      </g>
      <g id="Grupo_1174301" data-name="Grupo 1174301" transform="translate(1916.367 378.771)">
        <circle id="Elipse_12060" data-name="Elipse 12060" cx="4.669" cy="4.669" r="4.669" transform="translate(0 3.85) rotate(-24.351)" fill="#6675f1"/>
      </g>
      <g id="Grupo_1174302" data-name="Grupo 1174302" transform="translate(1847.654 405.519)">
        <circle id="Elipse_12061" data-name="Elipse 12061" cx="9.592" cy="9.592" r="9.592" transform="translate(0 13.566) rotate(-45)" fill="#fcd388"/>
      </g>
      <g id="Grupo_1174304" data-name="Grupo 1174304" transform="translate(1864.436 400.871)">
        <g id="Grupo_1174303" data-name="Grupo 1174303">
          <path id="Trazado_1027449" data-name="Trazado 1027449" d="M2456.7,517.633a3.927,3.927,0,1,1,3.926-3.927A3.932,3.932,0,0,1,2456.7,517.633Zm0-6.837a2.91,2.91,0,1,0,2.91,2.91A2.914,2.914,0,0,0,2456.7,510.8Z" transform="translate(-2452.776 -509.779)" fill="#3b2a3a"/>
        </g>
      </g>
      <g id="Grupo_1174306" data-name="Grupo 1174306" transform="translate(2036.762 575.185)">
        <g id="Grupo_1174305" data-name="Grupo 1174305" transform="translate(0)">
          <path id="Trazado_1027450" data-name="Trazado 1027450" d="M3137.066,1207.942a6.051,6.051,0,1,1,6.05-6.051A6.058,6.058,0,0,1,3137.066,1207.942Zm0-11.085a5.035,5.035,0,1,0,5.034,5.034A5.04,5.04,0,0,0,3137.066,1196.856Z" transform="translate(-3131.015 -1195.84)" fill="#3b2a3a"/>
        </g>
      </g>
      <g id="Grupo_1174308" data-name="Grupo 1174308" transform="translate(1805.475 428.132)">
        <g id="Grupo_1174307" data-name="Grupo 1174307">
          <path id="Trazado_1027451" data-name="Trazado 1027451" d="M2235.9,618.087h-14.671a.508.508,0,0,1,0-1.016H2235.9a.508.508,0,1,1,0,1.016Z" transform="translate(-2220.718 -617.071)" fill="#3b2a3a"/>
        </g>
      </g>
      <g id="Grupo_1174310" data-name="Grupo 1174310" transform="translate(1805.475 434.663)">
        <g id="Grupo_1174309" data-name="Grupo 1174309" transform="translate(0 0)">
          <path id="Trazado_1027452" data-name="Trazado 1027452" d="M2229.8,643.793h-8.572a.508.508,0,0,1,0-1.016h8.572a.508.508,0,1,1,0,1.016Z" transform="translate(-2220.718 -642.777)" fill="#3b2a3a"/>
        </g>
      </g>
      <g id="Grupo_1174317" data-name="Grupo 1174317" transform="translate(1963.828 474.7)">
        <g id="Grupo_1174312" data-name="Grupo 1174312" transform="translate(0 54.747)">
          <g id="Grupo_1174311" data-name="Grupo 1174311">
            <path id="Trazado_1027453" data-name="Trazado 1027453" d="M2845.995,1016.842h-1.524a.508.508,0,1,1,0-1.016h1.524a.508.508,0,1,1,0,1.016Z" transform="translate(-2843.962 -1015.826)" fill="#3b2a3a"/>
          </g>
        </g>
        <g id="Grupo_1174314" data-name="Grupo 1174314" transform="translate(4.494 4.507)">
          <g id="Grupo_1174313" data-name="Grupo 1174313">
            <path id="Trazado_1027454" data-name="Trazado 1027454" d="M2882.941,869.348h-2.969a.508.508,0,1,1,0-1.016h2.969a.508.508,0,0,1,0,1.016Zm-5.939,0h-2.969a.508.508,0,1,1,0-1.016H2877a.508.508,0,1,1,0,1.016Zm-5.938,0h-2.969a.508.508,0,0,1,0-1.016h2.969a.508.508,0,0,1,0,1.016Zm-5.938,0h-2.969a.508.508,0,0,1,0-1.016h2.969a.508.508,0,0,1,0,1.016Zm20.778-.13a.508.508,0,0,1-.05-1.014,25.25,25.25,0,0,0,2.872-.456.508.508,0,1,1,.217.993,26.415,26.415,0,0,1-2.988.475Zm5.789-1.266a.508.508,0,0,1-.165-.989,25.121,25.121,0,0,0,2.691-1.1.508.508,0,0,1,.44.916,26.182,26.182,0,0,1-2.8,1.15A.507.507,0,0,1,2891.693,867.952Zm5.343-2.564a.508.508,0,0,1-.272-.938,25.448,25.448,0,0,0,2.367-1.691.508.508,0,1,1,.637.791,26.484,26.484,0,0,1-2.461,1.759A.506.506,0,0,1,2897.036,865.388Zm4.615-3.716a.508.508,0,0,1-.362-.865,25.516,25.516,0,0,0,1.92-2.185.508.508,0,0,1,.8.626,26.567,26.567,0,0,1-2,2.272A.507.507,0,0,1,2901.65,861.672Zm3.648-4.666a.508.508,0,0,1-.433-.773,25.431,25.431,0,0,0,1.371-2.563.508.508,0,1,1,.922.427,26.242,26.242,0,0,1-1.426,2.667A.508.508,0,0,1,2905.3,857.006Zm2.486-5.375a.508.508,0,0,1-.482-.667,25.135,25.135,0,0,0,.745-2.81.508.508,0,1,1,1,.2,26.261,26.261,0,0,1-.775,2.925A.509.509,0,0,1,2907.784,851.631Zm1.185-5.8-.044,0a.508.508,0,0,1-.463-.55c.062-.722.094-1.46.094-2.193v-.729a.508.508,0,1,1,1.016,0v.729c0,.762-.033,1.529-.1,2.28A.508.508,0,0,1,2908.968,845.827Zm.1-5.935a.508.508,0,0,1-.508-.508v-2.969a.508.508,0,1,1,1.016,0v2.969A.508.508,0,0,1,2909.064,839.892Zm0-5.939a.508.508,0,0,1-.508-.508v-2.969a.508.508,0,1,1,1.016,0v2.969A.508.508,0,0,1,2909.064,833.953Zm0-5.939a.508.508,0,0,1-.508-.508v-2.969a.508.508,0,1,1,1.016,0v2.969A.508.508,0,0,1,2909.064,828.015Zm0-5.938a.508.508,0,0,1-.508-.508V818.6a.508.508,0,1,1,1.016,0v2.969A.508.508,0,0,1,2909.064,822.076Z" transform="translate(-2861.648 -818.091)" fill="#3b2a3a"/>
          </g>
        </g>
        <g id="Grupo_1174316" data-name="Grupo 1174316" transform="translate(51.401 0)">
          <g id="Grupo_1174315" data-name="Grupo 1174315">
            <path id="Trazado_1027455" data-name="Trazado 1027455" d="M3046.774,802.893a.508.508,0,0,1-.508-.508V800.86a.508.508,0,0,1,1.016,0v1.525A.508.508,0,0,1,3046.774,802.893Z" transform="translate(-3046.266 -800.352)" fill="#3b2a3a"/>
          </g>
        </g>
      </g>
      <g id="Grupo_1174320" data-name="Grupo 1174320" transform="translate(1984.727 456.832)">
        <g id="Grupo_1174318" data-name="Grupo 1174318" transform="translate(0.381 0.381)">
          <path id="Trazado_1027456" data-name="Trazado 1027456" d="M2981.989,749.61h-54.274c0-5.2,3.848-9.423,8.6-9.423a7.976,7.976,0,0,1,3.952,1.054,16.381,16.381,0,0,1,14.623-9.712c7.1,0,13.15,4.916,15.477,11.813a5.335,5.335,0,0,1,1.167-.129,5.747,5.747,0,0,1,4.979,3.071,3.337,3.337,0,0,1,1.895-.6A3.767,3.767,0,0,1,2981.989,749.61Z" transform="translate(-2927.714 -731.528)" fill="#fff"/>
        </g>
        <g id="Grupo_1174319" data-name="Grupo 1174319" transform="translate(0 0)">
          <path id="Trazado_1027457" data-name="Trazado 1027457" d="M2980.869,748.872H2926.6a.381.381,0,0,1-.381-.381c0-5.406,4.027-9.8,8.978-9.8a8.264,8.264,0,0,1,3.784.912,16.67,16.67,0,0,1,14.791-9.57c6.935,0,13.216,4.711,15.729,11.758a5.708,5.708,0,0,1,.916-.074,6.044,6.044,0,0,1,5.11,2.926,3.688,3.688,0,0,1,1.765-.454,4.151,4.151,0,0,1,3.965,4.307A.381.381,0,0,1,2980.869,748.872Zm-53.885-.762h53.487a3.348,3.348,0,0,0-3.185-3.164,2.965,2.965,0,0,0-1.68.532.381.381,0,0,1-.548-.129,5.341,5.341,0,0,0-4.647-2.875,4.967,4.967,0,0,0-1.084.12.382.382,0,0,1-.445-.25c-2.331-6.911-8.406-11.554-15.115-11.554-6.012,0-11.483,3.638-14.279,9.5a.381.381,0,0,1-.532.167,7.544,7.544,0,0,0-3.764-1C2930.778,739.449,2927.166,743.3,2926.984,748.11Z" transform="translate(-2926.214 -730.028)" fill="#401e3e"/>
        </g>
      </g>
      <g id="Grupo_1174322" data-name="Grupo 1174322" transform="translate(1802.131 472.008)">
        <g id="Grupo_1174321" data-name="Grupo 1174321" transform="translate(0)">
          <path id="Trazado_1027458" data-name="Trazado 1027458" d="M2212.385,800.342a.508.508,0,0,1-.393-.186l-4.321-5.275a.508.508,0,1,1,.786-.644l3.89,4.748,6.119-9.007a.508.508,0,0,1,.841.571l-6.5,9.57a.509.509,0,0,1-.4.222Z" transform="translate(-2207.556 -789.757)" fill="#3b2a3a"/>
        </g>
      </g>
      <g id="Grupo_1174331" data-name="Grupo 1174331" transform="translate(1969.137 475.845)">
        <g id="Grupo_1174324" data-name="Grupo 1174324" transform="translate(5.303 0)">
          <g id="Grupo_1174323" data-name="Grupo 1174323">
            <path id="Trazado_1027459" data-name="Trazado 1027459" d="M2886.239,810a.508.508,0,0,1-.508-.508v-4.127a.508.508,0,1,1,1.016,0v4.127A.508.508,0,0,1,2886.239,810Z" transform="translate(-2885.731 -804.859)" fill="#3b2a3a"/>
          </g>
        </g>
        <g id="Grupo_1174326" data-name="Grupo 1174326" transform="translate(5.303 6.48)">
          <g id="Grupo_1174325" data-name="Grupo 1174325">
            <path id="Trazado_1027460" data-name="Trazado 1027460" d="M2886.239,835.506a.508.508,0,0,1-.508-.508v-4.127a.508.508,0,1,1,1.016,0V835A.508.508,0,0,1,2886.239,835.506Z" transform="translate(-2885.731 -830.363)" fill="#3b2a3a"/>
          </g>
        </g>
        <g id="Grupo_1174328" data-name="Grupo 1174328" transform="translate(6.48 5.303)">
          <g id="Grupo_1174327" data-name="Grupo 1174327">
            <path id="Trazado_1027461" data-name="Trazado 1027461" d="M2895,826.747h-4.126a.508.508,0,0,1,0-1.016H2895a.508.508,0,1,1,0,1.016Z" transform="translate(-2890.362 -825.731)" fill="#3b2a3a"/>
          </g>
        </g>
        <g id="Grupo_1174330" data-name="Grupo 1174330" transform="translate(0 5.303)">
          <g id="Grupo_1174329" data-name="Grupo 1174329">
            <path id="Trazado_1027462" data-name="Trazado 1027462" d="M2869.494,826.747h-4.126a.508.508,0,1,1,0-1.016h4.126a.508.508,0,0,1,0,1.016Z" transform="translate(-2864.859 -825.731)" fill="#3b2a3a"/>
          </g>
        </g>
      </g>
      <g id="Grupo_1174340" data-name="Grupo 1174340" transform="translate(2009.926 601.605)">
        <g id="Grupo_1174333" data-name="Grupo 1174333" transform="translate(5.304 0)">
          <g id="Grupo_1174332" data-name="Grupo 1174332">
            <path id="Trazado_1027463" data-name="Trazado 1027463" d="M3046.774,1304.966a.508.508,0,0,1-.508-.508v-4.127a.508.508,0,1,1,1.016,0v4.127A.508.508,0,0,1,3046.774,1304.966Z" transform="translate(-3046.266 -1299.823)" fill="#3b2a3a"/>
          </g>
        </g>
        <g id="Grupo_1174335" data-name="Grupo 1174335" transform="translate(5.304 6.48)">
          <g id="Grupo_1174334" data-name="Grupo 1174334">
            <path id="Trazado_1027464" data-name="Trazado 1027464" d="M3046.774,1330.469a.508.508,0,0,1-.508-.508v-4.126a.508.508,0,1,1,1.016,0v4.126A.508.508,0,0,1,3046.774,1330.469Z" transform="translate(-3046.266 -1325.326)" fill="#3b2a3a"/>
          </g>
        </g>
        <g id="Grupo_1174337" data-name="Grupo 1174337" transform="translate(6.48 5.303)">
          <g id="Grupo_1174336" data-name="Grupo 1174336">
            <path id="Trazado_1027465" data-name="Trazado 1027465" d="M3055.531,1321.711H3051.4a.508.508,0,0,1,0-1.016h4.127a.508.508,0,1,1,0,1.016Z" transform="translate(-3050.896 -1320.695)" fill="#3b2a3a"/>
          </g>
        </g>
        <g id="Grupo_1174339" data-name="Grupo 1174339" transform="translate(0 5.303)">
          <g id="Grupo_1174338" data-name="Grupo 1174338">
            <path id="Trazado_1027466" data-name="Trazado 1027466" d="M3030.027,1321.711H3025.9a.508.508,0,0,1,0-1.016h4.127a.508.508,0,1,1,0,1.016Z" transform="translate(-3025.392 -1320.695)" fill="#3b2a3a"/>
          </g>
        </g>
      </g>
      <g id="Grupo_1174349" data-name="Grupo 1174349" transform="translate(1841.806 393.156)">
        <g id="Grupo_1174342" data-name="Grupo 1174342" transform="translate(5.303)">
          <g id="Grupo_1174341" data-name="Grupo 1174341">
            <path id="Trazado_1027467" data-name="Trazado 1027467" d="M2385.091,484.555a.508.508,0,0,1-.508-.508V479.92a.508.508,0,0,1,1.016,0v4.126A.508.508,0,0,1,2385.091,484.555Z" transform="translate(-2384.583 -479.412)" fill="#3b2a3a"/>
          </g>
        </g>
        <g id="Grupo_1174344" data-name="Grupo 1174344" transform="translate(5.303 6.48)">
          <g id="Grupo_1174343" data-name="Grupo 1174343">
            <path id="Trazado_1027468" data-name="Trazado 1027468" d="M2385.091,510.058a.508.508,0,0,1-.508-.508v-4.127a.508.508,0,0,1,1.016,0v4.127A.508.508,0,0,1,2385.091,510.058Z" transform="translate(-2384.583 -504.915)" fill="#3b2a3a"/>
          </g>
        </g>
        <g id="Grupo_1174346" data-name="Grupo 1174346" transform="translate(6.48 5.303)">
          <g id="Grupo_1174345" data-name="Grupo 1174345">
            <path id="Trazado_1027469" data-name="Trazado 1027469" d="M2393.85,501.3h-4.126a.508.508,0,1,1,0-1.016h4.126a.508.508,0,0,1,0,1.016Z" transform="translate(-2389.216 -500.284)" fill="#3b2a3a"/>
          </g>
        </g>
        <g id="Grupo_1174348" data-name="Grupo 1174348" transform="translate(0 5.303)">
          <g id="Grupo_1174347" data-name="Grupo 1174347">
            <path id="Trazado_1027470" data-name="Trazado 1027470" d="M2368.346,501.3h-4.126a.508.508,0,1,1,0-1.016h4.126a.508.508,0,0,1,0,1.016Z" transform="translate(-2363.711 -500.284)" fill="#3b2a3a"/>
          </g>
        </g>
      </g>
      <g id="Grupo_1174351" data-name="Grupo 1174351" transform="translate(1772.64 441.233)">
        <g id="Grupo_1174350" data-name="Grupo 1174350">
          <path id="Trazado_1027471" data-name="Trazado 1027471" d="M2099.107,675.808h-7.112a.508.508,0,0,1-.44-.762l3.556-6.16a.508.508,0,0,1,.88,0l3.557,6.16a.508.508,0,0,1-.44.762Zm-6.232-1.016h5.352l-2.676-4.635Z" transform="translate(-2091.486 -668.632)" fill="#3b2a3a"/>
        </g>
      </g>
      <g id="Grupo_1174353" data-name="Grupo 1174353" transform="translate(1961.421 551.405)">
        <g id="Grupo_1174352" data-name="Grupo 1174352">
          <path id="Trazado_1027472" data-name="Trazado 1027472" d="M2844.775,1111.734H2835a.508.508,0,0,1-.44-.762l4.89-8.47a.508.508,0,0,1,.88,0l4.89,8.47a.508.508,0,0,1-.44.762Zm-8.9-1.017h8.02l-4.01-6.945Z" transform="translate(-2834.487 -1102.248)" fill="#3b2a3a"/>
        </g>
      </g>
      <g id="Grupo_1174360" data-name="Grupo 1174360" transform="translate(1904.101 597.529)">
        <g id="Grupo_1174355" data-name="Grupo 1174355">
          <g id="Grupo_1174354" data-name="Grupo 1174354">
            <path id="Trazado_1027473" data-name="Trazado 1027473" d="M2610.922,1284.8H2609.4a.508.508,0,0,1,0-1.016h1.525a.508.508,0,1,1,0,1.016Z" transform="translate(-2608.889 -1283.779)" fill="#3b2a3a"/>
          </g>
        </g>
        <g id="Grupo_1174357" data-name="Grupo 1174357" transform="translate(4.515 0.371)">
          <g id="Grupo_1174356" data-name="Grupo 1174356">
            <path id="Trazado_1027474" data-name="Trazado 1027474" d="M2636.992,1332.965a.508.508,0,0,1-.508-.508v-3.02a.508.508,0,0,1,1.016,0v3.02A.508.508,0,0,1,2636.992,1332.965Zm0-6.04a.508.508,0,0,1-.508-.508v-3.02a.508.508,0,1,1,1.016,0v3.02A.508.508,0,0,1,2636.992,1326.925Zm0-6.04a.508.508,0,0,1-.508-.509v-3.02a.508.508,0,0,1,1.016,0v3.02A.508.508,0,0,1,2636.992,1320.885Zm0-6.04a.508.508,0,0,1-.508-.508v-3.02a.508.508,0,0,1,1.016,0v3.02A.508.508,0,0,1,2636.992,1314.845Zm0-6.04a.508.508,0,0,1-.508-.508v-3.02a.508.508,0,1,1,1.016,0v3.02A.508.508,0,0,1,2636.992,1308.805Zm0-6.04a.508.508,0,0,1-.508-.508v-3.02a.508.508,0,1,1,1.016,0v3.02A.509.509,0,0,1,2636.992,1302.765Zm-.163-6.031a.508.508,0,0,1-.5-.428,12.346,12.346,0,0,0-.79-2.783.508.508,0,0,1,.938-.39,13.341,13.341,0,0,1,.855,3.013.507.507,0,0,1-.5.588Zm-2.3-5.524a.508.508,0,0,1-.412-.209,12.484,12.484,0,0,0-1.962-2.128.508.508,0,0,1,.662-.771,13.543,13.543,0,0,1,2.123,2.3.507.507,0,0,1-.113.709A.5.5,0,0,1,2634.532,1291.21Zm-4.542-3.9a.505.505,0,0,1-.232-.057,12.34,12.34,0,0,0-2.71-1.014.508.508,0,1,1,.243-.987,13.333,13.333,0,0,1,2.933,1.1.508.508,0,0,1-.233.96Z" transform="translate(-2626.66 -1285.239)" fill="#3b2a3a"/>
          </g>
        </g>
        <g id="Grupo_1174359" data-name="Grupo 1174359" transform="translate(14.339 50.111)">
          <g id="Grupo_1174358" data-name="Grupo 1174358">
            <path id="Trazado_1027475" data-name="Trazado 1027475" d="M2665.831,1483.546a.508.508,0,0,1-.508-.508v-1.525a.508.508,0,0,1,1.016,0v1.525A.508.508,0,0,1,2665.831,1483.546Z" transform="translate(-2665.323 -1481.005)" fill="#3b2a3a"/>
          </g>
        </g>
      </g>
      <g id="Grupo_1174363" data-name="Grupo 1174363" transform="translate(1890.536 635.796)">
        <g id="Grupo_1174361" data-name="Grupo 1174361" transform="translate(0.508 0.508)">
          <circle id="Elipse_12062" data-name="Elipse 12062" cx="16.779" cy="16.779" r="16.779" fill="#fff"/>
        </g>
        <g id="Grupo_1174362" data-name="Grupo 1174362" transform="translate(0 0)">
          <path id="Trazado_1027476" data-name="Trazado 1027476" d="M2572.789,1468.966a17.287,17.287,0,1,1,17.288-17.287A17.307,17.307,0,0,1,2572.789,1468.966Zm0-33.558a16.271,16.271,0,1,0,16.271,16.271A16.289,16.289,0,0,0,2572.789,1435.407Z" transform="translate(-2555.501 -1434.391)" fill="#401e3e"/>
        </g>
      </g>
      <g id="Grupo_1174365" data-name="Grupo 1174365" transform="translate(1907.315 642.072)">
        <g id="Grupo_1174364" data-name="Grupo 1174364" transform="translate(0)">
          <path id="Trazado_1027477" data-name="Trazado 1027477" d="M2633.173,1470.612H2621.54V1459.6a.508.508,0,1,1,1.016,0v10h10.616a.508.508,0,0,1,0,1.016Z" transform="translate(-2621.54 -1459.092)" fill="#3b2a3a"/>
        </g>
      </g>
      <g id="Grupo_1174366" data-name="Grupo 1174366" transform="translate(1966.819 571.923)">
        <path id="Trazado_1027478" data-name="Trazado 1027478" d="M2855.733,1230.823s19.785-10.228,14.582-9.089c-9.634,2.109,2.143-15.528,10.715-22.569s33.061-5.083,37.807-16.165A31.09,31.09,0,0,1,2902,1200.389C2888.989,1205.9,2892.5,1219.911,2855.733,1230.823Z" transform="translate(-2855.733 -1183)" fill="#969946"/>
      </g>
      <g id="Grupo_1174367" data-name="Grupo 1174367" transform="translate(1954.317 645.204)">
        <path id="Trazado_1027479" data-name="Trazado 1027479" d="M2806.527,1476.672s2.286,4.521,14.991,3.449,16.378.408,14.083-4.235,6.428-7.143,14.235,0,13.665,4.235,16.935,10.2,13.221,9.4,18.731,3.246c0,0-2.3,6.955-24.645,5.375s-15.872-12.2-20.511-13.214C2830.243,1479.3,2811.894,1486.54,2806.527,1476.672Z" transform="translate(-2806.527 -1471.418)" fill="#969946"/>
      </g>
      <g id="Grupo_1174369" data-name="Grupo 1174369" transform="translate(1782.834 503.887)">
        <g id="Grupo_1174368" data-name="Grupo 1174368">
          <path id="Trazado_1027480" data-name="Trazado 1027480" d="M2250.045,916.242h-117.93a.508.508,0,0,1,0-1.016h117.93a.508.508,0,0,1,0,1.016Z" transform="translate(-2131.607 -915.226)" fill="#3b2a3a"/>
        </g>
      </g>
      <g id="Grupo_1174371" data-name="Grupo 1174371" transform="translate(1782.834 556.955)">
        <g id="Grupo_1174370" data-name="Grupo 1174370">
          <path id="Trazado_1027481" data-name="Trazado 1027481" d="M2250.045,1125.107h-117.93a.508.508,0,1,1,0-1.016h117.93a.508.508,0,1,1,0,1.016Z" transform="translate(-2131.607 -1124.091)" fill="#3b2a3a"/>
        </g>
      </g>
      <g id="Grupo_1174373" data-name="Grupo 1174373" transform="translate(1782.834 610.023)">
        <g id="Grupo_1174372" data-name="Grupo 1174372">
          <path id="Trazado_1027482" data-name="Trazado 1027482" d="M2253.383,1333.971H2132.115a.508.508,0,0,1,0-1.017h121.268a.508.508,0,0,1,0,1.017Z" transform="translate(-2131.607 -1332.955)" fill="#3b2a3a"/>
        </g>
      </g>
      <g id="Grupo_1174375" data-name="Grupo 1174375" transform="translate(1782.834 450.818)">
        <g id="Grupo_1174374" data-name="Grupo 1174374" transform="translate(0 0)">
          <path id="Trazado_1027483" data-name="Trazado 1027483" d="M2253.383,707.376H2132.115a.508.508,0,0,1,0-1.016h121.268a.508.508,0,0,1,0,1.016Z" transform="translate(-2131.607 -706.36)" fill="#3b2a3a"/>
        </g>
      </g>
      <g id="Grupo_1174398" data-name="Grupo 1174398" transform="translate(1889.865 491.501)">
        <g id="Grupo_1174376" data-name="Grupo 1174376" transform="translate(0 0)">
          <rect id="Rectángulo_414506" data-name="Rectángulo 414506" width="62.452" height="25.83" rx="12.915" fill="#d86f54"/>
        </g>
        <g id="Grupo_1174377" data-name="Grupo 1174377" transform="translate(0 47.084)">
          <rect id="Rectángulo_414507" data-name="Rectángulo 414507" width="62.452" height="25.83" rx="12.915" fill="#fcd388"/>
        </g>
        <g id="Grupo_1174378" data-name="Grupo 1174378" transform="translate(6.837 8.118)">
          <rect id="Rectángulo_414508" data-name="Rectángulo 414508" width="3.061" height="3.061" fill="#fff"/>
        </g>
        <g id="Grupo_1174379" data-name="Grupo 1174379" transform="translate(6.837 14.65)">
          <rect id="Rectángulo_414509" data-name="Rectángulo 414509" width="3.061" height="3.061" fill="#fff"/>
        </g>
        <g id="Grupo_1174380" data-name="Grupo 1174380" transform="translate(6.837 55.202)">
          <rect id="Rectángulo_414510" data-name="Rectángulo 414510" width="3.061" height="3.061" fill="#fff"/>
        </g>
        <g id="Grupo_1174381" data-name="Grupo 1174381" transform="translate(6.837 61.733)">
          <rect id="Rectángulo_414511" data-name="Rectángulo 414511" width="3.061" height="3.061" fill="#fff"/>
        </g>
        <g id="Grupo_1174383" data-name="Grupo 1174383" transform="translate(12.962 9.141)">
          <g id="Grupo_1174382" data-name="Grupo 1174382">
            <path id="Trazado_1027484" data-name="Trazado 1027484" d="M2632.139,903.469h-27.756a.508.508,0,1,1,0-1.016h27.756a.508.508,0,1,1,0,1.016Z" transform="translate(-2603.874 -902.453)" fill="#3b2a3a"/>
          </g>
        </g>
        <g id="Grupo_1174385" data-name="Grupo 1174385" transform="translate(43.372 9.141)">
          <g id="Grupo_1174384" data-name="Grupo 1174384">
            <path id="Trazado_1027485" data-name="Trazado 1027485" d="M2731.007,903.469h-6.939a.508.508,0,0,1,0-1.016h6.939a.508.508,0,0,1,0,1.016Z" transform="translate(-2723.561 -902.453)" fill="#3b2a3a"/>
          </g>
        </g>
        <g id="Grupo_1174387" data-name="Grupo 1174387" transform="translate(12.962 15.672)">
          <g id="Grupo_1174386" data-name="Grupo 1174386">
            <path id="Trazado_1027486" data-name="Trazado 1027486" d="M2622.138,929.176h-17.756a.508.508,0,1,1,0-1.016h17.756a.508.508,0,1,1,0,1.016Z" transform="translate(-2603.874 -928.16)" fill="#3b2a3a"/>
          </g>
        </g>
        <g id="Grupo_1174389" data-name="Grupo 1174389" transform="translate(33.626 15.672)">
          <g id="Grupo_1174388" data-name="Grupo 1174388">
            <path id="Trazado_1027487" data-name="Trazado 1027487" d="M2695.458,929.176h-9.745a.508.508,0,1,1,0-1.016h9.745a.508.508,0,0,1,0,1.016Z" transform="translate(-2685.204 -928.16)" fill="#3b2a3a"/>
          </g>
        </g>
        <g id="Grupo_1174391" data-name="Grupo 1174391" transform="translate(12.962 56.225)">
          <g id="Grupo_1174390" data-name="Grupo 1174390">
            <path id="Trazado_1027488" data-name="Trazado 1027488" d="M2616.219,1088.781h-11.837a.508.508,0,1,1,0-1.016h11.837a.508.508,0,1,1,0,1.016Z" transform="translate(-2603.874 -1087.764)" fill="#3b2a3a"/>
          </g>
        </g>
        <g id="Grupo_1174393" data-name="Grupo 1174393" transform="translate(28.49 56.225)">
          <g id="Grupo_1174392" data-name="Grupo 1174392">
            <path id="Trazado_1027489" data-name="Trazado 1027489" d="M2691.3,1088.781h-25.8a.508.508,0,1,1,0-1.016h25.8a.508.508,0,0,1,0,1.016Z" transform="translate(-2664.989 -1087.764)" fill="#3b2a3a"/>
          </g>
        </g>
        <g id="Grupo_1174395" data-name="Grupo 1174395" transform="translate(12.962 62.756)">
          <g id="Grupo_1174394" data-name="Grupo 1174394">
            <path id="Trazado_1027490" data-name="Trazado 1027490" d="M2622.138,1114.487h-17.756a.508.508,0,1,1,0-1.016h17.756a.508.508,0,1,1,0,1.016Z" transform="translate(-2603.874 -1113.471)" fill="#3b2a3a"/>
          </g>
        </g>
        <g id="Grupo_1174397" data-name="Grupo 1174397" transform="translate(33.626 62.756)">
          <g id="Grupo_1174396" data-name="Grupo 1174396">
            <path id="Trazado_1027491" data-name="Trazado 1027491" d="M2695.458,1114.487h-9.745a.508.508,0,1,1,0-1.016h9.745a.508.508,0,0,1,0,1.016Z" transform="translate(-2685.204 -1113.471)" fill="#3b2a3a"/>
          </g>
        </g>
      </g>
      <g id="Grupo_1174449" data-name="Grupo 1174449" transform="translate(1664.033 433.641)">
        <g id="Grupo_1174436" data-name="Grupo 1174436" transform="translate(0 0)">
          <g id="Grupo_1174406" data-name="Grupo 1174406">
            <g id="Grupo_1174399" data-name="Grupo 1174399" transform="translate(147.308)">
              <path id="Trazado_1027492" data-name="Trazado 1027492" d="M2189.568,760.5l-4.84,10.443-3.749,3.292c-1.5,3.238-3.93,5.175-6.644,2.858l-.151-.129c-2.865-2.463.176-5.617,3.5-7.41,1.317-.71.2-2.9,1.652-3.675C2183.612,763.583,2187.97,761.272,2189.568,760.5Z" transform="translate(-2173.043 -760.497)" fill="#563b56"/>
            </g>
            <g id="Grupo_1174400" data-name="Grupo 1174400" transform="translate(143.516 5.379)">
              <path id="Trazado_1027493" data-name="Trazado 1027493" d="M2173.14,781.225a12.3,12.3,0,0,1,2.277,2.922l-4.84,10.443s-9.383-6.511-10.638-10.066c0,0,4.981-2.7,10.087-5.441A12.173,12.173,0,0,1,2173.14,781.225Z" transform="translate(-2159.94 -779.083)" fill="#fbd18c"/>
            </g>
            <g id="Grupo_1174401" data-name="Grupo 1174401" transform="translate(7.947 10.644)">
              <path id="Trazado_1027494" data-name="Trazado 1027494" d="M1833.641,801.15c2.939,2.781,4.757,5.63,4.059,6.368L1702.131,950.781l-10.638-10.066,135.569-143.263c.456-.482,1.867.056,3.606,1.259A25.341,25.341,0,0,1,1833.641,801.15Z" transform="translate(-1691.493 -797.276)" fill="#d86f54"/>
            </g>
            <g id="Grupo_1174402" data-name="Grupo 1174402" transform="translate(7.947 10.644)">
              <path id="Trazado_1027495" data-name="Trazado 1027495" d="M1830.668,798.711l-136.644,144.4-2.531-2.395,135.569-143.263C1827.519,796.969,1828.93,797.507,1830.668,798.711Z" transform="translate(-1691.493 -797.276)" fill="#f4826c"/>
            </g>
            <g id="Grupo_1174403" data-name="Grupo 1174403" transform="translate(6.7 143.487)">
              <path id="Trazado_1027496" data-name="Trazado 1027496" d="M1698.29,1256.481l-11.1,11.735,10.637,10.066,11.1-11.735c.7-.738-1.118-3.589-4.055-6.369S1698.988,1255.744,1698.29,1256.481Z" transform="translate(-1687.185 -1256.306)" fill="#fbd18c"/>
            </g>
            <g id="Grupo_1174404" data-name="Grupo 1174404" transform="translate(0.149 150.41)">
              <path id="Trazado_1027497" data-name="Trazado 1027497" d="M1675.654,1280.4l-11.1,11.735,10.637,10.066,11.1-11.735c.7-.737-1.117-3.589-4.055-6.368S1676.352,1279.665,1675.654,1280.4Z" transform="translate(-1664.549 -1280.227)" fill="#b35086"/>
            </g>
            <g id="Grupo_1174405" data-name="Grupo 1174405" transform="translate(0 162.145)">
              <path id="Trazado_1027498" data-name="Trazado 1027498" d="M1668.237,1327.321c-2.937-2.78-4.753-5.631-4.055-6.368s3.645.918,6.583,3.7,4.753,5.63,4.055,6.368S1671.175,1330.1,1668.237,1327.321Z" transform="translate(-1664.033 -1320.777)" fill="#d672ae"/>
            </g>
          </g>
          <g id="Grupo_1174407" data-name="Grupo 1174407" transform="translate(21.313 142.568)">
            <path id="Trazado_1027499" data-name="Trazado 1027499" d="M1748.675,1253.13l7.168,6.664s-2.018,2.111-4.56,4.345a30.722,30.722,0,0,1-6.573,4.7c-4.363,1.964-5.409,1.609-5.409,1.609s2.133-3.568,3.527-5.858c1-1.641,2.3-3.919,1.8-4.3s-3.335,1.8-5.1,2.215-2.578-.727-1.059-2.039,2.965-3.208,4.7-4.6a13.091,13.091,0,0,1,2.142-1.3A35.584,35.584,0,0,1,1748.675,1253.13Z" transform="translate(-1737.679 -1253.13)" fill="#fda67e"/>
          </g>
          <g id="Grupo_1174408" data-name="Grupo 1174408" transform="translate(31.366 105.05)">
            <path id="Trazado_1027500" data-name="Trazado 1027500" d="M1810.259,1141.1a5.334,5.334,0,0,1-.325.882,0,0,0,0,0,0,0c-.806,1.858-2.958,6.037-5.217,10.256-.205.383-.415.775-.62,1.163-1.448,2.682-2.9,5.293-4.014,7.24-.24.415-.468.8-.668,1.15-.566.949-.993,1.63-1.23,1.929a32.338,32.338,0,0,1-3.3,3.641,24.3,24.3,0,0,1-2.143,1.8c-3.649,2.709-7.147,3.529-10.185,3.088-.129-.018-.259-.04-.388-.062-.187-.036-.379-.076-.566-.121-.209-.049-.423-.107-.628-.169a10.757,10.757,0,0,1-2.575-1.163,12.04,12.04,0,0,1-3.239-2.914,13.067,13.067,0,0,1-2.29-4.554c-.058-.2-.111-.41-.156-.619-.04-.174-.076-.343-.1-.513-1.149-6.224,3.164-8.679,6.381-12.939,1.083-1.439,2.1-2.816,3.044-4.144l.432-.606c.272-.384.543-.762.8-1.136l.036-.049c1.907-2.731,3.52-5.2,4.879-7.4.227-.374.45-.735.664-1.092q.274-.454.535-.9c.383-.642.739-1.257,1.074-1.845a61.541,61.541,0,0,0,4.229-8.546s2.7,2.255,5.864,5.2c4.193,3.9,9.174,9.023,9.691,11.7A1.77,1.77,0,0,1,1810.259,1141.1Z" transform="translate(-1772.415 -1123.488)" fill="#6675f1"/>
          </g>
          <g id="Grupo_1174409" data-name="Grupo 1174409" transform="translate(63.805 234.658)">
            <path id="Trazado_1027501" data-name="Trazado 1027501" d="M1892.281,1590.011v-3.253l4.673,1.525.086.028a38.467,38.467,0,0,0,11.859,1.809h12.072c-1.978-6.558-5.446-4-11.214-7.751a24.128,24.128,0,0,1-8.246-9s-15.586-5.523-16.57,1.664a66.423,66.423,0,0,0,0,14.98Z" transform="translate(-1884.504 -1571.339)" fill="#3b2a3a"/>
          </g>
          <g id="Grupo_1174410" data-name="Grupo 1174410" transform="translate(56.244 121.175)">
            <path id="Trazado_1027502" data-name="Trazado 1027502" d="M1893.076,1296.526h-34.7s.352-4.473.847-11.41c.013-.138.022-.277.031-.419s.022-.312.036-.472c.027-.383.058-.775.085-1.172,1.283-17.965,3.337-49.305,3.292-64.953v-.164c0-.53,0-1.047-.009-1.542v0c0-.129,0-.254-.009-.383-.031-2.107-.116-3.836-.263-5.083a90.914,90.914,0,0,1-.624-9.415c-.009-.3-.009-.6-.009-.891,0-.677.009-1.328.027-1.96.022-.82.058-1.6.1-2.344.543-8.653,2.593-12.529,2.593-12.529l7.285-3.159,3.243-1.4.027-.013a.035.035,0,0,0,0,.013c.28.74,13.162,34.771,15.938,50.072a27.263,27.263,0,0,1,.526,4.642c0,7.784.74,34.38,1.208,50.29l.027.891C1892.933,1291.9,1893.076,1296.526,1893.076,1296.526Z" transform="translate(-1858.38 -1179.206)" fill="#97586a"/>
          </g>
          <g id="Grupo_1174411" data-name="Grupo 1174411" transform="translate(68.97 141.905)">
            <path id="Trazado_1027503" data-name="Trazado 1027503" d="M1924.322,1347.427H1910.18c-.78-22.091-7.609-95.823-7.828-96.589,0,0,12.284,20.279,19.871,29.355a27.246,27.246,0,0,1,.526,4.643C1922.75,1296.17,1924.322,1347.427,1924.322,1347.427Z" transform="translate(-1902.352 -1250.838)" fill="#3b2a3a"/>
          </g>
          <g id="Grupo_1174412" data-name="Grupo 1174412" transform="translate(93.236 234.658)">
            <path id="Trazado_1027504" data-name="Trazado 1027504" d="M1993.978,1590.011v-3.253l4.673,1.525.086.028a38.473,38.473,0,0,0,11.86,1.809h12.071c-1.978-6.558-5.446-4-11.214-7.751a24.135,24.135,0,0,1-8.246-9s-15.586-5.523-16.569,1.664a66.455,66.455,0,0,0,0,14.98Z" transform="translate(-1986.202 -1571.339)" fill="#563b56"/>
          </g>
          <g id="Grupo_1174413" data-name="Grupo 1174413" transform="translate(66.493 121.175)">
            <path id="Trazado_1027505" data-name="Trazado 1027505" d="M1944.681,1283.03c0,.406,0,.8,0,1.195,0,.285,0,.57,0,.851v.04c0,6.777-.112,11.411-.112,11.411h-31.207s.115-4.785.2-11.411v-.13c0-.254.008-.5.008-.762,0-.308,0-.62.009-.936.152-13.3.134-32.4-1.092-36.625-1.176-4.063-6.037-14.788-10.511-25.441-.066-.165-.138-.325-.2-.49-.112-.263-.218-.526-.33-.784a.352.352,0,0,1-.022-.058c-2.606-6.265-5.021-12.4-6.411-17.047-.223-.744-.41-1.479-.566-2.21v0c-.067-.294-.125-.584-.178-.873-.116-.651-.209-1.288-.281-1.921-.089-.807-.147-1.6-.169-2.37a32.864,32.864,0,0,1,3.119-14.841c.437-.909.735-1.408.735-1.408s.958-.022,2.509,0h0a.029.029,0,0,1,.027,0c4.442.058,13.67.468,18.9,2.718h0a10.448,10.448,0,0,1,1.074.521,6.953,6.953,0,0,1,1.777,1.323s15.287,38.3,19.471,52.42C1944.155,1245.408,1944.659,1268.242,1944.681,1283.03Z" transform="translate(-1893.795 -1179.207)" fill="#97586a"/>
          </g>
          <g id="Grupo_1174414" data-name="Grupo 1174414" transform="translate(84.595 122.213)">
            <path id="Trazado_1027506" data-name="Trazado 1027506" d="M1981.429,1286.773c0,.3,0,.6-.009.891-.054,4.563-.134,8.559-.2,11.411h-.891c.063-2.851.138-6.848.2-11.411,0-.294,0-.593.009-.891.16-14.463.075-34.112-1.377-41.486-1.577-8-22.6-61.63-22.817-62.168l.829-.326c.344.873,3.739,9.535,7.82,20.184.156.414.317.833.477,1.252,6.158,16.1,13.629,36.126,14.565,40.884C1981.5,1252.554,1981.589,1272.27,1981.429,1286.773Z" transform="translate(-1956.344 -1182.793)" fill="#3b2a3a"/>
          </g>
          <g id="Grupo_1174415" data-name="Grupo 1174415" transform="translate(57.091 226.192)">
            <path id="Trazado_1027507" data-name="Trazado 1027507" d="M1883.236,1542.086v.891h-21.93c.013-.138.022-.276.031-.419s.022-.311.035-.472Z" transform="translate(-1861.305 -1542.086)" fill="#3b2a3a"/>
          </g>
          <g id="Grupo_1174416" data-name="Grupo 1174416" transform="translate(86.257 226.192)">
            <path id="Trazado_1027508" data-name="Trazado 1027508" d="M1993.2,1542.086c0,.285,0,.57,0,.851v.04h-31.117v-.129c0-.254.009-.5.009-.762Z" transform="translate(-1962.087 -1542.086)" fill="#3b2a3a"/>
          </g>
          <g id="Grupo_1174417" data-name="Grupo 1174417" transform="translate(91.511 122.643)">
            <path id="Trazado_1027509" data-name="Trazado 1027509" d="M1982.372,1205.464l-.808-.376c3.061-6.576-1.276-20.4-1.321-20.537l.849-.27C1981.277,1184.862,1985.578,1198.575,1982.372,1205.464Z" transform="translate(-1980.243 -1184.281)" fill="#3b2a3a"/>
          </g>
          <g id="Grupo_1174418" data-name="Grupo 1174418" transform="translate(66.96 139.194)">
            <path id="Trazado_1027510" data-name="Trazado 1027510" d="M1907.812,1258.582a13.106,13.106,0,0,1-4.9,6.394c-.111-.263-.218-.526-.33-.784a.327.327,0,0,1-.022-.058,12.233,12.233,0,0,0,4.406-5.846c2.313-6.51-.936-14.209-1.7-15.853l-9.687,2.437c-.067-.294-.125-.583-.178-.873l10-2.518a.444.444,0,0,1,.5.232C1906.1,1242.083,1910.529,1250.923,1907.812,1258.582Z" transform="translate(-1895.407 -1241.469)" fill="#3b2a3a"/>
          </g>
          <g id="Grupo_1174419" data-name="Grupo 1174419" transform="translate(59.622 142.521)">
            <path id="Trazado_1027511" data-name="Trazado 1027511" d="M1871.191,1270.174c-.072.116-.147.227-.227.339v-.165c0-.53,0-1.047-.009-1.542v0c3.03-5.748,1.689-13.251,1.333-14.935l-2.228.053c-.009-.3-.009-.6-.009-.891l2.58-.063a.457.457,0,0,1,.441.339C1873.173,1253.711,1875.535,1263.308,1871.191,1270.174Z" transform="translate(-1870.05 -1252.967)" fill="#3b2a3a"/>
          </g>
          <g id="Grupo_1174420" data-name="Grupo 1174420" transform="translate(124.284 33.88)">
            <path id="Trazado_1027512" data-name="Trazado 1027512" d="M2110.749,878.018s1.121,1.965-.822,6.338a32.929,32.929,0,0,1-2.917,5c-1.832,2.655-3.638,4.767-3.638,4.767l-9.885-5.515s.38-1.071.941-2.335a16.035,16.035,0,0,1,1.77-3.173c1.379-1.748,3.271-3.2,4.573-4.728s2.446-.717,2.041,1.05-2.791,5.073-2.406,5.567,4.484-2.612,6.028-3.751S2110.749,878.018,2110.749,878.018Z" transform="translate(-2093.486 -877.566)" fill="#fda67e"/>
          </g>
          <g id="Grupo_1174421" data-name="Grupo 1174421" transform="translate(40.979 113.596)">
            <path id="Trazado_1027513" data-name="Trazado 1027513" d="M1814.055,1153.017c-.334.588-.69,1.2-1.074,1.845a6.9,6.9,0,0,1-6.113,9.437c-.258.374-.53.753-.8,1.136l-.432.606a9.086,9.086,0,0,0,.922.049,8.7,8.7,0,0,0,8.693-8.688A8.572,8.572,0,0,0,1814.055,1153.017Z" transform="translate(-1805.634 -1153.017)" fill="#fbd18c"/>
          </g>
          <g id="Grupo_1174422" data-name="Grupo 1174422" transform="translate(36.461 139.799)">
            <path id="Trazado_1027514" data-name="Trazado 1027514" d="M1798.715,1243.561a8.7,8.7,0,0,0-8.693,8.693,8.6,8.6,0,0,0,.882,3.81,10.775,10.775,0,0,0,2.575,1.163c.2.062.419.12.628.17a6.907,6.907,0,1,1,11.513-5.142,6.75,6.75,0,0,1-.374,2.237,24.385,24.385,0,0,0,2.143-1.8c.009-.143.014-.29.014-.437A8.7,8.7,0,0,0,1798.715,1243.561Z" transform="translate(-1790.022 -1243.561)" fill="#fbd18c"/>
          </g>
          <g id="Grupo_1174435" data-name="Grupo 1174435" transform="translate(38.947 43.891)">
            <g id="Grupo_1174423" data-name="Grupo 1174423" transform="translate(14.004 37.006)">
              <path id="Trazado_1027515" data-name="Trazado 1027515" d="M1895.653,1058.5c-.107,3.542-.232,7.022-.325,9.406-.031.811-.063,1.493-.085,2.009-.018.486-.035.82-.044.976a21.193,21.193,0,0,1-3.056,9.651c-.236.4-.477.771-.713,1.119-.027.04-.053.076-.08.116a18.487,18.487,0,0,1-2.642,3.11c-2.861-.365-5.708-.6-8.457-.744-.6-.036-1.194-.062-1.782-.08-2.727-.107-5.337-.125-7.748-.089l-1.319.027c-1.684.04-3.261.107-4.687.187-.619.031-1.216.066-1.778.1-.268.018-.53.036-.78.058-1.154.08-2.161.169-3,.245-.561.049-1.047.1-1.443.143-.856.089-1.319.151-1.319.151-8.252-3.488-9.392-18.6-9.392-18.6s.544-.5,1.537-1.377c2.562-2.241,8.114-6.969,15.064-11.99.045-.036.094-.067.143-.1.464-.334.954-.686,1.466-1.042.8-.566,1.658-1.159,2.553-1.76,2.767-1.862,5.912-3.836,9.071-5.529.535-.29,1.069-.57,1.6-.838,8.163-4.117,16.031-5.939,17.359,1.252C1895.978,1045.866,1895.84,1052.277,1895.653,1058.5Z" transform="translate(-1847.002 -1040.03)" fill="#6675f1"/>
            </g>
            <g id="Grupo_1174424" data-name="Grupo 1174424" transform="translate(32.846)">
              <path id="Trazado_1027516" data-name="Trazado 1027516" d="M1975.552,924.864c0,.316-.009.642-.031.976-.031.6-.094,1.23-.183,1.885a1.2,1.2,0,0,1-.022.134,17.17,17.17,0,0,1-.36,1.8,35.414,35.414,0,0,1-5.316,10.974c-.227.339-.463.672-.7,1-.615.855-1.261,1.7-1.938,2.531-.263.334-.534.664-.811.989a58.422,58.422,0,0,1-4.344,4.616c-.325.312-.651.615-.976.914-.08.071-.263.245-.535.5-1.074,1.007-3.556,3.346-6.612,6.135-.312.285-.628.57-.949.864-.25.227-.5.459-.762.686-.5.454-1.011.913-1.528,1.377v0c-1.132,1.016-2.3,2.05-3.471,3.065l0,0q-1,.875-2,1.724c-.116.1-.231.2-.347.3-.236.2-.472.4-.7.593-.521.441-1.042.873-1.551,1.292-.165.138-.329.272-.49.4v0c-.971.793-1.907,1.537-2.781,2.205-.521.4-1.025.775-1.5,1.119-.82.584-1.56,1.083-2.206,1.462-.013,0-.022.013-.036.017l-.12.072-.04.022a6.836,6.836,0,0,1-1.471.677,4.342,4.342,0,0,1-1.951,0c-3.061-.561-7.7-3.319-11.714-6.924-.539-.481-1.065-.98-1.573-1.492a29.212,29.212,0,0,1-4.5-5.641,12.7,12.7,0,0,1-1.894-5.3,6.51,6.51,0,0,1,.361-2.865l0,0a5.425,5.425,0,0,1,.446-.953,91.021,91.021,0,0,0,9.8-4.563c.713-.379,1.452-.784,2.219-1.207,2.005-1.123,4.17-2.406,6.42-3.868.316-.2.633-.41.954-.619,2.121-1.408,4.313-2.967,6.505-4.683.472-.361.949-.735,1.421-1.123v0a82.889,82.889,0,0,0,7.962-8.47c.227-.334.454-.673.686-1.016,0-.009.009-.013.013-.022v0c.325-.49.655-.989.985-1.488,3.007-4.563,6.211-9.236,10.461-10.475a7.92,7.92,0,0,1,3.881-.151,19.3,19.3,0,0,1,4.928,1.644c.29.143.57.3.842.463a11.707,11.707,0,0,1,2.041,1.519,10.343,10.343,0,0,1,1.208,1.328A12.062,12.062,0,0,1,1975.552,924.864Z" transform="translate(-1912.108 -912.16)" fill="#6675f1"/>
            </g>
            <g id="Grupo_1174425" data-name="Grupo 1174425" transform="translate(59.58 10.797)">
              <path id="Trazado_1027517" data-name="Trazado 1027517" d="M2015.555,949.469c-.33.5-.66,1-.985,1.488v0c0,.009-.009.013-.013.022a6.908,6.908,0,1,1-8.648,9.491c-.473.387-.949.762-1.421,1.122a8.689,8.689,0,1,0,11.068-12.128Z" transform="translate(-2004.487 -949.469)" fill="#fbd18c"/>
            </g>
            <g id="Grupo_1174426" data-name="Grupo 1174426" transform="translate(55.882 53.145)">
              <path id="Trazado_1027518" data-name="Trazado 1027518" d="M1997.758,1112.758a8.686,8.686,0,0,1-.869-16.222,8.627,8.627,0,0,1,4.335-.7c-.237.2-.472.4-.7.593-.521.441-1.042.873-1.551,1.292-.16.035-.325.076-.481.125a5.9,5.9,0,0,0-.878.316,6.9,6.9,0,0,0,.378,12.787Z" transform="translate(-1991.707 -1095.797)" fill="#fbd18c"/>
            </g>
            <g id="Grupo_1174427" data-name="Grupo 1174427" transform="translate(90.582 3.797)">
              <path id="Trazado_1027519" data-name="Trazado 1027519" d="M2113.394,931.074a6.862,6.862,0,0,1,1.644-4.465,10.417,10.417,0,0,0-1.208-1.328,8.677,8.677,0,0,0,2.892,13.705,17.122,17.122,0,0,0,.361-1.8A6.91,6.91,0,0,1,2113.394,931.074Z" transform="translate(-2111.611 -925.282)" fill="#fbd18c"/>
            </g>
            <g id="Grupo_1174428" data-name="Grupo 1174428" transform="translate(70.897 37.081)">
              <path id="Trazado_1027520" data-name="Trazado 1027520" d="M2052.281,1040.289a8.7,8.7,0,0,0-8.689,8.688,8.484,8.484,0,0,0,.321,2.321c.517-.464,1.029-.922,1.528-1.376a6.581,6.581,0,0,1-.067-.945,6.912,6.912,0,0,1,6.906-6.906,6.529,6.529,0,0,1,1.483.165c.272-.254.454-.428.535-.5.325-.3.65-.6.975-.914A8.564,8.564,0,0,0,2052.281,1040.289Z" transform="translate(-2043.592 -1040.289)" fill="#fbd18c"/>
            </g>
            <g id="Grupo_1174429" data-name="Grupo 1174429" transform="translate(29.755 37.081)">
              <path id="Trazado_1027521" data-name="Trazado 1027521" d="M1917.115,1043.831a8.678,8.678,0,0,0-12.2-1.8l0,0a8.684,8.684,0,0,0-3.48,6.946,8.563,8.563,0,0,0,.993,4.023,8.683,8.683,0,0,0,7.695,4.67,8.494,8.494,0,0,0,2.393-.339,8.682,8.682,0,0,0,4.607-13.5Zm-6.18,12.007a7.053,7.053,0,0,1-.82.049,6.915,6.915,0,1,1,.82-.049Z" transform="translate(-1901.427 -1040.289)" fill="#fbd18c"/>
            </g>
            <g id="Grupo_1174430" data-name="Grupo 1174430" transform="translate(29.897 71.758)">
              <path id="Trazado_1027522" data-name="Trazado 1027522" d="M1910.607,1160.115a8.7,8.7,0,0,0-8.349,6.3,7.846,7.846,0,0,0-.3,1.6,0,0,0,0,0,0,0c-.022.259-.036.526-.036.793s.013.544.04.811c.562-.036,1.159-.071,1.778-.1-.022-.231-.035-.468-.035-.708a6.908,6.908,0,1,1,13.816,0c0,.2-.009.392-.026.583.588.018,1.181.045,1.782.08.018-.218.027-.441.027-.664A8.7,8.7,0,0,0,1910.607,1160.115Z" transform="translate(-1901.919 -1160.115)" fill="#fbd18c"/>
            </g>
            <g id="Grupo_1174434" data-name="Grupo 1174434" transform="translate(0 3.052)">
              <g id="Grupo_1174431" data-name="Grupo 1174431">
                <path id="Trazado_1027523" data-name="Trazado 1027523" d="M1851.135,952.984a.132.132,0,0,0,0,.027c.557,2.562.085,5.079-4.62,6.888-8.279,3.186-13.354,6.51-10.56,13.251s2.438,14.3-13.135,16.623c-14.726,2.2-24.461-8.693-24.207-15.683a6.181,6.181,0,0,1,.147-1.172c1.51-6.857,11.041-8.02,11.389-13.019.169-2.4-1.635-5.155-2.553-7.882-1-2.954-.967-5.873,3.716-8.274,9.562-4.892,14.543-7.891,24.14-17.947a10.323,10.323,0,0,1,3.27-2.344c2.393-1.051,6.1-1.542,9.9,2.393a32.33,32.33,0,0,1,4.487,5.8c2.517,4.273,3.578,9.259-1.813,12.217C1847.66,945.86,1850.36,949.464,1851.135,952.984Z" transform="translate(-1798.612 -922.707)" fill="#3b2a3a"/>
              </g>
              <g id="Grupo_1174432" data-name="Grupo 1174432" transform="translate(8.462)">
                <path id="Trazado_1027524" data-name="Trazado 1027524" d="M1873.89,931.642c-6.172-3.414-11.962-3.873-14.89-1.5-6.45,5.231.175,20.7-5.659,23.548-5.857,2.862-14.216-8.728-24.965-1.675-1-2.954-.967-5.873,3.716-8.274,9.562-4.892,14.543-7.891,24.14-17.947a10.329,10.329,0,0,1,3.27-2.344c2.393-1.051,6.1-1.542,9.9,2.393A32.352,32.352,0,0,1,1873.89,931.642Z" transform="translate(-1827.851 -922.707)" fill="#563b56"/>
              </g>
              <g id="Grupo_1174433" data-name="Grupo 1174433" transform="translate(0 30.303)">
                <path id="Trazado_1027525" data-name="Trazado 1027525" d="M1846.519,1034.306c-8.279,3.186-13.354,6.51-10.56,13.251s2.438,14.3-13.135,16.624c-14.726,2.2-24.461-8.693-24.207-15.684,5.26,15.971,25.31,12.26,22-4.019-1.741-8.555,5.231-12.2,18.482-11.683,12.738.5,12.11-4.955,12.043-5.378C1851.7,1029.98,1851.224,1032.5,1846.519,1034.306Z" transform="translate(-1798.612 -1027.418)" fill="#3b2a3a"/>
              </g>
            </g>
          </g>
        </g>
        <g id="Grupo_1174438" data-name="Grupo 1174438" transform="translate(77.801 97.713)">
          <g id="Grupo_1174437" data-name="Grupo 1174437">
            <path id="Trazado_1027526" data-name="Trazado 1027526" d="M1945.245,1104.838c-3.586,0-8-1.24-12.22-5.725a.579.579,0,1,1,.843-.793c4.1,4.355,8.839,6.076,14.081,5.112a17.842,17.842,0,0,0,6.756-2.8.579.579,0,0,1,.7.926,18.674,18.674,0,0,1-7.2,3.006A16.155,16.155,0,0,1,1945.245,1104.838Z" transform="translate(-1932.867 -1098.138)" fill="#3b2a3a"/>
          </g>
        </g>
        <g id="Grupo_1174440" data-name="Grupo 1174440" transform="translate(54.14 115.071)">
          <g id="Grupo_1174439" data-name="Grupo 1174439">
            <path id="Trazado_1027527" data-name="Trazado 1027527" d="M1858.144,1168.776a.573.573,0,0,1-.279-.073,12.488,12.488,0,0,1-6.757-9.994.579.579,0,0,1,.563-.594h.016a.579.579,0,0,1,.578.563,11.341,11.341,0,0,0,6.159,9.013.579.579,0,0,1-.281,1.085Z" transform="translate(-1851.108 -1158.115)" fill="#3b2a3a"/>
          </g>
        </g>
        <g id="Grupo_1174442" data-name="Grupo 1174442" transform="translate(109.158 64.032)">
          <g id="Grupo_1174441" data-name="Grupo 1174441">
            <path id="Trazado_1027528" data-name="Trazado 1027528" d="M2041.8,996.694a.58.58,0,0,1-.547-.767c2.241-6.521.125-13.351.1-13.419a.579.579,0,0,1,1.1-.351,24.838,24.838,0,0,1-.111,14.146A.58.58,0,0,1,2041.8,996.694Z" transform="translate(-2041.221 -981.753)" fill="#3b2a3a"/>
          </g>
        </g>
        <g id="Grupo_1174444" data-name="Grupo 1174444" transform="translate(111.241 63.218)">
          <g id="Grupo_1174443" data-name="Grupo 1174443">
            <path id="Trazado_1027529" data-name="Trazado 1027529" d="M2052.862,987.189a.577.577,0,0,1-.325-.1,9.558,9.558,0,0,1-4.118-7.576.579.579,0,0,1,.578-.572H2049a.579.579,0,0,1,.571.585,8.543,8.543,0,0,0,3.614,6.606.579.579,0,0,1-.327,1.057Z" transform="translate(-2048.418 -978.941)" fill="#3b2a3a"/>
          </g>
        </g>
        <g id="Grupo_1174446" data-name="Grupo 1174446" transform="translate(66.652 113.017)">
          <g id="Grupo_1174445" data-name="Grupo 1174445">
            <path id="Trazado_1027530" data-name="Trazado 1027530" d="M1894.922,1159.754a.578.578,0,0,1-.433-.962c.206-.232,5.181-5.693,17.7-7.766a.579.579,0,0,1,.189,1.142c-12.078,2-16.979,7.34-17.027,7.393A.577.577,0,0,1,1894.922,1159.754Z" transform="translate(-1894.343 -1151.018)" fill="#3b2a3a"/>
          </g>
        </g>
        <g id="Grupo_1174448" data-name="Grupo 1174448" transform="translate(74.861 117.534)">
          <g id="Grupo_1174447" data-name="Grupo 1174447">
            <path id="Trazado_1027531" data-name="Trazado 1027531" d="M1937.028,1170.072a.577.577,0,0,1-.344-.114c-4.547-3.379-11.229-1.954-13.167-1.437l-.09.024a.579.579,0,0,1-.281-1.123l.072-.019c2.066-.551,9.193-2.062,14.156,1.627a.579.579,0,0,1-.346,1.043Z" transform="translate(-1922.707 -1166.625)" fill="#3b2a3a"/>
          </g>
        </g>
      </g>
    </g>
  </g>
</svg>
