<svg xmlns="http://www.w3.org/2000/svg" xmlns:xlink="http://www.w3.org/1999/xlink" width="505" height="420" viewBox="0 0 505 420">
  <defs>
    <clipPath id="clip-path">
      <rect id="Rectángulo_414512" data-name="Rectángulo 414512" width="505" height="420" transform="translate(915 1032)" fill="#fff" stroke="#707070" stroke-width="1" opacity="0.69"/>
    </clipPath>
  </defs>
  <g id="Enmascarar_grupo_1098807" data-name="Enmascarar grupo 1098807" transform="translate(-915 -1032)" clip-path="url(#clip-path)">
    <g id="Grupo_1174020" data-name="Grupo 1174020" transform="translate(-2360.348 638.239)">
      <g id="Grupo_1173672" data-name="Grupo 1173672" transform="translate(3302.837 402.407)">
        <g id="Grupo_1173671" data-name="Grupo 1173671" transform="translate(0 0)">
          <path id="Trazado_1027181" data-name="Trazado 1027181" d="M3846.789,779.59c-42.71,59.645-137.646,79.369-209.147,42.467-13.505-6.97-30.3-11.242-49.771-7.5-53.7,10.334-89.563,11.966-111.876-32.225s-64.422-140.011-29.144-182.535,109.626-6.735,127.615-30.072-20.376-77.4,36.511-85.466,97.39-71,178.9-21.672,122.814,186.921,82.27,273.456A275.721,275.721,0,0,1,3846.789,779.59Z" transform="translate(-3433.282 -443.889)" fill="#bfddd3"/>
        </g>
      </g>
      <g id="Grupo_1173674" data-name="Grupo 1173674" transform="translate(3422.972 422.573)">
        <g id="Grupo_1173673" data-name="Grupo 1173673">
          <path id="Trazado_1027182" data-name="Trazado 1027182" d="M3826.884,523.365a23.706,23.706,0,0,0-3.118-7.5l2.7-2.7-7.454-7.453-2.7,2.7a23.723,23.723,0,0,0-7.506-3.118v-3.812h-10.537v3.812a23.707,23.707,0,0,0-7.5,3.118l-2.7-2.7-7.45,7.453,2.7,2.7a23.747,23.747,0,0,0-3.118,7.5h-3.812V533.9h3.812a23.749,23.749,0,0,0,3.118,7.506l-2.7,2.7,7.45,7.45,2.7-2.7a23.7,23.7,0,0,0,7.5,3.118v3.812h10.537v-3.812a23.693,23.693,0,0,0,7.5-3.118l2.7,2.7,7.454-7.45-2.7-2.7a23.727,23.727,0,0,0,3.118-7.506h3.812V523.365Zm-11.03,10.537a13.471,13.471,0,0,1-7.044,7.044c-.1.04-.192.081-.291.118a13.373,13.373,0,0,1-9.955,0l-.291-.121a13.455,13.455,0,0,1-7.041-7.041c-.041-.1-.081-.192-.118-.288a13.374,13.374,0,0,1,0-9.954c.037-.1.077-.2.121-.295a13.466,13.466,0,0,1,7.038-7.038c.1-.043.192-.084.291-.121a13.381,13.381,0,0,1,9.958,0c.1.037.192.077.288.118a13.459,13.459,0,0,1,7.041,7.041c.041.1.081.192.121.291a13.378,13.378,0,0,1,0,9.958C3815.935,533.71,3815.894,533.806,3815.854,533.9Z" transform="translate(-3776.389 -501.482)" fill="#d86f54"/>
        </g>
      </g>
      <g id="Grupo_1173676" data-name="Grupo 1173676" transform="translate(3470.57 451.525)">
        <g id="Grupo_1173675" data-name="Grupo 1173675">
          <path id="Trazado_1027183" data-name="Trazado 1027183" d="M3962.822,606.052a23.683,23.683,0,0,0-3.118-7.5l2.7-2.7-7.453-7.453-2.7,2.7a23.728,23.728,0,0,0-7.506-3.118v-3.812h-10.538v3.812a23.7,23.7,0,0,0-7.5,3.118l-2.7-2.7-7.451,7.453,2.7,2.7a23.722,23.722,0,0,0-3.118,7.5h-3.812v10.537h3.812a23.728,23.728,0,0,0,3.118,7.506l-2.7,2.7,7.451,7.45,2.7-2.7a23.708,23.708,0,0,0,7.5,3.118v3.812h10.538v-3.812a23.7,23.7,0,0,0,7.5-3.118l2.7,2.7,7.453-7.45-2.7-2.7a23.705,23.705,0,0,0,3.118-7.506h3.813V606.052Zm-11.03,10.537a13.47,13.47,0,0,1-7.043,7.044c-.1.04-.192.081-.292.118a13.37,13.37,0,0,1-9.954,0c-.1-.04-.2-.081-.292-.121a13.458,13.458,0,0,1-7.042-7.041c-.04-.1-.08-.192-.118-.288a13.371,13.371,0,0,1,0-9.955c.038-.1.078-.2.122-.294a13.467,13.467,0,0,1,7.038-7.038c.1-.043.192-.084.292-.121a13.385,13.385,0,0,1,9.958,0c.1.037.192.078.289.118a13.461,13.461,0,0,1,7.041,7.041c.04.1.08.192.121.291a13.379,13.379,0,0,1,0,9.958C3951.873,616.4,3951.833,616.493,3951.792,616.589Z" transform="translate(-3912.328 -584.169)" fill="#fff"/>
        </g>
      </g>
      <g id="Grupo_1173686" data-name="Grupo 1173686" transform="translate(3644.802 455.087)">
        <g id="Grupo_1173679" data-name="Grupo 1173679" transform="translate(0 69.435)">
          <g id="Grupo_1173678" data-name="Grupo 1173678">
            <g id="Grupo_1173677" data-name="Grupo 1173677">
              <path id="Trazado_1027184" data-name="Trazado 1027184" d="M4412.737,794.05h-2.1a.7.7,0,0,1,0-1.4h2.1a.7.7,0,1,1,0,1.4Z" transform="translate(-4409.938 -792.649)" fill="#3b2a3a"/>
            </g>
          </g>
        </g>
        <g id="Grupo_1173682" data-name="Grupo 1173682" transform="translate(6.412 6.431)">
          <g id="Grupo_1173681" data-name="Grupo 1173681">
            <g id="Grupo_1173680" data-name="Grupo 1173680">
              <path id="Trazado_1027185" data-name="Trazado 1027185" d="M4455.062,677.113h-.243a.7.7,0,0,1,0-1.4h.243a32.386,32.386,0,0,0,3.97-.244.7.7,0,0,1,.172,1.39A33.933,33.933,0,0,1,4455.062,677.113Zm-4.555,0h-4.312a.7.7,0,0,1,0-1.4h4.312a.7.7,0,0,1,0,1.4Zm-8.622,0h-4.312a.7.7,0,0,1,0-1.4h4.312a.7.7,0,0,1,0,1.4Zm-8.623,0h-4.311a.7.7,0,1,1,0-1.4h4.311a.7.7,0,0,1,0,1.4Zm30.085-1.06a.7.7,0,0,1-.177-1.378,31.9,31.9,0,0,0,4-1.335.7.7,0,0,1,.529,1.3,33.123,33.123,0,0,1-4.176,1.395A.7.7,0,0,1,4463.347,676.053Zm7.959-3.259a.7.7,0,0,1-.349-1.308,32.257,32.257,0,0,0,3.51-2.336.7.7,0,1,1,.85,1.112,33.512,33.512,0,0,1-3.662,2.438A.7.7,0,0,1,4471.306,672.794Zm6.828-5.223a.7.7,0,0,1-.494-1.2,32.206,32.206,0,0,0,2.782-3.166.7.7,0,0,1,1.11.853,33.561,33.561,0,0,1-2.9,3.3A.7.7,0,0,1,4478.134,667.571Zm5.236-6.814a.7.7,0,0,1-.606-1.051,31.956,31.956,0,0,0,1.86-3.778.7.7,0,0,1,1.3.534,33.551,33.551,0,0,1-1.942,3.944A.7.7,0,0,1,4483.371,660.758Zm3.277-7.943a.7.7,0,0,1-.677-.879,31.9,31.9,0,0,0,.8-4.137.7.7,0,0,1,1.39.176,33.427,33.427,0,0,1-.841,4.319A.7.7,0,0,1,4486.648,652.814Zm1.082-8.527a.7.7,0,0,1-.7-.7v-4.311a.7.7,0,1,1,1.4,0v4.311A.7.7,0,0,1,4487.729,644.287Zm0-8.623a.7.7,0,0,1-.7-.7v-4.311a.7.7,0,1,1,1.4,0v4.311A.7.7,0,0,1,4487.729,635.665Zm0-8.622a.7.7,0,0,1-.7-.7v-4.312a.7.7,0,1,1,1.4,0v4.312A.7.7,0,0,1,4487.729,627.043Zm0-8.623a.7.7,0,0,1-.7-.7v-4.311a.7.7,0,0,1,1.4,0v4.311A.7.7,0,0,1,4487.729,618.42Z" transform="translate(-4428.25 -612.708)" fill="#3b2a3a"/>
            </g>
          </g>
        </g>
        <g id="Grupo_1173685" data-name="Grupo 1173685" transform="translate(65.191 0)">
          <g id="Grupo_1173684" data-name="Grupo 1173684">
            <g id="Grupo_1173683" data-name="Grupo 1173683">
              <path id="Trazado_1027186" data-name="Trazado 1027186" d="M4596.823,597.843a.7.7,0,0,1-.7-.7v-2.1a.7.7,0,1,1,1.4,0v2.1A.7.7,0,0,1,4596.823,597.843Z" transform="translate(-4596.124 -594.342)" fill="#3b2a3a"/>
            </g>
          </g>
        </g>
      </g>
      <g id="Grupo_1173705" data-name="Grupo 1173705" transform="translate(3613.981 633.705)">
        <g id="Grupo_1173689" data-name="Grupo 1173689" transform="translate(0 0)">
          <g id="Grupo_1173687" data-name="Grupo 1173687" transform="translate(0)">
            <circle id="Elipse_12048" data-name="Elipse 12048" cx="58.41" cy="58.41" r="58.41" transform="translate(0 82.604) rotate(-45)" fill="#fff"/>
          </g>
          <g id="Grupo_1173688" data-name="Grupo 1173688" transform="translate(23.568 23.568)">
            <path id="Trazado_1027187" data-name="Trazado 1027187" d="M4456.183,1297.781a59.037,59.037,0,1,1,59.037-59.036A59.1,59.1,0,0,1,4456.183,1297.781Zm0-116.82a57.784,57.784,0,1,0,57.784,57.784A57.849,57.849,0,0,0,4456.183,1180.961Z" transform="translate(-4397.146 -1179.708)" fill="#3b2a3a"/>
          </g>
        </g>
        <g id="Grupo_1173692" data-name="Grupo 1173692" transform="translate(36.215 36.215)">
          <g id="Grupo_1173691" data-name="Grupo 1173691">
            <g id="Grupo_1173690" data-name="Grupo 1173690">
              <path id="Trazado_1027188" data-name="Trazado 1027188" d="M4483.908,1312.859a46.39,46.39,0,1,1,46.39-46.389A46.442,46.442,0,0,1,4483.908,1312.859Zm0-91.526a45.137,45.137,0,1,0,45.137,45.137A45.188,45.188,0,0,0,4483.908,1221.333Z" transform="translate(-4437.518 -1220.08)" fill="#3b2a3a"/>
            </g>
          </g>
        </g>
        <g id="Grupo_1173695" data-name="Grupo 1173695" transform="translate(51.75 51.75)">
          <g id="Grupo_1173694" data-name="Grupo 1173694">
            <g id="Grupo_1173693" data-name="Grupo 1173693">
              <path id="Trazado_1027189" data-name="Trazado 1027189" d="M4517.965,1331.381a30.854,30.854,0,1,1,30.855-30.854A30.889,30.889,0,0,1,4517.965,1331.381Zm0-60.455a29.6,29.6,0,1,0,29.6,29.6A29.634,29.634,0,0,0,4517.965,1270.926Z" transform="translate(-4487.111 -1269.673)" fill="#3b2a3a"/>
            </g>
          </g>
        </g>
        <g id="Grupo_1173697" data-name="Grupo 1173697" transform="translate(67.912 67.912)">
          <g id="Grupo_1173696" data-name="Grupo 1173696">
            <path id="Trazado_1027190" data-name="Trazado 1027190" d="M4553.4,1350.649a14.692,14.692,0,1,1,14.692-14.692A14.709,14.709,0,0,1,4553.4,1350.649Z" transform="translate(-4538.703 -1321.265)" fill="#d86f54"/>
          </g>
        </g>
        <g id="Grupo_1173700" data-name="Grupo 1173700" transform="translate(81.534 54.019)">
          <g id="Grupo_1173699" data-name="Grupo 1173699" transform="translate(0 0)">
            <g id="Grupo_1173698" data-name="Grupo 1173698" transform="translate(0)">
              <rect id="Rectángulo_414453" data-name="Rectángulo 414453" width="77.769" height="1.253" transform="translate(0 28.745) rotate(-21.692)" fill="#3b2a3a"/>
            </g>
          </g>
        </g>
        <g id="Grupo_1173702" data-name="Grupo 1173702" transform="translate(144.97 44.106)">
          <g id="Grupo_1173701" data-name="Grupo 1173701">
            <path id="Trazado_1027191" data-name="Trazado 1027191" d="M4789.267,1260.826a16.808,16.808,0,0,1-4.58-1.424,16.868,16.868,0,0,1,1.625-4.507A28.81,28.81,0,0,1,4788,1252c3.079-4.635,6.83-7.558,8.39-6.525,1.427.946.521,4.882-2.007,9.1-.233.388-.476.777-.737,1.169A24.288,24.288,0,0,1,4789.267,1260.826Z" transform="translate(-4784.687 -1245.272)" fill="#d86f54"/>
          </g>
        </g>
        <g id="Grupo_1173704" data-name="Grupo 1173704" transform="translate(144.97 53.238)">
          <g id="Grupo_1173703" data-name="Grupo 1173703">
            <path id="Trazado_1027192" data-name="Trazado 1027192" d="M4792.583,1281.242a28.749,28.749,0,0,1-3.316-.4,16.811,16.811,0,0,1-4.58-1.425,16.866,16.866,0,0,1,1.625-4.507,24.075,24.075,0,0,1,6.69-.434c.47.029.927.07,1.377.118,4.888.528,8.575,2.178,8.468,3.887C4802.73,1280.353,4798.139,1281.586,4792.583,1281.242Z" transform="translate(-4784.687 -1274.422)" fill="#d86f54"/>
          </g>
        </g>
      </g>
      <g id="Grupo_1173707" data-name="Grupo 1173707" transform="translate(3353.532 382.269)">
        <g id="Grupo_1173706" data-name="Grupo 1173706" transform="translate(0 0)">
          <path id="Trazado_1027193" data-name="Trazado 1027193" d="M3578.069,386.381a4.561,4.561,0,0,1,.585,0h-.015A1.332,1.332,0,0,1,3578.069,386.381Z" transform="translate(-3578.069 -386.374)" fill="#969946"/>
        </g>
      </g>
      <g id="Grupo_1173709" data-name="Grupo 1173709" transform="translate(3700.157 632.497)">
        <g id="Grupo_1173708" data-name="Grupo 1173708" transform="translate(0 0)">
          <circle id="Elipse_12049" data-name="Elipse 12049" cx="6.73" cy="6.73" r="6.73" transform="translate(0 5.151) rotate(-22.5)" fill="#b35086"/>
        </g>
      </g>
      <g id="Grupo_1173712" data-name="Grupo 1173712" transform="translate(3696.24 614.809)">
        <g id="Grupo_1173711" data-name="Grupo 1173711" transform="translate(0 0)">
          <g id="Grupo_1173710" data-name="Grupo 1173710">
            <path id="Trazado_1027194" data-name="Trazado 1027194" d="M4559.77,1056.363a2.927,2.927,0,1,1,2.927-2.927A2.93,2.93,0,0,1,4559.77,1056.363Zm0-4.454a1.526,1.526,0,1,0,1.527,1.526A1.528,1.528,0,0,0,4559.77,1051.909Z" transform="translate(-4556.843 -1050.509)" fill="#3b2a3a"/>
          </g>
        </g>
      </g>
      <g id="Grupo_1173715" data-name="Grupo 1173715" transform="translate(3710.52 553.211)">
        <g id="Grupo_1173714" data-name="Grupo 1173714" transform="translate(0)">
          <g id="Grupo_1173713" data-name="Grupo 1173713">
            <path id="Trazado_1027195" data-name="Trazado 1027195" d="M4608.243,895.82A10.617,10.617,0,1,1,4618.86,885.2,10.629,10.629,0,0,1,4608.243,895.82Zm0-19.833a9.216,9.216,0,1,0,9.216,9.216A9.227,9.227,0,0,0,4608.243,875.986Z" transform="translate(-4597.626 -874.586)" fill="#3b2a3a"/>
          </g>
        </g>
      </g>
      <g id="Grupo_1173718" data-name="Grupo 1173718" transform="translate(3437.527 767.948)">
        <g id="Grupo_1173717" data-name="Grupo 1173717" transform="translate(0 0)">
          <g id="Grupo_1173716" data-name="Grupo 1173716">
            <path id="Trazado_1027196" data-name="Trazado 1027196" d="M3822.174,1496.306a4.215,4.215,0,1,1,4.215-4.215A4.219,4.219,0,0,1,3822.174,1496.306Zm0-7.029a2.815,2.815,0,1,0,2.814,2.815A2.818,2.818,0,0,0,3822.174,1489.276Z" transform="translate(-3817.959 -1487.876)" fill="#3b2a3a"/>
          </g>
        </g>
      </g>
      <g id="Grupo_1173721" data-name="Grupo 1173721" transform="translate(3561.057 424.678)">
        <g id="Grupo_1173720" data-name="Grupo 1173720" transform="translate(0 0)">
          <g id="Grupo_1173719" data-name="Grupo 1173719">
            <path id="Trazado_1027197" data-name="Trazado 1027197" d="M4182.639,531.251a11.879,11.879,0,1,1,11.878-11.879A11.892,11.892,0,0,1,4182.639,531.251Zm0-22.357a10.478,10.478,0,1,0,10.478,10.478A10.49,10.49,0,0,0,4182.639,508.894Z" transform="translate(-4170.76 -507.493)" fill="#3b2a3a"/>
          </g>
        </g>
      </g>
      <g id="Grupo_1173723" data-name="Grupo 1173723" transform="translate(3416.749 733.633)">
        <g id="Grupo_1173722" data-name="Grupo 1173722" transform="translate(0 0)">
          <circle id="Elipse_12050" data-name="Elipse 12050" cx="11.178" cy="11.178" r="11.178" transform="translate(0 21.759) rotate(-76.717)" fill="#6675f1"/>
        </g>
      </g>
      <g id="Grupo_1173726" data-name="Grupo 1173726" transform="translate(3638.285 443.111)">
        <g id="Grupo_1173724" data-name="Grupo 1173724" transform="translate(0.7 0.7)">
          <path id="Trazado_1027198" data-name="Trazado 1027198" d="M4495.723,596.254h-102.4c0-9.815,7.26-17.778,16.219-17.778a15.045,15.045,0,0,1,7.457,1.988c5.2-10.889,15.6-18.324,27.588-18.324,13.395,0,24.811,9.276,29.2,22.289a10.067,10.067,0,0,1,2.2-.244,10.841,10.841,0,0,1,9.4,5.794,6.3,6.3,0,0,1,3.575-1.13C4492.7,588.848,4495.723,592.164,4495.723,596.254Z" transform="translate(-4393.324 -562.14)" fill="#fff"/>
        </g>
        <g id="Grupo_1173725" data-name="Grupo 1173725" transform="translate(0 0)">
          <path id="Trazado_1027199" data-name="Trazado 1027199" d="M4494.423,595.655h-102.4a.7.7,0,0,1-.7-.7c0-10.189,7.589-18.479,16.919-18.479a15.819,15.819,0,0,1,7.147,1.728c5.6-11.162,16.231-18.063,27.9-18.063,13.081,0,24.93,8.89,29.663,22.186a10.8,10.8,0,0,1,1.74-.142,11.384,11.384,0,0,1,9.633,5.526,6.948,6.948,0,0,1,3.336-.863c4.115,0,7.462,3.637,7.462,8.107A.7.7,0,0,1,4494.423,595.655Zm-101.685-1.4H4493.69a6.338,6.338,0,0,0-6.029-6.006,5.619,5.619,0,0,0-3.18,1.008.7.7,0,0,1-1.008-.236,10.09,10.09,0,0,0-8.782-5.435,9.374,9.374,0,0,0-2.05.228.7.7,0,0,1-.816-.46c-4.4-13.047-15.868-21.812-28.536-21.812-11.35,0-21.679,6.868-26.956,17.925a.7.7,0,0,1-.978.308,14.254,14.254,0,0,0-7.111-1.9C4399.9,577.876,4393.072,585.161,4392.738,594.254Z" transform="translate(-4391.324 -560.14)" fill="#3b2a3a"/>
        </g>
      </g>
      <g id="Grupo_1173739" data-name="Grupo 1173739" transform="translate(3701.307 572.782)">
        <g id="Grupo_1173729" data-name="Grupo 1173729" transform="translate(6.726)">
          <g id="Grupo_1173728" data-name="Grupo 1173728">
            <g id="Grupo_1173727" data-name="Grupo 1173727">
              <path id="Trazado_1027200" data-name="Trazado 1027200" d="M4591.222,937.113a.7.7,0,0,1-.7-.7v-5.233a.7.7,0,1,1,1.4,0v5.233A.7.7,0,0,1,4591.222,937.113Z" transform="translate(-4590.522 -930.479)" fill="#3b2a3a"/>
            </g>
          </g>
        </g>
        <g id="Grupo_1173732" data-name="Grupo 1173732" transform="translate(6.726 8.218)">
          <g id="Grupo_1173731" data-name="Grupo 1173731">
            <g id="Grupo_1173730" data-name="Grupo 1173730">
              <path id="Trazado_1027201" data-name="Trazado 1027201" d="M4591.222,960.585a.7.7,0,0,1-.7-.7v-5.234a.7.7,0,1,1,1.4,0v5.234A.7.7,0,0,1,4591.222,960.585Z" transform="translate(-4590.522 -953.951)" fill="#3b2a3a"/>
            </g>
          </g>
        </g>
        <g id="Grupo_1173735" data-name="Grupo 1173735" transform="translate(8.219 6.726)">
          <g id="Grupo_1173734" data-name="Grupo 1173734">
            <g id="Grupo_1173733" data-name="Grupo 1173733">
              <path id="Trazado_1027202" data-name="Trazado 1027202" d="M4600.719,951.089h-5.234a.7.7,0,0,1,0-1.4h5.234a.7.7,0,0,1,0,1.4Z" transform="translate(-4594.785 -949.689)" fill="#3b2a3a"/>
            </g>
          </g>
        </g>
        <g id="Grupo_1173738" data-name="Grupo 1173738" transform="translate(0 6.726)">
          <g id="Grupo_1173737" data-name="Grupo 1173737">
            <g id="Grupo_1173736" data-name="Grupo 1173736">
              <path id="Trazado_1027203" data-name="Trazado 1027203" d="M4577.247,951.089h-5.234a.7.7,0,0,1,0-1.4h5.234a.7.7,0,0,1,0,1.4Z" transform="translate(-4571.313 -949.689)" fill="#3b2a3a"/>
            </g>
          </g>
        </g>
      </g>
      <g id="Grupo_1173752" data-name="Grupo 1173752" transform="translate(3447.781 750.833)">
        <g id="Grupo_1173742" data-name="Grupo 1173742" transform="translate(6.726)">
          <g id="Grupo_1173741" data-name="Grupo 1173741">
            <g id="Grupo_1173740" data-name="Grupo 1173740">
              <path id="Trazado_1027204" data-name="Trazado 1027204" d="M3867.152,1445.627a.7.7,0,0,1-.7-.7v-5.234a.7.7,0,0,1,1.4,0v5.234A.7.7,0,0,1,3867.152,1445.627Z" transform="translate(-3866.451 -1438.993)" fill="#3b2a3a"/>
            </g>
          </g>
        </g>
        <g id="Grupo_1173745" data-name="Grupo 1173745" transform="translate(6.726 8.218)">
          <g id="Grupo_1173744" data-name="Grupo 1173744">
            <g id="Grupo_1173743" data-name="Grupo 1173743">
              <path id="Trazado_1027205" data-name="Trazado 1027205" d="M3867.152,1469.1a.7.7,0,0,1-.7-.7v-5.234a.7.7,0,0,1,1.4,0v5.234A.7.7,0,0,1,3867.152,1469.1Z" transform="translate(-3866.451 -1462.465)" fill="#3b2a3a"/>
            </g>
          </g>
        </g>
        <g id="Grupo_1173748" data-name="Grupo 1173748" transform="translate(8.218 6.726)">
          <g id="Grupo_1173747" data-name="Grupo 1173747">
            <g id="Grupo_1173746" data-name="Grupo 1173746">
              <path id="Trazado_1027206" data-name="Trazado 1027206" d="M3876.647,1459.6h-5.233a.7.7,0,1,1,0-1.4h5.233a.7.7,0,1,1,0,1.4Z" transform="translate(-3870.713 -1458.203)" fill="#3b2a3a"/>
            </g>
          </g>
        </g>
        <g id="Grupo_1173751" data-name="Grupo 1173751" transform="translate(0 6.726)">
          <g id="Grupo_1173750" data-name="Grupo 1173750">
            <g id="Grupo_1173749" data-name="Grupo 1173749">
              <path id="Trazado_1027207" data-name="Trazado 1027207" d="M3853.176,1459.6h-5.234a.7.7,0,0,1,0-1.4h5.234a.7.7,0,0,1,0,1.4Z" transform="translate(-3847.241 -1458.203)" fill="#3b2a3a"/>
            </g>
          </g>
        </g>
      </g>
      <g id="Grupo_1173755" data-name="Grupo 1173755" transform="translate(3548.093 465.34)">
        <g id="Grupo_1173754" data-name="Grupo 1173754">
          <g id="Grupo_1173753" data-name="Grupo 1173753">
            <path id="Trazado_1027208" data-name="Trazado 1027208" d="M4136.661,629.48a2.927,2.927,0,1,1,2.928-2.927A2.931,2.931,0,0,1,4136.661,629.48Zm0-4.453a1.526,1.526,0,1,0,1.526,1.526A1.528,1.528,0,0,0,4136.661,625.027Z" transform="translate(-4133.734 -623.626)" fill="#3b2a3a"/>
          </g>
        </g>
      </g>
      <g id="Grupo_1173768" data-name="Grupo 1173768" transform="translate(3535.873 451.888)">
        <g id="Grupo_1173758" data-name="Grupo 1173758" transform="translate(6.726 0)">
          <g id="Grupo_1173757" data-name="Grupo 1173757">
            <g id="Grupo_1173756" data-name="Grupo 1173756">
              <path id="Trazado_1027209" data-name="Trazado 1027209" d="M4118.744,591.841a.7.7,0,0,1-.7-.7v-5.234a.7.7,0,0,1,1.4,0v5.234A.7.7,0,0,1,4118.744,591.841Z" transform="translate(-4118.044 -585.207)" fill="#3b2a3a"/>
            </g>
          </g>
        </g>
        <g id="Grupo_1173761" data-name="Grupo 1173761" transform="translate(6.726 8.218)">
          <g id="Grupo_1173760" data-name="Grupo 1173760">
            <g id="Grupo_1173759" data-name="Grupo 1173759">
              <path id="Trazado_1027210" data-name="Trazado 1027210" d="M4118.744,615.313a.7.7,0,0,1-.7-.7v-5.234a.7.7,0,0,1,1.4,0v5.234A.7.7,0,0,1,4118.744,615.313Z" transform="translate(-4118.044 -608.679)" fill="#3b2a3a"/>
            </g>
          </g>
        </g>
        <g id="Grupo_1173764" data-name="Grupo 1173764" transform="translate(8.218 6.726)">
          <g id="Grupo_1173763" data-name="Grupo 1173763">
            <g id="Grupo_1173762" data-name="Grupo 1173762">
              <path id="Trazado_1027211" data-name="Trazado 1027211" d="M4128.239,605.818h-5.233a.7.7,0,1,1,0-1.4h5.233a.7.7,0,0,1,0,1.4Z" transform="translate(-4122.305 -604.417)" fill="#3b2a3a"/>
            </g>
          </g>
        </g>
        <g id="Grupo_1173767" data-name="Grupo 1173767" transform="translate(0 6.726)">
          <g id="Grupo_1173766" data-name="Grupo 1173766">
            <g id="Grupo_1173765" data-name="Grupo 1173765">
              <path id="Trazado_1027212" data-name="Trazado 1027212" d="M4104.769,605.818h-5.234a.7.7,0,0,1,0-1.4h5.234a.7.7,0,0,1,0,1.4Z" transform="translate(-4098.834 -604.417)" fill="#3b2a3a"/>
            </g>
          </g>
        </g>
      </g>
      <g id="Grupo_1173770" data-name="Grupo 1173770" transform="translate(3536.925 741.709)">
        <g id="Grupo_1173769" data-name="Grupo 1173769">
          <path id="Trazado_1027213" data-name="Trazado 1027213" d="M4108.042,1412.937l-6.2,10.742h12.4Z" transform="translate(-4101.841 -1412.937)" fill="#b35086"/>
        </g>
      </g>
      <g id="Grupo_1173773" data-name="Grupo 1173773" transform="translate(3715.83 609.438)">
        <g id="Grupo_1173772" data-name="Grupo 1173772" transform="translate(0 0)">
          <g id="Grupo_1173771" data-name="Grupo 1173771">
            <path id="Trazado_1027214" data-name="Trazado 1027214" d="M4625.9,1047.312h-12.4a.7.7,0,0,1-.606-1.05l6.2-10.742a.7.7,0,0,1,1.213,0l6.2,10.742a.7.7,0,0,1-.606,1.05Zm-11.192-1.4h9.979l-4.989-8.642Z" transform="translate(-4612.792 -1035.169)" fill="#3b2a3a"/>
          </g>
        </g>
      </g>
      <g id="Grupo_1173947" data-name="Grupo 1173947" transform="translate(3255.348 395.831)">
        <g id="Grupo_1173844" data-name="Grupo 1173844" transform="translate(20 0)">
          <g id="Grupo_1173775" data-name="Grupo 1173775" transform="translate(19.147 39.127)">
            <g id="Grupo_1173774" data-name="Grupo 1173774">
              <path id="Trazado_1027215" data-name="Trazado 1027215" d="M3321.1,531.024c-1.188,8.706-.541,13.451-7.8,17.584,0,0-10.513,1.39-12.152-7.458-.941-5.074,2.71-9.658,1.926-15.965-.906-7.287.369-11.816,4.077-12.108a5.787,5.787,0,0,1,1.377.071C3313.289,513.936,3322.284,522.317,3321.1,531.024Z" transform="translate(-3300.99 -513.063)" fill="#abae5a"/>
            </g>
          </g>
          <g id="Grupo_1173777" data-name="Grupo 1173777" transform="translate(18.941 115.591)">
            <g id="Grupo_1173776" data-name="Grupo 1173776">
              <path id="Trazado_1027216" data-name="Trazado 1027216" d="M3333.956,789.542a8.316,8.316,0,0,1-5.948,3.56,26.859,26.859,0,0,1-15.878-2.534c-7.5-3.481-11.857-4.751-11.836-9.577a7.719,7.719,0,0,1,.251-1.968.064.064,0,0,1,.007-.025,6.367,6.367,0,0,1,.281-.835l.032-.078c2.192-5.2,10.364-6.61,17.788-5.306,4.566.8,8.049,1.055,10.89,2.2a9.776,9.776,0,0,1,5.962,7.507A9.62,9.62,0,0,1,3333.956,789.542Z" transform="translate(-3300.293 -772.324)" fill="#abae5a"/>
            </g>
          </g>
          <g id="Grupo_1173779" data-name="Grupo 1173779" transform="translate(65.761 32.349)">
            <g id="Grupo_1173778" data-name="Grupo 1173778">
              <path id="Trazado_1027217" data-name="Trazado 1027217" d="M3478.778,506.833c.012,4.635.382,8.112-.248,11.109a9.8,9.8,0,0,1-6.926,7.382,9.61,9.61,0,0,1-6.634-.475,8.333,8.333,0,0,1-4.552-5.232,26.831,26.831,0,0,1-.3-16.073c2.109-8,2.59-12.511,7.344-13.339a8.277,8.277,0,0,1,1.1-.116C3475.294,489.833,3478.754,498.489,3478.778,506.833Z" transform="translate(-3459.04 -490.082)" fill="#abae5a"/>
            </g>
          </g>
          <g id="Grupo_1173781" data-name="Grupo 1173781" transform="translate(39.222 54.544)">
            <g id="Grupo_1173780" data-name="Grupo 1173780">
              <path id="Trazado_1027218" data-name="Trazado 1027218" d="M3390.916,586.243c-1.675,4.119-2.64,7.367-4.229,9.865a9.921,9.921,0,0,1-12.912,3.444.067.067,0,0,1-.021-.015,9.353,9.353,0,0,1-2.475-1.893,8.32,8.32,0,0,1-2.2-6.53c.344-5.148,5.017-8.684,5.82-14.987.788-6.2,2.612-10.071,5.395-10.7h0a3.726,3.726,0,0,1,.886-.09s0,0,.009,0a3.024,3.024,0,0,1,.332.02,5.4,5.4,0,0,1,1.641.452C3387.583,567.755,3394.226,578.1,3390.916,586.243Z" transform="translate(-3369.055 -565.338)" fill="#abae5a"/>
            </g>
          </g>
          <g id="Grupo_1173783" data-name="Grupo 1173783" transform="translate(104.264 31.58)">
            <g id="Grupo_1173782" data-name="Grupo 1173782">
              <path id="Trazado_1027219" data-name="Trazado 1027219" d="M3596.07,505.843a9.857,9.857,0,0,1-4.8-14.724,8.328,8.328,0,0,1,5.909-3.543c5.1-.764,9.556,3.044,15.887,2.477,8.158-.731,12.794,1.135,11.843,5.867s-9.638,13.433-18.3,11.943C3602.23,507.109,3598.847,506.862,3596.07,505.843Z" transform="translate(-3589.591 -487.474)" fill="#969946"/>
            </g>
          </g>
          <g id="Grupo_1173785" data-name="Grupo 1173785" transform="translate(53.561 88.689)">
            <g id="Grupo_1173784" data-name="Grupo 1173784">
              <path id="Trazado_1027220" data-name="Trazado 1027220" d="M3433.457,714.669a9.444,9.444,0,0,1-5,.655,8.321,8.321,0,0,1-5.818-3.689c-2.971-4.219-5.348-8.966-4.913-15.309.531-7.781-.464-12.667,2.663-14.513a5.14,5.14,0,0,1,1.273-.525c4.658-1.27,12.321,4.407,14.874,12.816,1.294,4.251,2.588,7.389,2.927,10.327A9.947,9.947,0,0,1,3433.457,714.669Z" transform="translate(-3417.675 -681.11)" fill="#abae5a"/>
            </g>
          </g>
          <g id="Grupo_1173787" data-name="Grupo 1173787" transform="translate(89.513 47.49)">
            <g id="Grupo_1173786" data-name="Grupo 1173786">
              <path id="Trazado_1027221" data-name="Trazado 1027221" d="M3561.67,560.682c-4.049,1.834-6.989,3.53-9.857,4.245a9.937,9.937,0,0,1-9.857-3.117,9.54,9.54,0,0,1-2.381-6.376,8.319,8.319,0,0,1,2.9-6.249c3.8-3.5,8.195-6.471,14.539-6.869,8.463-.525,13.288-2.4,15.265,1.6v0c.053.11.106.223.156.342C3574.3,548.717,3569.671,557.053,3561.67,560.682Z" transform="translate(-3539.576 -541.419)" fill="#abae5a"/>
            </g>
          </g>
          <g id="Grupo_1173789" data-name="Grupo 1173789" transform="translate(113.712 6.618)">
            <g id="Grupo_1173788" data-name="Grupo 1173788">
              <path id="Trazado_1027222" data-name="Trazado 1027222" d="M3643.37,421.742c-4.157,1.581-7.2,3.086-10.1,3.62a9.894,9.894,0,0,1-9.06-3.046l0,0a10.223,10.223,0,0,1-.671-.8l-.014-.024a9.521,9.521,0,0,1-1.869-6.362,8.326,8.326,0,0,1,3.284-6.056c4.009-3.251,8.585-5.943,14.942-5.94,7.2,0,11.854-1.128,14.142,1.058,0,0,0,0,.009.008a4.581,4.581,0,0,1,1.118,1.842C3656.73,410.592,3651.583,418.623,3643.37,421.742Z" transform="translate(-3621.626 -402.836)" fill="#abae5a"/>
            </g>
          </g>
          <g id="Grupo_1173791" data-name="Grupo 1173791" transform="translate(0 86.238)">
            <g id="Grupo_1173790" data-name="Grupo 1173790">
              <path id="Trazado_1027223" data-name="Trazado 1027223" d="M3270.4,686.187v0a9.537,9.537,0,0,1-2.85,7.347,8.338,8.338,0,0,1-6.479,2.35c-5.156-.226-10.368-1.25-15.119-5.472-5.764-5.116-10.2-7.324-9.866-10.854v0c0-.017,0-.071.015-.156.005-.05.015-.1.024-.152a.075.075,0,0,1,.006-.03c.006-.034.012-.072.022-.114s.016-.081.026-.123a5.051,5.051,0,0,1,.283-.877c1.841-4.464,11.022-7.054,19.236-3.937,4.156,1.58,7.428,2.472,9.959,4A9.9,9.9,0,0,1,3270.4,686.187Z" transform="translate(-3236.07 -672.8)" fill="#abae5a"/>
            </g>
          </g>
          <g id="Grupo_1173793" data-name="Grupo 1173793" transform="translate(85.634)">
            <g id="Grupo_1173792" data-name="Grupo 1173792">
              <path id="Trazado_1027224" data-name="Trazado 1027224" d="M3547.829,399.706c-1.358,4.233-2.08,7.545-3.474,10.155a9.934,9.934,0,0,1-9.526,5.175,9.476,9.476,0,0,1-5.729-2.489,8.317,8.317,0,0,1-2.677-6.344c-.042-5.161.706-10.418,4.677-15.383,4.508-5.641,6.525-9.987,9.677-10.394a3.918,3.918,0,0,1,.493-.027,4.239,4.239,0,0,1,.936.1,5.574,5.574,0,0,1,.7.2C3547.451,382.306,3550.517,391.339,3547.829,399.706Z" transform="translate(-3526.422 -380.399)" fill="#abae5a"/>
            </g>
          </g>
          <g id="Grupo_1173796" data-name="Grupo 1173796" transform="translate(28.104 59.739)">
            <g id="Grupo_1173795" data-name="Grupo 1173795">
              <g id="Grupo_1173794" data-name="Grupo 1173794">
                <path id="Trazado_1027225" data-name="Trazado 1027225" d="M3391.932,668.705a.592.592,0,0,1-.211-.039,84.691,84.691,0,0,1-32.346-22.1,104.522,104.522,0,0,1-18.2-28.261,124.866,124.866,0,0,1-9.818-34.708.59.59,0,1,1,1.174-.112,123.63,123.63,0,0,0,9.737,34.375c7.487,16.816,22.217,39.089,49.87,49.7a.59.59,0,0,1-.211,1.141Z" transform="translate(-3331.359 -582.951)" fill="#3b2a3a"/>
              </g>
            </g>
          </g>
          <g id="Grupo_1173799" data-name="Grupo 1173799" transform="translate(23.314 100.082)">
            <g id="Grupo_1173798" data-name="Grupo 1173798">
              <g id="Grupo_1173797" data-name="Grupo 1173797">
                <path id="Trazado_1027226" data-name="Trazado 1027226" d="M3327.5,723.373a28.833,28.833,0,0,1-12.055-2.518.59.59,0,0,1,.53-1.054,29.159,29.159,0,0,0,17.857,1.689.59.59,0,1,1,.259,1.151A29.943,29.943,0,0,1,3327.5,723.373Z" transform="translate(-3315.12 -719.739)" fill="#3b2a3a"/>
              </g>
            </g>
          </g>
          <g id="Grupo_1173802" data-name="Grupo 1173802" transform="translate(38.927 78.215)">
            <g id="Grupo_1173801" data-name="Grupo 1173801">
              <g id="Grupo_1173800" data-name="Grupo 1173800">
                <path id="Trazado_1027227" data-name="Trazado 1027227" d="M3368.648,665.12a.59.59,0,0,1-.358-1.059c7.258-5.532,9.778-17.865,9.8-17.989a.59.59,0,0,1,1.157.229c-.1.524-2.628,12.892-10.244,18.7A.59.59,0,0,1,3368.648,665.12Z" transform="translate(-3368.057 -645.597)" fill="#3b2a3a"/>
              </g>
            </g>
          </g>
          <g id="Grupo_1173805" data-name="Grupo 1173805" transform="translate(46.511 126.669)">
            <g id="Grupo_1173804" data-name="Grupo 1173804">
              <g id="Grupo_1173803" data-name="Grupo 1173803">
                <path id="Trazado_1027228" data-name="Trazado 1027228" d="M3400.26,812.919a18,18,0,0,1-6.115-1.02.59.59,0,0,1,.432-1.1h0a17.439,17.439,0,0,0,13.188-.851.59.59,0,1,1,.542,1.048A17.416,17.416,0,0,1,3400.26,812.919Z" transform="translate(-3393.772 -809.884)" fill="#3b2a3a"/>
              </g>
            </g>
          </g>
          <g id="Grupo_1173808" data-name="Grupo 1173808" transform="translate(65.365 111.918)">
            <g id="Grupo_1173807" data-name="Grupo 1173807">
              <g id="Grupo_1173806" data-name="Grupo 1173806">
                <path id="Trazado_1027229" data-name="Trazado 1027229" d="M3460.26,781.9a.59.59,0,0,1-.553-.8c2.944-7.909-1.918-20.3-1.967-20.429a.59.59,0,0,1,1.1-.436c.209.525,5.08,12.939,1.977,21.277A.588.588,0,0,1,3460.26,781.9Z" transform="translate(-3457.698 -759.869)" fill="#3b2a3a"/>
              </g>
            </g>
          </g>
          <g id="Grupo_1173811" data-name="Grupo 1173811" transform="translate(83.194 18.739)">
            <g id="Grupo_1173810" data-name="Grupo 1173810">
              <g id="Grupo_1173809" data-name="Grupo 1173809">
                <path id="Trazado_1027230" data-name="Trazado 1027230" d="M3520.9,528.061a.59.59,0,0,1-.575-.463c-3.025-13.718-2.9-26.652.382-38.441a68.877,68.877,0,0,1,13.777-25.934,77.415,77.415,0,0,1,24.118-19.235.59.59,0,1,1,.488,1.074,76.192,76.192,0,0,0-23.732,18.956c-10.055,12-20.625,32.732-13.881,63.327a.589.589,0,0,1-.448.7A.6.6,0,0,1,3520.9,528.061Z" transform="translate(-3518.148 -443.935)" fill="#3b2a3a"/>
              </g>
            </g>
          </g>
          <g id="Grupo_1173814" data-name="Grupo 1173814" transform="translate(92.571 25.975)">
            <g id="Grupo_1173813" data-name="Grupo 1173813">
              <g id="Grupo_1173812" data-name="Grupo 1173812">
                <path id="Trazado_1027231" data-name="Trazado 1027231" d="M3552.513,487.96a.589.589,0,0,1-.544-.363c-4.607-11.064.058-18.543.259-18.856a.59.59,0,0,1,.994.636h0c-.046.072-4.521,7.3-.164,17.767a.59.59,0,0,1-.544.817Z" transform="translate(-3549.943 -468.469)" fill="#3b2a3a"/>
              </g>
            </g>
          </g>
          <g id="Grupo_1173817" data-name="Grupo 1173817" transform="translate(99.749 37.398)">
            <g id="Grupo_1173816" data-name="Grupo 1173816">
              <g id="Grupo_1173815" data-name="Grupo 1173815">
                <path id="Trazado_1027232" data-name="Trazado 1027232" d="M3587.736,510.864a34.179,34.179,0,0,1-13.11-2.535.59.59,0,0,1,.49-1.074,34.206,34.206,0,0,0,17.184,2.108.59.59,0,0,1,.166,1.168A33.484,33.484,0,0,1,3587.736,510.864Z" transform="translate(-3574.281 -507.202)" fill="#3b2a3a"/>
              </g>
            </g>
          </g>
          <g id="Grupo_1173820" data-name="Grupo 1173820" transform="translate(75.568 56.697)">
            <g id="Grupo_1173819" data-name="Grupo 1173819">
              <g id="Grupo_1173818" data-name="Grupo 1173818">
                <path id="Trazado_1027233" data-name="Trazado 1027233" d="M3500.725,593.944a.59.59,0,0,1-.259-.06c-8.874-4.336-8.184-20.02-8.15-20.686a.59.59,0,0,1,1.178.059c-.008.155-.686,15.573,7.49,19.567a.59.59,0,0,1-.26,1.12Z" transform="translate(-3492.291 -572.638)" fill="#3b2a3a"/>
              </g>
            </g>
          </g>
          <g id="Grupo_1173823" data-name="Grupo 1173823" transform="translate(85.097 60.557)">
            <g id="Grupo_1173822" data-name="Grupo 1173822">
              <g id="Grupo_1173821" data-name="Grupo 1173821">
                <path id="Trazado_1027234" data-name="Trazado 1027234" d="M3525.192,592.341a.59.59,0,0,1-.016-1.18c.081,0,8.129-.278,13.458-5.278a.59.59,0,0,1,.808.86c-5.663,5.313-13.887,5.588-14.234,5.6Z" transform="translate(-3524.602 -585.724)" fill="#3b2a3a"/>
              </g>
            </g>
          </g>
          <g id="Grupo_1173825" data-name="Grupo 1173825" transform="translate(19.513 115.591)">
            <g id="Grupo_1173824" data-name="Grupo 1173824">
              <path id="Trazado_1027235" data-name="Trazado 1027235" d="M3336.873,782.487c-.005-.016-.006-.033-.011-.049-1.18-5.017-4.691.313-9.708-.027s-10.069-1.151-8.114-4.484-2.426-4.011-9.45-3.641c-4.937.258-6.729,2.5-7.357,3.8,2.193-5.2,10.364-6.61,17.789-5.306,4.566.8,8.049,1.055,10.89,2.2A9.773,9.773,0,0,1,3336.873,782.487Z" transform="translate(-3302.232 -772.324)" fill="#969946"/>
            </g>
          </g>
          <g id="Grupo_1173827" data-name="Grupo 1173827" transform="translate(56.276 88.689)">
            <g id="Grupo_1173826" data-name="Grupo 1173826">
              <path id="Trazado_1027236" data-name="Trazado 1027236" d="M3439.948,714.669c2.778-1.932,2.892-4.98.378-4.689s-1.742-5.429-2.017-10.243,2.75-1.323,1.832-5.393-1.408-2.824-5.474-8.711-7.785-3.815-7.785-3.815v0a5.146,5.146,0,0,1,1.273-.525c4.658-1.27,12.321,4.407,14.874,12.816,1.294,4.251,2.588,7.389,2.927,10.327A9.947,9.947,0,0,1,3439.948,714.669Z" transform="translate(-3426.88 -681.11)" fill="#969946"/>
            </g>
          </g>
          <g id="Grupo_1173829" data-name="Grupo 1173829" transform="translate(0.11 86.238)">
            <g id="Grupo_1173828" data-name="Grupo 1173828">
              <path id="Trazado_1027237" data-name="Trazado 1027237" d="M3270.664,686.187c-.493-5.211-6.334-7.952-5.318-4.906s-.656,5.121-6.789,4.04-3.422-3.549-5.1-6.557-4.746-2.644-10.839-3.154c-4.71-.393-5.882,2.182-6.174,3.373a5.049,5.049,0,0,1,.283-.877c1.842-4.464,11.022-7.054,19.237-3.937,4.155,1.58,7.428,2.472,9.959,4A9.9,9.9,0,0,1,3270.664,686.187Z" transform="translate(-3236.443 -672.8)" fill="#969946"/>
            </g>
          </g>
          <g id="Grupo_1173831" data-name="Grupo 1173831" transform="translate(39.222 54.636)">
            <g id="Grupo_1173830" data-name="Grupo 1173830">
              <path id="Trazado_1027238" data-name="Trazado 1027238" d="M3380.535,572.47c2.107,3.8.03,3.93-.941,9.239s-3.387,4.723-5.471,4.14-1.139,2.673-2.452,7.753c-.97,3.743.984,5.49,2.082,6.152a9.349,9.349,0,0,1-2.475-1.893,8.32,8.32,0,0,1-2.2-6.53c.344-5.148,5.017-8.684,5.82-14.987.788-6.2,2.612-10.071,5.395-10.7C3379.026,566.3,3378.783,569.311,3380.535,572.47Z" transform="translate(-3369.055 -565.647)" fill="#969946"/>
            </g>
          </g>
          <g id="Grupo_1173833" data-name="Grupo 1173833" transform="translate(51.36 54.549)">
            <g id="Grupo_1173832" data-name="Grupo 1173832">
              <path id="Trazado_1027239" data-name="Trazado 1027239" d="M3410.543,565.373a1.107,1.107,0,0,1-.332-.02A3.092,3.092,0,0,1,3410.543,565.373Z" transform="translate(-3410.211 -565.353)" fill="#969946"/>
            </g>
          </g>
          <g id="Grupo_1173835" data-name="Grupo 1173835" transform="translate(25.306 39.127)">
            <g id="Grupo_1173834" data-name="Grupo 1173834">
              <path id="Trazado_1027240" data-name="Trazado 1027240" d="M3335.82,531.024c-1.189,8.706-.541,13.451-7.8,17.584,3.214-2.894,1.788-7.258,1.95-13.663s1.841-4.54,2.864-7.721-1.582-4.237-4.523-9.22c-2.823-4.777-6.173-4.923-6.442-4.927a5.791,5.791,0,0,1,1.378.071C3328.013,513.936,3337.009,522.317,3335.82,531.024Z" transform="translate(-3321.873 -513.063)" fill="#969946"/>
            </g>
          </g>
          <g id="Grupo_1173837" data-name="Grupo 1173837" transform="translate(75.243 32.349)">
            <g id="Grupo_1173836" data-name="Grupo 1173836">
              <path id="Trazado_1027241" data-name="Trazado 1027241" d="M3501.446,506.833c.012,4.635.381,8.112-.247,11.109a9.8,9.8,0,0,1-6.926,7.382c.047-.049.095-.09.147-.135,4.964-4.342,5.076-9,1.318-11.382s.823-5.053.548-14.457-5.094-9.192-5.094-9.192c.015-.026.031-.048.046-.07C3497.962,489.833,3501.423,498.489,3501.446,506.833Z" transform="translate(-3491.191 -490.082)" fill="#969946"/>
            </g>
          </g>
          <g id="Grupo_1173839" data-name="Grupo 1173839" transform="translate(91.894 49.993)">
            <g id="Grupo_1173838" data-name="Grupo 1173838">
              <path id="Trazado_1027242" data-name="Trazado 1027242" d="M3567.363,566.665c-4.05,1.834-6.989,3.53-9.858,4.245a9.935,9.935,0,0,1-9.856-3.117l0,0s1.882,1.923,5.677,1.085,8.963-.763,7.8-3.636-2.157-4.254,2.977-5.948,3.3-3.461,6.781-4.094,9.148,1.864,7.086-5.29c.053.11.107.224.156.342C3580,554.7,3575.363,563.036,3567.363,566.665Z" transform="translate(-3547.649 -549.905)" fill="#969946"/>
            </g>
          </g>
          <g id="Grupo_1173841" data-name="Grupo 1173841" transform="translate(94.04 0.104)">
            <g id="Grupo_1173840" data-name="Grupo 1173840">
              <path id="Trazado_1027243" data-name="Trazado 1027243" d="M3567.924,399.954c-1.358,4.233-2.08,7.545-3.474,10.155a9.935,9.935,0,0,1-9.527,5.175v0s5.461.454,7.867-6.756-7.039-2.028-4.652-7.83-.849-12.805,3.313-11.841c3.719.859,3.306-6.962.85-8.1a5.537,5.537,0,0,1,.7.2C3567.547,382.554,3570.613,391.587,3567.924,399.954Z" transform="translate(-3554.924 -380.75)" fill="#969946"/>
            </g>
          </g>
          <g id="Grupo_1173843" data-name="Grupo 1173843" transform="translate(116.294 7.973)">
            <g id="Grupo_1173842" data-name="Grupo 1173842">
              <path id="Trazado_1027244" data-name="Trazado 1027244" d="M3649.542,424.982c-4.158,1.581-7.2,3.086-10.1,3.62a9.894,9.894,0,0,1-9.06-3.046c1.02.952,3.246,2.166,7.152.4,5.734-2.591,10.4-4.037,8.3-7.345s-.617-4.546,4.462-5.776,12.711-1.476,9.91-5.392a.013.013,0,0,1,0-.012,4.585,4.585,0,0,1,1.119,1.842C3662.9,413.833,3657.755,421.864,3649.542,424.982Z" transform="translate(-3630.379 -407.432)" fill="#969946"/>
            </g>
          </g>
        </g>
        <g id="Grupo_1173849" data-name="Grupo 1173849" transform="translate(71.788 86.421)">
          <g id="Grupo_1173846" data-name="Grupo 1173846" transform="translate(0.876 0.875)">
            <g id="Grupo_1173845" data-name="Grupo 1173845">
              <rect id="Rectángulo_414454" data-name="Rectángulo 414454" width="362.173" height="241.293" rx="25.292" fill="#ea9d54"/>
            </g>
          </g>
          <g id="Grupo_1173848" data-name="Grupo 1173848">
            <g id="Grupo_1173847" data-name="Grupo 1173847">
              <path id="Trazado_1027245" data-name="Trazado 1027245" d="M3856.874,914.97H3512.412a9.743,9.743,0,0,1-9.731-9.731V681.657a9.742,9.742,0,0,1,9.731-9.731h344.461a9.742,9.742,0,0,1,9.731,9.731V905.239A9.743,9.743,0,0,1,3856.874,914.97ZM3512.412,673.677a7.99,7.99,0,0,0-7.981,7.98V905.239a7.99,7.99,0,0,0,7.981,7.98h344.461a7.99,7.99,0,0,0,7.981-7.98V681.657a7.99,7.99,0,0,0-7.981-7.98Z" transform="translate(-3502.681 -671.926)" fill="#3b2a3a"/>
            </g>
          </g>
        </g>
        <g id="Grupo_1173852" data-name="Grupo 1173852" transform="translate(72.661 119.478)">
          <g id="Grupo_1173851" data-name="Grupo 1173851">
            <g id="Grupo_1173850" data-name="Grupo 1173850">
              <rect id="Rectángulo_414455" data-name="Rectángulo 414455" width="362.174" height="1.401" fill="#3b2a3a"/>
            </g>
          </g>
        </g>
        <g id="Grupo_1173855" data-name="Grupo 1173855" transform="translate(72.661 189.108)">
          <g id="Grupo_1173854" data-name="Grupo 1173854">
            <g id="Grupo_1173853" data-name="Grupo 1173853">
              <rect id="Rectángulo_414456" data-name="Rectángulo 414456" width="362.174" height="1.401" fill="#3b2a3a"/>
            </g>
          </g>
        </g>
        <g id="Grupo_1173858" data-name="Grupo 1173858" transform="translate(72.661 260.745)">
          <g id="Grupo_1173857" data-name="Grupo 1173857">
            <g id="Grupo_1173856" data-name="Grupo 1173856">
              <rect id="Rectángulo_414457" data-name="Rectángulo 414457" width="362.174" height="1.401" fill="#3b2a3a"/>
            </g>
          </g>
        </g>
        <g id="Grupo_1173861" data-name="Grupo 1173861" transform="translate(189.209 120.178)">
          <g id="Grupo_1173860" data-name="Grupo 1173860">
            <g id="Grupo_1173859" data-name="Grupo 1173859">
              <rect id="Rectángulo_414458" data-name="Rectángulo 414458" width="1.401" height="208.411" fill="#3b2a3a"/>
            </g>
          </g>
        </g>
        <g id="Grupo_1173864" data-name="Grupo 1173864" transform="translate(316.888 120.178)">
          <g id="Grupo_1173863" data-name="Grupo 1173863">
            <g id="Grupo_1173862" data-name="Grupo 1173862">
              <rect id="Rectángulo_414459" data-name="Rectángulo 414459" width="1.401" height="208.411" fill="#3b2a3a"/>
            </g>
          </g>
        </g>
        <g id="Grupo_1173866" data-name="Grupo 1173866" transform="translate(207.487 199.473)">
          <g id="Grupo_1173865" data-name="Grupo 1173865">
            <rect id="Rectángulo_414460" data-name="Rectángulo 414460" width="92.523" height="54.265" fill="#abae5a"/>
          </g>
        </g>
        <g id="Grupo_1173868" data-name="Grupo 1173868" transform="translate(229.04 195.187)">
          <g id="Grupo_1173867" data-name="Grupo 1173867">
            <path id="Trazado_1027246" data-name="Trazado 1027246" d="M4001.21,982.562h-49.418v17.856a2.516,2.516,0,0,0,2.122-.975c2.419-.671,5.807,1.567,9.679,0,3.872-1.236,8.227.066,12.583,0,4.355.927,8.711-1.515,12.582,0,3.582.751,6.75-2.581,9.119-.593a1.791,1.791,0,0,0,1.388.438,7.674,7.674,0,0,1,1.945-.029Z" transform="translate(-3951.792 -982.562)" fill="#fde9de"/>
          </g>
        </g>
        <g id="Grupo_1173870" data-name="Grupo 1173870" transform="translate(85.507 198.152)">
          <g id="Grupo_1173869" data-name="Grupo 1173869">
            <rect id="Rectángulo_414461" data-name="Rectángulo 414461" width="91.937" height="54.949" rx="16.268" fill="#d9d9d9"/>
          </g>
        </g>
        <g id="Grupo_1173872" data-name="Grupo 1173872" transform="translate(85.507 127.519)">
          <g id="Grupo_1173871" data-name="Grupo 1173871">
            <rect id="Rectángulo_414462" data-name="Rectángulo 414462" width="91.937" height="54.949" rx="16.268" fill="#fbf0c0"/>
          </g>
        </g>
        <g id="Grupo_1173874" data-name="Grupo 1173874" transform="translate(97.445 97.509)">
          <g id="Grupo_1173873" data-name="Grupo 1173873">
            <rect id="Rectángulo_414463" data-name="Rectángulo 414463" width="68.062" height="11.293" rx="5.646" fill="#d86f54"/>
          </g>
        </g>
        <g id="Grupo_1173876" data-name="Grupo 1173876" transform="translate(219.718 97.509)">
          <g id="Grupo_1173875" data-name="Grupo 1173875">
            <rect id="Rectángulo_414464" data-name="Rectángulo 414464" width="68.062" height="11.293" rx="5.646" fill="#d86f54"/>
          </g>
        </g>
        <g id="Grupo_1173878" data-name="Grupo 1173878" transform="translate(342.75 97.509)">
          <g id="Grupo_1173877" data-name="Grupo 1173877">
            <rect id="Rectángulo_414465" data-name="Rectángulo 414465" width="68.062" height="11.293" rx="5.646" fill="#d86f54"/>
          </g>
        </g>
        <g id="Grupo_1173880" data-name="Grupo 1173880" transform="translate(207.78 127.519)">
          <g id="Grupo_1173879" data-name="Grupo 1173879">
            <rect id="Rectángulo_414466" data-name="Rectángulo 414466" width="91.937" height="54.949" rx="16.268" fill="#fbf0c0"/>
          </g>
        </g>
        <g id="Grupo_1173882" data-name="Grupo 1173882" transform="translate(330.813 127.519)">
          <g id="Grupo_1173881" data-name="Grupo 1173881">
            <rect id="Rectángulo_414467" data-name="Rectángulo 414467" width="91.937" height="54.949" rx="16.268" fill="#d9d9d9"/>
          </g>
        </g>
        <g id="Grupo_1173884" data-name="Grupo 1173884" transform="translate(330.813 198.152)">
          <g id="Grupo_1173883" data-name="Grupo 1173883">
            <rect id="Rectángulo_414468" data-name="Rectángulo 414468" width="91.937" height="54.949" rx="16.268" fill="#fbf0c0"/>
          </g>
        </g>
        <g id="Grupo_1173886" data-name="Grupo 1173886" transform="translate(330.813 267.52)">
          <g id="Grupo_1173885" data-name="Grupo 1173885">
            <rect id="Rectángulo_414469" data-name="Rectángulo 414469" width="91.937" height="54.949" rx="16.268" fill="#fbf0c0"/>
          </g>
        </g>
        <g id="Grupo_1173888" data-name="Grupo 1173888" transform="translate(207.78 267.52)">
          <g id="Grupo_1173887" data-name="Grupo 1173887">
            <rect id="Rectángulo_414470" data-name="Rectángulo 414470" width="91.937" height="54.949" rx="16.268" fill="#fbf0c0"/>
          </g>
        </g>
        <g id="Grupo_1173890" data-name="Grupo 1173890" transform="translate(85.507 267.911)">
          <g id="Grupo_1173889" data-name="Grupo 1173889">
            <rect id="Rectángulo_414471" data-name="Rectángulo 414471" width="91.937" height="54.949" rx="16.268" fill="#d9d9d9"/>
          </g>
        </g>
        <g id="Grupo_1173892" data-name="Grupo 1173892" transform="translate(215.461 225.174)">
          <g id="Grupo_1173891" data-name="Grupo 1173891">
            <path id="Trazado_1027247" data-name="Trazado 1027247" d="M3989.586,1068.287a48.74,48.74,0,0,1-7.847.419c-4.295,0-4.295-.137-8.589-.137s-4.294.091-8.588.091-4.294-.455-8.588-.455-4.292.162-8.584.162-4.293.369-8.587.369-4.293-.2-8.586-.2-4.293-.2-8.586-.2-4.312.162-8.585.412l-.035,0v2.251l.035,0a51.807,51.807,0,0,1,8.59-.369h8.589c4.294,0,4.294.475,8.588.475s4.293-.254,8.587-.254,4.292-.051,8.584-.051,4.294-.133,8.587-.133,4.292-.06,8.585-.06,4.293-.007,8.586-.007c4.03,0,4.278.1,7.843.159Z" transform="translate(-3913.011 -1068.205)" fill="#fff"/>
          </g>
        </g>
        <g id="Grupo_1173894" data-name="Grupo 1173894" transform="translate(215.461 231.35)">
          <g id="Grupo_1173893" data-name="Grupo 1173893">
            <path id="Trazado_1027248" data-name="Trazado 1027248" d="M3961.242,1086.17a42.391,42.391,0,0,0-5.269-.325c-4.292,0-4.292.162-8.584.162s-4.293.369-8.587.369-4.293-.2-8.586-.2-4.293-.2-8.586-.2-4.312.162-8.585.413l-.035,0v2.251l.035,0a51.846,51.846,0,0,1,8.59-.369h8.589c4.294,0,4.294.475,8.588.475s4.293-.254,8.587-.254,4.292-.051,8.584-.051c2.771,0,3.756-.055,5.258-.094Z" transform="translate(-3913.011 -1085.845)" fill="#fff"/>
          </g>
        </g>
        <g id="Grupo_1173897" data-name="Grupo 1173897" transform="translate(97.354 150.82)">
          <g id="Grupo_1173896" data-name="Grupo 1173896">
            <g id="Grupo_1173895" data-name="Grupo 1173895">
              <path id="Trazado_1027249" data-name="Trazado 1027249" d="M3625.16,857.252H3576.4a.7.7,0,0,1,0-1.4h48.764a.7.7,0,0,1,0,1.4Z" transform="translate(-3575.696 -855.851)" fill="#3b2a3a"/>
            </g>
          </g>
        </g>
        <g id="Grupo_1173900" data-name="Grupo 1173900" transform="translate(97.354 157.548)">
          <g id="Grupo_1173899" data-name="Grupo 1173899">
            <g id="Grupo_1173898" data-name="Grupo 1173898">
              <path id="Trazado_1027250" data-name="Trazado 1027250" d="M3614.058,876.467H3576.4a.7.7,0,0,1,0-1.4h37.661a.7.7,0,0,1,0,1.4Z" transform="translate(-3575.696 -875.066)" fill="#3b2a3a"/>
            </g>
          </g>
        </g>
        <g id="Grupo_1173903" data-name="Grupo 1173903" transform="translate(150.779 150.82)">
          <g id="Grupo_1173902" data-name="Grupo 1173902">
            <g id="Grupo_1173901" data-name="Grupo 1173901">
              <path id="Trazado_1027251" data-name="Trazado 1027251" d="M3741.171,857.252H3728.98a.7.7,0,1,1,0-1.4h12.191a.7.7,0,0,1,0,1.4Z" transform="translate(-3728.279 -855.851)" fill="#3b2a3a"/>
            </g>
          </g>
        </g>
        <g id="Grupo_1173906" data-name="Grupo 1173906" transform="translate(97.354 221.562)">
          <g id="Grupo_1173905" data-name="Grupo 1173905">
            <g id="Grupo_1173904" data-name="Grupo 1173904">
              <path id="Trazado_1027252" data-name="Trazado 1027252" d="M3598.448,1059.291H3576.4a.7.7,0,0,1,0-1.4h22.051a.7.7,0,1,1,0,1.4Z" transform="translate(-3575.696 -1057.89)" fill="#3b2a3a"/>
            </g>
          </g>
        </g>
        <g id="Grupo_1173909" data-name="Grupo 1173909" transform="translate(97.354 228.29)">
          <g id="Grupo_1173908" data-name="Grupo 1173908">
            <g id="Grupo_1173907" data-name="Grupo 1173907">
              <path id="Trazado_1027253" data-name="Trazado 1027253" d="M3625.16,1078.505H3576.4a.7.7,0,1,1,0-1.4h48.764a.7.7,0,1,1,0,1.4Z" transform="translate(-3575.696 -1077.105)" fill="#3b2a3a"/>
            </g>
          </g>
        </g>
        <g id="Grupo_1173912" data-name="Grupo 1173912" transform="translate(124.066 221.562)">
          <g id="Grupo_1173911" data-name="Grupo 1173911">
            <g id="Grupo_1173910" data-name="Grupo 1173910">
              <path id="Trazado_1027254" data-name="Trazado 1027254" d="M3691.592,1059.291h-38.9a.7.7,0,0,1,0-1.4h38.9a.7.7,0,0,1,0,1.4Z" transform="translate(-3651.988 -1057.89)" fill="#3b2a3a"/>
            </g>
          </g>
        </g>
        <g id="Grupo_1173915" data-name="Grupo 1173915" transform="translate(220.24 291.321)">
          <g id="Grupo_1173914" data-name="Grupo 1173914">
            <g id="Grupo_1173913" data-name="Grupo 1173913">
              <path id="Trazado_1027255" data-name="Trazado 1027255" d="M3943.667,1258.521h-16.305a.7.7,0,1,1,0-1.4h16.305a.7.7,0,0,1,0,1.4Z" transform="translate(-3926.661 -1257.121)" fill="#3b2a3a"/>
            </g>
          </g>
        </g>
        <g id="Grupo_1173918" data-name="Grupo 1173918" transform="translate(220.24 298.049)">
          <g id="Grupo_1173917" data-name="Grupo 1173917">
            <g id="Grupo_1173916" data-name="Grupo 1173916">
              <path id="Trazado_1027256" data-name="Trazado 1027256" d="M3972.853,1277.737h-45.491a.7.7,0,1,1,0-1.4h45.491a.7.7,0,0,1,0,1.4Z" transform="translate(-3926.661 -1276.336)" fill="#3b2a3a"/>
            </g>
          </g>
        </g>
        <g id="Grupo_1173921" data-name="Grupo 1173921" transform="translate(241.207 291.321)">
          <g id="Grupo_1173920" data-name="Grupo 1173920">
            <g id="Grupo_1173919" data-name="Grupo 1173919">
              <path id="Trazado_1027257" data-name="Trazado 1027257" d="M4031.893,1258.521h-44.649a.7.7,0,1,1,0-1.4h44.649a.7.7,0,0,1,0,1.4Z" transform="translate(-3986.543 -1257.121)" fill="#3b2a3a"/>
            </g>
          </g>
        </g>
        <g id="Grupo_1173924" data-name="Grupo 1173924" transform="translate(343.273 151.079)">
          <g id="Grupo_1173923" data-name="Grupo 1173923">
            <g id="Grupo_1173922" data-name="Grupo 1173922">
              <path id="Trazado_1027258" data-name="Trazado 1027258" d="M4295.049,857.991h-16.306a.7.7,0,0,1,0-1.4h16.306a.7.7,0,0,1,0,1.4Z" transform="translate(-4278.043 -856.59)" fill="#3b2a3a"/>
            </g>
          </g>
        </g>
        <g id="Grupo_1173927" data-name="Grupo 1173927" transform="translate(343.273 157.807)">
          <g id="Grupo_1173926" data-name="Grupo 1173926">
            <g id="Grupo_1173925" data-name="Grupo 1173925">
              <path id="Trazado_1027259" data-name="Trazado 1027259" d="M4324.235,877.206h-45.492a.7.7,0,0,1,0-1.4h45.492a.7.7,0,0,1,0,1.4Z" transform="translate(-4278.043 -875.805)" fill="#3b2a3a"/>
            </g>
          </g>
        </g>
        <g id="Grupo_1173930" data-name="Grupo 1173930" transform="translate(364.24 151.079)">
          <g id="Grupo_1173929" data-name="Grupo 1173929">
            <g id="Grupo_1173928" data-name="Grupo 1173928">
              <path id="Trazado_1027260" data-name="Trazado 1027260" d="M4383.274,857.991h-44.65a.7.7,0,1,1,0-1.4h44.65a.7.7,0,0,1,0,1.4Z" transform="translate(-4337.923 -856.59)" fill="#3b2a3a"/>
            </g>
          </g>
        </g>
        <g id="Grupo_1173932" data-name="Grupo 1173932" transform="translate(85.507 127.519)">
          <g id="Grupo_1173931" data-name="Grupo 1173931">
            <rect id="Rectángulo_414472" data-name="Rectángulo 414472" width="12.547" height="12.547" fill="#d86f54"/>
          </g>
        </g>
        <g id="Grupo_1173934" data-name="Grupo 1173934" transform="translate(85.507 198.146)">
          <g id="Grupo_1173933" data-name="Grupo 1173933">
            <rect id="Rectángulo_414473" data-name="Rectángulo 414473" width="12.547" height="12.547" fill="#d86f54"/>
          </g>
        </g>
        <g id="Grupo_1173936" data-name="Grupo 1173936" transform="translate(85.507 267.911)">
          <g id="Grupo_1173935" data-name="Grupo 1173935">
            <rect id="Rectángulo_414474" data-name="Rectángulo 414474" width="12.547" height="12.547" fill="#d86f54"/>
          </g>
        </g>
        <g id="Grupo_1173938" data-name="Grupo 1173938" transform="translate(207.754 127.519)">
          <g id="Grupo_1173937" data-name="Grupo 1173937">
            <rect id="Rectángulo_414475" data-name="Rectángulo 414475" width="12.547" height="12.547" fill="#b35086"/>
          </g>
        </g>
        <g id="Grupo_1173940" data-name="Grupo 1173940" transform="translate(207.754 267.52)">
          <g id="Grupo_1173939" data-name="Grupo 1173939">
            <rect id="Rectángulo_414476" data-name="Rectángulo 414476" width="12.547" height="12.547" fill="#b35086"/>
          </g>
        </g>
        <g id="Grupo_1173942" data-name="Grupo 1173942" transform="translate(330.813 127.519)">
          <g id="Grupo_1173941" data-name="Grupo 1173941">
            <rect id="Rectángulo_414477" data-name="Rectángulo 414477" width="12.547" height="12.547" fill="#6675f1"/>
          </g>
        </g>
        <g id="Grupo_1173944" data-name="Grupo 1173944" transform="translate(330.813 267.52)">
          <g id="Grupo_1173943" data-name="Grupo 1173943">
            <rect id="Rectángulo_414478" data-name="Rectángulo 414478" width="12.547" height="12.547" fill="#6675f1"/>
          </g>
        </g>
        <g id="Grupo_1173946" data-name="Grupo 1173946" transform="translate(79.508 98.255)" opacity="0.33" style="mix-blend-mode: overlay;isolation: isolate">
          <g id="Grupo_1173945" data-name="Grupo 1173945">
            <path id="Trazado_1027261" data-name="Trazado 1027261" d="M3858.991,777.005c0,66.46-126.394,33.977-167.13,128.369-21.337,49.429-65.567,19.475-99.822-2.883-35.838-23.392-67.309-42.234-67.309-85.031h0a111.737,111.737,0,0,1,111.737-111.737h150.867c38.737,0,70.853,30.77,71.638,69.5Q3858.992,776.115,3858.991,777.005Z" transform="translate(-3524.73 -705.723)" fill="#3b2a3a"/>
          </g>
        </g>
      </g>
      <g id="Grupo_1173949" data-name="Grupo 1173949" transform="translate(3592.882 564.691)">
        <g id="Grupo_1173948" data-name="Grupo 1173948" transform="translate(0)">
          <path id="Trazado_1027262" data-name="Trazado 1027262" d="M4267.526,907.373s-6.965,8.345-5.728,17.375a5.225,5.225,0,0,0,3.2,4.466l-.426,6.406,16.733,2.912s0-23.49-.485-24.364S4267.526,907.373,4267.526,907.373Z" transform="translate(-4261.65 -907.373)" fill="#d07051"/>
        </g>
      </g>
      <g id="Grupo_1173951" data-name="Grupo 1173951" transform="translate(3606.885 793.163)">
        <g id="Grupo_1173950" data-name="Grupo 1173950" transform="translate(0)">
          <path id="Trazado_1027263" data-name="Trazado 1027263" d="M4328.007,1570.925c0-.146,0-.291-.006-.439a56.249,56.249,0,0,0-.471-6.484c-1.092-8.007-18.446-1.855-18.446-1.855a21.243,21.243,0,0,1-2.063,3.3,28.172,28.172,0,0,1-5.375,5.474Z" transform="translate(-4301.645 -1559.889)" fill="#d07051"/>
        </g>
      </g>
      <g id="Grupo_1173953" data-name="Grupo 1173953" transform="translate(3593.121 798.725)">
        <g id="Grupo_1173952" data-name="Grupo 1173952" transform="translate(0 0)">
          <path id="Trazado_1027264" data-name="Trazado 1027264" d="M4302.113,1589.789c.035-.374.074-.818.113-1.336.145-1.876.289-4.614.229-7.645-6.742-.124-15.842-3.126-20.981-5.036a27.776,27.776,0,0,1-7.119,6.722c-5.457,3.537-9.065,2.024-11.376,5.958a10.009,10.009,0,0,0-.645,1.336Z" transform="translate(-4262.334 -1575.773)" fill="#4252b2"/>
        </g>
      </g>
      <g id="Grupo_1173955" data-name="Grupo 1173955" transform="translate(3592.653 811.405)">
        <g id="Grupo_1173954" data-name="Grupo 1173954" transform="translate(0 0)">
          <path id="Trazado_1027265" data-name="Trazado 1027265" d="M4301.359,1611.989c-.12,1.583-.244,2.55-.244,2.55h-8.171s-14.025.119-18.506.119H4261a12.169,12.169,0,0,1,1.111-2.669Z" transform="translate(-4261 -1611.989)" fill="#563b56"/>
        </g>
      </g>
      <g id="Grupo_1173957" data-name="Grupo 1173957" transform="translate(3598.338 655.063)">
        <g id="Grupo_1173956" data-name="Grupo 1173956" transform="translate(0)">
          <path id="Trazado_1027266" data-name="Trazado 1027266" d="M4321.234,1309.647h-44l.988-12.443.079-.992,5.715-72.121,4.256-53.7,6.1-1.985,9-2.932s5.809,7.446,8.161,22.8c.05.327.1.66.143.992a90.281,90.281,0,0,1,.755,16.069c-.089,2.376-.011,5.924.208,10.285.02.432.044.873.064,1.325,1.116,21.045,4.961,59.083,7.089,79.27.036.337.07.67.1.992C4320.7,1304.819,4321.234,1309.647,4321.234,1309.647Z" transform="translate(-4277.234 -1165.474)" fill="#563b56"/>
        </g>
      </g>
      <g id="Grupo_1173959" data-name="Grupo 1173959" transform="translate(3598.338 684.83)">
        <g id="Grupo_1173958" data-name="Grupo 1173958" transform="translate(0)">
          <path id="Trazado_1027267" data-name="Trazado 1027267" d="M4312.15,1364.9h-34.917l6.782-85.556,15.216-28.849V1302C4299.232,1302.88,4309.22,1350.82,4312.15,1364.9Z" transform="translate(-4277.234 -1250.49)" fill="#3b2a3a"/>
        </g>
      </g>
      <g id="Grupo_1173961" data-name="Grupo 1173961" transform="translate(3579.583 793.163)">
        <g id="Grupo_1173960" data-name="Grupo 1173960" transform="translate(0)">
          <path id="Trazado_1027268" data-name="Trazado 1027268" d="M4250.031,1570.925c0-.146,0-.291-.006-.439a56.143,56.143,0,0,0-.472-6.484c-1.092-8.007-18.445-1.855-18.445-1.855a21.227,21.227,0,0,1-2.064,3.3,28.158,28.158,0,0,1-5.375,5.474Z" transform="translate(-4223.669 -1559.889)" fill="#d07051"/>
        </g>
      </g>
      <g id="Grupo_1173963" data-name="Grupo 1173963" transform="translate(3565.818 798.725)">
        <g id="Grupo_1173962" data-name="Grupo 1173962" transform="translate(0 0)">
          <path id="Trazado_1027269" data-name="Trazado 1027269" d="M4224.136,1589.789c.035-.374.074-.818.113-1.336.144-1.876.288-4.614.229-7.645-6.743-.124-15.843-3.126-20.982-5.036a27.787,27.787,0,0,1-7.119,6.722c-5.457,3.537-9.064,2.024-11.375,5.958a10.071,10.071,0,0,0-.644,1.336Z" transform="translate(-4184.358 -1575.773)" fill="#6675f1"/>
        </g>
      </g>
      <g id="Grupo_1173965" data-name="Grupo 1173965" transform="translate(3565.35 811.405)">
        <g id="Grupo_1173964" data-name="Grupo 1173964" transform="translate(0 0)">
          <path id="Trazado_1027270" data-name="Trazado 1027270" d="M4223.382,1611.989c-.119,1.583-.243,2.55-.243,2.55h-8.172s-14.024.119-18.5.119h-13.44a12.217,12.217,0,0,1,1.111-2.669Z" transform="translate(-4183.022 -1611.989)" fill="#563b56"/>
        </g>
      </g>
      <g id="Grupo_1173967" data-name="Grupo 1173967" transform="translate(3577.446 652.413)">
        <g id="Grupo_1173966" data-name="Grupo 1173966" transform="translate(0 0)">
          <path id="Trazado_1027271" data-name="Trazado 1027271" d="M4259.226,1211.165v0c-.059.337-.123.67-.187,1.007-2.01,10.568-4.327,20.187-4.535,26.29-.347,10.255-.229,36.614-.114,52.827,0,.337,0,.665.01.992.055,7.4.1,12.443.1,12.443H4219.04s-.218-5.026-.485-12.443c-.016-.327-.026-.655-.036-.992-.5-13.99-1.146-35.651-.9-48.684.253-13.281,2.416-41.848,3.9-60.244.059-.675.113-1.339.163-1.989.72-8.856,1.246-14.9,1.246-14.9s21.045-15.613,32.669-1.985a20.6,20.6,0,0,1,2.276,3.279c2.64,4.654,3.831,10.374,4.108,16.585.015.327.029.66.04.992C4262.272,1192.913,4260.883,1202.339,4259.226,1211.165Z" transform="translate(-4217.566 -1157.906)" fill="#563b56"/>
        </g>
      </g>
      <g id="Grupo_1173969" data-name="Grupo 1173969" transform="translate(3578.398 785.801)">
        <g id="Grupo_1173968" data-name="Grupo 1173968" transform="translate(0 0)">
          <path id="Trazado_1027272" data-name="Trazado 1027272" d="M4282.893,1539.854h-62.571c-.015-.327-.025-.655-.035-.992h62.5C4282.824,1539.2,4282.859,1539.532,4282.893,1539.854Z" transform="translate(-4220.287 -1538.862)" fill="#3b2a3a"/>
        </g>
      </g>
      <g id="Grupo_1173971" data-name="Grupo 1173971" transform="translate(3587.599 659.414)">
        <g id="Grupo_1173970" data-name="Grupo 1173970" transform="translate(0)">
          <path id="Trazado_1027273" data-name="Trazado 1027273" d="M4247.747,1304.831c-4.1-42.523,3.766-126.09,3.846-126.929l.987.094c-.08.838-7.934,84.311-3.845,126.74Z" transform="translate(-4246.564 -1177.902)" fill="#3b2a3a"/>
        </g>
      </g>
      <g id="Grupo_1173973" data-name="Grupo 1173973" transform="translate(3581.396 674.883)">
        <g id="Grupo_1173972" data-name="Grupo 1173972" transform="translate(0)">
          <path id="Trazado_1027274" data-name="Trazado 1027274" d="M4238.614,1233.412l-.476.868c-.089-.05-.178-.1-.268-.154-4.068-2.336-6.975-6.172-9.024-10.057.06-.675.113-1.339.164-1.989,1.939,4.127,4.807,8.4,8.939,10.939C4238.168,1233.159,4238.386,1233.288,4238.614,1233.412Z" transform="translate(-4228.846 -1222.081)" fill="#3b2a3a"/>
        </g>
      </g>
      <g id="Grupo_1173975" data-name="Grupo 1173975" transform="translate(3610.508 677.86)">
        <g id="Grupo_1173974" data-name="Grupo 1173974" transform="translate(0 0)">
          <path id="Trazado_1027275" data-name="Trazado 1027275" d="M4320.588,1258.395v.005c-.059.337-.124.67-.187,1.007-10.513-4.515-8.236-27.376-8.132-28.378l.045-.447h11.028c.014.327.029.66.039.992h-10.166C4312.949,1234.779,4311.733,1254.277,4320.588,1258.395Z" transform="translate(-4311.992 -1230.582)" fill="#3b2a3a"/>
        </g>
      </g>
      <g id="Grupo_1173977" data-name="Grupo 1173977" transform="translate(3629.188 677.86)">
        <g id="Grupo_1173976" data-name="Grupo 1173976" transform="translate(0 0)">
          <path id="Trazado_1027276" data-name="Trazado 1027276" d="M4369.965,1259.253c-5.815-3.775-4.564-25.56-4.391-28.2l.03-.466h3.19c.049.327.1.66.143.992h-2.4c-.411,6.921-.425,22.484,3.364,26.354C4369.921,1258.36,4369.946,1258.8,4369.965,1259.253Z" transform="translate(-4365.343 -1230.582)" fill="#3b2a3a"/>
        </g>
      </g>
      <g id="Grupo_1173979" data-name="Grupo 1173979" transform="translate(3521.78 591.019)">
        <g id="Grupo_1173978" data-name="Grupo 1173978">
          <path id="Trazado_1027277" data-name="Trazado 1027277" d="M4101.108,1026.258c-11.595,2.272-22.178-11.7-27.406-18.411a24.648,24.648,0,0,0-2.779-3.24h0c-3.007-2.327-5.726-5.819-8.152-7.764s-4.812-3.9-4.033-4.951c.57-.769,3.318.922,4.162,1.478-3.572-2.51-4.574-4-4.019-4.946.66-1.131,3.87.809,5.954,2.183-4.55-3.1-4.8-4.539-4.113-5.288.9-1,5.512,1.84,7.229,2.942-3.032-2.109-4.941-4.316-3.82-5.492,1-1.052,6.018,2.233,9.124,4.465,2.907,2.089,4.371,5.715,5.656,7.521.089.124.178.239.263.342a17.819,17.819,0,0,0,3.011,2.114c5.542,3.443,16.6,9.436,16.6,9.436C4102.661,1007.719,4108.917,1024.726,4101.108,1026.258Z" transform="translate(-4058.584 -982.566)" fill="#d07051"/>
        </g>
      </g>
      <g id="Grupo_1173981" data-name="Grupo 1173981" transform="translate(3559.597 592.624)">
        <g id="Grupo_1173980" data-name="Grupo 1173980" transform="translate(0 0)">
          <path id="Trazado_1027278" data-name="Trazado 1027278" d="M4201.187,1015.677a65.439,65.439,0,0,1-13.2,13.8,12.883,12.883,0,0,1-3.34,1.979c-3.051,1.166-4.688-.124-4.688-.124a6.075,6.075,0,0,1-7.506,2.332c-4.917-1.94-6.122-12.14-5.819-18.247.515-10.483,5.689-5.437,5.689-5.437.393-3.235,8.8-8.93,14.8-17.215l.006,0a23.232,23.232,0,0,1,9.456-5.6,10.464,10.464,0,0,1,10.037,6.256C4210.117,1000.922,4204.68,1010.626,4201.187,1015.677Z" transform="translate(-4166.59 -987.147)" fill="#fcd388"/>
        </g>
      </g>
      <g id="Grupo_1173983" data-name="Grupo 1173983" transform="translate(3577.501 591.018)">
        <g id="Grupo_1173982" data-name="Grupo 1173982">
          <path id="Trazado_1027279" data-name="Trazado 1027279" d="M4272.207,1042.594s-.289,8.338-3.423,11.684c-9.366-3.864-16.377-.164-26.344.739-7.844.715-11.251-1.675-19.727.2a7.357,7.357,0,0,1-2.949-2.913c-2.831-5.287-1.534-17.815-1.887-23.823-.114-1.825-.154-2.972-.154-2.972l2.629-35.721,0,0a23.235,23.235,0,0,1,9.457-5.6,39.361,39.361,0,0,1,12.239-1.617c14.235-.035,19.8,1.27,26.011,10.592s8.543,17.34,10.355,23.556S4286.832,1037.935,4272.207,1042.594Z" transform="translate(-4217.723 -982.562)" fill="#fcd388"/>
        </g>
      </g>
      <g id="Grupo_1173985" data-name="Grupo 1173985" transform="translate(3596.747 554.06)">
        <g id="Grupo_1173984" data-name="Grupo 1173984">
          <path id="Trazado_1027280" data-name="Trazado 1027280" d="M4301.413,896.089s0,.015,0,.02a7.845,7.845,0,0,1-1.667,3.374c-2.719,3.3-2.813,5.05-3.979,8.136s-3.4,2.545-3.687,6.351-4.177,2.113-9.029,1.607-5.145-2.307-6.35-4.832,1.3-4.173,1.3-6.117.194-2.912,2.034-2.714,3.4-2.525,2.912-4.078-2.714,0-4.073,0-.486-.873-.393-3.5-1.453-2.327-4.465-5.532c-2.375-2.53-1.052-4.033.04-6.087a.6.6,0,0,1,.035-.075,8.724,8.724,0,0,0,.7-1.7c.873-3.106,1.454-2.426,5.825-3.686s4.952,2.62,8.251,5.338a84,84,0,0,0,7.472,5.339C4300.724,890.224,4301.969,893.31,4301.413,896.089Z" transform="translate(-4272.69 -877.011)" fill="#3b2a3a"/>
        </g>
      </g>
      <g id="Grupo_1173988" data-name="Grupo 1173988" transform="translate(3313.142 619.514)">
        <g id="Grupo_1173987" data-name="Grupo 1173987">
          <g id="Grupo_1173986" data-name="Grupo 1173986">
            <path id="Trazado_1027281" data-name="Trazado 1027281" d="M3482.818,1137.9h-9.572a10.542,10.542,0,0,1-10.53-10.53v-52.892a10.542,10.542,0,0,1,10.53-10.53h9.838v1.4h-9.838a9.14,9.14,0,0,0-9.13,9.13v52.892a9.14,9.14,0,0,0,9.13,9.13h9.572Z" transform="translate(-3462.715 -1063.948)" fill="#3b2a3a"/>
          </g>
        </g>
      </g>
      <g id="Grupo_1173990" data-name="Grupo 1173990" transform="translate(3332.234 618.094)">
        <g id="Grupo_1173989" data-name="Grupo 1173989">
          <path id="Trazado_1027282" data-name="Trazado 1027282" d="M3517.24,1062.011a2.121,2.121,0,1,1,2.121,2.122A2.121,2.121,0,0,1,3517.24,1062.011Z" transform="translate(-3517.24 -1059.89)" fill="#3b2a3a"/>
        </g>
      </g>
      <g id="Grupo_1173992" data-name="Grupo 1173992" transform="translate(3332.234 690.645)">
        <g id="Grupo_1173991" data-name="Grupo 1173991" transform="translate(0 0)">
          <path id="Trazado_1027283" data-name="Trazado 1027283" d="M3517.24,1269.219a2.121,2.121,0,1,1,2.121,2.121A2.121,2.121,0,0,1,3517.24,1269.219Z" transform="translate(-3517.24 -1267.097)" fill="#3b2a3a"/>
        </g>
      </g>
      <g id="Grupo_1173995" data-name="Grupo 1173995" transform="translate(3565.07 616.235)">
        <g id="Grupo_1173994" data-name="Grupo 1173994" transform="translate(0 0)">
          <g id="Grupo_1173993" data-name="Grupo 1173993">
            <path id="Trazado_1027284" data-name="Trazado 1027284" d="M4191.619,1074a.7.7,0,0,1-.113-.01c-3.095-.508-5.021-3.135-7.365-10.037-2.227-6.555-1.924-8.6-1.884-8.81a.7.7,0,0,1,1.377.258c-.009.066-.234,2.019,1.832,8.1,2.118,6.235,3.816,8.7,6.266,9.105a.7.7,0,0,1-.113,1.392Z" transform="translate(-4182.221 -1054.582)" fill="#3b2a3a"/>
          </g>
        </g>
      </g>
      <g id="Grupo_1173998" data-name="Grupo 1173998" transform="translate(3578.879 601.611)">
        <g id="Grupo_1173997" data-name="Grupo 1173997">
          <g id="Grupo_1173996" data-name="Grupo 1173996">
            <path id="Trazado_1027285" data-name="Trazado 1027285" d="M4222.359,1047.348a.7.7,0,0,1-.5-1.19c.083-.085,8.4-8.6,12.817-13.943.273-.331.547-.659.818-.986,4.092-4.91,7.956-9.549,7.135-17.643a.7.7,0,1,1,1.394-.142c.881,8.68-3.167,13.538-7.452,18.682q-.407.488-.816.982c-4.454,5.387-12.812,13.944-12.9,14.029A.7.7,0,0,1,4222.359,1047.348Z" transform="translate(-4221.659 -1012.815)" fill="#3b2a3a"/>
          </g>
        </g>
      </g>
      <g id="Grupo_1174001" data-name="Grupo 1174001" transform="translate(3568.266 621.736)">
        <g id="Grupo_1174000" data-name="Grupo 1174000" transform="translate(0 0)">
          <g id="Grupo_1173999" data-name="Grupo 1173999">
            <path id="Trazado_1027286" data-name="Trazado 1027286" d="M4196.836,1079.345a.705.705,0,0,1-.341-.089c-3.32-1.853-5.049-7.816-5.121-8.07a.7.7,0,0,1,1.348-.383c.016.056,1.642,5.66,4.457,7.23a.7.7,0,0,1-.343,1.312Z" transform="translate(-4191.349 -1070.294)" fill="#3b2a3a"/>
          </g>
        </g>
      </g>
      <g id="Grupo_1174004" data-name="Grupo 1174004" transform="translate(3623.788 601.611)">
        <g id="Grupo_1174003" data-name="Grupo 1174003" transform="translate(0 0)">
          <g id="Grupo_1174002" data-name="Grupo 1174002">
            <path id="Trazado_1027287" data-name="Trazado 1027287" d="M4358.263,1060.837l-.06,0a.7.7,0,0,1-.639-.756,84.26,84.26,0,0,0-2.189-23.622c-1.242-5.23-1.905-9.105-2.437-12.219-.794-4.644-1.274-7.447-2.927-10.378a.7.7,0,1,1,1.22-.688c1.773,3.142,2.3,6.2,3.087,10.829.528,3.094,1.187,6.945,2.42,12.132a85.663,85.663,0,0,1,2.22,24.062A.7.7,0,0,1,4358.263,1060.837Z" transform="translate(-4349.92 -1012.816)" fill="#3b2a3a"/>
          </g>
        </g>
      </g>
      <g id="Grupo_1174007" data-name="Grupo 1174007" transform="translate(3587.809 647.32)">
        <g id="Grupo_1174006" data-name="Grupo 1174006" transform="translate(0 0)">
          <g id="Grupo_1174005" data-name="Grupo 1174005">
            <path id="Trazado_1027288" data-name="Trazado 1027288" d="M4247.862,1156.775a.7.7,0,0,1-.1-1.392,70.016,70.016,0,0,0,15.486-4.92c4.323-1.89,7.465-3.251,9.921-4.314,2.641-1.144,4.55-1.972,6.242-2.726a.7.7,0,1,1,.57,1.279c-1.7.758-3.611,1.586-6.257,2.732-2.453,1.063-5.595,2.423-9.917,4.313a69.929,69.929,0,0,1-15.834,5.021A.776.776,0,0,1,4247.862,1156.775Z" transform="translate(-4247.164 -1143.361)" fill="#3b2a3a"/>
          </g>
        </g>
      </g>
      <g id="Grupo_1174010" data-name="Grupo 1174010" transform="translate(3599.962 645.744)">
        <g id="Grupo_1174009" data-name="Grupo 1174009" transform="translate(0)">
          <g id="Grupo_1174008" data-name="Grupo 1174008">
            <path id="Trazado_1027289" data-name="Trazado 1027289" d="M4282.572,1145.179a.7.7,0,0,1,0-1.4,14.02,14.02,0,0,0,9.332-4.692.7.7,0,0,1,1.03.949A15.151,15.151,0,0,1,4282.572,1145.179Z" transform="translate(-4281.872 -1138.86)" fill="#3b2a3a"/>
          </g>
        </g>
      </g>
      <g id="Grupo_1174013" data-name="Grupo 1174013" transform="translate(3588.767 616.236)">
        <g id="Grupo_1174012" data-name="Grupo 1174012" transform="translate(0)">
          <g id="Grupo_1174011" data-name="Grupo 1174011">
            <path id="Trazado_1027290" data-name="Trazado 1027290" d="M4250.6,1063.94a.7.7,0,0,1-.22-1.365c.074-.024,7.436-2.514,10.929-7.682a.7.7,0,0,1,1.161.784c-3.764,5.569-11.328,8.122-11.649,8.228A.694.694,0,0,1,4250.6,1063.94Z" transform="translate(-4249.9 -1054.585)" fill="#3b2a3a"/>
          </g>
        </g>
      </g>
      <g id="Grupo_1174015" data-name="Grupo 1174015" transform="translate(3534.027 603.166)">
        <g id="Grupo_1174014" data-name="Grupo 1174014" transform="translate(0 0)">
          <path id="Trazado_1027291" data-name="Trazado 1027291" d="M4104.912,1019.754a25.639,25.639,0,0,0-2.02,1.771,32.307,32.307,0,0,0-6.4,8.766.827.827,0,0,1-.055.1c-.773.278-3.392-1.826-2.777-3.24a35.5,35.5,0,0,1,3-4.579,34.508,34.508,0,0,1,3.2-3.632c.68-.675,1.285-1.22,1.786-1.642C4102.614,1016.921,4105.11,1019.183,4104.912,1019.754Z" transform="translate(-4093.563 -1017.256)" fill="#3b2a3a"/>
        </g>
      </g>
      <g id="Grupo_1174017" data-name="Grupo 1174017" transform="translate(3537.116 604.85)">
        <g id="Grupo_1174016" data-name="Grupo 1174016" transform="translate(0 0)">
          <path id="Trazado_1027292" data-name="Trazado 1027292" d="M4108.626,1024.651a31.759,31.759,0,0,0-3.235,3.656,13.71,13.71,0,0,0-3.006-2.61,34.476,34.476,0,0,1,3.2-3.632A13.82,13.82,0,0,1,4108.626,1024.651Z" transform="translate(-4102.385 -1022.066)" fill="#fff"/>
        </g>
      </g>
      <g id="Grupo_1174019" data-name="Grupo 1174019" transform="translate(3596.747 559.768)">
        <g id="Grupo_1174018" data-name="Grupo 1174018" transform="translate(0 0)">
          <path id="Trazado_1027293" data-name="Trazado 1027293" d="M4301.409,906.7a7.844,7.844,0,0,1-1.667,3.374c-2.719,3.3-2.813,5.05-3.979,8.136s-3.4,2.545-3.687,6.35-4.177,2.113-9.029,1.607-5.145-2.307-6.35-4.832,1.3-4.173,1.3-6.117.194-2.912,2.034-2.714,3.4-2.525,2.912-4.078-2.714,0-4.073,0-.486-.873-.393-3.5-1.453-2.327-4.465-5.532c-2.375-2.53-1.052-4.033.04-6.087-.248.55-1.547,3.924,3.175,4.922,5.145,1.091,5.145,1.87,6.892,6.142s3.825-1.166,7.446,2.327S4299.667,911.459,4301.409,906.7Z" transform="translate(-4272.69 -893.311)" fill="#3b2a3a"/>
        </g>
      </g>
    </g>
  </g>
</svg>
