<svg xmlns="http://www.w3.org/2000/svg" xmlns:xlink="http://www.w3.org/1999/xlink" width="113" height="113" viewBox="0 0 113 113">
  <defs>
    <filter id="Trazado_982547" x="0" y="0" width="113" height="113" filterUnits="userSpaceOnUse">
      <feOffset dy="3" input="SourceAlpha"/>
      <feGaussianBlur stdDeviation="3" result="blur"/>
      <feFlood flood-opacity="0.161"/>
      <feComposite operator="in" in2="blur"/>
      <feComposite in="SourceGraphic"/>
    </filter>
  </defs>
  <g id="Grupo_1199629" data-name="Grupo 1199629" transform="translate(-614.102 -7205.117)">
    <g id="Grupo_1173118" data-name="Grupo 1173118" transform="translate(623.102 7211.117)">
      <g id="Grupo_1171577" data-name="Grupo 1171577" transform="translate(0)">
        <g id="Grupo_1167519" data-name="Grupo 1167519">
          <g id="Grupo_1166845" data-name="Grupo 1166845">
            <g id="Grupo_1166720" data-name="Grupo 1166720">
              <g id="Grupo_1164305" data-name="Grupo 1164305">
                <g id="Grupo_1163948" data-name="Grupo 1163948">
                  <g id="Grupo_1158168" data-name="Grupo 1158168">
                    <g id="Grupo_1152576" data-name="Grupo 1152576">
                      <g id="Grupo_1148633" data-name="Grupo 1148633">
                        <g id="Grupo_1148525" data-name="Grupo 1148525">
                          <g transform="matrix(1, 0, 0, 1, -9, -6)" filter="url(#Trazado_982547)">
                            <g id="Trazado_982547-2" data-name="Trazado 982547" transform="translate(9 6)" fill="#fcf3f0">
                              <path d="M 47.5 93.5 C 41.28937149047852 93.5 35.26533508300781 92.28397369384766 29.59518623352051 89.88570404052734 C 24.11771965026855 87.56893157958984 19.19813346862793 84.25196075439453 14.97309303283691 80.02691650390625 C 10.74804019927979 75.80186462402344 7.431066513061523 70.88229370117188 5.114293098449707 65.40481567382812 C 2.716026782989502 59.73468017578125 1.5 53.71062850952148 1.5 47.5 C 1.5 41.28937149047852 2.716026782989502 35.26533508300781 5.114293098449707 29.59518623352051 C 7.431066513061523 24.11771965026855 10.74804019927979 19.19813346862793 14.97309303283691 14.97309303283691 C 19.19813346862793 10.74804019927979 24.11771965026855 7.431066513061523 29.59518623352051 5.114293098449707 C 35.26533508300781 2.716026782989502 41.28937149047852 1.5 47.5 1.5 C 53.71062850952148 1.5 59.73468017578125 2.716026782989502 65.40481567382812 5.114293098449707 C 70.88229370117188 7.431066513061523 75.80186462402344 10.74804019927979 80.02691650390625 14.97309303283691 C 84.25196075439453 19.19813346862793 87.56893157958984 24.11771965026855 89.88570404052734 29.59518623352051 C 92.28397369384766 35.26533508300781 93.5 41.28937149047852 93.5 47.5 C 93.5 53.71062850952148 92.28397369384766 59.73468017578125 89.88570404052734 65.40481567382812 C 87.56893157958984 70.88229370117188 84.25196075439453 75.80186462402344 80.02691650390625 80.02691650390625 C 75.80186462402344 84.25196075439453 70.88229370117188 87.56893157958984 65.40481567382812 89.88570404052734 C 59.73468017578125 92.28397369384766 53.71062850952148 93.5 47.5 93.5 Z" stroke="none"/>
                              <path d="M 47.5 3 C 41.49121475219727 3 35.66376876831055 4.176155090332031 30.17950439453125 6.495796203613281 C 24.88084411621094 8.736953735351562 20.12152099609375 11.94598388671875 16.03375244140625 16.03375244140625 C 11.94598388671875 20.12152099609375 8.736953735351562 24.88084411621094 6.495796203613281 30.17950439453125 C 4.176155090332031 35.66376876831055 3 41.49121475219727 3 47.5 C 3 53.50878524780273 4.176155090332031 59.33623123168945 6.495796203613281 64.82049560546875 C 8.736953735351562 70.11915588378906 11.94598388671875 74.87847900390625 16.03375244140625 78.96624755859375 C 20.12152099609375 83.05401611328125 24.88084411621094 86.26304626464844 30.17950439453125 88.50419616699219 C 35.66376876831055 90.82384490966797 41.49121475219727 92 47.5 92 C 53.50878524780273 92 59.33623123168945 90.82384490966797 64.82049560546875 88.50419616699219 C 70.11915588378906 86.26304626464844 74.87847900390625 83.05401611328125 78.96624755859375 78.96624755859375 C 83.05401611328125 74.87847900390625 86.26304626464844 70.11915588378906 88.50419616699219 64.82049560546875 C 90.82384490966797 59.33623123168945 92 53.50878524780273 92 47.5 C 92 41.49121475219727 90.82384490966797 35.66376876831055 88.50419616699219 30.17950439453125 C 86.26304626464844 24.88084411621094 83.05401611328125 20.12152099609375 78.96624755859375 16.03375244140625 C 74.87847900390625 11.94598388671875 70.11915588378906 8.736953735351562 64.82049560546875 6.495796203613281 C 59.33623123168945 4.176155090332031 53.50878524780273 3 47.5 3 M 47.5 0 C 73.7335205078125 0 95 21.2664794921875 95 47.5 C 95 73.7335205078125 73.7335205078125 95 47.5 95 C 21.2664794921875 95 0 73.7335205078125 0 47.5 C 0 21.2664794921875 21.2664794921875 0 47.5 0 Z" stroke="none" fill="#e89076"/>
                            </g>
                          </g>
                        </g>
                      </g>
                    </g>
                  </g>
                </g>
              </g>
            </g>
          </g>
        </g>
      </g>
    </g>
    <g id="Page-1" transform="translate(640.301 7229.002)">
      <g id="_019---Technology-Engineering" data-name="019---Technology-Engineering" transform="translate(0 -1)">
        <path id="Shape" d="M11,31A19.013,19.013,0,0,0,29.028,49.99a1.006,1.006,0,0,1,.972,1V59a1.007,1.007,0,0,1-1.056,1c-.56-.024-1.116-.066-1.664-.128a1.782,1.782,0,0,1-1.54-1.5l-.63-3.853a23.667,23.667,0,0,1-8.26-3.432l-3.18,2.281a1.8,1.8,0,0,1-2.16-.02c-.69-.58-1.36-1.18-2.01-1.831A26.376,26.376,0,0,1,7.67,49.5a1.8,1.8,0,0,1-.02-2.162L9.93,44.16A23.712,23.712,0,0,1,6.5,35.894l-3.85-.631a1.808,1.808,0,0,1-1.5-1.588,24.76,24.76,0,0,1,0-5.4,1.783,1.783,0,0,1,1.5-1.541L6.5,26.1a23.712,23.712,0,0,1,3.43-8.266l-2.28-3.18A1.8,1.8,0,0,1,7.67,12.5,22.918,22.918,0,0,1,9.5,10.486a26.4,26.4,0,0,1,2.01-1.832,1.8,1.8,0,0,1,2.16-.02l3.18,2.282a23.688,23.688,0,0,1,8.26-3.433l.63-3.852a1.8,1.8,0,0,1,1.54-1.512Q28.1,2.037,28.947,2A1.006,1.006,0,0,1,30,3v8.012a1.006,1.006,0,0,1-.972,1A19.013,19.013,0,0,0,11,31Z" fill="#02a9f4"/>
        <path id="Shape-2" data-name="Shape" d="M29.028,12.011a1.006,1.006,0,0,0,.972-1V3a1.006,1.006,0,0,0-1.053-1q-.843.035-1.667.118a1.717,1.717,0,0,0-.58.182A.988.988,0,0,1,27,3v8.012a1.006,1.006,0,0,1-.972,1,19.015,19.015,0,0,0,0,37.979,1.006,1.006,0,0,1,.972,1V59a.989.989,0,0,1-.3.7,1.7,1.7,0,0,0,.575.173c.548.062,1.1.1,1.664.128A1.007,1.007,0,0,0,30,59V50.986a1.006,1.006,0,0,0-.972-1,19.015,19.015,0,0,1,0-37.979Z" fill="#0377bc"/>
        <path id="Shape-3" data-name="Shape" d="M30,45.044a.918.918,0,0,1-.956.926,15,15,0,0,1,0-29.94.918.918,0,0,1,.956.926Z" fill="#a4c400"/>
        <path id="Shape-4" data-name="Shape" d="M29.044,16.03a15.01,15.01,0,0,0-2.271.335.932.932,0,0,1,.227.591V45.044a.932.932,0,0,1-.227.591,15.01,15.01,0,0,0,2.271.335A.918.918,0,0,0,30,45.044V16.956a.918.918,0,0,0-.956-.926Z" fill="#90ac00"/>
        <g id="Grupo_1199628" data-name="Grupo 1199628">
          <circle id="Oval" cx="2" cy="2" r="2" transform="translate(37 4)" fill="#60a917"/>
          <circle id="Oval-2" data-name="Oval" cx="2" cy="2" r="2" transform="translate(37 54)" fill="#60a917"/>
          <circle id="Oval-3" data-name="Oval" cx="2" cy="2" r="2" transform="translate(47 44)" fill="#60a917"/>
          <circle id="Oval-4" data-name="Oval" cx="2" cy="2" r="2" transform="translate(55 29)" fill="#60a917"/>
          <circle id="Oval-5" data-name="Oval" cx="2" cy="2" r="2" transform="translate(47 14)" fill="#60a917"/>
        </g>
        <path id="Shape-5" data-name="Shape" d="M2.486,25.751a2.8,2.8,0,0,0-2.33,2.415A25.874,25.874,0,0,0,.15,33.785,2.818,2.818,0,0,0,2.488,36.25l3.182.521a24.579,24.579,0,0,0,3.053,7.357L6.85,46.744a2.806,2.806,0,0,0,.044,3.389,26.76,26.76,0,0,0,1.9,2.089c.614.615,1.293,1.233,2.108,1.918a2.792,2.792,0,0,0,3.352.039l2.629-1.886a24.574,24.574,0,0,0,7.35,3.054l.522,3.187a2.8,2.8,0,0,0,2.415,2.331c.57.064,1.149.109,1.732.133h.085a2.034,2.034,0,0,0,1.4-.56A1.983,1.983,0,0,0,31,59V50.986a2.008,2.008,0,0,0-1.921-1.995,18.015,18.015,0,0,1,0-35.981,2.009,2.009,0,0,0,1.921-2V3a2.008,2.008,0,0,0-2.093-2c-.582.023-1.159.065-1.751.125a2.789,2.789,0,0,0-2.4,2.342l-.521,3.184a24.581,24.581,0,0,0-7.35,3.055L14.256,7.824a2.8,2.8,0,0,0-3.377.054A27.225,27.225,0,0,0,8.8,9.767a24.186,24.186,0,0,0-1.918,2.11,2.8,2.8,0,0,0-.048,3.364l1.885,2.632A24.563,24.563,0,0,0,5.67,25.229Zm4.993.558a22.654,22.654,0,0,1,3.286-7.918,1,1,0,0,0-.023-1.133L8.461,14.073a.8.8,0,0,1-.015-.946,22.023,22.023,0,0,1,1.761-1.935,25.633,25.633,0,0,1,1.91-1.744.8.8,0,0,1,.97,0l3.18,2.282a1,1,0,0,0,1.133.021,22.613,22.613,0,0,1,7.913-3.287,1,1,0,0,0,.785-.818l.629-3.851a.793.793,0,0,1,.654-.679C27.91,3.061,28.446,3.022,29,3l-.022,8.011A20.013,20.013,0,0,0,29,50.986L28.986,59c-.537-.022-1.069-.064-1.594-.123a.785.785,0,0,1-.664-.668l-.63-3.853a1,1,0,0,0-.785-.818A22.62,22.62,0,0,1,17.4,50.25a1,1,0,0,0-1.133.022l-3.183,2.284a.786.786,0,0,1-.931.025c-.735-.619-1.372-1.2-1.946-1.773A25.238,25.238,0,0,1,8.464,48.9a.811.811,0,0,1,0-.972l2.279-3.182a1,1,0,0,0,.022-1.133A22.641,22.641,0,0,1,7.479,35.7a1,1,0,0,0-.817-.785l-3.85-.631a.81.81,0,0,1-.673-.711,23.648,23.648,0,0,1,.006-5.175.786.786,0,0,1,.667-.666l3.849-.63a1,1,0,0,0,.818-.789Z"/>
        <path id="Shape-6" data-name="Shape" d="M57,28a3,3,0,0,0-2.816,2H31V27H47a3,3,0,0,0,3-3V18.816a3,3,0,1,0-2,0V24a1,1,0,0,1-1,1H31V22H42a1,1,0,0,0,0-2H31V18h6a3,3,0,0,0,3-3V8.816a3,3,0,1,0-2,0V15a1,1,0,0,1-1,1H30.736a1.848,1.848,0,0,0-1.755-.968,16,16,0,0,0,0,31.936H29.1A1.844,1.844,0,0,0,30.736,46H37a1,1,0,0,1,1,1v6.184a3,3,0,1,0,2,0V47a3,3,0,0,0-3-3H31V42H42a1,1,0,0,0,0-2H31V37H47a1,1,0,0,1,1,1v5.184a3,3,0,1,0,2,0V38a3,3,0,0,0-3-3H31V32H54.184A2.995,2.995,0,1,0,57,28ZM49,15a1,1,0,1,1-1,1A1,1,0,0,1,49,15ZM39,5a1,1,0,1,1-1,1A1,1,0,0,1,39,5Zm0,52a1,1,0,1,1,1-1A1,1,0,0,1,39,57ZM49,47a1,1,0,1,1,1-1A1,1,0,0,1,49,47ZM16,31A14.017,14.017,0,0,1,29,17.036V44.964A14.017,14.017,0,0,1,16,31Zm41,1a1,1,0,1,1,1-1A1,1,0,0,1,57,32Z"/>
      </g>
    </g>
  </g>
</svg>
