<svg xmlns="http://www.w3.org/2000/svg" xmlns:xlink="http://www.w3.org/1999/xlink" width="113" height="113" viewBox="0 0 113 113">
  <defs>
    <filter id="Trazado_982547" x="0" y="0" width="113" height="113" filterUnits="userSpaceOnUse">
      <feOffset dy="3" input="SourceAlpha"/>
      <feGaussianBlur stdDeviation="3" result="blur"/>
      <feFlood flood-opacity="0.161"/>
      <feComposite operator="in" in2="blur"/>
      <feComposite in="SourceGraphic"/>
    </filter>
  </defs>
  <g id="Grupo_1174511" data-name="Grupo 1174511" transform="translate(-193 -1710)">
    <g id="Grupo_1172105" data-name="Grupo 1172105" transform="translate(22 -2155)">
      <g id="Grupo_1171485" data-name="Grupo 1171485" transform="translate(0 584)">
        <g id="Grupo_1167519" data-name="Grupo 1167519" transform="translate(180 3287)">
          <g id="Grupo_1166845" data-name="Grupo 1166845" transform="translate(0)">
            <g id="Grupo_1166720" data-name="Grupo 1166720">
              <g id="Grupo_1164305" data-name="Grupo 1164305">
                <g id="Grupo_1163948" data-name="Grupo 1163948">
                  <g id="Grupo_1158168" data-name="Grupo 1158168">
                    <g id="Grupo_1152576" data-name="Grupo 1152576">
                      <g id="Grupo_1148633" data-name="Grupo 1148633">
                        <g id="Grupo_1148525" data-name="Grupo 1148525">
                          <g transform="matrix(1, 0, 0, 1, -9, -6)" filter="url(#Trazado_982547)">
                            <g id="Trazado_982547-2" data-name="Trazado 982547" transform="translate(9 6)" fill="#fdf6ea">
                              <path d="M 47.5 93.5 C 41.28937149047852 93.5 35.26533508300781 92.28397369384766 29.59518623352051 89.88570404052734 C 24.11771965026855 87.56893157958984 19.19813346862793 84.25196075439453 14.97309303283691 80.02691650390625 C 10.74804019927979 75.80186462402344 7.431066513061523 70.88229370117188 5.114293098449707 65.40481567382812 C 2.716026782989502 59.73468017578125 1.5 53.71062850952148 1.5 47.5 C 1.5 41.28937149047852 2.716026782989502 35.26533508300781 5.114293098449707 29.59518623352051 C 7.431066513061523 24.11771965026855 10.74804019927979 19.19813346862793 14.97309303283691 14.97309303283691 C 19.19813346862793 10.74804019927979 24.11771965026855 7.431066513061523 29.59518623352051 5.114293098449707 C 35.26533508300781 2.716026782989502 41.28937149047852 1.5 47.5 1.5 C 53.71062850952148 1.5 59.73468017578125 2.716026782989502 65.40481567382812 5.114293098449707 C 70.88229370117188 7.431066513061523 75.80186462402344 10.74804019927979 80.02691650390625 14.97309303283691 C 84.25196075439453 19.19813346862793 87.56893157958984 24.11771965026855 89.88570404052734 29.59518623352051 C 92.28397369384766 35.26533508300781 93.5 41.28937149047852 93.5 47.5 C 93.5 53.71062850952148 92.28397369384766 59.73468017578125 89.88570404052734 65.40481567382812 C 87.56893157958984 70.88229370117188 84.25196075439453 75.80186462402344 80.02691650390625 80.02691650390625 C 75.80186462402344 84.25196075439453 70.88229370117188 87.56893157958984 65.40481567382812 89.88570404052734 C 59.73468017578125 92.28397369384766 53.71062850952148 93.5 47.5 93.5 Z" stroke="none"/>
                              <path d="M 47.5 3 C 41.49121475219727 3 35.66376876831055 4.176155090332031 30.17950439453125 6.495796203613281 C 24.88084411621094 8.736953735351562 20.12152099609375 11.94598388671875 16.03375244140625 16.03375244140625 C 11.94598388671875 20.12152099609375 8.736953735351562 24.88084411621094 6.495796203613281 30.17950439453125 C 4.176155090332031 35.66376876831055 3 41.49121475219727 3 47.5 C 3 53.50878524780273 4.176155090332031 59.33623123168945 6.495796203613281 64.82049560546875 C 8.736953735351562 70.11915588378906 11.94598388671875 74.87847900390625 16.03375244140625 78.96624755859375 C 20.12152099609375 83.05401611328125 24.88084411621094 86.26304626464844 30.17950439453125 88.50419616699219 C 35.66376876831055 90.82384490966797 41.49121475219727 92 47.5 92 C 53.50878524780273 92 59.33623123168945 90.82384490966797 64.82049560546875 88.50419616699219 C 70.11915588378906 86.26304626464844 74.87847900390625 83.05401611328125 78.96624755859375 78.96624755859375 C 83.05401611328125 74.87847900390625 86.26304626464844 70.11915588378906 88.50419616699219 64.82049560546875 C 90.82384490966797 59.33623123168945 92 53.50878524780273 92 47.5 C 92 41.49121475219727 90.82384490966797 35.66376876831055 88.50419616699219 30.17950439453125 C 86.26304626464844 24.88084411621094 83.05401611328125 20.12152099609375 78.96624755859375 16.03375244140625 C 74.87847900390625 11.94598388671875 70.11915588378906 8.736953735351562 64.82049560546875 6.495796203613281 C 59.33623123168945 4.176155090332031 53.50878524780273 3 47.5 3 M 47.5 0 C 73.7335205078125 0 95 21.2664794921875 95 47.5 C 95 73.7335205078125 73.7335205078125 95 47.5 95 C 21.2664794921875 95 0 73.7335205078125 0 47.5 C 0 21.2664794921875 21.2664794921875 0 47.5 0 Z" stroke="none" fill="#edae3b"/>
                            </g>
                          </g>
                        </g>
                      </g>
                    </g>
                  </g>
                </g>
              </g>
            </g>
          </g>
        </g>
      </g>
    </g>
    <g id="algorithm" transform="translate(219 1733)">
      <g id="Grupo_1174509" data-name="Grupo 1174509" transform="translate(1.938 1.938)">
        <g id="Grupo_1174496" data-name="Grupo 1174496" transform="translate(0 28.15)">
          <path id="Trazado_1027660" data-name="Trazado 1027660" d="M2,32V58.274A1.882,1.882,0,0,0,3.877,60.15H56.424A1.882,1.882,0,0,0,58.3,58.274V32Z" transform="translate(-2 -32)" fill="#e6e9ed"/>
        </g>
        <g id="Grupo_1174497" data-name="Grupo 1174497" transform="translate(13.137 48.794)">
          <path id="Trazado_1027661" data-name="Trazado 1027661" d="M16,54h5.63v3.753H16Z" transform="translate(-16 -54)" fill="#69d6f4"/>
        </g>
        <g id="Grupo_1174498" data-name="Grupo 1174498" transform="translate(3.753 48.794)">
          <path id="Trazado_1027662" data-name="Trazado 1027662" d="M6,54h5.63v3.753H6Z" transform="translate(-6 -54)" fill="#fcd770"/>
        </g>
        <g id="Grupo_1174499" data-name="Grupo 1174499" transform="translate(22.52 48.794)">
          <path id="Trazado_1027663" data-name="Trazado 1027663" d="M26,54h5.63v3.753H26Z" transform="translate(-26 -54)" fill="#fcd770"/>
        </g>
        <g id="Grupo_1174500" data-name="Grupo 1174500" transform="translate(3.753 31.904)">
          <path id="Trazado_1027664" data-name="Trazado 1027664" d="M6,36H30.4V49.137H6Z" transform="translate(-6 -36)" fill="#ff826e"/>
        </g>
        <g id="Grupo_1174501" data-name="Grupo 1174501" transform="translate(0 20.644)">
          <path id="Trazado_1027665" data-name="Trazado 1027665" d="M2,31.507v-5.63A1.882,1.882,0,0,1,3.877,24H32.327l4.345,7.507Z" transform="translate(-2 -24)" fill="#fcd770"/>
        </g>
        <g id="Grupo_1174502" data-name="Grupo 1174502" transform="translate(47.902 20.644)">
          <path id="Trazado_1027666" data-name="Trazado 1027666" d="M61.448,25.877v5.63h-8.4L57.395,24h2.177A1.882,1.882,0,0,1,61.448,25.877Z" transform="translate(-53.05 -24)" fill="#fcd770"/>
        </g>
        <g id="Grupo_1174503" data-name="Grupo 1174503" transform="translate(28.15 16.89)">
          <path id="Trazado_1027667" data-name="Trazado 1027667" d="M32,20H58.274L56.1,23.753,51.752,31.26l-3.8,6.568h-5.63l-3.8-6.568-4.345-7.507Z" transform="translate(-32 -20)" fill="#b4dd7f"/>
        </g>
        <g id="Grupo_1174504" data-name="Grupo 1174504" transform="translate(38.472 34.719)">
          <path id="Trazado_1027668" data-name="Trazado 1027668" d="M48.63,39v4.692l-4.692,1.877H43V39Z" transform="translate(-43 -39)" fill="#b4dd7f"/>
        </g>
        <g id="Grupo_1174505" data-name="Grupo 1174505" transform="translate(26.274 13.137)">
          <path id="Trazado_1027669" data-name="Trazado 1027669" d="M60.027,16.938v1.877a.941.941,0,0,1-.938.938H30.938A.941.941,0,0,1,30,18.815V16.938A.941.941,0,0,1,30.938,16h28.15A.941.941,0,0,1,60.027,16.938Z" transform="translate(-30 -16)" fill="#a0d468"/>
        </g>
        <g id="Grupo_1174506" data-name="Grupo 1174506" transform="translate(52.547 1.877)">
          <ellipse id="Elipse_12071" data-name="Elipse 12071" cx="2" cy="1.5" rx="2" ry="1.5" transform="translate(-0.486 0.362)" fill="#ff826e"/>
        </g>
        <g id="Grupo_1174507" data-name="Grupo 1174507" transform="translate(39.41 0)">
          <circle id="Elipse_12072" data-name="Elipse 12072" cx="2" cy="2" r="2" transform="translate(-0.349 0.239)" fill="#ff826e"/>
        </g>
        <g id="Grupo_1174508" data-name="Grupo 1174508" transform="translate(0 0)">
          <path id="Trazado_1027670" data-name="Trazado 1027670" d="M18.89,10.445v1.877l-1.3.441a7.9,7.9,0,0,1-.45,1.079l.61,1.248L15.09,17.745l-1.248-.61a7.9,7.9,0,0,1-1.079.45l-.441,1.3H8.568l-.441-1.3a7.9,7.9,0,0,1-1.079-.45l-1.248.61L3.145,15.09l.61-1.248a7.9,7.9,0,0,1-.45-1.079L2,12.322V8.568l1.3-.441a7.9,7.9,0,0,1,.45-1.079L3.145,5.8,5.8,3.145l1.248.61A7.9,7.9,0,0,1,8.127,3.3L8.568,2h3.753l.441,1.3a7.9,7.9,0,0,1,1.079.45l1.248-.61L17.745,5.8l-.61,1.248a7.9,7.9,0,0,1,.45,1.079l1.3.441Zm-4.692,0A3.753,3.753,0,1,0,10.445,14.2,3.752,3.752,0,0,0,14.2,10.445Z" transform="translate(-2 -2)" fill="#ffc729"/>
        </g>
      </g>
      <g id="Grupo_1174510" data-name="Grupo 1174510" transform="translate(1 1)">
        <path id="Trazado_1027671" data-name="Trazado 1027671" d="M0,0H9.783V1.877H0Z" transform="translate(43.682 28.634) rotate(-59.921)"/>
        <path id="Trazado_1027672" data-name="Trazado 1027672" d="M0,0H2.166V1.877H0Z" transform="translate(41.539 32.351) rotate(-59.95)"/>
        <path id="Trazado_1027673" data-name="Trazado 1027673" d="M57.3,14.137H47.917V13.2a.939.939,0,0,1,.938-.938h5.63A2.818,2.818,0,0,0,57.3,9.445V8.334a2.815,2.815,0,1,0-1.877,0V9.445a.939.939,0,0,1-.938.938h-5.63A2.818,2.818,0,0,0,46.041,13.2v.938H44.164V6.457a2.815,2.815,0,1,0-1.877,0v7.679H40.41V12.26A2.818,2.818,0,0,0,37.6,9.445H19.767V7.835L18.25,7.318c-.043-.11-.089-.219-.137-.328l.708-1.439-3.6-3.6-1.44.708c-.109-.049-.218-.095-.328-.137L12.932,1h-5.1L7.318,2.517c-.11.043-.219.089-.327.138L5.55,1.946l-3.6,3.605L2.655,6.99c-.049.109-.095.219-.138.327L1,7.835v5.1l1.517.517c.043.11.089.219.137.328l-.708,1.438,3.6,3.6,1.44-.708c.109.049.218.095.328.137l.516,1.518h5.1l.517-1.517c.11-.043.219-.089.328-.137l1.44.708,3.6-3.6-.708-1.439c.049-.109.095-.219.137-.328l1.517-.517v-1.61H37.6a.939.939,0,0,1,.938.938v1.877H29.15a1.879,1.879,0,0,0-1.877,1.877V17.89a1.879,1.879,0,0,0,1.877,1.877h.4l1.087,1.877H3.815A2.818,2.818,0,0,0,1,24.459v31.9a2.818,2.818,0,0,0,2.815,2.815H56.362a2.818,2.818,0,0,0,2.815-2.815v-31.9a2.818,2.818,0,0,0-2.815-2.815h-.546L56.9,19.767h.4a1.879,1.879,0,0,0,1.877-1.877V16.014A1.879,1.879,0,0,0,57.3,14.137Zm-.938-9.383a.938.938,0,1,1-.938.938A.939.939,0,0,1,56.362,4.753ZM43.226,2.877a.938.938,0,1,1-.938.938A.939.939,0,0,1,43.226,2.877ZM17.89,11.588l-1.117.38-.145.447a6.6,6.6,0,0,1-.393.944l-.214.419.524,1.063-1.7,1.7-1.063-.524-.419.214a6.609,6.609,0,0,1-.942.394l-.447.145-.381,1.116H9.179L8.8,16.774l-.447-.145a6.5,6.5,0,0,1-.942-.394L6.99,16.02l-1.063.524-1.7-1.7.524-1.063-.214-.419a6.56,6.56,0,0,1-.393-.944l-.146-.446-1.117-.38V9.179L3.993,8.8l.145-.447a6.6,6.6,0,0,1,.393-.944l.214-.419L4.223,5.927l1.7-1.7,1.063.524.419-.214a6.609,6.609,0,0,1,.942-.394L8.8,3.993l.38-1.117h2.41l.38,1.117.447.145a6.5,6.5,0,0,1,.942.394l.419.214,1.063-.524,1.7,1.7L16.02,6.99l.214.419a6.56,6.56,0,0,1,.393.944l.145.447,1.118.379ZM3.815,23.52H31.72l3.26,5.63H2.877V24.459a.939.939,0,0,1,.938-.938ZM56.362,57.3H3.815a.939.939,0,0,1-.938-.938V31.027h33.19l3.405,5.882v7.254h2.057l5.45-2.18V36.909l3.405-5.882H57.3V56.362A.939.939,0,0,1,56.362,57.3ZM45.1,37.6v3.118l-3.753,1.5V37.6ZM56.362,23.52a.939.939,0,0,1,.938.938V29.15h-5.83l3.26-5.63ZM45.5,35.719H40.951L31.716,19.767H54.734ZM29.15,17.89V16.014H57.3V17.89Z" transform="translate(-1 -1)"/>
        <path id="Trazado_1027674" data-name="Trazado 1027674" d="M10.692,6a4.692,4.692,0,1,0,4.692,4.692A4.7,4.7,0,0,0,10.692,6Zm0,7.507a2.815,2.815,0,1,1,2.815-2.815A2.818,2.818,0,0,1,10.692,13.507Z" transform="translate(-1.308 -1.308)"/>
        <path id="Trazado_1027675" data-name="Trazado 1027675" d="M13,27h1.877v1.877H13Z" transform="translate(-1.74 -2.603)"/>
        <path id="Trazado_1027676" data-name="Trazado 1027676" d="M5,27H6.877v1.877H5Z" transform="translate(-1.247 -2.603)"/>
        <path id="Trazado_1027677" data-name="Trazado 1027677" d="M9,27h1.877v1.877H9Z" transform="translate(-1.493 -2.603)"/>
        <path id="Trazado_1027678" data-name="Trazado 1027678" d="M5,50.014H31.274V35H5ZM6.877,36.877H29.4v11.26H6.877Z" transform="translate(-1.247 -3.096)"/>
        <path id="Trazado_1027679" data-name="Trazado 1027679" d="M5,58.63h7.507V53H5Zm1.877-3.753H10.63v1.877H6.877Z" transform="translate(-1.247 -4.206)"/>
        <path id="Trazado_1027680" data-name="Trazado 1027680" d="M15,58.63h7.507V53H15Zm1.877-3.753H20.63v1.877H16.877Z" transform="translate(-1.863 -4.206)"/>
        <path id="Trazado_1027681" data-name="Trazado 1027681" d="M25,58.63h7.507V53H25Zm1.877-3.753H30.63v1.877H26.877Z" transform="translate(-2.48 -4.206)"/>
        <path id="Trazado_1027682" data-name="Trazado 1027682" d="M35,49h1.877v1.877H35Z" transform="translate(-3.096 -3.959)"/>
        <path id="Trazado_1027683" data-name="Trazado 1027683" d="M39,49H57.767v1.877H39Z" transform="translate(-3.343 -3.959)"/>
        <path id="Trazado_1027684" data-name="Trazado 1027684" d="M35,53H57.52v1.877H35Z" transform="translate(-3.096 -4.206)"/>
        <path id="Trazado_1027685" data-name="Trazado 1027685" d="M35,57H57.52v1.877H35Z" transform="translate(-3.096 -4.453)"/>
      </g>
    </g>
  </g>
</svg>
