<svg xmlns="http://www.w3.org/2000/svg" width="397.026" height="338.672" viewBox="0 0 397.026 338.672">
  <g id="Grupo_1174248" data-name="Grupo 1174248" transform="translate(-157.334 -426.055)">
    <g id="Grupo_1174021" data-name="Grupo 1174021" transform="translate(157.334 422.654)">
      <path id="Trazado_1027294" data-name="Trazado 1027294" d="M523.815,513.739c-11.9-38.123-42.117-43.168-88.581-44.617a69.432,69.432,0,0,1-40.452-14.555C340.661,413.432,258.3,412,213.49,450.645a210.628,210.628,0,0,0-27.843,29.238c-47.109,59.838-33.607,173.588,26.977,226.1s104.052,10.929,152.83,14.695,24.975-44.824,43.575-59.721,75.271,25.877,111.254-.827S535.713,551.863,523.815,513.739Z" transform="translate(-148.334 -409.057)" fill="#fffbf5"/>
    </g>
    <g id="Grupo_1174034" data-name="Grupo 1174034" transform="translate(157.334 564.057)">
      <g id="Grupo_1174022" data-name="Grupo 1174022" transform="translate(0 50.465)">
        <path id="Trazado_1027295" data-name="Trazado 1027295" d="M240.59,1136.683c-.133.075-.267.149-.4.215-7.609,4.067-17.424,3.91-29.847,4.04h0c-.36.005-.716.007-1.076.012-3.195.035-6.559.1-10.1.265a55.419,55.419,0,0,1-19.839-3.139c-.288-.1-.576-.2-.859-.308-11.34-4.1-21.058-11.6-21.133-21.251q-.011-.4.015-.81a15.468,15.468,0,0,1,.558-3.453c1.828-6.62,9.022-10.4,18.247-11.879q.432-.074.875-.135a77.125,77.125,0,0,1,24.906.972c.324.064.648.127.972.2,8.54,1.774,16.461,4.819,21.834,8.813,15.5,11.529,15.967,23.439,15.874,25.966C240.609,1136.512,240.59,1136.683,240.59,1136.683Z" transform="translate(-157.334 -1099.634)" fill="#abae5a"/>
      </g>
      <g id="Grupo_1174023" data-name="Grupo 1174023" transform="translate(7.694)">
        <path id="Trazado_1027296" data-name="Trazado 1027296" d="M259.04,977.767c-.09.342-.149.517-.149.517-.18.017-.359.034-.534.043-7.706.618-14.626-1.23-22.447-3.855-.343-.114-.69-.229-1.041-.348h0c-4.487-1.527-9.285-3.278-14.71-4.943l-.184-.056c-.985-.3-1.987-.6-3.013-.894-.525-.15-1.056-.313-1.594-.493l-1.032-.355c-8.858-3.195-18.575-9.88-24.44-17.633q-.26-.337-.507-.686c-4.879-6.752-6.769-14.245-2.634-20.908.113-.181.23-.367.354-.547.034-.049.067-.1.1-.146,5.778-8.285,20.6-7.006,34.878-1.233.329.129.661.266.99.4a85.508,85.508,0,0,1,10.17,5.091c.334.194.668.392,1,.594,7.09,4.295,13.2,9.461,16.845,14.709C262.074,962.853,259.725,975.151,259.04,977.767Z" transform="translate(-184.48 -921.574)" fill="#abae5a"/>
      </g>
      <g id="Grupo_1174024" data-name="Grupo 1174024" transform="translate(0 5.888)">
        <path id="Trazado_1027297" data-name="Trazado 1027297" d="M250.478,1035.181l-.656-.875a60.245,60.245,0,0,0-9.631-10.114,74.864,74.864,0,0,0-17.064-10.584c-.254-.117-.508-.233-.762-.346a108.993,108.993,0,0,0-22.226-6.966l-.834-.164c-2.539-.5-5.007-.913-7.361-1.246-1.476-.209-2.931-.388-4.363-.548a164.481,164.481,0,0,0-30.242-.528q-.011-.4.015-.81a165.5,165.5,0,0,1,29.451.45c.348.03.7.067,1.046.11,1.377.154,2.772.326,4.188.529a127.585,127.585,0,0,1,18.948,4.088c.344.1.688.208,1.032.314a99.148,99.148,0,0,1,11.166,4.214l.016.006s.008,0,.016.006c.061.031.123.058.185.085a75.178,75.178,0,0,1,17.22,10.682,62.083,62.083,0,0,1,9.176,9.466A67.329,67.329,0,0,0,238.9,993.215a86.913,86.913,0,0,0-8.577-11.255c-.184-.206-.367-.411-.555-.61a108.028,108.028,0,0,0-11.461-10.814c-.222-.186-.449-.368-.672-.546-2.264-1.834-4.542-3.54-6.793-5.123-.844-.593-1.678-1.168-2.51-1.728-3.813-2.56-7.649-4.873-11.382-6.944-.324-.181-.648-.357-.972-.534A184.96,184.96,0,0,0,167.3,943.044c.113-.181.23-.367.354-.547.034-.049.067-.1.1-.146a186.588,186.588,0,0,1,29.377,13.033s.008,0,.012,0a.013.013,0,0,0,.008.005.846.846,0,0,1,.083.049.022.022,0,0,1,.015.01c3.775,2.088,7.657,4.425,11.512,7.014.523.352,1.038.7,1.553,1.054v0h0c.376.259.748.518,1.115.78q3.748,2.638,7.158,5.409a.556.556,0,0,1,.074.061c.713.574,1.409,1.155,2.1,1.743.37.311.739.63,1.1.944a105.992,105.992,0,0,1,8.885,8.691l.018.022a86.62,86.62,0,0,1,7.9,10.066c.316.471.625.941.924,1.417a68.2,68.2,0,0,1,10.957,41.43Z" transform="translate(-157.334 -942.351)" fill="#969946"/>
      </g>
      <g id="Grupo_1174025" data-name="Grupo 1174025" transform="translate(18.824 51.07)">
        <path id="Trazado_1027298" data-name="Trazado 1027298" d="M235.44,1118.511a.4.4,0,0,1-.266.064.408.408,0,0,1-.292-.173l-.483-.715L223.754,1101.9q.432-.074.875-.135l10.816,16.027.1.157A.4.4,0,0,1,235.44,1118.511Z" transform="translate(-223.754 -1101.769)" fill="#969946"/>
      </g>
      <g id="Grupo_1174026" data-name="Grupo 1174026" transform="translate(21.136 69.416)">
        <path id="Trazado_1027299" data-name="Trazado 1027299" d="M253.58,1166.917a.368.368,0,0,1-.128.281l-20.681,18.792c-.288-.1-.576-.2-.859-.308l20.834-18.929.166-.151a.4.4,0,0,1,.567.029A.366.366,0,0,1,253.58,1166.917Z" transform="translate(-231.912 -1166.498)" fill="#969946"/>
      </g>
      <g id="Grupo_1174027" data-name="Grupo 1174027" transform="translate(44.606 52.043)">
        <path id="Trazado_1027300" data-name="Trazado 1027300" d="M324.674,1125.884a.377.377,0,0,1-.21.034.4.4,0,0,1-.323-.229l-.376-.817L314.72,1105.2c.324.064.648.127.972.2l9.106,19.787.075.166A.4.4,0,0,1,324.674,1125.884Z" transform="translate(-314.72 -1105.2)" fill="#969946"/>
      </g>
      <g id="Grupo_1174028" data-name="Grupo 1174028" transform="translate(51.93 76.221)">
        <path id="Trazado_1027301" data-name="Trazado 1027301" d="M354.651,1191.176l-.226.258-12.782,14.624h0c-.36.005-.716.007-1.076.012l13.1-14.981.383-.439a.4.4,0,0,1,.453-.112s.008,0,.016.006a.516.516,0,0,1,.1.067A.4.4,0,0,1,354.651,1191.176Z" transform="translate(-340.563 -1190.509)" fill="#969946"/>
      </g>
      <g id="Grupo_1174029" data-name="Grupo 1174029" transform="translate(12.598 18.896)">
        <path id="Trazado_1027302" data-name="Trazado 1027302" d="M228.977,989.029l-.171.054-26.514,8.442q-.26-.338-.507-.686l26.049-8.29.9-.286a.406.406,0,0,1,.266.008.013.013,0,0,0,.008.005.852.852,0,0,1,.083.049.021.021,0,0,1,.015.01.373.373,0,0,1,.133.188A.4.4,0,0,1,228.977,989.029Z" transform="translate(-201.785 -988.245)" fill="#969946"/>
      </g>
      <g id="Grupo_1174030" data-name="Grupo 1174030" transform="translate(45.301 4.655)">
        <path id="Trazado_1027303" data-name="Trazado 1027303" d="M325.764,961.811a.377.377,0,0,1-.176.021.4.4,0,0,1-.205-.083.421.421,0,0,1-.129-.188l-.4-1.158h0L317.173,938c.329.129.661.266.99.4l7.811,22.781.04.117A.4.4,0,0,1,325.764,961.811Z" transform="translate(-317.173 -938)" fill="#969946"/>
      </g>
      <g id="Grupo_1174031" data-name="Grupo 1174031" transform="translate(56.461 10.149)">
        <path id="Trazado_1027304" data-name="Trazado 1027304" d="M364.372,983.841a.386.386,0,0,1-.151.012.4.4,0,0,1-.344-.292l-.358-1.275-6.969-24.9c.334.194.668.392,1,.593l7.073,25.254.032.116A.406.406,0,0,1,364.372,983.841Z" transform="translate(-356.55 -957.383)" fill="#969946"/>
      </g>
      <g id="Grupo_1174032" data-name="Grupo 1174032" transform="translate(37.545 33.182)">
        <path id="Trazado_1027305" data-name="Trazado 1027305" d="M290.84,1051.634l22.4-12.089.253-.138a.4.4,0,0,0,.164-.544.623.623,0,0,0-.06-.083.538.538,0,0,0-.074-.061.4.4,0,0,0-.41-.016l-.545.3-22.759,12.281Z" transform="translate(-289.808 -1038.654)" fill="#969946"/>
      </g>
      <g id="Grupo_1174033" data-name="Grupo 1174033" transform="translate(58.082 44.569)">
        <path id="Trazado_1027306" data-name="Trazado 1027306" d="M377.507,1079.584l-.326.175-13.87,7.4c-.343-.114-.69-.229-1.041-.348l14.355-7.662.506-.272a.4.4,0,0,1,.473.072l.018.022a.412.412,0,0,1,.049.07A.4.4,0,0,1,377.507,1079.584Z" transform="translate(-362.271 -1078.83)" fill="#969946"/>
      </g>
    </g>
    <g id="Grupo_1174036" data-name="Grupo 1174036" transform="translate(230.868 543.562)">
      <g id="Grupo_1174035" data-name="Grupo 1174035" transform="translate(0 0)">
        <rect id="Rectángulo_414479" data-name="Rectángulo 414479" width="24.363" height="1.185" fill="#3b2a3a"/>
      </g>
    </g>
    <g id="Grupo_1174038" data-name="Grupo 1174038" transform="translate(206.158 496.557)">
      <g id="Grupo_1174037" data-name="Grupo 1174037" transform="translate(0 0)">
        <path id="Trazado_1027307" data-name="Trazado 1027307" d="M351.139,731.6H338.149a8.557,8.557,0,0,1-8.548-8.548V683.411h1.185v39.643a7.371,7.371,0,0,0,7.363,7.362h12.991Z" transform="translate(-329.601 -683.411)" fill="#3b2a3a"/>
      </g>
    </g>
    <g id="Grupo_1174040" data-name="Grupo 1174040" transform="translate(206.835 484.837)">
      <g id="Grupo_1174039" data-name="Grupo 1174039" transform="translate(0)">
        <path id="Trazado_1027308" data-name="Trazado 1027308" d="M333.083,647.734l-1.091-.463a8.533,8.533,0,0,1,7.87-5.212h7.963v1.185h-7.963A7.351,7.351,0,0,0,333.083,647.734Z" transform="translate(-331.992 -642.059)" fill="#3b2a3a"/>
      </g>
    </g>
    <g id="Grupo_1174041" data-name="Grupo 1174041" transform="translate(482.694 497.225)">
      <path id="Trazado_1027309" data-name="Trazado 1027309" d="M1334.135,698.254a13.527,13.527,0,0,0-1.779-4.281l1.542-1.54-4.252-4.252-1.54,1.542a13.538,13.538,0,0,0-4.283-1.779v-2.175h-6.011v2.175a13.527,13.527,0,0,0-4.281,1.779l-1.542-1.542-4.251,4.252,1.542,1.542a13.533,13.533,0,0,0-1.779,4.279h-2.175v6.012h2.175a13.538,13.538,0,0,0,1.779,4.283l-1.542,1.542,4.251,4.251,1.542-1.542a13.518,13.518,0,0,0,4.281,1.779v2.175h6.011v-2.175a13.515,13.515,0,0,0,4.281-1.779l1.542,1.542,4.252-4.251-1.542-1.542a13.538,13.538,0,0,0,1.779-4.283h2.175v-6.012Zm-6.293,6.012a7.686,7.686,0,0,1-4.019,4.019c-.055.023-.11.046-.166.067a7.63,7.63,0,0,1-5.679,0l-.166-.069a7.679,7.679,0,0,1-4.017-4.017c-.023-.055-.046-.109-.067-.164a7.629,7.629,0,0,1,0-5.679c.021-.056.044-.113.069-.168a7.683,7.683,0,0,1,4.016-4.016c.055-.025.109-.048.166-.069a7.634,7.634,0,0,1,5.681,0c.055.021.11.044.164.067a7.68,7.68,0,0,1,4.017,4.017c.023.055.046.109.069.166a7.635,7.635,0,0,1,0,5.681C1327.888,704.156,1327.865,704.211,1327.842,704.266Z" transform="translate(-1305.326 -685.769)" fill="#d86f54"/>
    </g>
    <g id="Grupo_1174048" data-name="Grupo 1174048" transform="translate(433.433 452.139)">
      <g id="Grupo_1174043" data-name="Grupo 1174043" transform="translate(0 56.201)">
        <g id="Grupo_1174042" data-name="Grupo 1174042">
          <path id="Trazado_1027310" data-name="Trazado 1027310" d="M1133.885,726.173h-1.777a.592.592,0,0,1,0-1.185h1.777a.592.592,0,0,1,0,1.185Z" transform="translate(-1131.515 -724.988)" fill="#3b2a3a"/>
        </g>
      </g>
      <g id="Grupo_1174045" data-name="Grupo 1174045" transform="translate(5.261 5.276)">
        <g id="Grupo_1174044" data-name="Grupo 1174044">
          <path id="Trazado_1027311" data-name="Trazado 1027311" d="M1171.735,597.414h-.16a.593.593,0,0,1,0-1.185h.16a26.162,26.162,0,0,0,3.241-.2.593.593,0,0,1,.147,1.176A27.378,27.378,0,0,1,1171.735,597.414Zm-3.643,0h-3.484a.593.593,0,0,1,0-1.185h3.484a.593.593,0,0,1,0,1.185Zm-6.968,0h-3.484a.593.593,0,1,1,0-1.185h3.484a.593.593,0,1,1,0,1.185Zm-6.968,0h-3.484a.593.593,0,1,1,0-1.185h3.484a.593.593,0,1,1,0,1.185Zm24.31-.864a.593.593,0,0,1-.15-1.166,25.732,25.732,0,0,0,3.228-1.081.592.592,0,1,1,.45,1.1,26.869,26.869,0,0,1-3.377,1.131A.588.588,0,0,1,1178.466,596.55Zm6.43-2.638a.593.593,0,0,1-.3-1.107,25.945,25.945,0,0,0,2.833-1.887.592.592,0,1,1,.72.941,27.151,27.151,0,0,1-2.962,1.973A.591.591,0,0,1,1184.9,593.912Zm5.516-4.223a.592.592,0,0,1-.418-1.012,26.076,26.076,0,0,0,2.246-2.556.593.593,0,0,1,.94.722,27.257,27.257,0,0,1-2.348,2.672A.59.59,0,0,1,1190.413,589.689Zm4.232-5.506a.593.593,0,0,1-.512-.889,25.89,25.89,0,0,0,1.5-3.05.592.592,0,0,1,1.1.453,27.075,27.075,0,0,1-1.572,3.19A.593.593,0,0,1,1194.644,584.183Zm2.651-6.417a.584.584,0,0,1-.152-.02.592.592,0,0,1-.421-.724,25.848,25.848,0,0,0,.652-3.339.592.592,0,1,1,1.175.15,27.052,27.052,0,0,1-.682,3.493A.593.593,0,0,1,1197.3,577.766Zm.88-6.89a.592.592,0,0,1-.592-.592V566.8a.592.592,0,0,1,1.185,0v3.484A.592.592,0,0,1,1198.176,570.876Zm0-6.968a.592.592,0,0,1-.592-.592v-3.484a.592.592,0,0,1,1.185,0v3.484A.592.592,0,0,1,1198.176,563.909Zm0-6.968a.592.592,0,0,1-.592-.592v-3.484a.592.592,0,0,1,1.185,0v3.484A.593.593,0,0,1,1198.176,556.941Zm0-6.968a.592.592,0,0,1-.592-.593V545.9a.592.592,0,1,1,1.185,0v3.484A.593.593,0,0,1,1198.176,549.973Z" transform="translate(-1150.079 -545.304)" fill="#3b2a3a"/>
        </g>
      </g>
      <g id="Grupo_1174047" data-name="Grupo 1174047" transform="translate(52.766)">
        <g id="Grupo_1174046" data-name="Grupo 1174046">
          <path id="Trazado_1027312" data-name="Trazado 1027312" d="M1318.286,529.651a.592.592,0,0,1-.592-.592v-1.778a.593.593,0,1,1,1.185,0v1.778A.593.593,0,0,1,1318.286,529.651Z" transform="translate(-1317.694 -526.688)" fill="#3b2a3a"/>
        </g>
      </g>
    </g>
    <g id="Grupo_1174049" data-name="Grupo 1174049" transform="translate(245.196 426.054)">
      <path id="Trazado_1027313" data-name="Trazado 1027313" d="M663.515,450.131V726.685a15.477,15.477,0,0,1-15.476,15.48H482.823a15.481,15.481,0,0,1-15.48-15.48V450.131a15.481,15.481,0,0,1,15.48-15.48H648.039A15.477,15.477,0,0,1,663.515,450.131Z" transform="translate(-467.343 -434.651)" fill="#6675f1"/>
    </g>
    <g id="Grupo_1174050" data-name="Grupo 1174050" transform="translate(251.221 438.796)">
      <rect id="Rectángulo_414480" data-name="Rectángulo 414480" width="267.88" height="184.126" rx="23.546" transform="translate(184.126 0) rotate(90)" fill="#ccd3ed"/>
    </g>
    <g id="Grupo_1174051" data-name="Grupo 1174051" transform="translate(254.725 441.951)" opacity="0.42" style="mix-blend-mode: multiply;isolation: isolate">
      <path id="Trazado_1027314" data-name="Trazado 1027314" d="M678.079,497.892v30.9a151.462,151.462,0,0,1-70.8,128.495q-.973.609-1.955,1.211c-34.668,21.264-71.448,32.529-104.357,33.971V497.9a7.154,7.154,0,0,1,7.154-7.154H670.929A7.151,7.151,0,0,1,678.079,497.892Z" transform="translate(-500.965 -490.741)" fill="#ccd3ed"/>
    </g>
    <g id="Grupo_1174052" data-name="Grupo 1174052" transform="translate(268.927 464.656)">
      <rect id="Rectángulo_414481" data-name="Rectángulo 414481" width="148.121" height="202.992" transform="translate(0.296 0.296)" fill="#fff"/>
      <path id="Trazado_1027315" data-name="Trazado 1027315" d="M699.789,774.436H551.075V570.851H699.789Zm-148.121-.593H699.2v-202.4H551.667Z" transform="translate(-551.075 -570.851)" fill="#401e3e"/>
    </g>
    <g id="Grupo_1174053" data-name="Grupo 1174053" transform="translate(357.766 474.833)">
      <rect id="Rectángulo_414482" data-name="Rectángulo 414482" width="11.364" height="11.364" fill="#abae5a"/>
    </g>
    <g id="Grupo_1174054" data-name="Grupo 1174054" transform="translate(357.766 508.58)">
      <rect id="Rectángulo_414483" data-name="Rectángulo 414483" width="11.364" height="11.364" fill="#abae5a"/>
    </g>
    <g id="Grupo_1174055" data-name="Grupo 1174055" transform="translate(357.766 491.544)">
      <rect id="Rectángulo_414484" data-name="Rectángulo 414484" width="11.364" height="11.364" fill="#abae5a"/>
    </g>
    <g id="Grupo_1174057" data-name="Grupo 1174057" transform="translate(371.277 478.854)">
      <g id="Grupo_1174056" data-name="Grupo 1174056">
        <path id="Trazado_1027316" data-name="Trazado 1027316" d="M916.942,622.133H912.8a.592.592,0,0,1,0-1.185h4.144a.592.592,0,0,1,0,1.185Z" transform="translate(-912.205 -620.948)" fill="#3b2a3a"/>
      </g>
    </g>
    <g id="Grupo_1174059" data-name="Grupo 1174059" transform="translate(378.25 478.854)">
      <g id="Grupo_1174058" data-name="Grupo 1174058">
        <path id="Trazado_1027317" data-name="Trazado 1027317" d="M962.953,622.133H937.4a.592.592,0,1,1,0-1.185h25.554a.592.592,0,1,1,0,1.185Z" transform="translate(-936.807 -620.948)" fill="#3b2a3a"/>
      </g>
    </g>
    <g id="Grupo_1174061" data-name="Grupo 1174061" transform="translate(371.277 480.991)">
      <g id="Grupo_1174060" data-name="Grupo 1174060" transform="translate(0 0)">
        <path id="Trazado_1027318" data-name="Trazado 1027318" d="M939.2,629.674H912.8a.592.592,0,0,1,0-1.185h26.4a.592.592,0,0,1,0,1.185Z" transform="translate(-912.205 -628.489)" fill="#3b2a3a"/>
      </g>
    </g>
    <g id="Grupo_1174063" data-name="Grupo 1174063" transform="translate(371.277 495.564)">
      <g id="Grupo_1174062" data-name="Grupo 1174062" transform="translate(0 0)">
        <path id="Trazado_1027319" data-name="Trazado 1027319" d="M923.915,681.093H912.8a.592.592,0,0,1,0-1.185h11.117a.592.592,0,0,1,0,1.185Z" transform="translate(-912.205 -679.908)" fill="#3b2a3a"/>
      </g>
    </g>
    <g id="Grupo_1174065" data-name="Grupo 1174065" transform="translate(385.223 495.564)">
      <g id="Grupo_1174064" data-name="Grupo 1174064" transform="translate(0 0)">
        <path id="Trazado_1027320" data-name="Trazado 1027320" d="M980.583,681.093H962a.592.592,0,1,1,0-1.185h18.581a.592.592,0,1,1,0,1.185Z" transform="translate(-961.41 -679.908)" fill="#3b2a3a"/>
      </g>
    </g>
    <g id="Grupo_1174067" data-name="Grupo 1174067" transform="translate(371.277 497.702)">
      <g id="Grupo_1174066" data-name="Grupo 1174066" transform="translate(0 0)">
        <path id="Trazado_1027321" data-name="Trazado 1027321" d="M936.525,688.635H912.8a.592.592,0,0,1,0-1.185h23.727a.592.592,0,0,1,0,1.185Z" transform="translate(-912.205 -687.45)" fill="#3b2a3a"/>
      </g>
    </g>
    <g id="Grupo_1174069" data-name="Grupo 1174069" transform="translate(371.277 512.6)">
      <g id="Grupo_1174068" data-name="Grupo 1174068" transform="translate(0 0)">
        <path id="Trazado_1027322" data-name="Trazado 1027322" d="M937.86,741.2H912.8a.593.593,0,0,1,0-1.185H937.86a.593.593,0,0,1,0,1.185Z" transform="translate(-912.205 -740.017)" fill="#3b2a3a"/>
      </g>
    </g>
    <g id="Grupo_1174071" data-name="Grupo 1174071" transform="translate(399.168 512.6)">
      <g id="Grupo_1174070" data-name="Grupo 1174070" transform="translate(0 0)">
        <path id="Trazado_1027323" data-name="Trazado 1027323" d="M1015.843,741.2h-4.635a.593.593,0,1,1,0-1.185h4.635a.593.593,0,1,1,0,1.185Z" transform="translate(-1010.615 -740.017)" fill="#3b2a3a"/>
      </g>
    </g>
    <g id="Grupo_1174073" data-name="Grupo 1174073" transform="translate(371.277 514.738)">
      <g id="Grupo_1174072" data-name="Grupo 1174072">
        <path id="Trazado_1027324" data-name="Trazado 1027324" d="M918.611,748.744H912.8a.592.592,0,0,1,0-1.185h5.814a.592.592,0,0,1,0,1.185Z" transform="translate(-912.205 -747.559)" fill="#3b2a3a"/>
      </g>
    </g>
    <g id="Grupo_1174074" data-name="Grupo 1174074" transform="translate(357.766 545.446)">
      <rect id="Rectángulo_414485" data-name="Rectángulo 414485" width="11.364" height="11.364" transform="translate(0 0)" fill="#abae5a"/>
    </g>
    <g id="Grupo_1174075" data-name="Grupo 1174075" transform="translate(357.766 579.192)">
      <rect id="Rectángulo_414486" data-name="Rectángulo 414486" width="11.364" height="11.364" fill="#ccd3ed"/>
    </g>
    <g id="Grupo_1174076" data-name="Grupo 1174076" transform="translate(357.766 562.156)">
      <rect id="Rectángulo_414487" data-name="Rectángulo 414487" width="11.364" height="11.364" fill="#ccd3ed"/>
    </g>
    <g id="Grupo_1174078" data-name="Grupo 1174078" transform="translate(371.277 549.466)">
      <g id="Grupo_1174077" data-name="Grupo 1174077">
        <path id="Trazado_1027325" data-name="Trazado 1027325" d="M916.942,871.28H912.8a.592.592,0,0,1,0-1.185h4.144a.592.592,0,0,1,0,1.185Z" transform="translate(-912.205 -870.095)" fill="#3b2a3a"/>
      </g>
    </g>
    <g id="Grupo_1174080" data-name="Grupo 1174080" transform="translate(378.25 549.466)">
      <g id="Grupo_1174079" data-name="Grupo 1174079">
        <path id="Trazado_1027326" data-name="Trazado 1027326" d="M962.953,871.28H937.4a.592.592,0,1,1,0-1.185h25.554a.592.592,0,1,1,0,1.185Z" transform="translate(-936.807 -870.095)" fill="#3b2a3a"/>
      </g>
    </g>
    <g id="Grupo_1174082" data-name="Grupo 1174082" transform="translate(371.277 551.604)">
      <g id="Grupo_1174081" data-name="Grupo 1174081">
        <path id="Trazado_1027327" data-name="Trazado 1027327" d="M939.2,878.821H912.8a.593.593,0,0,1,0-1.185h26.4a.593.593,0,0,1,0,1.185Z" transform="translate(-912.205 -877.636)" fill="#3b2a3a"/>
      </g>
    </g>
    <g id="Grupo_1174084" data-name="Grupo 1174084" transform="translate(371.277 566.177)">
      <g id="Grupo_1174083" data-name="Grupo 1174083">
        <path id="Trazado_1027328" data-name="Trazado 1027328" d="M923.915,930.241H912.8a.592.592,0,0,1,0-1.185h11.117a.592.592,0,0,1,0,1.185Z" transform="translate(-912.205 -929.056)" fill="#3b2a3a"/>
      </g>
    </g>
    <g id="Grupo_1174086" data-name="Grupo 1174086" transform="translate(385.223 566.177)">
      <g id="Grupo_1174085" data-name="Grupo 1174085">
        <path id="Trazado_1027329" data-name="Trazado 1027329" d="M980.583,930.241H962a.592.592,0,1,1,0-1.185h18.581a.592.592,0,1,1,0,1.185Z" transform="translate(-961.41 -929.056)" fill="#3b2a3a"/>
      </g>
    </g>
    <g id="Grupo_1174088" data-name="Grupo 1174088" transform="translate(371.277 568.314)">
      <g id="Grupo_1174087" data-name="Grupo 1174087">
        <path id="Trazado_1027330" data-name="Trazado 1027330" d="M919.77,937.782H912.8a.592.592,0,0,1,0-1.185h6.973a.592.592,0,0,1,0,1.185Z" transform="translate(-912.205 -936.597)" fill="#3b2a3a"/>
      </g>
    </g>
    <g id="Grupo_1174090" data-name="Grupo 1174090" transform="translate(371.277 583.213)">
      <g id="Grupo_1174089" data-name="Grupo 1174089" transform="translate(0 0)">
        <path id="Trazado_1027331" data-name="Trazado 1027331" d="M937.86,990.35H912.8a.592.592,0,0,1,0-1.185H937.86a.592.592,0,1,1,0,1.185Z" transform="translate(-912.205 -989.165)" fill="#3b2a3a"/>
      </g>
    </g>
    <g id="Grupo_1174092" data-name="Grupo 1174092" transform="translate(399.168 583.213)">
      <g id="Grupo_1174091" data-name="Grupo 1174091" transform="translate(0 0)">
        <path id="Trazado_1027332" data-name="Trazado 1027332" d="M1015.843,990.35h-4.635a.592.592,0,1,1,0-1.185h4.635a.592.592,0,1,1,0,1.185Z" transform="translate(-1010.615 -989.165)" fill="#3b2a3a"/>
      </g>
    </g>
    <g id="Grupo_1174094" data-name="Grupo 1174094" transform="translate(371.277 585.35)">
      <g id="Grupo_1174093" data-name="Grupo 1174093" transform="translate(0 0)">
        <path id="Trazado_1027333" data-name="Trazado 1027333" d="M930.46,997.891H912.8a.592.592,0,0,1,0-1.185H930.46a.592.592,0,0,1,0,1.185Z" transform="translate(-912.205 -996.706)" fill="#3b2a3a"/>
      </g>
    </g>
    <g id="Grupo_1174095" data-name="Grupo 1174095" transform="translate(357.766 613.446)">
      <rect id="Rectángulo_414488" data-name="Rectángulo 414488" width="11.364" height="11.364" fill="#ccd3ed"/>
    </g>
    <g id="Grupo_1174096" data-name="Grupo 1174096" transform="translate(357.766 647.192)">
      <rect id="Rectángulo_414489" data-name="Rectángulo 414489" width="11.364" height="11.364" transform="translate(0 0)" fill="#ccd3ed"/>
    </g>
    <g id="Grupo_1174097" data-name="Grupo 1174097" transform="translate(357.766 630.156)">
      <rect id="Rectángulo_414490" data-name="Rectángulo 414490" width="11.364" height="11.364" transform="translate(0 0)" fill="#ccd3ed"/>
    </g>
    <g id="Grupo_1174099" data-name="Grupo 1174099" transform="translate(371.277 617.467)">
      <g id="Grupo_1174098" data-name="Grupo 1174098">
        <path id="Trazado_1027334" data-name="Trazado 1027334" d="M916.942,1111.21H912.8a.593.593,0,0,1,0-1.185h4.144a.593.593,0,0,1,0,1.185Z" transform="translate(-912.205 -1110.025)" fill="#3b2a3a"/>
      </g>
    </g>
    <g id="Grupo_1174101" data-name="Grupo 1174101" transform="translate(378.25 617.467)">
      <g id="Grupo_1174100" data-name="Grupo 1174100">
        <path id="Trazado_1027335" data-name="Trazado 1027335" d="M962.953,1111.21H937.4a.593.593,0,1,1,0-1.185h25.554a.593.593,0,1,1,0,1.185Z" transform="translate(-936.807 -1110.025)" fill="#3b2a3a"/>
      </g>
    </g>
    <g id="Grupo_1174103" data-name="Grupo 1174103" transform="translate(371.277 619.604)">
      <g id="Grupo_1174102" data-name="Grupo 1174102" transform="translate(0 0)">
        <path id="Trazado_1027336" data-name="Trazado 1027336" d="M924.661,1118.751H912.8a.592.592,0,0,1,0-1.185h11.863a.592.592,0,1,1,0,1.185Z" transform="translate(-912.205 -1117.566)" fill="#3b2a3a"/>
      </g>
    </g>
    <g id="Grupo_1174105" data-name="Grupo 1174105" transform="translate(371.277 634.177)">
      <g id="Grupo_1174104" data-name="Grupo 1174104">
        <path id="Trazado_1027337" data-name="Trazado 1027337" d="M923.915,1170.171H912.8a.593.593,0,0,1,0-1.185h11.117a.593.593,0,0,1,0,1.185Z" transform="translate(-912.205 -1168.986)" fill="#3b2a3a"/>
      </g>
    </g>
    <g id="Grupo_1174107" data-name="Grupo 1174107" transform="translate(385.223 634.177)">
      <g id="Grupo_1174106" data-name="Grupo 1174106">
        <path id="Trazado_1027338" data-name="Trazado 1027338" d="M980.583,1170.171H962a.593.593,0,1,1,0-1.185h18.581a.593.593,0,1,1,0,1.185Z" transform="translate(-961.41 -1168.986)" fill="#3b2a3a"/>
      </g>
    </g>
    <g id="Grupo_1174109" data-name="Grupo 1174109" transform="translate(371.277 636.314)">
      <g id="Grupo_1174108" data-name="Grupo 1174108" transform="translate(0 0)">
        <path id="Trazado_1027339" data-name="Trazado 1027339" d="M945.324,1177.712H912.8a.592.592,0,0,1,0-1.185h32.527a.592.592,0,1,1,0,1.185Z" transform="translate(-912.205 -1176.527)" fill="#3b2a3a"/>
      </g>
    </g>
    <g id="Grupo_1174111" data-name="Grupo 1174111" transform="translate(371.277 651.213)">
      <g id="Grupo_1174110" data-name="Grupo 1174110">
        <path id="Trazado_1027340" data-name="Trazado 1027340" d="M937.86,1230.28H912.8a.593.593,0,0,1,0-1.185H937.86a.593.593,0,1,1,0,1.185Z" transform="translate(-912.205 -1229.095)" fill="#3b2a3a"/>
      </g>
    </g>
    <g id="Grupo_1174113" data-name="Grupo 1174113" transform="translate(399.168 651.213)">
      <g id="Grupo_1174112" data-name="Grupo 1174112" transform="translate(0)">
        <path id="Trazado_1027341" data-name="Trazado 1027341" d="M1015.843,1230.28h-4.635a.593.593,0,1,1,0-1.185h4.635a.593.593,0,1,1,0,1.185Z" transform="translate(-1010.615 -1229.095)" fill="#3b2a3a"/>
      </g>
    </g>
    <g id="Grupo_1174115" data-name="Grupo 1174115" transform="translate(371.277 653.35)">
      <g id="Grupo_1174114" data-name="Grupo 1174114" transform="translate(0 0)">
        <path id="Trazado_1027342" data-name="Trazado 1027342" d="M937.86,1237.821H912.8a.592.592,0,0,1,0-1.185H937.86a.592.592,0,1,1,0,1.185Z" transform="translate(-912.205 -1236.636)" fill="#3b2a3a"/>
      </g>
    </g>
    <g id="Grupo_1174116" data-name="Grupo 1174116" transform="translate(274.176 468.81)">
      <rect id="Rectángulo_414491" data-name="Rectángulo 414491" width="18.36" height="18.36" transform="translate(0)" fill="#d86f54"/>
    </g>
    <g id="Grupo_1174117" data-name="Grupo 1174117" transform="translate(274.176 532.401)">
      <rect id="Rectángulo_414492" data-name="Rectángulo 414492" width="18.36" height="18.36" transform="translate(0 0)" fill="#d86f54"/>
    </g>
    <g id="Grupo_1174119" data-name="Grupo 1174119" transform="translate(342.691 464.952)">
      <g id="Grupo_1174118" data-name="Grupo 1174118">
        <rect id="Rectángulo_414493" data-name="Rectángulo 414493" width="1.185" height="202.974" fill="#3b2a3a"/>
      </g>
    </g>
    <g id="Grupo_1174121" data-name="Grupo 1174121" transform="translate(269.223 527.953)">
      <g id="Grupo_1174120" data-name="Grupo 1174120" transform="translate(0)">
        <rect id="Rectángulo_414494" data-name="Rectángulo 414494" width="148.121" height="1.185" fill="#3b2a3a"/>
      </g>
    </g>
    <g id="Grupo_1174123" data-name="Grupo 1174123" transform="translate(269.223 603.758)">
      <g id="Grupo_1174122" data-name="Grupo 1174122" transform="translate(0 0)">
        <rect id="Rectángulo_414495" data-name="Rectángulo 414495" width="148.121" height="1.185" fill="#3b2a3a"/>
      </g>
    </g>
    <g id="Grupo_1174124" data-name="Grupo 1174124" transform="translate(329.794 709.555)">
      <rect id="Rectángulo_414496" data-name="Rectángulo 414496" width="36.465" height="20.568" rx="10.284" transform="translate(0 0)" fill="#4252b2"/>
    </g>
    <g id="Grupo_1174126" data-name="Grupo 1174126" transform="translate(339.891 711.703)">
      <g id="Grupo_1174125" data-name="Grupo 1174125" transform="translate(0 0)">
        <path id="Trazado_1027343" data-name="Trazado 1027343" d="M809.6,1458.8a8.135,8.135,0,1,1,8.135-8.135A8.144,8.144,0,0,1,809.6,1458.8Zm0-15.085a6.95,6.95,0,1,0,6.95,6.95A6.958,6.958,0,0,0,809.6,1443.713Z" transform="translate(-801.464 -1442.528)" fill="#6675f1"/>
      </g>
    </g>
    <g id="Grupo_1174127" data-name="Grupo 1174127" transform="translate(484.863 618.832)">
      <circle id="Elipse_12051" data-name="Elipse 12051" cx="5.447" cy="5.447" r="5.447" fill="#b35086"/>
    </g>
    <g id="Grupo_1174129" data-name="Grupo 1174129" transform="translate(523.813 548.76)">
      <g id="Grupo_1174128" data-name="Grupo 1174128">
        <path id="Trazado_1027344" data-name="Trazado 1027344" d="M1452.8,872.391A2.395,2.395,0,1,1,1455.2,870,2.4,2.4,0,0,1,1452.8,872.391Zm0-3.6a1.21,1.21,0,1,0,1.21,1.21A1.211,1.211,0,0,0,1452.8,868.787Z" transform="translate(-1450.409 -867.602)" fill="#3b2a3a"/>
      </g>
    </g>
    <g id="Grupo_1174131" data-name="Grupo 1174131" transform="translate(510.07 594.237)">
      <g id="Grupo_1174130" data-name="Grupo 1174130" transform="translate(0 0)">
        <path id="Trazado_1027345" data-name="Trazado 1027345" d="M1410.538,1045.3a8.619,8.619,0,1,1,8.619-8.619A8.629,8.629,0,0,1,1410.538,1045.3Zm0-16.053a7.434,7.434,0,1,0,7.434,7.434A7.443,7.443,0,0,0,1410.538,1029.247Z" transform="translate(-1401.919 -1028.062)" fill="#3b2a3a"/>
      </g>
    </g>
    <g id="Grupo_1174140" data-name="Grupo 1174140" transform="translate(456.856 519.161)">
      <g id="Grupo_1174133" data-name="Grupo 1174133" transform="translate(5.444 0)">
        <g id="Grupo_1174132" data-name="Grupo 1174132">
          <path id="Trazado_1027346" data-name="Trazado 1027346" d="M1233.961,768.588a.593.593,0,0,1-.593-.593V763.76a.592.592,0,1,1,1.185,0V768A.592.592,0,0,1,1233.961,768.588Z" transform="translate(-1233.368 -763.167)" fill="#3b2a3a"/>
        </g>
      </g>
      <g id="Grupo_1174135" data-name="Grupo 1174135" transform="translate(5.444 6.652)">
        <g id="Grupo_1174134" data-name="Grupo 1174134">
          <path id="Trazado_1027347" data-name="Trazado 1027347" d="M1233.961,792.059a.593.593,0,0,1-.593-.592v-4.236a.592.592,0,1,1,1.185,0v4.236A.592.592,0,0,1,1233.961,792.059Z" transform="translate(-1233.368 -786.638)" fill="#3b2a3a"/>
        </g>
      </g>
      <g id="Grupo_1174137" data-name="Grupo 1174137" transform="translate(6.652 5.444)">
        <g id="Grupo_1174136" data-name="Grupo 1174136">
          <path id="Trazado_1027348" data-name="Trazado 1027348" d="M1242.458,783.561h-4.236a.593.593,0,1,1,0-1.185h4.236a.593.593,0,1,1,0,1.185Z" transform="translate(-1237.63 -782.376)" fill="#3b2a3a"/>
        </g>
      </g>
      <g id="Grupo_1174139" data-name="Grupo 1174139" transform="translate(0 5.444)">
        <g id="Grupo_1174138" data-name="Grupo 1174138">
          <path id="Trazado_1027349" data-name="Trazado 1027349" d="M1218.988,783.561h-4.236a.593.593,0,0,1,0-1.185h4.236a.593.593,0,1,1,0,1.185Z" transform="translate(-1214.159 -782.376)" fill="#3b2a3a"/>
        </g>
      </g>
    </g>
    <g id="Grupo_1174141" data-name="Grupo 1174141" transform="translate(215.854 516.15)">
      <circle id="Elipse_12052" data-name="Elipse 12052" cx="9.048" cy="9.048" r="9.048" transform="translate(0 0)" fill="#b35086"/>
    </g>
    <g id="Grupo_1174143" data-name="Grupo 1174143" transform="translate(190.03 551.807)">
      <g id="Grupo_1174142" data-name="Grupo 1174142" transform="translate(0)">
        <path id="Trazado_1027350" data-name="Trazado 1027350" d="M275.091,883.145a2.395,2.395,0,1,1,2.395-2.395A2.4,2.4,0,0,1,275.091,883.145Zm0-3.6a1.21,1.21,0,1,0,1.21,1.21A1.211,1.211,0,0,0,275.091,879.54Z" transform="translate(-272.696 -878.355)" fill="#3b2a3a"/>
      </g>
    </g>
    <g id="Grupo_1174145" data-name="Grupo 1174145" transform="translate(470.49 531.851)">
      <g id="Grupo_1174144" data-name="Grupo 1174144">
        <path id="Trazado_1027351" data-name="Trazado 1027351" d="M1264.659,812.73a2.395,2.395,0,1,1,2.395-2.395A2.4,2.4,0,0,1,1264.659,812.73Zm0-3.6a1.21,1.21,0,1,0,1.21,1.21A1.211,1.211,0,0,0,1264.659,809.126Z" transform="translate(-1262.264 -807.941)" fill="#3b2a3a"/>
      </g>
    </g>
    <g id="Grupo_1174154" data-name="Grupo 1174154" transform="translate(180.139 540.919)">
      <g id="Grupo_1174147" data-name="Grupo 1174147" transform="translate(5.444 0)">
        <g id="Grupo_1174146" data-name="Grupo 1174146">
          <path id="Trazado_1027352" data-name="Trazado 1027352" d="M257.6,845.359a.592.592,0,0,1-.592-.592V840.53a.592.592,0,0,1,1.185,0v4.236A.593.593,0,0,1,257.6,845.359Z" transform="translate(-257.006 -839.938)" fill="#3b2a3a"/>
        </g>
      </g>
      <g id="Grupo_1174149" data-name="Grupo 1174149" transform="translate(5.444 6.652)">
        <g id="Grupo_1174148" data-name="Grupo 1174148">
          <path id="Trazado_1027353" data-name="Trazado 1027353" d="M257.6,868.83a.592.592,0,0,1-.592-.592V864a.592.592,0,0,1,1.185,0v4.236A.592.592,0,0,1,257.6,868.83Z" transform="translate(-257.006 -863.409)" fill="#3b2a3a"/>
        </g>
      </g>
      <g id="Grupo_1174151" data-name="Grupo 1174151" transform="translate(6.652 5.444)">
        <g id="Grupo_1174150" data-name="Grupo 1174150">
          <path id="Trazado_1027354" data-name="Trazado 1027354" d="M266.1,860.331H261.86a.592.592,0,0,1,0-1.185H266.1a.592.592,0,0,1,0,1.185Z" transform="translate(-261.268 -859.146)" fill="#3b2a3a"/>
        </g>
      </g>
      <g id="Grupo_1174153" data-name="Grupo 1174153" transform="translate(0 5.444)">
        <g id="Grupo_1174152" data-name="Grupo 1174152">
          <path id="Trazado_1027355" data-name="Trazado 1027355" d="M242.626,860.331H238.39a.592.592,0,1,1,0-1.185h4.236a.592.592,0,1,1,0,1.185Z" transform="translate(-237.797 -859.146)" fill="#3b2a3a"/>
        </g>
      </g>
    </g>
    <g id="Grupo_1174156" data-name="Grupo 1174156" transform="translate(219.289 558.863)">
      <g id="Grupo_1174155" data-name="Grupo 1174155" transform="translate(0 0)">
        <path id="Trazado_1027356" data-name="Trazado 1027356" d="M386.567,913.131h-10.04a.593.593,0,0,1-.513-.889l5.02-8.695a.592.592,0,0,1,1.026,0l5.02,8.695a.593.593,0,0,1-.513.889Zm-9.014-1.185h7.988l-3.994-6.918Z" transform="translate(-375.934 -903.251)" fill="#3b2a3a"/>
      </g>
    </g>
    <g id="Grupo_1174158" data-name="Grupo 1174158" transform="translate(507.885 550.562)">
      <g id="Grupo_1174157" data-name="Grupo 1174157">
        <path id="Trazado_1027357" data-name="Trazado 1027357" d="M1404.842,883.841H1394.8a.593.593,0,0,1-.513-.889l5.02-8.695a.592.592,0,0,1,1.026,0l5.02,8.695a.593.593,0,0,1-.513.889Zm-9.014-1.185h7.988l-3.994-6.917Z" transform="translate(-1394.209 -873.961)" fill="#3b2a3a"/>
      </g>
    </g>
    <g id="Grupo_1174160" data-name="Grupo 1174160" transform="translate(213.273 455.214)">
      <circle id="Elipse_12053" data-name="Elipse 12053" cx="20.114" cy="20.114" r="20.114" transform="translate(0 28.445) rotate(-45)" fill="#fff"/>
      <path id="Trazado_1027358" data-name="Trazado 1027358" d="M403.47,606.709a20.41,20.41,0,1,1,20.41-20.41A20.433,20.433,0,0,1,403.47,606.709Zm0-40.228A19.817,19.817,0,1,0,423.288,586.3,19.84,19.84,0,0,0,403.47,566.482Z" transform="translate(-375.025 -557.854)" fill="#401e3e"/>
      <g id="Grupo_1174159" data-name="Grupo 1174159" transform="translate(7.61 7.61)">
        <path id="Trazado_1027359" data-name="Trazado 1027359" d="M402.4,606.059a20.835,20.835,0,1,1,20.835-20.835A20.859,20.859,0,0,1,402.4,606.059Zm0-40.227a19.392,19.392,0,1,0,19.392,19.392A19.414,19.414,0,0,0,402.4,565.832Z" transform="translate(-381.56 -564.389)" fill="#401e3e"/>
      </g>
    </g>
    <g id="Grupo_1174162" data-name="Grupo 1174162" transform="translate(241.126 470.476)">
      <g id="Grupo_1174161" data-name="Grupo 1174161">
        <path id="Trazado_1027360" data-name="Trazado 1027360" d="M466.911,605.164H452.983V591.981a.592.592,0,1,1,1.185,0v12h12.743a.593.593,0,0,1,0,1.185Z" transform="translate(-452.983 -591.388)" fill="#3b2a3a"/>
      </g>
    </g>
    <g id="Grupo_1174204" data-name="Grupo 1174204" transform="translate(255.231 549.265)">
      <g id="Grupo_1174163" data-name="Grupo 1174163" transform="translate(0 34.853)">
        <path id="Trazado_1027361" data-name="Trazado 1027361" d="M521.872,1042.037c-6.566-1.775-11.043-4.257-14-6.931-4.879-4.405-5.638-9.332-4.855-12.46a10.973,10.973,0,0,1,.783-2.036c2.8-5.823,11.42-16.215,16.187-20.8a35.524,35.524,0,0,1,11.621-7.449S539.26,1046.74,521.872,1042.037Z" transform="translate(-502.749 -992.36)" fill="#d86f54"/>
      </g>
      <g id="Grupo_1174164" data-name="Grupo 1174164" transform="translate(21.352 198.455)">
        <path id="Trazado_1027362" data-name="Trazado 1027362" d="M578.085,1578.542c0-.118,0-.236.005-.355a45.423,45.423,0,0,1,.381-5.249c.883-6.481,14.93-1.5,14.93-1.5a17.193,17.193,0,0,0,1.671,2.674,22.788,22.788,0,0,0,4.35,4.431Z" transform="translate(-578.085 -1569.609)" fill="#fda67e"/>
      </g>
      <g id="Grupo_1174165" data-name="Grupo 1174165" transform="translate(21.345 202.956)">
        <path id="Trazado_1027363" data-name="Trazado 1027363" d="M578.351,1596.837c-.029-.3-.06-.662-.092-1.081-.116-1.518-.233-3.735-.185-6.188,5.457-.1,12.822-2.53,16.982-4.076a22.49,22.49,0,0,0,5.762,5.441c4.417,2.863,7.336,1.638,9.208,4.823a8.154,8.154,0,0,1,.521,1.081Z" transform="translate(-578.063 -1585.492)" fill="#97586a"/>
      </g>
      <g id="Grupo_1174166" data-name="Grupo 1174166" transform="translate(21.541 213.221)">
        <path id="Trazado_1027364" data-name="Trazado 1027364" d="M578.754,1621.708c.1,1.281.2,2.064.2,2.064h6.614s11.352.1,14.979.1h10.878a9.851,9.851,0,0,0-.9-2.16Z" transform="translate(-578.754 -1621.708)" fill="#3b2a3a"/>
      </g>
      <g id="Grupo_1174167" data-name="Grupo 1174167" transform="translate(13.993 86.675)">
        <path id="Trazado_1027365" data-name="Trazado 1027365" d="M552.12,1291.9h35.615l-.8-10.071-.064-.8-4.626-58.376-3.445-43.465-4.935-1.606-7.289-2.373s-4.7,6.027-6.606,18.452c-.04.265-.08.534-.116.8a73.13,73.13,0,0,0-.61,13.007c.072,1.923.008,4.795-.169,8.324-.016.349-.036.707-.052,1.072-.9,17.034-4.016,47.822-5.738,64.162-.028.273-.056.542-.084.8C552.55,1288,552.12,1291.9,552.12,1291.9Z" transform="translate(-552.12 -1175.209)" fill="#3b2a3a"/>
      </g>
      <g id="Grupo_1174168" data-name="Grupo 1174168" transform="translate(21.345 110.769)">
        <path id="Trazado_1027366" data-name="Trazado 1027366" d="M578.063,1352.822h28.262l-5.489-69.25-12.316-23.351v41.691C588.52,1302.626,580.436,1341.429,578.063,1352.822Z" transform="translate(-578.063 -1260.221)" fill="#4a3549"/>
      </g>
      <g id="Grupo_1174169" data-name="Grupo 1174169" transform="translate(43.45 198.455)">
        <path id="Trazado_1027367" data-name="Trazado 1027367" d="M656.058,1578.542c0-.118,0-.236.005-.355a45.491,45.491,0,0,1,.382-5.249c.883-6.481,14.93-1.5,14.93-1.5a17.181,17.181,0,0,0,1.671,2.674,22.785,22.785,0,0,0,4.35,4.431Z" transform="translate(-656.058 -1569.609)" fill="#fda67e"/>
      </g>
      <g id="Grupo_1174170" data-name="Grupo 1174170" transform="translate(43.444 202.956)">
        <path id="Trazado_1027368" data-name="Trazado 1027368" d="M656.324,1596.837c-.029-.3-.06-.662-.092-1.081-.116-1.518-.233-3.735-.185-6.188,5.457-.1,12.822-2.53,16.982-4.076a22.49,22.49,0,0,0,5.762,5.441c4.417,2.863,7.336,1.638,9.208,4.823a8.094,8.094,0,0,1,.521,1.081Z" transform="translate(-656.037 -1585.492)" fill="#97586a"/>
      </g>
      <g id="Grupo_1174171" data-name="Grupo 1174171" transform="translate(43.64 213.221)">
        <path id="Trazado_1027369" data-name="Trazado 1027369" d="M656.728,1621.708c.1,1.281.2,2.064.2,2.064h6.614s11.352.1,14.978.1H689.4a9.839,9.839,0,0,0-.9-2.16Z" transform="translate(-656.728 -1621.708)" fill="#3b2a3a"/>
      </g>
      <g id="Grupo_1174172" data-name="Grupo 1174172" transform="translate(30.511 84.53)">
        <path id="Trazado_1027370" data-name="Trazado 1027370" d="M645.638,1275.6c-.008.273-.016.538-.028.8-.217,6-.394,10.071-.394,10.071h-28.7s.04-4.084.084-10.071c0-.265,0-.53.008-.8.092-13.123.189-34.458-.092-42.759-.169-4.939-2.044-12.726-3.67-21.279-.052-.273-.1-.542-.153-.815v0c-1.341-7.144-2.466-14.774-2.261-21.709.008-.269.02-.538.032-.8.225-5.028,1.189-9.658,3.325-13.424a16.661,16.661,0,0,1,1.843-2.655c9.409-11.031,26.443,1.606,26.443,1.606s.426,4.895,1.008,12.063c.04.526.084,1.064.132,1.61.165,2.068.345,4.3.526,6.63.044.554.088,1.116.129,1.682,1.1,14.167,2.329,31.551,2.5,40.45C646.566,1246.748,646.043,1264.28,645.638,1275.6Z" transform="translate(-610.405 -1167.639)" fill="#3b2a3a"/>
      </g>
      <g id="Grupo_1174173" data-name="Grupo 1174173" transform="translate(15.073 192.496)">
        <path id="Trazado_1027371" data-name="Trazado 1027371" d="M555.931,1549.386h50.645c.012-.265.02-.53.028-.8H556.016C555.987,1548.856,555.959,1549.125,555.931,1549.386Z" transform="translate(-555.931 -1548.583)" fill="#4a3549"/>
      </g>
      <g id="Grupo_1174174" data-name="Grupo 1174174" transform="translate(53.43 90.197)">
        <path id="Trazado_1027372" data-name="Trazado 1027372" d="M695.182,1290.373c3.318-34.419-3.047-102.058-3.112-102.738l-.8.076c.064.678,6.423,68.242,3.112,102.584Z" transform="translate(-691.271 -1187.635)" fill="#4a3549"/>
      </g>
      <g id="Grupo_1174175" data-name="Grupo 1174175" transform="translate(30.537 105.127)">
        <path id="Trazado_1027373" data-name="Trazado 1027373" d="M612.756,1262.826v0c.048.273.1.542.153.815,8.509-3.654,6.666-22.158,6.582-22.97l-.036-.361h-8.927c-.012.265-.024.534-.032.8h8.228C618.94,1243.711,619.924,1259.493,612.756,1262.826Z" transform="translate(-610.495 -1240.314)" fill="#4a3549"/>
      </g>
      <g id="Grupo_1174176" data-name="Grupo 1174176" transform="translate(20.896 105.127)">
        <path id="Trazado_1027374" data-name="Trazado 1027374" d="M576.476,1263.521c4.706-3.056,3.694-20.689,3.554-22.829l-.024-.377h-2.582c-.04.265-.08.534-.116.8h1.944c.333,5.6.345,18.2-2.723,21.331C576.512,1262.8,576.492,1263.155,576.476,1263.521Z" transform="translate(-576.476 -1240.314)" fill="#4a3549"/>
      </g>
      <g id="Grupo_1174177" data-name="Grupo 1174177" transform="translate(56.019 110.958)">
        <path id="Trazado_1027375" data-name="Trazado 1027375" d="M708.359,1262.568a21.085,21.085,0,0,1-7.284,7.726c-.08.048-.161.092-.241.141l-.43-.8c.2-.112.4-.233.6-.357a21.472,21.472,0,0,0,7.228-8.4C708.275,1261.44,708.319,1262,708.359,1262.568Z" transform="translate(-700.404 -1260.886)" fill="#3b2a3a"/>
      </g>
      <g id="Grupo_1174178" data-name="Grupo 1174178" transform="translate(20.265 105.127)">
        <path id="Trazado_1027376" data-name="Trazado 1027376" d="M574.25,1240.314v4.009a175.716,175.716,0,0,0,46.253,0v-4.009Z" transform="translate(-574.25 -1240.314)" fill="#fcd388"/>
      </g>
      <g id="Grupo_1174179" data-name="Grupo 1174179" transform="translate(94.662 15.517)">
        <rect id="Rectángulo_414497" data-name="Rectángulo 414497" width="3.038" height="10.266" rx="1.519" transform="translate(6.257 0) rotate(37.549)" fill="#3b2a3a"/>
      </g>
      <g id="Grupo_1174180" data-name="Grupo 1174180" transform="translate(39.429 10.076)">
        <path id="Trazado_1027377" data-name="Trazado 1027377" d="M660.178,905.049s.352-1.826,1.511,9.383a92.268,92.268,0,0,1-4.952,8.076l-1.251,5.044-13.618-1.882s5.793-18.109,6.383-18.663S660.178,905.049,660.178,905.049Z" transform="translate(-641.868 -904.939)" fill="#fda67e"/>
      </g>
      <g id="Grupo_1174181" data-name="Grupo 1174181" transform="translate(85.511 19.066)">
        <path id="Trazado_1027378" data-name="Trazado 1027378" d="M804.464,951.172s2.828-8.485,4.557-9.9a33.24,33.24,0,0,1,9.821-4.4c2.828-.628,2.986.236,2.75,1.1s-1.257,1.336-2.75,1.807a21.063,21.063,0,0,0-2.985,1.257,2.012,2.012,0,0,1,2.278,1.1c.707,1.493,2.043,2.278,2.514,4.242s-.236,3.693-2.436,3.771c0,0-3.221,6.639-7.935,7.11S804.464,951.172,804.464,951.172Z" transform="translate(-804.464 -936.658)" fill="#fda67e"/>
      </g>
      <g id="Grupo_1174182" data-name="Grupo 1174182" transform="translate(82.92 32.088)">
        <path id="Trazado_1027379" data-name="Trazado 1027379" d="M795.459,985.694l2.611-3.091a30.015,30.015,0,0,0,8.995,6.678l-3.809,5.814S794.106,988,795.459,985.694Z" transform="translate(-795.323 -982.603)" fill="#fcd388"/>
      </g>
      <g id="Grupo_1174183" data-name="Grupo 1174183" transform="translate(33.185 27.179)">
        <path id="Trazado_1027380" data-name="Trazado 1027380" d="M619.839,971.684s4.086-5.735,10.292-6.364,12.178,6.757,12.178,6.757Z" transform="translate(-619.839 -965.282)" fill="#fcd388"/>
      </g>
      <g id="Grupo_1174184" data-name="Grupo 1174184" transform="translate(11.26 31.766)">
        <path id="Trazado_1027381" data-name="Trazado 1027381" d="M620.792,1003.934c-2.305,4.108-5.682,9.168-9.862,12.653q-.416.349-.844.675c-.285.213-.57.422-.859.623,0,0,0,.008-.008.008-3.414,2.349-7.284,3.546-11.485,2.393,0,0,.052,2.546.149,6.349.209,8.36.626,22.781,1.169,29.479,0,0-29.069,3.3-48.71,0v-21.881s-7.7-2.948-7.859-8.6,3.771-12.73,6.445-22.158,4.71-21.685,24.825-22c0,0,13.83-.366,19.484,4.06s6.915,8.039,9.272,8.352,6.915-10.212,11.766-9.007c0,0,2.454,3.586,9.533,6.754C623.807,991.634,625.193,996.075,620.792,1003.934Z" transform="translate(-542.478 -981.467)" fill="#d86f54"/>
      </g>
      <g id="Grupo_1174186" data-name="Grupo 1174186" transform="translate(47.92 33.96)">
        <g id="Grupo_1174185" data-name="Grupo 1174185">
          <path id="Trazado_1027382" data-name="Trazado 1027382" d="M688.6,1025.663a.59.59,0,0,1-.264-.062c-10.168-5.063-16.338-14.077-16.5-24.113-.149-9.015,4.795-11.349,5.259-11.547.418-.209,4.954-2.314,10.489,1.73a29.8,29.8,0,0,1,4.9,4.681c1.986,2.245,3.555,4.019,6.714,4.38a.592.592,0,1,1-.135,1.177c-3.611-.413-5.4-2.433-7.467-4.772a28.812,28.812,0,0,0-4.713-4.51c-5.068-3.7-9.1-1.71-9.269-1.623l-.05.023c-.188.078-4.683,2.047-4.545,10.44.158,9.585,6.082,18.21,15.847,23.072a.592.592,0,0,1-.265,1.123Z" transform="translate(-671.827 -989.208)" fill="#3b2a3a"/>
        </g>
      </g>
      <g id="Grupo_1174188" data-name="Grupo 1174188" transform="translate(71.326 46.737)">
        <g id="Grupo_1174187" data-name="Grupo 1174187">
          <path id="Trazado_1027383" data-name="Trazado 1027383" d="M759.847,1036.626a12.712,12.712,0,0,1-5.1-1.211.593.593,0,0,1,.529-1.06c.033.016,3.306,1.621,6.191.9a.593.593,0,1,1,.288,1.15A7.859,7.859,0,0,1,759.847,1036.626Z" transform="translate(-754.416 -1034.293)" fill="#3b2a3a"/>
        </g>
      </g>
      <g id="Grupo_1174190" data-name="Grupo 1174190" transform="translate(18.593 47.885)">
        <g id="Grupo_1174189" data-name="Grupo 1174189">
          <path id="Trazado_1027384" data-name="Trazado 1027384" d="M569.037,1073.891a.592.592,0,0,1-.591-.567c-.624-14.343,2.044-34.27,2.071-34.47a.593.593,0,0,1,1.174.159c-.027.2-2.681,20.023-2.062,34.259a.593.593,0,0,1-.566.618Z" transform="translate(-568.351 -1038.341)" fill="#3b2a3a"/>
        </g>
      </g>
      <g id="Grupo_1174192" data-name="Grupo 1174192" transform="translate(46.813 57.265)">
        <g id="Grupo_1174191" data-name="Grupo 1174191">
          <path id="Trazado_1027385" data-name="Trazado 1027385" d="M677.9,1079.105a.587.587,0,0,1-.238-.05c-7.512-3.3-9.57-6.578-9.654-6.716a.593.593,0,0,1,1.011-.618c.028.045,2.02,3.132,9.119,6.249a.593.593,0,0,1-.238,1.135Z" transform="translate(-667.924 -1071.439)" fill="#3b2a3a"/>
        </g>
      </g>
      <g id="Grupo_1174194" data-name="Grupo 1174194" transform="translate(34.884 83.35)">
        <g id="Grupo_1174193" data-name="Grupo 1174193">
          <path id="Trazado_1027386" data-name="Trazado 1027386" d="M626.425,1175.973a.593.593,0,0,1-.24-1.135c.116-.052,11.667-5.2,16.325-11.137a.593.593,0,0,1,.932.731c-4.842,6.174-16.294,11.276-16.779,11.49A.6.6,0,0,1,626.425,1175.973Z" transform="translate(-625.832 -1163.474)" fill="#3b2a3a"/>
        </g>
      </g>
      <g id="Grupo_1174196" data-name="Grupo 1174196" transform="translate(43.16 87.749)">
        <g id="Grupo_1174195" data-name="Grupo 1174195">
          <path id="Trazado_1027387" data-name="Trazado 1027387" d="M655.625,1187.1a.592.592,0,0,1-.481-.938,25.1,25.1,0,0,1,8.5-7.1.592.592,0,0,1,.522,1.064,24.264,24.264,0,0,0-8.055,6.727A.592.592,0,0,1,655.625,1187.1Z" transform="translate(-655.032 -1178.996)" fill="#3b2a3a"/>
        </g>
      </g>
      <g id="Grupo_1174197" data-name="Grupo 1174197" transform="translate(35.028 0)">
        <path id="Trazado_1027388" data-name="Trazado 1027388" d="M626.375,879.5s0,.013,0,.017a6.349,6.349,0,0,0,.453,3.012c1.281,3.218.923,4.587,1.061,7.254s1.992,2.8,1.276,5.8,2.7,2.66,6.564,3.466,4.535-.51,6.087-2.159.023-3.538.5-5.037.569-2.293-.9-2.594-2-2.785-1.239-3.862,2.092.669,3.14,1,.59-.553,1.165-2.6,1.695-1.435,4.806-3.163c2.456-1.365,1.806-2.85,1.471-4.7a.483.483,0,0,0-.008-.066,7.076,7.076,0,0,1-.123-1.486c.093-2.609-.522-2.229-3.581-4.278s-4.463.8-7.677,2.081a68.019,68.019,0,0,1-7.077,2.273C628.353,875.145,626.632,877.217,626.375,879.5Z" transform="translate(-626.342 -869.385)" fill="#3b2a3a"/>
      </g>
      <g id="Grupo_1174198" data-name="Grupo 1174198" transform="translate(35.028 6.549)">
        <path id="Trazado_1027389" data-name="Trazado 1027389" d="M626.374,896.071a6.35,6.35,0,0,0,.453,3.012c1.281,3.218.923,4.587,1.061,7.254s1.992,2.8,1.276,5.8,2.7,2.66,6.564,3.466,4.535-.51,6.087-2.159.023-3.538.5-5.037.569-2.293-.9-2.594-2-2.785-1.239-3.862,2.092.669,3.14,1,.59-.553,1.165-2.6,1.695-1.435,4.806-3.163c2.456-1.365,1.806-2.85,1.471-4.7.056.486.226,3.407-3.661,3.011-4.235-.427-4.427.173-6.827,3.035s-2.662-1.842-6.315-.043S626.543,900.168,626.374,896.071Z" transform="translate(-626.342 -892.493)" fill="#3b2a3a"/>
      </g>
      <g id="Grupo_1174199" data-name="Grupo 1174199" transform="translate(50.673 14.538)">
        <path id="Trazado_1027390" data-name="Trazado 1027390" d="M681.576,922.378a10.039,10.039,0,0,1,2.356,3.439c.838,2.1-1.1,7.32.915,9.265,1.334,1.285,3.912,1.3,6.129.833a2.379,2.379,0,0,0,1.634-3.351,49.111,49.111,0,0,1-2.49-6.852s-6.866,2.08-6.212-4.617C683.907,921.1,681.21,919.567,681.576,922.378Z" transform="translate(-681.542 -920.681)" fill="#3b2a3a"/>
      </g>
      <g id="Grupo_1174201" data-name="Grupo 1174201" transform="translate(13.4 65.067)">
        <g id="Grupo_1174200" data-name="Grupo 1174200">
          <path id="Trazado_1027391" data-name="Trazado 1027391" d="M550.622,1105.393a.593.593,0,0,1-.317-1.094,18.13,18.13,0,0,0,5.473-5.049.593.593,0,0,1,1.01.621,19.051,19.051,0,0,1-5.85,5.431A.589.589,0,0,1,550.622,1105.393Z" transform="translate(-550.029 -1098.968)" fill="#3b2a3a"/>
        </g>
      </g>
      <g id="Grupo_1174202" data-name="Grupo 1174202" transform="translate(0 63.103)">
        <path id="Trazado_1027392" data-name="Trazado 1027392" d="M507.869,1106.533c-4.879-4.405-5.638-9.332-4.855-12.46a10.979,10.979,0,0,1,.783-2.036C506.636,1094.952,510.877,1100.662,507.869,1106.533Z" transform="translate(-502.749 -1092.037)" fill="#6d4d46"/>
      </g>
      <g id="Grupo_1174203" data-name="Grupo 1174203" transform="translate(66.516 65.75)">
        <path id="Trazado_1027393" data-name="Trazado 1027393" d="M750.637,1102.512q-.416.349-.843.675c-.285.213-.57.422-.859.623,0,0,0,.008-.008.008-3.413,2.349-7.284,3.546-11.485,2.393,2.317-3.2,5.911-5.883,11.324-4.429A7.585,7.585,0,0,1,750.637,1102.512Z" transform="translate(-737.441 -1101.376)" fill="#6d4d46"/>
      </g>
    </g>
    <g id="Grupo_1174206" data-name="Grupo 1174206" transform="translate(360.288 477.398)">
      <g id="Grupo_1174205" data-name="Grupo 1174205">
        <path id="Trazado_1027394" data-name="Trazado 1027394" d="M876.591,621.94a.593.593,0,0,1-.406-.162l-2.566-2.419a.592.592,0,1,1,.813-.862l2.056,1.939,2.911-4.361a.592.592,0,1,1,.986.658l-3.3,4.944a.592.592,0,0,1-.426.26C876.636,621.939,876.613,621.94,876.591,621.94Z" transform="translate(-873.432 -615.811)" fill="#fff"/>
      </g>
    </g>
    <g id="Grupo_1174208" data-name="Grupo 1174208" transform="translate(360.288 494.161)">
      <g id="Grupo_1174207" data-name="Grupo 1174207" transform="translate(0 0)">
        <path id="Trazado_1027395" data-name="Trazado 1027395" d="M876.591,681.085a.592.592,0,0,1-.406-.161l-2.566-2.42a.592.592,0,0,1,.813-.862l2.056,1.939,2.911-4.361a.592.592,0,0,1,.986.658l-3.3,4.944a.592.592,0,0,1-.426.26A.6.6,0,0,1,876.591,681.085Z" transform="translate(-873.432 -674.956)" fill="#fff"/>
      </g>
    </g>
    <g id="Grupo_1174210" data-name="Grupo 1174210" transform="translate(360.288 511.197)">
      <g id="Grupo_1174209" data-name="Grupo 1174209">
        <path id="Trazado_1027396" data-name="Trazado 1027396" d="M876.591,741.195a.593.593,0,0,1-.406-.162l-2.566-2.42a.592.592,0,1,1,.813-.862l2.056,1.939,2.911-4.361a.592.592,0,1,1,.986.658l-3.3,4.944a.592.592,0,0,1-.426.26C876.636,741.193,876.613,741.195,876.591,741.195Z" transform="translate(-873.432 -735.065)" fill="#fff"/>
      </g>
    </g>
    <g id="Grupo_1174212" data-name="Grupo 1174212" transform="translate(360.288 548.063)">
      <g id="Grupo_1174211" data-name="Grupo 1174211" transform="translate(0 0)">
        <path id="Trazado_1027397" data-name="Trazado 1027397" d="M876.591,871.272a.592.592,0,0,1-.406-.161l-2.566-2.42a.592.592,0,1,1,.813-.862l2.056,1.939,2.911-4.361a.593.593,0,0,1,.986.658l-3.3,4.944a.592.592,0,0,1-.426.26A.586.586,0,0,1,876.591,871.272Z" transform="translate(-873.432 -865.143)" fill="#fff"/>
      </g>
    </g>
    <g id="Grupo_1174215" data-name="Grupo 1174215" transform="translate(427.179 544.581)">
      <g id="Grupo_1174213" data-name="Grupo 1174213">
        <path id="Trazado_1027398" data-name="Trazado 1027398" d="M1141.429,852.856a31.98,31.98,0,1,0,31.979,31.98h-31.979Z" transform="translate(-1109.449 -852.856)" fill="#3b2a3a"/>
      </g>
      <g id="Grupo_1174214" data-name="Grupo 1174214" transform="translate(36.635)">
        <path id="Trazado_1027399" data-name="Trazado 1027399" d="M1238.71,852.856v27.324h27.324A27.324,27.324,0,0,0,1238.71,852.856Z" transform="translate(-1238.71 -852.856)" fill="#b35086"/>
      </g>
    </g>
    <g id="Grupo_1174216" data-name="Grupo 1174216" transform="translate(463.166 624.628)">
      <path id="Trazado_1027400" data-name="Trazado 1027400" d="M1306.463,1135.294s-.008,0-.012,0c-.422.181-14.063,6.148-29.531,24.09-15.115,17.536-19.7,29.583-37.96,39.357l-.177.1q-1,.536-2.06,1.06s-3.586-25.636,14.01-37.578S1289.489,1136.551,1306.463,1135.294Z" transform="translate(-1236.423 -1135.294)" fill="#abae5a"/>
    </g>
    <g id="Grupo_1174217" data-name="Grupo 1174217" transform="translate(474.204 681.137)">
      <path id="Trazado_1027401" data-name="Trazado 1027401" d="M1355.527,1352.961c-.213-.181-7.827-6.57-27.861-5.329-19.13,1.184-27.158,6.22-48.2,3.457a1.042,1.042,0,0,1-.16-.02c-.113-.012-.173-.02-.173-.02-1.213-.16-2.465-.349-3.767-.566,0,0,6-15.115,26.736-15.746S1349.243,1338.3,1355.527,1352.961Z" transform="translate(-1275.371 -1334.679)" fill="#abae5a"/>
    </g>
    <g id="Grupo_1174218" data-name="Grupo 1174218" transform="translate(446.94 602.395)">
      <path id="Trazado_1027402" data-name="Trazado 1027402" d="M1185.055,1142.775s-7.614-15.848-5.519-31.389,6.2-48.488,16.51-54.537c0,0-2.682,4.027-3.1,25.282S1198.326,1120.986,1185.055,1142.775Z" transform="translate(-1179.171 -1056.848)" fill="#abae5a"/>
    </g>
    <g id="Grupo_1174219" data-name="Grupo 1174219" transform="translate(384.559 649.766)">
      <path id="Trazado_1027403" data-name="Trazado 1027403" d="M1019.171,1266.223c-.261-.032-.518-.064-.771-.1-.056,0-.112-.012-.169-.02h-.008c-.851-.116-1.675-.249-2.462-.4-19.994-3.7-20.158-16.721-33.876-27.881-13.6-11.071-21.813-10.115-22.732-9.967a.477.477,0,0,0-.064.012.071.071,0,0,1-.02,0c9.658-9.529,33.29.109,48.376,11.364S1019.171,1266.223,1019.171,1266.223Z" transform="translate(-959.069 -1223.99)" fill="#abae5a"/>
    </g>
    <g id="Grupo_1174220" data-name="Grupo 1174220" transform="translate(423.594 709.04)">
      <path id="Trazado_1027404" data-name="Trazado 1027404" d="M1157.216,1433.131q-.024,3.973-.3,7.811c-.042.616-.088,1.233-.143,1.843a101.3,101.3,0,0,1-4.918,24.151q-.284.822-.577,1.618a67.184,67.184,0,0,1-3.333,7.615q-.387.749-.786,1.468a44.381,44.381,0,0,1-4.9,7.2,11.328,11.328,0,0,1-8.642,3.983h-13.223a11.232,11.232,0,0,1-8.55-3.88,51.376,51.376,0,0,1-8.082-13.758q-.308-.738-.6-1.5a96.076,96.076,0,0,1-5.6-23.652c-.068-.6-.134-1.2-.192-1.8-.355-3.594-.551-7.3-.574-11.1Z" transform="translate(-1096.798 -1433.131)" fill="#3b2a3a"/>
    </g>
    <g id="Grupo_1174222" data-name="Grupo 1174222" transform="translate(426.058 668.723)">
      <g id="Grupo_1174221" data-name="Grupo 1174221" transform="translate(0)">
        <path id="Trazado_1027405" data-name="Trazado 1027405" d="M1129.549,1339.6h-.014a.593.593,0,0,1-.579-.606c.349-15.18-5.986-27.165-11.363-34.546a63.1,63.1,0,0,0-11.862-12.5.593.593,0,0,1,.7-.954,64.451,64.451,0,0,1,12.116,12.756c5.484,7.528,11.947,19.759,11.59,35.27A.592.592,0,0,1,1129.549,1339.6Z" transform="translate(-1105.491 -1290.878)" fill="#3b2a3a"/>
      </g>
    </g>
    <g id="Grupo_1174224" data-name="Grupo 1174224" transform="translate(458.563 662.35)">
      <g id="Grupo_1174223" data-name="Grupo 1174223" transform="translate(0 0)">
        <path id="Trazado_1027406" data-name="Trazado 1027406" d="M1221.363,1325.108l-1.177-.092a93.787,93.787,0,0,1,9.107-41.927c4.6-9.431,9.18-14.311,9.373-14.514a.592.592,0,0,1,.86.815,62.208,62.208,0,0,0-9.191,14.267,91.723,91.723,0,0,0-8.905,36.95,38.011,38.011,0,0,1,3.589-7.205c3.6-5.648,10.545-13.178,23.223-16.973a.592.592,0,1,1,.339,1.135c-12.3,3.682-19.045,10.966-22.534,16.428A33.318,33.318,0,0,0,1221.363,1325.108Z" transform="translate(-1220.183 -1268.391)" fill="#3b2a3a"/>
      </g>
    </g>
    <g id="Grupo_1174226" data-name="Grupo 1174226" transform="translate(452.244 646.822)">
      <g id="Grupo_1174225" data-name="Grupo 1174225" transform="translate(0 0)">
        <path id="Trazado_1027407" data-name="Trazado 1027407" d="M1200.7,1290.689a.593.593,0,0,1-.586-.512c-4.981-36.107-.051-75.664,0-76.06a.592.592,0,1,1,1.175.15c-.05.394-4.96,39.8,0,75.748a.592.592,0,0,1-.506.668A.56.56,0,0,1,1200.7,1290.689Z" transform="translate(-1197.887 -1213.6)" fill="#3b2a3a"/>
      </g>
    </g>
    <g id="Grupo_1174227" data-name="Grupo 1174227" transform="translate(424.168 714.441)">
      <path id="Trazado_1027408" data-name="Trazado 1027408" d="M1127.083,1478.5c-2.025,2.824-5.538,4.031-10.443,3.6a17.361,17.361,0,0,0-11.428,2.733q-.308-.738-.6-1.5a18.852,18.852,0,0,1,12.175-2.86c4.286.378,7.306-.6,8.972-2.922,2.424-3.372,1.615-9.191-.264-13.463-2.123-4.84-7.244-10.247-11.2-10.274h-.029c-1.8,0-3.249,1.167-4.3,3.477a5.491,5.491,0,0,1-3.594,3.141c-2.185.626-4.876.117-7.361-.75-.069-.6-.134-1.2-.193-1.8,2.42.936,5.081,1.566,7.1.985a3.855,3.855,0,0,0,2.557-2.251c1.667-3.656,4.06-4.429,5.786-4.429h.042c5.065.033,10.616,6.556,12.677,11.249C1128.9,1467.788,1130.071,1474.346,1127.083,1478.5Z" transform="translate(-1098.823 -1452.188)" fill="#97586a"/>
    </g>
    <g id="Grupo_1174228" data-name="Grupo 1174228" transform="translate(451.042 751.048)">
      <path id="Trazado_1027409" data-name="Trazado 1027409" d="M1217.346,1582.382c-.258.5-.518.988-.786,1.468a25.055,25.055,0,0,0-13.056-.016c-4.37,1.255-7.26,3.663-7.929,6.6a11.226,11.226,0,0,0-.111,4.6H1193.8a12.952,12.952,0,0,1,.186-4.958c.8-3.535,4.106-6.379,9.067-7.808A26.789,26.789,0,0,1,1217.346,1582.382Z" transform="translate(-1193.645 -1581.352)" fill="#97586a"/>
    </g>
    <g id="Grupo_1174229" data-name="Grupo 1174229" transform="translate(453.527 709.04)">
      <path id="Trazado_1027410" data-name="Trazado 1027410" d="M1222.946,1433.131a16.052,16.052,0,0,1-9.227,5.489,9.267,9.267,0,0,1-1.888.2,11.3,11.3,0,0,1-9.06-5.156c-.124-.173-.241-.349-.355-.528h1.993c2.387,3.125,5.711,4.579,8.976,3.891a14.652,14.652,0,0,0,7.4-3.891Z" transform="translate(-1202.415 -1433.131)" fill="#97586a"/>
    </g>
    <g id="Grupo_1174230" data-name="Grupo 1174230" transform="translate(465.525 716.851)">
      <path id="Trazado_1027411" data-name="Trazado 1027411" d="M1247,1481.4c.972,2.811,3.894,4.106,6.177,4.693a20,20,0,0,0,4.7.59q-.284.822-.577,1.618a21.127,21.127,0,0,1-4.531-.63c-3.825-.985-6.353-2.971-7.312-5.74-2.645-7.651,2.462-11.373,9.527-16.526q.665-.484,1.36-.995a30.506,30.506,0,0,1,6.595-3.721c-.042.616-.088,1.233-.143,1.843a28.893,28.893,0,0,0-5.486,3.193c-.463.339-.92.672-1.363,1C1248.962,1471.817,1244.748,1474.889,1247,1481.4Z" transform="translate(-1244.747 -1460.692)" fill="#97586a"/>
    </g>
    <g id="Grupo_1174231" data-name="Grupo 1174231" transform="translate(310.766 450.622)">
      <path id="Trazado_1027412" data-name="Trazado 1027412" d="M736.754,521.334H703.517a4.833,4.833,0,0,0-4.819,4.819v14.574a4.833,4.833,0,0,0,4.819,4.819h33.237l4.819,6V526.153A4.833,4.833,0,0,0,736.754,521.334Z" transform="translate(-698.698 -521.334)" fill="#fcd388"/>
    </g>
    <g id="Grupo_1174232" data-name="Grupo 1174232" transform="translate(316.098 457.936)">
      <rect id="Rectángulo_414498" data-name="Rectángulo 414498" width="3.143" height="3.143" transform="translate(0 0)" fill="#fff"/>
    </g>
    <g id="Grupo_1174234" data-name="Grupo 1174234" transform="translate(322.314 458.936)">
      <g id="Grupo_1174233" data-name="Grupo 1174233" transform="translate(0 0)">
        <path id="Trazado_1027413" data-name="Trazado 1027413" d="M763.294,551.855H740.038a.592.592,0,0,1,0-1.185h23.256a.592.592,0,1,1,0,1.185Z" transform="translate(-739.446 -550.67)" fill="#3b2a3a"/>
      </g>
    </g>
    <g id="Grupo_1174235" data-name="Grupo 1174235" transform="translate(316.098 464.218)">
      <rect id="Rectángulo_414499" data-name="Rectángulo 414499" width="3.143" height="3.143" fill="#fff"/>
    </g>
    <g id="Grupo_1174237" data-name="Grupo 1174237" transform="translate(322.314 465.197)">
      <g id="Grupo_1174236" data-name="Grupo 1174236">
        <path id="Trazado_1027414" data-name="Trazado 1027414" d="M763.294,573.946H740.038a.592.592,0,0,1,0-1.185h23.256a.592.592,0,1,1,0,1.185Z" transform="translate(-739.446 -572.761)" fill="#3b2a3a"/>
      </g>
    </g>
    <g id="Grupo_1174238" data-name="Grupo 1174238" transform="translate(324.321 429.617)">
      <rect id="Rectángulo_414500" data-name="Rectángulo 414500" width="28.846" height="6.384" rx="3.192" fill="#4252b2"/>
    </g>
    <g id="Grupo_1174239" data-name="Grupo 1174239" transform="translate(359.347 431.439)">
      <circle id="Elipse_12054" data-name="Elipse 12054" cx="1.45" cy="1.45" r="1.45" transform="translate(0 0)" fill="#4252b2"/>
    </g>
    <g id="Grupo_1174240" data-name="Grupo 1174240" transform="translate(423.298 431.62)">
      <path id="Trazado_1027415" data-name="Trazado 1027415" d="M1179.683,482.946H1096.8c0-7.944,5.876-14.39,13.128-14.39a12.179,12.179,0,0,1,6.035,1.609c4.207-8.813,12.625-14.831,22.33-14.831,10.842,0,20.082,7.508,23.634,18.04a8.149,8.149,0,0,1,1.783-.2,8.776,8.776,0,0,1,7.6,4.689,5.1,5.1,0,0,1,2.894-.915A5.752,5.752,0,0,1,1179.683,482.946Z" transform="translate(-1096.504 -455.038)" fill="#fff"/>
      <path id="Trazado_1027416" data-name="Trazado 1027416" d="M1178.934,482.494h-82.883a.3.3,0,0,1-.3-.3c0-8.1,6.022-14.686,13.424-14.686a12.364,12.364,0,0,1,5.905,1.495c4.457-9.086,13.036-14.717,22.461-14.717,10.543,0,20.089,7.22,23.83,17.994a8.458,8.458,0,0,1,1.587-.151,8.98,8.98,0,0,1,7.7,4.568,5.374,5.374,0,0,1,2.793-.794,6.054,6.054,0,0,1,5.77,6.291A.3.3,0,0,1,1178.934,482.494Zm-82.584-.593h82.28a5.432,5.432,0,0,0-5.17-5.4,4.815,4.815,0,0,0-2.727.863.3.3,0,0,1-.426-.1,8.436,8.436,0,0,0-7.345-4.538,7.882,7.882,0,0,0-1.718.19.3.3,0,0,1-.345-.194c-3.6-10.67-12.984-17.839-23.354-17.839-9.292,0-17.746,5.618-22.063,14.663a.3.3,0,0,1-.413.13,11.808,11.808,0,0,0-5.889-1.571C1102.194,468.1,1096.495,474.266,1096.35,481.9Z" transform="translate(-1095.755 -454.289)" fill="#401e3e"/>
    </g>
    <g id="Grupo_1174242" data-name="Grupo 1174242" transform="translate(202.985 489.623)">
      <g id="Grupo_1174241" data-name="Grupo 1174241" transform="translate(0 0)">
        <path id="Trazado_1027417" data-name="Trazado 1027417" d="M322.172,666.472a3.764,3.764,0,1,1,3.764-3.764A3.768,3.768,0,0,1,322.172,666.472Zm0-6.343a2.579,2.579,0,1,0,2.579,2.579A2.582,2.582,0,0,0,322.172,660.129Z" transform="translate(-318.408 -658.944)" fill="#3b2a3a"/>
      </g>
    </g>
    <g id="Grupo_1174244" data-name="Grupo 1174244" transform="translate(227.103 541.976)">
      <g id="Grupo_1174243" data-name="Grupo 1174243" transform="translate(0 0)">
        <path id="Trazado_1027418" data-name="Trazado 1027418" d="M405.681,848.023a2.178,2.178,0,1,1,2.178-2.178A2.181,2.181,0,0,1,405.681,848.023Zm0-3.171a.993.993,0,1,0,.993.993A.995.995,0,0,0,405.681,844.852Z" transform="translate(-403.503 -843.667)" fill="#3b2a3a"/>
      </g>
    </g>
    <g id="Grupo_1174245" data-name="Grupo 1174245" transform="translate(478.304 687.031)">
      <path id="Trazado_1027419" data-name="Trazado 1027419" d="M1365.894,1367.863c-.213-.181-7.827-6.57-27.861-5.328-19.131,1.184-27.158,6.22-48.2,3.457,2.076.229,13.424,1.237,22.949-2.743,10.529-4.4,9.742-10.453,21.841-6.485S1356.939,1357.719,1365.894,1367.863Z" transform="translate(-1289.837 -1355.474)" fill="#969946"/>
    </g>
    <g id="Grupo_1174246" data-name="Grupo 1174246" transform="translate(465.703 624.632)">
      <path id="Trazado_1027420" data-name="Trazado 1027420" d="M1312.867,1135.308c-.421.181-14.062,6.148-29.531,24.09-15.115,17.536-19.7,29.583-37.96,39.357a41.8,41.8,0,0,0,15.753-17.195c5.971-12.063,4.4-16.962,14.456-23.472S1298.306,1139.151,1312.867,1135.308Z" transform="translate(-1245.376 -1135.308)" fill="#969946"/>
    </g>
    <g id="Grupo_1174247" data-name="Grupo 1174247" transform="translate(384.643 653.379)">
      <path id="Trazado_1027421" data-name="Trazado 1027421" d="M1015.974,1274.839c-19.994-3.7-20.158-16.721-33.876-27.88-13.6-11.071-21.813-10.115-22.733-9.967,1.032-.209,11.421-1.98,24.688,7.859,13.983,10.372,14.838,7.373,20.428,17.914C1008.646,1270.614,1013.027,1273.811,1015.974,1274.839Z" transform="translate(-959.366 -1236.737)" fill="#969946"/>
    </g>
  </g>
</svg>
