<svg xmlns="http://www.w3.org/2000/svg" xmlns:xlink="http://www.w3.org/1999/xlink" width="942.225" height="488.551" viewBox="0 0 942.225 488.551">
  <defs>
    <filter id="Trazado_1017158" x="0" y="273.511" width="196.267" height="103.595" filterUnits="userSpaceOnUse">
      <feOffset dy="3" input="SourceAlpha"/>
      <feGaussianBlur stdDeviation="3" result="blur"/>
      <feFlood flood-opacity="0.161"/>
      <feComposite operator="in" in2="blur"/>
      <feComposite in="SourceGraphic"/>
    </filter>
    <filter id="Trazado_1017158-2" x="219" y="244.624" width="226.787" height="75.776" filterUnits="userSpaceOnUse">
      <feOffset dy="3" input="SourceAlpha"/>
      <feGaussianBlur stdDeviation="3" result="blur-2"/>
      <feFlood flood-opacity="0.161"/>
      <feComposite operator="in" in2="blur-2"/>
      <feComposite in="SourceGraphic"/>
    </filter>
    <filter id="Trazado_1017158-3" x="219" y="412.775" width="226.787" height="75.776" filterUnits="userSpaceOnUse">
      <feOffset dy="3" input="SourceAlpha"/>
      <feGaussianBlur stdDeviation="3" result="blur-3"/>
      <feFlood flood-opacity="0.161"/>
      <feComposite operator="in" in2="blur-3"/>
      <feComposite in="SourceGraphic"/>
    </filter>
    <filter id="Trazado_1017158-4" x="471" y="161.947" width="188.944" height="75.776" filterUnits="userSpaceOnUse">
      <feOffset dy="3" input="SourceAlpha"/>
      <feGaussianBlur stdDeviation="3" result="blur-4"/>
      <feFlood flood-opacity="0.161"/>
      <feComposite operator="in" in2="blur-4"/>
      <feComposite in="SourceGraphic"/>
    </filter>
    <filter id="Trazado_1017158-5" x="471" y="270.516" width="188.944" height="75.776" filterUnits="userSpaceOnUse">
      <feOffset dy="3" input="SourceAlpha"/>
      <feGaussianBlur stdDeviation="3" result="blur-5"/>
      <feFlood flood-opacity="0.161"/>
      <feComposite operator="in" in2="blur-5"/>
      <feComposite in="SourceGraphic"/>
    </filter>
    <filter id="Trazado_1017158-6" x="219" y="161.947" width="226.787" height="75.776" filterUnits="userSpaceOnUse">
      <feOffset dy="3" input="SourceAlpha"/>
      <feGaussianBlur stdDeviation="3" result="blur-6"/>
      <feFlood flood-opacity="0.161"/>
      <feComposite operator="in" in2="blur-6"/>
      <feComposite in="SourceGraphic"/>
    </filter>
    <filter id="Trazado_1017158-7" x="693" y="0" width="249.225" height="75.776" filterUnits="userSpaceOnUse">
      <feOffset dy="3" input="SourceAlpha"/>
      <feGaussianBlur stdDeviation="3" result="blur-7"/>
      <feFlood flood-opacity="0.161"/>
      <feComposite operator="in" in2="blur-7"/>
      <feComposite in="SourceGraphic"/>
    </filter>
    <filter id="Trazado_1017158-8" x="693" y="83.122" width="249.225" height="75.776" filterUnits="userSpaceOnUse">
      <feOffset dy="3" input="SourceAlpha"/>
      <feGaussianBlur stdDeviation="3" result="blur-8"/>
      <feFlood flood-opacity="0.161"/>
      <feComposite operator="in" in2="blur-8"/>
      <feComposite in="SourceGraphic"/>
    </filter>
    <filter id="Trazado_1017158-9" x="693" y="194.434" width="249.225" height="75.776" filterUnits="userSpaceOnUse">
      <feOffset dy="3" input="SourceAlpha"/>
      <feGaussianBlur stdDeviation="3" result="blur-9"/>
      <feFlood flood-opacity="0.161"/>
      <feComposite operator="in" in2="blur-9"/>
      <feComposite in="SourceGraphic"/>
    </filter>
    <filter id="Trazado_1017158-10" x="471" y="83.509" width="188.944" height="75.776" filterUnits="userSpaceOnUse">
      <feOffset dy="3" input="SourceAlpha"/>
      <feGaussianBlur stdDeviation="3" result="blur-10"/>
      <feFlood flood-opacity="0.161"/>
      <feComposite operator="in" in2="blur-10"/>
      <feComposite in="SourceGraphic"/>
    </filter>
  </defs>
  <g id="Grupo_1199844" data-name="Grupo 1199844" transform="translate(-329 -2429)">
    <g id="Grupo_1172107" data-name="Grupo 1172107" transform="translate(52 68.897)">
      <g transform="matrix(1, 0, 0, 1, 277, 2360.1)" filter="url(#Trazado_1017158)">
        <path id="Trazado_1017158-11" data-name="Trazado 1017158" d="M9.1,0H169.171c5.023,0,9.1,4.913,9.1,10.974V74.622c0,6.061-4.072,10.974-9.1,10.974H9.1C4.072,85.6,0,80.682,0,74.622V10.974C0,4.913,4.072,0,9.1,0Z" transform="translate(9 279.51)" fill="#edae3b"/>
      </g>
      <path id="Parrafo" d="M27.835,14H25.313V1.045H29.25l2.355,10.187L33.944,1.045h3.894V14H35.315V5.237q0-.378.009-1.059t.009-1.05L32.88,14H30.252L27.818,3.128q0,.369.009,1.05t.009,1.059ZM40.511,5.457a4.09,4.09,0,0,1,3.41-1.266,6.059,6.059,0,0,1,2.795.624,2.4,2.4,0,0,1,1.222,2.355v4.395q0,.457.018,1.107a1.392,1.392,0,0,0,.149.668.9.9,0,0,0,.369.29V14H45.749a2.79,2.79,0,0,1-.158-.545q-.044-.255-.07-.58a5.146,5.146,0,0,1-1.2.958A3.6,3.6,0,0,1,42.5,14.3a3.143,3.143,0,0,1-2.149-.743,2.649,2.649,0,0,1-.848-2.1,2.732,2.732,0,0,1,1.362-2.558,6.049,6.049,0,0,1,2.2-.615l.853-.105a3.91,3.91,0,0,0,.993-.22.753.753,0,0,0,.536-.712.845.845,0,0,0-.409-.813,2.553,2.553,0,0,0-1.2-.224,1.563,1.563,0,0,0-1.257.439,1.827,1.827,0,0,0-.352.879H39.808A3.676,3.676,0,0,1,40.511,5.457Zm1.863,6.732a1.309,1.309,0,0,0,.861.29A2.551,2.551,0,0,0,44.725,12a2.024,2.024,0,0,0,.708-1.731V9.342a2.722,2.722,0,0,1-.479.242,4.006,4.006,0,0,1-.664.171l-.562.105a3.632,3.632,0,0,0-1.134.343,1.149,1.149,0,0,0-.58,1.063A1.1,1.1,0,0,0,42.374,12.189ZM58.188,5.448a5.14,5.14,0,0,1,1.16,3.639,5.771,5.771,0,0,1-1.138,3.858,3.685,3.685,0,0,1-2.931,1.327,3.059,3.059,0,0,1-1.9-.571,3.683,3.683,0,0,1-.809-.923v4.992H50.093V4.42h2.4V5.835a4.021,4.021,0,0,1,.861-.984,3.165,3.165,0,0,1,1.986-.642A3.767,3.767,0,0,1,58.188,5.448ZM56.764,9.21a3.77,3.77,0,0,0-.505-1.96A1.759,1.759,0,0,0,54.619,6.4a1.865,1.865,0,0,0-1.872,1.292,4.9,4.9,0,0,0-.264,1.74,2.776,2.776,0,0,0,.888,2.347,2.021,2.021,0,0,0,1.248.4,1.809,1.809,0,0,0,1.6-.809A3.771,3.771,0,0,0,56.764,9.21Zm4.757-3.753a4.09,4.09,0,0,1,3.41-1.266,6.059,6.059,0,0,1,2.795.624,2.4,2.4,0,0,1,1.222,2.355v4.395q0,.457.018,1.107a1.392,1.392,0,0,0,.149.668.9.9,0,0,0,.369.29V14H66.759a2.79,2.79,0,0,1-.158-.545q-.044-.255-.07-.58a5.146,5.146,0,0,1-1.2.958,3.6,3.6,0,0,1-1.828.466,3.143,3.143,0,0,1-2.149-.743,2.649,2.649,0,0,1-.848-2.1,2.732,2.732,0,0,1,1.362-2.558,6.049,6.049,0,0,1,2.2-.615l.853-.105a3.91,3.91,0,0,0,.993-.22.753.753,0,0,0,.536-.712.845.845,0,0,0-.409-.813,2.553,2.553,0,0,0-1.2-.224,1.563,1.563,0,0,0-1.257.439,1.827,1.827,0,0,0-.352.879H60.817A3.676,3.676,0,0,1,61.521,5.457Zm1.863,6.732a1.309,1.309,0,0,0,.861.29A2.551,2.551,0,0,0,65.735,12a2.024,2.024,0,0,0,.708-1.731V9.342a2.722,2.722,0,0,1-.479.242,4.006,4.006,0,0,1-.664.171l-.562.105A3.632,3.632,0,0,0,63.6,10.2a1.149,1.149,0,0,0-.58,1.063A1.1,1.1,0,0,0,63.384,12.189ZM84.894,1.063V14H82.46V12.673a3.533,3.533,0,0,1-1.222,1.239,3.43,3.43,0,0,1-1.705.387,3.56,3.56,0,0,1-2.826-1.358A5.215,5.215,0,0,1,75.56,9.456,6,6,0,0,1,76.69,5.6a3.674,3.674,0,0,1,3.019-1.406,3.09,3.09,0,0,1,1.547.382,3.043,3.043,0,0,1,1.1,1.059V1.063Zm-6.75,8.209a3.767,3.767,0,0,0,.527,2.118,1.756,1.756,0,0,0,1.582.8,1.849,1.849,0,0,0,1.617-.791,3.5,3.5,0,0,0,.554-2.048,3.141,3.141,0,0,0-.888-2.514,1.91,1.91,0,0,0-1.266-.457,1.759,1.759,0,0,0-1.613.831A3.848,3.848,0,0,0,78.144,9.271Zm17.228,1.916a3.178,3.178,0,0,1-.888,1.731,4.349,4.349,0,0,1-3.445,1.4,4.858,4.858,0,0,1-3.226-1.178,4.75,4.75,0,0,1-1.4-3.832,5.326,5.326,0,0,1,1.261-3.814,4.312,4.312,0,0,1,3.274-1.327,5.021,5.021,0,0,1,2.153.448,3.772,3.772,0,0,1,1.582,1.415,4.828,4.828,0,0,1,.729,1.978A12.771,12.771,0,0,1,95.5,9.9H88.939a2.381,2.381,0,0,0,.905,2.021,2.132,2.132,0,0,0,1.248.36,1.8,1.8,0,0,0,1.257-.439,2.087,2.087,0,0,0,.466-.659ZM92.894,8.252a2.181,2.181,0,0,0-.6-1.507,1.87,1.87,0,0,0-1.34-.514,1.7,1.7,0,0,0-1.349.545A2.72,2.72,0,0,0,89,8.252ZM29.17,32.448a5.14,5.14,0,0,1,1.16,3.639,5.771,5.771,0,0,1-1.138,3.858,3.685,3.685,0,0,1-2.931,1.327,3.059,3.059,0,0,1-1.9-.571,3.683,3.683,0,0,1-.809-.923v4.992H21.076V31.42h2.4v1.415a4.021,4.021,0,0,1,.861-.984,3.165,3.165,0,0,1,1.986-.642A3.767,3.767,0,0,1,29.17,32.448ZM27.747,36.21a3.77,3.77,0,0,0-.505-1.96A1.759,1.759,0,0,0,25.6,33.4a1.865,1.865,0,0,0-1.872,1.292,4.9,4.9,0,0,0-.264,1.74,2.776,2.776,0,0,0,.888,2.347,2.021,2.021,0,0,0,1.248.4,1.809,1.809,0,0,0,1.6-.809A3.771,3.771,0,0,0,27.747,36.21Zm9.213-2.479a2.078,2.078,0,0,0-2.03.984,3.829,3.829,0,0,0-.29,1.705V41H32.117V31.42h2.391v1.67a5.3,5.3,0,0,1,1.011-1.31,2.752,2.752,0,0,1,1.828-.589q.07,0,.119,0l.215.013v2.566q-.237-.026-.422-.035T36.959,33.731Zm10.18-1.1a5.953,5.953,0,0,1,0,7.2,4.456,4.456,0,0,1-3.683,1.5,4.456,4.456,0,0,1-3.683-1.5,5.953,5.953,0,0,1,0-7.2,4.426,4.426,0,0,1,3.683-1.521A4.426,4.426,0,0,1,47.139,32.633Zm-3.691.6a2,2,0,0,0-1.692.778,3.6,3.6,0,0,0-.593,2.219,3.619,3.619,0,0,0,.593,2.224,2.216,2.216,0,0,0,3.379,0,3.639,3.639,0,0,0,.589-2.224,3.619,3.619,0,0,0-.589-2.219A1.99,1.99,0,0,0,43.447,33.23Zm14.987,1.626H55.868a2.223,2.223,0,0,0-.36-.967,1.511,1.511,0,0,0-1.31-.58,1.725,1.725,0,0,0-1.731,1.257,5.255,5.255,0,0,0-.246,1.775,4.832,4.832,0,0,0,.246,1.7,1.671,1.671,0,0,0,1.688,1.2,1.488,1.488,0,0,0,1.248-.475,2.362,2.362,0,0,0,.448-1.23h2.558a4.191,4.191,0,0,1-.826,2.162,4.016,4.016,0,0,1-3.489,1.644,4.082,4.082,0,0,1-3.4-1.371A5.548,5.548,0,0,1,49.6,36.4a5.63,5.63,0,0,1,1.2-3.841,4.191,4.191,0,0,1,3.322-1.371A5,5,0,0,1,57.077,32,3.761,3.761,0,0,1,58.435,34.856Zm9.925,3.331a3.178,3.178,0,0,1-.888,1.731,4.349,4.349,0,0,1-3.445,1.4A4.858,4.858,0,0,1,60.8,40.139a4.75,4.75,0,0,1-1.4-3.832,5.326,5.326,0,0,1,1.261-3.814,4.312,4.312,0,0,1,3.274-1.327,5.021,5.021,0,0,1,2.153.448,3.772,3.772,0,0,1,1.582,1.415,4.828,4.828,0,0,1,.729,1.978,12.771,12.771,0,0,1,.079,1.9H61.926a2.381,2.381,0,0,0,.905,2.021,2.132,2.132,0,0,0,1.248.36,1.8,1.8,0,0,0,1.257-.439,2.087,2.087,0,0,0,.466-.659Zm-2.479-2.936a2.181,2.181,0,0,0-.6-1.507,1.87,1.87,0,0,0-1.34-.514,1.7,1.7,0,0,0-1.349.545,2.72,2.72,0,0,0-.6,1.477Zm10.891-3.393a3.086,3.086,0,0,1,1.292,2.479h-2.5a1.482,1.482,0,0,0-.272-.765,1.714,1.714,0,0,0-1.406-.51,2.021,2.021,0,0,0-1.165.255.734.734,0,0,0-.347.6.654.654,0,0,0,.369.624,15.98,15.98,0,0,0,2.61.694A4.8,4.8,0,0,1,77.59,36.3a2.415,2.415,0,0,1,.738,1.8,2.911,2.911,0,0,1-1.059,2.325,4.976,4.976,0,0,1-3.274.9,4.929,4.929,0,0,1-3.335-.954,3.1,3.1,0,0,1-1.077-2.43h2.54a1.673,1.673,0,0,0,.343.949,2.317,2.317,0,0,0,1.723.5,2.626,2.626,0,0,0,1.173-.22.737.737,0,0,0,.083-1.3,14.3,14.3,0,0,0-2.61-.756A5.437,5.437,0,0,1,70.541,36.1a2.191,2.191,0,0,1-.668-1.723A2.988,2.988,0,0,1,70.914,32.1a4.183,4.183,0,0,1,2.931-.954A5.427,5.427,0,0,1,76.772,31.859Zm11.4.773a5.953,5.953,0,0,1,0,7.2,5.274,5.274,0,0,1-7.365,0,5.953,5.953,0,0,1,0-7.2,5.22,5.22,0,0,1,7.365,0Zm-3.691.6a2,2,0,0,0-1.692.778,3.6,3.6,0,0,0-.593,2.219,3.619,3.619,0,0,0,.593,2.224,2.216,2.216,0,0,0,3.379,0,3.639,3.639,0,0,0,.589-2.224,3.619,3.619,0,0,0-.589-2.219A1.99,1.99,0,0,0,84.482,33.23Zm13.3-1.371a3.086,3.086,0,0,1,1.292,2.479h-2.5a1.482,1.482,0,0,0-.272-.765,1.714,1.714,0,0,0-1.406-.51,2.021,2.021,0,0,0-1.165.255.734.734,0,0,0-.347.6.654.654,0,0,0,.369.624,15.98,15.98,0,0,0,2.61.694A4.8,4.8,0,0,1,98.6,36.3a2.415,2.415,0,0,1,.738,1.8,2.911,2.911,0,0,1-1.059,2.325,6.354,6.354,0,0,1-6.609-.053,3.1,3.1,0,0,1-1.077-2.43h2.54a1.673,1.673,0,0,0,.343.949,2.317,2.317,0,0,0,1.723.5,2.626,2.626,0,0,0,1.173-.22.737.737,0,0,0,.083-1.3,14.3,14.3,0,0,0-2.61-.756A5.437,5.437,0,0,1,91.55,36.1a2.191,2.191,0,0,1-.668-1.723A2.988,2.988,0,0,1,91.924,32.1a4.183,4.183,0,0,1,2.931-.954A5.427,5.427,0,0,1,97.782,31.859Z" transform="translate(316 2660)" fill="#0b0a0a"/>
      <path id="Trazado_1017282" data-name="Trazado 1017282" d="M-145.479,2577.108H-176.47v250.828h38.284" transform="translate(660.29 -20.17)" fill="none" stroke="#463311" stroke-linecap="round" stroke-width="1"/>
      <path id="Trazado_1017283" data-name="Trazado 1017283" d="M-207.862,2716.568h19.553" transform="translate(672.128 -34.156)" fill="none" stroke="#463311" stroke-linecap="round" stroke-width="1"/>
      <path id="Trazado_1017284" data-name="Trazado 1017284" d="M-182.736,2665.671h21.126" transform="translate(666.555 -26.444)" fill="none" stroke="#463311" stroke-linecap="round" stroke-width="1"/>
      <g transform="matrix(1, 0, 0, 1, 277, 2360.1)" filter="url(#Trazado_1017158-2)">
        <path id="Trazado_1017158-12" data-name="Trazado 1017158" d="M10.652,0H198.135c5.883,0,10.652,3.316,10.652,7.407V50.369c0,4.091-4.769,7.407-10.652,7.407H10.652C4.769,57.776,0,54.459,0,50.369V7.407C0,3.316,4.769,0,10.652,0Z" transform="translate(228 250.62)" fill="#edae3b"/>
      </g>
      <path id="Parrafo-2" data-name="Parrafo" d="M11.786,1.089h2.5L18,12,21.683,1.089h2.479V14H22.5V6.38q0-.4.018-1.31t.018-1.96L18.853,14H17.121L13.412,3.11v.4q0,.475.022,1.446t.022,1.428V14h-1.67ZM27.828,11.5a1.3,1.3,0,0,0,.5,1.081,1.857,1.857,0,0,0,1.187.4,3.608,3.608,0,0,0,1.617-.387,2.176,2.176,0,0,0,1.318-2.1V9.21a2.707,2.707,0,0,1-.747.308,6.366,6.366,0,0,1-.9.176l-.958.123a3.664,3.664,0,0,0-1.292.36A1.4,1.4,0,0,0,27.828,11.5ZM31.66,8.3a.859.859,0,0,0,.729-.457,1.391,1.391,0,0,0,.105-.606,1.285,1.285,0,0,0-.576-1.173,3.089,3.089,0,0,0-1.648-.365,2.094,2.094,0,0,0-1.758.668,2.2,2.2,0,0,0-.378,1.1H26.659A2.718,2.718,0,0,1,27.788,5.04a4.637,4.637,0,0,1,2.518-.681,5.124,5.124,0,0,1,2.7.633A2.147,2.147,0,0,1,34.033,6.96v5.423a.694.694,0,0,0,.1.4.487.487,0,0,0,.426.149q.105,0,.237-.013t.281-.04v1.169a4.406,4.406,0,0,1-.562.132,4.111,4.111,0,0,1-.527.026,1.3,1.3,0,0,1-1.187-.58,2.239,2.239,0,0,1-.272-.87,4.025,4.025,0,0,1-1.389,1.1,4.3,4.3,0,0,1-2,.466,2.967,2.967,0,0,1-2.14-.8,2.642,2.642,0,0,1-.831-1.991,2.564,2.564,0,0,1,.817-2.03,3.889,3.889,0,0,1,2.145-.888Zm8.6-3.981a4.1,4.1,0,0,1,2.588.773,3.705,3.705,0,0,1,1.2,2.663H42.508a2.839,2.839,0,0,0-.642-1.446,2.027,2.027,0,0,0-1.608-.576A2.222,2.222,0,0,0,38.1,7.206a5.865,5.865,0,0,0-.422,2.364,4.449,4.449,0,0,0,.6,2.382,2.317,2.317,0,0,0,3.441.365,3.311,3.311,0,0,0,.8-1.648h1.538a4.129,4.129,0,0,1-1.318,2.738,4.113,4.113,0,0,1-2.7.866,3.6,3.6,0,0,1-2.944-1.349,5.164,5.164,0,0,1-1.1-3.371,5.678,5.678,0,0,1,1.2-3.858A3.891,3.891,0,0,1,40.258,4.314Zm5.416.272h1.5V6.213a3.592,3.592,0,0,1,.905-1.156,2.347,2.347,0,0,1,1.661-.681q.044,0,.149.009t.36.035V6.09a2.363,2.363,0,0,0-.259-.035q-.119-.009-.259-.009a2.258,2.258,0,0,0-1.837.769,2.684,2.684,0,0,0-.642,1.771V14H45.673Zm9.687,8.394a2.182,2.182,0,0,0,2.158-1.191A5.933,5.933,0,0,0,58.1,9.14,4.718,4.718,0,0,0,57.681,7a2.373,2.373,0,0,0-2.3-1.3A2.271,2.271,0,0,0,53.269,6.8a5.133,5.133,0,0,0-.659,2.672,4.465,4.465,0,0,0,.659,2.5A2.322,2.322,0,0,0,55.361,12.98Zm.062-8.666A4.262,4.262,0,0,1,58.5,5.527,4.736,4.736,0,0,1,59.755,9.1a6.122,6.122,0,0,1-1.107,3.762,4.006,4.006,0,0,1-3.437,1.485,3.88,3.88,0,0,1-3.085-1.314A5.19,5.19,0,0,1,50.984,9.5a5.615,5.615,0,0,1,1.2-3.779A4.041,4.041,0,0,1,55.422,4.314Zm10.188,8.622a2.257,2.257,0,0,0,1.841-.927,4.413,4.413,0,0,0,.734-2.773A5.176,5.176,0,0,0,67.861,7.3a2.383,2.383,0,0,0-4.5.088,6.514,6.514,0,0,0-.325,2.232,4.732,4.732,0,0,0,.325,1.854A2.243,2.243,0,0,0,65.611,12.937Zm-4.1-8.306h1.538V5.879a3.84,3.84,0,0,1,1.037-.993,3.338,3.338,0,0,1,1.881-.527,3.537,3.537,0,0,1,2.716,1.226,5.023,5.023,0,0,1,1.116,3.5q0,3.076-1.608,4.395a3.634,3.634,0,0,1-2.373.835,3.221,3.221,0,0,1-1.784-.466,4.111,4.111,0,0,1-.94-.905v4.808H61.515Zm10.18-.044h1.5V6.213A3.592,3.592,0,0,1,74.1,5.057a2.347,2.347,0,0,1,1.661-.681q.044,0,.149.009t.36.035V6.09a2.363,2.363,0,0,0-.259-.035q-.119-.009-.259-.009a2.258,2.258,0,0,0-1.837.769,2.684,2.684,0,0,0-.642,1.771V14H71.694Zm9.687,8.394a2.182,2.182,0,0,0,2.158-1.191,5.933,5.933,0,0,0,.584-2.65A4.718,4.718,0,0,0,83.7,7a2.373,2.373,0,0,0-2.3-1.3A2.271,2.271,0,0,0,79.29,6.8a5.133,5.133,0,0,0-.659,2.672,4.465,4.465,0,0,0,.659,2.5A2.322,2.322,0,0,0,81.382,12.98Zm.062-8.666a4.262,4.262,0,0,1,3.076,1.213A4.736,4.736,0,0,1,85.776,9.1a6.122,6.122,0,0,1-1.107,3.762,4.006,4.006,0,0,1-3.437,1.485,3.88,3.88,0,0,1-3.085-1.314A5.19,5.19,0,0,1,77,9.5a5.615,5.615,0,0,1,1.2-3.779A4.041,4.041,0,0,1,81.443,4.314Zm9.846,0a4.1,4.1,0,0,1,2.588.773,3.705,3.705,0,0,1,1.2,2.663H93.539A2.839,2.839,0,0,0,92.9,6.305a2.027,2.027,0,0,0-1.608-.576,2.222,2.222,0,0,0-2.162,1.477A5.865,5.865,0,0,0,88.7,9.57a4.449,4.449,0,0,0,.6,2.382,2.317,2.317,0,0,0,3.441.365,3.311,3.311,0,0,0,.8-1.648h1.538a4.129,4.129,0,0,1-1.318,2.738,4.113,4.113,0,0,1-2.7.866,3.6,3.6,0,0,1-2.944-1.349,5.164,5.164,0,0,1-1.1-3.371,5.678,5.678,0,0,1,1.2-3.858A3.891,3.891,0,0,1,91.289,4.314Zm9.292.062a4.294,4.294,0,0,1,1.942.47,3.582,3.582,0,0,1,1.433,1.217,4.2,4.2,0,0,1,.633,1.661,10.868,10.868,0,0,1,.141,2.074h-6.9a4.026,4.026,0,0,0,.677,2.3,2.266,2.266,0,0,0,1.96.866,2.534,2.534,0,0,0,1.978-.817,2.755,2.755,0,0,0,.6-1.1H104.6a3.276,3.276,0,0,1-.409,1.156,4.111,4.111,0,0,1-.778,1.042,3.687,3.687,0,0,1-1.784.949,5.42,5.42,0,0,1-1.292.141,3.964,3.964,0,0,1-2.979-1.279,4.976,4.976,0,0,1-1.222-3.582,5.41,5.41,0,0,1,1.23-3.683A4.059,4.059,0,0,1,100.581,4.376ZM103.1,8.542a4.1,4.1,0,0,0-.448-1.644,2.3,2.3,0,0,0-2.171-1.143,2.406,2.406,0,0,0-1.828.787,2.972,2.972,0,0,0-.782,2Zm4.511,2.5a2.3,2.3,0,0,0,.4,1.213,2.485,2.485,0,0,0,2.074.765,3.059,3.059,0,0,0,1.547-.382,1.27,1.27,0,0,0,.668-1.182,1.011,1.011,0,0,0-.536-.923,6.374,6.374,0,0,0-1.354-.448l-1.257-.316a6.131,6.131,0,0,1-1.775-.668,2,2,0,0,1-1.02-1.775,2.713,2.713,0,0,1,.962-2.162,3.839,3.839,0,0,1,2.588-.826,3.593,3.593,0,0,1,3.067,1.248,2.708,2.708,0,0,1,.571,1.705h-1.494a1.83,1.83,0,0,0-.378-.976,2.41,2.41,0,0,0-1.89-.624,2.259,2.259,0,0,0-1.358.343,1.074,1.074,0,0,0-.461.905,1.114,1.114,0,0,0,.606.984,3.644,3.644,0,0,0,1.037.387l1.046.255a8.087,8.087,0,0,1,2.285.8,2.118,2.118,0,0,1,.923,1.907,2.906,2.906,0,0,1-.954,2.171,4.059,4.059,0,0,1-2.9.914,3.9,3.9,0,0,1-2.975-.954,3.606,3.606,0,0,1-.936-2.36Zm11.8,1.934a2.182,2.182,0,0,0,2.158-1.191,5.933,5.933,0,0,0,.584-2.65A4.718,4.718,0,0,0,121.731,7a2.373,2.373,0,0,0-2.3-1.3A2.271,2.271,0,0,0,117.319,6.8a5.133,5.133,0,0,0-.659,2.672,4.465,4.465,0,0,0,.659,2.5A2.322,2.322,0,0,0,119.41,12.98Zm.062-8.666a4.262,4.262,0,0,1,3.076,1.213A4.736,4.736,0,0,1,123.8,9.1a6.122,6.122,0,0,1-1.107,3.762,4.006,4.006,0,0,1-3.437,1.485,3.88,3.88,0,0,1-3.085-1.314A5.19,5.19,0,0,1,115.033,9.5a5.615,5.615,0,0,1,1.2-3.779A4.041,4.041,0,0,1,119.472,4.314ZM130.093,14a7.34,7.34,0,0,1,.672-2.83,5.443,5.443,0,0,1,2.281-2.188l1.688-.976a7.945,7.945,0,0,0,1.591-1.125,2.311,2.311,0,0,0,.721-1.67,2.331,2.331,0,0,0-.659-1.745,2.4,2.4,0,0,0-1.758-.646,2.3,2.3,0,0,0-2.25,1.23,4.405,4.405,0,0,0-.369,1.828H130.4a5.649,5.649,0,0,1,.606-2.681,3.806,3.806,0,0,1,3.63-1.828,3.934,3.934,0,0,1,3.16,1.169,3.911,3.911,0,0,1,1,2.6,3.537,3.537,0,0,1-1.063,2.584,10.412,10.412,0,0,1-2.206,1.512l-1.2.668a7.8,7.8,0,0,0-1.354.905,3.3,3.3,0,0,0-1.107,1.7h6.873V14Z" transform="translate(534 2627.727)" fill="#0b0a0a"/>
      <g transform="matrix(1, 0, 0, 1, 277, 2360.1)" filter="url(#Trazado_1017158-3)">
        <path id="Trazado_1017158-13" data-name="Trazado 1017158" d="M10.652,0H198.135c5.883,0,10.652,3.316,10.652,7.407V50.369c0,4.091-4.769,7.407-10.652,7.407H10.652C4.769,57.776,0,54.459,0,50.369V7.407C0,3.316,4.769,0,10.652,0Z" transform="translate(228 418.78)" fill="#edae3b"/>
      </g>
      <path id="Parrafo-3" data-name="Parrafo" d="M9.294,1.089h2.5L15.508,12,19.191,1.089h2.479V14H20.008V6.38q0-.4.018-1.31t.018-1.96L16.361,14H14.629L10.92,3.11v.4q0,.475.022,1.446t.022,1.428V14H9.294ZM25.336,11.5a1.3,1.3,0,0,0,.5,1.081,1.857,1.857,0,0,0,1.187.4,3.608,3.608,0,0,0,1.617-.387,2.176,2.176,0,0,0,1.318-2.1V9.21a2.707,2.707,0,0,1-.747.308,6.366,6.366,0,0,1-.9.176l-.958.123a3.664,3.664,0,0,0-1.292.36A1.4,1.4,0,0,0,25.336,11.5Zm3.832-3.2a.859.859,0,0,0,.729-.457A1.391,1.391,0,0,0,30,7.232a1.285,1.285,0,0,0-.576-1.173,3.089,3.089,0,0,0-1.648-.365,2.094,2.094,0,0,0-1.758.668,2.2,2.2,0,0,0-.378,1.1H24.167A2.718,2.718,0,0,1,25.3,5.04a4.637,4.637,0,0,1,2.518-.681,5.124,5.124,0,0,1,2.7.633A2.147,2.147,0,0,1,31.541,6.96v5.423a.694.694,0,0,0,.1.4.487.487,0,0,0,.426.149q.105,0,.237-.013t.281-.04v1.169a4.406,4.406,0,0,1-.562.132,4.111,4.111,0,0,1-.527.026,1.3,1.3,0,0,1-1.187-.58,2.239,2.239,0,0,1-.272-.87,4.025,4.025,0,0,1-1.389,1.1,4.3,4.3,0,0,1-2,.466,2.967,2.967,0,0,1-2.14-.8,2.642,2.642,0,0,1-.831-1.991A2.564,2.564,0,0,1,24.5,9.5a3.889,3.889,0,0,1,2.145-.888Zm8.6-3.981a4.1,4.1,0,0,1,2.588.773,3.705,3.705,0,0,1,1.2,2.663H40.016a2.839,2.839,0,0,0-.642-1.446,2.027,2.027,0,0,0-1.608-.576A2.222,2.222,0,0,0,35.6,7.206a5.865,5.865,0,0,0-.422,2.364,4.449,4.449,0,0,0,.6,2.382,2.317,2.317,0,0,0,3.441.365,3.311,3.311,0,0,0,.8-1.648h1.538a4.129,4.129,0,0,1-1.318,2.738,4.113,4.113,0,0,1-2.7.866,3.6,3.6,0,0,1-2.944-1.349,5.164,5.164,0,0,1-1.1-3.371,5.678,5.678,0,0,1,1.2-3.858A3.891,3.891,0,0,1,37.766,4.314Zm5.416.272h1.5V6.213a3.592,3.592,0,0,1,.905-1.156,2.347,2.347,0,0,1,1.661-.681q.044,0,.149.009t.36.035V6.09a2.363,2.363,0,0,0-.259-.035q-.119-.009-.259-.009a2.258,2.258,0,0,0-1.837.769,2.684,2.684,0,0,0-.642,1.771V14H43.182Zm9.687,8.394a2.182,2.182,0,0,0,2.158-1.191,5.933,5.933,0,0,0,.584-2.65A4.718,4.718,0,0,0,55.189,7a2.373,2.373,0,0,0-2.3-1.3A2.271,2.271,0,0,0,50.777,6.8a5.133,5.133,0,0,0-.659,2.672,4.465,4.465,0,0,0,.659,2.5A2.322,2.322,0,0,0,52.869,12.98Zm.062-8.666a4.262,4.262,0,0,1,3.076,1.213A4.736,4.736,0,0,1,57.264,9.1a6.122,6.122,0,0,1-1.107,3.762,4.006,4.006,0,0,1-3.437,1.485,3.88,3.88,0,0,1-3.085-1.314A5.19,5.19,0,0,1,48.492,9.5a5.615,5.615,0,0,1,1.2-3.779A4.041,4.041,0,0,1,52.931,4.314Zm10.188,8.622a2.257,2.257,0,0,0,1.841-.927,4.413,4.413,0,0,0,.734-2.773A5.176,5.176,0,0,0,65.369,7.3a2.383,2.383,0,0,0-4.5.088,6.514,6.514,0,0,0-.325,2.232,4.732,4.732,0,0,0,.325,1.854A2.243,2.243,0,0,0,63.119,12.937Zm-4.1-8.306h1.538V5.879A3.84,3.84,0,0,1,61.6,4.886a3.338,3.338,0,0,1,1.881-.527A3.537,3.537,0,0,1,66.2,5.584a5.023,5.023,0,0,1,1.116,3.5q0,3.076-1.608,4.395a3.634,3.634,0,0,1-2.373.835,3.221,3.221,0,0,1-1.784-.466,4.111,4.111,0,0,1-.94-.905v4.808H59.023ZM69.2,4.587h1.5V6.213a3.592,3.592,0,0,1,.905-1.156,2.347,2.347,0,0,1,1.661-.681q.044,0,.149.009t.36.035V6.09a2.363,2.363,0,0,0-.259-.035q-.119-.009-.259-.009a2.258,2.258,0,0,0-1.837.769,2.684,2.684,0,0,0-.642,1.771V14H69.2ZM78.89,12.98a2.182,2.182,0,0,0,2.158-1.191,5.933,5.933,0,0,0,.584-2.65A4.718,4.718,0,0,0,81.21,7a2.373,2.373,0,0,0-2.3-1.3A2.271,2.271,0,0,0,76.8,6.8a5.133,5.133,0,0,0-.659,2.672,4.465,4.465,0,0,0,.659,2.5A2.322,2.322,0,0,0,78.89,12.98Zm.062-8.666a4.262,4.262,0,0,1,3.076,1.213A4.736,4.736,0,0,1,83.285,9.1a6.122,6.122,0,0,1-1.107,3.762,4.006,4.006,0,0,1-3.437,1.485,3.88,3.88,0,0,1-3.085-1.314A5.19,5.19,0,0,1,74.513,9.5a5.615,5.615,0,0,1,1.2-3.779A4.041,4.041,0,0,1,78.952,4.314Zm9.846,0a4.1,4.1,0,0,1,2.588.773,3.705,3.705,0,0,1,1.2,2.663H91.047a2.839,2.839,0,0,0-.642-1.446A2.027,2.027,0,0,0,88.8,5.729a2.222,2.222,0,0,0-2.162,1.477,5.865,5.865,0,0,0-.422,2.364,4.449,4.449,0,0,0,.6,2.382,2.317,2.317,0,0,0,3.441.365,3.311,3.311,0,0,0,.8-1.648h1.538a4.129,4.129,0,0,1-1.318,2.738,4.113,4.113,0,0,1-2.7.866,3.6,3.6,0,0,1-2.944-1.349,5.164,5.164,0,0,1-1.1-3.371,5.678,5.678,0,0,1,1.2-3.858A3.891,3.891,0,0,1,88.8,4.314Zm9.292.062a4.294,4.294,0,0,1,1.942.47,3.582,3.582,0,0,1,1.433,1.217,4.2,4.2,0,0,1,.633,1.661,10.868,10.868,0,0,1,.141,2.074h-6.9a4.026,4.026,0,0,0,.677,2.3,2.266,2.266,0,0,0,1.96.866,2.534,2.534,0,0,0,1.978-.817,2.755,2.755,0,0,0,.6-1.1h1.556A3.276,3.276,0,0,1,101.7,12.2a4.111,4.111,0,0,1-.778,1.042,3.687,3.687,0,0,1-1.784.949,5.42,5.42,0,0,1-1.292.141,3.964,3.964,0,0,1-2.979-1.279,4.976,4.976,0,0,1-1.222-3.582,5.41,5.41,0,0,1,1.23-3.683A4.059,4.059,0,0,1,98.089,4.376Zm2.522,4.166a4.1,4.1,0,0,0-.448-1.644,2.3,2.3,0,0,0-2.171-1.143,2.406,2.406,0,0,0-1.828.787,2.972,2.972,0,0,0-.782,2Zm4.511,2.5a2.3,2.3,0,0,0,.4,1.213,2.485,2.485,0,0,0,2.074.765,3.059,3.059,0,0,0,1.547-.382,1.27,1.27,0,0,0,.668-1.182,1.011,1.011,0,0,0-.536-.923,6.374,6.374,0,0,0-1.354-.448l-1.257-.316a6.131,6.131,0,0,1-1.775-.668,2,2,0,0,1-1.02-1.775,2.713,2.713,0,0,1,.962-2.162,3.839,3.839,0,0,1,2.588-.826,3.593,3.593,0,0,1,3.067,1.248,2.708,2.708,0,0,1,.571,1.705H109.56a1.83,1.83,0,0,0-.378-.976,2.41,2.41,0,0,0-1.89-.624,2.259,2.259,0,0,0-1.358.343,1.074,1.074,0,0,0-.461.905,1.114,1.114,0,0,0,.606.984,3.644,3.644,0,0,0,1.037.387l1.046.255a8.087,8.087,0,0,1,2.285.8,2.118,2.118,0,0,1,.923,1.907,2.906,2.906,0,0,1-.954,2.171,4.059,4.059,0,0,1-2.9.914,3.9,3.9,0,0,1-2.975-.954,3.606,3.606,0,0,1-.936-2.36Zm11.8,1.934a2.182,2.182,0,0,0,2.158-1.191,5.933,5.933,0,0,0,.584-2.65A4.718,4.718,0,0,0,119.239,7a2.373,2.373,0,0,0-2.3-1.3A2.271,2.271,0,0,0,114.827,6.8a5.133,5.133,0,0,0-.659,2.672,4.465,4.465,0,0,0,.659,2.5A2.322,2.322,0,0,0,116.919,12.98Zm.062-8.666a4.262,4.262,0,0,1,3.076,1.213A4.736,4.736,0,0,1,121.313,9.1a6.122,6.122,0,0,1-1.107,3.762,4.006,4.006,0,0,1-3.437,1.485,3.88,3.88,0,0,1-3.085-1.314A5.19,5.19,0,0,1,112.542,9.5a5.615,5.615,0,0,1,1.2-3.779A4.041,4.041,0,0,1,116.98,4.314Zm11.218.272h1.564V5.923a5.258,5.258,0,0,1,1.02-1.011,3.066,3.066,0,0,1,1.775-.536,2.794,2.794,0,0,1,1.811.554,2.894,2.894,0,0,1,.7.932,3.419,3.419,0,0,1,1.239-1.121,3.457,3.457,0,0,1,1.6-.365,2.616,2.616,0,0,1,2.584,1.371,4.482,4.482,0,0,1,.369,1.986V14H139.22V7.461a1.523,1.523,0,0,0-.47-1.292,1.861,1.861,0,0,0-1.147-.352,2.277,2.277,0,0,0-1.6.624,2.74,2.74,0,0,0-.672,2.083V14h-1.608V7.856a3.192,3.192,0,0,0-.229-1.4,1.394,1.394,0,0,0-1.345-.659,2.32,2.32,0,0,0-1.63.694,3.4,3.4,0,0,0-.734,2.514V14H128.2Z" transform="translate(534 2796.878)" fill="#0b0a0a"/>
      <path id="Trazado_1017285" data-name="Trazado 1017285" d="M-150.667,2577.108h-25.8v186.843H-144.6" transform="translate(912.188 -98.444)" fill="none" stroke="#463311" stroke-linecap="round" stroke-width="1"/>
      <path id="Trazado_1017286" data-name="Trazado 1017286" d="M-182.736,2665.671h50.312" transform="translate(893.281 -108.732)" fill="none" stroke="#463311" stroke-linecap="round" stroke-width="1"/>
      <g transform="matrix(1, 0, 0, 1, 277, 2360.1)" filter="url(#Trazado_1017158-4)">
        <path id="Trazado_1017158-14" data-name="Trazado 1017158" d="M8.722,0h153.5c4.817,0,8.722,3.316,8.722,7.407V50.369c0,4.091-3.9,7.407-8.722,7.407H8.722C3.9,57.776,0,54.459,0,50.369V7.407C0,3.316,3.9,0,8.722,0Z" transform="translate(480 167.95)" fill="#edae3b"/>
      </g>
      <path id="Parrafo-4" data-name="Parrafo" d="M3.5,1.089h5.81a3.938,3.938,0,0,1,2.777.971,3.524,3.524,0,0,1,1.055,2.729,3.968,3.968,0,0,1-.94,2.632A3.563,3.563,0,0,1,9.311,8.542H5.25V14H3.5ZM11.376,4.8a1.943,1.943,0,0,0-1.055-1.934,3.808,3.808,0,0,0-1.591-.272H5.25V7.065h3.48a3.326,3.326,0,0,0,1.912-.5A1.985,1.985,0,0,0,11.376,4.8Zm3.8-.211h1.5V6.213a3.592,3.592,0,0,1,.905-1.156,2.347,2.347,0,0,1,1.661-.681q.044,0,.149.009t.36.035V6.09a2.363,2.363,0,0,0-.259-.035q-.119-.009-.259-.009a2.258,2.258,0,0,0-1.837.769,2.684,2.684,0,0,0-.642,1.771V14H15.175Zm9.687,8.394A2.182,2.182,0,0,0,27.02,11.79,5.933,5.933,0,0,0,27.6,9.14,4.718,4.718,0,0,0,27.183,7a2.373,2.373,0,0,0-2.3-1.3A2.271,2.271,0,0,0,22.77,6.8a5.133,5.133,0,0,0-.659,2.672,4.465,4.465,0,0,0,.659,2.5A2.322,2.322,0,0,0,24.862,12.98Zm.062-8.666A4.262,4.262,0,0,1,28,5.527,4.736,4.736,0,0,1,29.257,9.1a6.122,6.122,0,0,1-1.107,3.762,4.006,4.006,0,0,1-3.437,1.485,3.88,3.88,0,0,1-3.085-1.314A5.19,5.19,0,0,1,20.485,9.5a5.615,5.615,0,0,1,1.2-3.779A4.041,4.041,0,0,1,24.924,4.314Zm9.846,0a4.1,4.1,0,0,1,2.588.773,3.705,3.705,0,0,1,1.2,2.663H37.019a2.839,2.839,0,0,0-.642-1.446,2.027,2.027,0,0,0-1.608-.576,2.222,2.222,0,0,0-2.162,1.477,5.865,5.865,0,0,0-.422,2.364,4.449,4.449,0,0,0,.6,2.382,2.317,2.317,0,0,0,3.441.365,3.311,3.311,0,0,0,.8-1.648h1.538a4.129,4.129,0,0,1-1.318,2.738,4.113,4.113,0,0,1-2.7.866A3.6,3.6,0,0,1,31.6,12.923a5.164,5.164,0,0,1-1.1-3.371,5.678,5.678,0,0,1,1.2-3.858A3.891,3.891,0,0,1,34.769,4.314Zm9.292.062A4.294,4.294,0,0,1,46,4.846a3.582,3.582,0,0,1,1.433,1.217,4.2,4.2,0,0,1,.633,1.661A10.868,10.868,0,0,1,48.21,9.8h-6.9a4.026,4.026,0,0,0,.677,2.3,2.266,2.266,0,0,0,1.96.866,2.534,2.534,0,0,0,1.978-.817,2.755,2.755,0,0,0,.6-1.1h1.556a3.276,3.276,0,0,1-.409,1.156,4.111,4.111,0,0,1-.778,1.042,3.687,3.687,0,0,1-1.784.949,5.42,5.42,0,0,1-1.292.141,3.964,3.964,0,0,1-2.979-1.279,4.976,4.976,0,0,1-1.222-3.582,5.41,5.41,0,0,1,1.23-3.683A4.059,4.059,0,0,1,44.061,4.376Zm2.522,4.166A4.1,4.1,0,0,0,46.135,6.9a2.3,2.3,0,0,0-2.171-1.143,2.406,2.406,0,0,0-1.828.787,2.972,2.972,0,0,0-.782,2Zm4.511,2.5a2.3,2.3,0,0,0,.4,1.213,2.485,2.485,0,0,0,2.074.765,3.059,3.059,0,0,0,1.547-.382,1.27,1.27,0,0,0,.668-1.182,1.011,1.011,0,0,0-.536-.923,6.374,6.374,0,0,0-1.354-.448l-1.257-.316A6.131,6.131,0,0,1,50.857,9.1a2,2,0,0,1-1.02-1.775A2.713,2.713,0,0,1,50.8,5.167a3.839,3.839,0,0,1,2.588-.826,3.593,3.593,0,0,1,3.067,1.248,2.708,2.708,0,0,1,.571,1.705H55.533a1.83,1.83,0,0,0-.378-.976,2.41,2.41,0,0,0-1.89-.624,2.259,2.259,0,0,0-1.358.343,1.074,1.074,0,0,0-.461.905,1.114,1.114,0,0,0,.606.984,3.644,3.644,0,0,0,1.037.387l1.046.255a8.087,8.087,0,0,1,2.285.8,2.118,2.118,0,0,1,.923,1.907,2.906,2.906,0,0,1-.954,2.171,4.059,4.059,0,0,1-2.9.914,3.9,3.9,0,0,1-2.975-.954,3.606,3.606,0,0,1-.936-2.36Zm11.8,1.934a2.182,2.182,0,0,0,2.158-1.191,5.933,5.933,0,0,0,.584-2.65A4.718,4.718,0,0,0,65.211,7a2.373,2.373,0,0,0-2.3-1.3A2.271,2.271,0,0,0,60.8,6.8a5.133,5.133,0,0,0-.659,2.672,4.465,4.465,0,0,0,.659,2.5A2.322,2.322,0,0,0,62.891,12.98Zm.062-8.666a4.262,4.262,0,0,1,3.076,1.213A4.736,4.736,0,0,1,67.285,9.1a6.122,6.122,0,0,1-1.107,3.762,4.006,4.006,0,0,1-3.437,1.485,3.88,3.88,0,0,1-3.085-1.314A5.19,5.19,0,0,1,58.514,9.5a5.615,5.615,0,0,1,1.2-3.779A4.041,4.041,0,0,1,62.952,4.314Zm11.781.773V3.875a6.445,6.445,0,0,0,2.391-.558,2.751,2.751,0,0,0,1.011-1.85h1.248V14H77.7V5.088Zm9.828,7H86.4V14H84.561ZM88.589,14a7.34,7.34,0,0,1,.672-2.83,5.443,5.443,0,0,1,2.281-2.188l1.688-.976A7.945,7.945,0,0,0,94.82,6.881a2.311,2.311,0,0,0,.721-1.67,2.331,2.331,0,0,0-.659-1.745,2.4,2.4,0,0,0-1.758-.646,2.3,2.3,0,0,0-2.25,1.23A4.405,4.405,0,0,0,90.5,5.879H88.9A5.649,5.649,0,0,1,89.5,3.2a3.806,3.806,0,0,1,3.63-1.828,3.934,3.934,0,0,1,3.16,1.169,3.911,3.911,0,0,1,1,2.6,3.537,3.537,0,0,1-1.063,2.584A10.412,10.412,0,0,1,94.02,9.236l-1.2.668a7.8,7.8,0,0,0-1.354.905,3.3,3.3,0,0,0-1.107,1.7h6.873V14Z" transform="translate(793 2546.05)" fill="#0b0a0a"/>
      <g transform="matrix(1, 0, 0, 1, 277, 2360.1)" filter="url(#Trazado_1017158-5)">
        <path id="Trazado_1017158-15" data-name="Trazado 1017158" d="M8.722,0h153.5c4.817,0,8.722,3.316,8.722,7.407V50.369c0,4.091-3.9,7.407-8.722,7.407H8.722C3.9,57.776,0,54.459,0,50.369V7.407C0,3.316,3.9,0,8.722,0Z" transform="translate(480 276.52)" fill="#edae3b"/>
      </g>
      <path id="Parrafo-5" data-name="Parrafo" d="M3.435,1.089h5.81a3.938,3.938,0,0,1,2.777.971,3.524,3.524,0,0,1,1.055,2.729,3.968,3.968,0,0,1-.94,2.632A3.563,3.563,0,0,1,9.245,8.542H5.184V14H3.435ZM11.31,4.8a1.943,1.943,0,0,0-1.055-1.934,3.808,3.808,0,0,0-1.591-.272H5.184V7.065h3.48a3.326,3.326,0,0,0,1.912-.5A1.985,1.985,0,0,0,11.31,4.8Zm3.8-.211h1.5V6.213a3.592,3.592,0,0,1,.905-1.156,2.347,2.347,0,0,1,1.661-.681q.044,0,.149.009t.36.035V6.09a2.363,2.363,0,0,0-.259-.035q-.119-.009-.259-.009a2.258,2.258,0,0,0-1.837.769,2.684,2.684,0,0,0-.642,1.771V14H15.109ZM24.8,12.98a2.182,2.182,0,0,0,2.158-1.191,5.933,5.933,0,0,0,.584-2.65A4.718,4.718,0,0,0,27.116,7a2.373,2.373,0,0,0-2.3-1.3A2.271,2.271,0,0,0,22.7,6.8a5.133,5.133,0,0,0-.659,2.672,4.465,4.465,0,0,0,.659,2.5A2.322,2.322,0,0,0,24.8,12.98Zm.062-8.666a4.262,4.262,0,0,1,3.076,1.213A4.736,4.736,0,0,1,29.191,9.1a6.122,6.122,0,0,1-1.107,3.762,4.006,4.006,0,0,1-3.437,1.485,3.88,3.88,0,0,1-3.085-1.314A5.19,5.19,0,0,1,20.419,9.5a5.615,5.615,0,0,1,1.2-3.779A4.041,4.041,0,0,1,24.858,4.314Zm9.846,0a4.1,4.1,0,0,1,2.588.773,3.705,3.705,0,0,1,1.2,2.663H36.953a2.839,2.839,0,0,0-.642-1.446A2.027,2.027,0,0,0,34.7,5.729a2.222,2.222,0,0,0-2.162,1.477,5.865,5.865,0,0,0-.422,2.364,4.449,4.449,0,0,0,.6,2.382,2.317,2.317,0,0,0,3.441.365,3.311,3.311,0,0,0,.8-1.648h1.538a4.129,4.129,0,0,1-1.318,2.738,4.113,4.113,0,0,1-2.7.866,3.6,3.6,0,0,1-2.944-1.349,5.164,5.164,0,0,1-1.1-3.371,5.678,5.678,0,0,1,1.2-3.858A3.891,3.891,0,0,1,34.7,4.314Zm9.292.062a4.294,4.294,0,0,1,1.942.47A3.582,3.582,0,0,1,47.37,6.063,4.2,4.2,0,0,1,48,7.725,10.868,10.868,0,0,1,48.143,9.8h-6.9a4.026,4.026,0,0,0,.677,2.3,2.266,2.266,0,0,0,1.96.866,2.534,2.534,0,0,0,1.978-.817,2.755,2.755,0,0,0,.6-1.1h1.556A3.276,3.276,0,0,1,47.6,12.2a4.111,4.111,0,0,1-.778,1.042,3.687,3.687,0,0,1-1.784.949,5.42,5.42,0,0,1-1.292.141,3.964,3.964,0,0,1-2.979-1.279,4.976,4.976,0,0,1-1.222-3.582,5.41,5.41,0,0,1,1.23-3.683A4.059,4.059,0,0,1,43.995,4.376Zm2.522,4.166A4.1,4.1,0,0,0,46.069,6.9,2.3,2.3,0,0,0,43.9,5.756a2.406,2.406,0,0,0-1.828.787,2.972,2.972,0,0,0-.782,2Zm4.511,2.5a2.3,2.3,0,0,0,.4,1.213,2.485,2.485,0,0,0,2.074.765,3.059,3.059,0,0,0,1.547-.382,1.27,1.27,0,0,0,.668-1.182,1.011,1.011,0,0,0-.536-.923,6.374,6.374,0,0,0-1.354-.448l-1.257-.316A6.131,6.131,0,0,1,50.791,9.1a2,2,0,0,1-1.02-1.775,2.713,2.713,0,0,1,.962-2.162,3.839,3.839,0,0,1,2.588-.826,3.593,3.593,0,0,1,3.067,1.248,2.708,2.708,0,0,1,.571,1.705H55.467a1.83,1.83,0,0,0-.378-.976,2.41,2.41,0,0,0-1.89-.624,2.259,2.259,0,0,0-1.358.343,1.074,1.074,0,0,0-.461.905,1.114,1.114,0,0,0,.606.984,3.644,3.644,0,0,0,1.037.387l1.046.255a8.087,8.087,0,0,1,2.285.8,2.118,2.118,0,0,1,.923,1.907,2.906,2.906,0,0,1-.954,2.171,4.059,4.059,0,0,1-2.9.914,3.9,3.9,0,0,1-2.975-.954,3.606,3.606,0,0,1-.936-2.36Zm11.8,1.934a2.182,2.182,0,0,0,2.158-1.191,5.933,5.933,0,0,0,.584-2.65A4.718,4.718,0,0,0,65.145,7a2.373,2.373,0,0,0-2.3-1.3A2.271,2.271,0,0,0,60.733,6.8a5.133,5.133,0,0,0-.659,2.672,4.465,4.465,0,0,0,.659,2.5A2.322,2.322,0,0,0,62.825,12.98Zm.062-8.666a4.262,4.262,0,0,1,3.076,1.213A4.736,4.736,0,0,1,67.219,9.1a6.122,6.122,0,0,1-1.107,3.762,4.006,4.006,0,0,1-3.437,1.485,3.88,3.88,0,0,1-3.085-1.314A5.19,5.19,0,0,1,58.448,9.5a5.615,5.615,0,0,1,1.2-3.779A4.041,4.041,0,0,1,62.886,4.314Zm11.781.773V3.875a6.445,6.445,0,0,0,2.391-.558,2.751,2.751,0,0,0,1.011-1.85h1.248V14H77.629V5.088Zm9.828,7h1.837V14H84.5Zm4.625-7.5h1.5V5.923a4.215,4.215,0,0,1,1.415-1.187,3.773,3.773,0,0,1,1.661-.36,2.739,2.739,0,0,1,2.707,1.4,4.962,4.962,0,0,1,.387,2.188V14H95.184V8.067a3.212,3.212,0,0,0-.255-1.389A1.545,1.545,0,0,0,93.4,5.8a3.114,3.114,0,0,0-.923.114,2.377,2.377,0,0,0-1.143.773,2.329,2.329,0,0,0-.514.962A6.478,6.478,0,0,0,90.7,9.069V14H89.12Z" transform="translate(793 2653.619)" fill="#0b0a0a"/>
      <g transform="matrix(1, 0, 0, 1, 277, 2360.1)" filter="url(#Trazado_1017158-6)">
        <path id="Trazado_1017158-16" data-name="Trazado 1017158" d="M10.652,0H198.135c5.883,0,10.652,3.316,10.652,7.407V50.369c0,4.091-4.769,7.407-10.652,7.407H10.652C4.769,57.776,0,54.459,0,50.369V7.407C0,3.316,4.769,0,10.652,0Z" transform="translate(228 167.95)" fill="#edae3b"/>
      </g>
      <path id="Parrafo-6" data-name="Parrafo" d="M11.786,1.089h2.5L18,12,21.683,1.089h2.479V14H22.5V6.38q0-.4.018-1.31t.018-1.96L18.853,14H17.121L13.412,3.11v.4q0,.475.022,1.446t.022,1.428V14h-1.67ZM27.828,11.5a1.3,1.3,0,0,0,.5,1.081,1.857,1.857,0,0,0,1.187.4,3.608,3.608,0,0,0,1.617-.387,2.176,2.176,0,0,0,1.318-2.1V9.21a2.707,2.707,0,0,1-.747.308,6.366,6.366,0,0,1-.9.176l-.958.123a3.664,3.664,0,0,0-1.292.36A1.4,1.4,0,0,0,27.828,11.5ZM31.66,8.3a.859.859,0,0,0,.729-.457,1.391,1.391,0,0,0,.105-.606,1.285,1.285,0,0,0-.576-1.173,3.089,3.089,0,0,0-1.648-.365,2.094,2.094,0,0,0-1.758.668,2.2,2.2,0,0,0-.378,1.1H26.659A2.718,2.718,0,0,1,27.788,5.04a4.637,4.637,0,0,1,2.518-.681,5.124,5.124,0,0,1,2.7.633A2.147,2.147,0,0,1,34.033,6.96v5.423a.694.694,0,0,0,.1.4.487.487,0,0,0,.426.149q.105,0,.237-.013t.281-.04v1.169a4.406,4.406,0,0,1-.562.132,4.111,4.111,0,0,1-.527.026,1.3,1.3,0,0,1-1.187-.58,2.239,2.239,0,0,1-.272-.87,4.025,4.025,0,0,1-1.389,1.1,4.3,4.3,0,0,1-2,.466,2.967,2.967,0,0,1-2.14-.8,2.642,2.642,0,0,1-.831-1.991,2.564,2.564,0,0,1,.817-2.03,3.889,3.889,0,0,1,2.145-.888Zm8.6-3.981a4.1,4.1,0,0,1,2.588.773,3.705,3.705,0,0,1,1.2,2.663H42.508a2.839,2.839,0,0,0-.642-1.446,2.027,2.027,0,0,0-1.608-.576A2.222,2.222,0,0,0,38.1,7.206a5.865,5.865,0,0,0-.422,2.364,4.449,4.449,0,0,0,.6,2.382,2.317,2.317,0,0,0,3.441.365,3.311,3.311,0,0,0,.8-1.648h1.538a4.129,4.129,0,0,1-1.318,2.738,4.113,4.113,0,0,1-2.7.866,3.6,3.6,0,0,1-2.944-1.349,5.164,5.164,0,0,1-1.1-3.371,5.678,5.678,0,0,1,1.2-3.858A3.891,3.891,0,0,1,40.258,4.314Zm5.416.272h1.5V6.213a3.592,3.592,0,0,1,.905-1.156,2.347,2.347,0,0,1,1.661-.681q.044,0,.149.009t.36.035V6.09a2.363,2.363,0,0,0-.259-.035q-.119-.009-.259-.009a2.258,2.258,0,0,0-1.837.769,2.684,2.684,0,0,0-.642,1.771V14H45.673Zm9.687,8.394a2.182,2.182,0,0,0,2.158-1.191A5.933,5.933,0,0,0,58.1,9.14,4.718,4.718,0,0,0,57.681,7a2.373,2.373,0,0,0-2.3-1.3A2.271,2.271,0,0,0,53.269,6.8a5.133,5.133,0,0,0-.659,2.672,4.465,4.465,0,0,0,.659,2.5A2.322,2.322,0,0,0,55.361,12.98Zm.062-8.666A4.262,4.262,0,0,1,58.5,5.527,4.736,4.736,0,0,1,59.755,9.1a6.122,6.122,0,0,1-1.107,3.762,4.006,4.006,0,0,1-3.437,1.485,3.88,3.88,0,0,1-3.085-1.314A5.19,5.19,0,0,1,50.984,9.5a5.615,5.615,0,0,1,1.2-3.779A4.041,4.041,0,0,1,55.422,4.314Zm10.188,8.622a2.257,2.257,0,0,0,1.841-.927,4.413,4.413,0,0,0,.734-2.773A5.176,5.176,0,0,0,67.861,7.3a2.383,2.383,0,0,0-4.5.088,6.514,6.514,0,0,0-.325,2.232,4.732,4.732,0,0,0,.325,1.854A2.243,2.243,0,0,0,65.611,12.937Zm-4.1-8.306h1.538V5.879a3.84,3.84,0,0,1,1.037-.993,3.338,3.338,0,0,1,1.881-.527,3.537,3.537,0,0,1,2.716,1.226,5.023,5.023,0,0,1,1.116,3.5q0,3.076-1.608,4.395a3.634,3.634,0,0,1-2.373.835,3.221,3.221,0,0,1-1.784-.466,4.111,4.111,0,0,1-.94-.905v4.808H61.515Zm10.18-.044h1.5V6.213A3.592,3.592,0,0,1,74.1,5.057a2.347,2.347,0,0,1,1.661-.681q.044,0,.149.009t.36.035V6.09a2.363,2.363,0,0,0-.259-.035q-.119-.009-.259-.009a2.258,2.258,0,0,0-1.837.769,2.684,2.684,0,0,0-.642,1.771V14H71.694Zm9.687,8.394a2.182,2.182,0,0,0,2.158-1.191,5.933,5.933,0,0,0,.584-2.65A4.718,4.718,0,0,0,83.7,7a2.373,2.373,0,0,0-2.3-1.3A2.271,2.271,0,0,0,79.29,6.8a5.133,5.133,0,0,0-.659,2.672,4.465,4.465,0,0,0,.659,2.5A2.322,2.322,0,0,0,81.382,12.98Zm.062-8.666a4.262,4.262,0,0,1,3.076,1.213A4.736,4.736,0,0,1,85.776,9.1a6.122,6.122,0,0,1-1.107,3.762,4.006,4.006,0,0,1-3.437,1.485,3.88,3.88,0,0,1-3.085-1.314A5.19,5.19,0,0,1,77,9.5a5.615,5.615,0,0,1,1.2-3.779A4.041,4.041,0,0,1,81.443,4.314Zm9.846,0a4.1,4.1,0,0,1,2.588.773,3.705,3.705,0,0,1,1.2,2.663H93.539A2.839,2.839,0,0,0,92.9,6.305a2.027,2.027,0,0,0-1.608-.576,2.222,2.222,0,0,0-2.162,1.477A5.865,5.865,0,0,0,88.7,9.57a4.449,4.449,0,0,0,.6,2.382,2.317,2.317,0,0,0,3.441.365,3.311,3.311,0,0,0,.8-1.648h1.538a4.129,4.129,0,0,1-1.318,2.738,4.113,4.113,0,0,1-2.7.866,3.6,3.6,0,0,1-2.944-1.349,5.164,5.164,0,0,1-1.1-3.371,5.678,5.678,0,0,1,1.2-3.858A3.891,3.891,0,0,1,91.289,4.314Zm9.292.062a4.294,4.294,0,0,1,1.942.47,3.582,3.582,0,0,1,1.433,1.217,4.2,4.2,0,0,1,.633,1.661,10.868,10.868,0,0,1,.141,2.074h-6.9a4.026,4.026,0,0,0,.677,2.3,2.266,2.266,0,0,0,1.96.866,2.534,2.534,0,0,0,1.978-.817,2.755,2.755,0,0,0,.6-1.1H104.6a3.276,3.276,0,0,1-.409,1.156,4.111,4.111,0,0,1-.778,1.042,3.687,3.687,0,0,1-1.784.949,5.42,5.42,0,0,1-1.292.141,3.964,3.964,0,0,1-2.979-1.279,4.976,4.976,0,0,1-1.222-3.582,5.41,5.41,0,0,1,1.23-3.683A4.059,4.059,0,0,1,100.581,4.376ZM103.1,8.542a4.1,4.1,0,0,0-.448-1.644,2.3,2.3,0,0,0-2.171-1.143,2.406,2.406,0,0,0-1.828.787,2.972,2.972,0,0,0-.782,2Zm4.511,2.5a2.3,2.3,0,0,0,.4,1.213,2.485,2.485,0,0,0,2.074.765,3.059,3.059,0,0,0,1.547-.382,1.27,1.27,0,0,0,.668-1.182,1.011,1.011,0,0,0-.536-.923,6.374,6.374,0,0,0-1.354-.448l-1.257-.316a6.131,6.131,0,0,1-1.775-.668,2,2,0,0,1-1.02-1.775,2.713,2.713,0,0,1,.962-2.162,3.839,3.839,0,0,1,2.588-.826,3.593,3.593,0,0,1,3.067,1.248,2.708,2.708,0,0,1,.571,1.705h-1.494a1.83,1.83,0,0,0-.378-.976,2.41,2.41,0,0,0-1.89-.624,2.259,2.259,0,0,0-1.358.343,1.074,1.074,0,0,0-.461.905,1.114,1.114,0,0,0,.606.984,3.644,3.644,0,0,0,1.037.387l1.046.255a8.087,8.087,0,0,1,2.285.8,2.118,2.118,0,0,1,.923,1.907,2.906,2.906,0,0,1-.954,2.171,4.059,4.059,0,0,1-2.9.914,3.9,3.9,0,0,1-2.975-.954,3.606,3.606,0,0,1-.936-2.36Zm11.8,1.934a2.182,2.182,0,0,0,2.158-1.191,5.933,5.933,0,0,0,.584-2.65A4.718,4.718,0,0,0,121.731,7a2.373,2.373,0,0,0-2.3-1.3A2.271,2.271,0,0,0,117.319,6.8a5.133,5.133,0,0,0-.659,2.672,4.465,4.465,0,0,0,.659,2.5A2.322,2.322,0,0,0,119.41,12.98Zm.062-8.666a4.262,4.262,0,0,1,3.076,1.213A4.736,4.736,0,0,1,123.8,9.1a6.122,6.122,0,0,1-1.107,3.762,4.006,4.006,0,0,1-3.437,1.485,3.88,3.88,0,0,1-3.085-1.314A5.19,5.19,0,0,1,115.033,9.5a5.615,5.615,0,0,1,1.2-3.779A4.041,4.041,0,0,1,119.472,4.314Zm11.781.773V3.875a6.445,6.445,0,0,0,2.391-.558,2.751,2.751,0,0,0,1.011-1.85H135.9V14h-1.687V5.088Z" transform="translate(534 2545.05)" fill="#0b0a0a"/>
      <path id="Trazado_1017287" data-name="Trazado 1017287" d="M-150.667,2577.108h-25.8v194.434H-144.6" transform="translate(1131.716 -182.117)" fill="none" stroke="#463311" stroke-linecap="round" stroke-width="1"/>
      <path id="Trazado_1017288" data-name="Trazado 1017288" d="M-182.736,2665.671h59.645" transform="translate(1108.194 -187.007)" fill="none" stroke="#463311" stroke-linecap="round" stroke-width="1"/>
      <g transform="matrix(1, 0, 0, 1, 277, 2360.1)" filter="url(#Trazado_1017158-7)">
        <path id="Trazado_1017158-17" data-name="Trazado 1017158" d="M11.8,0H219.428c6.515,0,11.8,3.316,11.8,7.407V50.369c0,4.091-5.282,7.407-11.8,7.407H11.8C5.282,57.776,0,54.459,0,50.369V7.407C0,3.316,5.282,0,11.8,0Z" transform="translate(702 6)" fill="#edae3b"/>
      </g>
      <path id="Parrafo-7" data-name="Parrafo" d="M13.95,9.834a3.528,3.528,0,0,0,.519,1.784A3.437,3.437,0,0,0,17.536,12.9a5.429,5.429,0,0,0,1.793-.281,1.992,1.992,0,0,0,1.564-1.951,1.684,1.684,0,0,0-.659-1.5A6.656,6.656,0,0,0,18.143,8.4l-1.749-.4a7.92,7.92,0,0,1-2.426-.853,2.7,2.7,0,0,1-1.23-2.417,3.722,3.722,0,0,1,1.2-2.856A4.831,4.831,0,0,1,17.352.764a5.923,5.923,0,0,1,3.45.98,3.537,3.537,0,0,1,1.419,3.133H20.577a3.235,3.235,0,0,0-.562-1.591A3.268,3.268,0,0,0,17.3,2.275a3.142,3.142,0,0,0-2.224.65A2.036,2.036,0,0,0,14.4,4.438a1.476,1.476,0,0,0,.791,1.389,11.608,11.608,0,0,0,2.347.7l1.811.413a5.547,5.547,0,0,1,2.021.817,3.061,3.061,0,0,1,1.23,2.628,3.28,3.28,0,0,1-1.56,3.067,6.987,6.987,0,0,1-3.625.923,5.421,5.421,0,0,1-3.771-1.23,4.152,4.152,0,0,1-1.336-3.313ZM26.187,4.587v6.249a2.635,2.635,0,0,0,.229,1.178,1.6,1.6,0,0,0,1.573.844,2.224,2.224,0,0,0,2.25-1.477,5.858,5.858,0,0,0,.325-2.171V4.587h1.582V14H30.651l.018-1.389a3.191,3.191,0,0,1-.765.905,3.365,3.365,0,0,1-2.2.738,2.834,2.834,0,0,1-2.742-1.345,4,4,0,0,1-.4-1.925v-6.4Zm8.307-3.542h1.538V5.729a3.447,3.447,0,0,1,2.8-1.389,3.667,3.667,0,0,1,2.852,1.208,5.148,5.148,0,0,1,1.094,3.564A6.112,6.112,0,0,1,41.7,12.822a3.507,3.507,0,0,1-3,1.477,3.071,3.071,0,0,1-1.811-.519,4.372,4.372,0,0,1-.94-.984V14H34.494ZM38.607,12.9a2.114,2.114,0,0,0,1.92-1.02,5.02,5.02,0,0,0,.637-2.689,4.414,4.414,0,0,0-.637-2.461,2.1,2.1,0,0,0-1.876-.976,2.617,2.617,0,0,0-1.894.8,3.592,3.592,0,0,0-.813,2.637,5.827,5.827,0,0,0,.334,2.153A2.308,2.308,0,0,0,38.607,12.9Zm9.995.035a2.257,2.257,0,0,0,1.841-.927,4.413,4.413,0,0,0,.734-2.773A5.176,5.176,0,0,0,50.852,7.3a2.383,2.383,0,0,0-4.5.088,6.514,6.514,0,0,0-.325,2.232,4.732,4.732,0,0,0,.325,1.854A2.243,2.243,0,0,0,48.6,12.937Zm-4.1-8.306h1.538V5.879a3.84,3.84,0,0,1,1.037-.993,3.338,3.338,0,0,1,1.881-.527,3.537,3.537,0,0,1,2.716,1.226,5.023,5.023,0,0,1,1.116,3.5q0,3.076-1.608,4.395a3.634,3.634,0,0,1-2.373.835,3.221,3.221,0,0,1-1.784-.466,4.111,4.111,0,0,1-.94-.905v4.808H44.507Zm10.18-.044h1.5V6.213a3.592,3.592,0,0,1,.905-1.156,2.347,2.347,0,0,1,1.661-.681q.044,0,.149.009t.36.035V6.09a2.363,2.363,0,0,0-.259-.035q-.119-.009-.259-.009a2.258,2.258,0,0,0-1.837.769,2.684,2.684,0,0,0-.642,1.771V14H54.686Zm9.687,8.394a2.182,2.182,0,0,0,2.158-1.191,5.933,5.933,0,0,0,.584-2.65A4.718,4.718,0,0,0,66.694,7a2.373,2.373,0,0,0-2.3-1.3A2.271,2.271,0,0,0,62.282,6.8a5.133,5.133,0,0,0-.659,2.672,4.465,4.465,0,0,0,.659,2.5A2.322,2.322,0,0,0,64.373,12.98Zm.062-8.666a4.262,4.262,0,0,1,3.076,1.213A4.736,4.736,0,0,1,68.768,9.1a6.122,6.122,0,0,1-1.107,3.762,4.006,4.006,0,0,1-3.437,1.485,3.88,3.88,0,0,1-3.085-1.314A5.19,5.19,0,0,1,60,9.5a5.615,5.615,0,0,1,1.2-3.779A4.041,4.041,0,0,1,64.435,4.314Zm9.846,0a4.1,4.1,0,0,1,2.588.773,3.705,3.705,0,0,1,1.2,2.663H76.531a2.839,2.839,0,0,0-.642-1.446,2.027,2.027,0,0,0-1.608-.576,2.222,2.222,0,0,0-2.162,1.477A5.865,5.865,0,0,0,71.7,9.57a4.449,4.449,0,0,0,.6,2.382,2.317,2.317,0,0,0,3.441.365,3.311,3.311,0,0,0,.8-1.648h1.538a4.129,4.129,0,0,1-1.318,2.738,4.113,4.113,0,0,1-2.7.866,3.6,3.6,0,0,1-2.944-1.349,5.164,5.164,0,0,1-1.1-3.371,5.678,5.678,0,0,1,1.2-3.858A3.891,3.891,0,0,1,74.281,4.314Zm9.292.062a4.294,4.294,0,0,1,1.942.47,3.582,3.582,0,0,1,1.433,1.217,4.2,4.2,0,0,1,.633,1.661A10.868,10.868,0,0,1,87.721,9.8h-6.9a4.026,4.026,0,0,0,.677,2.3,2.266,2.266,0,0,0,1.96.866,2.534,2.534,0,0,0,1.978-.817,2.755,2.755,0,0,0,.6-1.1h1.556A3.276,3.276,0,0,1,87.18,12.2a4.111,4.111,0,0,1-.778,1.042,3.687,3.687,0,0,1-1.784.949,5.42,5.42,0,0,1-1.292.141,3.964,3.964,0,0,1-2.979-1.279,4.976,4.976,0,0,1-1.222-3.582,5.41,5.41,0,0,1,1.23-3.683A4.059,4.059,0,0,1,83.572,4.376Zm2.522,4.166A4.1,4.1,0,0,0,85.647,6.9a2.3,2.3,0,0,0-2.171-1.143,2.406,2.406,0,0,0-1.828.787,2.972,2.972,0,0,0-.782,2Zm4.511,2.5A2.3,2.3,0,0,0,91,12.26a2.485,2.485,0,0,0,2.074.765,3.059,3.059,0,0,0,1.547-.382,1.27,1.27,0,0,0,.668-1.182,1.011,1.011,0,0,0-.536-.923,6.374,6.374,0,0,0-1.354-.448l-1.257-.316A6.131,6.131,0,0,1,90.368,9.1a2,2,0,0,1-1.02-1.775,2.713,2.713,0,0,1,.962-2.162A3.839,3.839,0,0,1,92.9,4.341a3.593,3.593,0,0,1,3.067,1.248,2.708,2.708,0,0,1,.571,1.705H95.044a1.83,1.83,0,0,0-.378-.976,2.41,2.41,0,0,0-1.89-.624,2.259,2.259,0,0,0-1.358.343,1.074,1.074,0,0,0-.461.905,1.114,1.114,0,0,0,.606.984,3.644,3.644,0,0,0,1.037.387l1.046.255a8.087,8.087,0,0,1,2.285.8,2.118,2.118,0,0,1,.923,1.907,2.906,2.906,0,0,1-.954,2.171,4.059,4.059,0,0,1-2.9.914,3.9,3.9,0,0,1-2.975-.954,3.606,3.606,0,0,1-.936-2.36Zm11.8,1.934a2.182,2.182,0,0,0,2.158-1.191,5.933,5.933,0,0,0,.584-2.65A4.718,4.718,0,0,0,104.722,7a2.373,2.373,0,0,0-2.3-1.3A2.271,2.271,0,0,0,100.31,6.8a5.133,5.133,0,0,0-.659,2.672,4.465,4.465,0,0,0,.659,2.5A2.322,2.322,0,0,0,102.4,12.98Zm.062-8.666a4.262,4.262,0,0,1,3.076,1.213A4.736,4.736,0,0,1,106.8,9.1a6.122,6.122,0,0,1-1.107,3.762,4.006,4.006,0,0,1-3.437,1.485,3.88,3.88,0,0,1-3.085-1.314A5.19,5.19,0,0,1,98.025,9.5a5.615,5.615,0,0,1,1.2-3.779A4.041,4.041,0,0,1,102.464,4.314Zm11.781.773V3.875a6.445,6.445,0,0,0,2.391-.558,2.751,2.751,0,0,0,1.011-1.85h1.248V14h-1.687V5.088Zm9.828,7h1.837V14h-1.837Zm5.187-7V3.875a6.445,6.445,0,0,0,2.391-.558,2.751,2.751,0,0,0,1.011-1.85h1.248V14h-1.687V5.088Zm9.828,7h1.837V14h-1.837Zm5.187-7V3.875a6.445,6.445,0,0,0,2.391-.558,2.751,2.751,0,0,0,1.011-1.85h1.248V14h-1.687V5.088Z" transform="translate(1012 2383.103)" fill="#0b0a0a"/>
      <g transform="matrix(1, 0, 0, 1, 277, 2360.1)" filter="url(#Trazado_1017158-8)">
        <path id="Trazado_1017158-18" data-name="Trazado 1017158" d="M11.8,0H219.428c6.515,0,11.8,3.316,11.8,7.407V50.369c0,4.091-5.282,7.407-11.8,7.407H11.8C5.282,57.776,0,54.459,0,50.369V7.407C0,3.316,5.282,0,11.8,0Z" transform="translate(702 89.12)" fill="#edae3b"/>
      </g>
      <path id="Parrafo-8" data-name="Parrafo" d="M9.95,9.834a3.528,3.528,0,0,0,.519,1.784A3.437,3.437,0,0,0,13.536,12.9a5.429,5.429,0,0,0,1.793-.281,1.992,1.992,0,0,0,1.564-1.951,1.684,1.684,0,0,0-.659-1.5A6.656,6.656,0,0,0,14.143,8.4l-1.749-.4a7.92,7.92,0,0,1-2.426-.853,2.7,2.7,0,0,1-1.23-2.417,3.722,3.722,0,0,1,1.2-2.856A4.831,4.831,0,0,1,13.352.764a5.923,5.923,0,0,1,3.45.98,3.537,3.537,0,0,1,1.419,3.133H16.577a3.235,3.235,0,0,0-.562-1.591A3.268,3.268,0,0,0,13.3,2.275a3.142,3.142,0,0,0-2.224.65A2.036,2.036,0,0,0,10.4,4.438a1.476,1.476,0,0,0,.791,1.389,11.608,11.608,0,0,0,2.347.7l1.811.413a5.547,5.547,0,0,1,2.021.817,3.061,3.061,0,0,1,1.23,2.628,3.28,3.28,0,0,1-1.56,3.067,6.987,6.987,0,0,1-3.625.923,5.421,5.421,0,0,1-3.771-1.23A4.152,4.152,0,0,1,8.307,9.834ZM22.187,4.587v6.249a2.635,2.635,0,0,0,.229,1.178,1.6,1.6,0,0,0,1.573.844,2.224,2.224,0,0,0,2.25-1.477,5.858,5.858,0,0,0,.325-2.171V4.587h1.582V14H26.651l.018-1.389a3.191,3.191,0,0,1-.765.905,3.365,3.365,0,0,1-2.2.738,2.834,2.834,0,0,1-2.742-1.345,4,4,0,0,1-.4-1.925v-6.4Zm8.307-3.542h1.538V5.729a3.447,3.447,0,0,1,2.8-1.389,3.667,3.667,0,0,1,2.852,1.208,5.148,5.148,0,0,1,1.094,3.564A6.112,6.112,0,0,1,37.7,12.822a3.507,3.507,0,0,1-3,1.477,3.071,3.071,0,0,1-1.811-.519,4.372,4.372,0,0,1-.94-.984V14H30.494ZM34.607,12.9a2.114,2.114,0,0,0,1.92-1.02,5.02,5.02,0,0,0,.637-2.689,4.414,4.414,0,0,0-.637-2.461,2.1,2.1,0,0,0-1.876-.976,2.617,2.617,0,0,0-1.894.8,3.592,3.592,0,0,0-.813,2.637,5.827,5.827,0,0,0,.334,2.153A2.308,2.308,0,0,0,34.607,12.9Zm9.995.035a2.257,2.257,0,0,0,1.841-.927,4.413,4.413,0,0,0,.734-2.773A5.176,5.176,0,0,0,46.852,7.3a2.383,2.383,0,0,0-4.5.088,6.514,6.514,0,0,0-.325,2.232,4.732,4.732,0,0,0,.325,1.854A2.243,2.243,0,0,0,44.6,12.937Zm-4.1-8.306h1.538V5.879a3.84,3.84,0,0,1,1.037-.993,3.338,3.338,0,0,1,1.881-.527,3.537,3.537,0,0,1,2.716,1.226,5.023,5.023,0,0,1,1.116,3.5q0,3.076-1.608,4.395a3.634,3.634,0,0,1-2.373.835,3.221,3.221,0,0,1-1.784-.466,4.111,4.111,0,0,1-.94-.905v4.808H40.507Zm10.18-.044h1.5V6.213a3.592,3.592,0,0,1,.905-1.156,2.347,2.347,0,0,1,1.661-.681q.044,0,.149.009t.36.035V6.09a2.363,2.363,0,0,0-.259-.035q-.119-.009-.259-.009a2.258,2.258,0,0,0-1.837.769,2.684,2.684,0,0,0-.642,1.771V14H50.686Zm9.687,8.394a2.182,2.182,0,0,0,2.158-1.191,5.933,5.933,0,0,0,.584-2.65A4.718,4.718,0,0,0,62.694,7a2.373,2.373,0,0,0-2.3-1.3A2.271,2.271,0,0,0,58.282,6.8a5.133,5.133,0,0,0-.659,2.672,4.465,4.465,0,0,0,.659,2.5A2.322,2.322,0,0,0,60.373,12.98Zm.062-8.666a4.262,4.262,0,0,1,3.076,1.213A4.736,4.736,0,0,1,64.768,9.1a6.122,6.122,0,0,1-1.107,3.762,4.006,4.006,0,0,1-3.437,1.485,3.88,3.88,0,0,1-3.085-1.314A5.19,5.19,0,0,1,56,9.5a5.615,5.615,0,0,1,1.2-3.779A4.041,4.041,0,0,1,60.435,4.314Zm9.846,0a4.1,4.1,0,0,1,2.588.773,3.705,3.705,0,0,1,1.2,2.663H72.531a2.839,2.839,0,0,0-.642-1.446,2.027,2.027,0,0,0-1.608-.576,2.222,2.222,0,0,0-2.162,1.477A5.865,5.865,0,0,0,67.7,9.57a4.449,4.449,0,0,0,.6,2.382,2.317,2.317,0,0,0,3.441.365,3.311,3.311,0,0,0,.8-1.648h1.538a4.129,4.129,0,0,1-1.318,2.738,4.113,4.113,0,0,1-2.7.866,3.6,3.6,0,0,1-2.944-1.349,5.164,5.164,0,0,1-1.1-3.371,5.678,5.678,0,0,1,1.2-3.858A3.891,3.891,0,0,1,70.281,4.314Zm9.292.062a4.294,4.294,0,0,1,1.942.47,3.582,3.582,0,0,1,1.433,1.217,4.2,4.2,0,0,1,.633,1.661A10.868,10.868,0,0,1,83.721,9.8h-6.9a4.026,4.026,0,0,0,.677,2.3,2.266,2.266,0,0,0,1.96.866,2.534,2.534,0,0,0,1.978-.817,2.755,2.755,0,0,0,.6-1.1h1.556A3.276,3.276,0,0,1,83.18,12.2a4.111,4.111,0,0,1-.778,1.042,3.687,3.687,0,0,1-1.784.949,5.42,5.42,0,0,1-1.292.141,3.964,3.964,0,0,1-2.979-1.279,4.976,4.976,0,0,1-1.222-3.582,5.41,5.41,0,0,1,1.23-3.683A4.059,4.059,0,0,1,79.572,4.376Zm2.522,4.166A4.1,4.1,0,0,0,81.647,6.9a2.3,2.3,0,0,0-2.171-1.143,2.406,2.406,0,0,0-1.828.787,2.972,2.972,0,0,0-.782,2Zm4.511,2.5A2.3,2.3,0,0,0,87,12.26a2.485,2.485,0,0,0,2.074.765,3.059,3.059,0,0,0,1.547-.382,1.27,1.27,0,0,0,.668-1.182,1.011,1.011,0,0,0-.536-.923,6.374,6.374,0,0,0-1.354-.448l-1.257-.316A6.131,6.131,0,0,1,86.368,9.1a2,2,0,0,1-1.02-1.775,2.713,2.713,0,0,1,.962-2.162A3.839,3.839,0,0,1,88.9,4.341a3.593,3.593,0,0,1,3.067,1.248,2.708,2.708,0,0,1,.571,1.705H91.044a1.83,1.83,0,0,0-.378-.976,2.41,2.41,0,0,0-1.89-.624,2.259,2.259,0,0,0-1.358.343,1.074,1.074,0,0,0-.461.905,1.114,1.114,0,0,0,.606.984,3.644,3.644,0,0,0,1.037.387l1.046.255a8.087,8.087,0,0,1,2.285.8,2.118,2.118,0,0,1,.923,1.907,2.906,2.906,0,0,1-.954,2.171,4.059,4.059,0,0,1-2.9.914,3.9,3.9,0,0,1-2.975-.954,3.606,3.606,0,0,1-.936-2.36ZM98.4,12.98a2.182,2.182,0,0,0,2.158-1.191,5.933,5.933,0,0,0,.584-2.65A4.718,4.718,0,0,0,100.722,7a2.373,2.373,0,0,0-2.3-1.3A2.271,2.271,0,0,0,96.31,6.8a5.133,5.133,0,0,0-.659,2.672,4.465,4.465,0,0,0,.659,2.5A2.322,2.322,0,0,0,98.4,12.98Zm.062-8.666a4.262,4.262,0,0,1,3.076,1.213A4.736,4.736,0,0,1,102.8,9.1a6.122,6.122,0,0,1-1.107,3.762,4.006,4.006,0,0,1-3.437,1.485,3.88,3.88,0,0,1-3.085-1.314A5.19,5.19,0,0,1,94.025,9.5a5.615,5.615,0,0,1,1.2-3.779A4.041,4.041,0,0,1,98.464,4.314Zm11.781.773V3.875a6.445,6.445,0,0,0,2.391-.558,2.751,2.751,0,0,0,1.011-1.85h1.248V14h-1.687V5.088Zm9.828,7h1.837V14h-1.837Zm5.187-7V3.875a6.445,6.445,0,0,0,2.391-.558,2.751,2.751,0,0,0,1.011-1.85h1.248V14h-1.687V5.088Zm9.828,7h1.837V14h-1.837ZM139.115,14a7.34,7.34,0,0,1,.672-2.83,5.443,5.443,0,0,1,2.281-2.188l1.688-.976a7.945,7.945,0,0,0,1.591-1.125,2.311,2.311,0,0,0,.721-1.67,2.331,2.331,0,0,0-.659-1.745,2.4,2.4,0,0,0-1.758-.646,2.3,2.3,0,0,0-2.25,1.23,4.405,4.405,0,0,0-.369,1.828h-1.608a5.649,5.649,0,0,1,.606-2.681,3.806,3.806,0,0,1,3.63-1.828,3.934,3.934,0,0,1,3.16,1.169,3.911,3.911,0,0,1,1,2.6,3.537,3.537,0,0,1-1.063,2.584,10.412,10.412,0,0,1-2.206,1.512l-1.2.668a7.8,7.8,0,0,0-1.354.905,3.3,3.3,0,0,0-1.107,1.7h6.873V14Z" transform="translate(1016 2466.225)" fill="#0b0a0a"/>
      <g transform="matrix(1, 0, 0, 1, 277, 2360.1)" filter="url(#Trazado_1017158-9)">
        <path id="Trazado_1017158-19" data-name="Trazado 1017158" d="M11.8,0H219.428c6.515,0,11.8,3.316,11.8,7.407V50.369c0,4.091-5.282,7.407-11.8,7.407H11.8C5.282,57.776,0,54.459,0,50.369V7.407C0,3.316,5.282,0,11.8,0Z" transform="translate(702 200.43)" fill="#edae3b"/>
      </g>
      <path id="Parrafo-9" data-name="Parrafo" d="M12.53,9.834a3.528,3.528,0,0,0,.519,1.784A3.437,3.437,0,0,0,16.116,12.9a5.429,5.429,0,0,0,1.793-.281,1.992,1.992,0,0,0,1.564-1.951,1.684,1.684,0,0,0-.659-1.5A6.656,6.656,0,0,0,16.722,8.4l-1.749-.4a7.92,7.92,0,0,1-2.426-.853,2.7,2.7,0,0,1-1.23-2.417,3.722,3.722,0,0,1,1.2-2.856A4.831,4.831,0,0,1,15.931.764a5.923,5.923,0,0,1,3.45.98A3.537,3.537,0,0,1,20.8,4.877H19.157a3.235,3.235,0,0,0-.562-1.591,3.268,3.268,0,0,0-2.716-1.011,3.142,3.142,0,0,0-2.224.65,2.036,2.036,0,0,0-.677,1.512,1.476,1.476,0,0,0,.791,1.389,11.608,11.608,0,0,0,2.347.7l1.811.413a5.547,5.547,0,0,1,2.021.817,3.061,3.061,0,0,1,1.23,2.628,3.28,3.28,0,0,1-1.56,3.067,6.987,6.987,0,0,1-3.625.923,5.421,5.421,0,0,1-3.771-1.23,4.152,4.152,0,0,1-1.336-3.313ZM24.766,4.587v6.249a2.635,2.635,0,0,0,.229,1.178,1.6,1.6,0,0,0,1.573.844,2.224,2.224,0,0,0,2.25-1.477,5.858,5.858,0,0,0,.325-2.171V4.587h1.582V14H29.231l.018-1.389a3.191,3.191,0,0,1-.765.905,3.365,3.365,0,0,1-2.2.738,2.834,2.834,0,0,1-2.742-1.345,4,4,0,0,1-.4-1.925v-6.4Zm8.307-3.542h1.538V5.729a3.447,3.447,0,0,1,2.8-1.389,3.667,3.667,0,0,1,2.852,1.208,5.148,5.148,0,0,1,1.094,3.564,6.112,6.112,0,0,1-1.081,3.709,3.507,3.507,0,0,1-3,1.477,3.071,3.071,0,0,1-1.811-.519,4.372,4.372,0,0,1-.94-.984V14H33.073ZM37.187,12.9a2.114,2.114,0,0,0,1.92-1.02,5.02,5.02,0,0,0,.637-2.689,4.414,4.414,0,0,0-.637-2.461,2.1,2.1,0,0,0-1.876-.976,2.617,2.617,0,0,0-1.894.8,3.592,3.592,0,0,0-.813,2.637,5.827,5.827,0,0,0,.334,2.153A2.308,2.308,0,0,0,37.187,12.9Zm9.995.035a2.257,2.257,0,0,0,1.841-.927,4.413,4.413,0,0,0,.734-2.773A5.176,5.176,0,0,0,49.432,7.3a2.383,2.383,0,0,0-4.5.088,6.514,6.514,0,0,0-.325,2.232,4.732,4.732,0,0,0,.325,1.854A2.243,2.243,0,0,0,47.182,12.937Zm-4.1-8.306h1.538V5.879a3.84,3.84,0,0,1,1.037-.993,3.338,3.338,0,0,1,1.881-.527,3.537,3.537,0,0,1,2.716,1.226,5.023,5.023,0,0,1,1.116,3.5q0,3.076-1.608,4.395a3.634,3.634,0,0,1-2.373.835,3.221,3.221,0,0,1-1.784-.466,4.111,4.111,0,0,1-.94-.905v4.808H43.086Zm10.18-.044h1.5V6.213a3.592,3.592,0,0,1,.905-1.156,2.347,2.347,0,0,1,1.661-.681q.044,0,.149.009t.36.035V6.09a2.363,2.363,0,0,0-.259-.035q-.119-.009-.259-.009a2.258,2.258,0,0,0-1.837.769,2.684,2.684,0,0,0-.642,1.771V14H53.265Zm9.687,8.394a2.182,2.182,0,0,0,2.158-1.191,5.933,5.933,0,0,0,.584-2.65A4.718,4.718,0,0,0,65.273,7a2.373,2.373,0,0,0-2.3-1.3A2.271,2.271,0,0,0,60.861,6.8,5.133,5.133,0,0,0,60.2,9.474a4.465,4.465,0,0,0,.659,2.5A2.322,2.322,0,0,0,62.953,12.98Zm.062-8.666A4.262,4.262,0,0,1,66.09,5.527,4.736,4.736,0,0,1,67.347,9.1a6.122,6.122,0,0,1-1.107,3.762A4.006,4.006,0,0,1,62.8,14.343a3.88,3.88,0,0,1-3.085-1.314A5.19,5.19,0,0,1,58.576,9.5a5.615,5.615,0,0,1,1.2-3.779A4.041,4.041,0,0,1,63.014,4.314Zm9.846,0a4.1,4.1,0,0,1,2.588.773,3.705,3.705,0,0,1,1.2,2.663H75.11a2.839,2.839,0,0,0-.642-1.446,2.027,2.027,0,0,0-1.608-.576A2.222,2.222,0,0,0,70.7,7.206a5.865,5.865,0,0,0-.422,2.364,4.449,4.449,0,0,0,.6,2.382,2.317,2.317,0,0,0,3.441.365,3.311,3.311,0,0,0,.8-1.648h1.538a4.129,4.129,0,0,1-1.318,2.738,4.113,4.113,0,0,1-2.7.866,3.6,3.6,0,0,1-2.944-1.349,5.164,5.164,0,0,1-1.1-3.371,5.678,5.678,0,0,1,1.2-3.858A3.891,3.891,0,0,1,72.86,4.314Zm9.292.062a4.294,4.294,0,0,1,1.942.47,3.582,3.582,0,0,1,1.433,1.217,4.2,4.2,0,0,1,.633,1.661A10.868,10.868,0,0,1,86.3,9.8H79.4a4.026,4.026,0,0,0,.677,2.3,2.266,2.266,0,0,0,1.96.866,2.534,2.534,0,0,0,1.978-.817,2.755,2.755,0,0,0,.6-1.1h1.556A3.276,3.276,0,0,1,85.76,12.2a4.111,4.111,0,0,1-.778,1.042,3.687,3.687,0,0,1-1.784.949,5.42,5.42,0,0,1-1.292.141,3.964,3.964,0,0,1-2.979-1.279A4.976,4.976,0,0,1,77.7,9.474a5.41,5.41,0,0,1,1.23-3.683A4.059,4.059,0,0,1,82.152,4.376Zm2.522,4.166A4.1,4.1,0,0,0,84.226,6.9a2.3,2.3,0,0,0-2.171-1.143,2.406,2.406,0,0,0-1.828.787,2.972,2.972,0,0,0-.782,2Zm4.511,2.5a2.3,2.3,0,0,0,.4,1.213,2.485,2.485,0,0,0,2.074.765,3.059,3.059,0,0,0,1.547-.382,1.27,1.27,0,0,0,.668-1.182,1.011,1.011,0,0,0-.536-.923,6.374,6.374,0,0,0-1.354-.448l-1.257-.316A6.131,6.131,0,0,1,88.947,9.1a2,2,0,0,1-1.02-1.775,2.713,2.713,0,0,1,.962-2.162,3.839,3.839,0,0,1,2.588-.826,3.593,3.593,0,0,1,3.067,1.248,2.708,2.708,0,0,1,.571,1.705H93.623a1.83,1.83,0,0,0-.378-.976,2.41,2.41,0,0,0-1.89-.624A2.259,2.259,0,0,0,90,6.037a1.074,1.074,0,0,0-.461.905,1.114,1.114,0,0,0,.606.984,3.644,3.644,0,0,0,1.037.387l1.046.255a8.087,8.087,0,0,1,2.285.8,2.118,2.118,0,0,1,.923,1.907,2.906,2.906,0,0,1-.954,2.171,4.059,4.059,0,0,1-2.9.914,3.9,3.9,0,0,1-2.975-.954,3.606,3.606,0,0,1-.936-2.36Zm11.8,1.934a2.182,2.182,0,0,0,2.158-1.191,5.933,5.933,0,0,0,.584-2.65A4.718,4.718,0,0,0,103.3,7a2.373,2.373,0,0,0-2.3-1.3A2.271,2.271,0,0,0,98.89,6.8a5.133,5.133,0,0,0-.659,2.672,4.465,4.465,0,0,0,.659,2.5A2.322,2.322,0,0,0,100.981,12.98Zm.062-8.666a4.262,4.262,0,0,1,3.076,1.213A4.736,4.736,0,0,1,105.376,9.1a6.122,6.122,0,0,1-1.107,3.762,4.006,4.006,0,0,1-3.437,1.485,3.88,3.88,0,0,1-3.085-1.314A5.19,5.19,0,0,1,96.6,9.5a5.615,5.615,0,0,1,1.2-3.779A4.041,4.041,0,0,1,101.043,4.314Zm11.781.773V3.875a6.445,6.445,0,0,0,2.391-.558,2.751,2.751,0,0,0,1.011-1.85h1.248V14h-1.687V5.088Zm9.828,7h1.837V14h-1.837Zm5.187-7V3.875a6.445,6.445,0,0,0,2.391-.558,2.751,2.751,0,0,0,1.011-1.85h1.248V14H130.8V5.088Zm9.828,7H139.5V14h-1.837Zm3.728-7.5h2.048L145.606,7.9l2.188-3.313,1.925.044-3.173,4.544L149.859,14h-2.021L145.5,10.467,143.233,14h-2l3.313-4.825Z" transform="translate(1014 2577.537)" fill="#0b0a0a"/>
      <g transform="matrix(1, 0, 0, 1, 277, 2360.1)" filter="url(#Trazado_1017158-10)">
        <path id="Trazado_1017158-20" data-name="Trazado 1017158" d="M8.722,0h153.5c4.817,0,8.722,3.316,8.722,7.407V50.369c0,4.091-3.9,7.407-8.722,7.407H8.722C3.9,57.776,0,54.459,0,50.369V7.407C0,3.316,3.9,0,8.722,0Z" transform="translate(480 89.51)" fill="#edae3b"/>
      </g>
      <path id="Parrafo-10" data-name="Parrafo" d="M3.5,1.089h5.81a3.938,3.938,0,0,1,2.777.971,3.524,3.524,0,0,1,1.055,2.729,3.968,3.968,0,0,1-.94,2.632A3.563,3.563,0,0,1,9.311,8.542H5.25V14H3.5ZM11.376,4.8a1.943,1.943,0,0,0-1.055-1.934,3.808,3.808,0,0,0-1.591-.272H5.25V7.065h3.48a3.326,3.326,0,0,0,1.912-.5A1.985,1.985,0,0,0,11.376,4.8Zm3.8-.211h1.5V6.213a3.592,3.592,0,0,1,.905-1.156,2.347,2.347,0,0,1,1.661-.681q.044,0,.149.009t.36.035V6.09a2.363,2.363,0,0,0-.259-.035q-.119-.009-.259-.009a2.258,2.258,0,0,0-1.837.769,2.684,2.684,0,0,0-.642,1.771V14H15.175Zm9.687,8.394A2.182,2.182,0,0,0,27.02,11.79,5.933,5.933,0,0,0,27.6,9.14,4.718,4.718,0,0,0,27.183,7a2.373,2.373,0,0,0-2.3-1.3A2.271,2.271,0,0,0,22.77,6.8a5.133,5.133,0,0,0-.659,2.672,4.465,4.465,0,0,0,.659,2.5A2.322,2.322,0,0,0,24.862,12.98Zm.062-8.666A4.262,4.262,0,0,1,28,5.527,4.736,4.736,0,0,1,29.257,9.1a6.122,6.122,0,0,1-1.107,3.762,4.006,4.006,0,0,1-3.437,1.485,3.88,3.88,0,0,1-3.085-1.314A5.19,5.19,0,0,1,20.485,9.5a5.615,5.615,0,0,1,1.2-3.779A4.041,4.041,0,0,1,24.924,4.314Zm9.846,0a4.1,4.1,0,0,1,2.588.773,3.705,3.705,0,0,1,1.2,2.663H37.019a2.839,2.839,0,0,0-.642-1.446,2.027,2.027,0,0,0-1.608-.576,2.222,2.222,0,0,0-2.162,1.477,5.865,5.865,0,0,0-.422,2.364,4.449,4.449,0,0,0,.6,2.382,2.317,2.317,0,0,0,3.441.365,3.311,3.311,0,0,0,.8-1.648h1.538a4.129,4.129,0,0,1-1.318,2.738,4.113,4.113,0,0,1-2.7.866A3.6,3.6,0,0,1,31.6,12.923a5.164,5.164,0,0,1-1.1-3.371,5.678,5.678,0,0,1,1.2-3.858A3.891,3.891,0,0,1,34.769,4.314Zm9.292.062A4.294,4.294,0,0,1,46,4.846a3.582,3.582,0,0,1,1.433,1.217,4.2,4.2,0,0,1,.633,1.661A10.868,10.868,0,0,1,48.21,9.8h-6.9a4.026,4.026,0,0,0,.677,2.3,2.266,2.266,0,0,0,1.96.866,2.534,2.534,0,0,0,1.978-.817,2.755,2.755,0,0,0,.6-1.1h1.556a3.276,3.276,0,0,1-.409,1.156,4.111,4.111,0,0,1-.778,1.042,3.687,3.687,0,0,1-1.784.949,5.42,5.42,0,0,1-1.292.141,3.964,3.964,0,0,1-2.979-1.279,4.976,4.976,0,0,1-1.222-3.582,5.41,5.41,0,0,1,1.23-3.683A4.059,4.059,0,0,1,44.061,4.376Zm2.522,4.166A4.1,4.1,0,0,0,46.135,6.9a2.3,2.3,0,0,0-2.171-1.143,2.406,2.406,0,0,0-1.828.787,2.972,2.972,0,0,0-.782,2Zm4.511,2.5a2.3,2.3,0,0,0,.4,1.213,2.485,2.485,0,0,0,2.074.765,3.059,3.059,0,0,0,1.547-.382,1.27,1.27,0,0,0,.668-1.182,1.011,1.011,0,0,0-.536-.923,6.374,6.374,0,0,0-1.354-.448l-1.257-.316A6.131,6.131,0,0,1,50.857,9.1a2,2,0,0,1-1.02-1.775A2.713,2.713,0,0,1,50.8,5.167a3.839,3.839,0,0,1,2.588-.826,3.593,3.593,0,0,1,3.067,1.248,2.708,2.708,0,0,1,.571,1.705H55.533a1.83,1.83,0,0,0-.378-.976,2.41,2.41,0,0,0-1.89-.624,2.259,2.259,0,0,0-1.358.343,1.074,1.074,0,0,0-.461.905,1.114,1.114,0,0,0,.606.984,3.644,3.644,0,0,0,1.037.387l1.046.255a8.087,8.087,0,0,1,2.285.8,2.118,2.118,0,0,1,.923,1.907,2.906,2.906,0,0,1-.954,2.171,4.059,4.059,0,0,1-2.9.914,3.9,3.9,0,0,1-2.975-.954,3.606,3.606,0,0,1-.936-2.36Zm11.8,1.934a2.182,2.182,0,0,0,2.158-1.191,5.933,5.933,0,0,0,.584-2.65A4.718,4.718,0,0,0,65.211,7a2.373,2.373,0,0,0-2.3-1.3A2.271,2.271,0,0,0,60.8,6.8a5.133,5.133,0,0,0-.659,2.672,4.465,4.465,0,0,0,.659,2.5A2.322,2.322,0,0,0,62.891,12.98Zm.062-8.666a4.262,4.262,0,0,1,3.076,1.213A4.736,4.736,0,0,1,67.285,9.1a6.122,6.122,0,0,1-1.107,3.762,4.006,4.006,0,0,1-3.437,1.485,3.88,3.88,0,0,1-3.085-1.314A5.19,5.19,0,0,1,58.514,9.5a5.615,5.615,0,0,1,1.2-3.779A4.041,4.041,0,0,1,62.952,4.314Zm11.781.773V3.875a6.445,6.445,0,0,0,2.391-.558,2.751,2.751,0,0,0,1.011-1.85h1.248V14H77.7V5.088Zm9.828,7H86.4V14H84.561Zm5.187-7V3.875a6.445,6.445,0,0,0,2.391-.558,2.751,2.751,0,0,0,1.011-1.85H94.4V14H92.711V5.088Z" transform="translate(793 2466.612)" fill="#0b0a0a"/>
    </g>
  </g>
</svg>
