<svg xmlns="http://www.w3.org/2000/svg" xmlns:xlink="http://www.w3.org/1999/xlink" width="110" height="110" viewBox="0 0 110 110">
  <defs>
    <filter id="Trazado_982547" x="0" y="0" width="110" height="110" filterUnits="userSpaceOnUse">
      <feOffset dy="3" input="SourceAlpha"/>
      <feGaussianBlur stdDeviation="3" result="blur"/>
      <feFlood flood-opacity="0.161"/>
      <feComposite operator="in" in2="blur"/>
      <feComposite in="SourceGraphic"/>
    </filter>
  </defs>
  <g id="Grupo_1174591" data-name="Grupo 1174591" transform="translate(-7154 -1633)">
    <g id="Grupo_1174588" data-name="Grupo 1174588">
      <g id="Grupo_1173053" data-name="Grupo 1173053" transform="translate(6039 -4558)">
        <g id="Grupo_1172120" data-name="Grupo 1172120" transform="translate(0 5368)">
          <g id="Grupo_1171416" data-name="Grupo 1171416" transform="translate(-0.701 -6107)">
            <g id="Grupo_1163803" data-name="Grupo 1163803" transform="translate(-0.494 2285.316)">
              <g id="Grupo_1163015" data-name="Grupo 1163015" transform="translate(1.195 305.685)">
                <g id="Grupo_1157017" data-name="Grupo 1157017" transform="translate(0 3549)">
                  <g id="Grupo_1155793" data-name="Grupo 1155793" transform="translate(-0.999 -3894)">
                    <g id="Grupo_1154704" data-name="Grupo 1154704" transform="translate(0 1466)">
                      <g id="Grupo_1150790" data-name="Grupo 1150790" transform="translate(3 2320)">
                        <g id="Grupo_1154214" data-name="Grupo 1154214" transform="translate(79 -5809)">
                          <g id="Grupo_1152583" data-name="Grupo 1152583" transform="translate(1043 6713)">
                            <g id="Grupo_1146973" data-name="Grupo 1146973" transform="translate(0 0)">
                              <g id="Grupo_1146954" data-name="Grupo 1146954">
                                <g transform="matrix(1, 0, 0, 1, -9, -6)" filter="url(#Trazado_982547)">
                                  <g id="Trazado_982547-2" data-name="Trazado 982547" transform="translate(9 6)" fill="#f2f7f5">
                                    <path d="M 46 90.49987030029297 C 39.99187850952148 90.49987030029297 34.16426849365234 89.32350921630859 28.67905426025391 87.00345611572266 C 23.38019943237305 84.76224517822266 18.62104034423828 81.55341339111328 14.53374671936035 77.46613311767578 C 10.44646644592285 73.37885284423828 7.237639904022217 68.61969757080078 4.996413230895996 63.32085418701172 C 2.676359891891479 57.83565521240234 1.5 52.008056640625 1.5 45.99993515014648 C 1.5 39.99181365966797 2.676359891891479 34.16421508789062 4.996413230895996 28.67901420593262 C 7.237639904022217 23.38017463684082 10.44646644592285 18.62101554870605 14.53374671936035 14.53373527526855 C 18.62104034423828 10.44645500183105 23.38019943237305 7.23762845993042 28.67905426025391 4.996415138244629 C 34.16426849365234 2.676361799240112 39.99187850952148 1.500001788139343 46 1.500001788139343 C 52.00812149047852 1.500001788139343 57.83573150634766 2.676361799240112 63.32094573974609 4.996415138244629 C 68.61979675292969 7.23762845993042 73.37895965576172 10.44645500183105 77.46625518798828 14.53373527526855 C 81.55353546142578 18.62101554870605 84.76235961914062 23.38017463684082 87.00358581542969 28.67901420593262 C 89.32363891601562 34.16421508789062 90.5 39.99181365966797 90.5 45.99993515014648 C 90.5 52.008056640625 89.32363891601562 57.83565521240234 87.00358581542969 63.32085418701172 C 84.76235961914062 68.61969757080078 81.55353546142578 73.37885284423828 77.46625518798828 77.46613311767578 C 73.37895965576172 81.55341339111328 68.61979675292969 84.76224517822266 63.32094573974609 87.00345611572266 C 57.83573150634766 89.32350921630859 52.00812149047852 90.49987030029297 46 90.49987030029297 Z" stroke="none"/>
                                    <path d="M 46 2.999992370605469 C 40.1937141418457 2.999992370605469 34.56269836425781 4.136489868164062 29.26337051391602 6.377906799316406 C 24.14332580566406 8.543502807617188 19.54441070556641 11.64437866210938 15.59439849853516 15.59437561035156 C 11.64440155029297 19.54439544677734 8.54351806640625 24.14329528808594 6.377914428710938 29.26333618164062 C 4.136497497558594 34.56264877319336 3 40.19366455078125 3 45.99993515014648 C 3 51.80620574951172 4.136497497558594 57.43720626831055 6.377914428710938 62.73651885986328 C 8.54351806640625 67.8565673828125 11.64440155029297 72.45545959472656 15.59439849853516 76.40547943115234 C 19.54441070556641 80.35547637939453 24.14332580566406 83.45635223388672 29.26337051391602 85.6219482421875 C 34.56269836425781 87.86336517333984 40.1937141418457 88.99986267089844 46 88.99986267089844 C 51.8062858581543 88.99986267089844 57.43730163574219 87.86336517333984 62.73661422729492 85.6219482421875 C 67.85667419433594 83.45635223388672 72.45557403564453 80.35547637939453 76.40558624267578 76.40547943115234 C 80.35559844970703 72.45545959472656 83.45647430419922 67.8565673828125 85.6220703125 62.73651885986328 C 87.86350250244141 57.43720626831055 89 51.80620574951172 89 45.99993515014648 C 89 40.19366455078125 87.86350250244141 34.56264877319336 85.6220703125 29.26333618164062 C 83.45647430419922 24.14329528808594 80.35559844970703 19.54439544677734 76.40558624267578 15.59437561035156 C 72.45557403564453 11.64437866210938 67.85667419433594 8.543502807617188 62.73661422729492 6.377906799316406 C 57.43730163574219 4.136489868164062 51.8062858581543 2.999992370605469 46 2.999992370605469 M 46 -7.62939453125e-06 C 71.40509033203125 -7.62939453125e-06 92 20.59486389160156 92 45.99993515014648 C 92 71.40499114990234 71.40509033203125 91.99986267089844 46 91.99986267089844 C 20.59490203857422 91.99986267089844 0 71.40499114990234 0 45.99993515014648 C 0 20.59486389160156 20.59490203857422 -7.62939453125e-06 46 -7.62939453125e-06 Z" stroke="none" fill="#88bba9"/>
                                  </g>
                                </g>
                              </g>
                            </g>
                          </g>
                        </g>
                      </g>
                    </g>
                  </g>
                </g>
              </g>
            </g>
          </g>
        </g>
      </g>
    </g>
    <g id="layer1" transform="translate(7181.471 1377.405)">
      <path id="path31585" d="M2.593,283.506H51.185a1.8,1.8,0,0,1,1.8,1.8V317.7a1.8,1.8,0,0,1-1.8,1.8H2.593a1.8,1.8,0,0,1-1.8-1.8V285.306a1.8,1.8,0,0,1,1.8-1.8Z" transform="translate(0.635 6.989)" fill="#e7ebef"/>
      <path id="path31587" d="M1.852,284.565H46.844v25.2H1.852Z" transform="translate(3.176 9.532)" fill="#68b1fc"/>
      <path id="path31591" d="M22.283,301.288s-3.6-3.6-3.6-7.2h-9c0,3.6-3.6,7.2-3.6,7.2Z" transform="translate(13.34 32.4)" fill="#e7ebef"/>
      <path id="path34069-6" d="M49.56,283.506a2.665,2.665,0,0,1,.71,1.8v30.6a2.715,2.715,0,0,1-2.7,2.7H2.575A2.672,2.672,0,0,1,.8,317.907,1.789,1.789,0,0,0,2.579,319.5H51.17a1.8,1.8,0,0,0,1.8-1.8V285.306a1.8,1.8,0,0,0-1.8-1.8Z" transform="translate(0.65 6.989)" fill="#dbe1e7"/>
      <path id="path34071-9" d="M1.852,284.565v25.2h2.7s0,0,0,0v-23.4a.9.9,0,0,1,.9-.9H46.839l.005,0v-.895Z" transform="translate(3.176 9.532)" fill="#4fa4fb"/>
      <path id="path34425-8-37" d="M7.559,294.09a7.229,7.229,0,0,1-.589,2.7h7.316a28.109,28.109,0,0,0,2.373,4.5h3.5s-3.6-3.6-3.6-7.2h-9Z" transform="translate(15.466 32.401)" fill="#dbe1e7"/>
      <path id="path31595" d="M2.91,289.856H40.7v3.6H2.91Z" transform="translate(5.717 22.235)" fill="#fcb860"/>
      <path id="path31597" d="M6.085,309.549h8.1v-27.9h-8.1Z" transform="translate(13.341 2.542)" fill="#68b1fc"/>
      <path id="path31599" d="M11.8,280.86H3.7v30.595h8.1Z" transform="translate(7.623 0.636)" fill="#fc6067"/>
      <path id="path31603" d="M18.946,311.455h-8.1V280.86h8.1Z" transform="translate(24.775 0.637)" fill="#59e78b"/>
      <path id="path31605" d="M16.565,282.448h-8.1v25.2h8.1Z" transform="translate(19.058 4.449)" fill="#fcb860"/>
      <path id="path35027-4" d="M9.105,280.86v27a.9.9,0,0,1-.9.9H4.6a.9.9,0,0,1-.9-.9v3.6h8.1V280.86Z" transform="translate(7.624 0.636)" fill="#fb4f56"/>
      <path id="path35033-9" d="M16.249,280.861v27a.9.9,0,0,1-.9.9h-3.6a.9.9,0,0,1-.9-.9v3.594h8.1V280.861Z" transform="translate(24.776 0.639)" fill="#41e37a"/>
      <path id="path35035-3" d="M13.864,282.448v21.6a.9.9,0,0,1-.9.9H9.36a.9.9,0,0,1-.893-.879v3.58H16.56V282.448Z" transform="translate(19.058 4.449)" fill="#fbb04f"/>
      <path id="path35037-4" d="M11.486,305.951a.9.9,0,0,1-.9.9h-3.6a.9.9,0,0,1-.9-.9v3.6h8.1v-27.9l-2.7,0Z" transform="translate(13.34 2.542)" fill="#4fa4fb"/>
      <path id="path35053-2" d="M38,289.856v1.8a.9.9,0,0,1-.9.9H2.91v.9H40.7v-3.6Z" transform="translate(5.717 22.235)" fill="#fbb04f"/>
      <g id="Grupo_1174590" data-name="Grupo 1174590" transform="translate(11.327 286.896)">
        <path id="path31601" d="M3.7,286.047h8.1v-3.6H3.7Z" transform="translate(-3.704 -282.448)" fill="#e7ebef"/>
        <path id="path31607" d="M18.946,287.21h-8.1v3.6h8.1Z" transform="translate(13.448 -271.014)" fill="#e7ebef"/>
        <path id="path31609" d="M14.184,287.21h-8.1v3.6h8.1Z" transform="translate(2.013 -271.014)" fill="#e7ebef"/>
        <path id="path31689" d="M16.565,284.035h-8.1v3.6h8.1Z" transform="translate(7.73 -278.637)" fill="#e7ebef"/>
      </g>
      <path id="path35031-9" d="M5.292,282.448v3.6h2.7v-3.6Z" transform="translate(11.435 4.449)" fill="#dbe1e7"/>
      <path id="path35045-4" d="M12.435,287.21v3.6h2.7v-3.6Z" transform="translate(28.587 15.882)" fill="#dbe1e7"/>
      <path id="path35047-6" d="M7.673,287.21v3.6h2.7v-3.6Z" transform="translate(17.152 15.882)" fill="#dbe1e7"/>
      <path id="path35049-8" d="M10.054,284.035v3.6h2.7v-3.6Z" transform="translate(22.869 8.259)" fill="#dbe1e7"/>
      <path id="path3032-7" d="M11.326,280.595a.9.9,0,0,0-.9.9v8.1h-7.2a2.714,2.714,0,0,0-2.7,2.7v1.8a.9.9,0,1,0,1.8,0v-1.8a.879.879,0,0,1,.9-.9h7.2v1.8h-5.4a.9.9,0,0,0-.9.9v25.2a.9.9,0,0,0,.9.9H50.021a.9.9,0,0,0,.9-.9V294.1a.9.9,0,0,0-.9-.9h-5.4v-1.8h7.2a.879.879,0,0,1,.9.9v32.394a.879.879,0,0,1-.9.9H3.229a.879.879,0,0,1-.9-.9v-22.5a.9.9,0,1,0-1.8,0v22.5a2.714,2.714,0,0,0,2.7,2.7H22.015a11.805,11.805,0,0,1-2.984,5.4H16.725a.9.9,0,0,0,0,1.8h21.6a.9.9,0,0,0,0-1.8h-2.3A11.782,11.782,0,0,1,33,327.39H51.82a2.714,2.714,0,0,0,2.7-2.7V292.3a2.714,2.714,0,0,0-2.7-2.7h-7.2v-8.1a.9.9,0,0,0-.9-.9h-8.1a.9.9,0,0,0-.905.9V286h-6.3v-1.8a.9.9,0,0,0-.856-.9H20.326v-1.8a.9.9,0,0,0-.9-.9Zm.9,1.8h6.3V286h-6.3Zm24.292,0h6.3v19.8h-6.3Zm-16.2,2.7h6.3v17.1h-6.3Zm-8.1,2.7h6.3v1.8h-6.3Zm16.194,0h6.3v3.6h-6.3Zm-16.194,3.6h6.3v19.795h-6.3Zm16.194,1.8h6.3v1.793h-6.3ZM5.928,295h4.5v16.2H8.63a.9.9,0,0,0-.905.9v3.6a.9.9,0,0,0,.905.9H46.417a.9.9,0,0,0,.9-.9v-3.6a.9.9,0,0,0-.9-.9H44.625V295h4.5v23.4H5.928Zm-4.513,1.787a.9.9,0,0,0-.886.912v.9a.9.9,0,1,0,1.8,0v-.9A.9.9,0,0,0,1.415,296.783Zm27.008.01h6.3v14.4h-6.3ZM20.326,304h6.3v1.793h-6.3Zm16.2,0h6.3v1.793h-6.3Zm-16.2,3.592h6.3v3.6h-6.3Zm16.2,0h6.3v3.6h-6.3Zm-27,5.4h36v1.8h-36Zm16.2,9a.9.9,0,0,0,0,1.8h3.6a.9.9,0,0,0,0-1.8Zm-1.856,5.4h7.322a11.559,11.559,0,0,0,2.494,5.4H21.361a11.354,11.354,0,0,0,2.506-5.4Z" transform="translate(0 0)"/>
    </g>
  </g>
</svg>
