<svg xmlns="http://www.w3.org/2000/svg" xmlns:xlink="http://www.w3.org/1999/xlink" width="110" height="110" viewBox="0 0 110 110">
  <defs>
    <filter id="Trazado_982547" x="0" y="0" width="110" height="110" filterUnits="userSpaceOnUse">
      <feOffset dy="3" input="SourceAlpha"/>
      <feGaussianBlur stdDeviation="3" result="blur"/>
      <feFlood flood-opacity="0.161"/>
      <feComposite operator="in" in2="blur"/>
      <feComposite in="SourceGraphic"/>
    </filter>
  </defs>
  <g id="Grupo_1199813" data-name="Grupo 1199813" transform="translate(-4420 -7678)">
    <g id="Grupo_1173122" data-name="Grupo 1173122" transform="translate(4429 7684)">
      <g id="Grupo_1172181" data-name="Grupo 1172181" transform="translate(0)">
        <g id="Grupo_1171414" data-name="Grupo 1171414">
          <g id="Grupo_1163801" data-name="Grupo 1163801">
            <g id="Grupo_1163014" data-name="Grupo 1163014">
              <g id="Grupo_1157015" data-name="Grupo 1157015" transform="translate(0 0)">
                <g id="Grupo_1155792" data-name="Grupo 1155792">
                  <g id="Grupo_1154703" data-name="Grupo 1154703">
                    <g id="Grupo_1150789" data-name="Grupo 1150789">
                      <g id="Grupo_1154212" data-name="Grupo 1154212">
                        <g id="Grupo_1152583" data-name="Grupo 1152583">
                          <g id="Grupo_1146973" data-name="Grupo 1146973" transform="translate(0 0)">
                            <g id="Grupo_1146954" data-name="Grupo 1146954">
                              <g transform="matrix(1, 0, 0, 1, -9, -6)" filter="url(#Trazado_982547)">
                                <g id="Trazado_982547-2" data-name="Trazado 982547" transform="translate(9 6)" fill="#f2f7f5">
                                  <path d="M 46 90.49987030029297 C 39.99187850952148 90.49987030029297 34.16426849365234 89.32350921630859 28.67905426025391 87.00345611572266 C 23.38019943237305 84.76224517822266 18.62104034423828 81.55341339111328 14.53374671936035 77.46613311767578 C 10.44646644592285 73.37885284423828 7.237639904022217 68.61969757080078 4.996413230895996 63.32085418701172 C 2.676359891891479 57.83565521240234 1.5 52.008056640625 1.5 45.99993515014648 C 1.5 39.99181365966797 2.676359891891479 34.16421508789062 4.996413230895996 28.67901420593262 C 7.237639904022217 23.38017463684082 10.44646644592285 18.62101554870605 14.53374671936035 14.53373527526855 C 18.62104034423828 10.44645500183105 23.38019943237305 7.23762845993042 28.67905426025391 4.996415138244629 C 34.16426849365234 2.676361799240112 39.99187850952148 1.500001788139343 46 1.500001788139343 C 52.00812149047852 1.500001788139343 57.83573150634766 2.676361799240112 63.32094573974609 4.996415138244629 C 68.61979675292969 7.23762845993042 73.37895965576172 10.44645500183105 77.46625518798828 14.53373527526855 C 81.55353546142578 18.62101554870605 84.76235961914062 23.38017463684082 87.00358581542969 28.67901420593262 C 89.32363891601562 34.16421508789062 90.5 39.99181365966797 90.5 45.99993515014648 C 90.5 52.008056640625 89.32363891601562 57.83565521240234 87.00358581542969 63.32085418701172 C 84.76235961914062 68.61969757080078 81.55353546142578 73.37885284423828 77.46625518798828 77.46613311767578 C 73.37895965576172 81.55341339111328 68.61979675292969 84.76224517822266 63.32094573974609 87.00345611572266 C 57.83573150634766 89.32350921630859 52.00812149047852 90.49987030029297 46 90.49987030029297 Z" stroke="none"/>
                                  <path d="M 46 2.999992370605469 C 40.1937141418457 2.999992370605469 34.56269836425781 4.136489868164062 29.26337051391602 6.377906799316406 C 24.14332580566406 8.543502807617188 19.54441070556641 11.64437866210938 15.59439849853516 15.59437561035156 C 11.64440155029297 19.54439544677734 8.54351806640625 24.14329528808594 6.377914428710938 29.26333618164062 C 4.136497497558594 34.56264877319336 3 40.19366455078125 3 45.99993515014648 C 3 51.80620574951172 4.136497497558594 57.43720626831055 6.377914428710938 62.73651885986328 C 8.54351806640625 67.8565673828125 11.64440155029297 72.45545959472656 15.59439849853516 76.40547943115234 C 19.54441070556641 80.35547637939453 24.14332580566406 83.45635223388672 29.26337051391602 85.6219482421875 C 34.56269836425781 87.86336517333984 40.1937141418457 88.99986267089844 46 88.99986267089844 C 51.8062858581543 88.99986267089844 57.43730163574219 87.86336517333984 62.73661422729492 85.6219482421875 C 67.85667419433594 83.45635223388672 72.45557403564453 80.35547637939453 76.40558624267578 76.40547943115234 C 80.35559844970703 72.45545959472656 83.45647430419922 67.8565673828125 85.6220703125 62.73651885986328 C 87.86350250244141 57.43720626831055 89 51.80620574951172 89 45.99993515014648 C 89 40.19366455078125 87.86350250244141 34.56264877319336 85.6220703125 29.26333618164062 C 83.45647430419922 24.14329528808594 80.35559844970703 19.54439544677734 76.40558624267578 15.59437561035156 C 72.45557403564453 11.64437866210938 67.85667419433594 8.543502807617188 62.73661422729492 6.377906799316406 C 57.43730163574219 4.136489868164062 51.8062858581543 2.999992370605469 46 2.999992370605469 M 46 -7.62939453125e-06 C 71.40509033203125 -7.62939453125e-06 92 20.59486389160156 92 45.99993515014648 C 92 71.40499114990234 71.40509033203125 91.99986267089844 46 91.99986267089844 C 20.59490203857422 91.99986267089844 0 71.40499114990234 0 45.99993515014648 C 0 20.59486389160156 20.59490203857422 -7.62939453125e-06 46 -7.62939453125e-06 Z" stroke="none" fill="#88bba9"/>
                                </g>
                              </g>
                            </g>
                          </g>
                        </g>
                      </g>
                    </g>
                  </g>
                </g>
              </g>
            </g>
          </g>
        </g>
      </g>
    </g>
    <g id="Computer-Engineer-Gear-Monitor-Construction" transform="translate(4445 7700)">
      <path id="Trazado_1039074" data-name="Trazado 1039074" d="M49.956,16.756V39.3H3V16.756A3.756,3.756,0,0,1,6.756,13H46.2A3.756,3.756,0,0,1,49.956,16.756Z" transform="translate(-0.061 -0.67)" fill="#5aaae7"/>
      <path id="Trazado_1039075" data-name="Trazado 1039075" d="M49.956,41v3.756A3.756,3.756,0,0,1,46.2,48.513H6.756A3.756,3.756,0,0,1,3,44.756V41Z" transform="translate(-0.061 -2.374)" fill="#c6c5ca"/>
      <path id="Trazado_1039076" data-name="Trazado 1039076" d="M52.026,16.756V28.524c-.16.047-.329.094-.5.141l-.441,3.118H47.33l-.441-3.118a9.2,9.2,0,0,1-2.46-1.024l-2.526,1.9L39.244,26.88l1.9-2.526a9.2,9.2,0,0,1-1.024-2.46L37,21.452V17.7l3.118-.441a8.853,8.853,0,0,1,.977-2.376.381.381,0,0,1,.047-.085L39.8,13h8.471a3.756,3.756,0,0,1,3.756,3.756Z" transform="translate(-2.131 -0.67)" fill="#3d9ae2"/>
      <path id="Trazado_1039077" data-name="Trazado 1039077" d="M56.3,19.528a9.2,9.2,0,0,1-1.024,2.46l1.9,2.526-2.658,2.658-2.526-1.9a.38.38,0,0,1-.085.047,8.853,8.853,0,0,1-2.376.977l-.441,3.118H45.33L44.889,26.3a9.2,9.2,0,0,1-2.46-1.024l-2.526,1.9-2.658-2.658,1.9-2.526a9.2,9.2,0,0,1-1.024-2.46L35,19.087V15.33l3.118-.441a8.853,8.853,0,0,1,.977-2.376.38.38,0,0,1,.047-.085L37.244,9.9,39.9,7.244l2.526,1.9a9.2,9.2,0,0,1,2.46-1.024L45.33,5h3.756l.441,3.118a9.2,9.2,0,0,1,2.46,1.024l2.526-1.9L57.173,9.9l-1.9,2.526a9.2,9.2,0,0,1,1.024,2.46l3.118.441v3.756Z" transform="translate(-2.009 -0.183)" fill="#ff9811"/>
      <ellipse id="Elipse_12095" data-name="Elipse 12095" cx="4.5" cy="5" rx="4.5" ry="5" transform="translate(41 12)" fill="#ffd422"/>
      <path id="Trazado_1039078" data-name="Trazado 1039078" d="M37.985,57.554a1.836,1.836,0,0,1,.554,1.324,1.884,1.884,0,0,1-1.878,1.878H17.878a1.878,1.878,0,1,1,0-3.756H36.661A1.836,1.836,0,0,1,37.985,57.554Z" transform="translate(-0.852 -3.348)" fill="#898890"/>
      <path id="Trazado_1039079" data-name="Trazado 1039079" d="M35.026,56.513H20L20.939,49H34.087Z" transform="translate(-1.096 -2.861)" fill="#acabb1"/>
      <path id="Trazado_1039080" data-name="Trazado 1039080" d="M31.539,37.323V39.3H9V37.323a5.634,5.634,0,0,1,3.342-5.146l2.574-1.146L17.452,29.9V27.387a6.523,6.523,0,0,1-3.681-5H12.756a1.878,1.878,0,1,1,0-3.756H13.7V16.756A1.878,1.878,0,1,1,13.7,13H26.843a1.878,1.878,0,1,1,0,3.756v1.878h.939a1.878,1.878,0,1,1,0,3.756H26.768a6.529,6.529,0,0,1-3.681,5V29.9l2.536,1.127L28.2,32.177A5.635,5.635,0,0,1,31.539,37.323Z" transform="translate(-0.426 -0.67)" fill="#3d9ae2"/>
      <path id="Trazado_1039081" data-name="Trazado 1039081" d="M30.341,36.492v3.85H21.889L20.18,32.66l.77-.77,2.817.939.657-2.63L27,31.346a5.635,5.635,0,0,1,3.343,5.146Z" transform="translate(-1.107 -1.717)" fill="#1e81ce"/>
      <path id="Trazado_1039082" data-name="Trazado 1039082" d="M26.35,11.554a1.836,1.836,0,0,1,.554,1.324,1.884,1.884,0,0,1-1.878,1.878H11.878a1.878,1.878,0,0,1,0-3.756H25.026a1.836,1.836,0,0,1,1.324.554Z" transform="translate(-0.487 -0.548)" fill="#f7910c"/>
      <path id="Trazado_1039083" data-name="Trazado 1039083" d="M25.7,10.64H21V5.09A5.62,5.62,0,0,1,25.611,9.7a5.137,5.137,0,0,1,.085.939Z" transform="translate(-1.157 -0.188)" fill="#ff9811"/>
      <path id="Trazado_1039084" data-name="Trazado 1039084" d="M24.414,30.127l-.657,2.63-2.817-.939L20,29.939,21.878,29Z" transform="translate(-1.096 -1.644)" fill="#1a6fb0"/>
      <path id="Trazado_1039085" data-name="Trazado 1039085" d="M19.926,32.82,21.635,40.5H16l1.709-7.682,1.108,1.108Z" transform="translate(-0.852 -1.876)" fill="#ed1c24"/>
      <path id="Trazado_1039086" data-name="Trazado 1039086" d="M20.756,4.963v5.55H17V3.939A.939.939,0,0,1,17.939,3h1.878a.939.939,0,0,1,.939.939Z" transform="translate(-0.913 -0.061)" fill="#ffa733"/>
      <path id="Trazado_1039087" data-name="Trazado 1039087" d="M19.817,30l.939,1.878-.77.77-1.108,1.108L17.77,32.648l-.77-.77L17.939,30Z" transform="translate(-0.913 -1.705)" fill="#ed1c24"/>
      <path id="Trazado_1039088" data-name="Trazado 1039088" d="M17.714,29.939l-.939,1.878-2.817.939-.657-2.63L15.836,29Z" transform="translate(-0.688 -1.644)" fill="#1a6fb0"/>
      <path id="Trazado_1039089" data-name="Trazado 1039089" d="M17.161,32.66l-1.709,7.682H7v-3.85a5.634,5.634,0,0,1,3.342-5.146L12.916,30.2l.657,2.63,2.817-.939Z" transform="translate(-0.304 -1.717)" fill="#1e81ce"/>
      <path id="Trazado_1039090" data-name="Trazado 1039090" d="M16.7,5.09v5.55H12a5.137,5.137,0,0,1,.085-.939A5.627,5.627,0,0,1,16.7,5.09Z" transform="translate(-0.609 -0.188)" fill="#ff9811"/>
      <path id="Trazado_1039091" data-name="Trazado 1039091" d="M21.635,26v2.817l-1.878.939H17.878L16,28.817V26Z" transform="translate(-0.852 -1.461)" fill="#ffc477"/>
      <g id="Grupo_1199812" data-name="Grupo 1199812" transform="translate(8.574 16.087)">
        <path id="Trazado_1039092" data-name="Trazado 1039092" d="M12.756,17v3.756H10.878a1.878,1.878,0,1,1,0-3.756Z" transform="translate(-9 -17)" fill="#ffb655"/>
        <path id="Trazado_1039093" data-name="Trazado 1039093" d="M28.756,18.878a1.884,1.884,0,0,1-1.878,1.878H25V17h1.878a1.884,1.884,0,0,1,1.878,1.878Z" transform="translate(-9.974 -17)" fill="#ffb655"/>
        <path id="Trazado_1039094" data-name="Trazado 1039094" d="M21.635,26v2.179a6.534,6.534,0,0,1-5.635,0V26Z" transform="translate(-9.426 -17.548)" fill="#ffb655"/>
      </g>
      <path id="Trazado_1039095" data-name="Trazado 1039095" d="M25.148,16.878V19.7a5.141,5.141,0,0,1-.075.939,6.564,6.564,0,0,1-13,0A5.141,5.141,0,0,1,12,19.7V15H25.148Z" transform="translate(-0.609 -0.791)" fill="#ffc477"/>
      <path id="Trazado_1039096" data-name="Trazado 1039096" d="M12,15H25.148v1.878H12Z" transform="translate(-0.609 -0.791)" fill="#ffb655"/>
      <path id="Trazado_1039097" data-name="Trazado 1039097" d="M34.367,50.878H20.75L20.985,49H34.132Z" transform="translate(-1.142 -2.861)" fill="#898890"/>
      <path id="Trazado_1039098" data-name="Trazado 1039098" d="M31,12h4.7v1.878H31Z" transform="translate(-1.766 -0.609)"/>
      <path id="Trazado_1039099" data-name="Trazado 1039099" d="M48.956,28.3v9.391H30.174V34.775a6.574,6.574,0,0,0-3.9-6l-4.555-2.029V25.4a7.569,7.569,0,0,0,3.512-4.62h.244a2.817,2.817,0,1,0,0-5.635v-.169a2.8,2.8,0,0,0-.047-5.306,6.512,6.512,0,0,0-1.878-3.86,6.345,6.345,0,0,0-2.77-1.643V3.878A1.884,1.884,0,0,0,18.9,2H17.026a1.884,1.884,0,0,0-1.878,1.878V4.16A6.536,6.536,0,0,0,10.5,9.673a2.8,2.8,0,0,0-.047,5.306v.169a2.817,2.817,0,1,0,0,5.635H10.7a7.569,7.569,0,0,0,3.512,4.62v1.343L9.654,28.774a6.574,6.574,0,0,0-3.9,6v2.911H3.878v-21.6A2.826,2.826,0,0,1,6.7,13.269V11.391a4.7,4.7,0,0,0-4.7,4.7v26.3a4.7,4.7,0,0,0,4.7,4.7H18.782l-.7,5.635H17.026a2.817,2.817,0,0,0,0,5.635H35.808a2.817,2.817,0,1,0,0-5.635H34.756l-.7-5.635H46.139a4.7,4.7,0,0,0,4.7-4.7V28.3ZM10.452,18.9a.939.939,0,1,1,0-1.878ZM22.661,32.052a.939.939,0,0,0,.451-.113.955.955,0,0,0,.46-.6l.385-1.54,1.55.686A4.7,4.7,0,0,1,28.3,34.775v2.911H21.534l-1.427-6.433L22.36,32a1.113,1.113,0,0,0,.3.047Zm-.441-3.033-.225.883-1.484-.5-.347-.686.648-.319Zm4.2-11.053a.939.939,0,0,1-.939.939V17.026A.939.939,0,0,1,26.417,17.965ZM20.782,6.16a4.8,4.8,0,0,1,1.446.977,4.614,4.614,0,0,1,1.277,2.376H20.782ZM17.026,3.878H18.9V9.513H17.026ZM15.148,6.16V9.513H12.424A4.659,4.659,0,0,1,15.148,6.16Zm-4.7,6.17a.939.939,0,0,1,.939-.939H24.539a.939.939,0,1,1,0,1.878H11.391A.939.939,0,0,1,10.452,12.33ZM12.33,18.9V15.148H23.6V18.9a5.635,5.635,0,1,1-11.269,0Zm5.081,13.88a.845.845,0,0,0,1.108,0l1.089,4.9H16.322Zm-.178-2.8.376-.751h.714l.376.751-.733.742Zm1.446-2.63H17.251l-1.165-.582v-.6a7.346,7.346,0,0,0,3.756,0v.6ZM15.119,28.4l.648.319-.347.686-1.484.5-.225-.883ZM7.635,34.775a4.7,4.7,0,0,1,2.79-4.292l1.549-.685.385,1.54a.955.955,0,0,0,.46.6.939.939,0,0,0,.451.113,1.113,1.113,0,0,0,.3-.047l2.254-.751L14.4,37.687H7.635ZM35.808,54.591a.939.939,0,1,1,0,1.878H17.026a.939.939,0,1,1,0-1.878ZM19.965,52.712l.7-5.635H32.165l.7,5.635Zm28.991-10.33A2.826,2.826,0,0,1,46.139,45.2H6.7a2.826,2.826,0,0,1-2.817-2.817V39.565H48.956Z" transform="translate(0)"/>
      <path id="Trazado_1039100" data-name="Trazado 1039100" d="M46,44h1.878v1.878H46Z" transform="translate(-2.679 -2.557)"/>
      <path id="Trazado_1039101" data-name="Trazado 1039101" d="M15,18h1.878v1.878H15Z" transform="translate(-0.791 -0.974)"/>
      <path id="Trazado_1039102" data-name="Trazado 1039102" d="M21,18h1.878v1.878H21Z" transform="translate(-1.157 -0.974)"/>
      <path id="Trazado_1039103" data-name="Trazado 1039103" d="M59.49,14.34l-2.519-.36a10.2,10.2,0,0,0-.638-1.539l1.526-2.034a.939.939,0,0,0-.087-1.227L55.116,6.523a.939.939,0,0,0-1.226-.087L51.855,7.961a10.236,10.236,0,0,0-1.539-.637l-.36-2.519A.939.939,0,0,0,49.026,4H45.269a.939.939,0,0,0-.93.806l-.36,2.519a10.194,10.194,0,0,0-1.539.637L40.406,6.436a.939.939,0,0,0-1.226.087L36.523,9.179a.939.939,0,0,0-.087,1.227l1.526,2.034a10.2,10.2,0,0,0-.638,1.539l-2.519.36a.939.939,0,0,0-.806.93v3.756a.939.939,0,0,0,.806.93l2.519.36a10.2,10.2,0,0,0,.638,1.539l-1.526,2.034a.939.939,0,0,0,.087,1.227l2.656,2.656a.939.939,0,0,0,1.226.087l2.035-1.525a10.194,10.194,0,0,0,1.539.637l.36,2.519a.939.939,0,0,0,.93.806h3.756a.939.939,0,0,0,.93-.806l.36-2.519a10.236,10.236,0,0,0,1.539-.637l2.035,1.525a.939.939,0,0,0,1.226-.087l2.656-2.656a.939.939,0,0,0,.087-1.227l-1.526-2.034a10.2,10.2,0,0,0,.638-1.539l2.519-.36a.939.939,0,0,0,.806-.93V15.269a.939.939,0,0,0-.806-.93Zm-1.072,3.872-2.313.331a.939.939,0,0,0-.777.7,8.38,8.38,0,0,1-.918,2.214.939.939,0,0,0,.057,1.043l1.4,1.869-1.5,1.5-1.87-1.4a.939.939,0,0,0-1.042-.056,8.32,8.32,0,0,1-2.213.916.939.939,0,0,0-.7.778l-.331,2.314H46.084l-.33-2.313a.939.939,0,0,0-.7-.778,8.32,8.32,0,0,1-2.213-.916.939.939,0,0,0-1.042.056l-1.87,1.4-1.5-1.5,1.4-1.869a.939.939,0,0,0,.057-1.043,8.38,8.38,0,0,1-.918-2.214.939.939,0,0,0-.777-.7l-2.314-.332V16.084l2.313-.331a.939.939,0,0,0,.777-.7,8.38,8.38,0,0,1,.918-2.214.939.939,0,0,0-.057-1.043l-1.4-1.869,1.5-1.5,1.87,1.4a.939.939,0,0,0,1.042.056,8.32,8.32,0,0,1,2.213-.916.939.939,0,0,0,.7-.778l.331-2.314h2.128l.33,2.313a.939.939,0,0,0,.7.778,8.32,8.32,0,0,1,2.213.916A.939.939,0,0,0,52.5,9.828l1.87-1.4,1.5,1.5-1.4,1.869a.939.939,0,0,0-.057,1.043,8.38,8.38,0,0,1,.918,2.214.939.939,0,0,0,.777.7l2.314.332Z" transform="translate(-1.948 -0.122)"/>
      <path id="Trazado_1039104" data-name="Trazado 1039104" d="M47.635,12a5.635,5.635,0,1,0,5.635,5.635A5.635,5.635,0,0,0,47.635,12Zm0,9.391a3.756,3.756,0,1,1,3.756-3.756A3.756,3.756,0,0,1,47.635,21.391Z" transform="translate(-2.435 -0.609)"/>
      <path id="Trazado_1039105" data-name="Trazado 1039105" d="M36,32h7.513v1.878H36Z" transform="translate(-2.07 -1.826)"/>
      <path id="Trazado_1039106" data-name="Trazado 1039106" d="M36,36h7.513v1.878H36Z" transform="translate(-2.07 -2.07)"/>
    </g>
  </g>
</svg>
