<svg xmlns="http://www.w3.org/2000/svg" xmlns:xlink="http://www.w3.org/1999/xlink" width="110" height="110" viewBox="0 0 110 110">
  <defs>
    <filter id="Trazado_982547" x="0" y="0" width="110" height="110" filterUnits="userSpaceOnUse">
      <feOffset dy="3" input="SourceAlpha"/>
      <feGaussianBlur stdDeviation="3" result="blur"/>
      <feFlood flood-opacity="0.161"/>
      <feComposite operator="in" in2="blur"/>
      <feComposite in="SourceGraphic"/>
    </filter>
  </defs>
  <g id="Grupo_1199843" data-name="Grupo 1199843" transform="translate(-4735 -8032)">
    <g id="Grupo_1173124" data-name="Grupo 1173124" transform="translate(4744 8038)">
      <g id="Grupo_1172181" data-name="Grupo 1172181" transform="translate(0)">
        <g id="Grupo_1171414" data-name="Grupo 1171414">
          <g id="Grupo_1163801" data-name="Grupo 1163801">
            <g id="Grupo_1163014" data-name="Grupo 1163014">
              <g id="Grupo_1157015" data-name="Grupo 1157015" transform="translate(0 0)">
                <g id="Grupo_1155792" data-name="Grupo 1155792">
                  <g id="Grupo_1154703" data-name="Grupo 1154703">
                    <g id="Grupo_1150789" data-name="Grupo 1150789">
                      <g id="Grupo_1154212" data-name="Grupo 1154212">
                        <g id="Grupo_1152583" data-name="Grupo 1152583">
                          <g id="Grupo_1146973" data-name="Grupo 1146973" transform="translate(0 0)">
                            <g id="Grupo_1146954" data-name="Grupo 1146954">
                              <g transform="matrix(1, 0, 0, 1, -9, -6)" filter="url(#Trazado_982547)">
                                <g id="Trazado_982547-2" data-name="Trazado 982547" transform="translate(9 6)" fill="#f2f7f5">
                                  <path d="M 46 90.49987030029297 C 39.99187850952148 90.49987030029297 34.16426849365234 89.32350921630859 28.67905426025391 87.00345611572266 C 23.38019943237305 84.76224517822266 18.62104034423828 81.55341339111328 14.53374671936035 77.46613311767578 C 10.44646644592285 73.37885284423828 7.237639904022217 68.61969757080078 4.996413230895996 63.32085418701172 C 2.676359891891479 57.83565521240234 1.5 52.008056640625 1.5 45.99993515014648 C 1.5 39.99181365966797 2.676359891891479 34.16421508789062 4.996413230895996 28.67901420593262 C 7.237639904022217 23.38017463684082 10.44646644592285 18.62101554870605 14.53374671936035 14.53373527526855 C 18.62104034423828 10.44645500183105 23.38019943237305 7.23762845993042 28.67905426025391 4.996415138244629 C 34.16426849365234 2.676361799240112 39.99187850952148 1.500001788139343 46 1.500001788139343 C 52.00812149047852 1.500001788139343 57.83573150634766 2.676361799240112 63.32094573974609 4.996415138244629 C 68.61979675292969 7.23762845993042 73.37895965576172 10.44645500183105 77.46625518798828 14.53373527526855 C 81.55353546142578 18.62101554870605 84.76235961914062 23.38017463684082 87.00358581542969 28.67901420593262 C 89.32363891601562 34.16421508789062 90.5 39.99181365966797 90.5 45.99993515014648 C 90.5 52.008056640625 89.32363891601562 57.83565521240234 87.00358581542969 63.32085418701172 C 84.76235961914062 68.61969757080078 81.55353546142578 73.37885284423828 77.46625518798828 77.46613311767578 C 73.37895965576172 81.55341339111328 68.61979675292969 84.76224517822266 63.32094573974609 87.00345611572266 C 57.83573150634766 89.32350921630859 52.00812149047852 90.49987030029297 46 90.49987030029297 Z" stroke="none"/>
                                  <path d="M 46 2.999992370605469 C 40.1937141418457 2.999992370605469 34.56269836425781 4.136489868164062 29.26337051391602 6.377906799316406 C 24.14332580566406 8.543502807617188 19.54441070556641 11.64437866210938 15.59439849853516 15.59437561035156 C 11.64440155029297 19.54439544677734 8.54351806640625 24.14329528808594 6.377914428710938 29.26333618164062 C 4.136497497558594 34.56264877319336 3 40.19366455078125 3 45.99993515014648 C 3 51.80620574951172 4.136497497558594 57.43720626831055 6.377914428710938 62.73651885986328 C 8.54351806640625 67.8565673828125 11.64440155029297 72.45545959472656 15.59439849853516 76.40547943115234 C 19.54441070556641 80.35547637939453 24.14332580566406 83.45635223388672 29.26337051391602 85.6219482421875 C 34.56269836425781 87.86336517333984 40.1937141418457 88.99986267089844 46 88.99986267089844 C 51.8062858581543 88.99986267089844 57.43730163574219 87.86336517333984 62.73661422729492 85.6219482421875 C 67.85667419433594 83.45635223388672 72.45557403564453 80.35547637939453 76.40558624267578 76.40547943115234 C 80.35559844970703 72.45545959472656 83.45647430419922 67.8565673828125 85.6220703125 62.73651885986328 C 87.86350250244141 57.43720626831055 89 51.80620574951172 89 45.99993515014648 C 89 40.19366455078125 87.86350250244141 34.56264877319336 85.6220703125 29.26333618164062 C 83.45647430419922 24.14329528808594 80.35559844970703 19.54439544677734 76.40558624267578 15.59437561035156 C 72.45557403564453 11.64437866210938 67.85667419433594 8.543502807617188 62.73661422729492 6.377906799316406 C 57.43730163574219 4.136489868164062 51.8062858581543 2.999992370605469 46 2.999992370605469 M 46 -7.62939453125e-06 C 71.40509033203125 -7.62939453125e-06 92 20.59486389160156 92 45.99993515014648 C 92 71.40499114990234 71.40509033203125 91.99986267089844 46 91.99986267089844 C 20.59490203857422 91.99986267089844 0 71.40499114990234 0 45.99993515014648 C 0 20.59486389160156 20.59490203857422 -7.62939453125e-06 46 -7.62939453125e-06 Z" stroke="none" fill="#88bba9"/>
                                </g>
                              </g>
                            </g>
                          </g>
                        </g>
                      </g>
                    </g>
                  </g>
                </g>
              </g>
            </g>
          </g>
        </g>
      </g>
    </g>
    <g id="data-processing_1_" data-name="data-processing (1)" transform="translate(4754.005 8047.995)">
      <g id="Grupo_1199842" data-name="Grupo 1199842" transform="translate(8.903 8.912)">
        <g id="Grupo_1199839" data-name="Grupo 1199839" transform="translate(14.018 10.209)">
          <path id="Trazado_1039117" data-name="Trazado 1039117" d="M166,110.2v25.623c0,2.321-5.912,4.2-13.2,4.2s-13.2-1.882-13.2-4.2V110.2c0-2.321,5.912-4.2,13.2-4.2S166,107.882,166,110.2Z" transform="translate(-139.588 -106)" fill="#ffe177" fill-rule="evenodd"/>
          <path id="Trazado_1039118" data-name="Trazado 1039118" d="M252.549,106.195c-1.258-.127-2.6-.195-3.986-.195q-.48,0-.952.011c6.848.155,12.253,1.973,12.253,4.192v2.175c1.208-.634,1.9-1.379,1.9-2.175C261.767,108.324,257.893,106.733,252.549,106.195Z" transform="translate(-235.358 -106)" fill="#ffd064" fill-rule="evenodd"/>
          <path id="Trazado_1039119" data-name="Trazado 1039119" d="M152.792,147.255c-7.293,0-13.2-1.882-13.2-4.2v8.541c0,2.321,5.912,4.2,13.2,4.2,1.389,0,2.729-.068,3.986-.195a24,24,0,0,0,6.439-1.428c1.742-.712,2.779-1.607,2.779-2.58v-8.541c0,.972-1.038,1.868-2.779,2.58a24,24,0,0,1-6.439,1.428C155.521,147.186,154.182,147.255,152.792,147.255Z" transform="translate(-139.588 -138.849)" fill="#ffd064" fill-rule="evenodd"/>
          <path id="Trazado_1039120" data-name="Trazado 1039120" d="M355.635,153.768c1.208-.634,1.9-1.379,1.9-2.175v-8.541c0,.8-.7,1.54-1.9,2.175Z" transform="translate(-331.129 -138.849)" fill="#ffc338" fill-rule="evenodd"/>
          <path id="Trazado_1039121" data-name="Trazado 1039121" d="M152.792,222.554c-7.293,0-13.2-1.882-13.2-4.2v8.541c0,2.321,5.912,4.2,13.2,4.2a29.375,29.375,0,0,0,10.425-1.623c1.742-.712,2.779-1.607,2.779-2.58v-8.541c0,.972-1.038,1.868-2.779,2.58a24,24,0,0,1-6.439,1.428C155.521,222.485,154.182,222.554,152.792,222.554Z" transform="translate(-139.588 -205.607)" fill="#ffe177" fill-rule="evenodd"/>
          <path id="Trazado_1039122" data-name="Trazado 1039122" d="M355.635,229.067c1.208-.634,1.9-1.379,1.9-2.175v-8.541c0,.8-.7,1.54-1.9,2.175Z" transform="translate(-331.129 -205.608)" fill="#ffd064" fill-rule="evenodd"/>
          <path id="Trazado_1039123" data-name="Trazado 1039123" d="M152.792,297.853c-7.293,0-13.2-1.882-13.2-4.2v8.541c0,2.321,5.912,4.2,13.2,4.2s13.2-1.882,13.2-4.2V293.65c0,.972-1.038,1.868-2.779,2.58A29.377,29.377,0,0,1,152.792,297.853Z" transform="translate(-139.588 -272.365)" fill="#ffd064" fill-rule="evenodd"/>
          <path id="Trazado_1039124" data-name="Trazado 1039124" d="M247.611,306.383q.471.011.952.011c7.293,0,13.2-1.882,13.2-4.2V293.65c0,.8-.7,1.54-1.9,2.175v6.366c0,2.219-5.4,4.037-12.253,4.192Z" transform="translate(-235.358 -272.365)" fill="#ffc338" fill-rule="evenodd"/>
        </g>
        <g id="Grupo_1199840" data-name="Grupo 1199840" transform="translate(0)">
          <path id="Trazado_1039125" data-name="Trazado 1039125" d="M31.642,18.162a11.136,11.136,0,0,1,3.26,1.351l2.118-.941,2.5,2.5-.941,2.118a11.136,11.136,0,0,1,1.352,3.261l2.161.832v3.531l-2.162.832a11.132,11.132,0,0,1-1.351,3.26l.941,2.118-2.5,2.5L34.9,38.576a11.131,11.131,0,0,1-3.261,1.352l-.832,2.161H27.279l-.832-2.162a11.133,11.133,0,0,1-3.26-1.351l-2.118.941-2.5-2.5.941-2.118a11.134,11.134,0,0,1-1.352-3.261L16,30.81V27.279l2.161-.832a11.129,11.129,0,0,1,1.351-3.26l-.941-2.118,2.5-2.5,2.118.941a11.137,11.137,0,0,1,3.26-1.351L27.279,16H30.81Z" transform="translate(-16 -16)" fill="#837683" fill-rule="evenodd"/>
          <path id="Trazado_1039126" data-name="Trazado 1039126" d="M71.562,38.6a11.132,11.132,0,0,1-3.216,1.325l-.832,2.161H66.3l.832-2.161a15.243,15.243,0,0,0,3.787-1.656l.686.3-.044.027ZM57.4,18.945l.373-.373,2.118.941q-.267.145-.526.3Zm2.491,19.63-2.118.941-.373-.373,1.965-.873q.259.16.526.3Zm8.455-20.414a11.136,11.136,0,0,1,3.26,1.351l-.686.3a15.249,15.249,0,0,0-3.786-1.656L66.3,16h1.212Zm4.538.784.839-.373,2.5,2.5-.941,2.118a11.132,11.132,0,0,1,1.352,3.261l2.161.832V30.81l-2.162.832A11.132,11.132,0,0,1,75.28,34.9l.941,2.118-2.5,2.5-.839-.373,2.124-2.124L74.067,34.9a11.136,11.136,0,0,0,1.351-3.26l2.162-.832V27.279l-2.161-.832a11.132,11.132,0,0,0-1.352-3.261l.941-2.118Z" transform="translate(-52.704 -16)" fill="#685e68" fill-rule="evenodd"/>
          <ellipse id="Elipse_12096" data-name="Elipse 12096" cx="6.696" cy="6.696" rx="6.696" ry="6.696" transform="matrix(0.987, -0.16, 0.16, 0.987, 5.36, 7.508)" fill="#eceff1"/>
          <path id="Trazado_1039127" data-name="Trazado 1039127" d="M78.666,71.971a6.7,6.7,0,1,0,0,13.391c.142,0,.283,0,.422-.014a6.7,6.7,0,0,1,0-13.364C78.948,71.976,78.808,71.971,78.666,71.971Z" transform="translate(-65.621 -65.622)" fill="#d1d1d6" fill-rule="evenodd"/>
        </g>
        <g id="Grupo_1199841" data-name="Grupo 1199841" transform="translate(28.357 28.357)">
          <path id="Trazado_1039128" data-name="Trazado 1039128" d="M281.642,268.162a11.137,11.137,0,0,1,3.26,1.352l2.118-.941,2.5,2.5-.941,2.118a11.135,11.135,0,0,1,1.352,3.261l2.161.832v3.531l-2.162.832a11.133,11.133,0,0,1-1.351,3.26l.941,2.118-2.5,2.5-2.118-.941a11.131,11.131,0,0,1-3.261,1.352l-.832,2.161h-3.531l-.832-2.162a11.134,11.134,0,0,1-3.26-1.351l-2.118.941-2.5-2.5.941-2.118a11.134,11.134,0,0,1-1.352-3.261L266,280.81v-3.531l2.161-.832a11.129,11.129,0,0,1,1.352-3.26l-.941-2.118,2.5-2.5,2.118.941a11.136,11.136,0,0,1,3.26-1.352l.832-2.162h3.531Z" transform="translate(-266 -266)" fill="#837683" fill-rule="evenodd"/>
          <path id="Trazado_1039129" data-name="Trazado 1039129" d="M321.563,288.6a11.132,11.132,0,0,1-3.216,1.325l-.832,2.161H316.3l.832-2.161a15.239,15.239,0,0,0,3.787-1.656l.686.3c-.015.008-.03.017-.044.027ZM307.4,268.945l.373-.373,2.118.941q-.267.145-.526.3Zm2.491,19.63-2.118.941-.373-.373,1.965-.873q.259.16.526.3Zm8.454-20.414a11.137,11.137,0,0,1,3.26,1.352l-.686.3a15.246,15.246,0,0,0-3.786-1.656L316.3,266h1.212Zm4.538.783.839-.373,2.5,2.5-.941,2.118a11.131,11.131,0,0,1,1.352,3.261l2.161.832v3.531l-2.162.832a11.131,11.131,0,0,1-1.351,3.26l.941,2.118-2.5,2.5-.84-.373,2.124-2.124-.941-2.118a11.136,11.136,0,0,0,1.351-3.26l2.162-.832v-3.531l-2.161-.832a11.131,11.131,0,0,0-1.352-3.261l.941-2.118Z" transform="translate(-302.705 -266)" fill="#685e68" fill-rule="evenodd"/>
          <circle id="Elipse_12097" data-name="Elipse 12097" cx="6.696" cy="6.696" r="6.696" transform="translate(6.349 6.349)" fill="#eceff1"/>
          <path id="Trazado_1039130" data-name="Trazado 1039130" d="M328.667,321.971a6.7,6.7,0,0,0,0,13.391c.142,0,.283-.005.422-.014a6.7,6.7,0,0,1,0-13.364C328.949,321.976,328.808,321.971,328.667,321.971Z" transform="translate(-315.622 -315.622)" fill="#d1d1d6" fill-rule="evenodd"/>
        </g>
      </g>
      <path id="Trazado_1039131" data-name="Trazado 1039131" d="M33.7,57.532H15.069V41.6l.518.763a.912.912,0,0,0,.753.4.89.89,0,0,0,.507-.158.909.909,0,0,0,.246-1.26l-2.178-3.207a.908.908,0,0,0-.753-.4.9.9,0,0,0-.747.4l-2.178,3.207a.909.909,0,0,0,1.506,1.02l.512-.763V58.439a.907.907,0,0,0,.908.907H33.7a.907.907,0,1,0,0-1.815Zm4.736-42.794H57.07V30.673l-.518-.763a.907.907,0,1,0-1.5,1.019l2.173,3.208a.912.912,0,0,0,1.506,0L60.9,30.928a.907.907,0,1,0-1.5-1.019l-.518.763V13.83a.907.907,0,0,0-.908-.907H38.438a.907.907,0,1,0,0,1.815Zm-10.7,7.219a5.79,5.79,0,1,0-5.787,5.788A5.8,5.8,0,0,0,27.738,21.956Zm-5.787,7.6a7.6,7.6,0,1,1,7.6-7.6A7.609,7.609,0,0,1,21.951,29.559ZM56.093,50.313A5.787,5.787,0,1,0,50.306,56.1,5.793,5.793,0,0,0,56.093,50.313Zm1.815,0a7.6,7.6,0,1,1-7.6-7.6A7.612,7.612,0,0,1,57.909,50.313Zm4.533-1.142v2.285l-1.58.608a.909.909,0,0,0-.555.637,10.192,10.192,0,0,1-1.239,2.993.9.9,0,0,0-.059.845l.689,1.548L58.079,59.7l-1.548-.688a.909.909,0,0,0-.844.057,10.25,10.25,0,0,1-3,1.242.909.909,0,0,0-.635.556l-.609,1.58H49.163l-.609-1.58a.91.91,0,0,0-.635-.557,10.22,10.22,0,0,1-3-1.241.906.906,0,0,0-.844-.057l-1.548.688-1.618-1.616.689-1.548a.9.9,0,0,0-.059-.844,10.191,10.191,0,0,1-1.239-3,.91.91,0,0,0-.555-.636l-1.58-.608V49.429a.958.958,0,0,0,.155-.319l1.425-.548a.91.91,0,0,0,.555-.637,10.2,10.2,0,0,1,1.239-2.993.9.9,0,0,0,.059-.845l-.689-1.548,1.618-1.616,1.548.688a.9.9,0,0,0,.844-.057,10.234,10.234,0,0,1,3-1.241.908.908,0,0,0,.635-.557l.609-1.58h2.285l.609,1.58a.908.908,0,0,0,.635.557,10.235,10.235,0,0,1,3,1.241.9.9,0,0,0,.844.057l1.548-.688L59.7,42.539l-.689,1.548a.9.9,0,0,0,.059.844,10.191,10.191,0,0,1,1.239,2.994.91.91,0,0,0,.555.637Zm-26.316,3.07c-8.072,0-12.3-2.145-12.3-3.3v-5.9c2.557,1.627,7.448,2.467,12.3,2.467,1.062,0,2.109-.04,3.129-.117a11.847,11.847,0,0,0-.593,1.638l-1.724.665a.913.913,0,0,0-.374.27H34.807a.908.908,0,0,0,0,1.815h1.548v2.292a.8.8,0,0,0,.016.161l-.245,0ZM23.83,40.406V35.9a.912.912,0,0,0,.732-.573l.128-.339c2.563,1.24,6.8,1.987,11.436,1.987,4.853,0,9.744-.839,12.3-2.467v1.864a.9.9,0,0,0-.731.573l-.667,1.726a12.064,12.064,0,0,0-2.637,1.093L42.7,39.013a.905.905,0,0,0-1.009.187l-2.5,2.5A.92.92,0,0,0,39,42.706l.384.861q-1.594.13-3.262.132c-8.072,0-12.3-2.144-12.3-3.294Zm-3.022-6.312-.609-1.58a.908.908,0,0,0-.641-.557,10.221,10.221,0,0,1-2.99-1.241.9.9,0,0,0-.844-.057l-1.554.688L12.56,29.73l.689-1.548a.925.925,0,0,0-.059-.844,10.2,10.2,0,0,1-1.239-2.995.906.906,0,0,0-.561-.637L9.81,23.1V20.814l1.58-.608a.906.906,0,0,0,.561-.638,10.2,10.2,0,0,1,1.239-2.993.912.912,0,0,0,.059-.845l-.689-1.548,1.612-1.615,1.554.687a.909.909,0,0,0,.844-.055,10.177,10.177,0,0,1,2.99-1.242A.909.909,0,0,0,20.2,11.4l.609-1.58h2.285l.6,1.58a.919.919,0,0,0,.641.557,10.238,10.238,0,0,1,3,1.241.9.9,0,0,0,.844.057l1.548-.687,1.612,1.615-.683,1.548a.909.909,0,0,0,.053.844,10.347,10.347,0,0,1,1.244,3,.911.911,0,0,0,.555.636l1.58.608V23.1l-1.58.608a.91.91,0,0,0-.555.637,10.363,10.363,0,0,1-1.244,2.993.91.91,0,0,0-.053.845l.683,1.548-1.612,1.616-1.548-.688a.908.908,0,0,0-.844.057,10.281,10.281,0,0,1-3,1.242.915.915,0,0,0-.641.556l-.6,1.58H20.808ZM36.126,20.028c8.078,0,12.3,2.145,12.3,3.3s-4.223,3.3-12.3,3.3c-1.009,0-2-.038-2.974-.11a10.865,10.865,0,0,0,.438-1.275l1.73-.665a.906.906,0,0,0,.582-.847v-3.53a.82.82,0,0,0-.016-.161l.24,0ZM33.061,30.573a.9.9,0,0,0,.187-1.01l-.561-1.272c1.116.093,2.269.141,3.438.141,4.853,0,9.744-.839,12.3-2.467v5.9c0,1.15-4.223,3.295-12.3,3.295-4.207,0-8.121-.652-10.427-1.7a12.149,12.149,0,0,0,2.168-.949l1.692.751a.906.906,0,0,0,1.009-.187Zm31.2,17.975v3.53a.905.905,0,0,1-.582.847l-1.724.665a11.877,11.877,0,0,1-1.094,2.638l.753,1.692a.919.919,0,0,1-.187,1.01l-2.5,2.5a.905.905,0,0,1-1.009.187l-1.692-.751a11.963,11.963,0,0,1-2.637,1.094l-.667,1.726a.9.9,0,0,1-.844.581H48.539a.9.9,0,0,1-.844-.581l-.667-1.727a12.036,12.036,0,0,1-2.637-1.093l-1.692.751a.905.905,0,0,1-1.009-.187l-2.5-2.5A.919.919,0,0,1,39,57.921l.753-1.691a11.713,11.713,0,0,1-.977-2.257c-.87.056-1.757.084-2.653.084-7.01,0-14.111-1.754-14.111-5.11V35.908H20.184a.916.916,0,0,1-.849-.582L18.673,33.6a11.964,11.964,0,0,1-2.637-1.093l-1.692.751a.9.9,0,0,1-1.009-.187l-2.5-2.5a.9.9,0,0,1-.187-1.01l.753-1.691a11.872,11.872,0,0,1-1.094-2.639l-1.73-.665a.914.914,0,0,1-.582-.847v-3.53a.914.914,0,0,1,.582-.847l1.73-.665A11.877,11.877,0,0,1,11.4,16.041l-.753-1.691a.9.9,0,0,1,.187-1.01l2.5-2.5a.9.9,0,0,1,1.009-.187l1.692.751a12.058,12.058,0,0,1,2.637-1.093l.662-1.726A.916.916,0,0,1,20.184,8h3.529a.9.9,0,0,1,.849.582l.662,1.726a12.111,12.111,0,0,1,2.643,1.093l1.687-.751a.912.912,0,0,1,1.014.187l2.493,2.5a.9.9,0,0,1,.187,1.01L32.5,16.041a12.053,12.053,0,0,1,.977,2.256c.87-.056,1.757-.084,2.648-.084,7.015,0,14.111,1.755,14.111,5.11V36.362h1.837a.9.9,0,0,1,.844.582l.667,1.726a12.064,12.064,0,0,1,2.637,1.093l1.692-.751a.907.907,0,0,1,1.009.187l2.5,2.5a.92.92,0,0,1,.187,1.011L60.855,44.4a11.868,11.868,0,0,1,1.094,2.639l1.724.665a.9.9,0,0,1,.582.847Zm-29.45-7.3a.907.907,0,1,1,0-1.815H37.45a.907.907,0,1,1,0,1.815ZM33.9,31.8a.907.907,0,0,1,.908-.907H37.45a.907.907,0,1,1,0,1.815H34.807A.907.907,0,0,1,33.9,31.8Z" fill-rule="evenodd"/>
    </g>
  </g>
</svg>
