<svg xmlns="http://www.w3.org/2000/svg" xmlns:xlink="http://www.w3.org/1999/xlink" width="110" height="110" viewBox="0 0 110 110">
  <defs>
    <filter id="Trazado_982547" x="0" y="0" width="110" height="110" filterUnits="userSpaceOnUse">
      <feOffset dy="3" input="SourceAlpha"/>
      <feGaussianBlur stdDeviation="3" result="blur"/>
      <feFlood flood-opacity="0.161"/>
      <feComposite operator="in" in2="blur"/>
      <feComposite in="SourceGraphic"/>
    </filter>
  </defs>
  <g id="Grupo_1174556" data-name="Grupo 1174556" transform="translate(-6839 -1633)">
    <g id="Grupo_1174549" data-name="Grupo 1174549">
      <g id="Grupo_1173052" data-name="Grupo 1173052" transform="translate(6039 -4557)">
        <g id="Grupo_1172119" data-name="Grupo 1172119" transform="translate(0 5368)">
          <g id="Grupo_1171414" data-name="Grupo 1171414" transform="translate(-0.701 -6107)">
            <g id="Grupo_1163801" data-name="Grupo 1163801" transform="translate(-0.299 2285)">
              <g id="Grupo_1163014" data-name="Grupo 1163014" transform="translate(1 306)">
                <g id="Grupo_1157015" data-name="Grupo 1157015" transform="translate(0 3549)">
                  <g id="Grupo_1155792" data-name="Grupo 1155792" transform="translate(-1 -3894.666)">
                    <g id="Grupo_1154703" data-name="Grupo 1154703" transform="translate(0 1465.666)">
                      <g id="Grupo_1150789" data-name="Grupo 1150789" transform="translate(3 2320)">
                        <g id="Grupo_1154212" data-name="Grupo 1154212" transform="translate(-236 -5809)">
                          <g id="Grupo_1152583" data-name="Grupo 1152583" transform="translate(1043 6713)">
                            <g id="Grupo_1146973" data-name="Grupo 1146973" transform="translate(0 0)">
                              <g id="Grupo_1146954" data-name="Grupo 1146954">
                                <g transform="matrix(1, 0, 0, 1, -9, -6)" filter="url(#Trazado_982547)">
                                  <g id="Trazado_982547-2" data-name="Trazado 982547" transform="translate(9 6)" fill="#f2f7f5">
                                    <path d="M 46 90.49987030029297 C 39.99187850952148 90.49987030029297 34.16426849365234 89.32350921630859 28.67905426025391 87.00345611572266 C 23.38019943237305 84.76224517822266 18.62104034423828 81.55341339111328 14.53374671936035 77.46613311767578 C 10.44646644592285 73.37885284423828 7.237639904022217 68.61969757080078 4.996413230895996 63.32085418701172 C 2.676359891891479 57.83565521240234 1.5 52.008056640625 1.5 45.99993515014648 C 1.5 39.99181365966797 2.676359891891479 34.16421508789062 4.996413230895996 28.67901420593262 C 7.237639904022217 23.38017463684082 10.44646644592285 18.62101554870605 14.53374671936035 14.53373527526855 C 18.62104034423828 10.44645500183105 23.38019943237305 7.23762845993042 28.67905426025391 4.996415138244629 C 34.16426849365234 2.676361799240112 39.99187850952148 1.500001788139343 46 1.500001788139343 C 52.00812149047852 1.500001788139343 57.83573150634766 2.676361799240112 63.32094573974609 4.996415138244629 C 68.61979675292969 7.23762845993042 73.37895965576172 10.44645500183105 77.46625518798828 14.53373527526855 C 81.55353546142578 18.62101554870605 84.76235961914062 23.38017463684082 87.00358581542969 28.67901420593262 C 89.32363891601562 34.16421508789062 90.5 39.99181365966797 90.5 45.99993515014648 C 90.5 52.008056640625 89.32363891601562 57.83565521240234 87.00358581542969 63.32085418701172 C 84.76235961914062 68.61969757080078 81.55353546142578 73.37885284423828 77.46625518798828 77.46613311767578 C 73.37895965576172 81.55341339111328 68.61979675292969 84.76224517822266 63.32094573974609 87.00345611572266 C 57.83573150634766 89.32350921630859 52.00812149047852 90.49987030029297 46 90.49987030029297 Z" stroke="none"/>
                                    <path d="M 46 2.999992370605469 C 40.1937141418457 2.999992370605469 34.56269836425781 4.136489868164062 29.26337051391602 6.377906799316406 C 24.14332580566406 8.543502807617188 19.54441070556641 11.64437866210938 15.59439849853516 15.59437561035156 C 11.64440155029297 19.54439544677734 8.54351806640625 24.14329528808594 6.377914428710938 29.26333618164062 C 4.136497497558594 34.56264877319336 3 40.19366455078125 3 45.99993515014648 C 3 51.80620574951172 4.136497497558594 57.43720626831055 6.377914428710938 62.73651885986328 C 8.54351806640625 67.8565673828125 11.64440155029297 72.45545959472656 15.59439849853516 76.40547943115234 C 19.54441070556641 80.35547637939453 24.14332580566406 83.45635223388672 29.26337051391602 85.6219482421875 C 34.56269836425781 87.86336517333984 40.1937141418457 88.99986267089844 46 88.99986267089844 C 51.8062858581543 88.99986267089844 57.43730163574219 87.86336517333984 62.73661422729492 85.6219482421875 C 67.85667419433594 83.45635223388672 72.45557403564453 80.35547637939453 76.40558624267578 76.40547943115234 C 80.35559844970703 72.45545959472656 83.45647430419922 67.8565673828125 85.6220703125 62.73651885986328 C 87.86350250244141 57.43720626831055 89 51.80620574951172 89 45.99993515014648 C 89 40.19366455078125 87.86350250244141 34.56264877319336 85.6220703125 29.26333618164062 C 83.45647430419922 24.14329528808594 80.35559844970703 19.54439544677734 76.40558624267578 15.59437561035156 C 72.45557403564453 11.64437866210938 67.85667419433594 8.543502807617188 62.73661422729492 6.377906799316406 C 57.43730163574219 4.136489868164062 51.8062858581543 2.999992370605469 46 2.999992370605469 M 46 -7.62939453125e-06 C 71.40509033203125 -7.62939453125e-06 92 20.59486389160156 92 45.99993515014648 C 92 71.40499114990234 71.40509033203125 91.99986267089844 46 91.99986267089844 C 20.59490203857422 91.99986267089844 0 71.40499114990234 0 45.99993515014648 C 0 20.59486389160156 20.59490203857422 -7.62939453125e-06 46 -7.62939453125e-06 Z" stroke="none" fill="#88bba9"/>
                                  </g>
                                </g>
                              </g>
                            </g>
                          </g>
                        </g>
                      </g>
                    </g>
                  </g>
                </g>
              </g>
            </g>
          </g>
        </g>
      </g>
    </g>
    <g id="agreement" transform="translate(6864.867 1654.999)">
      <g id="Grupo_1174554" data-name="Grupo 1174554" transform="translate(-0.867 0.889)">
        <path id="Trazado_1027784" data-name="Trazado 1027784" d="M117.408,399.913l14.476,6.285a3.074,3.074,0,0,0,2.449-5.64l-14.476-6.285a.284.284,0,0,0-.374.147l-2.222,5.118A.284.284,0,0,0,117.408,399.913Z" transform="translate(-103.249 -348.443)" fill="#ffa93f"/>
        <path id="Trazado_1027785" data-name="Trazado 1027785" d="M253.56,399.913,239.084,406.2a3.074,3.074,0,0,1-2.449-5.64l14.476-6.285a.284.284,0,0,1,.374.147l2.222,5.118A.284.284,0,0,1,253.56,399.913Z" transform="translate(-206.875 -348.443)" fill="#f3c23b"/>
        <path id="Trazado_1027786" data-name="Trazado 1027786" d="M351.436,400.547a3.356,3.356,0,0,0,3.37-3.312c0-.012,0-.024,0-.036v-3.259a7.36,7.36,0,0,0-14.719,0V397.2c0,.012,0,.024,0,.036a3.356,3.356,0,0,0,3.37,3.312Z" transform="translate(-299.705 -341.683)" fill="#f9d171"/>
        <g id="Grupo_1174550" data-name="Grupo 1174550" transform="translate(34.649 23.584)">
          <ellipse id="Elipse_12073" data-name="Elipse 12073" cx="9.565" cy="9.561" rx="9.565" ry="9.561" transform="matrix(0.511, -0.86, 0.86, 0.511, 0, 16.452)" fill="#ffddcf"/>
          <path id="Trazado_1027787" data-name="Trazado 1027787" d="M327.957,248.751a9.562,9.562,0,0,1,6.168-11.539,9.563,9.563,0,1,0-.59,18.29c.2-.053.392-.114.583-.179A9.553,9.553,0,0,1,327.957,248.751Z" transform="translate(-317.959 -233.141)" fill="#ffcbbe"/>
        </g>
        <ellipse id="Elipse_12074" data-name="Elipse 12074" cx="3.337" cy="2.657" rx="3.337" ry="2.657" transform="translate(41.587 36.102)" fill="#ffa1ac"/>
        <path id="Trazado_1027788" data-name="Trazado 1027788" d="M58.971,400.547a3.356,3.356,0,0,0,3.37-3.312c0-.012,0-.024,0-.036v-3.259a7.36,7.36,0,0,0-14.719,0V397.2c0,.012,0,.024,0,.036a3.356,3.356,0,0,0,3.37,3.312Z" transform="translate(-41.879 -341.683)" fill="#f9d171"/>
        <g id="Grupo_1174551" data-name="Grupo 1174551" transform="translate(0 23.614)">
          <ellipse id="Elipse_12075" data-name="Elipse 12075" cx="9.561" cy="9.565" rx="9.561" ry="9.565" transform="matrix(0.86, -0.511, 0.511, 0.86, 0, 9.771)" fill="#ffddcf"/>
          <path id="Trazado_1027789" data-name="Trazado 1027789" d="M35.466,248.75a9.562,9.562,0,0,1,6.168-11.539,9.563,9.563,0,1,0-.59,18.291c.2-.053.392-.114.583-.179A9.553,9.553,0,0,1,35.466,248.75Z" transform="translate(-25.461 -233.169)" fill="#ffcbbe"/>
        </g>
        <ellipse id="Elipse_12076" data-name="Elipse 12076" cx="3.337" cy="2.657" rx="3.337" ry="2.657" transform="translate(12.584 36.457)" fill="#ffa1ac"/>
        <g id="Grupo_1174552" data-name="Grupo 1174552" transform="translate(9.985 9.102)">
          <path id="Trazado_1027790" data-name="Trazado 1027790" d="M83.435,94.052a9.7,9.7,0,0,1,9.7-9.7H99.1a9.7,9.7,0,0,1,9.7,9.7V94.8a9.7,9.7,0,0,1-9.7,9.7H94.38a3.423,3.423,0,0,0-1.363.283l-4.459,1.936a1.914,1.914,0,0,1-2.664-1.974l.237-2.073a2.34,2.34,0,0,0-.515-1.745A9.657,9.657,0,0,1,83.435,94.8Z" transform="translate(-83.435 -84.353)" fill="#adc0ed"/>
          <path id="Trazado_1027791" data-name="Trazado 1027791" d="M91.7,104.741l.237-2.073a2.34,2.34,0,0,0-.515-1.745A9.657,9.657,0,0,1,89.239,94.8v-.744a9.7,9.7,0,0,1,9.7-9.7h-5.8a9.7,9.7,0,0,0-9.7,9.7V94.8a9.657,9.657,0,0,0,2.181,6.127,2.34,2.34,0,0,1,.515,1.745l-.237,2.073a1.914,1.914,0,0,0,2.664,1.974l3.164-1.374A1.933,1.933,0,0,1,91.7,104.741Z" transform="translate(-83.435 -84.353)" fill="#7293df"/>
        </g>
        <g id="Grupo_1174553" data-name="Grupo 1174553" transform="translate(29.074)">
          <path id="Trazado_1027792" data-name="Trazado 1027792" d="M269.967,17.2a9.7,9.7,0,0,0-9.7-9.7h-5.962a9.7,9.7,0,0,0-9.7,9.7v.744a9.7,9.7,0,0,0,9.7,9.7h4.716a3.423,3.423,0,0,1,1.363.283l4.459,1.936a1.914,1.914,0,0,0,2.664-1.974l-.237-2.073a2.34,2.34,0,0,1,.515-1.745,9.657,9.657,0,0,0,2.181-6.127Z" transform="translate(-244.607 -7.5)" fill="#29ce69"/>
          <path id="Trazado_1027793" data-name="Trazado 1027793" d="M250.878,17.253a14.021,14.021,0,0,1,3.93-9.753h-.5a9.7,9.7,0,0,0-9.7,9.7v.744a9.7,9.7,0,0,0,9.7,9.7h1.154A14.032,14.032,0,0,1,250.878,17.253Z" transform="translate(-244.607 -7.5)" fill="#00c140"/>
        </g>
      </g>
      <g id="Grupo_1174555" data-name="Grupo 1174555" transform="translate(1.786 0.001)">
        <path id="Trazado_1027794" data-name="Trazado 1027794" d="M75.647,42.842a10.39,10.39,0,0,0,1.131-7.7,10.515,10.515,0,0,0-.973-2.534.888.888,0,1,0-1.562.846,8.682,8.682,0,0,1-5.213,12.474,8.675,8.675,0,0,1-10.83-6.24A8.755,8.755,0,0,1,64.166,29.28a8.617,8.617,0,0,1,7.615,1.348A.888.888,0,1,0,72.837,29.2a10.45,10.45,0,1,0-11.59,17.362L49.3,51.75,37.355,46.564a10.438,10.438,0,0,0,2.734-15.541h4.434a10.6,10.6,0,0,0,10.524-9.428,10.577,10.577,0,0,0,2.6.326h4.715a2.514,2.514,0,0,1,1.01.21l4.459,1.935a2.814,2.814,0,0,0,1.124.236,2.811,2.811,0,0,0,2.778-3.125L71.5,19.1a1.444,1.444,0,0,1,.321-1.083,10.612,10.612,0,0,0,2.381-6.69v-.744A10.6,10.6,0,0,0,63.612,0H57.651A10.6,10.6,0,0,0,47.126,9.429a10.57,10.57,0,0,0-2.6-.326H38.561A10.6,10.6,0,0,0,27.974,19.69v.745a10.605,10.605,0,0,0,2.381,6.688,1.5,1.5,0,0,1,.1.139A10.414,10.414,0,0,0,25.763,29.2a.888.888,0,0,0,1.056,1.429A8.648,8.648,0,0,1,30.58,29.04l-.142,1.238A2.81,2.81,0,0,0,33.216,33.4a2.817,2.817,0,0,0,1.122-.235l3.811-1.654a8.67,8.67,0,0,1-8.581,14.419c-.2-.058-.4-.123-.59-.194a8.68,8.68,0,0,1-4.622-12.279.888.888,0,1,0-1.562-.847A10.479,10.479,0,0,0,26.841,46.7a8.327,8.327,0,0,0-.692.618,8.189,8.189,0,0,0-2.416,5.833v3.258c0,.192.007.386.02.575a3.973,3.973,0,0,0,3.976,3.661h8.5a4,4,0,0,0,3.985-3.782c.008-.152.012-.283.013-.41l6.931,3.009a3.923,3.923,0,0,0,2.14.287,3.937,3.937,0,0,0,2.142-.287l6.931-3.009c0,.04,0,.079,0,.12a4.171,4.171,0,0,0,4.146,4.073h8.2A4.1,4.1,0,0,0,74.862,56.7c0-.1.005-.2.005-.3V53.147a8.2,8.2,0,0,0-3.1-6.449,10.437,10.437,0,0,0,3.884-3.855ZM48.841,10.588a8.98,8.98,0,0,1,4.935-7.912,8.807,8.807,0,0,1,3.875-.9h5.961a8.821,8.821,0,0,1,8.811,8.811v.744a8.711,8.711,0,0,1-1.98,5.567,3.251,3.251,0,0,0-.709,2.407l.238,2.072a1.026,1.026,0,0,1-1.429,1.058L64.084,20.5a4.279,4.279,0,0,0-1.718-.357H57.651a8.756,8.756,0,0,1-3.115-.567A9.006,9.006,0,0,1,48.834,11q0-.206.006-.411ZM33.631,31.539A1.026,1.026,0,0,1,32.2,30.48l.236-2.067a3.023,3.023,0,0,0,.022-.367A3.24,3.24,0,0,0,31.732,26a8.823,8.823,0,0,1-1.981-5.565V19.69a8.821,8.821,0,0,1,8.811-8.811h5.962a8.781,8.781,0,0,1,2.539.372v.081a10.649,10.649,0,0,0,6.254,9.662,8.822,8.822,0,0,1-8.793,8.252H39.807a4.292,4.292,0,0,0-1.72.358ZM46.1,57.062l-5.872-2.549V53.147a8.241,8.241,0,0,0-.917-3.8l7.977,3.463A3.956,3.956,0,0,0,46.1,57.062Zm-7.648-.657c0,.108,0,.223-.011.359a2.219,2.219,0,0,1-2.211,2.1h-8.5a2.192,2.192,0,0,1-2.2-2.008c-.01-.149-.016-.3-.016-.452V53.147A6.425,6.425,0,0,1,27.4,48.572,6.5,6.5,0,0,1,28.75,47.54c.108.035.216.069.325.1a10.481,10.481,0,0,0,2.914.416,10.366,10.366,0,0,0,3.222-.516l.112.065.021.013a6.429,6.429,0,0,1,3.109,5.529v3.258Zm12.282,1.423a2.185,2.185,0,1,1-1.742-4.009l10.3-4.474a8.209,8.209,0,0,0-.925,3.8v1.366Zm22.357-4.682v3.258c0,.074,0,.149,0,.228a2.361,2.361,0,0,1-2.366,2.232h-8.2a2.388,2.388,0,0,1-2.37-2.341c0-.039,0-.079,0-.119V53.147a6.425,6.425,0,0,1,1.895-4.575,6.524,6.524,0,0,1,1.214-.954l.021-.013.108-.063a10.291,10.291,0,0,0,3.213.516,10.534,10.534,0,0,0,2.926-.418c.109-.031.216-.067.323-.1a6.44,6.44,0,0,1,3.243,5.609Z" transform="translate(-21.53 -0.001)"/>
        <path id="Trazado_1027795" data-name="Trazado 1027795" d="M366.222,290.133v1.294a.888.888,0,1,0,1.777,0v-1.294a.888.888,0,0,0-1.777,0Z" transform="translate(-325.397 -254.987)"/>
        <path id="Trazado_1027796" data-name="Trazado 1027796" d="M132.54,294.428v-1.294a.888.888,0,0,0-1.777,0v1.294a.888.888,0,1,0,1.777,0Z" transform="translate(-117.826 -257.632)"/>
        <path id="Trazado_1027797" data-name="Trazado 1027797" d="M311.081,66.6a.888.888,0,0,0,.64.312h.036a.888.888,0,0,0,.628-.26l6.186-6.178a.888.888,0,0,0-1.255-1.257l-5.506,5.5-1.605-1.884a.888.888,0,1,0-1.352,1.152Z" transform="translate(-274.635 -51.971)"/>
        <path id="Trazado_1027798" data-name="Trazado 1027798" d="M141.312,143.588h9.307a.888.888,0,1,0,0-1.777h-9.307a.888.888,0,1,0,0,1.777Z" transform="translate(-126.342 -125.015)"/>
        <path id="Trazado_1027799" data-name="Trazado 1027799" d="M149.071,182.566a.888.888,0,0,0-.888-.888h-6.87a.888.888,0,1,0,0,1.777h6.87A.888.888,0,0,0,149.071,182.566Z" transform="translate(-126.342 -160.16)"/>
      </g>
    </g>
  </g>
</svg>
