<svg xmlns="http://www.w3.org/2000/svg" xmlns:xlink="http://www.w3.org/1999/xlink" width="110" height="110" viewBox="0 0 110 110">
  <defs>
    <filter id="Trazado_982547" x="0" y="0" width="110" height="110" filterUnits="userSpaceOnUse">
      <feOffset dy="3" input="SourceAlpha"/>
      <feGaussianBlur stdDeviation="3" result="blur"/>
      <feFlood flood-opacity="0.161"/>
      <feComposite operator="in" in2="blur"/>
      <feComposite in="SourceGraphic"/>
    </filter>
  </defs>
  <g id="Grupo_1174541" data-name="Grupo 1174541" transform="translate(-693.301 -1850)">
    <g id="Grupo_1173051" data-name="Grupo 1173051" transform="translate(-421.699 -4341)">
      <g id="Grupo_1172120" data-name="Grupo 1172120" transform="translate(0 5368)">
        <g id="Grupo_1171416" data-name="Grupo 1171416" transform="translate(-0.701 -6107)">
          <g id="Grupo_1163803" data-name="Grupo 1163803" transform="translate(-0.494 2285.316)">
            <g id="Grupo_1163015" data-name="Grupo 1163015" transform="translate(1.195 305.685)">
              <g id="Grupo_1157017" data-name="Grupo 1157017" transform="translate(0 3549)">
                <g id="Grupo_1155793" data-name="Grupo 1155793" transform="translate(-0.999 -3894)">
                  <g id="Grupo_1154704" data-name="Grupo 1154704" transform="translate(0 1466)">
                    <g id="Grupo_1150790" data-name="Grupo 1150790" transform="translate(3 2320)">
                      <g id="Grupo_1154214" data-name="Grupo 1154214" transform="translate(79 -5809)">
                        <g id="Grupo_1152583" data-name="Grupo 1152583" transform="translate(1043 6713)">
                          <g id="Grupo_1146973" data-name="Grupo 1146973" transform="translate(0 0)">
                            <g id="Grupo_1146954" data-name="Grupo 1146954">
                              <g transform="matrix(1, 0, 0, 1, -9, -6)" filter="url(#Trazado_982547)">
                                <g id="Trazado_982547-2" data-name="Trazado 982547" transform="translate(9 6)" fill="#f2f7f5">
                                  <path d="M 46 90.49987030029297 C 39.99187850952148 90.49987030029297 34.16426849365234 89.32350921630859 28.67905426025391 87.00345611572266 C 23.38019943237305 84.76224517822266 18.62104034423828 81.55341339111328 14.53374671936035 77.46613311767578 C 10.44646644592285 73.37885284423828 7.237639904022217 68.61969757080078 4.996413230895996 63.32085418701172 C 2.676359891891479 57.83565521240234 1.5 52.008056640625 1.5 45.99993515014648 C 1.5 39.99181365966797 2.676359891891479 34.16421508789062 4.996413230895996 28.67901420593262 C 7.237639904022217 23.38017463684082 10.44646644592285 18.62101554870605 14.53374671936035 14.53373527526855 C 18.62104034423828 10.44645500183105 23.38019943237305 7.23762845993042 28.67905426025391 4.996415138244629 C 34.16426849365234 2.676361799240112 39.99187850952148 1.500001788139343 46 1.500001788139343 C 52.00812149047852 1.500001788139343 57.83573150634766 2.676361799240112 63.32094573974609 4.996415138244629 C 68.61979675292969 7.23762845993042 73.37895965576172 10.44645500183105 77.46625518798828 14.53373527526855 C 81.55353546142578 18.62101554870605 84.76235961914062 23.38017463684082 87.00358581542969 28.67901420593262 C 89.32363891601562 34.16421508789062 90.5 39.99181365966797 90.5 45.99993515014648 C 90.5 52.008056640625 89.32363891601562 57.83565521240234 87.00358581542969 63.32085418701172 C 84.76235961914062 68.61969757080078 81.55353546142578 73.37885284423828 77.46625518798828 77.46613311767578 C 73.37895965576172 81.55341339111328 68.61979675292969 84.76224517822266 63.32094573974609 87.00345611572266 C 57.83573150634766 89.32350921630859 52.00812149047852 90.49987030029297 46 90.49987030029297 Z" stroke="none"/>
                                  <path d="M 46 2.999992370605469 C 40.1937141418457 2.999992370605469 34.56269836425781 4.136489868164062 29.26337051391602 6.377906799316406 C 24.14332580566406 8.543502807617188 19.54441070556641 11.64437866210938 15.59439849853516 15.59437561035156 C 11.64440155029297 19.54439544677734 8.54351806640625 24.14329528808594 6.377914428710938 29.26333618164062 C 4.136497497558594 34.56264877319336 3 40.19366455078125 3 45.99993515014648 C 3 51.80620574951172 4.136497497558594 57.43720626831055 6.377914428710938 62.73651885986328 C 8.54351806640625 67.8565673828125 11.64440155029297 72.45545959472656 15.59439849853516 76.40547943115234 C 19.54441070556641 80.35547637939453 24.14332580566406 83.45635223388672 29.26337051391602 85.6219482421875 C 34.56269836425781 87.86336517333984 40.1937141418457 88.99986267089844 46 88.99986267089844 C 51.8062858581543 88.99986267089844 57.43730163574219 87.86336517333984 62.73661422729492 85.6219482421875 C 67.85667419433594 83.45635223388672 72.45557403564453 80.35547637939453 76.40558624267578 76.40547943115234 C 80.35559844970703 72.45545959472656 83.45647430419922 67.8565673828125 85.6220703125 62.73651885986328 C 87.86350250244141 57.43720626831055 89 51.80620574951172 89 45.99993515014648 C 89 40.19366455078125 87.86350250244141 34.56264877319336 85.6220703125 29.26333618164062 C 83.45647430419922 24.14329528808594 80.35559844970703 19.54439544677734 76.40558624267578 15.59437561035156 C 72.45557403564453 11.64437866210938 67.85667419433594 8.543502807617188 62.73661422729492 6.377906799316406 C 57.43730163574219 4.136489868164062 51.8062858581543 2.999992370605469 46 2.999992370605469 M 46 -7.62939453125e-06 C 71.40509033203125 -7.62939453125e-06 92 20.59486389160156 92 45.99993515014648 C 92 71.40499114990234 71.40509033203125 91.99986267089844 46 91.99986267089844 C 20.59490203857422 91.99986267089844 0 71.40499114990234 0 45.99993515014648 C 0 20.59486389160156 20.59490203857422 -7.62939453125e-06 46 -7.62939453125e-06 Z" stroke="none" fill="#88bba9"/>
                                </g>
                              </g>
                            </g>
                          </g>
                        </g>
                      </g>
                    </g>
                  </g>
                </g>
              </g>
            </g>
          </g>
        </g>
      </g>
    </g>
    <g id="organization-chart" transform="translate(719.237 1873)">
      <g id="Grupo_1174540" data-name="Grupo 1174540" transform="translate(1.888 0.824)">
        <g id="Grupo_1174539" data-name="Grupo 1174539" transform="translate(0)">
          <path id="Trazado_1027756" data-name="Trazado 1027756" d="M15.162,216.206H9.58a1.017,1.017,0,0,1-1.017-1.017v-9.347a1.017,1.017,0,0,1,1.017-1.017h5.582a1.017,1.017,0,0,1,1.017,1.017v9.347A1.017,1.017,0,0,1,15.162,216.206Z" transform="translate(-8.563 -183.136)" fill="#ea9a98"/>
          <path id="Trazado_1027757" data-name="Trazado 1027757" d="M11.762,214.185a1.018,1.018,0,0,1-1.017-1.017v-8.343H9.58a1.017,1.017,0,0,0-1.017,1.017v9.347a1.017,1.017,0,0,0,1.017,1.017h5.582a1.017,1.017,0,0,0,1.017-1.017v-1Z" transform="translate(-8.563 -183.137)" fill="#e5827f"/>
          <path id="Trazado_1027758" data-name="Trazado 1027758" d="M163.29,31.21H149.514a1.549,1.549,0,0,1-1.549-1.549V9.049A1.549,1.549,0,0,1,149.514,7.5H163.29a1.549,1.549,0,0,1,1.549,1.549V29.661A1.549,1.549,0,0,1,163.29,31.21Z" transform="translate(-132.643 -7.5)" fill="#cfeffc"/>
          <path id="Trazado_1027759" data-name="Trazado 1027759" d="M163.29,289.988H149.514a1.549,1.549,0,0,0-1.549,1.549v20.613a1.549,1.549,0,0,0,1.549,1.549H163.29a1.549,1.549,0,0,0,1.549-1.549V291.537A1.549,1.549,0,0,0,163.29,289.988Z" transform="translate(-132.643 -258.939)" fill="#cfeffc"/>
          <path id="Trazado_1027760" data-name="Trazado 1027760" d="M154.114,28.132a1.549,1.549,0,0,1-1.549-1.549V7.5h-3.051a1.549,1.549,0,0,0-1.549,1.549V29.661a1.549,1.549,0,0,0,1.549,1.549H163.29a1.549,1.549,0,0,0,1.549-1.549V28.132Z" transform="translate(-132.643 -7.5)" fill="#a9e4f9"/>
          <path id="Trazado_1027761" data-name="Trazado 1027761" d="M154.114,310.62a1.549,1.549,0,0,1-1.549-1.549V289.988h-3.051a1.549,1.549,0,0,0-1.549,1.549v20.613a1.549,1.549,0,0,0,1.549,1.549H163.29a1.549,1.549,0,0,0,1.549-1.549V310.62H154.114Z" transform="translate(-132.643 -258.939)" fill="#a9e4f9"/>
          <path id="Trazado_1027762" data-name="Trazado 1027762" d="M435.992,16.97h-6.353a1.058,1.058,0,0,1-1.058-1.058V9.558A1.058,1.058,0,0,1,429.638,8.5h6.353a1.058,1.058,0,0,1,1.058,1.058v6.353A1.058,1.058,0,0,1,435.992,16.97Z" transform="translate(-382.415 -8.39)" fill="#fbe88c"/>
          <path id="Trazado_1027763" data-name="Trazado 1027763" d="M435.992,145.156h-6.353a1.058,1.058,0,0,0-1.058,1.058v6.353a1.058,1.058,0,0,0,1.058,1.058h6.353a1.058,1.058,0,0,0,1.058-1.058v-6.353A1.058,1.058,0,0,0,435.992,145.156Z" transform="translate(-382.415 -130.026)" fill="#fbe88c"/>
          <path id="Trazado_1027764" data-name="Trazado 1027764" d="M432.4,15.058A1.058,1.058,0,0,1,431.338,14V8.5h-1.7a1.058,1.058,0,0,0-1.058,1.058v6.353a1.058,1.058,0,0,0,1.058,1.058h6.353a1.058,1.058,0,0,0,1.058-1.058v-.853Z" transform="translate(-382.415 -8.39)" fill="#fbe372"/>
          <path id="Trazado_1027765" data-name="Trazado 1027765" d="M432.4,151.714a1.058,1.058,0,0,1-1.058-1.058v-5.5h-1.7a1.058,1.058,0,0,0-1.058,1.058v6.353a1.058,1.058,0,0,0,1.058,1.058h6.353a1.058,1.058,0,0,0,1.058-1.058v-.853Z" transform="translate(-382.415 -130.026)" fill="#fbe372"/>
          <path id="Trazado_1027766" data-name="Trazado 1027766" d="M435.992,429.644h-6.353a1.058,1.058,0,0,0-1.058,1.058v6.353a1.058,1.058,0,0,0,1.058,1.058h6.353a1.058,1.058,0,0,0,1.058-1.058V430.7A1.058,1.058,0,0,0,435.992,429.644Z" transform="translate(-382.415 -383.246)" fill="#b8de9c"/>
          <path id="Trazado_1027767" data-name="Trazado 1027767" d="M435.992,301.457h-6.353a1.058,1.058,0,0,1-1.058-1.058v-6.353a1.058,1.058,0,0,1,1.058-1.058h6.353a1.058,1.058,0,0,1,1.058,1.058V300.4A1.058,1.058,0,0,1,435.992,301.457Z" transform="translate(-382.415 -261.609)" fill="#b8de9c"/>
          <g id="Grupo_1174538" data-name="Grupo 1174538" transform="translate(46.165 31.378)">
            <path id="Trazado_1027768" data-name="Trazado 1027768" d="M432.144,436.345a1.058,1.058,0,0,1-1.058-1.058v-5.642h-1.447a1.058,1.058,0,0,0-1.058,1.058v6.353a1.058,1.058,0,0,0,1.058,1.058h6.353a1.058,1.058,0,0,0,1.058-1.058v-.711h-4.906Z" transform="translate(-428.58 -414.625)" fill="#a6d786"/>
            <path id="Trazado_1027769" data-name="Trazado 1027769" d="M432.144,299.688a1.058,1.058,0,0,1-1.058-1.058v-5.642h-1.447a1.058,1.058,0,0,0-1.058,1.058V300.4a1.058,1.058,0,0,0,1.058,1.058h6.353a1.058,1.058,0,0,0,1.058-1.058v-.711Z" transform="translate(-428.58 -292.988)" fill="#a6d786"/>
          </g>
        </g>
      </g>
      <path id="Trazado_1027770" data-name="Trazado 1027770" d="M49.111,10.228h6.353a1.885,1.885,0,0,0,1.883-1.883V1.993A1.885,1.885,0,0,0,55.465.11H49.111a1.885,1.885,0,0,0-1.883,1.883V4.345H40.5a.824.824,0,0,0-.824.824v6.686H34.908V2.373A2.376,2.376,0,0,0,32.535,0H18.759a2.376,2.376,0,0,0-2.373,2.373v9.482H14.157a1.638,1.638,0,0,0-1.636,1.636v14H10.329V23.53a1.844,1.844,0,0,0-1.842-1.842H2.906A1.844,1.844,0,0,0,1.064,23.53v9.347a1.844,1.844,0,0,0,1.842,1.842H8.488a1.844,1.844,0,0,0,1.842-1.842V29.138h2.192V42.916a1.638,1.638,0,0,0,1.636,1.636h2.229v9.482a2.376,2.376,0,0,0,2.373,2.373H32.535a2.376,2.376,0,0,0,2.373-2.373V50.457a.824.824,0,0,0-1.649,0v3.577a.725.725,0,0,1-.724.724H18.759a.725.725,0,0,1-.724-.724V33.422a.725.725,0,0,1,.724-.724H32.535a.725.725,0,0,1,.724.724v13.52a.824.824,0,1,0,1.649,0V44.772h4.764v6.686a.824.824,0,0,0,.824.824h6.732v2.352a1.885,1.885,0,0,0,1.883,1.883h6.353a1.885,1.885,0,0,0,1.883-1.883V48.281A1.885,1.885,0,0,0,55.465,46.4H54.031a.824.824,0,1,0,0,1.649h1.433a.234.234,0,0,1,.234.234v6.353a.234.234,0,0,1-.234.234H49.111a.234.234,0,0,1-.234-.234V48.281a.234.234,0,0,1,.234-.234h1.4a.824.824,0,1,0,0-1.649h-1.4a1.885,1.885,0,0,0-1.883,1.883v2.352H41.321V37.262h5.907v2.352A1.885,1.885,0,0,0,49.111,41.5h6.353a1.885,1.885,0,0,0,1.883-1.883V33.261a1.885,1.885,0,0,0-1.883-1.883H49.111a1.885,1.885,0,0,0-1.883,1.883v2.352H40.5a.824.824,0,0,0-.824.824v6.686H34.908v-9.7a2.376,2.376,0,0,0-2.373-2.373H18.759a2.376,2.376,0,0,0-2.373,2.373V42.9H14.169V13.5h2.216v3.278a.824.824,0,0,0,1.649,0V2.373a.725.725,0,0,1,.724-.724H32.535a.725.725,0,0,1,.724.724V22.986a.725.725,0,0,1-.724.724H18.759a.725.725,0,0,1-.724-.724V20.3a.824.824,0,0,0-1.649,0v2.689a2.376,2.376,0,0,0,2.373,2.373H32.535a2.376,2.376,0,0,0,2.373-2.373V13.5h4.764v6.686a.824.824,0,0,0,.824.824h6.732v2.352a1.885,1.885,0,0,0,1.883,1.883h6.353a1.885,1.885,0,0,0,1.883-1.883V17.013a1.885,1.885,0,0,0-1.883-1.883H49.111a1.885,1.885,0,0,0-1.883,1.883v2.352H41.321V5.993h5.907V8.346a1.885,1.885,0,0,0,1.882,1.883ZM8.681,32.877a.193.193,0,0,1-.193.193H2.906a.193.193,0,0,1-.193-.193V23.53a.193.193,0,0,1,.193-.193H8.488a.193.193,0,0,1,.193.193Zm40.2.384a.234.234,0,0,1,.234-.234h6.353a.234.234,0,0,1,.234.234v6.353a.234.234,0,0,1-.234.234H49.111a.234.234,0,0,1-.234-.234Zm0-16.248a.234.234,0,0,1,.234-.234h6.353a.234.234,0,0,1,.234.234v6.353a.234.234,0,0,1-.234.234H49.111a.234.234,0,0,1-.234-.234Zm0-15.02a.234.234,0,0,1,.234-.234h6.353a.234.234,0,0,1,.234.234V8.346a.234.234,0,0,1-.234.234H49.111a.234.234,0,0,1-.234-.234Z" transform="translate(0)"/>
    </g>
  </g>
</svg>
