<svg xmlns="http://www.w3.org/2000/svg" xmlns:xlink="http://www.w3.org/1999/xlink" width="110" height="110" viewBox="0 0 110 110">
  <defs>
    <filter id="Trazado_982547" x="0" y="0" width="110" height="110" filterUnits="userSpaceOnUse">
      <feOffset dy="3" input="SourceAlpha"/>
      <feGaussianBlur stdDeviation="3" result="blur"/>
      <feFlood flood-opacity="0.161"/>
      <feComposite operator="in" in2="blur"/>
      <feComposite in="SourceGraphic"/>
    </filter>
  </defs>
  <g id="Grupo_1174543" data-name="Grupo 1174543" transform="translate(-378.301 -1850)">
    <g id="Grupo_1174537" data-name="Grupo 1174537">
      <g id="Grupo_1173033" data-name="Grupo 1173033" transform="translate(-421.699 -4340)">
        <g id="Grupo_1172119" data-name="Grupo 1172119" transform="translate(0 5368)">
          <g id="Grupo_1171414" data-name="Grupo 1171414" transform="translate(-0.701 -6107)">
            <g id="Grupo_1163801" data-name="Grupo 1163801" transform="translate(-0.299 2285)">
              <g id="Grupo_1163014" data-name="Grupo 1163014" transform="translate(1 306)">
                <g id="Grupo_1157015" data-name="Grupo 1157015" transform="translate(0 3549)">
                  <g id="Grupo_1155792" data-name="Grupo 1155792" transform="translate(-1 -3894.666)">
                    <g id="Grupo_1154703" data-name="Grupo 1154703" transform="translate(0 1465.666)">
                      <g id="Grupo_1150789" data-name="Grupo 1150789" transform="translate(3 2320)">
                        <g id="Grupo_1154212" data-name="Grupo 1154212" transform="translate(-236 -5809)">
                          <g id="Grupo_1152583" data-name="Grupo 1152583" transform="translate(1043 6713)">
                            <g id="Grupo_1146973" data-name="Grupo 1146973" transform="translate(0 0)">
                              <g id="Grupo_1146954" data-name="Grupo 1146954">
                                <g transform="matrix(1, 0, 0, 1, -9, -6)" filter="url(#Trazado_982547)">
                                  <g id="Trazado_982547-2" data-name="Trazado 982547" transform="translate(9 6)" fill="#f2f7f5">
                                    <path d="M 46 90.49987030029297 C 39.99187850952148 90.49987030029297 34.16426849365234 89.32350921630859 28.67905426025391 87.00345611572266 C 23.38019943237305 84.76224517822266 18.62104034423828 81.55341339111328 14.53374671936035 77.46613311767578 C 10.44646644592285 73.37885284423828 7.237639904022217 68.61969757080078 4.996413230895996 63.32085418701172 C 2.676359891891479 57.83565521240234 1.5 52.008056640625 1.5 45.99993515014648 C 1.5 39.99181365966797 2.676359891891479 34.16421508789062 4.996413230895996 28.67901420593262 C 7.237639904022217 23.38017463684082 10.44646644592285 18.62101554870605 14.53374671936035 14.53373527526855 C 18.62104034423828 10.44645500183105 23.38019943237305 7.23762845993042 28.67905426025391 4.996415138244629 C 34.16426849365234 2.676361799240112 39.99187850952148 1.500001788139343 46 1.500001788139343 C 52.00812149047852 1.500001788139343 57.83573150634766 2.676361799240112 63.32094573974609 4.996415138244629 C 68.61979675292969 7.23762845993042 73.37895965576172 10.44645500183105 77.46625518798828 14.53373527526855 C 81.55353546142578 18.62101554870605 84.76235961914062 23.38017463684082 87.00358581542969 28.67901420593262 C 89.32363891601562 34.16421508789062 90.5 39.99181365966797 90.5 45.99993515014648 C 90.5 52.008056640625 89.32363891601562 57.83565521240234 87.00358581542969 63.32085418701172 C 84.76235961914062 68.61969757080078 81.55353546142578 73.37885284423828 77.46625518798828 77.46613311767578 C 73.37895965576172 81.55341339111328 68.61979675292969 84.76224517822266 63.32094573974609 87.00345611572266 C 57.83573150634766 89.32350921630859 52.00812149047852 90.49987030029297 46 90.49987030029297 Z" stroke="none"/>
                                    <path d="M 46 2.999992370605469 C 40.1937141418457 2.999992370605469 34.56269836425781 4.136489868164062 29.26337051391602 6.377906799316406 C 24.14332580566406 8.543502807617188 19.54441070556641 11.64437866210938 15.59439849853516 15.59437561035156 C 11.64440155029297 19.54439544677734 8.54351806640625 24.14329528808594 6.377914428710938 29.26333618164062 C 4.136497497558594 34.56264877319336 3 40.19366455078125 3 45.99993515014648 C 3 51.80620574951172 4.136497497558594 57.43720626831055 6.377914428710938 62.73651885986328 C 8.54351806640625 67.8565673828125 11.64440155029297 72.45545959472656 15.59439849853516 76.40547943115234 C 19.54441070556641 80.35547637939453 24.14332580566406 83.45635223388672 29.26337051391602 85.6219482421875 C 34.56269836425781 87.86336517333984 40.1937141418457 88.99986267089844 46 88.99986267089844 C 51.8062858581543 88.99986267089844 57.43730163574219 87.86336517333984 62.73661422729492 85.6219482421875 C 67.85667419433594 83.45635223388672 72.45557403564453 80.35547637939453 76.40558624267578 76.40547943115234 C 80.35559844970703 72.45545959472656 83.45647430419922 67.8565673828125 85.6220703125 62.73651885986328 C 87.86350250244141 57.43720626831055 89 51.80620574951172 89 45.99993515014648 C 89 40.19366455078125 87.86350250244141 34.56264877319336 85.6220703125 29.26333618164062 C 83.45647430419922 24.14329528808594 80.35559844970703 19.54439544677734 76.40558624267578 15.59437561035156 C 72.45557403564453 11.64437866210938 67.85667419433594 8.543502807617188 62.73661422729492 6.377906799316406 C 57.43730163574219 4.136489868164062 51.8062858581543 2.999992370605469 46 2.999992370605469 M 46 -7.62939453125e-06 C 71.40509033203125 -7.62939453125e-06 92 20.59486389160156 92 45.99993515014648 C 92 71.40499114990234 71.40509033203125 91.99986267089844 46 91.99986267089844 C 20.59490203857422 91.99986267089844 0 71.40499114990234 0 45.99993515014648 C 0 20.59486389160156 20.59490203857422 -7.62939453125e-06 46 -7.62939453125e-06 Z" stroke="none" fill="#88bba9"/>
                                  </g>
                                </g>
                              </g>
                            </g>
                          </g>
                        </g>
                      </g>
                    </g>
                  </g>
                </g>
              </g>
            </g>
          </g>
        </g>
      </g>
    </g>
    <g id="data" transform="translate(389.151 1871)">
      <path id="Trazado_1027771" data-name="Trazado 1027771" d="M141.155,126.115v-6.6l-4.209-.658a14.588,14.588,0,0,0-1.34-3.232l2.512-3.442-4.668-4.668-3.442,2.512a14.583,14.583,0,0,0-3.232-1.341l-.658-4.209h-6.6l-.658,4.209a14.577,14.577,0,0,0-3.233,1.341l-3.442-2.512-4.668,4.668,2.512,3.442a14.577,14.577,0,0,0-1.34,3.232l-4.209.658v6.6l4.209.658a14.583,14.583,0,0,0,1.34,3.233l-2.512,3.442,4.668,4.668,3.442-2.512a14.582,14.582,0,0,0,3.233,1.341l.658,4.209h6.6l.658-4.209a14.577,14.577,0,0,0,3.232-1.341l3.442,2.512,4.668-4.668-2.512-3.442a14.576,14.576,0,0,0,1.34-3.233Z" transform="translate(-78.516 -91.83)" fill="#c5d3dd"/>
      <path id="Trazado_1027772" data-name="Trazado 1027772" d="M167.237,155.126v-6.6l-4.209-.658a14.589,14.589,0,0,0-1.34-3.233l2.512-3.442-3.711-3.711a22.781,22.781,0,0,1-26.339,25.533l4.114,4.114,3.442-2.512a14.583,14.583,0,0,0,3.232,1.341l.658,4.209h6.6l.658-4.209a14.577,14.577,0,0,0,3.233-1.341l3.442,2.512,4.668-4.668-2.512-3.442a14.578,14.578,0,0,0,1.34-3.233Z" transform="translate(-104.597 -120.841)" fill="#b6c4cf"/>
      <path id="Trazado_1027773" data-name="Trazado 1027773" d="M55.337,10.788l-4.79-3.193a.563.563,0,0,0-.875.469v1.3A28.241,28.241,0,0,0,30.924,57.547l2.594-2.594A24.575,24.575,0,0,1,49.672,13.032v1.24a.563.563,0,0,0,.875.469l4.79-3.193a.457.457,0,0,0,0-.76Z" transform="translate(-6.594 -6.592)" fill="#bbec6c"/>
      <path id="Trazado_1027774" data-name="Trazado 1027774" d="M217.817,137.757l4.79,3.193a.563.563,0,0,0,.875-.469v-1.3A28.241,28.241,0,0,0,242.23,91l-2.594,2.594a24.575,24.575,0,0,1-16.154,41.921v-1.24a.563.563,0,0,0-.875-.469L217.817,137a.457.457,0,0,0,0,.76Z" transform="translate(-177.96 -79.984)" fill="#a2e62e"/>
      <path id="Trazado_1027775" data-name="Trazado 1027775" d="M208.839,198.576H196.613a1.223,1.223,0,0,1-1.223-1.223V181.46a1.223,1.223,0,0,1,1.223-1.223h12.226a1.223,1.223,0,0,1,1.223,1.223v15.894A1.223,1.223,0,0,1,208.839,198.576Z" transform="translate(-158.425 -158.423)" fill="#f8f6f6"/>
      <g id="Grupo_1174542" data-name="Grupo 1174542" transform="translate(15.15 0)">
        <path id="Trazado_1027776" data-name="Trazado 1027776" d="M112.029,134.707a.908.908,0,0,0,.9.767h6.6a.908.908,0,0,0,.9-.767l.57-3.644a15.539,15.539,0,0,0,2.351-.976l2.98,2.176a.908.908,0,0,0,1.177-.091l4.668-4.668a.908.908,0,0,0,.091-1.177l-2.176-2.98a15.545,15.545,0,0,0,.976-2.351l3.644-.57a.908.908,0,0,0,.767-.9v-6.6a.908.908,0,0,0-.767-.9l-3.644-.57a15.54,15.54,0,0,0-.976-2.351l2.176-2.98a.908.908,0,0,0-.091-1.177l-.851-.851a.908.908,0,1,0-1.284,1.284l.3.3-2.054,2.814a.908.908,0,0,0-.058.98,13.721,13.721,0,0,1,1.258,3.032.908.908,0,0,0,.734.652l3.441.538v5.047l-3.441.538a.908.908,0,0,0-.734.652,13.717,13.717,0,0,1-1.258,3.032.908.908,0,0,0,.058.98l2.055,2.814-3.569,3.569-2.814-2.055a.908.908,0,0,0-.98-.058,13.72,13.72,0,0,1-3.032,1.258.908.908,0,0,0-.652.734l-.538,3.441H113.7l-.538-3.441a.908.908,0,0,0-.652-.734,13.717,13.717,0,0,1-3.032-1.258.908.908,0,0,0-.98.058l-2.814,2.054-3.569-3.569,2.055-2.814a.908.908,0,0,0,.058-.98,13.72,13.72,0,0,1-1.258-3.032.908.908,0,0,0-.734-.653l-3.441-.538V113.7l3.441-.538a.908.908,0,0,0,.734-.652,13.716,13.716,0,0,1,1.258-3.032.908.908,0,0,0-.058-.98l-2.055-2.814,3.569-3.569,2.814,2.054a.908.908,0,0,0,.98.058,13.719,13.719,0,0,1,3.032-1.258.908.908,0,0,0,.652-.734L113.7,98.8h5.047l.538,3.441a.908.908,0,0,0,.652.734,13.717,13.717,0,0,1,3.032,1.258.908.908,0,0,0,.98-.058l2.814-2.054.272.272a.908.908,0,0,0,1.284-1.284l-.822-.822a.907.907,0,0,0-1.177-.091l-2.98,2.176a15.544,15.544,0,0,0-2.351-.976l-.57-3.644a.908.908,0,0,0-.9-.767h-6.6a.908.908,0,0,0-.9.767l-.57,3.644a15.539,15.539,0,0,0-2.351.976l-2.98-2.176a.908.908,0,0,0-1.177.091l-4.668,4.668a.908.908,0,0,0-.091,1.177l2.176,2.98a15.543,15.543,0,0,0-.976,2.351l-3.644.57a.908.908,0,0,0-.767.9v6.6a.908.908,0,0,0,.767.9l3.644.57a15.538,15.538,0,0,0,.976,2.351l-2.176,2.98a.908.908,0,0,0,.091,1.177l4.668,4.668a.908.908,0,0,0,1.177.091l2.98-2.176a15.544,15.544,0,0,0,2.351.976Z" transform="translate(-87.076 -85.244)"/>
        <path id="Trazado_1027777" data-name="Trazado 1027777" d="M20.634,30.984A23.668,23.668,0,0,1,42.17,7.412v.268A1.471,1.471,0,0,0,44.456,8.9l4.791-3.193a1.366,1.366,0,0,0,0-2.272L44.459.248A1.471,1.471,0,0,0,42.17,1.471v.442A29.148,29.148,0,0,0,19,16.5a.908.908,0,1,0,1.575.9A27.332,27.332,0,0,1,43.117,3.676a.908.908,0,0,0,.869-.907V2.115l3.692,2.461L43.986,7.036v-.6a.908.908,0,0,0-.952-.907A25.482,25.482,0,0,0,25.651,48.349L24.341,49.66A27.371,27.371,0,0,1,18.808,21.1a.908.908,0,1,0-1.692-.657A29.184,29.184,0,0,0,23.688,51.6a.908.908,0,0,0,1.284,0L27.566,49a.908.908,0,0,0,0-1.284A23.507,23.507,0,0,1,20.634,30.984Z" transform="translate(-15.15 0)"/>
        <path id="Trazado_1027778" data-name="Trazado 1027778" d="M236.276,83.766a.908.908,0,0,0-1.284,0L232.4,86.36a.908.908,0,0,0,0,1.284,23.673,23.673,0,0,1,3.131,29.6.908.908,0,0,0,1.523.988,25.49,25.49,0,0,0-2.74-31.221l1.311-1.311a27.334,27.334,0,0,1-18.776,45.984.908.908,0,0,0-.869.907v.654l-3.692-2.461,3.692-2.461v.6a.908.908,0,0,0,.952.907,25.316,25.316,0,0,0,17.425-8.134.908.908,0,0,0-1.332-1.234,23.506,23.506,0,0,1-15.23,7.489v-.268a1.471,1.471,0,0,0-2.286-1.224l-4.791,3.193a1.366,1.366,0,0,0,0,2.272l4.788,3.191a1.471,1.471,0,0,0,2.289-1.222v-.442a29.149,29.149,0,0,0,18.482-49.684Z" transform="translate(-186.514 -73.394)"/>
        <path id="Trazado_1027779" data-name="Trazado 1027779" d="M223.377,203.042h-8.314a.908.908,0,1,0,0,1.815h8.314a.908.908,0,0,0,0-1.815Z" transform="translate(-190.069 -178.468)"/>
        <path id="Trazado_1027780" data-name="Trazado 1027780" d="M223.377,233.348h-8.314a.908.908,0,1,0,0,1.815h8.314a.908.908,0,1,0,0-1.815Z" transform="translate(-190.069 -205.106)"/>
        <path id="Trazado_1027781" data-name="Trazado 1027781" d="M219.219,293.958h-4.157a.908.908,0,0,0,0,1.815h4.157a.908.908,0,1,0,0-1.815Z" transform="translate(-190.068 -258.38)"/>
        <path id="Trazado_1027782" data-name="Trazado 1027782" d="M223.377,263.652h-8.314a.908.908,0,1,0,0,1.815h8.314a.908.908,0,1,0,0-1.815Z" transform="translate(-190.069 -231.742)"/>
        <path id="Trazado_1027783" data-name="Trazado 1027783" d="M202.246,172.738H190.02a2.133,2.133,0,0,0-2.13,2.13v15.894a2.133,2.133,0,0,0,2.13,2.13h12.226a2.133,2.133,0,0,0,2.13-2.13V174.868A2.133,2.133,0,0,0,202.246,172.738Zm.315,18.024a.315.315,0,0,1-.315.315H190.02a.315.315,0,0,1-.315-.315V174.868a.315.315,0,0,1,.315-.315h12.226a.315.315,0,0,1,.315.315v15.894Z" transform="translate(-166.983 -151.831)"/>
      </g>
    </g>
  </g>
</svg>
