<svg xmlns="http://www.w3.org/2000/svg" xmlns:xlink="http://www.w3.org/1999/xlink" width="110" height="110" viewBox="0 0 110 110">
  <defs>
    <filter id="Trazado_982547" x="0" y="0" width="110" height="110" filterUnits="userSpaceOnUse">
      <feOffset dy="3" input="SourceAlpha"/>
      <feGaussianBlur stdDeviation="3" result="blur"/>
      <feFlood flood-opacity="0.161"/>
      <feComposite operator="in" in2="blur"/>
      <feComposite in="SourceGraphic"/>
    </filter>
  </defs>
  <g id="Grupo_1199809" data-name="Grupo 1199809" transform="translate(-363.301 -7750)">
    <g id="Grupo_1173080" data-name="Grupo 1173080" transform="translate(372.301 7756)">
      <g id="Grupo_1172181" data-name="Grupo 1172181" transform="translate(0)">
        <g id="Grupo_1171414" data-name="Grupo 1171414">
          <g id="Grupo_1163801" data-name="Grupo 1163801">
            <g id="Grupo_1163014" data-name="Grupo 1163014">
              <g id="Grupo_1157015" data-name="Grupo 1157015" transform="translate(0 0)">
                <g id="Grupo_1155792" data-name="Grupo 1155792">
                  <g id="Grupo_1154703" data-name="Grupo 1154703">
                    <g id="Grupo_1150789" data-name="Grupo 1150789">
                      <g id="Grupo_1154212" data-name="Grupo 1154212">
                        <g id="Grupo_1152583" data-name="Grupo 1152583">
                          <g id="Grupo_1146973" data-name="Grupo 1146973" transform="translate(0 0)">
                            <g id="Grupo_1146954" data-name="Grupo 1146954">
                              <g transform="matrix(1, 0, 0, 1, -9, -6)" filter="url(#Trazado_982547)">
                                <g id="Trazado_982547-2" data-name="Trazado 982547" transform="translate(9 6)" fill="#f2f7f5">
                                  <path d="M 46 90.49987030029297 C 39.99187850952148 90.49987030029297 34.16426849365234 89.32350921630859 28.67905426025391 87.00345611572266 C 23.38019943237305 84.76224517822266 18.62104034423828 81.55341339111328 14.53374671936035 77.46613311767578 C 10.44646644592285 73.37885284423828 7.237639904022217 68.61969757080078 4.996413230895996 63.32085418701172 C 2.676359891891479 57.83565521240234 1.5 52.008056640625 1.5 45.99993515014648 C 1.5 39.99181365966797 2.676359891891479 34.16421508789062 4.996413230895996 28.67901420593262 C 7.237639904022217 23.38017463684082 10.44646644592285 18.62101554870605 14.53374671936035 14.53373527526855 C 18.62104034423828 10.44645500183105 23.38019943237305 7.23762845993042 28.67905426025391 4.996415138244629 C 34.16426849365234 2.676361799240112 39.99187850952148 1.500001788139343 46 1.500001788139343 C 52.00812149047852 1.500001788139343 57.83573150634766 2.676361799240112 63.32094573974609 4.996415138244629 C 68.61979675292969 7.23762845993042 73.37895965576172 10.44645500183105 77.46625518798828 14.53373527526855 C 81.55353546142578 18.62101554870605 84.76235961914062 23.38017463684082 87.00358581542969 28.67901420593262 C 89.32363891601562 34.16421508789062 90.5 39.99181365966797 90.5 45.99993515014648 C 90.5 52.008056640625 89.32363891601562 57.83565521240234 87.00358581542969 63.32085418701172 C 84.76235961914062 68.61969757080078 81.55353546142578 73.37885284423828 77.46625518798828 77.46613311767578 C 73.37895965576172 81.55341339111328 68.61979675292969 84.76224517822266 63.32094573974609 87.00345611572266 C 57.83573150634766 89.32350921630859 52.00812149047852 90.49987030029297 46 90.49987030029297 Z" stroke="none"/>
                                  <path d="M 46 2.999992370605469 C 40.1937141418457 2.999992370605469 34.56269836425781 4.136489868164062 29.26337051391602 6.377906799316406 C 24.14332580566406 8.543502807617188 19.54441070556641 11.64437866210938 15.59439849853516 15.59437561035156 C 11.64440155029297 19.54439544677734 8.54351806640625 24.14329528808594 6.377914428710938 29.26333618164062 C 4.136497497558594 34.56264877319336 3 40.19366455078125 3 45.99993515014648 C 3 51.80620574951172 4.136497497558594 57.43720626831055 6.377914428710938 62.73651885986328 C 8.54351806640625 67.8565673828125 11.64440155029297 72.45545959472656 15.59439849853516 76.40547943115234 C 19.54441070556641 80.35547637939453 24.14332580566406 83.45635223388672 29.26337051391602 85.6219482421875 C 34.56269836425781 87.86336517333984 40.1937141418457 88.99986267089844 46 88.99986267089844 C 51.8062858581543 88.99986267089844 57.43730163574219 87.86336517333984 62.73661422729492 85.6219482421875 C 67.85667419433594 83.45635223388672 72.45557403564453 80.35547637939453 76.40558624267578 76.40547943115234 C 80.35559844970703 72.45545959472656 83.45647430419922 67.8565673828125 85.6220703125 62.73651885986328 C 87.86350250244141 57.43720626831055 89 51.80620574951172 89 45.99993515014648 C 89 40.19366455078125 87.86350250244141 34.56264877319336 85.6220703125 29.26333618164062 C 83.45647430419922 24.14329528808594 80.35559844970703 19.54439544677734 76.40558624267578 15.59437561035156 C 72.45557403564453 11.64437866210938 67.85667419433594 8.543502807617188 62.73661422729492 6.377906799316406 C 57.43730163574219 4.136489868164062 51.8062858581543 2.999992370605469 46 2.999992370605469 M 46 -7.62939453125e-06 C 71.40509033203125 -7.62939453125e-06 92 20.59486389160156 92 45.99993515014648 C 92 71.40499114990234 71.40509033203125 91.99986267089844 46 91.99986267089844 C 20.59490203857422 91.99986267089844 0 71.40499114990234 0 45.99993515014648 C 0 20.59486389160156 20.59490203857422 -7.62939453125e-06 46 -7.62939453125e-06 Z" stroke="none" fill="#88bba9"/>
                                </g>
                              </g>
                            </g>
                          </g>
                        </g>
                      </g>
                    </g>
                  </g>
                </g>
              </g>
            </g>
          </g>
        </g>
      </g>
    </g>
    <g id="order-processing" transform="translate(387.031 7770.15)">
      <g id="Grupo_1199633" data-name="Grupo 1199633" transform="translate(1.724 19.942)">
        <g id="Grupo_1199632" data-name="Grupo 1199632">
          <g id="Grupo_1199631" data-name="Grupo 1199631">
            <g id="Grupo_1199630" data-name="Grupo 1199630">
              <path id="Trazado_1039011" data-name="Trazado 1039011" d="M25.344,31.153l-2.091-.322a9.449,9.449,0,0,0-1.183-2.848s.747-1.022,1.249-1.712a.876.876,0,0,0-.085-1.135l-1.428-1.428a.876.876,0,0,0-1.135-.085l-1.712,1.249a9.7,9.7,0,0,0-2.848-1.183s-.2-1.258-.322-2.091a.874.874,0,0,0-.861-.738H12.913a.866.866,0,0,0-.861.738l-.322,2.091a9.449,9.449,0,0,0-2.848,1.183s-1.022-.747-1.712-1.249a.876.876,0,0,0-1.135.085L4.607,25.136a.876.876,0,0,0-.085,1.135l1.249,1.712a9.271,9.271,0,0,0-1.192,2.848l-2.091.322a.874.874,0,0,0-.738.861v2.015a.866.866,0,0,0,.738.861l2.091.322a9.449,9.449,0,0,0,1.183,2.848s-.747,1.022-1.249,1.712A.876.876,0,0,0,4.6,40.906l1.428,1.428a.876.876,0,0,0,1.135.085l1.712-1.249a9.7,9.7,0,0,0,2.848,1.183s.2,1.258.322,2.091a.874.874,0,0,0,.861.738h2.015a.866.866,0,0,0,.861-.738l.322-2.091a9.449,9.449,0,0,0,2.848-1.183s1.022.747,1.712,1.249a.876.876,0,0,0,1.135-.085l1.428-1.428a.876.876,0,0,0,.085-1.135l-1.249-1.712a9.7,9.7,0,0,0,1.183-2.848l2.091-.322a.874.874,0,0,0,.738-.861V32.014a.857.857,0,0,0-.728-.861Z" transform="translate(-1.75 -20.86)" fill="#8c9ffa"/>
            </g>
          </g>
        </g>
      </g>
      <g id="Grupo_1199637" data-name="Grupo 1199637" transform="translate(1.27 19.497)">
        <g id="Grupo_1199636" data-name="Grupo 1199636">
          <g id="Grupo_1199635" data-name="Grupo 1199635">
            <g id="Grupo_1199634" data-name="Grupo 1199634">
              <path id="Trazado_1039012" data-name="Trazado 1039012" d="M14.9,45.62H12.887a1.317,1.317,0,0,1-1.315-1.126L11.3,42.7a9.634,9.634,0,0,1-2.412-1L7.419,42.763a1.337,1.337,0,0,1-1.731-.132L4.25,41.212a1.314,1.314,0,0,1-.132-1.731l1.069-1.466a10.159,10.159,0,0,1-1-2.412L2.4,35.328A1.324,1.324,0,0,1,1.27,34.013V32A1.317,1.317,0,0,1,2.4,30.683l1.788-.274a9.634,9.634,0,0,1,1-2.412L4.118,26.53A1.337,1.337,0,0,1,4.25,24.8L5.678,23.37a1.337,1.337,0,0,1,1.731-.132l1.466,1.069a10.159,10.159,0,0,1,2.412-1l.274-1.788a1.324,1.324,0,0,1,1.315-1.126h2.015a1.317,1.317,0,0,1,1.315,1.126l.274,1.8a9.634,9.634,0,0,1,2.412,1l1.466-1.069a1.338,1.338,0,0,1,1.731.132l1.428,1.428a1.337,1.337,0,0,1,.132,1.731l-1.069,1.466a10.159,10.159,0,0,1,1,2.412l1.788.274A1.324,1.324,0,0,1,26.5,32.007v2.015a1.317,1.317,0,0,1-1.126,1.315l-1.788.274a9.634,9.634,0,0,1-1,2.412l1.069,1.466a1.337,1.337,0,0,1-.132,1.731L22.092,42.65a1.325,1.325,0,0,1-1.731.132l-1.466-1.069a10.159,10.159,0,0,1-2.412,1L16.208,44.5A1.307,1.307,0,0,1,14.9,45.62ZM8.848,40.692a.458.458,0,0,1,.246.066,9.115,9.115,0,0,0,2.715,1.126.454.454,0,0,1,.35.378l.322,2.091a.407.407,0,0,0,.407.35H14.9a.426.426,0,0,0,.416-.35l.322-2.091a.478.478,0,0,1,.35-.378,9.115,9.115,0,0,0,2.715-1.126.457.457,0,0,1,.511.019l1.712,1.249a.408.408,0,0,0,.539-.047L22.9,40.55a.416.416,0,0,0,.038-.539l-1.249-1.7a.457.457,0,0,1-.019-.511,9.115,9.115,0,0,0,1.126-2.715.454.454,0,0,1,.378-.35l2.091-.322a.407.407,0,0,0,.35-.407V31.988a.426.426,0,0,0-.35-.416L23.17,31.25a.478.478,0,0,1-.378-.35,9.115,9.115,0,0,0-1.126-2.715.457.457,0,0,1,.019-.511l1.249-1.712a.406.406,0,0,0-.047-.539l-1.428-1.428a.417.417,0,0,0-.539-.038l-1.7,1.249a.457.457,0,0,1-.511.019A9.115,9.115,0,0,0,15.99,24.1a.454.454,0,0,1-.35-.378l-.322-2.091a.416.416,0,0,0-.407-.35H12.9a.409.409,0,0,0-.407.35l-.322,2.091a.478.478,0,0,1-.35.378A9.115,9.115,0,0,0,9.1,25.224a.457.457,0,0,1-.511-.019L6.88,23.957a.416.416,0,0,0-.539.038L4.912,25.423a.417.417,0,0,0-.038.539l1.249,1.7a.457.457,0,0,1,.019.511,9.115,9.115,0,0,0-1.126,2.715.454.454,0,0,1-.378.35l-2.091.322a.41.41,0,0,0-.35.416v2.015a.409.409,0,0,0,.35.407l2.091.322a.478.478,0,0,1,.378.35,9.115,9.115,0,0,0,1.126,2.715.457.457,0,0,1-.019.511L4.874,40.011a.406.406,0,0,0,.047.539L6.35,41.978a.416.416,0,0,0,.539.038l1.7-1.249A.541.541,0,0,1,8.848,40.692Z" transform="translate(-1.27 -20.39)"/>
            </g>
          </g>
        </g>
      </g>
      <g id="Grupo_1199644" data-name="Grupo 1199644" transform="translate(8.488 26.696)">
        <g id="Grupo_1199640" data-name="Grupo 1199640" transform="translate(0.454 0.464)">
          <g id="Grupo_1199639" data-name="Grupo 1199639">
            <g id="Grupo_1199638" data-name="Grupo 1199638">
              <path id="Trazado_1039013" data-name="Trazado 1039013" d="M14.328,38.385a4.948,4.948,0,1,1,4.948-4.948A4.958,4.958,0,0,1,14.328,38.385Z" transform="translate(-9.38 -28.49)" fill="#fff"/>
            </g>
          </g>
        </g>
        <g id="Grupo_1199643" data-name="Grupo 1199643">
          <g id="Grupo_1199642" data-name="Grupo 1199642">
            <g id="Grupo_1199641" data-name="Grupo 1199641">
              <path id="Trazado_1039014" data-name="Trazado 1039014" d="M14.3,38.813A5.407,5.407,0,1,1,19.7,33.4a5.406,5.406,0,0,1-5.4,5.411Zm0-9.9A4.489,4.489,0,1,0,18.786,33.4,4.5,4.5,0,0,0,14.3,28.918Z" transform="translate(-8.9 -28)"/>
            </g>
          </g>
        </g>
      </g>
      <path id="Trazado_1039015" data-name="Trazado 1039015" d="M50.256,11.43h-30.1a4.5,4.5,0,0,0-4.494,4.494V54.465a4.5,4.5,0,0,0,4.494,4.494h30.1a4.5,4.5,0,0,0,4.494-4.494V15.924A4.5,4.5,0,0,0,50.256,11.43Z" transform="translate(-0.777 -0.409)" fill="#656d78"/>
      <g id="Grupo_1199648" data-name="Grupo 1199648" transform="translate(14.883 53.507)">
        <g id="Grupo_1199647" data-name="Grupo 1199647">
          <g id="Grupo_1199646" data-name="Grupo 1199646">
            <g id="Grupo_1199645" data-name="Grupo 1199645">
              <path id="Trazado_1039016" data-name="Trazado 1039016" d="M54.75,56.34v1.372a3.674,3.674,0,0,1-3.671,3.671H19.331a3.674,3.674,0,0,1-3.671-3.671V56.34a3.668,3.668,0,0,0,3.671,3.671H51.089A3.672,3.672,0,0,0,54.75,56.34Z" transform="translate(-15.66 -56.34)" fill="#545c66"/>
            </g>
          </g>
        </g>
      </g>
      <g id="Grupo_1199652" data-name="Grupo 1199652" transform="translate(14.429 10.567)">
        <g id="Grupo_1199651" data-name="Grupo 1199651">
          <g id="Grupo_1199650" data-name="Grupo 1199650">
            <g id="Grupo_1199649" data-name="Grupo 1199649">
              <path id="Trazado_1039017" data-name="Trazado 1039017" d="M51.053,59.4H19.3a4.128,4.128,0,0,1-4.125-4.125v-40.2A4.128,4.128,0,0,1,19.3,10.95H51.053a4.128,4.128,0,0,1,4.125,4.125v40.2A4.122,4.122,0,0,1,51.053,59.4ZM19.3,11.868A3.21,3.21,0,0,0,16.1,15.075v40.2A3.21,3.21,0,0,0,19.3,58.478H51.053a3.21,3.21,0,0,0,3.207-3.207v-40.2a3.21,3.21,0,0,0-3.207-3.207Z" transform="translate(-15.18 -10.95)" fill="#000102"/>
            </g>
          </g>
        </g>
      </g>
      <g id="Grupo_1199656" data-name="Grupo 1199656" transform="translate(18.327 14.464)">
        <g id="Grupo_1199655" data-name="Grupo 1199655">
          <g id="Grupo_1199654" data-name="Grupo 1199654">
            <g id="Grupo_1199653" data-name="Grupo 1199653">
              <path id="Trazado_1039018" data-name="Trazado 1039018" d="M19.3,51.823V18.958a3.888,3.888,0,0,1,3.888-3.888H47.624a3.888,3.888,0,0,1,3.888,3.888V51.833a3.888,3.888,0,0,1-3.888,3.888H23.188a3.9,3.9,0,0,1-3.888-3.9Z" transform="translate(-19.3 -15.07)" fill="#f4f6f8"/>
            </g>
          </g>
        </g>
      </g>
      <g id="Grupo_1199660" data-name="Grupo 1199660" transform="translate(18.327 50.063)">
        <g id="Grupo_1199659" data-name="Grupo 1199659">
          <g id="Grupo_1199658" data-name="Grupo 1199658">
            <g id="Grupo_1199657" data-name="Grupo 1199657">
              <path id="Trazado_1039019" data-name="Trazado 1039019" d="M51.5,52.7v1.372a3.668,3.668,0,0,1-3.671,3.671H22.971A3.668,3.668,0,0,1,19.3,54.072V52.7a3.668,3.668,0,0,0,3.671,3.671H47.842A3.66,3.66,0,0,0,51.5,52.7Z" transform="translate(-19.3 -52.7)" fill="#d7dadf"/>
            </g>
          </g>
        </g>
      </g>
      <g id="Grupo_1199664" data-name="Grupo 1199664" transform="translate(17.873 14.01)">
        <g id="Grupo_1199663" data-name="Grupo 1199663">
          <g id="Grupo_1199662" data-name="Grupo 1199662">
            <g id="Grupo_1199661" data-name="Grupo 1199661">
              <path id="Trazado_1039020" data-name="Trazado 1039020" d="M47.816,56.149H22.945a4.128,4.128,0,0,1-4.125-4.125V18.715a4.128,4.128,0,0,1,4.125-4.125H47.816a4.128,4.128,0,0,1,4.125,4.125v33.31A4.134,4.134,0,0,1,47.816,56.149ZM22.945,15.5a3.21,3.21,0,0,0-3.207,3.207v33.31a3.21,3.21,0,0,0,3.207,3.207H47.816a3.21,3.21,0,0,0,3.207-3.207v-33.3a3.21,3.21,0,0,0-3.207-3.207H22.945Z" transform="translate(-18.82 -14.59)" fill="#000102"/>
            </g>
          </g>
        </g>
      </g>
      <g id="Grupo_1199669" data-name="Grupo 1199669" transform="translate(24.542 4.304)">
        <g id="Grupo_1199668" data-name="Grupo 1199668">
          <g id="Grupo_1199667" data-name="Grupo 1199667">
            <g id="Grupo_1199666" data-name="Grupo 1199666">
              <g id="Grupo_1199665" data-name="Grupo 1199665">
                <path id="Trazado_1039021" data-name="Trazado 1039021" d="M45.642,10.233v5.061a1.312,1.312,0,0,1-1.315,1.315H27.185a1.312,1.312,0,0,1-1.315-1.315V10.233a1.312,1.312,0,0,1,1.315-1.315h2.8a1.332,1.332,0,0,0,1.287-1.041,4.62,4.62,0,0,1,8.987,0,1.324,1.324,0,0,0,1.287,1.041h2.8A1.308,1.308,0,0,1,45.642,10.233Z" transform="translate(-25.87 -4.33)" fill="#d7dadf"/>
              </g>
            </g>
          </g>
        </g>
      </g>
      <g id="Grupo_1199674" data-name="Grupo 1199674" transform="translate(24.542 13.887)">
        <g id="Grupo_1199673" data-name="Grupo 1199673">
          <g id="Grupo_1199672" data-name="Grupo 1199672">
            <g id="Grupo_1199671" data-name="Grupo 1199671">
              <g id="Grupo_1199670" data-name="Grupo 1199670">
                <path id="Trazado_1039022" data-name="Trazado 1039022" d="M45.642,14.46v1.372a1.312,1.312,0,0,1-1.315,1.315H27.185a1.312,1.312,0,0,1-1.315-1.315V14.46a1.318,1.318,0,0,0,1.315,1.315H44.327a1.312,1.312,0,0,0,1.315-1.315Z" transform="translate(-25.87 -14.46)" fill="#b9bec6"/>
              </g>
            </g>
          </g>
        </g>
      </g>
      <g id="Grupo_1199679" data-name="Grupo 1199679" transform="translate(24.088 3.85)">
        <g id="Grupo_1199678" data-name="Grupo 1199678">
          <g id="Grupo_1199677" data-name="Grupo 1199677">
            <g id="Grupo_1199676" data-name="Grupo 1199676">
              <g id="Grupo_1199675" data-name="Grupo 1199675">
                <path id="Trazado_1039023" data-name="Trazado 1039023" d="M44.3,17.038H27.159a1.772,1.772,0,0,1-1.769-1.769V10.207a1.772,1.772,0,0,1,1.769-1.769h2.8a.865.865,0,0,0,.833-.691,5.077,5.077,0,0,1,9.876,0,.873.873,0,0,0,.833.691h2.8a1.772,1.772,0,0,1,1.769,1.769v5.061A1.76,1.76,0,0,1,44.3,17.038ZM27.159,9.346a.848.848,0,0,0-.851.851v5.061a.848.848,0,0,0,.851.851H44.31a.848.848,0,0,0,.851-.851V10.2a.854.854,0,0,0-.851-.851h-2.8a1.8,1.8,0,0,1-1.731-1.391,4.162,4.162,0,0,0-8.1,0A1.785,1.785,0,0,1,29.95,9.346Z" transform="translate(-25.39 -3.85)" fill="#000102"/>
              </g>
            </g>
          </g>
        </g>
      </g>
      <g id="Grupo_1199686" data-name="Grupo 1199686" transform="translate(31.808 5.969)">
        <g id="Grupo_1199682" data-name="Grupo 1199682" transform="translate(0.464 0.464)">
          <g id="Grupo_1199681" data-name="Grupo 1199681">
            <g id="Grupo_1199680" data-name="Grupo 1199680">
              <circle id="Elipse_12094" data-name="Elipse 12094" cx="2.157" cy="2.157" r="2.157" fill="#fff"/>
            </g>
          </g>
        </g>
        <g id="Grupo_1199685" data-name="Grupo 1199685">
          <g id="Grupo_1199684" data-name="Grupo 1199684">
            <g id="Grupo_1199683" data-name="Grupo 1199683">
              <path id="Trazado_1039024" data-name="Trazado 1039024" d="M36.17,11.331a2.62,2.62,0,1,1,2.62-2.62A2.62,2.62,0,0,1,36.17,11.331Zm0-4.314a1.7,1.7,0,1,0,1.7,1.7,1.708,1.708,0,0,0-1.7-1.7Z" transform="translate(-33.55 -6.09)" fill="#000102"/>
            </g>
          </g>
        </g>
      </g>
      <g id="Grupo_1199747" data-name="Grupo 1199747" transform="translate(21.316 21.654)">
        <g id="Grupo_1199693" data-name="Grupo 1199693" transform="translate(0.066)">
          <g id="Grupo_1199689" data-name="Grupo 1199689" transform="translate(0.454 0.454)">
            <g id="Grupo_1199688" data-name="Grupo 1199688">
              <g id="Grupo_1199687" data-name="Grupo 1199687">
                <path id="Trazado_1039025" data-name="Trazado 1039025" d="M27.617,29.441H24.694a1.688,1.688,0,0,1-1.684-1.684V24.834a1.688,1.688,0,0,1,1.684-1.684h2.923A1.688,1.688,0,0,1,29.3,24.834v2.923A1.688,1.688,0,0,1,27.617,29.441Z" transform="translate(-23.01 -23.15)" fill="#8c9ffa"/>
              </g>
            </g>
          </g>
          <g id="Grupo_1199692" data-name="Grupo 1199692">
            <g id="Grupo_1199691" data-name="Grupo 1199691">
              <g id="Grupo_1199690" data-name="Grupo 1199690">
                <path id="Trazado_1039026" data-name="Trazado 1039026" d="M28.358,29.869H23.9A1.373,1.373,0,0,1,22.53,28.5V24.042A1.373,1.373,0,0,1,23.9,22.67h4.456a1.373,1.373,0,0,1,1.372,1.372V28.5a1.373,1.373,0,0,1-1.372,1.372ZM23.9,23.578a.454.454,0,0,0-.454.454v4.456a.454.454,0,0,0,.454.454h4.456a.454.454,0,0,0,.454-.454V24.032a.454.454,0,0,0-.454-.454Z" transform="translate(-22.53 -22.67)" fill="#000102"/>
              </g>
            </g>
          </g>
        </g>
        <g id="Grupo_1199700" data-name="Grupo 1199700" transform="translate(0.066 10.472)">
          <g id="Grupo_1199696" data-name="Grupo 1199696" transform="translate(0.454 0.445)">
            <g id="Grupo_1199695" data-name="Grupo 1199695">
              <g id="Grupo_1199694" data-name="Grupo 1199694">
                <path id="Trazado_1039027" data-name="Trazado 1039027" d="M27.617,40.5H24.694a1.688,1.688,0,0,1-1.684-1.684V35.894a1.688,1.688,0,0,1,1.684-1.684h2.923A1.688,1.688,0,0,1,29.3,35.894v2.923A1.688,1.688,0,0,1,27.617,40.5Z" transform="translate(-23.01 -34.21)" fill="#fdcd56"/>
              </g>
            </g>
          </g>
          <g id="Grupo_1199699" data-name="Grupo 1199699">
            <g id="Grupo_1199698" data-name="Grupo 1199698">
              <g id="Grupo_1199697" data-name="Grupo 1199697">
                <path id="Trazado_1039028" data-name="Trazado 1039028" d="M28.358,40.939H23.9a1.373,1.373,0,0,1-1.372-1.372V35.112A1.373,1.373,0,0,1,23.9,33.74h4.456a1.373,1.373,0,0,1,1.372,1.372v4.456a1.379,1.379,0,0,1-1.372,1.372Zm-4.456-6.3a.454.454,0,0,0-.454.454v4.456A.454.454,0,0,0,23.9,40h4.456a.454.454,0,0,0,.454-.454V35.093a.454.454,0,0,0-.454-.454Z" transform="translate(-22.53 -33.74)" fill="#000102"/>
              </g>
            </g>
          </g>
        </g>
        <g id="Grupo_1199707" data-name="Grupo 1199707" transform="translate(0 20.936)">
          <g id="Grupo_1199703" data-name="Grupo 1199703" transform="translate(0.454 0.454)">
            <g id="Grupo_1199702" data-name="Grupo 1199702">
              <g id="Grupo_1199701" data-name="Grupo 1199701">
                <path id="Trazado_1039029" data-name="Trazado 1039029" d="M27.547,51.571H24.624a1.688,1.688,0,0,1-1.684-1.684V46.964a1.688,1.688,0,0,1,1.684-1.684h2.923a1.688,1.688,0,0,1,1.684,1.684v2.923A1.688,1.688,0,0,1,27.547,51.571Z" transform="translate(-22.94 -45.28)" fill="#f76c82"/>
              </g>
            </g>
          </g>
          <g id="Grupo_1199706" data-name="Grupo 1199706">
            <g id="Grupo_1199705" data-name="Grupo 1199705">
              <g id="Grupo_1199704" data-name="Grupo 1199704">
                <path id="Trazado_1039030" data-name="Trazado 1039030" d="M28.288,52H23.832a1.373,1.373,0,0,1-1.372-1.372V46.172A1.373,1.373,0,0,1,23.832,44.8h4.456a1.373,1.373,0,0,1,1.372,1.372v4.456A1.367,1.367,0,0,1,28.288,52Zm-4.456-6.291a.454.454,0,0,0-.454.454v4.456a.454.454,0,0,0,.454.454h4.456a.454.454,0,0,0,.454-.454V46.162a.454.454,0,0,0-.454-.454Z" transform="translate(-22.46 -44.8)" fill="#000102"/>
              </g>
            </g>
          </g>
        </g>
        <g id="Grupo_1199716" data-name="Grupo 1199716" transform="translate(9.394 1.693)">
          <g id="Grupo_1199711" data-name="Grupo 1199711" transform="translate(0)">
            <g id="Grupo_1199710" data-name="Grupo 1199710">
              <g id="Grupo_1199709" data-name="Grupo 1199709">
                <g id="Grupo_1199708" data-name="Grupo 1199708">
                  <path id="Trazado_1039031" data-name="Trazado 1039031" d="M47.5,25.368H32.844a.454.454,0,0,1,0-.908H47.489a.454.454,0,0,1,.454.454A.44.44,0,0,1,47.5,25.368Z" transform="translate(-32.39 -24.46)" fill="#000102"/>
                </g>
              </g>
            </g>
          </g>
          <g id="Grupo_1199715" data-name="Grupo 1199715" transform="translate(0 2.904)">
            <g id="Grupo_1199714" data-name="Grupo 1199714">
              <g id="Grupo_1199713" data-name="Grupo 1199713">
                <g id="Grupo_1199712" data-name="Grupo 1199712">
                  <path id="Trazado_1039032" data-name="Trazado 1039032" d="M44.414,28.438H32.844a.454.454,0,0,1,0-.908h11.57a.454.454,0,0,1,.454.454A.448.448,0,0,1,44.414,28.438Z" transform="translate(-32.39 -27.53)" fill="#000102"/>
                </g>
              </g>
            </g>
          </g>
        </g>
        <g id="Grupo_1199725" data-name="Grupo 1199725" transform="translate(9.394 12.166)">
          <g id="Grupo_1199720" data-name="Grupo 1199720">
            <g id="Grupo_1199719" data-name="Grupo 1199719">
              <g id="Grupo_1199718" data-name="Grupo 1199718">
                <g id="Grupo_1199717" data-name="Grupo 1199717">
                  <path id="Trazado_1039033" data-name="Trazado 1039033" d="M42.844,36.438h-10a.454.454,0,0,1-.454-.454.46.46,0,0,1,.454-.454h10a.454.454,0,1,1,0,.908Z" transform="translate(-32.39 -35.53)" fill="#000102"/>
                </g>
              </g>
            </g>
          </g>
          <g id="Grupo_1199724" data-name="Grupo 1199724" transform="translate(0.009 2.895)">
            <g id="Grupo_1199723" data-name="Grupo 1199723">
              <g id="Grupo_1199722" data-name="Grupo 1199722">
                <g id="Grupo_1199721" data-name="Grupo 1199721">
                  <path id="Trazado_1039034" data-name="Trazado 1039034" d="M38.634,39.5h-5.78a.454.454,0,0,1,0-.908h5.78a.454.454,0,0,1,.454.454A.448.448,0,0,1,38.634,39.5Z" transform="translate(-32.4 -38.59)" fill="#000102"/>
                </g>
              </g>
            </g>
          </g>
        </g>
        <g id="Grupo_1199734" data-name="Grupo 1199734" transform="translate(9.394 22.629)">
          <g id="Grupo_1199729" data-name="Grupo 1199729">
            <g id="Grupo_1199728" data-name="Grupo 1199728">
              <g id="Grupo_1199727" data-name="Grupo 1199727">
                <g id="Grupo_1199726" data-name="Grupo 1199726">
                  <path id="Trazado_1039035" data-name="Trazado 1039035" d="M42.844,47.5h-10a.454.454,0,1,1,0-.908h10a.454.454,0,0,1,.454.454A.448.448,0,0,1,42.844,47.5Z" transform="translate(-32.39 -46.59)" fill="#000102"/>
                </g>
              </g>
            </g>
          </g>
          <g id="Grupo_1199733" data-name="Grupo 1199733" transform="translate(0 2.904)">
            <g id="Grupo_1199732" data-name="Grupo 1199732">
              <g id="Grupo_1199731" data-name="Grupo 1199731">
                <g id="Grupo_1199730" data-name="Grupo 1199730">
                  <path id="Trazado_1039036" data-name="Trazado 1039036" d="M38.492,50.568H32.844a.454.454,0,0,1-.454-.454.46.46,0,0,1,.454-.454h5.648a.454.454,0,0,1,0,.908Z" transform="translate(-32.39 -49.66)" fill="#000102"/>
                </g>
              </g>
            </g>
          </g>
        </g>
        <g id="Grupo_1199738" data-name="Grupo 1199738" transform="translate(1.994 2.306)">
          <g id="Grupo_1199737" data-name="Grupo 1199737">
            <g id="Grupo_1199736" data-name="Grupo 1199736">
              <g id="Grupo_1199735" data-name="Grupo 1199735">
                <path id="Trazado_1039037" data-name="Trazado 1039037" d="M25.781,27.693a.467.467,0,0,1-.322-.132L24.7,26.8a.462.462,0,0,1,.653-.653l.435.435,1.343-1.343a.462.462,0,0,1,.653.653L26.121,27.56A.532.532,0,0,1,25.781,27.693Z" transform="translate(-24.568 -25.107)" fill="#000102"/>
              </g>
            </g>
          </g>
        </g>
        <g id="Grupo_1199742" data-name="Grupo 1199742" transform="translate(1.994 12.769)">
          <g id="Grupo_1199741" data-name="Grupo 1199741">
            <g id="Grupo_1199740" data-name="Grupo 1199740">
              <g id="Grupo_1199739" data-name="Grupo 1199739">
                <path id="Trazado_1039038" data-name="Trazado 1039038" d="M25.781,38.753a.467.467,0,0,1-.322-.132l-.757-.757a.462.462,0,1,1,.653-.653l.435.435L27.134,36.3a.462.462,0,1,1,.653.653L26.121,38.62A.532.532,0,0,1,25.781,38.753Z" transform="translate(-24.568 -36.168)" fill="#000102"/>
              </g>
            </g>
          </g>
        </g>
        <g id="Grupo_1199746" data-name="Grupo 1199746" transform="translate(1.994 23.232)">
          <g id="Grupo_1199745" data-name="Grupo 1199745">
            <g id="Grupo_1199744" data-name="Grupo 1199744">
              <g id="Grupo_1199743" data-name="Grupo 1199743">
                <path id="Trazado_1039039" data-name="Trazado 1039039" d="M25.781,49.813a.451.451,0,0,1-.322-.132l-.757-.757a.462.462,0,0,1,.653-.653l.435.435,1.343-1.343a.462.462,0,1,1,.653.653L26.121,49.68A.513.513,0,0,1,25.781,49.813Z" transform="translate(-24.568 -47.228)" fill="#000102"/>
              </g>
            </g>
          </g>
        </g>
      </g>
      <g id="Grupo_1199773" data-name="Grupo 1199773" transform="translate(43.671 42.278)">
        <path id="Trazado_1039040" data-name="Trazado 1039040" d="M59.947,44.96H49.532a2.955,2.955,0,0,0-2.952,2.952v9.914a2.955,2.955,0,0,0,2.952,2.952H59.947A2.955,2.955,0,0,0,62.9,57.826V47.912A2.955,2.955,0,0,0,59.947,44.96Z" transform="translate(-46.116 -44.496)" fill="#fdcd56"/>
        <g id="Grupo_1199752" data-name="Grupo 1199752" transform="translate(0.464 12.611)">
          <g id="Grupo_1199751" data-name="Grupo 1199751">
            <g id="Grupo_1199750" data-name="Grupo 1199750">
              <g id="Grupo_1199749" data-name="Grupo 1199749">
                <g id="Grupo_1199748" data-name="Grupo 1199748">
                  <path id="Trazado_1039041" data-name="Trazado 1039041" d="M62.9,57.8v1.372a2.291,2.291,0,0,1-2.289,2.289H48.869a2.291,2.291,0,0,1-2.289-2.289V57.8a2.291,2.291,0,0,0,2.289,2.289H60.6A2.3,2.3,0,0,0,62.9,57.8Z" transform="translate(-46.58 -57.8)" fill="#e3b84d"/>
                </g>
              </g>
            </g>
          </g>
        </g>
        <g id="Grupo_1199757" data-name="Grupo 1199757">
          <g id="Grupo_1199756" data-name="Grupo 1199756">
            <g id="Grupo_1199755" data-name="Grupo 1199755">
              <g id="Grupo_1199754" data-name="Grupo 1199754">
                <g id="Grupo_1199753" data-name="Grupo 1199753">
                  <path id="Trazado_1039042" data-name="Trazado 1039042" d="M60.574,61.205H48.843a2.756,2.756,0,0,1-2.753-2.753V47.223a2.756,2.756,0,0,1,2.753-2.753H60.574a2.756,2.756,0,0,1,2.753,2.753V58.452a2.762,2.762,0,0,1-2.753,2.753ZM48.843,45.388a1.837,1.837,0,0,0-1.835,1.835V58.452a1.837,1.837,0,0,0,1.835,1.835H60.574a1.837,1.837,0,0,0,1.835-1.835V47.223a1.837,1.837,0,0,0-1.835-1.835Z" transform="translate(-46.09 -44.47)" fill="#000102"/>
                </g>
              </g>
            </g>
          </g>
        </g>
        <g id="Grupo_1199764" data-name="Grupo 1199764" transform="translate(6.036 0.009)">
          <g id="Grupo_1199760" data-name="Grupo 1199760" transform="translate(0.473 0.454)">
            <g id="Grupo_1199759" data-name="Grupo 1199759">
              <g id="Grupo_1199758" data-name="Grupo 1199758">
                <path id="Trazado_1039043" data-name="Trazado 1039043" d="M57.2,49.331,55.08,47.77l-2.11,1.561V44.96H57.2Z" transform="translate(-52.97 -44.96)" fill="#f76c82"/>
              </g>
            </g>
          </g>
          <g id="Grupo_1199763" data-name="Grupo 1199763">
            <g id="Grupo_1199762" data-name="Grupo 1199762">
              <g id="Grupo_1199761" data-name="Grupo 1199761">
                <path id="Trazado_1039044" data-name="Trazado 1039044" d="M57.172,49.759a.493.493,0,0,1-.274-.085l-1.845-1.362-1.845,1.362a.446.446,0,0,1-.482.038.464.464,0,0,1-.255-.407V44.934a.454.454,0,0,1,.454-.454h4.229a.454.454,0,0,1,.454.454V49.3a.447.447,0,0,1-.255.407A.337.337,0,0,1,57.172,49.759ZM55.053,47.28a.493.493,0,0,1,.274.085l1.381,1.022v-3H53.4v3l1.381-1.022a.582.582,0,0,1,.274-.085Z" transform="translate(-52.47 -44.48)" fill="#000102"/>
              </g>
            </g>
          </g>
        </g>
        <g id="Grupo_1199768" data-name="Grupo 1199768" transform="translate(3.131 10.804)">
          <g id="Grupo_1199767" data-name="Grupo 1199767">
            <g id="Grupo_1199766" data-name="Grupo 1199766">
              <g id="Grupo_1199765" data-name="Grupo 1199765">
                <path id="Trazado_1039045" data-name="Trazado 1039045" d="M54.036,56.8H49.854a.454.454,0,1,1,0-.908h4.181a.454.454,0,0,1,0,.908Z" transform="translate(-49.4 -55.89)" fill="#000102"/>
              </g>
            </g>
          </g>
        </g>
        <g id="Grupo_1199772" data-name="Grupo 1199772" transform="translate(3.131 13.329)">
          <g id="Grupo_1199771" data-name="Grupo 1199771">
            <g id="Grupo_1199770" data-name="Grupo 1199770">
              <g id="Grupo_1199769" data-name="Grupo 1199769">
                <path id="Trazado_1039046" data-name="Trazado 1039046" d="M54.036,59.468H49.854a.454.454,0,1,1,0-.908h4.181a.454.454,0,0,1,0,.908Z" transform="translate(-49.4 -58.56)" fill="#000102"/>
              </g>
            </g>
          </g>
        </g>
      </g>
      <g id="Grupo_1199780" data-name="Grupo 1199780" transform="translate(53.211 11.897)">
        <g id="Grupo_1199776" data-name="Grupo 1199776" transform="translate(0.46 0.451)">
          <g id="Grupo_1199775" data-name="Grupo 1199775">
            <g id="Grupo_1199774" data-name="Grupo 1199774">
              <path id="Trazado_1039047" data-name="Trazado 1039047" d="M63.434,15.091l-3.708-2.147a.8.8,0,0,0-1.107.293L56.66,16.6l5.118,2.971,1.958-3.368a.829.829,0,0,0-.3-1.116Z" transform="translate(-56.66 -12.833)" fill="#fdcd56"/>
            </g>
          </g>
        </g>
        <g id="Grupo_1199779" data-name="Grupo 1199779">
          <g id="Grupo_1199778" data-name="Grupo 1199778">
            <g id="Grupo_1199777" data-name="Grupo 1199777">
              <path id="Trazado_1039048" data-name="Trazado 1039048" d="M61.752,20.013a.4.4,0,0,1-.227-.066l-5.118-2.971a.485.485,0,0,1-.218-.274.455.455,0,0,1,.047-.35l1.958-3.368a1.248,1.248,0,0,1,.776-.587,1.273,1.273,0,0,1,.965.132l3.708,2.147a1.248,1.248,0,0,1,.587.776,1.273,1.273,0,0,1-.132.965L62.14,19.786a.485.485,0,0,1-.274.218c-.038,0-.076.009-.114.009Zm-4.494-3.595,4.323,2.507,1.722-2.98a.355.355,0,0,0-.132-.482l-3.708-2.147a.376.376,0,0,0-.265-.038.381.381,0,0,0-.218.161Z" transform="translate(-56.174 -12.356)" fill="#000102"/>
            </g>
          </g>
        </g>
      </g>
      <g id="Grupo_1199787" data-name="Grupo 1199787" transform="translate(42.581 15.651)">
        <g id="Grupo_1199783" data-name="Grupo 1199783" transform="translate(0.466 0.477)">
          <g id="Grupo_1199782" data-name="Grupo 1199782">
            <g id="Grupo_1199781" data-name="Grupo 1199781">
              <path id="Trazado_1039049" data-name="Trazado 1039049" d="M0,0H21.181V5.913H0Z" transform="translate(0 18.322) rotate(-59.871)" fill="#f76c82"/>
            </g>
          </g>
        </g>
        <g id="Grupo_1199786" data-name="Grupo 1199786">
          <g id="Grupo_1199785" data-name="Grupo 1199785">
            <g id="Grupo_1199784" data-name="Grupo 1199784">
              <path id="Trazado_1039050" data-name="Trazado 1039050" d="M50.512,38.542a.4.4,0,0,1-.227-.066l-5.118-2.971a.461.461,0,0,1-.17-.624L55.62,16.557a.485.485,0,0,1,.274-.218.455.455,0,0,1,.35.047l5.118,2.971a.485.485,0,0,1,.218.274.455.455,0,0,1-.047.35L50.909,38.315a.485.485,0,0,1-.274.218.582.582,0,0,1-.123.009Zm-4.484-3.585,4.323,2.507,10.16-17.53-4.323-2.507Z" transform="translate(-44.938 -16.324)" fill="#000102"/>
            </g>
          </g>
        </g>
      </g>
      <g id="Grupo_1199794" data-name="Grupo 1199794" transform="translate(45.144 17.14)">
        <g id="Grupo_1199790" data-name="Grupo 1199790" transform="translate(0.456 0.466)">
          <g id="Grupo_1199789" data-name="Grupo 1199789">
            <g id="Grupo_1199788" data-name="Grupo 1199788">
              <path id="Trazado_1039051" data-name="Trazado 1039051" d="M58.754,18.39,48.13,36.714" transform="translate(-48.13 -18.39)" fill="#fff"/>
            </g>
          </g>
        </g>
        <g id="Grupo_1199793" data-name="Grupo 1199793">
          <g id="Grupo_1199792" data-name="Grupo 1199792">
            <g id="Grupo_1199791" data-name="Grupo 1199791">
              <path id="Trazado_1039052" data-name="Trazado 1039052" d="M48.1,37.142a.4.4,0,0,1-.227-.066.461.461,0,0,1-.17-.624L58.33,18.127a.458.458,0,1,1,.795.454L48.5,36.915A.455.455,0,0,1,48.1,37.142Z" transform="translate(-47.648 -17.898)" fill="#000102"/>
            </g>
          </g>
        </g>
      </g>
      <g id="Grupo_1199801" data-name="Grupo 1199801" transform="translate(42.583 33.983)">
        <g id="Grupo_1199797" data-name="Grupo 1199797" transform="translate(0.454 0.461)">
          <g id="Grupo_1199796" data-name="Grupo 1199796">
            <g id="Grupo_1199795" data-name="Grupo 1199795">
              <path id="Trazado_1039053" data-name="Trazado 1039053" d="M50.538,39.161,45.42,36.19l.019,2.687,2.762,1.6Z" transform="translate(-45.42 -36.19)" fill="#efc7a4"/>
            </g>
          </g>
        </g>
        <g id="Grupo_1199800" data-name="Grupo 1199800">
          <g id="Grupo_1199799" data-name="Grupo 1199799">
            <g id="Grupo_1199798" data-name="Grupo 1199798">
              <path id="Trazado_1039054" data-name="Trazado 1039054" d="M48.175,40.913a.4.4,0,0,1-.227-.066l-2.762-1.6a.453.453,0,0,1-.227-.4l-.019-2.687a.459.459,0,0,1,.691-.4l5.118,2.971a.464.464,0,0,1,.227.4.474.474,0,0,1-.237.4L48.4,40.856a.5.5,0,0,1-.227.057Zm-2.308-2.327,2.308,1.334,1.41-.795-3.727-2.166Z" transform="translate(-44.94 -35.703)" fill="#000102"/>
            </g>
          </g>
        </g>
      </g>
      <g id="Grupo_1199808" data-name="Grupo 1199808" transform="translate(42.602 36.67)">
        <g id="Grupo_1199804" data-name="Grupo 1199804" transform="translate(0.454 0.461)">
          <g id="Grupo_1199803" data-name="Grupo 1199803">
            <g id="Grupo_1199802" data-name="Grupo 1199802">
              <path id="Trazado_1039055" data-name="Trazado 1039055" d="M48.2,40.629l-2.762-1.6.057,3.112Z" transform="translate(-45.44 -39.03)" fill="#000102"/>
            </g>
          </g>
        </g>
        <g id="Grupo_1199807" data-name="Grupo 1199807">
          <g id="Grupo_1199806" data-name="Grupo 1199806">
            <g id="Grupo_1199805" data-name="Grupo 1199805">
              <path id="Trazado_1039056" data-name="Trazado 1039056" d="M45.471,42.57a.475.475,0,0,1-.227-.057.449.449,0,0,1-.227-.388l-.057-3.112a.468.468,0,0,1,.227-.407.453.453,0,0,1,.464,0l2.762,1.6a.464.464,0,0,1,.227.4.474.474,0,0,1-.237.4L45.7,42.5a.418.418,0,0,1-.227.066Zm.416-2.762.028,1.533,1.334-.747Z" transform="translate(-44.96 -38.542)" fill="#000102"/>
            </g>
          </g>
        </g>
      </g>
    </g>
  </g>
</svg>
