<svg xmlns="http://www.w3.org/2000/svg" xmlns:xlink="http://www.w3.org/1999/xlink" width="110" height="110" viewBox="0 0 110 110">
  <defs>
    <filter id="Trazado_982547" x="0" y="0" width="110" height="110" filterUnits="userSpaceOnUse">
      <feOffset dy="3" input="SourceAlpha"/>
      <feGaussianBlur stdDeviation="3" result="blur"/>
      <feFlood flood-opacity="0.161"/>
      <feComposite operator="in" in2="blur"/>
      <feComposite in="SourceGraphic"/>
    </filter>
  </defs>
  <g id="Grupo_1174589" data-name="Grupo 1174589" transform="translate(-7154 -1633)">
    <g id="Grupo_1173053" data-name="Grupo 1173053" transform="translate(6039 -4558)">
      <g id="Grupo_1172120" data-name="Grupo 1172120" transform="translate(0 5368)">
        <g id="Grupo_1171416" data-name="Grupo 1171416" transform="translate(-0.701 -6107)">
          <g id="Grupo_1163803" data-name="Grupo 1163803" transform="translate(-0.494 2285.316)">
            <g id="Grupo_1163015" data-name="Grupo 1163015" transform="translate(1.195 305.685)">
              <g id="Grupo_1157017" data-name="Grupo 1157017" transform="translate(0 3549)">
                <g id="Grupo_1155793" data-name="Grupo 1155793" transform="translate(-0.999 -3894)">
                  <g id="Grupo_1154704" data-name="Grupo 1154704" transform="translate(0 1466)">
                    <g id="Grupo_1150790" data-name="Grupo 1150790" transform="translate(3 2320)">
                      <g id="Grupo_1154214" data-name="Grupo 1154214" transform="translate(79 -5809)">
                        <g id="Grupo_1152583" data-name="Grupo 1152583" transform="translate(1043 6713)">
                          <g id="Grupo_1146973" data-name="Grupo 1146973" transform="translate(0 0)">
                            <g id="Grupo_1146954" data-name="Grupo 1146954">
                              <g transform="matrix(1, 0, 0, 1, -9, -6)" filter="url(#Trazado_982547)">
                                <g id="Trazado_982547-2" data-name="Trazado 982547" transform="translate(9 6)" fill="#f2f7f5">
                                  <path d="M 46 90.49987030029297 C 39.99187850952148 90.49987030029297 34.16426849365234 89.32350921630859 28.67905426025391 87.00345611572266 C 23.38019943237305 84.76224517822266 18.62104034423828 81.55341339111328 14.53374671936035 77.46613311767578 C 10.44646644592285 73.37885284423828 7.237639904022217 68.61969757080078 4.996413230895996 63.32085418701172 C 2.676359891891479 57.83565521240234 1.5 52.008056640625 1.5 45.99993515014648 C 1.5 39.99181365966797 2.676359891891479 34.16421508789062 4.996413230895996 28.67901420593262 C 7.237639904022217 23.38017463684082 10.44646644592285 18.62101554870605 14.53374671936035 14.53373527526855 C 18.62104034423828 10.44645500183105 23.38019943237305 7.23762845993042 28.67905426025391 4.996415138244629 C 34.16426849365234 2.676361799240112 39.99187850952148 1.500001788139343 46 1.500001788139343 C 52.00812149047852 1.500001788139343 57.83573150634766 2.676361799240112 63.32094573974609 4.996415138244629 C 68.61979675292969 7.23762845993042 73.37895965576172 10.44645500183105 77.46625518798828 14.53373527526855 C 81.55353546142578 18.62101554870605 84.76235961914062 23.38017463684082 87.00358581542969 28.67901420593262 C 89.32363891601562 34.16421508789062 90.5 39.99181365966797 90.5 45.99993515014648 C 90.5 52.008056640625 89.32363891601562 57.83565521240234 87.00358581542969 63.32085418701172 C 84.76235961914062 68.61969757080078 81.55353546142578 73.37885284423828 77.46625518798828 77.46613311767578 C 73.37895965576172 81.55341339111328 68.61979675292969 84.76224517822266 63.32094573974609 87.00345611572266 C 57.83573150634766 89.32350921630859 52.00812149047852 90.49987030029297 46 90.49987030029297 Z" stroke="none"/>
                                  <path d="M 46 2.999992370605469 C 40.1937141418457 2.999992370605469 34.56269836425781 4.136489868164062 29.26337051391602 6.377906799316406 C 24.14332580566406 8.543502807617188 19.54441070556641 11.64437866210938 15.59439849853516 15.59437561035156 C 11.64440155029297 19.54439544677734 8.54351806640625 24.14329528808594 6.377914428710938 29.26333618164062 C 4.136497497558594 34.56264877319336 3 40.19366455078125 3 45.99993515014648 C 3 51.80620574951172 4.136497497558594 57.43720626831055 6.377914428710938 62.73651885986328 C 8.54351806640625 67.8565673828125 11.64440155029297 72.45545959472656 15.59439849853516 76.40547943115234 C 19.54441070556641 80.35547637939453 24.14332580566406 83.45635223388672 29.26337051391602 85.6219482421875 C 34.56269836425781 87.86336517333984 40.1937141418457 88.99986267089844 46 88.99986267089844 C 51.8062858581543 88.99986267089844 57.43730163574219 87.86336517333984 62.73661422729492 85.6219482421875 C 67.85667419433594 83.45635223388672 72.45557403564453 80.35547637939453 76.40558624267578 76.40547943115234 C 80.35559844970703 72.45545959472656 83.45647430419922 67.8565673828125 85.6220703125 62.73651885986328 C 87.86350250244141 57.43720626831055 89 51.80620574951172 89 45.99993515014648 C 89 40.19366455078125 87.86350250244141 34.56264877319336 85.6220703125 29.26333618164062 C 83.45647430419922 24.14329528808594 80.35559844970703 19.54439544677734 76.40558624267578 15.59437561035156 C 72.45557403564453 11.64437866210938 67.85667419433594 8.543502807617188 62.73661422729492 6.377906799316406 C 57.43730163574219 4.136489868164062 51.8062858581543 2.999992370605469 46 2.999992370605469 M 46 -7.62939453125e-06 C 71.40509033203125 -7.62939453125e-06 92 20.59486389160156 92 45.99993515014648 C 92 71.40499114990234 71.40509033203125 91.99986267089844 46 91.99986267089844 C 20.59490203857422 91.99986267089844 0 71.40499114990234 0 45.99993515014648 C 0 20.59486389160156 20.59490203857422 -7.62939453125e-06 46 -7.62939453125e-06 Z" stroke="none" fill="#88bba9"/>
                                </g>
                              </g>
                            </g>
                          </g>
                        </g>
                      </g>
                    </g>
                  </g>
                </g>
              </g>
            </g>
          </g>
        </g>
      </g>
    </g>
    <g id="target_1_" data-name="target (1)" transform="translate(7166.165 1654)">
      <g id="Grupo_1174582" data-name="Grupo 1174582" transform="translate(14.727 0.892)">
        <g id="Grupo_1174571" data-name="Grupo 1174571" transform="translate(23.518)">
          <path id="Trazado_1027800" data-name="Trazado 1027800" d="M251.246,54.926H219.179l-.119.119v25.37a14.521,14.521,0,0,1,7.585,19.958H250.79a.576.576,0,0,0,.576-.576V55.045Z" transform="translate(-219.06 -49.285)" fill="#c8effe"/>
          <path id="Trazado_1027801" data-name="Trazado 1027801" d="M222.621,82.472V55.045l.119-.119h-3.561l-.119.119v25.37A14.5,14.5,0,0,1,222.621,82.472Z" transform="translate(-219.06 -49.285)" fill="#99e6fc"/>
          <g id="Grupo_1174557" data-name="Grupo 1174557" transform="translate(0)">
            <path id="Trazado_1027802" data-name="Trazado 1027802" d="M251.365,13.26H219.06V8.689A1.189,1.189,0,0,1,220.249,7.5h29.926a1.189,1.189,0,0,1,1.189,1.189Z" transform="translate(-219.06 -7.5)" fill="#7ca1b1"/>
          </g>
          <g id="Grupo_1174558" data-name="Grupo 1174558" transform="translate(0)">
            <path id="Trazado_1027803" data-name="Trazado 1027803" d="M220.249,7.5a1.189,1.189,0,0,0-1.189,1.189v4.57H226.2V7.5Z" transform="translate(-219.06 -7.5)" fill="#678d98"/>
          </g>
          <g id="Grupo_1174559" data-name="Grupo 1174559" transform="translate(0)">
            <path id="Trazado_1027804" data-name="Trazado 1027804" d="M223.811,7.5h-3.561a1.189,1.189,0,0,0-1.189,1.189v4.57h3.561V8.689A1.189,1.189,0,0,1,223.811,7.5Z" transform="translate(-219.06 -7.5)" fill="#537983"/>
          </g>
          <g id="Grupo_1174562" data-name="Grupo 1174562" transform="translate(5.384 9.673)">
            <g id="Grupo_1174560" data-name="Grupo 1174560">
              <path id="Trazado_1027805" data-name="Trazado 1027805" d="M268.479,93.332h-3.794a.357.357,0,0,1-.357-.357V89.181a.357.357,0,0,1,.357-.357h3.794a.357.357,0,0,1,.357.357v3.794A.357.357,0,0,1,268.479,93.332Z" transform="translate(-264.328 -88.824)" fill="#01d0fb"/>
            </g>
            <g id="Grupo_1174561" data-name="Grupo 1174561">
              <path id="Trazado_1027806" data-name="Trazado 1027806" d="M266.323,92.975V89.181a.357.357,0,0,1,.357-.357h-2a.357.357,0,0,0-.357.357v3.794a.357.357,0,0,0,.357.357h2A.357.357,0,0,1,266.323,92.975Z" transform="translate(-264.328 -88.824)" fill="#01c0fa"/>
            </g>
          </g>
          <g id="Grupo_1174565" data-name="Grupo 1174565" transform="translate(5.384 17.655)">
            <g id="Grupo_1174563" data-name="Grupo 1174563">
              <path id="Trazado_1027807" data-name="Trazado 1027807" d="M268.479,160.444h-3.794a.357.357,0,0,1-.357-.357v-3.794a.357.357,0,0,1,.357-.357h3.794a.357.357,0,0,1,.357.357v3.794A.357.357,0,0,1,268.479,160.444Z" transform="translate(-264.328 -155.936)" fill="#01d0fb"/>
            </g>
            <g id="Grupo_1174564" data-name="Grupo 1174564">
              <path id="Trazado_1027808" data-name="Trazado 1027808" d="M266.323,160.087v-3.794a.357.357,0,0,1,.357-.357h-2a.357.357,0,0,0-.357.357v3.794a.357.357,0,0,0,.357.357h2A.357.357,0,0,1,266.323,160.087Z" transform="translate(-264.328 -155.936)" fill="#01c0fa"/>
            </g>
          </g>
          <g id="Grupo_1174568" data-name="Grupo 1174568" transform="translate(5.384 25.638)">
            <g id="Grupo_1174566" data-name="Grupo 1174566">
              <path id="Trazado_1027809" data-name="Trazado 1027809" d="M268.479,227.556h-3.794a.357.357,0,0,1-.357-.357V223.4a.357.357,0,0,1,.357-.357h3.794a.357.357,0,0,1,.357.357V227.2A.357.357,0,0,1,268.479,227.556Z" transform="translate(-264.328 -223.048)" fill="#01d0fb"/>
            </g>
            <g id="Grupo_1174567" data-name="Grupo 1174567">
              <path id="Trazado_1027810" data-name="Trazado 1027810" d="M266.323,227.2V223.4a.357.357,0,0,1,.357-.357h-2a.357.357,0,0,0-.357.357V227.2a.357.357,0,0,0,.357.357h2A.357.357,0,0,1,266.323,227.2Z" transform="translate(-264.328 -223.048)" fill="#01c0fa"/>
            </g>
          </g>
          <g id="Grupo_1174570" data-name="Grupo 1174570" transform="translate(5.384 33.62)">
            <path id="Trazado_1027811" data-name="Trazado 1027811" d="M268.479,290.159h-3.794a.357.357,0,0,0-.357.357v.915a14.539,14.539,0,0,1,2.206,3.235h1.945a.357.357,0,0,0,.357-.357v-3.794A.357.357,0,0,0,268.479,290.159Z" transform="translate(-264.328 -290.159)" fill="#01d0fb"/>
            <g id="Grupo_1174569" data-name="Grupo 1174569">
              <path id="Trazado_1027812" data-name="Trazado 1027812" d="M266.323,294.259v-3.744a.357.357,0,0,1,.357-.357h-2a.357.357,0,0,0-.357.357v.915A14.562,14.562,0,0,1,266.323,294.259Z" transform="translate(-264.328 -290.159)" fill="#01c0fa"/>
            </g>
          </g>
        </g>
        <g id="Grupo_1174578" data-name="Grupo 1174578" transform="translate(3.607 30.091)">
          <path id="Trazado_1027813" data-name="Trazado 1027813" d="M66.174,260.489a14.567,14.567,0,0,0-3.057.324,7.68,7.68,0,0,1-10.545,9.123,14.514,14.514,0,1,0,13.6-9.447Z" transform="translate(-51.662 -260.489)" fill="#fd5426"/>
          <g id="Grupo_1174572" data-name="Grupo 1174572" transform="translate(0 9.447)">
            <path id="Trazado_1027814" data-name="Trazado 1027814" d="M54.674,344.98a14.5,14.5,0,0,1,.677-4.392,7.636,7.636,0,0,1-2.78-.673,14.519,14.519,0,0,0,13.6,19.576,14.656,14.656,0,0,0,1.506-.078A14.513,14.513,0,0,1,54.674,344.98Z" transform="translate(-51.661 -339.915)" fill="#ef4424"/>
          </g>
          <path id="Trazado_1027815" data-name="Trazado 1027815" d="M101.074,300.1a9.753,9.753,0,0,0-3.3.573,7.694,7.694,0,0,1-5.354,4.634,9.8,9.8,0,1,0,8.654-5.208Z" transform="translate(-86.562 -295.389)" fill="#fff"/>
          <path id="Trazado_1027816" data-name="Trazado 1027816" d="M94.334,309.9a9.815,9.815,0,0,1,8.27-9.68,9.788,9.788,0,0,0-4.83.453,7.694,7.694,0,0,1-5.354,4.634A9.8,9.8,0,0,0,102.6,319.581a9.815,9.815,0,0,1-8.27-9.68Z" transform="translate(-86.562 -295.389)" fill="#eef5f6"/>
          <g id="Grupo_1174573" data-name="Grupo 1174573" transform="translate(32.687 11.117)">
            <path id="Trazado_1027817" data-name="Trazado 1027817" d="M336.009,353.952h-7.03a.357.357,0,0,0-.295.156l-2.21,3.239,2.21,3.239a.357.357,0,0,0,.295.156h7.03a.357.357,0,0,0,.29-.564l-2.02-2.831,2.02-2.831A.357.357,0,0,0,336.009,353.952Z" transform="translate(-326.474 -353.952)" fill="#fff"/>
          </g>
          <g id="Grupo_1174574" data-name="Grupo 1174574" transform="translate(32.687 11.117)">
            <path id="Trazado_1027818" data-name="Trazado 1027818" d="M336.009,353.952h-7.03a.357.357,0,0,0-.295.156l-2.21,3.239,2.21,3.239a.357.357,0,0,0,.295.156h7.03a.357.357,0,0,0,.29-.564l-2.02-2.831,2.02-2.831A.357.357,0,0,0,336.009,353.952Z" transform="translate(-326.474 -353.952)" fill="#fff"/>
          </g>
          <g id="Grupo_1174575" data-name="Grupo 1174575" transform="translate(32.687 11.117)">
            <path id="Trazado_1027819" data-name="Trazado 1027819" d="M331.7,360.585l-2.21-3.239,2.21-3.239a.357.357,0,0,1,.295-.156H328.98a.357.357,0,0,0-.295.156l-2.21,3.239,2.21,3.239a.357.357,0,0,0,.295.156H332A.357.357,0,0,1,331.7,360.585Z" transform="translate(-326.475 -353.951)" fill="#eef5f6"/>
          </g>
          <g id="Grupo_1174576" data-name="Grupo 1174576" transform="translate(9.423 9.423)">
            <circle id="Elipse_12077" data-name="Elipse 12077" cx="5.088" cy="5.088" r="5.088" fill="#fd5426"/>
          </g>
          <g id="Grupo_1174577" data-name="Grupo 1174577" transform="translate(9.423 9.423)">
            <path id="Trazado_1027820" data-name="Trazado 1027820" d="M133.873,344.8a5.1,5.1,0,0,1,3.595-4.864,5.088,5.088,0,1,0,0,9.729A5.1,5.1,0,0,1,133.873,344.8Z" transform="translate(-130.886 -339.714)" fill="#ef4424"/>
          </g>
        </g>
        <g id="Grupo_1174581" data-name="Grupo 1174581" transform="translate(0 24.859)">
          <g id="Grupo_1174579" data-name="Grupo 1174579">
            <circle id="Elipse_12078" data-name="Elipse 12078" cx="7.681" cy="7.681" r="7.681" fill="#fed402"/>
          </g>
          <g id="Grupo_1174580" data-name="Grupo 1174580" transform="translate(0)">
            <path id="Trazado_1027821" data-name="Trazado 1027821" d="M25.339,224.183a7.683,7.683,0,0,1,5.679-7.416,7.681,7.681,0,1,0,0,14.831,7.683,7.683,0,0,1-5.679-7.416Z" transform="translate(-21.335 -216.502)" fill="#fac600"/>
          </g>
        </g>
      </g>
      <g id="Grupo_1174586" data-name="Grupo 1174586" transform="translate(21.348 5.828)">
        <g id="Grupo_1174584" data-name="Grupo 1174584" transform="translate(0 0)">
          <g id="Grupo_1174583" data-name="Grupo 1174583">
            <path id="Trazado_1027822" data-name="Trazado 1027822" d="M79.605,49.122l-2.483,2.483A.417.417,0,0,0,77,51.9V65.413a.417.417,0,0,0,.417.417h12.6a.417.417,0,0,0,.417-.417v-16A.417.417,0,0,0,90.02,49H79.9A.417.417,0,0,0,79.605,49.122Z" transform="translate(-77 -49)" fill="#fdf6ec"/>
          </g>
        </g>
        <g id="Grupo_1174585" data-name="Grupo 1174585">
          <path id="Trazado_1027823" data-name="Trazado 1027823" d="M81.044,65.413V51.9a.418.418,0,0,1,.122-.295l2.483-2.483A.417.417,0,0,1,83.944,49H79.9a.418.418,0,0,0-.295.122l-2.483,2.483A.417.417,0,0,0,77,51.9V65.413a.417.417,0,0,0,.417.417h4.044A.417.417,0,0,1,81.044,65.413Z" transform="translate(-77 -49)" fill="#fef1da"/>
        </g>
      </g>
      <g id="Grupo_1174587" data-name="Grupo 1174587" transform="translate(13.835)">
        <path id="Trazado_1027824" data-name="Trazado 1027824" d="M70.55,27.416a.892.892,0,0,0,.892-.892V2.081A2.084,2.084,0,0,0,69.361,0H39.434a2.084,2.084,0,0,0-2.081,2.081V30.764a15.41,15.41,0,0,0-6.971-.475A8.571,8.571,0,1,0,18.153,40.87a15.4,15.4,0,0,0,28.212,12h23.61A1.469,1.469,0,0,0,71.442,51.4V30.687a.892.892,0,1,0-1.784,0v20.4H47.2a15.3,15.3,0,0,0,1.025-4.7H50.55l1.945,2.85a1.248,1.248,0,0,0,1.032.545h7.03a1.249,1.249,0,0,0,1.016-1.974l-1.014-1.421H60.6a.892.892,0,0,0,0-1.784h-.043l1.014-1.42a1.249,1.249,0,0,0-1.016-1.975h-7.03a1.248,1.248,0,0,0-1.032.545L50.55,44.6H48.223A15.3,15.3,0,0,0,47.2,39.912h.578a1.25,1.25,0,0,0,1.249-1.249V34.869A1.25,1.25,0,0,0,47.78,33.62H43.986a1.244,1.244,0,0,0-.9.381,15.45,15.45,0,0,0-3.952-2.566V7.544H69.658v18.98a.892.892,0,0,0,.892.892ZM53.809,48l-1.1-1.611h5.657L59.516,48Zm0-5.006h5.707L58.366,44.6H52.71Zm-38.19-9.56a6.789,6.789,0,1,1,6.789,6.789,6.8,6.8,0,0,1-6.789-6.789ZM32.846,59.114A13.622,13.622,0,0,1,19.8,41.6,8.538,8.538,0,0,0,22.408,42c.112,0,.223,0,.335-.008A10.686,10.686,0,0,0,38.69,54.442a.892.892,0,1,0-.978-1.492,8.9,8.9,0,0,1-12.9-11.289,8.61,8.61,0,0,0,5.4-4.672,8.9,8.9,0,0,1,11.5,7.615H38.759a5.981,5.981,0,1,0,0,1.784h2.949a8.865,8.865,0,0,1-1.338,3.866.892.892,0,1,0,1.506.956A10.644,10.644,0,0,0,43.5,46.387h2.936A13.636,13.636,0,0,1,32.846,59.114Zm0-12.727h4.1a4.2,4.2,0,1,1,0-1.784h-4.1a.892.892,0,1,0,0,1.784ZM44.521,35.4h2.724v2.724H46.37a15.475,15.475,0,0,0-1.849-2.67V35.4Zm1.914,9.2H43.5a10.688,10.688,0,0,0-12.665-9.609,8.479,8.479,0,0,0,.027-2.973A13.613,13.613,0,0,1,46.435,44.6ZM44.49,5.76H39.137V2.081a.3.3,0,0,1,.3-.3H44.49V5.76Zm1.784,0V1.784H69.361a.3.3,0,0,1,.3.3V5.76Z" transform="translate(-13.835)"/>
        <path id="Trazado_1027825" data-name="Trazado 1027825" d="M335.835,87.114h-13.9a.892.892,0,0,0,0,1.784h13.9a.892.892,0,1,0,0-1.784Z" transform="translate(-284.504 -76.752)"/>
        <path id="Trazado_1027826" data-name="Trazado 1027826" d="M321.936,115.216h8.232a.892.892,0,0,0,0-1.784h-8.232a.892.892,0,0,0,0,1.784Z" transform="translate(-284.504 -99.94)"/>
        <path id="Trazado_1027827" data-name="Trazado 1027827" d="M335.835,154.226h-13.9a.892.892,0,0,0,0,1.784h13.9a.892.892,0,1,0,0-1.784Z" transform="translate(-284.504 -135.882)"/>
        <path id="Trazado_1027828" data-name="Trazado 1027828" d="M321.936,182.328h8.232a.892.892,0,0,0,0-1.784h-8.232a.892.892,0,1,0,0,1.784Z" transform="translate(-284.504 -159.07)"/>
        <path id="Trazado_1027829" data-name="Trazado 1027829" d="M335.835,221.337h-13.9a.892.892,0,0,0,0,1.784h13.9a.892.892,0,1,0,0-1.784Z" transform="translate(-284.504 -195.011)"/>
        <path id="Trazado_1027830" data-name="Trazado 1027830" d="M321.936,249.44h8.232a.892.892,0,0,0,0-1.784h-8.232a.892.892,0,0,0,0,1.784Z" transform="translate(-284.504 -218.199)"/>
        <path id="Trazado_1027831" data-name="Trazado 1027831" d="M263.12,82.573a1.25,1.25,0,0,0-1.249-1.249h-3.794a1.25,1.25,0,0,0-1.249,1.249v3.794a1.25,1.25,0,0,0,1.249,1.249h3.794a1.25,1.25,0,0,0,1.249-1.249Zm-1.784,3.259h-2.724V83.108h2.724Z" transform="translate(-227.926 -71.651)"/>
        <path id="Trazado_1027832" data-name="Trazado 1027832" d="M263.12,149.685a1.25,1.25,0,0,0-1.249-1.249h-3.794a1.25,1.25,0,0,0-1.249,1.249v3.794a1.25,1.25,0,0,0,1.249,1.249h3.794a1.25,1.25,0,0,0,1.249-1.249Zm-1.784,3.259h-2.724V150.22h2.724Z" transform="translate(-227.926 -130.781)"/>
        <path id="Trazado_1027833" data-name="Trazado 1027833" d="M261.871,215.547h-3.794a1.25,1.25,0,0,0-1.249,1.249v3.794a1.25,1.25,0,0,0,1.249,1.249h3.794a1.25,1.25,0,0,0,1.249-1.249V216.8A1.25,1.25,0,0,0,261.871,215.547Zm-.535,4.508h-2.724v-2.724h2.724Z" transform="translate(-227.926 -189.909)"/>
        <path id="Trazado_1027834" data-name="Trazado 1027834" d="M336.727,289.341a.892.892,0,0,0-.892-.892h-13.9a.892.892,0,0,0,0,1.784h13.9A.892.892,0,0,0,336.727,289.341Z" transform="translate(-284.504 -254.14)"/>
        <path id="Trazado_1027835" data-name="Trazado 1027835" d="M321.936,314.768a.892.892,0,1,0,0,1.784h8.232a.892.892,0,1,0,0-1.784Z" transform="translate(-284.504 -277.329)"/>
        <path id="Trazado_1027836" data-name="Trazado 1027836" d="M63.017,245.506v-.644a2.384,2.384,0,0,0-.067-4.768H61.3a.6.6,0,0,1,0-1.2h2.909a.892.892,0,1,0,0-1.784H63.017v-.641a.892.892,0,1,0-1.784,0v.644a2.384,2.384,0,0,0,.067,4.768h1.651a.6.6,0,1,1,0,1.2H60.042a.892.892,0,1,0,0,1.784h1.191v.641a.892.892,0,0,0,1.784,0Z" transform="translate(-53.552 -207.553)"/>
        <path id="Trazado_1027837" data-name="Trazado 1027837" d="M70.809,60.114h12.6a1.311,1.311,0,0,0,1.309-1.309V52.74a.892.892,0,1,0-1.784,0v5.59H71.284V45.489l2.2-2.2h9.449v5.293a.892.892,0,1,0,1.784,0V42.809A1.311,1.311,0,0,0,83.412,41.5H73.292a1.3,1.3,0,0,0-.926.383l-2.483,2.483a1.3,1.3,0,0,0-.384.926V58.805A1.311,1.311,0,0,0,70.809,60.114Z" transform="translate(-62.879 -36.564)"/>
        <path id="Trazado_1027838" data-name="Trazado 1027838" d="M108.854,74.185h-5.627a.892.892,0,0,0,0,1.784h5.627a.892.892,0,1,0,0-1.784Z" transform="translate(-91.809 -65.361)"/>
        <path id="Trazado_1027839" data-name="Trazado 1027839" d="M108.854,99.448h-5.627a.892.892,0,0,0,0,1.784h5.627a.892.892,0,1,0,0-1.784Z" transform="translate(-91.809 -87.619)"/>
        <path id="Trazado_1027840" data-name="Trazado 1027840" d="M109.746,125.83a.892.892,0,0,0-.892-.892h-5.627a.892.892,0,0,0,0,1.784h5.627A.892.892,0,0,0,109.746,125.83Z" transform="translate(-91.809 -110.078)"/>
        <path id="Trazado_1027841" data-name="Trazado 1027841" d="M103.227,150.315a.892.892,0,0,0,0,1.784h2.522a.892.892,0,1,0,0-1.784Z" transform="translate(-91.809 -132.436)"/>
      </g>
    </g>
  </g>
</svg>
