<svg xmlns="http://www.w3.org/2000/svg" xmlns:xlink="http://www.w3.org/1999/xlink" width="110" height="110" viewBox="0 0 110 110">
  <defs>
    <filter id="Trazado_982547" x="0" y="0" width="110" height="110" filterUnits="userSpaceOnUse">
      <feOffset dy="3" input="SourceAlpha"/>
      <feGaussianBlur stdDeviation="3" result="blur"/>
      <feFlood flood-opacity="0.161"/>
      <feComposite operator="in" in2="blur"/>
      <feComposite in="SourceGraphic"/>
    </filter>
  </defs>
  <g id="Grupo_1199811" data-name="Grupo 1199811" transform="translate(-678.301 -7751)">
    <g id="Grupo_1173087" data-name="Grupo 1173087" transform="translate(687.301 7757)">
      <g id="Grupo_1172182" data-name="Grupo 1172182" transform="translate(0)">
        <g id="Grupo_1171416" data-name="Grupo 1171416">
          <g id="Grupo_1163803" data-name="Grupo 1163803">
            <g id="Grupo_1163015" data-name="Grupo 1163015">
              <g id="Grupo_1157017" data-name="Grupo 1157017" transform="translate(0 0)">
                <g id="Grupo_1155793" data-name="Grupo 1155793">
                  <g id="Grupo_1154704" data-name="Grupo 1154704">
                    <g id="Grupo_1150790" data-name="Grupo 1150790">
                      <g id="Grupo_1154214" data-name="Grupo 1154214">
                        <g id="Grupo_1152583" data-name="Grupo 1152583">
                          <g id="Grupo_1146973" data-name="Grupo 1146973" transform="translate(0 0)">
                            <g id="Grupo_1146954" data-name="Grupo 1146954">
                              <g transform="matrix(1, 0, 0, 1, -9, -6)" filter="url(#Trazado_982547)">
                                <g id="Trazado_982547-2" data-name="Trazado 982547" transform="translate(9 6)" fill="#f2f7f5">
                                  <path d="M 46 90.49987030029297 C 39.99187850952148 90.49987030029297 34.16426849365234 89.32350921630859 28.67905426025391 87.00345611572266 C 23.38019943237305 84.76224517822266 18.62104034423828 81.55341339111328 14.53374671936035 77.46613311767578 C 10.44646644592285 73.37885284423828 7.237639904022217 68.61969757080078 4.996413230895996 63.32085418701172 C 2.676359891891479 57.83565521240234 1.5 52.008056640625 1.5 45.99993515014648 C 1.5 39.99181365966797 2.676359891891479 34.16421508789062 4.996413230895996 28.67901420593262 C 7.237639904022217 23.38017463684082 10.44646644592285 18.62101554870605 14.53374671936035 14.53373527526855 C 18.62104034423828 10.44645500183105 23.38019943237305 7.23762845993042 28.67905426025391 4.996415138244629 C 34.16426849365234 2.676361799240112 39.99187850952148 1.500001788139343 46 1.500001788139343 C 52.00812149047852 1.500001788139343 57.83573150634766 2.676361799240112 63.32094573974609 4.996415138244629 C 68.61979675292969 7.23762845993042 73.37895965576172 10.44645500183105 77.46625518798828 14.53373527526855 C 81.55353546142578 18.62101554870605 84.76235961914062 23.38017463684082 87.00358581542969 28.67901420593262 C 89.32363891601562 34.16421508789062 90.5 39.99181365966797 90.5 45.99993515014648 C 90.5 52.008056640625 89.32363891601562 57.83565521240234 87.00358581542969 63.32085418701172 C 84.76235961914062 68.61969757080078 81.55353546142578 73.37885284423828 77.46625518798828 77.46613311767578 C 73.37895965576172 81.55341339111328 68.61979675292969 84.76224517822266 63.32094573974609 87.00345611572266 C 57.83573150634766 89.32350921630859 52.00812149047852 90.49987030029297 46 90.49987030029297 Z" stroke="none"/>
                                  <path d="M 46 2.999992370605469 C 40.1937141418457 2.999992370605469 34.56269836425781 4.136489868164062 29.26337051391602 6.377906799316406 C 24.14332580566406 8.543502807617188 19.54441070556641 11.64437866210938 15.59439849853516 15.59437561035156 C 11.64440155029297 19.54439544677734 8.54351806640625 24.14329528808594 6.377914428710938 29.26333618164062 C 4.136497497558594 34.56264877319336 3 40.19366455078125 3 45.99993515014648 C 3 51.80620574951172 4.136497497558594 57.43720626831055 6.377914428710938 62.73651885986328 C 8.54351806640625 67.8565673828125 11.64440155029297 72.45545959472656 15.59439849853516 76.40547943115234 C 19.54441070556641 80.35547637939453 24.14332580566406 83.45635223388672 29.26337051391602 85.6219482421875 C 34.56269836425781 87.86336517333984 40.1937141418457 88.99986267089844 46 88.99986267089844 C 51.8062858581543 88.99986267089844 57.43730163574219 87.86336517333984 62.73661422729492 85.6219482421875 C 67.85667419433594 83.45635223388672 72.45557403564453 80.35547637939453 76.40558624267578 76.40547943115234 C 80.35559844970703 72.45545959472656 83.45647430419922 67.8565673828125 85.6220703125 62.73651885986328 C 87.86350250244141 57.43720626831055 89 51.80620574951172 89 45.99993515014648 C 89 40.19366455078125 87.86350250244141 34.56264877319336 85.6220703125 29.26333618164062 C 83.45647430419922 24.14329528808594 80.35559844970703 19.54439544677734 76.40558624267578 15.59437561035156 C 72.45557403564453 11.64437866210938 67.85667419433594 8.543502807617188 62.73661422729492 6.377906799316406 C 57.43730163574219 4.136489868164062 51.8062858581543 2.999992370605469 46 2.999992370605469 M 46 -7.62939453125e-06 C 71.40509033203125 -7.62939453125e-06 92 20.59486389160156 92 45.99993515014648 C 92 71.40499114990234 71.40509033203125 91.99986267089844 46 91.99986267089844 C 20.59490203857422 91.99986267089844 0 71.40499114990234 0 45.99993515014648 C 0 20.59486389160156 20.59490203857422 -7.62939453125e-06 46 -7.62939453125e-06 Z" stroke="none" fill="#88bba9"/>
                                </g>
                              </g>
                            </g>
                          </g>
                        </g>
                      </g>
                    </g>
                  </g>
                </g>
              </g>
            </g>
          </g>
        </g>
      </g>
    </g>
    <g id="coding" transform="translate(707.301 7766.004)">
      <path id="Trazado_1039057" data-name="Trazado 1039057" d="M278.618,65.355a2.428,2.428,0,1,0,0,4.856h9.148a2.428,2.428,0,1,0,0-4.856Z" transform="translate(-247.936 -47.901)" fill="#ccf5fc" fill-rule="evenodd"/>
      <path id="Trazado_1039058" data-name="Trazado 1039058" d="M72.246,65.355a2.428,2.428,0,1,0,2.432,2.428A2.428,2.428,0,0,0,72.246,65.355Z" transform="translate(-62.675 -47.901)" fill="#ccf5fc" fill-rule="evenodd"/>
      <path id="Trazado_1039059" data-name="Trazado 1039059" d="M72.144,70.121a2.439,2.439,0,1,1,2.444-2.439A2.443,2.443,0,0,1,72.144,70.121Zm0-4.856a2.416,2.416,0,1,0,2.42,2.416A2.42,2.42,0,0,0,72.144,65.265Z" transform="translate(-62.573 -47.799)" fill="#8aa8bd"/>
      <g id="Grupo_1199810" data-name="Grupo 1199810" transform="translate(1.032 13.028)">
        <path id="Trazado_1039060" data-name="Trazado 1039060" d="M159.918,65.355a2.428,2.428,0,1,0,2.432,2.428A2.428,2.428,0,0,0,159.918,65.355Z" transform="translate(-142.41 -60.928)" fill="#dc72a9" fill-rule="evenodd"/>
        <path id="Trazado_1039061" data-name="Trazado 1039061" d="M336.916,319.737a5.269,5.269,0,1,0,5.27,5.27A5.27,5.27,0,0,0,336.916,319.737Z" transform="translate(-298.748 -289.288)" fill="#fff" fill-rule="evenodd"/>
        <path id="Trazado_1039062" data-name="Trazado 1039062" d="M274.353,253.84v1.179a9.948,9.948,0,0,0-3.061,1.283l-.832-.829a1.281,1.281,0,0,0-1.809,0l-1.319,1.318a1.279,1.279,0,0,0,0,1.808l.841.843a9.893,9.893,0,0,0-1.255,3.045h-1.183a1.282,1.282,0,0,0-1.278,1.278v1.869a1.282,1.282,0,0,0,1.278,1.278h1.186a9.841,9.841,0,0,0,1.273,3.059l-.838.834a1.285,1.285,0,0,0,0,1.808l1.322,1.321a1.281,1.281,0,0,0,1.809,0l.835-.834a9.9,9.9,0,0,0,3.067,1.269v1.191a1.284,1.284,0,0,0,1.278,1.281h1.87a1.284,1.284,0,0,0,1.278-1.281v-1.188a9.889,9.889,0,0,0,3.073-1.272l.838.834a1.281,1.281,0,0,0,1.809,0l1.319-1.321a1.279,1.279,0,0,0,0-1.808l-.835-.834a9.9,9.9,0,0,0,1.27-3.059h1.18a1.284,1.284,0,0,0,1.281-1.278v-1.869a1.284,1.284,0,0,0-1.281-1.278h-1.174a9.874,9.874,0,0,0-1.275-3.077l.835-.837a1.279,1.279,0,0,0,0-1.808l-.835-.834-.484-.484a1.281,1.281,0,0,0-1.809,0l-.838.834A9.89,9.89,0,0,0,278.78,255V253.84a1.285,1.285,0,0,0-1.281-1.281h-1.867A1.283,1.283,0,0,0,274.353,253.84Zm2.249,5.592a5.269,5.269,0,1,1-5.273,5.27A5.269,5.269,0,0,1,276.6,259.431Z" transform="translate(-238.435 -228.982)" fill="#ccf5fc" fill-rule="evenodd"/>
        <path id="Trazado_1039063" data-name="Trazado 1039063" d="M52.857,22.08H13.893c-2.1,0-3.809,2.045-3.809,4.549v9.086H56.666V26.629C56.666,24.128,54.953,22.08,52.857,22.08ZM27.592,26.507a2.428,2.428,0,1,1-2.429,2.428A2.43,2.43,0,0,1,27.592,26.507Zm-8.969,0a2.428,2.428,0,1,1-2.429,2.428A2.43,2.43,0,0,1,18.624,26.507Zm18.682,2.428a2.435,2.435,0,0,1,2.429-2.428h9.148a2.428,2.428,0,1,1,0,4.856H39.735A2.435,2.435,0,0,1,37.306,28.935Z" transform="translate(-10.084 -22.08)" fill="#8aa8bd" fill-rule="evenodd"/>
        <path id="Trazado_1039064" data-name="Trazado 1039064" d="M26.128,155.36H10.084v19.747c0,2.5,1.716,4.549,3.809,4.549H37.384a1.282,1.282,0,0,1-1.278-1.278v-1.869a1.282,1.282,0,0,1,1.278-1.278h1.183a9.9,9.9,0,0,1,1.255-3.045l-.841-.843a1.279,1.279,0,0,1,0-1.808l1.319-1.318a1.281,1.281,0,0,1,1.809,0l.832.829A9.944,9.944,0,0,1,46,167.763v-1.179A1.283,1.283,0,0,1,47.28,165.3h1.867a1.285,1.285,0,0,1,1.281,1.281v1.162a9.89,9.89,0,0,1,3.107,1.281l.838-.834a1.281,1.281,0,0,1,1.809,0l.484.484V155.36Z" transform="translate(-10.084 -141.726)" fill="#fff" fill-rule="evenodd"/>
      </g>
      <path id="Trazado_1039065" data-name="Trazado 1039065" d="M63.194,55.271a3.459,3.459,0,1,0,3.464,3.459A3.464,3.464,0,0,0,63.194,55.271Zm0,4.856a1.4,1.4,0,1,1,1.4-1.4A1.4,1.4,0,0,1,63.194,60.127Z" transform="translate(-53.622 -38.848)"/>
      <path id="Trazado_1039066" data-name="Trazado 1039066" d="M278.714,55.271h-9.148a3.459,3.459,0,1,0,0,6.919h9.148a3.459,3.459,0,1,0,0-6.919Zm0,4.856h-9.148a1.4,1.4,0,1,1,0-2.793h9.148a1.4,1.4,0,1,1,0,2.793Z" transform="translate(-238.883 -38.848)"/>
      <path id="Trazado_1039067" data-name="Trazado 1039067" d="M150.866,55.271a3.459,3.459,0,1,0,3.464,3.459A3.464,3.464,0,0,0,150.866,55.271Zm0,4.856a1.4,1.4,0,1,1,1.4-1.4A1.4,1.4,0,0,1,150.866,60.127Z" transform="translate(-132.326 -38.848)"/>
      <path id="Trazado_1039068" data-name="Trazado 1039068" d="M135.674,222.193a1.031,1.031,0,0,0-1.243.764l-2.047,8.564a1.032,1.032,0,1,0,2.007.48l2.047-8.564A1.032,1.032,0,0,0,135.674,222.193Z" transform="translate(-118.816 -188.669)"/>
      <path id="Trazado_1039069" data-name="Trazado 1039069" d="M198.783,238.548a1.032,1.032,0,0,0,1.457-.084l2.893-3.247a1.431,1.431,0,0,0,0-1.891l-2.9-3.251a1.032,1.032,0,1,0-1.541,1.372l2.514,2.822-2.514,2.822A1.032,1.032,0,0,0,198.783,238.548Z" transform="translate(-178.138 -195.46)"/>
      <path id="Trazado_1039070" data-name="Trazado 1039070" d="M61.763,229.991a1.032,1.032,0,0,0-1.457.084l-2.892,3.247a1.431,1.431,0,0,0,0,1.892l2.9,3.251a1.032,1.032,0,1,0,1.541-1.372l-2.514-2.822,2.514-2.822A1.032,1.032,0,0,0,61.763,229.991Z" transform="translate(-51.218 -195.461)"/>
      <path id="Trazado_1039071" data-name="Trazado 1039071" d="M50.063,45.5H49.68a10.861,10.861,0,0,0-.778-1.877l.273-.274a2.311,2.311,0,0,0,0-3.269l-.533-.532V17.576c0-3.077-2.171-5.58-4.84-5.58H4.841C2.171,12,0,14.5,0,17.576V46.409c0,3.077,2.171,5.58,4.84,5.58h6.053a1.032,1.032,0,1,0,0-2.063H4.841c-1.505,0-2.777-1.611-2.777-3.517V27.693H46.582V38.118a2.345,2.345,0,0,0-.358-.03h0a2.287,2.287,0,0,0-1.628.674l-.279.278a10.89,10.89,0,0,0-1.907-.787v-.367a2.315,2.315,0,0,0-2.313-2.312H38.228a2.314,2.314,0,0,0-2.31,2.312v.393a10.95,10.95,0,0,0-1.863.78l-.267-.266a2.29,2.29,0,0,0-1.631-.678h0a2.3,2.3,0,0,0-1.635.676L29.2,40.108a2.311,2.311,0,0,0,0,3.266l.285.286a10.893,10.893,0,0,0-.76,1.842h-.392a2.312,2.312,0,0,0-2.31,2.309V49.68a2.326,2.326,0,0,0,.013.246h-6a1.032,1.032,0,1,0,0,2.063h8.695a10.83,10.83,0,0,0,.772,1.857l-.279.278a2.315,2.315,0,0,0,0,3.265l1.32,1.319a2.29,2.29,0,0,0,1.631.678h0a2.3,2.3,0,0,0,1.635-.676l.276-.276a10.9,10.9,0,0,0,1.864.773v.4a2.314,2.314,0,0,0,2.31,2.312h1.87a2.314,2.314,0,0,0,2.31-2.312v-.4a10.872,10.872,0,0,0,1.872-.775l.275.274a2.29,2.29,0,0,0,1.631.678h0a2.3,2.3,0,0,0,1.636-.676l1.316-1.318a2.311,2.311,0,0,0,0-3.269l-.275-.275a10.892,10.892,0,0,0,.771-1.857h.39a2.314,2.314,0,0,0,2.313-2.309V47.811A2.313,2.313,0,0,0,50.063,45.5Zm-48-19.872V17.576c0-1.906,1.272-3.517,2.777-3.517H43.805c1.505,0,2.777,1.611,2.777,3.517V25.63H2.063Zm48.25,24.05a.254.254,0,0,1-.25.246h-1.18a1.032,1.032,0,0,0-1.006.8,8.856,8.856,0,0,1-1.138,2.741,1.032,1.032,0,0,0,.144,1.279l.835.834a.247.247,0,0,1,.072.176.239.239,0,0,1-.072.174L46.4,57.251a.249.249,0,0,1-.176.072h0a.24.24,0,0,1-.175-.073l-.838-.834a1.032,1.032,0,0,0-1.277-.142,8.839,8.839,0,0,1-2.752,1.139,1.032,1.032,0,0,0-.8,1.006v1.188a.254.254,0,0,1-.247.249h-1.87a.254.254,0,0,1-.247-.249V58.415a1.032,1.032,0,0,0-.8-1.006,8.851,8.851,0,0,1-2.747-1.137,1.031,1.031,0,0,0-1.277.145l-.835.834a.249.249,0,0,1-.176.072h0A.24.24,0,0,1,32,57.251L30.681,55.93a.254.254,0,0,1,0-.347l.838-.834a1.031,1.031,0,0,0,.144-1.282,8.793,8.793,0,0,1-1.139-2.739,1.032,1.032,0,0,0-1.006-.8H28.332a.25.25,0,0,1-.247-.246V47.811a.25.25,0,0,1,.247-.246h1.183a1.032,1.032,0,0,0,1.006-.8,8.849,8.849,0,0,1,1.124-2.728A1.032,1.032,0,0,0,31.5,42.76l-.844-.846a.237.237,0,0,1-.069-.171.247.247,0,0,1,.072-.176l1.319-1.318a.248.248,0,0,1,.176-.072h0a.241.241,0,0,1,.175.073l.832.829a1.031,1.031,0,0,0,1.28.14,8.9,8.9,0,0,1,2.744-1.15,1.032,1.032,0,0,0,.8-1V37.886a.251.251,0,0,1,.247-.249h1.867a.253.253,0,0,1,.25.249v1.162a1.031,1.031,0,0,0,.807,1.007A8.844,8.844,0,0,1,43.935,41.2a1.032,1.032,0,0,0,1.276-.143l.841-.838a.238.238,0,0,1,.171-.07h0a.248.248,0,0,1,.176.072l1.319,1.318a.247.247,0,0,1,.072.176.24.24,0,0,1-.073.174l-.835.837a1.032,1.032,0,0,0-.142,1.279,8.83,8.83,0,0,1,1.142,2.756,1.032,1.032,0,0,0,1.006.8h1.174a.254.254,0,0,1,.25.246Z"/>
      <path id="Trazado_1039072" data-name="Trazado 1039072" d="M327.863,309.652a6.3,6.3,0,1,0,6.3,6.3A6.31,6.31,0,0,0,327.863,309.652Zm0,10.537a4.237,4.237,0,1,1,4.238-4.236A4.243,4.243,0,0,1,327.863,320.189Z" transform="translate(-288.664 -267.207)"/>
      <path id="Trazado_1039073" data-name="Trazado 1039073" d="M142.224,382.778h-.02a1.032,1.032,0,1,0,0,2.063h.02a1.032,1.032,0,1,0,0-2.063Z" transform="translate(-126.73 -332.852)"/>
    </g>
  </g>
</svg>
